<svg width="370" height="190" viewBox="0 0 370 190" fill="none" xmlns="http://www.w3.org/2000/svg">
<mask id="path-1-outside-1_63_9863" maskUnits="userSpaceOnUse" x="18" y="1" width="329" height="189" fill="black">
<rect fill="white" x="18" y="1" width="329" height="189"/>
<path d="M22.3972 90C20.1572 90 19.3172 88.92 19.8772 86.76L40.3972 4.91999C40.7972 3.24 41.8772 2.4 43.6372 2.4H57.6772C59.4372 2.4 60.5172 3.24 60.9172 4.91999L81.5572 86.76C82.1172 88.92 81.2772 90 79.0372 90H69.7972C68.0372 90 66.9972 89.12 66.6772 87.36L62.3572 68.76H39.0772L34.8772 87.36C34.4772 89.12 33.3972 90 31.6372 90H22.3972ZM41.8372 56.52H59.5972L54.3172 33C53.9172 31.32 53.5572 29.76 53.2372 28.32C52.9972 26.88 52.7572 25.52 52.5172 24.24C52.1972 22.8 51.6372 21.92 50.8372 21.6C50.0372 21.2 49.5172 21.6 49.2772 22.8C49.0372 24.32 48.7172 25.92 48.3172 27.6C47.9972 29.28 47.5972 31.04 47.1172 32.88L41.8372 56.52ZM93.9903 90C91.9903 90 90.9903 89 90.9903 87V5.39999C90.9903 3.4 91.9903 2.4 93.9903 2.4H103.11C105.03 2.4 105.99 3.4 105.99 5.39999V38.16H116.31L132.03 4.56C132.67 3.12 133.79 2.4 135.39 2.4H145.35C146.47 2.4 147.23 2.76 147.63 3.48C148.11 4.11999 148.11 4.91999 147.63 5.88L129.51 44.16L148.59 86.52C149.07 87.48 149.07 88.32 148.59 89.04C148.19 89.68 147.43 90 146.31 90H135.99C134.31 90 133.15 89.24 132.51 87.72L116.19 51.24H105.99V87C105.99 89 105.03 90 103.11 90H93.9903ZM180.463 90C178.463 90 177.463 89 177.463 87V15.96H157.543C155.543 15.96 154.543 14.96 154.543 12.96V5.39999C154.543 3.4 155.543 2.4 157.543 2.4H212.503C214.503 2.4 215.503 3.4 215.503 5.39999V12.96C215.503 14.96 214.503 15.96 212.503 15.96H192.583V87C192.583 89 191.583 90 189.583 90H180.463ZM224.817 90V2.4H238.497V45.24C238.497 48.12 238.417 51.28 238.257 54.72C238.097 58.16 237.897 61.52 237.657 64.8C237.417 68.08 237.217 70.88 237.057 73.2L261.177 2.4H279.537V90H265.857V48.48C265.857 45.68 265.937 42.48 266.097 38.88C266.337 35.28 266.577 31.76 266.817 28.32C267.057 24.8 267.297 21.76 267.537 19.2L243.177 90H224.817ZM300.13 57.36V43.44H338.53V57.36H300.13ZM26.9572 172C24.9572 172 23.9572 171 23.9572 169V87.4C23.9572 85.4 24.9572 84.4 26.9572 84.4H50.8372C59.2372 84.4 65.9172 86.44 70.8772 90.52C75.9172 94.6 78.4372 100.08 78.4372 106.96C78.4372 111.76 77.0372 115.88 74.2372 119.32C71.5172 122.76 67.9572 124.84 63.5572 125.56V125.8C66.8372 126.2 69.7572 127.4 72.3172 129.4C74.8772 131.32 76.8772 133.84 78.3172 136.96C79.7572 140 80.4772 143.36 80.4772 147.04C80.4772 152.08 79.3172 156.48 76.9972 160.24C74.6772 164 71.3972 166.92 67.1572 169C62.9172 171 57.9172 172 52.1572 172H26.9572ZM38.5972 120.52H50.5972C54.5172 120.52 57.6372 119.48 59.9572 117.4C62.2772 115.24 63.4372 112.32 63.4372 108.64C63.4372 105.04 62.2772 102.2 59.9572 100.12C57.7172 97.96 54.5972 96.88 50.5972 96.88H41.4772C39.5572 96.88 38.5972 97.88 38.5972 99.88V120.52ZM38.5972 156.52C38.5972 158.52 39.5572 159.52 41.4772 159.52H51.3172C55.7172 159.52 59.1572 158.36 61.6372 156.04C64.1972 153.64 65.4772 150.4 65.4772 146.32C65.4772 142.24 64.1972 138.96 61.6372 136.48C59.1572 133.92 55.7172 132.64 51.3172 132.64H38.5972V156.52ZM89.5503 172C87.3103 172 86.4703 170.92 87.0303 168.76L107.55 86.92C107.95 85.24 109.03 84.4 110.79 84.4H124.83C126.59 84.4 127.67 85.24 128.07 86.92L148.71 168.76C149.27 170.92 148.43 172 146.19 172H136.95C135.19 172 134.15 171.12 133.83 169.36L129.51 150.76H106.23L102.03 169.36C101.63 171.12 100.55 172 98.7903 172H89.5503ZM108.99 138.52H126.75L121.47 115C121.07 113.32 120.71 111.76 120.39 110.32C120.15 108.88 119.91 107.52 119.67 106.24C119.35 104.8 118.79 103.92 117.99 103.6C117.19 103.2 116.67 103.6 116.43 104.8C116.19 106.32 115.87 107.92 115.47 109.6C115.15 111.28 114.75 113.04 114.27 114.88L108.99 138.52ZM203.983 188.8V172H158.383V84.4H173.383V158.56H193.783V84.4H208.783V158.56H217.783V188.8H203.983ZM224.817 172V84.4H238.497V127.24C238.497 130.12 238.417 133.28 238.257 136.72C238.097 140.16 237.897 143.52 237.657 146.8C237.417 150.08 237.217 152.88 237.057 155.2L261.177 84.4H279.537V172H265.857V130.48C265.857 127.68 265.937 124.48 266.097 120.88C266.337 117.28 266.577 113.76 266.817 110.32C267.057 106.8 267.297 103.76 267.537 101.2L243.177 172H224.817ZM288.73 172L305.65 135.04C300.69 133.2 296.77 130.12 293.89 125.8C291.09 121.4 289.69 116.28 289.69 110.44C289.69 105.16 290.85 100.6 293.17 96.76C295.57 92.84 298.93 89.8 303.25 87.64C307.57 85.48 312.61 84.4 318.37 84.4H345.97V172H330.97V137.2H320.29L305.17 172H288.73ZM318.37 124.12H330.97V97.48H318.37C314.21 97.48 310.89 98.72 308.41 101.2C306.01 103.6 304.81 106.84 304.81 110.92C304.81 115 306.01 118.24 308.41 120.64C310.89 122.96 314.21 124.12 318.37 124.12Z"/>
</mask>
<path d="M19.8772 86.76L20.8452 87.011L20.8472 87.0032L19.8772 86.76ZM40.3972 4.91999L41.3672 5.16322L41.37 5.15161L40.3972 4.91999ZM60.9172 4.91999L59.9443 5.15163L59.9476 5.16454L60.9172 4.91999ZM81.5572 86.76L80.5875 87.0045L80.5892 87.011L81.5572 86.76ZM66.6772 87.36L67.6611 87.1811L67.6567 87.1573L67.6513 87.1338L66.6772 87.36ZM62.3572 68.76L63.3313 68.5338L63.1516 67.76H62.3572V68.76ZM39.0772 68.76V67.76H38.2778L38.1018 68.5397L39.0772 68.76ZM34.8772 87.36L35.8523 87.5816L35.8526 87.5803L34.8772 87.36ZM41.8372 56.52L40.8612 56.302L40.5892 57.52H41.8372V56.52ZM59.5972 56.52V57.52H60.8466L60.5729 56.301L59.5972 56.52ZM54.3172 33L55.293 32.7809L55.29 32.7684L54.3172 33ZM53.2372 28.32L52.2508 28.4844L52.2552 28.5108L52.261 28.5369L53.2372 28.32ZM52.5172 24.24L53.5001 24.0557L53.497 24.0393L53.4934 24.0231L52.5172 24.24ZM50.8372 21.6L50.39 22.4944L50.4272 22.513L50.4658 22.5285L50.8372 21.6ZM49.2772 22.8L48.2966 22.6039L48.2926 22.6239L48.2894 22.644L49.2772 22.8ZM48.3172 27.6L47.3444 27.3684L47.3391 27.3905L47.3349 27.4129L48.3172 27.6ZM47.1172 32.88L46.1496 32.6276L46.1451 32.6447L46.1412 32.662L47.1172 32.88ZM22.3972 90V89C21.3906 89 21.013 88.7515 20.8765 88.5761C20.7412 88.4021 20.5941 87.9793 20.8452 87.011L19.8772 86.76L18.9092 86.509C18.6003 87.7007 18.5932 88.8979 19.2978 89.8039C20.0014 90.7085 21.1638 91 22.3972 91V90ZM19.8772 86.76L20.8472 87.0032L41.3672 5.1632L40.3972 4.91999L39.4272 4.67679L18.9072 86.5168L19.8772 86.76ZM40.3972 4.91999L41.37 5.15161C41.5314 4.47372 41.8035 4.0664 42.1211 3.81935C42.4408 3.5707 42.9153 3.39999 43.6372 3.39999V2.39999V1.39999C42.5991 1.39999 41.6536 1.64929 40.8933 2.24065C40.1309 2.8336 39.663 3.68626 39.4244 4.68837L40.3972 4.91999ZM43.6372 2.39999V3.39999H57.6772V2.39999V1.39999H43.6372V2.39999ZM57.6772 2.39999V3.39999C58.3991 3.39999 58.8736 3.5707 59.1933 3.81935C59.5109 4.0664 59.783 4.47372 59.9444 5.15161L60.9172 4.91999L61.89 4.68837C61.6514 3.68626 61.1835 2.8336 60.4211 2.24065C59.6608 1.64929 58.7153 1.39999 57.6772 1.39999V2.39999ZM60.9172 4.91999L59.9476 5.16454L80.5876 87.0045L81.5572 86.76L82.5268 86.5155L61.8868 4.67545L60.9172 4.91999ZM81.5572 86.76L80.5892 87.011C80.8403 87.9793 80.6932 88.4021 80.5578 88.5761C80.4214 88.7515 80.0438 89 79.0372 89V90V91C80.2706 91 81.433 90.7085 82.1366 89.8039C82.8412 88.8979 82.8341 87.7007 82.5252 86.509L81.5572 86.76ZM79.0372 90V89H69.7972V90V91H79.0372V90ZM69.7972 90V89C69.0833 89 68.6353 88.8238 68.3431 88.5766C68.049 88.3277 67.7927 87.9051 67.6611 87.1811L66.6772 87.36L65.6933 87.5389C65.8817 88.5749 66.3054 89.4723 67.0513 90.1034C67.7991 90.7362 68.7511 91 69.7972 91V90ZM66.6772 87.36L67.6513 87.1338L63.3313 68.5338L62.3572 68.76L61.3831 68.9862L65.7031 87.5862L66.6772 87.36ZM62.3572 68.76V67.76H39.0772V68.76V69.76H62.3572V68.76ZM39.0772 68.76L38.1018 68.5397L33.9018 87.1397L34.8772 87.36L35.8526 87.5803L40.0526 68.9803L39.0772 68.76ZM34.8772 87.36L33.9021 87.1384C33.7368 87.8655 33.4571 88.3027 33.1355 88.5648C32.8167 88.8246 32.349 89 31.6372 89V90V91C32.6854 91 33.6377 90.7354 34.3989 90.1152C35.1573 89.4973 35.6176 88.6145 35.8523 87.5816L34.8772 87.36ZM31.6372 90V89H22.3972V90V91H31.6372V90ZM41.8372 56.52V57.52H59.5972V56.52V55.52H41.8372V56.52ZM59.5972 56.52L60.5729 56.301L55.2929 32.781L54.3172 33L53.3415 33.219L58.6215 56.739L59.5972 56.52ZM54.3172 33L55.29 32.7684C54.891 31.0925 54.5321 29.5374 54.2134 28.1031L53.2372 28.32L52.261 28.5369C52.5823 29.9826 52.9434 31.5475 53.3444 33.2316L54.3172 33ZM53.2372 28.32L54.2236 28.1556C53.9826 26.7097 53.7414 25.3431 53.5001 24.0557L52.5172 24.24L51.5343 24.4243C51.7729 25.6969 52.0118 27.0503 52.2508 28.4844L53.2372 28.32ZM52.5172 24.24L53.4934 24.0231C53.1525 22.4891 52.4825 21.1811 51.2086 20.6715L50.8372 21.6L50.4658 22.5285C50.7919 22.6589 51.2419 23.1109 51.541 24.4569L52.5172 24.24ZM50.8372 21.6L51.2844 20.7056C50.687 20.4068 49.9116 20.2888 49.2375 20.8074C48.6779 21.2378 48.4279 21.9476 48.2966 22.6039L49.2772 22.8L50.2578 22.9961C50.3073 22.7484 50.3637 22.5828 50.413 22.479C50.4628 22.3741 50.4881 22.3686 50.4569 22.3926C50.411 22.428 50.3438 22.45 50.2897 22.45C50.2544 22.45 50.282 22.4404 50.39 22.4944L50.8372 21.6ZM49.2772 22.8L48.2894 22.644C48.0539 24.1358 47.7391 25.7104 47.3444 27.3684L48.3172 27.6L49.29 27.8316C49.6953 26.1296 50.0205 24.5042 50.265 22.956L49.2772 22.8ZM48.3172 27.6L47.3349 27.4129C47.0195 29.0687 46.6246 30.8068 46.1496 32.6276L47.1172 32.88L48.0848 33.1324C48.5698 31.2732 48.9749 29.4913 49.2995 27.7871L48.3172 27.6ZM47.1172 32.88L46.1412 32.662L40.8612 56.302L41.8372 56.52L42.8131 56.738L48.0931 33.098L47.1172 32.88ZM105.99 38.16H104.99V39.16H105.99V38.16ZM116.31 38.16V39.16H116.946L117.216 38.5838L116.31 38.16ZM132.03 4.56L132.936 4.98377L132.94 4.97499L132.944 4.96614L132.03 4.56ZM147.63 3.48L146.756 3.96564L146.789 4.02535L146.83 4.08L147.63 3.48ZM147.63 5.88L146.736 5.43279L146.731 5.44242L146.726 5.45216L147.63 5.88ZM129.51 44.16L128.606 43.7322L128.409 44.1496L128.599 44.5707L129.51 44.16ZM148.59 86.52L147.679 86.9307L147.687 86.9491L147.696 86.9672L148.59 86.52ZM148.59 89.04L147.758 88.4853L147.75 88.4975L147.742 88.51L148.59 89.04ZM132.51 87.72L133.432 87.3319L133.428 87.3217L133.423 87.3116L132.51 87.72ZM116.19 51.24L117.103 50.8316L116.838 50.24H116.19V51.24ZM105.99 51.24V50.24H104.99V51.24H105.99ZM93.9903 90V89C93.1445 89 92.6937 88.7892 92.4474 88.5429C92.2011 88.2966 91.9903 87.8459 91.9903 87H90.9903H89.9903C89.9903 88.1541 90.2795 89.2034 91.0332 89.9571C91.7869 90.7108 92.8362 91 93.9903 91V90ZM90.9903 87H91.9903V5.39999H90.9903H89.9903V87H90.9903ZM90.9903 5.39999H91.9903C91.9903 4.55414 92.2011 4.10342 92.4474 3.8571C92.6937 3.61079 93.1445 3.39999 93.9903 3.39999V2.39999V1.39999C92.8362 1.39999 91.7869 1.68921 91.0332 2.44289C90.2795 3.19657 89.9903 4.24585 89.9903 5.39999H90.9903ZM93.9903 2.39999V3.39999H103.11V2.39999V1.39999H93.9903V2.39999ZM103.11 2.39999V3.39999C103.906 3.39999 104.321 3.60495 104.549 3.84253C104.784 4.08772 104.99 4.54416 104.99 5.39999H105.99H106.99C106.99 4.25583 106.716 3.21227 105.992 2.45747C105.26 1.69505 104.235 1.39999 103.11 1.39999V2.39999ZM105.99 5.39999H104.99V38.16H105.99H106.99V5.39999H105.99ZM105.99 38.16V39.16H116.31V38.16V37.16H105.99V38.16ZM116.31 38.16L117.216 38.5838L132.936 4.98377L132.03 4.56L131.125 4.13623L115.405 37.7362L116.31 38.16ZM132.03 4.56L132.944 4.96614C133.2 4.39114 133.523 4.01755 133.891 3.78117C134.26 3.54415 134.743 3.39999 135.39 3.39999V2.39999V1.39999C134.438 1.39999 133.561 1.61584 132.81 2.09882C132.057 2.58245 131.501 3.28886 131.117 4.15386L132.03 4.56ZM135.39 2.39999V3.39999H145.35V2.39999V1.39999H135.39V2.39999ZM145.35 2.39999V3.39999C146.256 3.39999 146.595 3.67475 146.756 3.96564L147.63 3.48L148.504 2.99435C147.866 1.84525 146.685 1.39999 145.35 1.39999V2.39999ZM147.63 3.48L146.83 4.08C147.005 4.31256 147.114 4.6765 146.736 5.43279L147.63 5.88L148.525 6.32721C149.107 5.16349 149.216 3.92742 148.43 2.88L147.63 3.48ZM147.63 5.88L146.726 5.45216L128.606 43.7322L129.51 44.16L130.414 44.5878L148.534 6.30784L147.63 5.88ZM129.51 44.16L128.599 44.5707L147.679 86.9307L148.59 86.52L149.502 86.1093L130.422 43.7493L129.51 44.16ZM148.59 86.52L147.696 86.9672C148.061 87.6965 147.989 88.1393 147.758 88.4853L148.59 89.04L149.422 89.5947C150.152 88.5007 150.08 87.2635 149.485 86.0728L148.59 86.52ZM148.59 89.04L147.742 88.51C147.603 88.7323 147.265 89 146.31 89V90V91C147.596 91 148.777 90.6277 149.438 89.57L148.59 89.04ZM146.31 90V89H135.99V90V91H146.31V90ZM135.99 90V89C135.303 89 134.794 88.8461 134.408 88.5935C134.024 88.3418 133.69 87.944 133.432 87.3319L132.51 87.72L131.589 88.1081C131.971 89.016 132.537 89.7582 133.312 90.2665C134.087 90.7739 134.997 91 135.99 91V90ZM132.51 87.72L133.423 87.3116L117.103 50.8316L116.19 51.24L115.277 51.6484L131.598 88.1284L132.51 87.72ZM116.19 51.24V50.24H105.99V51.24V52.24H116.19V51.24ZM105.99 51.24H104.99V87H105.99H106.99V51.24H105.99ZM105.99 87H104.99C104.99 87.8558 104.784 88.3123 104.549 88.5575C104.321 88.795 103.906 89 103.11 89V90V91C104.235 91 105.26 90.705 105.992 89.9425C106.716 89.1877 106.99 88.1442 106.99 87H105.99ZM103.11 90V89H93.9903V90V91H103.11V90ZM177.463 15.96H178.463V14.96H177.463V15.96ZM192.583 15.96V14.96H191.583V15.96H192.583ZM180.463 90V89C179.618 89 179.167 88.7892 178.921 88.5429C178.674 88.2966 178.463 87.8459 178.463 87H177.463H176.463C176.463 88.1541 176.753 89.2034 177.506 89.9571C178.26 90.7108 179.309 91 180.463 91V90ZM177.463 87H178.463V15.96H177.463H176.463V87H177.463ZM177.463 15.96V14.96H157.543V15.96V16.96H177.463V15.96ZM157.543 15.96V14.96C156.698 14.96 156.247 14.7492 156.001 14.5029C155.754 14.2566 155.543 13.8059 155.543 12.96H154.543H153.543C153.543 14.1141 153.833 15.1634 154.586 15.9171C155.34 16.6708 156.389 16.96 157.543 16.96V15.96ZM154.543 12.96H155.543V5.39999H154.543H153.543V12.96H154.543ZM154.543 5.39999H155.543C155.543 4.55414 155.754 4.10342 156.001 3.8571C156.247 3.61079 156.698 3.39999 157.543 3.39999V2.39999V1.39999C156.389 1.39999 155.34 1.68921 154.586 2.44289C153.833 3.19657 153.543 4.24585 153.543 5.39999H154.543ZM157.543 2.39999V3.39999H212.503V2.39999V1.39999H157.543V2.39999ZM212.503 2.39999V3.39999C213.349 3.39999 213.8 3.61079 214.046 3.8571C214.293 4.10342 214.503 4.55414 214.503 5.39999H215.503H216.503C216.503 4.24585 216.214 3.19657 215.461 2.44289C214.707 1.68921 213.658 1.39999 212.503 1.39999V2.39999ZM215.503 5.39999H214.503V12.96H215.503H216.503V5.39999H215.503ZM215.503 12.96H214.503C214.503 13.8059 214.293 14.2566 214.046 14.5029C213.8 14.7492 213.349 14.96 212.503 14.96V15.96V16.96C213.658 16.96 214.707 16.6708 215.461 15.9171C216.214 15.1634 216.503 14.1141 216.503 12.96H215.503ZM212.503 15.96V14.96H192.583V15.96V16.96H212.503V15.96ZM192.583 15.96H191.583V87H192.583H193.583V15.96H192.583ZM192.583 87H191.583C191.583 87.8459 191.373 88.2966 191.126 88.5429C190.88 88.7892 190.429 89 189.583 89V90V91C190.738 91 191.787 90.7108 192.541 89.9571C193.294 89.2034 193.583 88.1541 193.583 87H192.583ZM189.583 90V89H180.463V90V91H189.583V90ZM224.817 90H223.817V91H224.817V90ZM224.817 2.39999V1.39999H223.817V2.39999H224.817ZM238.497 2.39999H239.497V1.39999H238.497V2.39999ZM238.257 54.72L239.255 54.7665V54.7665L238.257 54.72ZM237.657 64.8L236.659 64.727V64.727L237.657 64.8ZM237.057 73.2L236.059 73.1312L238.003 73.5225L237.057 73.2ZM261.177 2.39999V1.39999H260.461L260.23 2.07752L261.177 2.39999ZM279.537 2.39999H280.537V1.39999H279.537V2.39999ZM279.537 90V91H280.537V90H279.537ZM265.857 90H264.857V91H265.857V90ZM266.097 38.88L265.099 38.8135L265.098 38.8245L265.098 38.8356L266.097 38.88ZM266.817 28.32L267.814 28.3896L267.814 28.388L266.817 28.32ZM267.537 19.2L268.532 19.2933L266.591 18.8746L267.537 19.2ZM243.177 90V91H243.89L244.122 90.3253L243.177 90ZM224.817 90H225.817V2.39999H224.817H223.817V90H224.817ZM224.817 2.39999V3.39999H238.497V2.39999V1.39999H224.817V2.39999ZM238.497 2.39999H237.497V45.24H238.497H239.497V2.39999H238.497ZM238.497 45.24H237.497C237.497 48.1019 237.417 51.2461 237.258 54.6735L238.257 54.72L239.255 54.7665C239.416 51.3139 239.497 48.1381 239.497 45.24H238.497ZM238.257 54.72L237.258 54.6735C237.098 58.1051 236.899 61.4563 236.659 64.727L237.657 64.8L238.654 64.873C238.895 61.5837 239.095 58.2149 239.255 54.7665L238.257 54.72ZM237.657 64.8L236.659 64.727C236.419 68.0079 236.219 70.8094 236.059 73.1312L237.057 73.2L238.054 73.2688C238.214 70.9506 238.414 68.1521 238.654 64.873L237.657 64.8ZM237.057 73.2L238.003 73.5225L262.123 2.72247L261.177 2.39999L260.23 2.07752L236.11 72.8775L237.057 73.2ZM261.177 2.39999V3.39999H279.537V2.39999V1.39999H261.177V2.39999ZM279.537 2.39999H278.537V90H279.537H280.537V2.39999H279.537ZM279.537 90V89H265.857V90V91H279.537V90ZM265.857 90H266.857V48.48H265.857H264.857V90H265.857ZM265.857 48.48H266.857C266.857 45.6983 266.936 42.5136 267.096 38.9244L266.097 38.88L265.098 38.8356C264.937 42.4464 264.857 45.6617 264.857 48.48H265.857ZM266.097 38.88L267.094 38.9465C267.334 35.3475 267.574 31.8285 267.814 28.3896L266.817 28.32L265.819 28.2504C265.579 31.6915 265.339 35.2125 265.099 38.8135L266.097 38.88ZM266.817 28.32L267.814 28.388C268.054 24.8736 268.293 21.8425 268.532 19.2933L267.537 19.2L266.541 19.1067C266.3 21.6775 266.059 24.7264 265.819 28.252L266.817 28.32ZM267.537 19.2L266.591 18.8746L242.231 89.6747L243.177 90L244.122 90.3253L268.482 19.5253L267.537 19.2ZM243.177 90V89H224.817V90V91H243.177V90ZM300.13 57.36H299.13V58.36H300.13V57.36ZM300.13 43.44V42.44H299.13V43.44H300.13ZM338.53 43.44H339.53V42.44H338.53V43.44ZM338.53 57.36V58.36H339.53V57.36H338.53ZM300.13 57.36H301.13V43.44H300.13H299.13V57.36H300.13ZM300.13 43.44V44.44H338.53V43.44V42.44H300.13V43.44ZM338.53 43.44H337.53V57.36H338.53H339.53V43.44H338.53ZM338.53 57.36V56.36H300.13V57.36V58.36H338.53V57.36ZM70.8772 90.52L70.2419 91.2923L70.248 91.2972L70.8772 90.52ZM74.2372 119.32L73.4616 118.689L73.4572 118.694L73.4528 118.7L74.2372 119.32ZM63.5572 125.56L63.3957 124.573L62.5572 124.71V125.56H63.5572ZM63.5572 125.8H62.5572V126.685L63.4361 126.793L63.5572 125.8ZM72.3172 129.4L71.7016 130.188L71.7093 130.194L71.7172 130.2L72.3172 129.4ZM78.3172 136.96L77.4092 137.379L77.4135 137.388L78.3172 136.96ZM76.9972 160.24L77.8482 160.765V160.765L76.9972 160.24ZM67.1572 169L67.5838 169.904L67.5907 169.901L67.5976 169.898L67.1572 169ZM38.5972 120.52H37.5972V121.52H38.5972V120.52ZM59.9572 117.4L60.6247 118.145L60.6317 118.138L60.6386 118.132L59.9572 117.4ZM59.9572 100.12L59.2631 100.84L59.2761 100.852L59.2896 100.865L59.9572 100.12ZM61.6372 156.04L62.3204 156.77L62.3211 156.77L61.6372 156.04ZM61.6372 136.48L60.919 137.176L60.93 137.187L60.9414 137.198L61.6372 136.48ZM38.5972 132.64V131.64H37.5972V132.64H38.5972ZM26.9572 172V171C26.1113 171 25.6606 170.789 25.4143 170.543C25.168 170.297 24.9572 169.846 24.9572 169H23.9572H22.9572C22.9572 170.154 23.2464 171.203 24.0001 171.957C24.7538 172.711 25.803 173 26.9572 173V172ZM23.9572 169H24.9572V87.4H23.9572H22.9572V169H23.9572ZM23.9572 87.4H24.9572C24.9572 86.5541 25.168 86.1034 25.4143 85.8571C25.6606 85.6108 26.1113 85.4 26.9572 85.4V84.4V83.4C25.8031 83.4 24.7538 83.6892 24.0001 84.4429C23.2464 85.1966 22.9572 86.2458 22.9572 87.4H23.9572ZM26.9572 84.4V85.4H50.8372V84.4V83.4H26.9572V84.4ZM50.8372 84.4V85.4C59.0776 85.4 65.5097 87.3996 70.2419 91.2923L70.8772 90.52L71.5125 89.7477C66.3247 85.4804 59.3968 83.4 50.8372 83.4V84.4ZM70.8772 90.52L70.248 91.2972C75.0375 95.1744 77.4372 100.361 77.4372 106.96H78.4372H79.4372C79.4372 99.7994 76.7969 94.0256 71.5064 89.7428L70.8772 90.52ZM78.4372 106.96H77.4372C77.4372 111.55 76.1042 115.442 73.4616 118.689L74.2372 119.32L75.0128 119.951C77.9702 116.318 79.4372 111.97 79.4372 106.96H78.4372ZM74.2372 119.32L73.4528 118.7C70.8903 121.941 67.5542 123.893 63.3957 124.573L63.5572 125.56L63.7187 126.547C68.3602 125.787 72.1441 123.579 75.0216 119.94L74.2372 119.32ZM63.5572 125.56H62.5572V125.8H63.5572H64.5572V125.56H63.5572ZM63.5572 125.8L63.4361 126.793C66.539 127.171 69.2873 128.302 71.7016 130.188L72.3172 129.4L72.9328 128.612C70.2271 126.498 67.1354 125.229 63.6782 124.807L63.5572 125.8ZM72.3172 129.4L71.7172 130.2C74.1348 132.013 76.0334 134.398 77.4092 137.379L78.3172 136.96L79.2252 136.541C77.7209 133.282 75.6196 130.627 72.9172 128.6L72.3172 129.4ZM78.3172 136.96L77.4135 137.388C78.7843 140.282 79.4772 143.494 79.4772 147.04H80.4772H81.4772C81.4772 143.226 80.7301 139.718 79.2209 136.532L78.3172 136.96ZM80.4772 147.04H79.4772C79.4772 151.921 78.3557 156.134 76.1462 159.715L76.9972 160.24L77.8482 160.765C80.2787 156.826 81.4772 152.239 81.4772 147.04H80.4772ZM76.9972 160.24L76.1462 159.715C73.9321 163.303 70.7997 166.099 66.7168 168.102L67.1572 169L67.5976 169.898C71.9947 167.741 75.4223 164.697 77.8482 160.765L76.9972 160.24ZM67.1572 169L66.7306 168.096C62.6509 170.02 57.8027 171 52.1572 171V172V173C58.0317 173 63.1835 171.98 67.5838 169.904L67.1572 169ZM52.1572 172V171H26.9572V172V173H52.1572V172ZM38.5972 120.52V121.52H50.5972V120.52V119.52H38.5972V120.52ZM50.5972 120.52V121.52C54.6976 121.52 58.0775 120.428 60.6247 118.145L59.9572 117.4L59.2896 116.655C57.1969 118.532 54.3367 119.52 50.5972 119.52V120.52ZM59.9572 117.4L60.6386 118.132C63.195 115.752 64.4372 112.549 64.4372 108.64H63.4372H62.4372C62.4372 112.091 61.3594 114.728 59.2758 116.668L59.9572 117.4ZM63.4372 108.64H64.4372C64.4372 104.805 63.19 101.675 60.6247 99.3754L59.9572 100.12L59.2896 100.865C61.3644 102.725 62.4372 105.275 62.4372 108.64H63.4372ZM59.9572 100.12L60.6513 99.4002C58.1761 97.0133 54.7792 95.88 50.5972 95.88V96.88V97.88C54.4152 97.88 57.2583 98.9067 59.2631 100.84L59.9572 100.12ZM50.5972 96.88V95.88H41.4772V96.88V97.88H50.5972V96.88ZM41.4772 96.88V95.88C40.3524 95.88 39.3277 96.175 38.5958 96.9375C37.8712 97.6923 37.5972 98.7358 37.5972 99.88H38.5972H39.5972C39.5972 99.0242 39.8032 98.5677 40.0386 98.3225C40.2667 98.0849 40.682 97.88 41.4772 97.88V96.88ZM38.5972 99.88H37.5972V120.52H38.5972H39.5972V99.88H38.5972ZM38.5972 156.52H37.5972C37.5972 157.664 37.8712 158.708 38.5958 159.463C39.3277 160.225 40.3524 160.52 41.4772 160.52V159.52V158.52C40.682 158.52 40.2667 158.315 40.0386 158.077C39.8032 157.832 39.5972 157.376 39.5972 156.52H38.5972ZM41.4772 159.52V160.52H51.3172V159.52V158.52H41.4772V159.52ZM51.3172 159.52V160.52C55.8934 160.52 59.6054 159.31 62.3204 156.77L61.6372 156.04L60.954 155.31C58.709 157.41 55.541 158.52 51.3172 158.52V159.52ZM61.6372 156.04L62.3211 156.77C65.116 154.149 66.4772 150.627 66.4772 146.32H65.4772H64.4772C64.4772 150.173 63.2784 153.131 60.9533 155.31L61.6372 156.04ZM65.4772 146.32H66.4772C66.4772 142.012 65.1161 138.458 62.333 135.762L61.6372 136.48L60.9414 137.198C63.2783 139.462 64.4772 142.468 64.4772 146.32H65.4772ZM61.6372 136.48L62.3554 135.784C59.6447 132.986 55.9203 131.64 51.3172 131.64V132.64V133.64C55.5141 133.64 58.6697 134.854 60.919 137.176L61.6372 136.48ZM51.3172 132.64V131.64H38.5972V132.64V133.64H51.3172V132.64ZM38.5972 132.64H37.5972V156.52H38.5972H39.5972V132.64H38.5972ZM87.0303 168.76L87.9983 169.011L88.0003 169.003L87.0303 168.76ZM107.55 86.92L108.52 87.1632L108.523 87.1516L107.55 86.92ZM128.07 86.92L127.097 87.1516L127.101 87.1645L128.07 86.92ZM148.71 168.76L147.741 169.005L147.742 169.011L148.71 168.76ZM133.83 169.36L134.814 169.181L134.81 169.157L134.804 169.134L133.83 169.36ZM129.51 150.76L130.484 150.534L130.305 149.76H129.51V150.76ZM106.23 150.76V149.76H105.431L105.255 150.54L106.23 150.76ZM102.03 169.36L103.005 169.582L103.006 169.58L102.03 169.36ZM108.99 138.52L108.014 138.302L107.742 139.52H108.99V138.52ZM126.75 138.52V139.52H128L127.726 138.301L126.75 138.52ZM121.47 115L122.446 114.781L122.443 114.768L121.47 115ZM120.39 110.32L119.404 110.484L119.408 110.511L119.414 110.537L120.39 110.32ZM119.67 106.24L120.653 106.056L120.65 106.039L120.647 106.023L119.67 106.24ZM117.99 103.6L117.543 104.494L117.58 104.513L117.619 104.528L117.99 103.6ZM116.43 104.8L115.45 104.604L115.446 104.624L115.443 104.644L116.43 104.8ZM115.47 109.6L114.498 109.368L114.492 109.391L114.488 109.413L115.47 109.6ZM114.27 114.88L113.303 114.628L113.298 114.645L113.294 114.662L114.27 114.88ZM89.5503 172V171C88.5438 171 88.1661 170.752 88.0297 170.576C87.8944 170.402 87.7473 169.979 87.9983 169.011L87.0303 168.76L86.0623 168.509C85.7534 169.701 85.7463 170.898 86.451 171.804C87.1545 172.708 88.3169 173 89.5503 173V172ZM87.0303 168.76L88.0003 169.003L108.52 87.1632L107.55 86.92L106.58 86.6768L86.0603 168.517L87.0303 168.76ZM107.55 86.92L108.523 87.1516C108.685 86.4737 108.957 86.0664 109.274 85.8194C109.594 85.5707 110.068 85.4 110.79 85.4V84.4V83.4C109.752 83.4 108.807 83.6493 108.046 84.2406C107.284 84.8336 106.816 85.6863 106.578 86.6884L107.55 86.92ZM110.79 84.4V85.4H124.83V84.4V83.4H110.79V84.4ZM124.83 84.4V85.4C125.552 85.4 126.027 85.5707 126.346 85.8194C126.664 86.0664 126.936 86.4737 127.098 87.1516L128.07 86.92L129.043 86.6884C128.805 85.6863 128.337 84.8336 127.574 84.2406C126.814 83.6493 125.868 83.4 124.83 83.4V84.4ZM128.07 86.92L127.101 87.1645L147.741 169.005L148.71 168.76L149.68 168.515L129.04 86.6755L128.07 86.92ZM148.71 168.76L147.742 169.011C147.993 169.979 147.846 170.402 147.711 170.576C147.574 170.752 147.197 171 146.19 171V172V173C147.424 173 148.586 172.708 149.29 171.804C149.994 170.898 149.987 169.701 149.678 168.509L148.71 168.76ZM146.19 172V171H136.95V172V173H146.19V172ZM136.95 172V171C136.236 171 135.788 170.824 135.496 170.577C135.202 170.328 134.946 169.905 134.814 169.181L133.83 169.36L132.846 169.539C133.035 170.575 133.458 171.472 134.204 172.103C134.952 172.736 135.904 173 136.95 173V172ZM133.83 169.36L134.804 169.134L130.484 150.534L129.51 150.76L128.536 150.986L132.856 169.586L133.83 169.36ZM129.51 150.76V149.76H106.23V150.76V151.76H129.51V150.76ZM106.23 150.76L105.255 150.54L101.055 169.14L102.03 169.36L103.006 169.58L107.206 150.98L106.23 150.76ZM102.03 169.36L101.055 169.138C100.89 169.866 100.61 170.303 100.289 170.565C99.9698 170.825 99.5021 171 98.7903 171V172V173C99.8385 173 100.791 172.735 101.552 172.115C102.31 171.497 102.771 170.614 103.005 169.582L102.03 169.36ZM98.7903 172V171H89.5503V172V173H98.7903V172ZM108.99 138.52V139.52H126.75V138.52V137.52H108.99V138.52ZM126.75 138.52L127.726 138.301L122.446 114.781L121.47 115L120.495 115.219L125.775 138.739L126.75 138.52ZM121.47 115L122.443 114.768C122.044 113.092 121.685 111.537 121.367 110.103L120.39 110.32L119.414 110.537C119.735 111.983 120.097 113.548 120.498 115.232L121.47 115ZM120.39 110.32L121.377 110.156C121.136 108.71 120.895 107.343 120.653 106.056L119.67 106.24L118.687 106.424C118.926 107.697 119.165 109.05 119.404 110.484L120.39 110.32ZM119.67 106.24L120.647 106.023C120.306 104.489 119.636 103.181 118.362 102.672L117.99 103.6L117.619 104.528C117.945 104.659 118.395 105.111 118.694 106.457L119.67 106.24ZM117.99 103.6L118.438 102.706C117.84 102.407 117.065 102.289 116.391 102.807C115.831 103.238 115.581 103.948 115.45 104.604L116.43 104.8L117.411 104.996C117.46 104.748 117.517 104.583 117.566 104.479C117.616 104.374 117.641 104.369 117.61 104.393C117.564 104.428 117.497 104.45 117.443 104.45C117.408 104.45 117.435 104.44 117.543 104.494L117.99 103.6ZM116.43 104.8L115.443 104.644C115.207 106.136 114.892 107.71 114.498 109.368L115.47 109.6L116.443 109.832C116.848 108.13 117.174 106.504 117.418 104.956L116.43 104.8ZM115.47 109.6L114.488 109.413C114.173 111.069 113.778 112.807 113.303 114.628L114.27 114.88L115.238 115.132C115.723 113.273 116.128 111.491 116.453 109.787L115.47 109.6ZM114.27 114.88L113.294 114.662L108.014 138.302L108.99 138.52L109.966 138.738L115.246 115.098L114.27 114.88ZM203.983 188.8H202.983V189.8H203.983V188.8ZM203.983 172H204.983V171H203.983V172ZM158.383 172H157.383V173H158.383V172ZM158.383 84.4V83.4H157.383V84.4H158.383ZM173.383 84.4H174.383V83.4H173.383V84.4ZM173.383 158.56H172.383V159.56H173.383V158.56ZM193.783 158.56V159.56H194.783V158.56H193.783ZM193.783 84.4V83.4H192.783V84.4H193.783ZM208.783 84.4H209.783V83.4H208.783V84.4ZM208.783 158.56H207.783V159.56H208.783V158.56ZM217.783 158.56H218.783V157.56H217.783V158.56ZM217.783 188.8V189.8H218.783V188.8H217.783ZM203.983 188.8H204.983V172H203.983H202.983V188.8H203.983ZM203.983 172V171H158.383V172V173H203.983V172ZM158.383 172H159.383V84.4H158.383H157.383V172H158.383ZM158.383 84.4V85.4H173.383V84.4V83.4H158.383V84.4ZM173.383 84.4H172.383V158.56H173.383H174.383V84.4H173.383ZM173.383 158.56V159.56H193.783V158.56V157.56H173.383V158.56ZM193.783 158.56H194.783V84.4H193.783H192.783V158.56H193.783ZM193.783 84.4V85.4H208.783V84.4V83.4H193.783V84.4ZM208.783 84.4H207.783V158.56H208.783H209.783V84.4H208.783ZM208.783 158.56V159.56H217.783V158.56V157.56H208.783V158.56ZM217.783 158.56H216.783V188.8H217.783H218.783V158.56H217.783ZM217.783 188.8V187.8H203.983V188.8V189.8H217.783V188.8ZM224.817 172H223.817V173H224.817V172ZM224.817 84.4V83.4H223.817V84.4H224.817ZM238.497 84.4H239.497V83.4H238.497V84.4ZM238.257 136.72L239.255 136.766V136.766L238.257 136.72ZM237.657 146.8L236.659 146.727V146.727L237.657 146.8ZM237.057 155.2L236.059 155.131L238.003 155.522L237.057 155.2ZM261.177 84.4V83.4H260.461L260.23 84.0775L261.177 84.4ZM279.537 84.4H280.537V83.4H279.537V84.4ZM279.537 172V173H280.537V172H279.537ZM265.857 172H264.857V173H265.857V172ZM266.097 120.88L265.099 120.813L265.098 120.825L265.098 120.836L266.097 120.88ZM266.817 110.32L267.814 110.39L267.814 110.388L266.817 110.32ZM267.537 101.2L268.532 101.293L266.591 100.875L267.537 101.2ZM243.177 172V173H243.89L244.122 172.325L243.177 172ZM224.817 172H225.817V84.4H224.817H223.817V172H224.817ZM224.817 84.4V85.4H238.497V84.4V83.4H224.817V84.4ZM238.497 84.4H237.497V127.24H238.497H239.497V84.4H238.497ZM238.497 127.24H237.497C237.497 130.102 237.417 133.246 237.258 136.674L238.257 136.72L239.255 136.766C239.416 133.314 239.497 130.138 239.497 127.24H238.497ZM238.257 136.72L237.258 136.674C237.098 140.105 236.899 143.456 236.659 146.727L237.657 146.8L238.654 146.873C238.895 143.584 239.095 140.215 239.255 136.766L238.257 136.72ZM237.657 146.8L236.659 146.727C236.419 150.008 236.219 152.809 236.059 155.131L237.057 155.2L238.054 155.269C238.214 152.951 238.414 150.152 238.654 146.873L237.657 146.8ZM237.057 155.2L238.003 155.522L262.123 84.7225L261.177 84.4L260.23 84.0775L236.11 154.878L237.057 155.2ZM261.177 84.4V85.4H279.537V84.4V83.4H261.177V84.4ZM279.537 84.4H278.537V172H279.537H280.537V84.4H279.537ZM279.537 172V171H265.857V172V173H279.537V172ZM265.857 172H266.857V130.48H265.857H264.857V172H265.857ZM265.857 130.48H266.857C266.857 127.698 266.936 124.514 267.096 120.924L266.097 120.88L265.098 120.836C264.937 124.446 264.857 127.662 264.857 130.48H265.857ZM266.097 120.88L267.094 120.947C267.334 117.347 267.574 113.829 267.814 110.39L266.817 110.32L265.819 110.25C265.579 113.691 265.339 117.212 265.099 120.813L266.097 120.88ZM266.817 110.32L267.814 110.388C268.054 106.874 268.293 103.842 268.532 101.293L267.537 101.2L266.541 101.107C266.3 103.678 266.059 106.726 265.819 110.252L266.817 110.32ZM267.537 101.2L266.591 100.875L242.231 171.675L243.177 172L244.122 172.325L268.482 101.525L267.537 101.2ZM243.177 172V171H224.817V172V173H243.177V172ZM288.73 172L287.82 171.584L287.172 173H288.73V172ZM305.65 135.04L306.559 135.456L307.007 134.477L305.997 134.102L305.65 135.04ZM293.89 125.8L293.046 126.337L293.052 126.346L293.058 126.355L293.89 125.8ZM293.17 96.76L292.317 96.2378L292.314 96.2429L293.17 96.76ZM303.25 87.64L303.697 88.5344V88.5344L303.25 87.64ZM345.97 84.4H346.97V83.4H345.97V84.4ZM345.97 172V173H346.97V172H345.97ZM330.97 172H329.97V173H330.97V172ZM330.97 137.2H331.97V136.2H330.97V137.2ZM320.29 137.2V136.2H319.634L319.372 136.801L320.29 137.2ZM305.17 172V173H305.826L306.087 172.398L305.17 172ZM330.97 124.12V125.12H331.97V124.12H330.97ZM330.97 97.48H331.97V96.48H330.97V97.48ZM308.41 101.2L307.703 100.493V100.493L308.41 101.2ZM308.41 120.64L307.703 121.347L307.714 121.359L307.727 121.37L308.41 120.64ZM288.73 172L289.639 172.416L306.559 135.456L305.65 135.04L304.74 134.624L287.82 171.584L288.73 172ZM305.65 135.04L305.997 134.102C301.231 132.334 297.482 129.386 294.722 125.245L293.89 125.8L293.058 126.355C296.057 130.854 300.148 134.066 305.302 135.978L305.65 135.04ZM293.89 125.8L294.733 125.263C292.047 121.042 290.69 116.113 290.69 110.44H289.69H288.69C288.69 116.447 290.132 121.758 293.046 126.337L293.89 125.8ZM289.69 110.44H290.69C290.69 105.31 291.815 100.935 294.026 97.2771L293.17 96.76L292.314 96.2429C289.884 100.265 288.69 105.01 288.69 110.44H289.69ZM293.17 96.76L294.023 97.2822C296.32 93.53 299.535 90.6152 303.697 88.5344L303.25 87.64L302.802 86.7456C298.324 88.9848 294.82 92.1499 292.317 96.2378L293.17 96.76ZM303.25 87.64L303.697 88.5344C307.854 86.456 312.735 85.4 318.37 85.4V84.4V83.4C312.484 83.4 307.286 84.504 302.802 86.7456L303.25 87.64ZM318.37 84.4V85.4H345.97V84.4V83.4H318.37V84.4ZM345.97 84.4H344.97V172H345.97H346.97V84.4H345.97ZM345.97 172V171H330.97V172V173H345.97V172ZM330.97 172H331.97V137.2H330.97H329.97V172H330.97ZM330.97 137.2V136.2H320.29V137.2V138.2H330.97V137.2ZM320.29 137.2L319.372 136.801L304.253 171.602L305.17 172L306.087 172.398L321.207 137.598L320.29 137.2ZM305.17 172V171H288.73V172V173H305.17V172ZM318.37 124.12V125.12H330.97V124.12V123.12H318.37V124.12ZM330.97 124.12H331.97V97.48H330.97H329.97V124.12H330.97ZM330.97 97.48V96.48H318.37V97.48V98.48H330.97V97.48ZM318.37 97.48V96.48C313.997 96.48 310.405 97.7909 307.703 100.493L308.41 101.2L309.117 101.907C311.375 99.6491 314.422 98.48 318.37 98.48V97.48ZM308.41 101.2L307.703 100.493C305.078 103.117 303.81 106.632 303.81 110.92H304.81H305.81C305.81 107.048 306.941 104.083 309.117 101.907L308.41 101.2ZM304.81 110.92H303.81C303.81 115.208 305.078 118.723 307.703 121.347L308.41 120.64L309.117 119.933C306.941 117.757 305.81 114.792 305.81 110.92H304.81ZM308.41 120.64L307.727 121.37C310.431 123.901 314.016 125.12 318.37 125.12V124.12V123.12C314.403 123.12 311.348 122.019 309.093 119.91L308.41 120.64Z" fill="black" mask="url(#path-1-outside-1_63_9863)"/>
</svg>
