<svg width="1164" height="222" viewBox="0 0 1164 222" fill="none" xmlns="http://www.w3.org/2000/svg">
<mask id="path-1-outside-1_63_1078" maskUnits="userSpaceOnUse" x="-0.840332" y="-0.5" width="1165" height="222" fill="black">
<rect fill="white" x="-0.840332" y="-0.5" width="1165" height="222"/>
<path d="M7.59912 184.5C2.93246 184.5 1.18245 182.25 2.34912 177.75L45.0991 7.24999C45.9325 3.74999 48.1825 2 51.8491 2H81.0991C84.7658 2 87.0158 3.74999 87.8491 7.24999L130.849 177.75C132.016 182.25 130.266 184.5 125.599 184.5H106.349C102.682 184.5 100.516 182.667 99.8491 179L90.8491 140.25H42.3491L33.5991 179C32.7658 182.667 30.5158 184.5 26.8491 184.5H7.59912ZM48.0991 114.75H85.0991L74.0991 65.75C73.2658 62.25 72.5158 59 71.8491 56C71.3491 53 70.8491 50.1667 70.3491 47.5C69.6825 44.5 68.5158 42.6667 66.8491 42C65.1825 41.1667 64.0991 42 63.5991 44.5C63.0991 47.6667 62.4325 51 61.5991 54.5C60.9325 58 60.0991 61.6667 59.0991 65.5L48.0991 114.75ZM146.751 184.5C142.585 184.5 140.501 182.417 140.501 178.25V8.24999C140.501 4.08333 142.585 2 146.751 2H165.751C169.751 2 171.751 4.08333 171.751 8.24999V76.5H193.251L226.001 6.5C227.335 3.5 229.668 2 233.001 2H253.751C256.085 2 257.668 2.75 258.501 4.25C259.501 5.58332 259.501 7.24999 258.501 9.24999L220.751 89L260.501 177.25C261.501 179.25 261.501 181 260.501 182.5C259.668 183.833 258.085 184.5 255.751 184.5H234.251C230.751 184.5 228.335 182.917 227.001 179.75L193.001 103.75H171.751V178.25C171.751 182.417 169.751 184.5 165.751 184.5H146.751ZM316.904 184.5C312.737 184.5 310.654 182.417 310.654 178.25V30.25H269.154C264.987 30.25 262.904 28.1667 262.904 24V8.24999C262.904 4.08333 264.987 2 269.154 2H383.654C387.82 2 389.904 4.08333 389.904 8.24999V24C389.904 28.1667 387.82 30.25 383.654 30.25H342.154V178.25C342.154 182.417 340.07 184.5 335.904 184.5H316.904ZM399.306 184.5V2H427.806V91.25C427.806 97.25 427.639 103.833 427.306 111C426.973 118.167 426.556 125.167 426.056 132C425.556 138.833 425.139 144.667 424.806 149.5L475.056 2H513.306V184.5H484.806V98C484.806 92.1667 484.973 85.5 485.306 78C485.806 70.5 486.306 63.1667 486.806 56C487.306 48.6667 487.806 42.3333 488.306 37L437.556 184.5H399.306ZM536.708 184.5C532.542 184.5 530.458 182.417 530.458 178.25V8.24999C530.458 4.08333 532.542 2 536.708 2H586.459C603.959 2 617.875 6.25 628.209 14.75C638.709 23.25 643.959 34.6667 643.959 49C643.959 59 641.042 67.5833 635.209 74.75C629.542 81.9167 622.125 86.25 612.958 87.75V88.25C619.792 89.0833 625.875 91.5833 631.209 95.75C636.542 99.75 640.709 105 643.709 111.5C646.709 117.833 648.209 124.833 648.209 132.5C648.209 143 645.792 152.167 640.959 160C636.125 167.833 629.292 173.917 620.458 178.25C611.625 182.417 601.208 184.5 589.208 184.5H536.708ZM560.959 77.25H585.959C594.125 77.25 600.625 75.0833 605.458 70.75C610.292 66.25 612.709 60.1667 612.709 52.5C612.709 45 610.292 39.0833 605.458 34.75C600.792 30.25 594.292 28 585.959 28H566.958C562.958 28 560.959 30.0833 560.959 34.25V77.25ZM560.959 152.25C560.959 156.417 562.958 158.5 566.958 158.5H587.458C596.625 158.5 603.792 156.083 608.959 151.25C614.292 146.25 616.958 139.5 616.958 131C616.958 122.5 614.292 115.667 608.959 110.5C603.792 105.167 596.625 102.5 587.458 102.5H560.959V152.25ZM657.111 184.5C652.444 184.5 650.694 182.25 651.861 177.75L694.611 7.24999C695.444 3.74999 697.694 2 701.361 2H730.611C734.278 2 736.528 3.74999 737.361 7.24999L780.361 177.75C781.528 182.25 779.778 184.5 775.111 184.5H755.861C752.194 184.5 750.028 182.667 749.361 179L740.361 140.25H691.861L683.111 179C682.278 182.667 680.028 184.5 676.361 184.5H657.111ZM697.611 114.75H734.611L723.611 65.75C722.778 62.25 722.028 59 721.361 56C720.861 53 720.361 50.1667 719.861 47.5C719.194 44.5 718.028 42.6667 716.361 42C714.694 41.1667 713.611 42 713.111 44.5C712.611 47.6667 711.944 51 711.111 54.5C710.444 58 709.611 61.6667 708.611 65.5L697.611 114.75ZM885.513 219.5V184.5H790.513V2H821.763V156.5H864.263V2H895.513V156.5H914.263V219.5H885.513ZM918.916 184.5V2H947.416V91.25C947.416 97.25 947.249 103.833 946.916 111C946.582 118.167 946.166 125.167 945.666 132C945.166 138.833 944.749 144.667 944.416 149.5L994.666 2H1032.92V184.5H1004.42V98C1004.42 92.1667 1004.58 85.5 1004.92 78C1005.42 70.5 1005.92 63.1667 1006.42 56C1006.92 48.6667 1007.42 42.3333 1007.92 37L957.166 184.5H918.916ZM1042.07 184.5L1077.32 107.5C1066.98 103.667 1058.82 97.25 1052.82 88.25C1046.98 79.0833 1044.07 68.4167 1044.07 56.25C1044.07 45.25 1046.48 35.75 1051.32 27.75C1056.32 19.5833 1063.32 13.25 1072.32 8.75C1081.32 4.25 1091.82 2 1103.82 2H1161.32V184.5H1130.07V112H1107.82L1076.32 184.5H1042.07ZM1103.82 84.75H1130.07V29.25H1103.82C1095.15 29.25 1088.23 31.8333 1083.07 37C1078.07 42 1075.57 48.75 1075.57 57.25C1075.57 65.75 1078.07 72.5 1083.07 77.5C1088.23 82.3333 1095.15 84.75 1103.82 84.75Z"/>
</mask>
<path d="M2.34912 177.75L4.28512 178.252L4.28712 178.244L4.28907 178.236L2.34912 177.75ZM45.0991 7.24998L47.0391 7.7364L47.042 7.72482L47.0447 7.71323L45.0991 7.24998ZM87.8491 7.24998L85.9035 7.71323L85.9066 7.72617L85.9099 7.73907L87.8491 7.24998ZM130.849 177.75L128.91 178.239L128.913 178.252L130.849 177.75ZM99.8491 179L101.817 178.642L101.808 178.595L101.797 178.548L99.8491 179ZM90.8491 140.25L92.7973 139.798L92.4378 138.25H90.8491V140.25ZM42.3491 140.25V138.25H40.7504L40.3982 139.809L42.3491 140.25ZM33.5991 179L35.5494 179.443L35.55 179.441L33.5991 179ZM48.0991 114.75L46.1472 114.314L45.6031 116.75H48.0991V114.75ZM85.0991 114.75V116.75H87.5979L87.0506 114.312L85.0991 114.75ZM74.0991 65.75L76.0506 65.3119L76.0477 65.2993L76.0447 65.2868L74.0991 65.75ZM71.8491 56L69.8763 56.3288L69.8851 56.3816L69.8968 56.4339L71.8491 56ZM70.3491 47.5L72.3149 47.1314L72.3087 47.0987L72.3015 47.0661L70.3491 47.5ZM66.8491 42L65.9547 43.7888L66.0291 43.826L66.1064 43.8569L66.8491 42ZM63.5991 44.5L61.638 44.1078L61.63 44.1478L61.6236 44.1881L63.5991 44.5ZM61.5991 54.5L59.6535 54.0367L59.643 54.081L59.6344 54.1258L61.5991 54.5ZM59.0991 65.5L57.1639 64.9952L57.1549 65.0294L57.1472 65.064L59.0991 65.5ZM7.59912 184.5V182.5C5.49267 182.5 4.67329 181.981 4.36533 181.585C4.0597 181.192 3.75967 180.279 4.28512 178.252L2.34912 177.75L0.413132 177.248C-0.228096 179.721 -0.23645 182.183 1.20792 184.04C2.64996 185.894 5.03891 186.5 7.59912 186.5V184.5ZM2.34912 177.75L4.28907 178.236L47.0391 7.7364L45.0991 7.24998L43.1592 6.76358L0.409172 177.264L2.34912 177.75ZM45.0991 7.24998L47.0447 7.71323C47.3842 6.28746 47.9592 5.4203 48.6395 4.8912C49.3239 4.3589 50.3319 4 51.8491 4V2V0C49.6996 0 47.7494 0.516083 46.1837 1.7338C44.614 2.95468 43.6474 4.71252 43.1535 6.78674L45.0991 7.24998ZM51.8491 2V4H81.0991V2V0H51.8491V2ZM81.0991 2V4C82.6163 4 83.6244 4.3589 84.3087 4.8912C84.989 5.4203 85.564 6.28746 85.9035 7.71323L87.8491 7.24998L89.7947 6.78674C89.3009 4.71252 88.3342 2.95468 86.7645 1.7338C85.1989 0.516083 83.2486 0 81.0991 0V2ZM87.8491 7.24998L85.9099 7.73907L128.91 178.239L130.849 177.75L132.788 177.261L89.7884 6.76091L87.8491 7.24998ZM130.849 177.75L128.913 178.252C129.439 180.279 129.139 181.192 128.833 181.585C128.525 181.981 127.706 182.5 125.599 182.5V184.5V186.5C128.159 186.5 130.548 185.894 131.99 184.04C133.435 182.183 133.426 179.721 132.785 177.248L130.849 177.75ZM125.599 184.5V182.5H106.349V184.5V186.5H125.599V184.5ZM106.349 184.5V182.5C104.848 182.5 103.894 182.129 103.266 181.598C102.634 181.064 102.093 180.164 101.817 178.642L99.8491 179L97.8814 179.358C98.2714 181.503 99.1472 183.353 100.682 184.652C102.221 185.954 104.184 186.5 106.349 186.5V184.5ZM99.8491 179L101.797 178.548L92.7973 139.798L90.8491 140.25L88.901 140.702L97.901 179.452L99.8491 179ZM90.8491 140.25V138.25H42.3491V140.25V142.25H90.8491V140.25ZM42.3491 140.25L40.3982 139.809L31.6482 178.559L33.5991 179L35.55 179.441L44.3 140.691L42.3491 140.25ZM33.5991 179L31.6489 178.557C31.3017 180.084 30.7115 181.014 30.0233 181.575C29.3406 182.131 28.3461 182.5 26.8491 182.5V184.5V186.5C29.0189 186.5 30.9826 185.953 32.55 184.675C34.1118 183.403 35.0632 181.582 35.5494 179.443L33.5991 179ZM26.8491 184.5V182.5H7.59912V184.5V186.5H26.8491V184.5ZM48.0991 114.75V116.75H85.0991V114.75V112.75H48.0991V114.75ZM85.0991 114.75L87.0506 114.312L76.0506 65.3119L74.0991 65.75L72.1477 66.1881L83.1477 115.188L85.0991 114.75ZM74.0991 65.75L76.0447 65.2868C75.2133 61.7949 74.4657 58.5548 73.8015 55.5661L71.8491 56L69.8968 56.4339C70.5659 59.4452 71.3182 62.7051 72.1535 66.2132L74.0991 65.75ZM71.8491 56L73.8219 55.6712C73.32 52.6595 72.8176 49.8128 72.3149 47.1314L70.3491 47.5L68.3834 47.8686C68.8806 50.5205 69.3783 53.3405 69.8763 56.3288L71.8491 56ZM70.3491 47.5L72.3015 47.0661C71.593 43.8781 70.2063 41.1888 67.5919 40.143L66.8491 42L66.1064 43.8569C66.8252 44.1445 67.7719 45.1219 68.3968 47.9339L70.3491 47.5ZM66.8491 42L67.7436 40.2111C66.5153 39.597 64.9371 39.361 63.5672 40.4147C62.4263 41.2924 61.9105 42.7452 61.638 44.1078L63.5991 44.5L65.5603 44.8922C65.6644 44.3719 65.7836 44.0197 65.89 43.7956C65.9977 43.5691 66.0576 43.5456 66.006 43.5852C65.925 43.6476 65.803 43.6875 65.7085 43.6875C65.6516 43.6875 65.722 43.6725 65.9547 43.7888L66.8491 42ZM63.5991 44.5L61.6236 44.1881C61.1325 47.2982 60.4763 50.5809 59.6535 54.0367L61.5991 54.5L63.5447 54.9632C64.3886 51.4191 65.0657 48.0351 65.5746 44.8119L63.5991 44.5ZM61.5991 54.5L59.6344 54.1258C58.977 57.5774 58.1538 61.2003 57.1639 64.9952L59.0991 65.5L61.0344 66.0048C62.0444 62.133 62.8879 58.4226 63.5638 54.8742L61.5991 54.5ZM59.0991 65.5L57.1472 65.064L46.1472 114.314L48.0991 114.75L50.051 115.186L61.051 65.936L59.0991 65.5ZM171.751 76.5H169.751V78.5H171.751V76.5ZM193.251 76.5V78.5H194.524L195.063 77.3475L193.251 76.5ZM226.001 6.5L227.813 7.34753L227.821 7.32999L227.829 7.31227L226.001 6.5ZM258.501 4.25L256.753 5.22128L256.82 5.3407L256.901 5.45L258.501 4.25ZM258.501 9.24998L256.713 8.35556L256.703 8.37483L256.694 8.3943L258.501 9.24998ZM220.751 89L218.944 88.1443L218.549 88.9792L218.928 89.8214L220.751 89ZM260.501 177.25L258.678 178.071L258.695 178.108L258.713 178.144L260.501 177.25ZM260.501 182.5L258.837 181.391L258.821 181.415L258.805 181.44L260.501 182.5ZM227.001 179.75L228.845 178.974L228.836 178.953L228.827 178.933L227.001 179.75ZM193.001 103.75L194.827 102.933L194.298 101.75H193.001V103.75ZM171.751 103.75V101.75H169.751V103.75H171.751ZM146.751 184.5V182.5C144.976 182.5 144.012 182.058 143.478 181.523C142.944 180.989 142.501 180.025 142.501 178.25H140.501H138.501C138.501 180.642 139.101 182.803 140.65 184.352C142.199 185.901 144.36 186.5 146.751 186.5V184.5ZM140.501 178.25H142.501V8.24998H140.501H138.501V178.25H140.501ZM140.501 8.24998H142.501C142.501 6.47495 142.944 5.51102 143.478 4.97672C144.012 4.4424 144.976 4 146.751 4V2V0C144.36 0 142.199 0.599258 140.65 2.14828C139.101 3.69731 138.501 5.85837 138.501 8.24998H140.501ZM146.751 2V4H165.751V2V0H146.751V2ZM165.751 2V4C167.422 4 168.313 4.43074 168.809 4.94756C169.319 5.47961 169.751 6.45499 169.751 8.24998H171.751H173.751C173.751 5.87833 173.183 3.72871 171.694 2.17743C170.19 0.610916 168.081 0 165.751 0V2ZM171.751 8.24998H169.751V76.5H171.751H173.751V8.24998H171.751ZM171.751 76.5V78.5H193.251V76.5V74.5H171.751V76.5ZM193.251 76.5L195.063 77.3475L227.813 7.34753L226.001 6.5L224.19 5.65245L191.44 75.6525L193.251 76.5ZM226.001 6.5L227.829 7.31227C228.367 6.10228 229.051 5.31009 229.833 4.80736C230.617 4.3033 231.64 4 233.001 4V2V0C231.029 0 229.219 0.446686 227.67 1.44264C226.119 2.4399 224.969 3.89772 224.174 5.68771L226.001 6.5ZM233.001 2V4H253.751V2V0H233.001V2ZM253.751 2V4C255.656 4 256.397 4.5795 256.753 5.22128L258.501 4.25L260.25 3.27872C258.94 0.920486 256.514 0 253.751 0V2ZM258.501 4.25L256.901 5.45C257.29 5.96846 257.509 6.76299 256.713 8.35556L258.501 9.24998L260.29 10.1444C261.494 7.73698 261.713 5.19818 260.101 3.04999L258.501 4.25ZM258.501 9.24998L256.694 8.3943L218.944 88.1443L220.751 89L222.559 89.8557L260.309 10.1057L258.501 9.24998ZM220.751 89L218.928 89.8214L258.678 178.071L260.501 177.25L262.325 176.429L222.575 88.1786L220.751 89ZM260.501 177.25L258.713 178.144C259.482 179.683 259.339 180.639 258.837 181.391L260.501 182.5L262.166 183.609C263.664 181.361 263.521 178.817 262.29 176.356L260.501 177.25ZM260.501 182.5L258.805 181.44C258.494 181.938 257.754 182.5 255.751 182.5V184.5V186.5C258.415 186.5 260.842 185.729 262.197 183.56L260.501 182.5ZM255.751 184.5V182.5H234.251V184.5V186.5H255.751V184.5ZM234.251 184.5V182.5C232.808 182.5 231.729 182.176 230.91 181.64C230.093 181.104 229.387 180.261 228.845 178.974L227.001 179.75L225.158 180.526C225.949 182.405 227.118 183.937 228.718 184.985C230.315 186.032 232.195 186.5 234.251 186.5V184.5ZM227.001 179.75L228.827 178.933L194.827 102.933L193.001 103.75L191.176 104.567L225.176 180.567L227.001 179.75ZM193.001 103.75V101.75H171.751V103.75V105.75H193.001V103.75ZM171.751 103.75H169.751V178.25H171.751H173.751V103.75H171.751ZM171.751 178.25H169.751C169.751 180.045 169.319 181.02 168.809 181.552C168.313 182.069 167.422 182.5 165.751 182.5V184.5V186.5C168.081 186.5 170.19 185.889 171.694 184.323C173.183 182.771 173.751 180.622 173.751 178.25H171.751ZM165.751 184.5V182.5H146.751V184.5V186.5H165.751V184.5ZM310.654 30.25H312.654V28.25H310.654V30.25ZM342.154 30.25V28.25H340.154V30.25H342.154ZM316.904 184.5V182.5C315.129 182.5 314.165 182.058 313.631 181.523C313.096 180.989 312.654 180.025 312.654 178.25H310.654H308.654C308.654 180.642 309.253 182.803 310.802 184.352C312.351 185.901 314.512 186.5 316.904 186.5V184.5ZM310.654 178.25H312.654V30.25H310.654H308.654V178.25H310.654ZM310.654 30.25V28.25H269.154V30.25V32.25H310.654V30.25ZM269.154 30.25V28.25C267.379 28.25 266.415 27.8076 265.881 27.2733C265.346 26.739 264.904 25.775 264.904 24H262.904H260.904C260.904 26.3916 261.503 28.5527 263.052 30.1017C264.601 31.6507 266.762 32.25 269.154 32.25V30.25ZM262.904 24H264.904V8.24998H262.904H260.904V24H262.904ZM262.904 8.24998H264.904C264.904 6.47495 265.346 5.51102 265.881 4.97672C266.415 4.4424 267.379 4 269.154 4V2V0C266.762 0 264.601 0.599258 263.052 2.14828C261.503 3.69731 260.904 5.85837 260.904 8.24998H262.904ZM269.154 2V4H383.654V2V0H269.154V2ZM383.654 2V4C385.429 4 386.393 4.4424 386.927 4.9767C387.461 5.51102 387.904 6.47495 387.904 8.24998H389.904H391.904C391.904 5.85837 391.305 3.69731 389.756 2.14828C388.206 0.599258 386.045 0 383.654 0V2ZM389.904 8.24998H387.904V24H389.904H391.904V8.24998H389.904ZM389.904 24H387.904C387.904 25.775 387.461 26.739 386.927 27.2733C386.393 27.8076 385.429 28.25 383.654 28.25V30.25V32.25C386.045 32.25 388.206 31.6507 389.756 30.1017C391.305 28.5527 391.904 26.3916 391.904 24H389.904ZM383.654 30.25V28.25H342.154V30.25V32.25H383.654V30.25ZM342.154 30.25H340.154V178.25H342.154H344.154V30.25H342.154ZM342.154 178.25H340.154C340.154 180.025 339.711 180.989 339.177 181.523C338.643 182.058 337.679 182.5 335.904 182.5V184.5V186.5C338.295 186.5 340.456 185.901 342.006 184.352C343.555 182.803 344.154 180.642 344.154 178.25H342.154ZM335.904 184.5V182.5H316.904V184.5V186.5H335.904V184.5ZM399.306 184.5H397.306V186.5H399.306V184.5ZM399.306 2V0H397.306V2H399.306ZM427.806 2H429.806V0H427.806V2ZM427.306 111L429.304 111.093V111.093L427.306 111ZM426.056 132L424.061 131.854V131.854L426.056 132ZM424.806 149.5L422.811 149.362L426.699 150.145L424.806 149.5ZM475.056 2V0H473.625L473.163 1.35504L475.056 2ZM513.306 2H515.306V0H513.306V2ZM513.306 184.5V186.5H515.306V184.5H513.306ZM484.806 184.5H482.806V186.5H484.806V184.5ZM485.306 78L483.311 77.867L483.309 77.8891L483.308 77.9112L485.306 78ZM486.806 56L488.801 56.1392L488.802 56.136L486.806 56ZM488.306 37L490.297 37.1867L486.415 36.3493L488.306 37ZM437.556 184.5V186.5H438.983L439.447 185.151L437.556 184.5ZM399.306 184.5H401.306V2H399.306H397.306V184.5H399.306ZM399.306 2V4H427.806V2V0H399.306V2ZM427.806 2H425.806V91.25H427.806H429.806V2H427.806ZM427.806 91.25H425.806C425.806 97.2137 425.64 103.766 425.308 110.907L427.306 111L429.304 111.093C429.638 103.901 429.806 97.2863 429.806 91.25H427.806ZM427.306 111L425.308 110.907C424.976 118.057 424.56 125.039 424.061 131.854L426.056 132L428.051 132.146C428.552 125.294 428.97 118.276 429.304 111.093L427.306 111ZM426.056 132L424.061 131.854C423.561 138.689 423.144 144.525 422.811 149.362L424.806 149.5L426.801 149.638C427.134 144.808 427.551 138.978 428.051 132.146L426.056 132ZM424.806 149.5L426.699 150.145L476.949 2.64496L475.056 2L473.163 1.35504L422.913 148.855L424.806 149.5ZM475.056 2V4H513.306V2V0H475.056V2ZM513.306 2H511.306V184.5H513.306H515.306V2H513.306ZM513.306 184.5V182.5H484.806V184.5V186.5H513.306V184.5ZM484.806 184.5H486.806V98H484.806H482.806V184.5H484.806ZM484.806 98H486.806C486.806 92.2032 486.972 85.5671 487.304 78.0888L485.306 78L483.308 77.9112C482.974 85.4329 482.806 92.1301 482.806 98H484.806ZM485.306 78L487.302 78.133C487.802 70.635 488.301 63.3037 488.801 56.1392L486.806 56L484.811 55.8608C484.311 63.0296 483.811 70.365 483.311 77.867L485.306 78ZM486.806 56L488.802 56.136C489.301 48.8139 489.799 42.4983 490.297 37.1867L488.306 37L486.315 36.8133C485.813 42.1684 485.312 48.5194 484.811 55.864L486.806 56ZM488.306 37L486.415 36.3493L435.665 183.849L437.556 184.5L439.447 185.151L490.197 37.6507L488.306 37ZM437.556 184.5V182.5H399.306V184.5V186.5H437.556V184.5ZM628.208 14.75L626.938 16.2946L626.944 16.2996L626.95 16.3045L628.208 14.75ZM635.208 74.75L633.657 73.4875L633.648 73.4984L633.64 73.5095L635.208 74.75ZM612.958 87.75L612.635 85.7762L610.958 86.0507V87.75H612.958ZM612.958 88.25H610.958V90.0209L612.716 90.2353L612.958 88.25ZM631.208 95.75L629.977 97.326L629.993 97.3382L630.008 97.35L631.208 95.75ZM643.708 111.5L641.893 112.338L641.897 112.347L641.901 112.356L643.708 111.5ZM640.958 160L642.661 161.05V161.05L640.958 160ZM620.458 178.25L621.312 180.059L621.326 180.052L621.339 180.046L620.458 178.25ZM560.958 77.25H558.958V79.25H560.958V77.25ZM605.458 70.75L606.794 72.2391L606.808 72.2266L606.821 72.2138L605.458 70.75ZM605.458 34.75L604.07 36.1897L604.096 36.2149L604.123 36.2391L605.458 34.75ZM608.958 151.25L610.325 152.711L610.326 152.709L608.958 151.25ZM608.958 110.5L607.522 111.892L607.544 111.914L607.567 111.936L608.958 110.5ZM560.958 102.5V100.5H558.958V102.5H560.958ZM536.708 184.5V182.5C534.933 182.5 533.97 182.058 533.435 181.523C532.901 180.989 532.458 180.025 532.458 178.25H530.458H528.458C528.458 180.642 529.058 182.803 530.607 184.352C532.156 185.901 534.317 186.5 536.708 186.5V184.5ZM530.458 178.25H532.458V8.24998H530.458H528.458V178.25H530.458ZM530.458 8.24998H532.458C532.458 6.47495 532.901 5.51102 533.435 4.97672C533.97 4.4424 534.933 4 536.708 4V2V0C534.317 0 532.156 0.599258 530.607 2.14828C529.058 3.69731 528.458 5.85837 528.458 8.24998H530.458ZM536.708 2V4H586.458V2V0H536.708V2ZM586.458 2V4C603.639 4 617.06 8.16925 626.938 16.2946L628.208 14.75L629.479 13.2054C618.69 4.33075 604.278 0 586.458 0V2ZM628.208 14.75L626.95 16.3045C636.949 24.3989 641.958 35.2278 641.958 49H643.958H645.958C645.958 34.1055 640.468 22.1011 629.467 13.1955L628.208 14.75ZM643.958 49H641.958C641.958 58.5805 639.176 66.7077 633.657 73.4875L635.208 74.75L636.76 76.0125C642.908 68.459 645.958 59.4194 645.958 49H643.958ZM635.208 74.75L633.64 73.5095C628.288 80.2778 621.319 84.3553 612.635 85.7762L612.958 87.75L613.281 89.7237C622.931 88.1447 630.796 83.5555 636.777 75.9905L635.208 74.75ZM612.958 87.75H610.958V88.25H612.958H614.958V87.75H612.958ZM612.958 88.25L612.716 90.2353C619.195 91.0254 624.935 93.3871 629.977 97.326L631.208 95.75L632.44 94.174C626.815 89.7795 620.388 87.1412 613.201 86.2647L612.958 88.25ZM631.208 95.75L630.008 97.35C635.057 101.136 639.021 106.116 641.893 112.338L643.708 111.5L645.524 110.662C642.396 103.884 638.027 98.3635 632.409 94.15L631.208 95.75ZM643.708 111.5L641.901 112.356C644.763 118.398 646.208 125.101 646.208 132.5H648.208H650.208C650.208 124.565 648.654 117.269 645.516 110.644L643.708 111.5ZM648.208 132.5H646.208C646.208 142.682 643.869 151.475 639.256 158.95L640.958 160L642.661 161.05C647.715 152.859 650.208 143.318 650.208 132.5H648.208ZM640.958 160L639.256 158.95C634.635 166.44 628.097 172.275 619.578 176.454L620.458 178.25L621.339 180.046C630.487 175.558 637.615 169.227 642.661 161.05L640.958 160ZM620.458 178.25L619.605 176.441C611.093 180.457 600.979 182.5 589.208 182.5V184.5V186.5C601.438 186.5 612.158 184.377 621.312 180.059L620.458 178.25ZM589.208 184.5V182.5H536.708V184.5V186.5H589.208V184.5ZM560.958 77.25V79.25H585.958V77.25V75.25H560.958V77.25ZM585.958 77.25V79.25C594.486 79.25 601.506 76.9799 606.794 72.2391L605.458 70.75L604.123 69.2609C599.745 73.1867 593.764 75.25 585.958 75.25V77.25ZM605.458 70.75L606.821 72.2138C612.127 67.2736 614.708 60.6241 614.708 52.5H612.708H610.708C610.708 59.7092 608.456 65.2264 604.096 69.2862L605.458 70.75ZM612.708 52.5H614.708C614.708 44.529 612.117 38.034 606.794 33.2608L605.458 34.75L604.123 36.2391C608.466 40.1326 610.708 45.471 610.708 52.5H612.708ZM605.458 34.75L606.847 33.3103C601.71 28.3566 594.656 26 585.958 26V28V30C593.928 30 599.874 32.1434 604.07 36.1897L605.458 34.75ZM585.958 28V26H566.958V28V30H585.958V28ZM566.958 28V26C564.629 26 562.52 26.6109 561.016 28.1774C559.526 29.7287 558.958 31.8783 558.958 34.25H560.958H562.958C562.958 32.455 563.391 31.4796 563.901 30.9476C564.397 30.4307 565.288 30 566.958 30V28ZM560.958 34.25H558.958V77.25H560.958H562.958V34.25H560.958ZM560.958 152.25H558.958C558.958 154.622 559.526 156.771 561.016 158.323C562.52 159.889 564.629 160.5 566.958 160.5V158.5V156.5C565.288 156.5 564.397 156.069 563.901 155.552C563.391 155.02 562.958 154.045 562.958 152.25H560.958ZM566.958 158.5V160.5H587.458V158.5V156.5H566.958V158.5ZM587.458 158.5V160.5C596.978 160.5 604.688 157.984 610.325 152.711L608.958 151.25L607.592 149.789C602.896 154.183 596.273 156.5 587.458 156.5V158.5ZM608.958 151.25L610.326 152.709C616.13 147.269 618.958 139.955 618.958 131H616.958H614.958C614.958 139.045 612.454 145.231 607.591 149.791L608.958 151.25ZM616.958 131H618.958C618.958 122.044 616.13 114.663 610.35 109.064L608.958 110.5L607.567 111.936C612.454 116.671 614.958 122.956 614.958 131H616.958ZM608.958 110.5L610.395 109.108C604.767 103.299 597.031 100.5 587.458 100.5V102.5V104.5C596.219 104.5 602.817 107.035 607.522 111.892L608.958 110.5ZM587.458 102.5V100.5H560.958V102.5V104.5H587.458V102.5ZM560.958 102.5H558.958V152.25H560.958H562.958V102.5H560.958ZM651.861 177.75L653.797 178.252L653.799 178.244L653.801 178.236L651.861 177.75ZM694.611 7.24998L696.551 7.7364L696.554 7.72482L696.556 7.71323L694.611 7.24998ZM737.361 7.24998L735.415 7.71323L735.418 7.72617L735.422 7.73907L737.361 7.24998ZM780.361 177.75L778.422 178.239L778.425 178.252L780.361 177.75ZM749.361 179L751.329 178.642L751.32 178.595L751.309 178.548L749.361 179ZM740.361 140.25L742.309 139.798L741.95 138.25H740.361V140.25ZM691.861 140.25V138.25H690.262L689.91 139.809L691.861 140.25ZM683.111 179L685.061 179.443L685.062 179.441L683.111 179ZM697.611 114.75L695.659 114.314L695.115 116.75H697.611V114.75ZM734.611 114.75V116.75H737.11L736.562 114.312L734.611 114.75ZM723.611 65.75L725.562 65.3119L725.559 65.2993L725.556 65.2868L723.611 65.75ZM721.361 56L719.388 56.3288L719.397 56.3816L719.408 56.4339L721.361 56ZM719.861 47.5L721.827 47.1314L721.82 47.0987L721.813 47.0661L719.861 47.5ZM716.361 42L715.466 43.7888L715.541 43.826L715.618 43.8569L716.361 42ZM713.111 44.5L711.15 44.1078L711.142 44.1478L711.135 44.1881L713.111 44.5ZM711.111 54.5L709.165 54.0367L709.155 54.081L709.146 54.1258L711.111 54.5ZM708.611 65.5L706.676 64.9952L706.667 65.0294L706.659 65.064L708.611 65.5ZM657.111 184.5V182.5C655.004 182.5 654.185 181.981 653.877 181.585C653.571 181.192 653.271 180.279 653.797 178.252L651.861 177.75L649.925 177.248C649.284 179.721 649.275 182.183 650.72 184.04C652.162 185.894 654.551 186.5 657.111 186.5V184.5ZM651.861 177.75L653.801 178.236L696.551 7.7364L694.611 7.24998L692.671 6.76358L649.921 177.264L651.861 177.75ZM694.611 7.24998L696.556 7.71323C696.896 6.28746 697.471 5.4203 698.151 4.8912C698.836 4.3589 699.844 4 701.361 4V2V0C699.211 0 697.261 0.516083 695.695 1.7338C694.126 2.95468 693.159 4.71252 692.665 6.78674L694.611 7.24998ZM701.361 2V4H730.611V2V0H701.361V2ZM730.611 2V4C732.128 4 733.136 4.3589 733.82 4.8912C734.501 5.4203 735.076 6.28746 735.415 7.71323L737.361 7.24998L739.306 6.78674C738.813 4.71252 737.846 2.95468 736.276 1.7338C734.711 0.516083 732.76 0 730.611 0V2ZM737.361 7.24998L735.422 7.73907L778.422 178.239L780.361 177.75L782.3 177.261L739.3 6.76091L737.361 7.24998ZM780.361 177.75L778.425 178.252C778.95 180.279 778.65 181.192 778.345 181.585C778.037 181.981 777.217 182.5 775.111 182.5V184.5V186.5C777.671 186.5 780.06 185.894 781.502 184.04C782.946 182.183 782.938 179.721 782.297 177.248L780.361 177.75ZM775.111 184.5V182.5H755.861V184.5V186.5H775.111V184.5ZM755.861 184.5V182.5C754.36 182.5 753.405 182.129 752.778 181.598C752.146 181.064 751.605 180.164 751.329 178.642L749.361 179L747.393 179.358C747.783 181.503 748.659 183.353 750.194 184.652C751.733 185.954 753.695 186.5 755.861 186.5V184.5ZM749.361 179L751.309 178.548L742.309 139.798L740.361 140.25L738.413 140.702L747.413 179.452L749.361 179ZM740.361 140.25V138.25H691.861V140.25V142.25H740.361V140.25ZM691.861 140.25L689.91 139.809L681.16 178.559L683.111 179L685.062 179.441L693.812 140.691L691.861 140.25ZM683.111 179L681.161 178.557C680.813 180.084 680.223 181.014 679.535 181.575C678.852 182.131 677.858 182.5 676.361 182.5V184.5V186.5C678.531 186.5 680.494 185.953 682.062 184.675C683.624 183.403 684.575 181.582 685.061 179.443L683.111 179ZM676.361 184.5V182.5H657.111V184.5V186.5H676.361V184.5ZM697.611 114.75V116.75H734.611V114.75V112.75H697.611V114.75ZM734.611 114.75L736.562 114.312L725.562 65.3119L723.611 65.75L721.659 66.1881L732.659 115.188L734.611 114.75ZM723.611 65.75L725.556 65.2868C724.725 61.7949 723.977 58.5548 723.313 55.5661L721.361 56L719.408 56.4339C720.078 59.4452 720.83 62.7051 721.665 66.2132L723.611 65.75ZM721.361 56L723.334 55.6712C722.832 52.6595 722.329 49.8128 721.827 47.1314L719.861 47.5L717.895 47.8686C718.392 50.5205 718.89 53.3405 719.388 56.3288L721.361 56ZM719.861 47.5L721.813 47.0661C721.105 43.8781 719.718 41.1888 717.104 40.143L716.361 42L715.618 43.8569C716.337 44.1445 717.284 45.1219 717.908 47.9339L719.861 47.5ZM716.361 42L717.255 40.2111C716.027 39.597 714.449 39.361 713.079 40.4147C711.938 41.2924 711.422 42.7452 711.15 44.1078L713.111 44.5L715.072 44.8922C715.176 44.3719 715.295 44.0197 715.402 43.7956C715.509 43.5691 715.569 43.5456 715.518 43.5852C715.437 43.6476 715.315 43.6875 715.22 43.6875C715.163 43.6875 715.234 43.6725 715.466 43.7888L716.361 42ZM713.111 44.5L711.135 44.1881C710.644 47.2982 709.988 50.5809 709.165 54.0367L711.111 54.5L713.056 54.9632C713.9 51.4191 714.577 48.0351 715.086 44.8119L713.111 44.5ZM711.111 54.5L709.146 54.1258C708.489 57.5774 707.666 61.2003 706.676 64.9952L708.611 65.5L710.546 66.0048C711.556 62.133 712.4 58.4226 713.076 54.8742L711.111 54.5ZM708.611 65.5L706.659 65.064L695.659 114.314L697.611 114.75L699.563 115.186L710.563 65.936L708.611 65.5ZM885.513 219.5H883.513V221.5H885.513V219.5ZM885.513 184.5H887.513V182.5H885.513V184.5ZM790.513 184.5H788.513V186.5H790.513V184.5ZM790.513 2V0H788.513V2H790.513ZM821.763 2H823.763V0H821.763V2ZM821.763 156.5H819.763V158.5H821.763V156.5ZM864.263 156.5V158.5H866.263V156.5H864.263ZM864.263 2V0H862.263V2H864.263ZM895.513 2H897.513V0H895.513V2ZM895.513 156.5H893.513V158.5H895.513V156.5ZM914.263 156.5H916.263V154.5H914.263V156.5ZM914.263 219.5V221.5H916.263V219.5H914.263ZM885.513 219.5H887.513V184.5H885.513H883.513V219.5H885.513ZM885.513 184.5V182.5H790.513V184.5V186.5H885.513V184.5ZM790.513 184.5H792.513V2H790.513H788.513V184.5H790.513ZM790.513 2V4H821.763V2V0H790.513V2ZM821.763 2H819.763V156.5H821.763H823.763V2H821.763ZM821.763 156.5V158.5H864.263V156.5V154.5H821.763V156.5ZM864.263 156.5H866.263V2H864.263H862.263V156.5H864.263ZM864.263 2V4H895.513V2V0H864.263V2ZM895.513 2H893.513V156.5H895.513H897.513V2H895.513ZM895.513 156.5V158.5H914.263V156.5V154.5H895.513V156.5ZM914.263 156.5H912.263V219.5H914.263H916.263V156.5H914.263ZM914.263 219.5V217.5H885.513V219.5V221.5H914.263V219.5ZM918.916 184.5H916.916V186.5H918.916V184.5ZM918.916 2V0H916.916V2H918.916ZM947.416 2H949.416V0H947.416V2ZM946.916 111L948.913 111.093V111.093L946.916 111ZM945.666 132L943.671 131.854V131.854L945.666 132ZM944.416 149.5L942.42 149.362L946.309 150.145L944.416 149.5ZM994.666 2V0H993.234L992.772 1.35504L994.666 2ZM1032.92 2H1034.92V0H1032.92V2ZM1032.92 184.5V186.5H1034.92V184.5H1032.92ZM1004.42 184.5H1002.42V186.5H1004.42V184.5ZM1004.92 78L1002.92 77.867L1002.92 77.8891L1002.92 77.9112L1004.92 78ZM1006.42 56L1008.41 56.1392L1008.41 56.136L1006.42 56ZM1007.92 37L1009.91 37.1867L1006.02 36.3493L1007.92 37ZM957.166 184.5V186.5H958.592L959.057 185.151L957.166 184.5ZM918.916 184.5H920.916V2H918.916H916.916V184.5H918.916ZM918.916 2V4H947.416V2V0H918.916V2ZM947.416 2H945.416V91.25H947.416H949.416V2H947.416ZM947.416 91.25H945.416C945.416 97.2137 945.25 103.766 944.918 110.907L946.916 111L948.913 111.093C949.248 103.901 949.416 97.2863 949.416 91.25H947.416ZM946.916 111L944.918 110.907C944.585 118.057 944.17 125.039 943.671 131.854L945.666 132L947.66 132.146C948.161 125.294 948.579 118.276 948.913 111.093L946.916 111ZM945.666 132L943.671 131.854C943.171 138.689 942.754 144.525 942.42 149.362L944.416 149.5L946.411 149.638C946.744 144.808 947.16 138.978 947.66 132.146L945.666 132ZM944.416 149.5L946.309 150.145L996.559 2.64496L994.666 2L992.772 1.35504L942.522 148.855L944.416 149.5ZM994.666 2V4H1032.92V2V0H994.666V2ZM1032.92 2H1030.92V184.5H1032.92H1034.92V2H1032.92ZM1032.92 184.5V182.5H1004.42V184.5V186.5H1032.92V184.5ZM1004.42 184.5H1006.42V98H1004.42H1002.42V184.5H1004.42ZM1004.42 98H1006.42C1006.42 92.2032 1006.58 85.5671 1006.91 78.0888L1004.92 78L1002.92 77.9112C1002.58 85.4329 1002.42 92.1301 1002.42 98H1004.42ZM1004.92 78L1006.91 78.133C1007.41 70.635 1007.91 63.3037 1008.41 56.1392L1006.42 56L1004.42 55.8608C1003.92 63.0296 1003.42 70.365 1002.92 77.867L1004.92 78ZM1006.42 56L1008.41 56.136C1008.91 48.8139 1009.41 42.4983 1009.91 37.1867L1007.92 37L1005.92 36.8133C1005.42 42.1684 1004.92 48.5194 1004.42 55.864L1006.42 56ZM1007.92 37L1006.02 36.3493L955.274 183.849L957.166 184.5L959.057 185.151L1009.81 37.6507L1007.92 37ZM957.166 184.5V182.5H918.916V184.5V186.5H957.166V184.5ZM1042.07 184.5L1040.25 183.668L1038.95 186.5H1042.07V184.5ZM1077.32 107.5L1079.14 108.332L1080.03 106.374L1078.01 105.625L1077.32 107.5ZM1052.82 88.25L1051.13 89.3237L1051.14 89.3417L1051.15 89.3594L1052.82 88.25ZM1051.32 27.75L1049.61 26.7057L1049.61 26.7158L1051.32 27.75ZM1072.32 8.75L1073.21 10.5388V10.5388L1072.32 8.75ZM1161.32 2H1163.32V0H1161.32V2ZM1161.32 184.5V186.5H1163.32V184.5H1161.32ZM1130.07 184.5H1128.07V186.5H1130.07V184.5ZM1130.07 112H1132.07V110H1130.07V112ZM1107.82 112V110H1106.51L1105.98 111.203L1107.82 112ZM1076.32 184.5V186.5H1077.63L1078.15 185.297L1076.32 184.5ZM1130.07 84.75V86.75H1132.07V84.75H1130.07ZM1130.07 29.25H1132.07V27.25H1130.07V29.25ZM1083.07 37L1081.65 35.5858V35.5858L1083.07 37ZM1083.07 77.5L1081.65 78.9142L1081.68 78.9378L1081.7 78.9605L1083.07 77.5ZM1042.07 184.5L1043.89 185.332L1079.14 108.332L1077.32 107.5L1075.5 106.667L1040.25 183.668L1042.07 184.5ZM1077.32 107.5L1078.01 105.625C1068.07 101.935 1060.24 95.7825 1054.48 87.1406L1052.82 88.25L1051.15 89.3594C1057.39 98.7175 1065.9 105.398 1076.62 109.375L1077.32 107.5ZM1052.82 88.25L1054.51 87.1762C1048.9 78.3679 1046.07 68.0833 1046.07 56.25H1044.07H1042.07C1042.07 68.75 1045.07 79.7987 1051.13 89.3237L1052.82 88.25ZM1044.07 56.25H1046.07C1046.07 45.5493 1048.42 36.4207 1053.03 28.7842L1051.32 27.75L1049.61 26.7158C1044.55 35.0792 1042.07 44.9506 1042.07 56.25H1044.07ZM1051.32 27.75L1053.02 28.7943C1057.82 20.9634 1064.53 14.8804 1073.21 10.5388L1072.32 8.75L1071.42 6.96114C1062.11 11.6196 1054.82 18.2032 1049.61 26.7057L1051.32 27.75ZM1072.32 8.75L1073.21 10.5388C1081.89 6.202 1092.07 4 1103.82 4V2V0C1091.57 0 1080.75 2.298 1071.42 6.96114L1072.32 8.75ZM1103.82 2V4H1161.32V2V0H1103.82V2ZM1161.32 2H1159.32V184.5H1161.32H1163.32V2H1161.32ZM1161.32 184.5V182.5H1130.07V184.5V186.5H1161.32V184.5ZM1130.07 184.5H1132.07V112H1130.07H1128.07V184.5H1130.07ZM1130.07 112V110H1107.82V112V114H1130.07V112ZM1107.82 112L1105.98 111.203L1074.48 183.703L1076.32 184.5L1078.15 185.297L1109.65 112.797L1107.82 112ZM1076.32 184.5V182.5H1042.07V184.5V186.5H1076.32V184.5ZM1103.82 84.75V86.75H1130.07V84.75V82.75H1103.82V84.75ZM1130.07 84.75H1132.07V29.25H1130.07H1128.07V84.75H1130.07ZM1130.07 29.25V27.25H1103.82V29.25V31.25H1130.07V29.25ZM1103.82 29.25V27.25C1094.73 27.25 1087.26 29.9752 1081.65 35.5858L1083.07 37L1084.48 38.4142C1089.2 33.6915 1095.58 31.25 1103.82 31.25V29.25ZM1083.07 37L1081.65 35.5858C1076.2 41.0348 1073.57 48.3342 1073.57 57.25H1075.57H1077.57C1077.57 49.1658 1079.93 42.9652 1084.48 38.4142L1083.07 37ZM1075.57 57.25H1073.57C1073.57 66.1658 1076.2 73.4652 1081.65 78.9142L1083.07 77.5L1084.48 76.0858C1079.93 71.5348 1077.57 65.3342 1077.57 57.25H1075.57ZM1083.07 77.5L1081.7 78.9605C1087.32 84.2147 1094.76 86.75 1103.82 86.75V84.75V82.75C1095.54 82.75 1089.15 80.452 1084.43 76.0395L1083.07 77.5Z" fill="black" mask="url(#path-1-outside-1_63_1078)"/>
</svg>
