<svg width="607" height="118" viewBox="0 0 607 118" fill="none" xmlns="http://www.w3.org/2000/svg">
<mask id="path-1-outside-1_131_106" maskUnits="userSpaceOnUse" x="-0.736328" y="-0.0999756" width="608" height="118" fill="black">
<rect fill="white" x="-0.736328" y="-0.0999756" width="608" height="118"/>
<path d="M4.91219 96.9C2.48553 96.9 1.57553 95.73 2.18219 93.39L24.4122 4.73002C24.8455 2.91002 26.0155 2.00002 27.9222 2.00002H43.1322C45.0389 2.00002 46.2089 2.91002 46.6422 4.73002L69.0022 93.39C69.6089 95.73 68.6989 96.9 66.2722 96.9H56.2622C54.3555 96.9 53.2289 95.9467 52.8822 94.04L48.2022 73.89H22.9822L18.4322 94.04C17.9989 95.9467 16.8289 96.9 14.9222 96.9H4.91219ZM25.9722 60.63H45.2122L39.4922 35.15C39.0589 33.33 38.6689 31.64 38.3222 30.08C38.0622 28.52 37.8022 27.0467 37.5422 25.66C37.1955 24.1 36.5889 23.1467 35.7222 22.8C34.8555 22.3667 34.2922 22.8 34.0322 24.1C33.7722 25.7467 33.4255 27.48 32.9922 29.3C32.6455 31.12 32.2122 33.0267 31.6922 35.02L25.9722 60.63ZM77.2714 96.9C75.1047 96.9 74.0214 95.8167 74.0214 93.65V5.25002C74.0214 3.08335 75.1047 2.00002 77.2714 2.00002H87.1514C89.2314 2.00002 90.2714 3.08335 90.2714 5.25002V40.74H101.451L118.481 4.34002C119.175 2.78002 120.388 2.00002 122.121 2.00002H132.911C134.125 2.00002 134.948 2.39002 135.381 3.17002C135.901 3.86335 135.901 4.73002 135.381 5.77002L115.751 47.24L136.421 93.13C136.941 94.17 136.941 95.08 136.421 95.86C135.988 96.5534 135.165 96.9 133.951 96.9H122.771C120.951 96.9 119.695 96.0767 119.001 94.43L101.321 54.91H90.2714V93.65C90.2714 95.8167 89.2314 96.9 87.1514 96.9H77.2714ZM165.751 96.9C163.584 96.9 162.501 95.8167 162.501 93.65V16.69H140.921C138.754 16.69 137.671 15.6067 137.671 13.44V5.25002C137.671 3.08335 138.754 2.00002 140.921 2.00002H200.461C202.627 2.00002 203.711 3.08335 203.711 5.25002V13.44C203.711 15.6067 202.627 16.69 200.461 16.69H178.881V93.65C178.881 95.8167 177.797 96.9 175.631 96.9H165.751ZM208.6 96.9V2.00002H223.42V48.41C223.42 51.53 223.333 54.9534 223.16 58.68C222.987 62.4067 222.77 66.0467 222.51 69.6C222.25 73.1534 222.033 76.1867 221.86 78.7L247.99 2.00002H267.88V96.9H253.06V51.92C253.06 48.8867 253.147 45.42 253.32 41.52C253.58 37.62 253.84 33.8067 254.1 30.08C254.36 26.2667 254.62 22.9734 254.88 20.2L228.49 96.9H208.6ZM280.049 96.9C277.882 96.9 276.799 95.8167 276.799 93.65V5.25002C276.799 3.08335 277.882 2.00002 280.049 2.00002H305.919C315.019 2.00002 322.256 4.21002 327.629 8.63002C333.089 13.05 335.819 18.9867 335.819 26.44C335.819 31.64 334.302 36.1034 331.269 39.83C328.322 43.5567 324.466 45.81 319.699 46.59V46.85C323.252 47.2834 326.416 48.5834 329.189 50.75C331.962 52.83 334.129 55.56 335.689 58.94C337.249 62.2334 338.029 65.8734 338.029 69.86C338.029 75.32 336.772 80.0867 334.259 84.16C331.746 88.2334 328.192 91.3967 323.599 93.65C319.006 95.8167 313.589 96.9 307.349 96.9H280.049ZM292.659 41.13H305.659C309.906 41.13 313.286 40.0034 315.799 37.75C318.312 35.41 319.569 32.2467 319.569 28.26C319.569 24.36 318.312 21.2834 315.799 19.03C313.372 16.69 309.992 15.52 305.659 15.52H295.779C293.699 15.52 292.659 16.6034 292.659 18.77V41.13ZM292.659 80.13C292.659 82.2967 293.699 83.38 295.779 83.38H306.439C311.206 83.38 314.932 82.1234 317.619 79.61C320.392 77.01 321.779 73.5 321.779 69.08C321.779 64.66 320.392 61.1067 317.619 58.42C314.932 55.6467 311.206 54.26 306.439 54.26H292.659V80.13ZM342.658 96.9C340.232 96.9 339.322 95.73 339.928 93.39L362.158 4.73002C362.592 2.91002 363.762 2.00002 365.668 2.00002H380.878C382.785 2.00002 383.955 2.91002 384.388 4.73002L406.748 93.39C407.355 95.73 406.445 96.9 404.018 96.9H394.008C392.102 96.9 390.975 95.9467 390.628 94.04L385.948 73.89H360.728L356.178 94.04C355.745 95.9467 354.575 96.9 352.668 96.9H342.658ZM363.718 60.63H382.958L377.238 35.15C376.805 33.33 376.415 31.64 376.068 30.08C375.808 28.52 375.548 27.0467 375.288 25.66C374.942 24.1 374.335 23.1467 373.468 22.8C372.602 22.3667 372.038 22.8 371.778 24.1C371.518 25.7467 371.172 27.48 370.738 29.3C370.392 31.12 369.958 33.0267 369.438 35.02L363.718 60.63ZM461.428 115.1V96.9H412.028V2.00002H428.278V82.34H450.378V2.00002H466.628V82.34H476.378V115.1H461.428ZM478.797 96.9V2.00002H493.617V48.41C493.617 51.53 493.53 54.9534 493.357 58.68C493.183 62.4067 492.967 66.0467 492.707 69.6C492.447 73.1534 492.23 76.1867 492.057 78.7L518.187 2.00002H538.077V96.9H523.257V51.92C523.257 48.8867 523.343 45.42 523.517 41.52C523.777 37.62 524.037 33.8067 524.297 30.08C524.557 26.2667 524.817 22.9734 525.077 20.2L498.687 96.9H478.797ZM542.836 96.9L561.166 56.86C555.793 54.8667 551.546 51.53 548.426 46.85C545.393 42.0834 543.876 36.5367 543.876 30.21C543.876 24.49 545.133 19.55 547.646 15.39C550.246 11.1434 553.886 7.85002 558.566 5.51002C563.246 3.17002 568.706 2.00002 574.946 2.00002H604.846V96.9H588.596V59.2H577.026L560.646 96.9H542.836ZM574.946 45.03H588.596V16.17H574.946C570.439 16.17 566.843 17.5134 564.156 20.2C561.556 22.8 560.256 26.31 560.256 30.73C560.256 35.15 561.556 38.66 564.156 41.26C566.843 43.7734 570.439 45.03 574.946 45.03Z"/>
</mask>
<path d="M2.18219 93.39L4.11819 93.8919L4.1202 93.8842L4.12214 93.8764L2.18219 93.39ZM24.4122 4.73002L26.3521 5.21643L26.355 5.20486L26.3578 5.19326L24.4122 4.73002ZM46.6422 4.73002L44.6966 5.19326L44.6997 5.2062L44.7029 5.2191L46.6422 4.73002ZM69.0022 93.39L67.0629 93.8791L67.0662 93.8919L69.0022 93.39ZM52.8822 94.04L54.8499 93.6823L54.8413 93.6347L54.8303 93.5876L52.8822 94.04ZM48.2022 73.89L50.1503 73.4376L49.7909 71.89H48.2022V73.89ZM22.9822 73.89V71.89H21.3835L21.0313 73.4495L22.9822 73.89ZM18.4322 94.04L20.3825 94.4833L20.3831 94.4805L18.4322 94.04ZM25.9722 60.63L24.0203 60.1941L23.4762 62.63H25.9722V60.63ZM45.2122 60.63V62.63H47.711L47.1636 60.1919L45.2122 60.63ZM39.4922 35.15L41.4436 34.7119L41.4408 34.6993L41.4378 34.6868L39.4922 35.15ZM38.3222 30.08L36.3494 30.4088L36.3582 30.4616L36.3698 30.5139L38.3222 30.08ZM37.5422 25.66L39.5079 25.2914L39.5018 25.2587L39.4946 25.2262L37.5422 25.66ZM35.7222 22.8L34.8278 24.5889L34.9022 24.6261L34.9794 24.657L35.7222 22.8ZM34.0322 24.1L32.071 23.7078L32.063 23.7478L32.0567 23.7881L34.0322 24.1ZM32.9922 29.3L31.0466 28.8368L31.036 28.8811L31.0275 28.9258L32.9922 29.3ZM31.6922 35.02L29.757 34.5152L29.748 34.5495L29.7403 34.5841L31.6922 35.02ZM4.91219 96.9V94.9C4.45293 94.9 4.1799 94.8429 4.03836 94.7933C3.9131 94.7494 3.93776 94.7295 3.9884 94.7946C4.03938 94.8602 4.01519 94.8813 4.00414 94.7534C3.99156 94.6079 4.00381 94.3331 4.11819 93.8919L2.18219 93.39L0.2462 92.8881C-0.115026 94.2814 -0.193382 95.9334 0.830989 97.2504C1.85303 98.5645 3.47198 98.9 4.91219 98.9V96.9ZM2.18219 93.39L4.12214 93.8764L26.3521 5.21643L24.4122 4.73002L22.4722 4.24361L0.242244 92.9036L2.18219 93.39ZM24.4122 4.73002L26.3578 5.19326C26.4973 4.60748 26.7023 4.37032 26.8426 4.26122C26.9869 4.14893 27.285 4.00002 27.9222 4.00002V2.00002V2.28882e-05C26.6527 2.28882e-05 25.4124 0.306107 24.3868 1.10381C23.3571 1.90472 22.7604 3.03255 22.4666 4.26678L24.4122 4.73002ZM27.9222 2.00002V4.00002H43.1322V2.00002V2.28882e-05H27.9222V2.00002ZM43.1322 2.00002V4.00002C43.7694 4.00002 44.0674 4.14893 44.2118 4.26122C44.3521 4.37032 44.5571 4.60748 44.6966 5.19326L46.6422 4.73002L48.5878 4.26678C48.2939 3.03255 47.6973 1.90472 46.6676 1.10381C45.6419 0.306107 44.4017 2.28882e-05 43.1322 2.28882e-05V2.00002ZM46.6422 4.73002L44.7029 5.2191L67.0629 93.8791L69.0022 93.39L70.9415 92.9009L48.5815 4.24094L46.6422 4.73002ZM69.0022 93.39L67.0662 93.8919C67.1806 94.3331 67.1928 94.6079 67.1803 94.7534C67.1692 94.8813 67.145 94.8602 67.196 94.7946C67.2466 94.7295 67.2713 94.7494 67.146 94.7933C67.0045 94.8429 66.7315 94.9 66.2722 94.9V96.9V98.9C67.7124 98.9 69.3314 98.5645 70.3534 97.2504C71.3778 95.9334 71.2994 94.2814 70.9382 92.8881L69.0022 93.39ZM66.2722 96.9V94.9H56.2622V96.9V98.9H66.2722V96.9ZM56.2622 96.9V94.9C55.6411 94.9 55.3867 94.7493 55.2791 94.6582C55.1675 94.5638 54.9665 94.3236 54.8499 93.6823L52.8822 94.04L50.9145 94.3978C51.1445 95.6631 51.6802 96.8529 52.6953 97.7118C53.7144 98.5741 54.9766 98.9 56.2622 98.9V96.9ZM52.8822 94.04L54.8303 93.5876L50.1503 73.4376L48.2022 73.89L46.2541 74.3425L50.9341 94.4925L52.8822 94.04ZM48.2022 73.89V71.89H22.9822V73.89V75.89H48.2022V73.89ZM22.9822 73.89L21.0313 73.4495L16.4813 93.5995L18.4322 94.04L20.3831 94.4805L24.9331 74.3305L22.9822 73.89ZM18.4322 94.04L16.4819 93.5968C16.3347 94.2444 16.1145 94.5138 15.9663 94.6346C15.8237 94.7508 15.5391 94.9 14.9222 94.9V96.9V98.9C16.2119 98.9 17.4657 98.5726 18.493 97.7355C19.5149 96.9029 20.0963 95.7423 20.3825 94.4833L18.4322 94.04ZM14.9222 96.9V94.9H4.91219V96.9V98.9H14.9222V96.9ZM25.9722 60.63V62.63H45.2122V60.63V58.63H25.9722V60.63ZM45.2122 60.63L47.1636 60.1919L41.4436 34.7119L39.4922 35.15L37.5408 35.5881L43.2608 61.0681L45.2122 60.63ZM39.4922 35.15L41.4378 34.6868C41.0064 32.875 40.6187 31.1949 40.2746 29.6462L38.3222 30.08L36.3698 30.5139C36.719 32.0852 37.1113 33.7851 37.5466 35.6133L39.4922 35.15ZM38.3222 30.08L40.295 29.7512C40.033 28.1795 39.7707 26.6928 39.5079 25.2914L37.5422 25.66L35.5765 26.0286C35.8337 27.4006 36.0914 28.8605 36.3494 30.4088L38.3222 30.08ZM37.5422 25.66L39.4946 25.2262C39.1061 23.4781 38.2794 21.6688 36.465 20.9431L35.7222 22.8L34.9794 24.657C34.9476 24.6442 35.0132 24.6497 35.1399 24.8488C35.2782 25.0662 35.4477 25.4544 35.5898 26.0939L37.5422 25.66ZM35.7222 22.8L36.6166 21.0112C35.7884 20.5971 34.5401 20.361 33.4303 21.2148C32.5494 21.8924 32.2236 22.9452 32.071 23.7078L34.0322 24.1L35.9934 24.4923C36.0374 24.2719 36.0792 24.1697 36.0906 24.1456C36.1032 24.1191 36.0506 24.2456 35.8691 24.3853C35.6581 24.5476 35.3885 24.6375 35.1291 24.6375C34.9072 24.6375 34.795 24.5725 34.8278 24.5889L35.7222 22.8ZM34.0322 24.1L32.0567 23.7881C31.8056 25.3783 31.4694 27.0609 31.0466 28.8368L32.9922 29.3L34.9378 29.7633C35.3816 27.8992 35.7388 26.1151 36.0077 24.4119L34.0322 24.1ZM32.9922 29.3L31.0275 28.9258C30.6901 30.6974 30.2669 32.5603 29.757 34.5152L31.6922 35.02L33.6274 35.5249C34.1575 33.493 34.601 31.5426 34.9569 29.6742L32.9922 29.3ZM31.6922 35.02L29.7403 34.5841L24.0203 60.1941L25.9722 60.63L27.9241 61.066L33.6441 35.456L31.6922 35.02ZM90.2714 40.74H88.2714V42.74H90.2714V40.74ZM101.451 40.74V42.74H102.724L103.263 41.5876L101.451 40.74ZM118.481 4.34002L120.293 5.18756L120.301 5.17001L120.309 5.1523L118.481 4.34002ZM135.381 3.17002L133.633 4.1413L133.699 4.26073L133.781 4.37003L135.381 3.17002ZM135.381 5.77002L133.593 4.8756L133.583 4.89487L133.574 4.91434L135.381 5.77002ZM115.751 47.24L113.944 46.3843L113.549 47.2192L113.928 48.0614L115.751 47.24ZM136.421 93.13L134.598 93.9514L134.614 93.9883L134.633 94.0245L136.421 93.13ZM136.421 95.86L134.757 94.7506L134.741 94.7751L134.725 94.8L136.421 95.86ZM119.001 94.43L120.845 93.6539L120.836 93.6335L120.827 93.6133L119.001 94.43ZM101.321 54.91L103.147 54.0933L102.618 52.91H101.321V54.91ZM90.2714 54.91V52.91H88.2714V54.91H90.2714ZM77.2714 96.9V94.9C76.4964 94.9 76.2824 94.7076 76.2481 94.6733C76.2138 94.639 76.0214 94.4251 76.0214 93.65H74.0214H72.0214C72.0214 95.0416 72.3707 96.4527 73.4197 97.5017C74.4687 98.5508 75.8798 98.9 77.2714 98.9V96.9ZM74.0214 93.65H76.0214V5.25002H74.0214H72.0214V93.65H74.0214ZM74.0214 5.25002H76.0214C76.0214 4.47498 76.2138 4.26104 76.2481 4.22674C76.2824 4.19243 76.4964 4.00002 77.2714 4.00002V2.00002V2.28882e-05C75.8798 2.28882e-05 74.4687 0.349281 73.4197 1.39831C72.3707 2.44733 72.0214 3.8584 72.0214 5.25002H74.0214ZM77.2714 2.00002V4.00002H87.1514V2.00002V2.28882e-05H77.2714V2.00002ZM87.1514 2.00002V4.00002C87.8619 4.00002 88.0325 4.18076 88.0486 4.19759C88.0794 4.22964 88.2714 4.45502 88.2714 5.25002H90.2714H92.2714C92.2714 3.87836 91.9434 2.47874 90.9342 1.42746C89.9103 0.360947 88.521 2.28882e-05 87.1514 2.28882e-05V2.00002ZM90.2714 5.25002H88.2714V40.74H90.2714H92.2714V5.25002H90.2714ZM90.2714 40.74V42.74H101.451V40.74V38.74H90.2714V40.74ZM101.451 40.74L103.263 41.5876L120.293 5.18756L118.481 4.34002L116.67 3.49249L99.6399 39.8925L101.451 40.74ZM118.481 4.34002L120.309 5.1523C120.527 4.6623 120.771 4.41012 120.993 4.26738C121.217 4.12333 121.56 4.00002 122.121 4.00002V2.00002V2.28882e-05C120.949 2.28882e-05 119.819 0.266716 118.83 0.902664C117.839 1.53992 117.129 2.45774 116.654 3.52775L118.481 4.34002ZM122.121 2.00002V4.00002H132.911V2.00002V2.28882e-05H122.121V2.00002ZM132.911 2.00002V4.00002C133.316 4.00002 133.512 4.06652 133.583 4.1C133.6 4.10796 133.609 4.11409 133.614 4.11733C133.617 4.11901 133.618 4.1202 133.619 4.12086C133.62 4.12153 133.62 4.12187 133.62 4.12193C133.621 4.12199 133.621 4.12203 133.621 4.12214C133.621 4.12225 133.621 4.12271 133.622 4.12368C133.623 4.1254 133.627 4.13071 133.633 4.1413L135.381 3.17002L137.13 2.19874C136.22 0.560516 134.554 2.28882e-05 132.911 2.28882e-05V2.00002ZM135.381 3.17002L133.781 4.37003C133.789 4.38074 133.783 4.37472 133.777 4.35497C133.77 4.33524 133.771 4.32662 133.771 4.34002C133.771 4.37543 133.759 4.54279 133.593 4.8756L135.381 5.77002L137.17 6.66444C137.894 5.21702 138.113 3.47821 136.981 1.97002L135.381 3.17002ZM135.381 5.77002L133.574 4.91434L113.944 46.3843L115.751 47.24L117.559 48.0957L137.189 6.6257L135.381 5.77002ZM115.751 47.24L113.928 48.0614L134.598 93.9514L136.421 93.13L138.245 92.3086L117.575 46.4186L115.751 47.24ZM136.421 93.13L134.633 94.0245C134.791 94.3416 134.811 94.522 134.811 94.5925C134.811 94.6402 134.805 94.6787 134.757 94.7506L136.421 95.86L138.086 96.9694C139.104 95.4414 138.961 93.737 138.21 92.2356L136.421 93.13ZM136.421 95.86L134.725 94.8C134.748 94.7645 134.771 94.7679 134.703 94.7968C134.608 94.8367 134.381 94.9 133.951 94.9V96.9V98.9C135.495 98.9 137.162 98.4487 138.117 96.92L136.421 95.86ZM133.951 96.9V94.9H122.771V96.9V98.9H133.951V96.9ZM122.771 96.9V94.9C122.168 94.9 121.799 94.7664 121.56 94.6096C121.323 94.4545 121.067 94.1813 120.845 93.6539L119.001 94.43L117.158 95.2061C117.629 96.3254 118.348 97.2873 119.368 97.9554C120.385 98.6219 121.555 98.9 122.771 98.9V96.9ZM119.001 94.43L120.827 93.6133L103.147 54.0933L101.321 54.91L99.4958 55.7268L117.176 95.2468L119.001 94.43ZM101.321 54.91V52.91H90.2714V54.91V56.91H101.321V54.91ZM90.2714 54.91H88.2714V93.65H90.2714H92.2714V54.91H90.2714ZM90.2714 93.65H88.2714C88.2714 94.445 88.0794 94.6704 88.0486 94.7025C88.0325 94.7193 87.8619 94.9 87.1514 94.9V96.9V98.9C88.521 98.9 89.9103 98.5391 90.9342 97.4726C91.9434 96.4213 92.2714 95.0217 92.2714 93.65H90.2714ZM87.1514 96.9V94.9H77.2714V96.9V98.9H87.1514V96.9ZM162.501 16.69H164.501V14.69H162.501V16.69ZM178.881 16.69V14.69H176.881V16.69H178.881ZM165.751 96.9V94.9C164.976 94.9 164.762 94.7076 164.727 94.6733C164.693 94.639 164.501 94.4251 164.501 93.65H162.501H160.501C160.501 95.0416 160.85 96.4527 161.899 97.5017C162.948 98.5508 164.359 98.9 165.751 98.9V96.9ZM162.501 93.65H164.501V16.69H162.501H160.501V93.65H162.501ZM162.501 16.69V14.69H140.921V16.69V18.69H162.501V16.69ZM140.921 16.69V14.69C140.146 14.69 139.932 14.4976 139.897 14.4633C139.863 14.429 139.671 14.2151 139.671 13.44H137.671H135.671C135.671 14.8316 136.02 16.2427 137.069 17.2917C138.118 18.3408 139.529 18.69 140.921 18.69V16.69ZM137.671 13.44H139.671V5.25002H137.671H135.671V13.44H137.671ZM137.671 5.25002H139.671C139.671 4.47498 139.863 4.26104 139.897 4.22674C139.932 4.19243 140.146 4.00002 140.921 4.00002V2.00002V2.28882e-05C139.529 2.28882e-05 138.118 0.349281 137.069 1.39831C136.02 2.44733 135.671 3.8584 135.671 5.25002H137.671ZM140.921 2.00002V4.00002H200.461V2.00002V2.28882e-05H140.921V2.00002ZM200.461 2.00002V4.00002C201.236 4.00002 201.45 4.19243 201.484 4.22674C201.518 4.26104 201.711 4.47498 201.711 5.25002H203.711H205.711C205.711 3.8584 205.361 2.44733 204.312 1.39831C203.263 0.349281 201.852 2.28882e-05 200.461 2.28882e-05V2.00002ZM203.711 5.25002H201.711V13.44H203.711H205.711V5.25002H203.711ZM203.711 13.44H201.711C201.711 14.2151 201.518 14.429 201.484 14.4633C201.45 14.4976 201.236 14.69 200.461 14.69V16.69V18.69C201.852 18.69 203.263 18.3408 204.312 17.2917C205.361 16.2427 205.711 14.8316 205.711 13.44H203.711ZM200.461 16.69V14.69H178.881V16.69V18.69H200.461V16.69ZM178.881 16.69H176.881V93.65H178.881H180.881V16.69H178.881ZM178.881 93.65H176.881C176.881 94.4251 176.688 94.639 176.654 94.6733C176.62 94.7076 176.406 94.9 175.631 94.9V96.9V98.9C177.022 98.9 178.433 98.5508 179.482 97.5017C180.531 96.4527 180.881 95.0416 180.881 93.65H178.881ZM175.631 96.9V94.9H165.751V96.9V98.9H175.631V96.9ZM208.6 96.9H206.6V98.9H208.6V96.9ZM208.6 2.00002V2.28882e-05H206.6V2.00002H208.6ZM223.42 2.00002H225.42V2.28882e-05H223.42V2.00002ZM223.16 58.68L225.158 58.7729V58.7729L223.16 58.68ZM222.51 69.6L220.515 69.4541V69.4541L222.51 69.6ZM221.86 78.7L219.865 78.5624L223.753 79.345L221.86 78.7ZM247.99 2.00002V2.28882e-05H246.558L246.097 1.35506L247.99 2.00002ZM267.88 2.00002H269.88V2.28882e-05H267.88V2.00002ZM267.88 96.9V98.9H269.88V96.9H267.88ZM253.06 96.9H251.06V98.9H253.06V96.9ZM253.32 41.52L251.324 41.387L251.323 41.4091L251.322 41.4312L253.32 41.52ZM254.1 30.08L256.095 30.2192L256.095 30.2161L254.1 30.08ZM254.88 20.2L256.871 20.3867L252.989 19.5493L254.88 20.2ZM228.49 96.9V98.9H229.917L230.381 97.5507L228.49 96.9ZM208.6 96.9H210.6V2.00002H208.6H206.6V96.9H208.6ZM208.6 2.00002V4.00002H223.42V2.00002V2.28882e-05H208.6V2.00002ZM223.42 2.00002H221.42V48.41H223.42H225.42V2.00002H223.42ZM223.42 48.41H221.42C221.42 51.4938 221.334 54.8856 221.162 58.5871L223.16 58.68L225.158 58.7729C225.332 55.0211 225.42 51.5663 225.42 48.41H223.42ZM223.16 58.68L221.162 58.5871C220.989 62.2969 220.774 65.9192 220.515 69.4541L222.51 69.6L224.505 69.746C224.766 66.1742 224.984 62.5165 225.158 58.7729L223.16 58.68ZM222.51 69.6L220.515 69.4541C220.255 73.0092 220.038 76.0454 219.865 78.5624L221.86 78.7L223.855 78.8376C224.028 76.3279 224.245 73.2976 224.505 69.746L222.51 69.6ZM221.86 78.7L223.753 79.345L249.883 2.64498L247.99 2.00002L246.097 1.35506L219.967 78.0551L221.86 78.7ZM247.99 2.00002V4.00002H267.88V2.00002V2.28882e-05H247.99V2.00002ZM267.88 2.00002H265.88V96.9H267.88H269.88V2.00002H267.88ZM267.88 96.9V94.9H253.06V96.9V98.9H267.88V96.9ZM253.06 96.9H255.06V51.92H253.06H251.06V96.9H253.06ZM253.06 51.92H255.06C255.06 48.9233 255.146 45.4871 255.318 41.6088L253.32 41.52L251.322 41.4312C251.148 45.3529 251.06 48.8501 251.06 51.92H253.06ZM253.32 41.52L255.315 41.6531C255.575 37.755 255.835 33.9437 256.095 30.2192L254.1 30.08L252.105 29.9408C251.845 33.6696 251.584 37.485 251.324 41.387L253.32 41.52ZM254.1 30.08L256.095 30.2161C256.354 26.4139 256.613 23.1383 256.871 20.3867L254.88 20.2L252.889 20.0133C252.627 22.8084 252.365 26.1195 252.104 29.944L254.1 30.08ZM254.88 20.2L252.989 19.5493L226.599 96.2493L228.49 96.9L230.381 97.5507L256.771 20.8507L254.88 20.2ZM228.49 96.9V94.9H208.6V96.9V98.9H228.49V96.9ZM327.629 8.63002L326.359 10.1746L326.365 10.1796L326.371 10.1845L327.629 8.63002ZM331.269 39.83L329.718 38.5675L329.709 38.5785L329.7 38.5896L331.269 39.83ZM319.699 46.59L319.376 44.6163L317.699 44.8907V46.59H319.699ZM319.699 46.85H317.699V48.6209L319.457 48.8353L319.699 46.85ZM329.189 50.75L327.958 52.3261L327.973 52.3382L327.989 52.35L329.189 50.75ZM335.689 58.94L333.873 59.7781L333.877 59.7872L333.882 59.7962L335.689 58.94ZM334.259 84.16L335.961 85.2102V85.2102L334.259 84.16ZM323.599 93.65L324.452 95.4589L324.466 95.4524L324.48 95.4456L323.599 93.65ZM292.659 41.13H290.659V43.13H292.659V41.13ZM315.799 37.75L317.134 39.2392L317.148 39.2266L317.162 39.2138L315.799 37.75ZM315.799 19.03L314.411 20.4697L314.437 20.4949L314.464 20.5192L315.799 19.03ZM317.619 79.61L318.985 81.0706L318.987 81.0691L317.619 79.61ZM317.619 58.42L316.183 59.8116L316.205 59.8344L316.227 59.8565L317.619 58.42ZM292.659 54.26V52.26H290.659V54.26H292.659ZM280.049 96.9V94.9C279.274 94.9 279.06 94.7076 279.026 94.6733C278.991 94.639 278.799 94.4251 278.799 93.65H276.799H274.799C274.799 95.0416 275.148 96.4527 276.197 97.5017C277.246 98.5508 278.657 98.9 280.049 98.9V96.9ZM276.799 93.65H278.799V5.25002H276.799H274.799V93.65H276.799ZM276.799 5.25002H278.799C278.799 4.47498 278.991 4.26104 279.026 4.22674C279.06 4.19243 279.274 4.00002 280.049 4.00002V2.00002V2.28882e-05C278.657 2.28882e-05 277.246 0.349281 276.197 1.39831C275.148 2.44733 274.799 3.8584 274.799 5.25002H276.799ZM280.049 2.00002V4.00002H305.919V2.00002V2.28882e-05H280.049V2.00002ZM305.919 2.00002V4.00002C314.7 4.00002 321.441 6.12927 326.359 10.1746L327.629 8.63002L328.9 7.08544C323.071 2.29077 315.338 2.28882e-05 305.919 2.28882e-05V2.00002ZM327.629 8.63002L326.371 10.1845C331.33 14.1989 333.819 19.5479 333.819 26.44H335.819H337.819C337.819 18.4255 334.848 11.9011 328.887 7.07553L327.629 8.63002ZM335.819 26.44H333.819C333.819 31.2206 332.436 35.2277 329.718 38.5675L331.269 39.83L332.82 41.0926C336.168 36.979 337.819 32.0595 337.819 26.44H335.819ZM331.269 39.83L329.7 38.5896C327.069 41.9178 323.66 43.9153 319.376 44.6163L319.699 46.59L320.022 48.5638C325.272 47.7047 329.576 45.1955 332.838 41.0705L331.269 39.83ZM319.699 46.59H317.699V46.85H319.699H321.699V46.59H319.699ZM319.699 46.85L319.457 48.8353C322.656 49.2254 325.476 50.3872 327.958 52.3261L329.189 50.75L330.42 49.174C327.355 46.7795 323.849 45.3413 319.941 44.8647L319.699 46.85ZM329.189 50.75L327.989 52.35C330.478 54.2165 332.442 56.6764 333.873 59.7781L335.689 58.94L337.505 58.1019C335.817 54.4437 333.447 51.4436 330.389 49.15L329.189 50.75ZM335.689 58.94L333.882 59.7962C335.303 62.7975 336.029 66.1413 336.029 69.86H338.029H340.029C340.029 65.6054 339.195 61.6692 337.497 58.0838L335.689 58.94ZM338.029 69.86H336.029C336.029 75.0025 334.849 79.3947 332.557 83.1098L334.259 84.16L335.961 85.2102C338.695 80.7787 340.029 75.6376 340.029 69.86H338.029ZM334.259 84.16L332.557 83.1098C330.255 86.8399 326.997 89.7552 322.718 91.8544L323.599 93.65L324.48 95.4456C329.387 93.0381 333.236 89.6268 335.961 85.2102L334.259 84.16ZM323.599 93.65L322.746 91.8412C318.473 93.8566 313.36 94.9 307.349 94.9V96.9V98.9C313.818 98.9 319.538 97.7768 324.452 95.4589L323.599 93.65ZM307.349 96.9V94.9H280.049V96.9V98.9H307.349V96.9ZM292.659 41.13V43.13H305.659V41.13V39.13H292.659V41.13ZM305.659 41.13V43.13C310.267 43.13 314.166 41.9 317.134 39.2392L315.799 37.75L314.464 36.2609C312.405 38.1068 309.545 39.13 305.659 39.13V41.13ZM315.799 37.75L317.162 39.2138C320.148 36.4337 321.569 32.7042 321.569 28.26H319.569H317.569C317.569 31.7892 316.477 34.3864 314.436 36.2862L315.799 37.75ZM319.569 28.26H321.569C321.569 23.8891 320.138 20.234 317.134 17.5409L315.799 19.03L314.464 20.5192C316.487 22.3327 317.569 24.831 317.569 28.26H319.569ZM315.799 19.03L317.187 17.5903C314.29 14.7967 310.356 13.52 305.659 13.52V15.52V17.52C309.628 17.52 312.455 18.5834 314.411 20.4697L315.799 19.03ZM305.659 15.52V13.52H295.779V15.52V17.52H305.659V15.52ZM295.779 15.52V13.52C294.41 13.52 293.02 13.881 291.996 14.9475C290.987 15.9987 290.659 17.3984 290.659 18.77H292.659H294.659C294.659 17.975 294.851 17.7496 294.882 17.7176C294.898 17.7008 295.069 17.52 295.779 17.52V15.52ZM292.659 18.77H290.659V41.13H292.659H294.659V18.77H292.659ZM292.659 80.13H290.659C290.659 81.5017 290.987 82.9013 291.996 83.9526C293.02 85.0191 294.41 85.38 295.779 85.38V83.38V81.38C295.069 81.38 294.898 81.1993 294.882 81.1825C294.851 81.1504 294.659 80.925 294.659 80.13H292.659ZM295.779 83.38V85.38H306.439V83.38V81.38H295.779V83.38ZM306.439 83.38V85.38C311.558 85.38 315.829 84.0236 318.985 81.0706L317.619 79.61L316.253 78.1495C314.036 80.2231 310.853 81.38 306.439 81.38V83.38ZM317.619 79.61L318.987 81.0691C322.23 78.0287 323.779 73.9546 323.779 69.08H321.779H319.779C319.779 73.0454 318.555 75.9914 316.251 78.1509L317.619 79.61ZM321.779 69.08H323.779C323.779 64.2041 322.23 60.1026 319.011 56.9835L317.619 58.42L316.227 59.8565C318.555 62.1108 319.779 65.116 319.779 69.08H321.779ZM317.619 58.42L319.056 57.0284C315.907 53.7787 311.612 52.26 306.439 52.26V54.26V56.26C310.8 56.26 313.957 57.5147 316.183 59.8116L317.619 58.42ZM306.439 54.26V52.26H292.659V54.26V56.26H306.439V54.26ZM292.659 54.26H290.659V80.13H292.659H294.659V54.26H292.659ZM339.928 93.39L341.864 93.8919L341.866 93.8842L341.868 93.8764L339.928 93.39ZM362.158 4.73002L364.098 5.21643L364.101 5.20486L364.104 5.19326L362.158 4.73002ZM384.388 4.73002L382.443 5.19326L382.446 5.2062L382.449 5.2191L384.388 4.73002ZM406.748 93.39L404.809 93.8791L404.812 93.8919L406.748 93.39ZM390.628 94.04L392.596 93.6823L392.587 93.6347L392.576 93.5876L390.628 94.04ZM385.948 73.89L387.896 73.4376L387.537 71.89H385.948V73.89ZM360.728 73.89V71.89H359.13L358.777 73.4495L360.728 73.89ZM356.178 94.04L358.129 94.4833L358.129 94.4805L356.178 94.04ZM363.718 60.63L361.766 60.1941L361.222 62.63H363.718V60.63ZM382.958 60.63V62.63H385.457L384.91 60.1919L382.958 60.63ZM377.238 35.15L379.19 34.7119L379.187 34.6993L379.184 34.6868L377.238 35.15ZM376.068 30.08L374.095 30.4088L374.104 30.4616L374.116 30.5139L376.068 30.08ZM375.288 25.66L377.254 25.2914L377.248 25.2587L377.241 25.2262L375.288 25.66ZM373.468 22.8L372.574 24.5889L372.648 24.6261L372.726 24.657L373.468 22.8ZM371.778 24.1L369.817 23.7078L369.809 23.7478L369.803 23.7881L371.778 24.1ZM370.738 29.3L368.793 28.8368L368.782 28.8811L368.774 28.9258L370.738 29.3ZM369.438 35.02L367.503 34.5152L367.494 34.5495L367.486 34.5841L369.438 35.02ZM342.658 96.9V94.9C342.199 94.9 341.926 94.8429 341.784 94.7933C341.659 94.7494 341.684 94.7295 341.734 94.7946C341.785 94.8602 341.761 94.8813 341.75 94.7534C341.738 94.6079 341.75 94.3331 341.864 93.8919L339.928 93.39L337.992 92.8881C337.631 94.2814 337.553 95.9334 338.577 97.2504C339.599 98.5645 341.218 98.9 342.658 98.9V96.9ZM339.928 93.39L341.868 93.8764L364.098 5.21643L362.158 4.73002L360.218 4.24361L337.988 92.9036L339.928 93.39ZM362.158 4.73002L364.104 5.19326C364.243 4.60748 364.448 4.37032 364.589 4.26122C364.733 4.14893 365.031 4.00002 365.668 4.00002V2.00002V2.28882e-05C364.399 2.28882e-05 363.159 0.306107 362.133 1.10381C361.103 1.90472 360.507 3.03255 360.213 4.26678L362.158 4.73002ZM365.668 2.00002V4.00002H380.878V2.00002V2.28882e-05H365.668V2.00002ZM380.878 2.00002V4.00002C381.516 4.00002 381.814 4.14893 381.958 4.26122C382.098 4.37032 382.303 4.60748 382.443 5.19326L384.388 4.73002L386.334 4.26678C386.04 3.03255 385.443 1.90472 384.414 1.10381C383.388 0.306107 382.148 2.28882e-05 380.878 2.28882e-05V2.00002ZM384.388 4.73002L382.449 5.2191L404.809 93.8791L406.748 93.39L408.688 92.9009L386.328 4.24094L384.388 4.73002ZM406.748 93.39L404.812 93.8919C404.927 94.3331 404.939 94.6079 404.926 94.7534C404.915 94.8813 404.891 94.8602 404.942 94.7946C404.993 94.7295 405.017 94.7494 404.892 94.7933C404.751 94.8429 404.478 94.9 404.018 94.9V96.9V98.9C405.458 98.9 407.077 98.5645 408.099 97.2504C409.124 95.9334 409.046 94.2814 408.684 92.8881L406.748 93.39ZM404.018 96.9V94.9H394.008V96.9V98.9H404.018V96.9ZM394.008 96.9V94.9C393.387 94.9 393.133 94.7493 393.025 94.6582C392.914 94.5638 392.713 94.3236 392.596 93.6823L390.628 94.04L388.661 94.3978C388.891 95.6631 389.426 96.8529 390.441 97.7118C391.46 98.5741 392.723 98.9 394.008 98.9V96.9ZM390.628 94.04L392.576 93.5876L387.896 73.4376L385.948 73.89L384 74.3425L388.68 94.4925L390.628 94.04ZM385.948 73.89V71.89H360.728V73.89V75.89H385.948V73.89ZM360.728 73.89L358.777 73.4495L354.227 93.5995L356.178 94.04L358.129 94.4805L362.679 74.3305L360.728 73.89ZM356.178 94.04L354.228 93.5968C354.081 94.2444 353.861 94.5138 353.712 94.6346C353.57 94.7508 353.285 94.9 352.668 94.9V96.9V98.9C353.958 98.9 355.212 98.5726 356.239 97.7355C357.261 96.9029 357.842 95.7423 358.129 94.4833L356.178 94.04ZM352.668 96.9V94.9H342.658V96.9V98.9H352.668V96.9ZM363.718 60.63V62.63H382.958V60.63V58.63H363.718V60.63ZM382.958 60.63L384.91 60.1919L379.19 34.7119L377.238 35.15L375.287 35.5881L381.007 61.0681L382.958 60.63ZM377.238 35.15L379.184 34.6868C378.753 32.875 378.365 31.1949 378.021 29.6462L376.068 30.08L374.116 30.5139C374.465 32.0852 374.857 33.7851 375.293 35.6133L377.238 35.15ZM376.068 30.08L378.041 29.7512C377.779 28.1795 377.517 26.6928 377.254 25.2914L375.288 25.66L373.323 26.0286C373.58 27.4006 373.837 28.8605 374.095 30.4088L376.068 30.08ZM375.288 25.66L377.241 25.2262C376.852 23.4781 376.026 21.6688 374.211 20.9431L373.468 22.8L372.726 24.657C372.694 24.6442 372.759 24.6497 372.886 24.8488C373.024 25.0662 373.194 25.4544 373.336 26.0939L375.288 25.66ZM373.468 22.8L374.363 21.0112C373.534 20.5971 372.286 20.361 371.176 21.2148C370.295 21.8924 369.97 22.9452 369.817 23.7078L371.778 24.1L373.739 24.4923C373.784 24.2719 373.825 24.1697 373.837 24.1456C373.849 24.1191 373.797 24.2456 373.615 24.3853C373.404 24.5476 373.135 24.6375 372.875 24.6375C372.653 24.6375 372.541 24.5725 372.574 24.5889L373.468 22.8ZM371.778 24.1L369.803 23.7881C369.552 25.3783 369.216 27.0609 368.793 28.8368L370.738 29.3L372.684 29.7633C373.128 27.8992 373.485 26.1151 373.754 24.4119L371.778 24.1ZM370.738 29.3L368.774 28.9258C368.436 30.6974 368.013 32.5603 367.503 34.5152L369.438 35.02L371.374 35.5249C371.904 33.493 372.347 31.5426 372.703 29.6742L370.738 29.3ZM369.438 35.02L367.486 34.5841L361.766 60.1941L363.718 60.63L365.67 61.066L371.39 35.456L369.438 35.02ZM461.428 115.1H459.428V117.1H461.428V115.1ZM461.428 96.9H463.428V94.9H461.428V96.9ZM412.028 96.9H410.028V98.9H412.028V96.9ZM412.028 2.00002V2.28882e-05H410.028V2.00002H412.028ZM428.278 2.00002H430.278V2.28882e-05H428.278V2.00002ZM428.278 82.34H426.278V84.34H428.278V82.34ZM450.378 82.34V84.34H452.378V82.34H450.378ZM450.378 2.00002V2.28882e-05H448.378V2.00002H450.378ZM466.628 2.00002H468.628V2.28882e-05H466.628V2.00002ZM466.628 82.34H464.628V84.34H466.628V82.34ZM476.378 82.34H478.378V80.34H476.378V82.34ZM476.378 115.1V117.1H478.378V115.1H476.378ZM461.428 115.1H463.428V96.9H461.428H459.428V115.1H461.428ZM461.428 96.9V94.9H412.028V96.9V98.9H461.428V96.9ZM412.028 96.9H414.028V2.00002H412.028H410.028V96.9H412.028ZM412.028 2.00002V4.00002H428.278V2.00002V2.28882e-05H412.028V2.00002ZM428.278 2.00002H426.278V82.34H428.278H430.278V2.00002H428.278ZM428.278 82.34V84.34H450.378V82.34V80.34H428.278V82.34ZM450.378 82.34H452.378V2.00002H450.378H448.378V82.34H450.378ZM450.378 2.00002V4.00002H466.628V2.00002V2.28882e-05H450.378V2.00002ZM466.628 2.00002H464.628V82.34H466.628H468.628V2.00002H466.628ZM466.628 82.34V84.34H476.378V82.34V80.34H466.628V82.34ZM476.378 82.34H474.378V115.1H476.378H478.378V82.34H476.378ZM476.378 115.1V113.1H461.428V115.1V117.1H476.378V115.1ZM478.797 96.9H476.797V98.9H478.797V96.9ZM478.797 2.00002V2.28882e-05H476.797V2.00002H478.797ZM493.617 2.00002H495.617V2.28882e-05H493.617V2.00002ZM493.357 58.68L495.355 58.7729V58.7729L493.357 58.68ZM492.707 69.6L490.712 69.4541V69.4541L492.707 69.6ZM492.057 78.7L490.061 78.5624L493.95 79.345L492.057 78.7ZM518.187 2.00002V2.28882e-05H516.755L516.294 1.35506L518.187 2.00002ZM538.077 2.00002H540.077V2.28882e-05H538.077V2.00002ZM538.077 96.9V98.9H540.077V96.9H538.077ZM523.257 96.9H521.257V98.9H523.257V96.9ZM523.517 41.52L521.521 41.387L521.52 41.4091L521.519 41.4312L523.517 41.52ZM524.297 30.08L526.292 30.2192L526.292 30.2161L524.297 30.08ZM525.077 20.2L527.068 20.3867L523.186 19.5493L525.077 20.2ZM498.687 96.9V98.9H500.114L500.578 97.5507L498.687 96.9ZM478.797 96.9H480.797V2.00002H478.797H476.797V96.9H478.797ZM478.797 2.00002V4.00002H493.617V2.00002V2.28882e-05H478.797V2.00002ZM493.617 2.00002H491.617V48.41H493.617H495.617V2.00002H493.617ZM493.617 48.41H491.617C491.617 51.4938 491.531 54.8856 491.359 58.5871L493.357 58.68L495.355 58.7729C495.529 55.0211 495.617 51.5663 495.617 48.41H493.617ZM493.357 58.68L491.359 58.5871C491.186 62.2969 490.971 65.9192 490.712 69.4541L492.707 69.6L494.701 69.746C494.963 66.1742 495.18 62.5165 495.355 58.7729L493.357 58.68ZM492.707 69.6L490.712 69.4541C490.452 73.0092 490.235 76.0454 490.061 78.5624L492.057 78.7L494.052 78.8376C494.225 76.3279 494.442 73.2976 494.701 69.746L492.707 69.6ZM492.057 78.7L493.95 79.345L520.08 2.64498L518.187 2.00002L516.294 1.35506L490.164 78.0551L492.057 78.7ZM518.187 2.00002V4.00002H538.077V2.00002V2.28882e-05H518.187V2.00002ZM538.077 2.00002H536.077V96.9H538.077H540.077V2.00002H538.077ZM538.077 96.9V94.9H523.257V96.9V98.9H538.077V96.9ZM523.257 96.9H525.257V51.92H523.257H521.257V96.9H523.257ZM523.257 51.92H525.257C525.257 48.9233 525.342 45.4871 525.515 41.6088L523.517 41.52L521.519 41.4312C521.344 45.3529 521.257 48.8501 521.257 51.92H523.257ZM523.517 41.52L525.512 41.6531C525.772 37.755 526.032 33.9437 526.292 30.2192L524.297 30.08L522.302 29.9408C522.041 33.6696 521.781 37.485 521.521 41.387L523.517 41.52ZM524.297 30.08L526.292 30.2161C526.551 26.4139 526.81 23.1383 527.068 20.3867L525.077 20.2L523.085 20.0133C522.823 22.8084 522.562 26.1195 522.301 29.944L524.297 30.08ZM525.077 20.2L523.186 19.5493L496.796 96.2493L498.687 96.9L500.578 97.5507L526.968 20.8507L525.077 20.2ZM498.687 96.9V94.9H478.797V96.9V98.9H498.687V96.9ZM542.836 96.9L541.017 96.0675L539.721 98.9H542.836V96.9ZM561.166 56.86L562.984 57.6925L563.881 55.734L561.862 54.9849L561.166 56.86ZM548.426 46.85L546.739 47.9238L546.75 47.9417L546.762 47.9594L548.426 46.85ZM547.646 15.39L545.94 14.3457L545.934 14.3558L547.646 15.39ZM558.566 5.51003L559.46 7.29888V7.29887L558.566 5.51003ZM604.846 2.00002H606.846V2.28882e-05H604.846V2.00002ZM604.846 96.9V98.9H606.846V96.9H604.846ZM588.596 96.9H586.596V98.9H588.596V96.9ZM588.596 59.2H590.596V57.2H588.596V59.2ZM577.026 59.2V57.2H575.714L575.192 58.403L577.026 59.2ZM560.646 96.9V98.9H561.958L562.48 97.697L560.646 96.9ZM588.596 45.03V47.03H590.596V45.03H588.596ZM588.596 16.17H590.596V14.17H588.596V16.17ZM564.156 20.2L562.742 18.7858V18.7858L564.156 20.2ZM564.156 41.26L562.742 42.6742L562.765 42.6978L562.79 42.7206L564.156 41.26ZM542.836 96.9L544.654 97.7325L562.984 57.6925L561.166 56.86L559.347 56.0275L541.017 96.0675L542.836 96.9ZM561.166 56.86L561.862 54.9849C556.876 53.1353 552.971 50.0626 550.09 45.7406L548.426 46.85L546.762 47.9594C550.121 52.9975 554.71 56.5981 560.47 58.7352L561.166 56.86ZM548.426 46.85L550.113 45.7763C547.308 41.368 545.876 36.2033 545.876 30.21H543.876H541.876C541.876 36.8701 543.477 42.7987 546.739 47.9238L548.426 46.85ZM543.876 30.21H545.876C545.876 24.7894 547.064 20.2208 549.358 16.4243L547.646 15.39L545.934 14.3558C543.201 18.8793 541.876 24.1907 541.876 30.21H543.876ZM547.646 15.39L549.352 16.4343C551.746 12.5234 555.097 9.4804 559.46 7.29888L558.566 5.51003L557.672 3.72117C552.675 6.21964 548.746 9.76326 545.94 14.3457L547.646 15.39ZM558.566 5.51003L559.46 7.29887C563.814 5.12202 568.957 4.00002 574.946 4.00002V2.00002V2.28882e-05C568.455 2.28882e-05 562.678 1.21803 557.672 3.72117L558.566 5.51003ZM574.946 2.00002V4.00002H604.846V2.00002V2.28882e-05H574.946V2.00002ZM604.846 2.00002H602.846V96.9H604.846H606.846V2.00002H604.846ZM604.846 96.9V94.9H588.596V96.9V98.9H604.846V96.9ZM588.596 96.9H590.596V59.2H588.596H586.596V96.9H588.596ZM588.596 59.2V57.2H577.026V59.2V61.2H588.596V59.2ZM577.026 59.2L575.192 58.403L558.812 96.103L560.646 96.9L562.48 97.697L578.86 59.997L577.026 59.2ZM560.646 96.9V94.9H542.836V96.9V98.9H560.646V96.9ZM574.946 45.03V47.03H588.596V45.03V43.03H574.946V45.03ZM588.596 45.03H590.596V16.17H588.596H586.596V45.03H588.596ZM588.596 16.17V14.17H574.946V16.17V18.17H588.596V16.17ZM574.946 16.17V14.17C570.015 14.17 565.872 15.6552 562.742 18.7858L564.156 20.2L565.57 21.6142C567.813 19.3715 570.864 18.17 574.946 18.17V16.17ZM564.156 20.2L562.742 18.7858C559.693 21.8349 558.256 25.8943 558.256 30.73H560.256H562.256C562.256 26.7258 563.419 23.7652 565.57 21.6142L564.156 20.2ZM560.256 30.73H558.256C558.256 35.5658 559.693 39.6252 562.742 42.6742L564.156 41.26L565.57 39.8458C563.419 37.6948 562.256 34.7343 562.256 30.73H560.256ZM564.156 41.26L562.79 42.7206C565.926 45.6547 570.052 47.03 574.946 47.03V45.03V43.03C570.827 43.03 567.759 41.892 565.522 39.7995L564.156 41.26Z" fill="black" mask="url(#path-1-outside-1_131_106)"/>
</svg>
