<svg width="52" height="125" viewBox="0 0 52 125" fill="none" xmlns="http://www.w3.org/2000/svg">
<mask id="path-1-inside-1_63_977" fill="white">
<path d="M51.7514 66.1806C51.41 65.7514 50.7209 64.1066 50.4131 63.5619C50.1055 63.0172 48.9569 61.1789 48.0749 60.3201C47.8573 60.108 47.6385 59.9569 47.4319 59.8491C46.794 58.3542 46.019 52.3398 45.5829 47.766C45.1215 42.9265 43.6139 41.0097 43.6139 41.0097C43.8294 37.0502 42.5372 32.9334 42.5781 31.9593C42.6191 30.9852 42.5781 27.9474 42.5781 27.9474C42.3524 22.9613 39.7683 21.9976 36.9586 21.0758C34.1488 20.1539 30.7236 18.3942 30.2108 17.9334C29.6981 17.4726 29.6981 16.7183 29.6776 15.4823C29.6577 14.2865 30.156 13.0113 30.5599 11.5638C31.6474 11.5376 32.2885 8.20244 31.7489 7.89847C31.5542 7.78883 31.4083 7.78025 31.2996 7.81832C31.4705 6.1218 31.3988 4.21137 30.6005 2.72394C29.0829 -0.104311 26.1294 0.000499027 26.1294 0.000499027H25.8703C25.8703 0.000499027 22.917 -0.104311 21.3992 2.72394C20.6009 4.21137 20.5292 6.1218 20.7001 7.81832C20.5914 7.78052 20.4452 7.78883 20.2508 7.89847C19.7115 8.20244 20.3526 11.5376 21.4398 11.5638C21.8437 13.0116 22.3421 14.2865 22.3221 15.4823C22.3016 16.7183 22.3016 17.4726 21.7889 17.9334C21.2761 18.3942 17.8509 20.1542 15.0411 21.0758C12.2314 21.9976 9.64701 22.9613 9.42159 27.9474C9.42159 27.9474 9.38065 30.9852 9.42159 31.9593C9.46252 32.9334 8.17035 37.0502 8.3858 41.0097C8.3858 41.0097 6.87843 42.9265 6.41683 47.766C5.98068 52.3401 5.20548 58.3542 4.56778 59.8491C4.36152 59.9569 4.14266 60.108 3.92511 60.3201C3.0431 61.1789 1.89473 63.0172 1.58691 63.5619C1.27935 64.1066 0.589956 65.7514 0.248542 66.1806C-0.151393 66.6834 -0.0965449 67.4251 0.617774 67.0761C1.32527 66.7303 2.03801 65.8873 2.32511 65.3844C2.6122 64.8816 2.81741 64.7558 2.81741 64.7558C2.81741 64.7558 2.43585 68.0502 2.32957 69.0509C2.21174 70.1612 1.80236 71.6797 2.36631 71.8368C2.98615 72.0094 3.14571 71.1664 3.24831 70.5169C3.35092 69.8674 3.9873 66.7456 4.18963 66.5574C4.44182 66.3229 4.33082 66.6866 4.27387 67.4375C4.25471 67.6916 4.17126 68.9667 4.04819 69.7838C3.92511 70.6008 3.51494 72.4236 4.37648 72.3187C5.23802 72.2139 5.44297 67.2908 5.58652 66.9346C5.73006 66.5784 5.85314 66.7253 5.771 67.605C5.74502 67.8832 5.29916 71.1873 5.46344 71.8577C5.62745 72.5281 6.26331 72.4233 6.46852 71.5644C6.67374 70.7056 6.87869 67.2278 7.02224 66.9764C7.16579 66.725 7.20672 67.186 7.16579 67.8144C7.13561 68.2743 6.8787 70.7892 7.371 70.894C7.86331 70.9988 8.06328 70.6898 8.19974 68.8515C8.3194 67.2418 8.33489 66.3478 8.41703 65.3214C8.49917 64.2948 8.60151 61.2781 8.10946 60.3563C8.10946 60.3563 8.72485 57.2557 9.9963 54.5741C11.268 51.8924 13.1548 47.1996 13.0727 44.8951C13.0045 42.9815 14.5769 36.33 15.1592 34.0807C15.2143 34.6415 15.2949 35.2355 15.4109 35.8448C15.9851 38.8615 16.8466 42.5068 16.7235 44.7694C16.6005 47.0321 16.3543 50.4677 16.1082 51.8085C15.862 53.1493 14.3853 58.3448 14.4263 64.7556C14.4672 71.1664 15.3288 78.729 15.7389 80.3213C16.1491 81.9135 16.2672 83.4915 16.1444 84.5809C16.0213 85.6703 15.7801 88.0935 16.0263 89.7278C16.0263 89.7278 15.0419 94.0017 15.8211 99.8257C16.6005 105.65 17.995 112.061 17.995 112.731C17.995 112.79 17.995 112.882 17.995 112.997C17.9281 113.31 17.8535 113.621 17.7864 113.933C17.705 114.311 17.6504 114.689 17.6402 115.077C17.6302 115.46 17.6512 115.842 17.6578 116.225C17.6622 116.493 17.6552 116.761 17.6297 117.028C17.4413 117.418 17.214 117.794 16.981 118.154C16.6648 118.642 16.3071 119.1 15.9434 119.552C15.5762 120.008 15.2015 120.457 14.8514 120.927C14.6774 121.16 14.5095 121.399 14.352 121.644C14.1877 121.9 14.0022 122.169 13.9437 122.475C13.8896 122.757 13.9681 123.042 14.231 123.176C14.2835 123.203 14.3392 123.22 14.3951 123.227C14.388 123.313 14.3932 123.402 14.4174 123.493C14.5066 123.827 14.8391 124.067 15.1737 124.076C15.2191 124.236 15.3335 124.357 15.5111 124.408C15.7287 124.472 15.9649 124.405 16.1591 124.29C16.1688 124.341 16.1848 124.391 16.2089 124.439C16.3302 124.681 16.6007 124.785 16.855 124.777C17.1558 124.767 17.4106 124.587 17.6108 124.37C17.7145 124.258 17.8084 124.138 17.9024 124.018C17.863 124.179 17.8593 124.348 17.9181 124.505C18.0275 124.798 18.3393 124.946 18.6259 124.988C18.8977 125.027 19.1728 124.971 19.4173 124.847C19.511 124.799 19.6073 124.737 19.6966 124.666C19.864 124.582 20.0164 124.46 20.1469 124.328C20.4363 124.034 20.636 123.669 20.7864 123.285C21.1197 122.435 21.227 121.511 21.401 120.619C21.4338 120.451 21.4679 120.282 21.5054 120.113C21.527 120.128 21.5613 120.126 21.5907 120.096C21.9639 119.709 22.1077 119.084 22.1523 118.56C22.2069 117.918 22.1114 117.278 21.9949 116.649C21.8715 115.981 21.7495 115.315 21.6721 114.639C21.5949 113.964 21.5524 113.286 21.5209 112.607C21.5036 112.234 21.4879 111.861 21.4724 111.488C21.4713 111.461 21.4698 111.433 21.4684 111.406C21.5432 110.37 21.6296 109.361 21.7277 108.498C22.1379 104.895 23.5736 98.9034 23.2044 95.8028C22.8351 92.7022 23.2849 84.7833 23.6762 82.5206C24.0672 80.258 25.9527 67.5206 25.5426 63.8753L26.0002 63.8327L26.4579 63.8753C26.0477 67.5206 27.9333 80.258 28.3243 82.5206C28.7153 84.7833 29.1651 92.7022 28.7961 95.8028C28.4269 98.9034 29.8626 104.895 30.2728 108.498C30.3709 109.361 30.4573 110.37 30.5321 111.406C30.5307 111.433 30.5292 111.461 30.5281 111.488C30.5124 111.861 30.4969 112.234 30.4796 112.607C30.4481 113.286 30.4056 113.964 30.3284 114.639C30.2513 115.315 30.1292 115.981 30.0056 116.649C29.8894 117.278 29.7936 117.918 29.8482 118.56C29.8928 119.084 30.0366 119.71 30.4098 120.096C30.4392 120.126 30.4733 120.128 30.4951 120.113C30.5326 120.282 30.5667 120.451 30.5995 120.619C30.7735 121.511 30.8808 122.435 31.2141 123.285C31.3647 123.669 31.5642 124.034 31.8536 124.328C31.984 124.46 32.1365 124.582 32.3039 124.666C32.3932 124.737 32.4892 124.799 32.5832 124.847C32.8277 124.971 33.1025 125.027 33.3746 124.988C33.6612 124.946 33.9727 124.798 34.0824 124.505C34.1412 124.348 34.1375 124.179 34.0981 124.018C34.1921 124.138 34.286 124.258 34.3897 124.37C34.5899 124.587 34.8447 124.767 35.1455 124.777C35.3998 124.785 35.6703 124.681 35.7916 124.439C35.8154 124.391 35.8315 124.341 35.8414 124.29C36.0356 124.405 36.2718 124.472 36.4893 124.408C36.667 124.357 36.7817 124.236 36.8268 124.076C37.1614 124.067 37.4942 123.827 37.5831 123.493C37.6075 123.402 37.6125 123.313 37.6054 123.227C37.6613 123.219 37.717 123.203 37.7695 123.176C38.0324 123.042 38.1109 122.757 38.0568 122.475C37.9983 122.169 37.8128 121.9 37.6485 121.644C37.491 121.399 37.3231 121.16 37.1491 120.927C36.799 120.457 36.4243 120.007 36.0571 119.552C35.6934 119.1 35.336 118.642 35.0195 118.154C34.7865 117.794 34.5592 117.418 34.3708 117.028C34.3456 116.761 34.3383 116.493 34.3427 116.225C34.3493 115.842 34.3703 115.46 34.3603 115.077C34.3501 114.69 34.2955 114.312 34.2144 113.933C34.1472 113.621 34.0729 113.31 34.0058 112.997C34.0058 112.882 34.0058 112.79 34.0058 112.731C34.0058 112.06 35.4006 105.65 36.1797 99.8257C36.9591 94.0017 35.9747 89.7278 35.9747 89.7278C36.2209 88.0938 35.9795 85.6703 35.8566 84.5809C35.7336 83.4915 35.8517 81.9135 36.2618 80.3213C36.672 78.729 37.5335 71.1661 37.5745 64.7556C37.6154 58.3451 36.1388 53.1493 35.8926 51.8085C35.6464 50.4677 35.4003 47.0321 35.2772 44.7694C35.1541 42.5068 36.0157 38.8615 36.5899 35.8448C36.7059 35.2352 36.7864 34.6415 36.8415 34.0807C37.4238 36.33 38.9963 42.9815 38.9281 44.8951C38.8459 47.1996 40.733 51.8924 42.0045 54.5741C43.2759 57.2557 43.8913 60.3563 43.8913 60.3563C43.399 61.2781 43.5016 64.2948 43.5837 65.3214C43.6659 66.3481 43.6814 67.2418 43.801 68.8515C43.9377 70.6898 44.1377 70.9988 44.6298 70.894C45.1221 70.7892 44.8652 68.2743 44.835 67.8144C44.7938 67.1858 44.835 66.725 44.9785 66.9764C45.1221 67.2278 45.3273 70.7056 45.5322 71.5644C45.7374 72.4233 46.373 72.5281 46.5373 71.8577C46.7013 71.1873 46.2557 67.8832 46.2298 67.605C46.1476 66.725 46.2707 66.5784 46.4142 66.9346C46.5578 67.2908 46.763 72.2139 47.6243 72.3187C48.4856 72.4236 48.0754 70.6008 47.9523 69.7838C47.8292 68.9667 47.746 67.6916 47.7266 67.4375C47.6697 66.6866 47.5587 66.3232 47.8109 66.5574C48.0132 66.7456 48.6496 69.8674 48.7522 70.5169C48.8548 71.1664 49.0143 72.0094 49.6342 71.8368C50.1981 71.6797 49.7888 70.1612 49.6709 69.0509C49.5646 68.05 49.1831 64.7558 49.1831 64.7558C49.1831 64.7558 49.3883 64.8816 49.6754 65.3844C49.9625 65.8873 50.6752 66.7303 51.3827 67.0761C52.0965 67.4251 52.1514 66.6832 51.7514 66.1806Z"/>
</mask>
<path d="M51.7514 66.1806C51.41 65.7514 50.7209 64.1066 50.4131 63.5619C50.1055 63.0172 48.9569 61.1789 48.0749 60.3201C47.8573 60.108 47.6385 59.9569 47.4319 59.8491C46.794 58.3542 46.019 52.3398 45.5829 47.766C45.1215 42.9265 43.6139 41.0097 43.6139 41.0097C43.8294 37.0502 42.5372 32.9334 42.5781 31.9593C42.6191 30.9852 42.5781 27.9474 42.5781 27.9474C42.3524 22.9613 39.7683 21.9976 36.9586 21.0758C34.1488 20.1539 30.7236 18.3942 30.2108 17.9334C29.6981 17.4726 29.6981 16.7183 29.6776 15.4823C29.6577 14.2865 30.156 13.0113 30.5599 11.5638C31.6474 11.5376 32.2885 8.20244 31.7489 7.89847C31.5542 7.78883 31.4083 7.78025 31.2996 7.81832C31.4705 6.1218 31.3988 4.21137 30.6005 2.72394C29.0829 -0.104311 26.1294 0.000499027 26.1294 0.000499027H25.8703C25.8703 0.000499027 22.917 -0.104311 21.3992 2.72394C20.6009 4.21137 20.5292 6.1218 20.7001 7.81832C20.5914 7.78052 20.4452 7.78883 20.2508 7.89847C19.7115 8.20244 20.3526 11.5376 21.4398 11.5638C21.8437 13.0116 22.3421 14.2865 22.3221 15.4823C22.3016 16.7183 22.3016 17.4726 21.7889 17.9334C21.2761 18.3942 17.8509 20.1542 15.0411 21.0758C12.2314 21.9976 9.64701 22.9613 9.42159 27.9474C9.42159 27.9474 9.38065 30.9852 9.42159 31.9593C9.46252 32.9334 8.17035 37.0502 8.3858 41.0097C8.3858 41.0097 6.87843 42.9265 6.41683 47.766C5.98068 52.3401 5.20548 58.3542 4.56778 59.8491C4.36152 59.9569 4.14266 60.108 3.92511 60.3201C3.0431 61.1789 1.89473 63.0172 1.58691 63.5619C1.27935 64.1066 0.589956 65.7514 0.248542 66.1806C-0.151393 66.6834 -0.0965449 67.4251 0.617774 67.0761C1.32527 66.7303 2.03801 65.8873 2.32511 65.3844C2.6122 64.8816 2.81741 64.7558 2.81741 64.7558C2.81741 64.7558 2.43585 68.0502 2.32957 69.0509C2.21174 70.1612 1.80236 71.6797 2.36631 71.8368C2.98615 72.0094 3.14571 71.1664 3.24831 70.5169C3.35092 69.8674 3.9873 66.7456 4.18963 66.5574C4.44182 66.3229 4.33082 66.6866 4.27387 67.4375C4.25471 67.6916 4.17126 68.9667 4.04819 69.7838C3.92511 70.6008 3.51494 72.4236 4.37648 72.3187C5.23802 72.2139 5.44297 67.2908 5.58652 66.9346C5.73006 66.5784 5.85314 66.7253 5.771 67.605C5.74502 67.8832 5.29916 71.1873 5.46344 71.8577C5.62745 72.5281 6.26331 72.4233 6.46852 71.5644C6.67374 70.7056 6.87869 67.2278 7.02224 66.9764C7.16579 66.725 7.20672 67.186 7.16579 67.8144C7.13561 68.2743 6.8787 70.7892 7.371 70.894C7.86331 70.9988 8.06328 70.6898 8.19974 68.8515C8.3194 67.2418 8.33489 66.3478 8.41703 65.3214C8.49917 64.2948 8.60151 61.2781 8.10946 60.3563C8.10946 60.3563 8.72485 57.2557 9.9963 54.5741C11.268 51.8924 13.1548 47.1996 13.0727 44.8951C13.0045 42.9815 14.5769 36.33 15.1592 34.0807C15.2143 34.6415 15.2949 35.2355 15.4109 35.8448C15.9851 38.8615 16.8466 42.5068 16.7235 44.7694C16.6005 47.0321 16.3543 50.4677 16.1082 51.8085C15.862 53.1493 14.3853 58.3448 14.4263 64.7556C14.4672 71.1664 15.3288 78.729 15.7389 80.3213C16.1491 81.9135 16.2672 83.4915 16.1444 84.5809C16.0213 85.6703 15.7801 88.0935 16.0263 89.7278C16.0263 89.7278 15.0419 94.0017 15.8211 99.8257C16.6005 105.65 17.995 112.061 17.995 112.731C17.995 112.79 17.995 112.882 17.995 112.997C17.9281 113.31 17.8535 113.621 17.7864 113.933C17.705 114.311 17.6504 114.689 17.6402 115.077C17.6302 115.46 17.6512 115.842 17.6578 116.225C17.6622 116.493 17.6552 116.761 17.6297 117.028C17.4413 117.418 17.214 117.794 16.981 118.154C16.6648 118.642 16.3071 119.1 15.9434 119.552C15.5762 120.008 15.2015 120.457 14.8514 120.927C14.6774 121.16 14.5095 121.399 14.352 121.644C14.1877 121.9 14.0022 122.169 13.9437 122.475C13.8896 122.757 13.9681 123.042 14.231 123.176C14.2835 123.203 14.3392 123.22 14.3951 123.227C14.388 123.313 14.3932 123.402 14.4174 123.493C14.5066 123.827 14.8391 124.067 15.1737 124.076C15.2191 124.236 15.3335 124.357 15.5111 124.408C15.7287 124.472 15.9649 124.405 16.1591 124.29C16.1688 124.341 16.1848 124.391 16.2089 124.439C16.3302 124.681 16.6007 124.785 16.855 124.777C17.1558 124.767 17.4106 124.587 17.6108 124.37C17.7145 124.258 17.8084 124.138 17.9024 124.018C17.863 124.179 17.8593 124.348 17.9181 124.505C18.0275 124.798 18.3393 124.946 18.6259 124.988C18.8977 125.027 19.1728 124.971 19.4173 124.847C19.511 124.799 19.6073 124.737 19.6966 124.666C19.864 124.582 20.0164 124.46 20.1469 124.328C20.4363 124.034 20.636 123.669 20.7864 123.285C21.1197 122.435 21.227 121.511 21.401 120.619C21.4338 120.451 21.4679 120.282 21.5054 120.113C21.527 120.128 21.5613 120.126 21.5907 120.096C21.9639 119.709 22.1077 119.084 22.1523 118.56C22.2069 117.918 22.1114 117.278 21.9949 116.649C21.8715 115.981 21.7495 115.315 21.6721 114.639C21.5949 113.964 21.5524 113.286 21.5209 112.607C21.5036 112.234 21.4879 111.861 21.4724 111.488C21.4713 111.461 21.4698 111.433 21.4684 111.406C21.5432 110.37 21.6296 109.361 21.7277 108.498C22.1379 104.895 23.5736 98.9034 23.2044 95.8028C22.8351 92.7022 23.2849 84.7833 23.6762 82.5206C24.0672 80.258 25.9527 67.5206 25.5426 63.8753L26.0002 63.8327L26.4579 63.8753C26.0477 67.5206 27.9333 80.258 28.3243 82.5206C28.7153 84.7833 29.1651 92.7022 28.7961 95.8028C28.4269 98.9034 29.8626 104.895 30.2728 108.498C30.3709 109.361 30.4573 110.37 30.5321 111.406C30.5307 111.433 30.5292 111.461 30.5281 111.488C30.5124 111.861 30.4969 112.234 30.4796 112.607C30.4481 113.286 30.4056 113.964 30.3284 114.639C30.2513 115.315 30.1292 115.981 30.0056 116.649C29.8894 117.278 29.7936 117.918 29.8482 118.56C29.8928 119.084 30.0366 119.71 30.4098 120.096C30.4392 120.126 30.4733 120.128 30.4951 120.113C30.5326 120.282 30.5667 120.451 30.5995 120.619C30.7735 121.511 30.8808 122.435 31.2141 123.285C31.3647 123.669 31.5642 124.034 31.8536 124.328C31.984 124.46 32.1365 124.582 32.3039 124.666C32.3932 124.737 32.4892 124.799 32.5832 124.847C32.8277 124.971 33.1025 125.027 33.3746 124.988C33.6612 124.946 33.9727 124.798 34.0824 124.505C34.1412 124.348 34.1375 124.179 34.0981 124.018C34.1921 124.138 34.286 124.258 34.3897 124.37C34.5899 124.587 34.8447 124.767 35.1455 124.777C35.3998 124.785 35.6703 124.681 35.7916 124.439C35.8154 124.391 35.8315 124.341 35.8414 124.29C36.0356 124.405 36.2718 124.472 36.4893 124.408C36.667 124.357 36.7817 124.236 36.8268 124.076C37.1614 124.067 37.4942 123.827 37.5831 123.493C37.6075 123.402 37.6125 123.313 37.6054 123.227C37.6613 123.219 37.717 123.203 37.7695 123.176C38.0324 123.042 38.1109 122.757 38.0568 122.475C37.9983 122.169 37.8128 121.9 37.6485 121.644C37.491 121.399 37.3231 121.16 37.1491 120.927C36.799 120.457 36.4243 120.007 36.0571 119.552C35.6934 119.1 35.336 118.642 35.0195 118.154C34.7865 117.794 34.5592 117.418 34.3708 117.028C34.3456 116.761 34.3383 116.493 34.3427 116.225C34.3493 115.842 34.3703 115.46 34.3603 115.077C34.3501 114.69 34.2955 114.312 34.2144 113.933C34.1472 113.621 34.0729 113.31 34.0058 112.997C34.0058 112.882 34.0058 112.79 34.0058 112.731C34.0058 112.06 35.4006 105.65 36.1797 99.8257C36.9591 94.0017 35.9747 89.7278 35.9747 89.7278C36.2209 88.0938 35.9795 85.6703 35.8566 84.5809C35.7336 83.4915 35.8517 81.9135 36.2618 80.3213C36.672 78.729 37.5335 71.1661 37.5745 64.7556C37.6154 58.3451 36.1388 53.1493 35.8926 51.8085C35.6464 50.4677 35.4003 47.0321 35.2772 44.7694C35.1541 42.5068 36.0157 38.8615 36.5899 35.8448C36.7059 35.2352 36.7864 34.6415 36.8415 34.0807C37.4238 36.33 38.9963 42.9815 38.9281 44.8951C38.8459 47.1996 40.733 51.8924 42.0045 54.5741C43.2759 57.2557 43.8913 60.3563 43.8913 60.3563C43.399 61.2781 43.5016 64.2948 43.5837 65.3214C43.6659 66.3481 43.6814 67.2418 43.801 68.8515C43.9377 70.6898 44.1377 70.9988 44.6298 70.894C45.1221 70.7892 44.8652 68.2743 44.835 67.8144C44.7938 67.1858 44.835 66.725 44.9785 66.9764C45.1221 67.2278 45.3273 70.7056 45.5322 71.5644C45.7374 72.4233 46.373 72.5281 46.5373 71.8577C46.7013 71.1873 46.2557 67.8832 46.2298 67.605C46.1476 66.725 46.2707 66.5784 46.4142 66.9346C46.5578 67.2908 46.763 72.2139 47.6243 72.3187C48.4856 72.4236 48.0754 70.6008 47.9523 69.7838C47.8292 68.9667 47.746 67.6916 47.7266 67.4375C47.6697 66.6866 47.5587 66.3232 47.8109 66.5574C48.0132 66.7456 48.6496 69.8674 48.7522 70.5169C48.8548 71.1664 49.0143 72.0094 49.6342 71.8368C50.1981 71.6797 49.7888 70.1612 49.6709 69.0509C49.5646 68.05 49.1831 64.7558 49.1831 64.7558C49.1831 64.7558 49.3883 64.8816 49.6754 65.3844C49.9625 65.8873 50.6752 66.7303 51.3827 67.0761C52.0965 67.4251 52.1514 66.6832 51.7514 66.1806Z" stroke="black" stroke-width="2" mask="url(#path-1-inside-1_63_977)"/>
</svg>
