<svg width="541" height="190" viewBox="0 0 541 190" fill="none" xmlns="http://www.w3.org/2000/svg">
<mask id="path-1-outside-1_131_104" maskUnits="userSpaceOnUse" x="-0.462891" y="-0.799995" width="541" height="191" fill="black">
<rect fill="white" x="-0.462891" y="-0.799995" width="541" height="191"/>
<path d="M140.739 71.42H157.119C157.119 75.84 158.289 79.2633 160.629 81.69C163.055 84.03 166.479 85.2 170.899 85.2C175.319 85.2 178.742 84.03 181.169 81.69C183.595 79.2633 184.809 75.84 184.809 71.42V56.34H157.509V41.65H184.809V30.08C184.809 25.66 183.595 22.28 181.169 19.94C178.742 17.5133 175.319 16.3 170.899 16.3C166.479 16.3 163.055 17.5133 160.629 19.94C158.289 22.28 157.119 25.66 157.119 30.08H140.739C140.739 24.36 141.995 19.42 144.509 15.26C147.022 11.0133 150.532 7.76333 155.039 5.51C159.545 3.17 164.832 2 170.899 2C177.052 2 182.382 3.17 186.889 5.51C191.395 7.76333 194.862 11.0133 197.289 15.26C199.802 19.42 201.059 24.36 201.059 30.08V71.42C201.059 77.14 199.802 82.1233 197.289 86.37C194.862 90.53 191.395 93.78 186.889 96.12C182.382 98.3733 177.052 99.5 170.899 99.5C164.832 99.5 159.545 98.3733 155.039 96.12C150.532 93.78 147.022 90.53 144.509 86.37C141.995 82.1233 140.739 77.14 140.739 71.42ZM213.618 98.2C211.451 98.2 210.368 97.1167 210.368 94.95V6.55C210.368 4.38333 211.451 3.3 213.618 3.3H223.498C225.578 3.3 226.618 4.38333 226.618 6.55V42.04H237.798L254.828 5.64C255.521 4.08 256.735 3.3 258.468 3.3H269.258C270.471 3.3 271.295 3.69 271.728 4.47C272.248 5.16333 272.248 6.03 271.728 7.07L252.098 48.54L272.768 94.43C273.288 95.47 273.288 96.38 272.768 97.16C272.335 97.8533 271.511 98.2 270.298 98.2H259.118C257.298 98.2 256.041 97.3767 255.348 95.73L237.668 56.21H226.618V94.95C226.618 97.1167 225.578 98.2 223.498 98.2H213.618ZM305.867 99.5C299.887 99.5 294.557 98.46 289.877 96.38C285.197 94.3 281.427 91.44 278.567 87.8C275.707 84.0733 273.974 79.74 273.367 74.8C273.28 73.6733 273.497 72.85 274.017 72.33C274.624 71.7233 275.447 71.42 276.487 71.42H286.237C287.97 71.42 289.097 72.4167 289.617 74.41C290.397 77.79 292.217 80.4767 295.077 82.47C298.024 84.4633 301.62 85.46 305.867 85.46C310.894 85.46 314.924 84.1167 317.957 81.43C321.077 78.6567 322.637 75.06 322.637 70.64C322.637 66.22 321.077 62.6667 317.957 59.98C314.924 57.2067 310.894 55.82 305.867 55.82H298.197C296.117 55.82 295.077 54.7367 295.077 52.57V45.29C295.077 43.1233 296.117 42.04 298.197 42.04H306.127C310.287 42.04 313.667 40.8267 316.267 38.4C318.867 35.8867 320.167 32.68 320.167 28.78C320.167 24.88 318.867 21.76 316.267 19.42C313.667 16.9933 310.33 15.78 306.257 15.78C302.53 15.78 299.367 16.82 296.767 18.9C294.254 20.8933 292.694 23.6233 292.087 27.09C291.74 29.0833 290.657 30.08 288.837 30.08H279.087C276.747 30.08 275.707 28.9967 275.967 26.83C276.487 21.89 278.09 17.5567 280.777 13.83C283.464 10.1033 286.974 7.2 291.307 5.12C295.727 3.04 300.754 2 306.387 2C312.28 2 317.48 3.08334 321.987 5.25C326.494 7.33 330.004 10.2767 332.517 14.09C335.117 17.9033 336.417 22.3233 336.417 27.35C336.417 32.4633 334.987 36.9267 332.127 40.74C329.354 44.5533 325.757 46.8933 321.337 47.76V48.15C326.624 49.19 330.914 51.92 334.207 56.34C337.5 60.6733 339.147 65.7867 339.147 71.68C339.147 77.2267 337.717 82.08 334.857 86.24C332.084 90.4 328.184 93.65 323.157 95.99C318.217 98.33 312.454 99.5 305.867 99.5ZM374.586 99.5C365.486 99.5 358.25 96.9 352.876 91.7C347.59 86.5 344.946 79.3067 344.946 70.12V31.38C344.946 22.1933 347.59 15 352.876 9.8C358.25 4.6 365.486 2 374.586 2C383.686 2 390.88 4.6 396.166 9.8C401.54 15 404.226 22.15 404.226 31.25V70.12C404.226 79.3067 401.54 86.5 396.166 91.7C390.88 96.9 383.686 99.5 374.586 99.5ZM374.586 85.2C379.006 85.2 382.343 84.03 384.596 81.69C386.85 79.2633 387.976 75.84 387.976 71.42V30.08C387.976 25.66 386.85 22.28 384.596 19.94C382.343 17.5133 379.006 16.3 374.586 16.3C370.166 16.3 366.83 17.5133 364.576 19.94C362.323 22.28 361.196 25.66 361.196 30.08V71.42C361.196 75.84 362.323 79.2633 364.576 81.69C366.83 84.03 370.166 85.2 374.586 85.2ZM31.6402 187.5C22.5402 187.5 15.3036 184.9 9.93023 179.7C4.64356 174.5 2.00023 167.307 2.00023 158.12V119.38C2.00023 110.193 4.64356 103 9.93023 97.8C15.3036 92.6 22.5402 90 31.6402 90C40.7402 90 47.9336 92.6 53.2202 97.8C58.5936 103 61.2802 110.15 61.2802 119.25V158.12C61.2802 167.307 58.5936 174.5 53.2202 179.7C47.9336 184.9 40.7402 187.5 31.6402 187.5ZM31.6402 173.2C36.0602 173.2 39.3969 172.03 41.6502 169.69C43.9036 167.263 45.0302 163.84 45.0302 159.42V118.08C45.0302 113.66 43.9036 110.28 41.6502 107.94C39.3969 105.513 36.0602 104.3 31.6402 104.3C27.2202 104.3 23.8836 105.513 21.6302 107.94C19.3769 110.28 18.2502 113.66 18.2502 118.08V159.42C18.2502 163.84 19.3769 167.263 21.6302 169.69C23.8836 172.03 27.2202 173.2 31.6402 173.2ZM70.3294 186.2V91.3H127.269V105.99H86.1894V128.61H100.099C106.426 128.61 111.929 129.823 116.609 132.25C121.289 134.59 124.929 137.927 127.529 142.26C130.129 146.507 131.429 151.49 131.429 157.21C131.429 162.93 130.129 167.957 127.529 172.29C124.929 176.623 121.289 180.047 116.609 182.56C112.016 184.987 106.556 186.2 100.229 186.2H70.3294ZM86.1894 171.9H100.229C104.736 171.9 108.289 170.557 110.889 167.87C113.576 165.183 114.919 161.63 114.919 157.21C114.919 152.703 113.576 149.15 110.889 146.55C108.289 143.863 104.736 142.52 100.229 142.52H86.1894V171.9ZM166.739 187.5C157.639 187.5 150.402 184.9 145.029 179.7C139.742 174.5 137.099 167.307 137.099 158.12V119.38C137.099 110.193 139.742 103 145.029 97.8C150.402 92.6 157.639 90 166.739 90C175.839 90 183.032 92.6 188.319 97.8C193.692 103 196.379 110.15 196.379 119.25V158.12C196.379 167.307 193.692 174.5 188.319 179.7C183.032 184.9 175.839 187.5 166.739 187.5ZM166.739 173.2C171.159 173.2 174.495 172.03 176.749 169.69C179.002 167.263 180.129 163.84 180.129 159.42V118.08C180.129 113.66 179.002 110.28 176.749 107.94C174.495 105.513 171.159 104.3 166.739 104.3C162.319 104.3 158.982 105.513 156.729 107.94C154.475 110.28 153.349 113.66 153.349 118.08V159.42C153.349 163.84 154.475 167.263 156.729 169.69C158.982 172.03 162.319 173.2 166.739 173.2ZM197.498 186.85V172.03H200.748C206.728 172.03 209.805 166.353 209.978 155L211.018 91.3H263.148V186.2H246.898V105.99H227.008L226.098 155C225.925 165.313 223.715 173.2 219.468 178.66C215.308 184.12 209.415 186.85 201.788 186.85H197.498ZM301.837 187.5C292.737 187.5 285.5 184.9 280.127 179.7C274.84 174.5 272.197 167.307 272.197 158.12V119.38C272.197 110.193 274.84 103 280.127 97.8C285.5 92.6 292.737 90 301.837 90C310.937 90 318.13 92.6 323.417 97.8C328.79 103 331.477 110.15 331.477 119.25V158.12C331.477 167.307 328.79 174.5 323.417 179.7C318.13 184.9 310.937 187.5 301.837 187.5ZM301.837 173.2C306.257 173.2 309.594 172.03 311.847 169.69C314.1 167.263 315.227 163.84 315.227 159.42V118.08C315.227 113.66 314.1 110.28 311.847 107.94C309.594 105.513 306.257 104.3 301.837 104.3C297.417 104.3 294.08 105.513 291.827 107.94C289.574 110.28 288.447 113.66 288.447 118.08V159.42C288.447 163.84 289.574 167.263 291.827 169.69C294.08 172.03 297.417 173.2 301.837 173.2ZM381.736 186.2V152.53H365.746C357.08 152.53 350.32 150.363 345.466 146.03C340.613 141.61 338.186 135.5 338.186 127.7V91.3H354.436V126.92C354.436 130.387 355.606 133.117 357.946 135.11C360.373 137.017 363.623 137.97 367.696 137.97H381.736V91.3H397.986V186.2H381.736ZM411.066 186.2C408.899 186.2 407.816 185.117 407.816 182.95V94.55C407.816 92.3833 408.899 91.3 411.066 91.3H420.946C423.026 91.3 424.066 92.3833 424.066 94.55V130.04H435.246L452.276 93.64C452.969 92.08 454.182 91.3 455.916 91.3H466.706C467.919 91.3 468.742 91.69 469.176 92.47C469.696 93.1633 469.696 94.03 469.176 95.07L449.546 136.54L470.216 182.43C470.736 183.47 470.736 184.38 470.216 185.16C469.782 185.853 468.959 186.2 467.746 186.2H456.566C454.746 186.2 453.489 185.377 452.796 183.73L435.116 144.21H424.066V182.95C424.066 185.117 423.026 186.2 420.946 186.2H411.066ZM473.805 186.2C471.378 186.2 470.468 185.03 471.075 182.69L493.305 94.03C493.738 92.21 494.908 91.3 496.815 91.3H512.025C513.931 91.3 515.101 92.21 515.535 94.03L537.895 182.69C538.501 185.03 537.591 186.2 535.165 186.2H525.155C523.248 186.2 522.121 185.247 521.775 183.34L517.095 163.19H491.875L487.325 183.34C486.891 185.247 485.721 186.2 483.815 186.2H473.805ZM494.865 149.93H514.105L508.385 124.45C507.951 122.63 507.561 120.94 507.215 119.38C506.955 117.82 506.695 116.347 506.435 114.96C506.088 113.4 505.481 112.447 504.615 112.1C503.748 111.667 503.185 112.1 502.925 113.4C502.665 115.047 502.318 116.78 501.885 118.6C501.538 120.42 501.105 122.327 500.585 124.32L494.865 149.93Z"/>
</mask>
<path d="M140.739 71.42V69.42H138.739V71.42H140.739ZM157.119 71.42H159.119V69.42H157.119V71.42ZM160.629 81.69L159.189 83.0783L159.214 83.1045L159.24 83.1297L160.629 81.69ZM181.169 81.69L182.557 83.1297L182.57 83.1171L182.583 83.1042L181.169 81.69ZM184.809 56.34H186.809V54.34H184.809V56.34ZM157.509 56.34H155.509V58.34H157.509V56.34ZM157.509 41.65V39.65H155.509V41.65H157.509ZM184.809 41.65V43.65H186.809V41.65H184.809ZM181.169 19.94L179.754 21.3542L179.767 21.3671L179.78 21.3797L181.169 19.94ZM160.629 19.94L159.214 18.5258L160.629 19.94ZM157.119 30.08V32.08H159.119V30.08H157.119ZM140.739 30.08H138.739V32.08H140.739V30.08ZM144.509 15.26L146.221 16.2942L146.225 16.2865L146.23 16.2786L144.509 15.26ZM155.039 5.50999L155.933 7.29885L155.947 7.29202L155.96 7.28499L155.039 5.50999ZM186.889 5.50999L185.967 7.28499L185.981 7.29202L185.994 7.29885L186.889 5.50999ZM197.289 15.26L195.552 16.2523L195.564 16.2734L195.577 16.2942L197.289 15.26ZM197.289 86.37L195.567 85.3513L195.561 85.3623L197.289 86.37ZM186.889 96.12L187.783 97.9089L187.797 97.902L187.81 97.895L186.889 96.12ZM155.039 96.12L154.117 97.895L154.131 97.902L154.144 97.9089L155.039 96.12ZM144.509 86.37L142.788 87.3886L142.792 87.3965L142.797 87.4042L144.509 86.37ZM140.739 71.42V73.42H157.119V71.42V69.42H140.739V71.42ZM157.119 71.42H155.119C155.119 76.1913 156.389 80.1741 159.189 83.0783L160.629 81.69L162.068 80.3017C160.189 78.3526 159.119 75.4887 159.119 71.42H157.119ZM160.629 81.69L159.24 83.1297C162.145 85.9302 166.127 87.2 170.899 87.2V85.2V83.2C166.83 83.2 163.966 82.1298 162.017 80.2503L160.629 81.69ZM170.899 85.2V87.2C175.67 87.2 179.653 85.9302 182.557 83.1297L181.169 81.69L179.78 80.2503C177.831 82.1298 174.967 83.2 170.899 83.2V85.2ZM181.169 81.69L182.583 83.1042C185.484 80.2029 186.809 76.2107 186.809 71.42H184.809H182.809C182.809 75.4693 181.706 78.3238 179.754 80.2758L181.169 81.69ZM184.809 71.42H186.809V56.34H184.809H182.809V71.42H184.809ZM184.809 56.34V54.34H157.509V56.34V58.34H184.809V56.34ZM157.509 56.34H159.509V41.65H157.509H155.509V56.34H157.509ZM157.509 41.65V43.65H184.809V41.65V39.65H157.509V41.65ZM184.809 41.65H186.809V30.08H184.809H182.809V41.65H184.809ZM184.809 30.08H186.809C186.809 25.2936 185.486 21.3244 182.557 18.5003L181.169 19.94L179.78 21.3797C181.705 23.2356 182.809 26.0264 182.809 30.08H184.809ZM181.169 19.94L182.583 18.5258C179.682 15.6245 175.689 14.3 170.899 14.3V16.3V18.3C174.948 18.3 177.802 19.4022 179.754 21.3542L181.169 19.94ZM170.899 16.3V14.3C166.108 14.3 162.116 15.6245 159.214 18.5258L160.629 19.94L162.043 21.3542C163.995 19.4022 166.849 18.3 170.899 18.3V16.3ZM160.629 19.94L159.214 18.5258C156.387 21.3534 155.119 25.3134 155.119 30.08H157.119H159.119C159.119 26.0066 160.191 23.2066 162.043 21.3542L160.629 19.94ZM157.119 30.08V28.08H140.739V30.08V32.08H157.119V30.08ZM140.739 30.08H142.739C142.739 24.6594 143.927 20.0907 146.221 16.2942L144.509 15.26L142.797 14.2258C140.064 18.7493 138.739 24.0606 138.739 30.08H140.739ZM144.509 15.26L146.23 16.2786C148.543 12.3701 151.763 9.38408 155.933 7.29885L155.039 5.50999L154.144 3.72115C149.301 6.14259 145.501 9.65652 142.788 14.2414L144.509 15.26ZM155.039 5.50999L155.96 7.28499C160.132 5.119 165.091 4 170.899 4V2V0C164.573 0 158.959 1.221 154.117 3.735L155.039 5.50999ZM170.899 2V4C176.798 4 181.799 5.12097 185.967 7.28499L186.889 5.50999L187.81 3.735C182.965 1.21903 177.306 0 170.899 0V2ZM186.889 5.50999L185.994 7.29885C190.159 9.38125 193.328 12.3592 195.552 16.2523L197.289 15.26L199.025 14.2677C196.396 9.66743 192.632 6.14542 187.783 3.72115L186.889 5.50999ZM197.289 15.26L195.577 16.2942C197.871 20.0907 199.059 24.6594 199.059 30.08H201.059H203.059C203.059 24.0606 201.733 18.7493 199.001 14.2258L197.289 15.26ZM201.059 30.08H199.059V71.42H201.059H203.059V30.08H201.059ZM201.059 71.42H199.059C199.059 76.8394 197.871 81.4594 195.568 85.3514L197.289 86.37L199.01 87.3886C201.733 82.7873 203.059 77.4406 203.059 71.42H201.059ZM197.289 86.37L195.561 85.3623C193.336 89.1773 190.157 92.1694 185.967 94.345L186.889 96.12L187.81 97.895C192.634 95.3906 196.388 91.8827 199.016 87.3777L197.289 86.37ZM186.889 96.12L185.994 94.3312C181.82 96.4183 176.809 97.5 170.899 97.5V99.5V101.5C177.295 101.5 182.944 100.328 187.783 97.9089L186.889 96.12ZM170.899 99.5V97.5C165.08 97.5 160.111 96.4201 155.933 94.3312L155.039 96.12L154.144 97.9089C158.98 100.327 164.584 101.5 170.899 101.5V99.5ZM155.039 96.12L155.96 94.345C151.765 92.1666 148.535 89.1664 146.221 85.3358L144.509 86.37L142.797 87.4042C145.509 91.8936 149.299 95.3934 154.117 97.895L155.039 96.12ZM144.509 86.37L146.23 85.3514C143.926 81.4594 142.739 76.8394 142.739 71.42H140.739H138.739C138.739 77.4406 140.064 82.7873 142.788 87.3886L144.509 86.37ZM226.618 42.04H224.618V44.04H226.618V42.04ZM237.798 42.04V44.04H239.07L239.609 42.8875L237.798 42.04ZM254.828 5.64L256.639 6.48754L256.648 6.46999L256.656 6.45228L254.828 5.64ZM271.728 4.47L269.98 5.44128L270.046 5.56071L270.128 5.67001L271.728 4.47ZM271.728 7.07L269.939 6.17558L269.929 6.19485L269.92 6.21432L271.728 7.07ZM252.098 48.54L250.29 47.6843L249.895 48.5192L250.274 49.3614L252.098 48.54ZM272.768 94.43L270.944 95.2514L270.961 95.2883L270.979 95.3244L272.768 94.43ZM272.768 97.16L271.104 96.0506L271.087 96.0751L271.072 96.1L272.768 97.16ZM255.348 95.73L257.191 94.9539L257.183 94.9335L257.174 94.9133L255.348 95.73ZM237.668 56.21L239.494 55.3933L238.964 54.21H237.668V56.21ZM226.618 56.21V54.21H224.618V56.21H226.618ZM213.618 98.2V96.2C212.843 96.2 212.629 96.0076 212.595 95.9733C212.56 95.939 212.368 95.7251 212.368 94.95H210.368H208.368C208.368 96.3416 208.717 97.7527 209.766 98.8017C210.815 99.8507 212.226 100.2 213.618 100.2V98.2ZM210.368 94.95H212.368V6.55H210.368H208.368V94.95H210.368ZM210.368 6.55H212.368C212.368 5.77496 212.56 5.56102 212.595 5.52672C212.629 5.49241 212.843 5.3 213.618 5.3V3.3V1.3C212.226 1.3 210.815 1.64926 209.766 2.69829C208.717 3.74731 208.368 5.15838 208.368 6.55H210.368ZM213.618 3.3V5.3H223.498V3.3V1.3H213.618V3.3ZM223.498 3.3V5.3C224.208 5.3 224.379 5.48074 224.395 5.49757C224.426 5.52962 224.618 5.755 224.618 6.55H226.618H228.618C228.618 5.17834 228.29 3.77872 227.281 2.72744C226.257 1.66093 224.867 1.3 223.498 1.3V3.3ZM226.618 6.55H224.618V42.04H226.618H228.618V6.55H226.618ZM226.618 42.04V44.04H237.798V42.04V40.04H226.618V42.04ZM237.798 42.04L239.609 42.8875L256.639 6.48754L254.828 5.64L253.016 4.79247L235.986 41.1925L237.798 42.04ZM254.828 5.64L256.656 6.45228C256.873 5.96228 257.117 5.7101 257.339 5.56736C257.563 5.42331 257.907 5.3 258.468 5.3V3.3V1.3C257.296 1.3 256.166 1.5667 255.176 2.20264C254.185 2.8399 253.476 3.75772 253 4.82773L254.828 5.64ZM258.468 3.3V5.3H269.258V3.3V1.3H258.468V3.3ZM269.258 3.3V5.3C269.662 5.3 269.859 5.3665 269.929 5.39998C269.946 5.40794 269.956 5.41407 269.961 5.41731C269.963 5.41899 269.965 5.42018 269.966 5.42085C269.966 5.42151 269.967 5.42185 269.967 5.42191C269.967 5.42197 269.967 5.42201 269.967 5.42212C269.967 5.42223 269.968 5.42269 269.968 5.42366C269.97 5.42538 269.974 5.43069 269.98 5.44128L271.728 4.47L273.476 3.49872C272.566 1.8605 270.9 1.3 269.258 1.3V3.3ZM271.728 4.47L270.128 5.67001C270.136 5.68073 270.13 5.6747 270.123 5.65495C270.116 5.63522 270.118 5.6266 270.118 5.64C270.118 5.67541 270.105 5.84277 269.939 6.17558L271.728 7.07L273.517 7.96442C274.24 6.517 274.459 4.77819 273.328 3.27L271.728 4.47ZM271.728 7.07L269.92 6.21432L250.29 47.6843L252.098 48.54L253.906 49.3957L273.536 7.92568L271.728 7.07ZM252.098 48.54L250.274 49.3614L270.944 95.2514L272.768 94.43L274.591 93.6086L253.921 47.7186L252.098 48.54ZM272.768 94.43L270.979 95.3244C271.138 95.6415 271.158 95.822 271.158 95.8925C271.158 95.9402 271.152 95.9786 271.104 96.0506L272.768 97.16L274.432 98.2694C275.451 96.7414 275.307 95.037 274.557 93.5356L272.768 94.43ZM272.768 97.16L271.072 96.1C271.094 96.0645 271.118 96.0679 271.049 96.0967C270.954 96.1367 270.728 96.2 270.298 96.2V98.2V100.2C271.842 100.2 273.508 99.7487 274.464 98.22L272.768 97.16ZM270.298 98.2V96.2H259.118V98.2V100.2H270.298V98.2ZM259.118 98.2V96.2C258.514 96.2 258.146 96.0664 257.906 95.9096C257.67 95.7544 257.413 95.4813 257.191 94.9539L255.348 95.73L253.505 96.5061C253.976 97.6254 254.694 98.5872 255.714 99.2554C256.732 99.9219 257.902 100.2 259.118 100.2V98.2ZM255.348 95.73L257.174 94.9133L239.494 55.3933L237.668 56.21L235.842 57.0267L253.522 96.5467L255.348 95.73ZM237.668 56.21V54.21H226.618V56.21V58.21H237.668V56.21ZM226.618 56.21H224.618V94.95H226.618H228.618V56.21H226.618ZM226.618 94.95H224.618C224.618 95.745 224.426 95.9704 224.395 96.0024C224.379 96.0193 224.208 96.2 223.498 96.2V98.2V100.2C224.867 100.2 226.257 99.8391 227.281 98.7726C228.29 97.7213 228.618 96.3217 228.618 94.95H226.618ZM223.498 98.2V96.2H213.618V98.2V100.2H223.498V98.2ZM289.877 96.38L289.065 98.2076L289.877 96.38ZM278.567 87.8L276.98 89.0176L276.987 89.0267L276.994 89.0356L278.567 87.8ZM273.367 74.8L271.373 74.9534L271.376 74.9987L271.382 75.0438L273.367 74.8ZM274.017 72.33L272.603 70.9158V70.9158L274.017 72.33ZM289.617 74.41L291.566 73.9603L291.56 73.9326L291.552 73.9052L289.617 74.41ZM295.077 82.47L293.934 84.1108L293.945 84.1188L293.956 84.1266L295.077 82.47ZM317.957 81.43L319.283 82.9272L319.286 82.9248L317.957 81.43ZM317.957 59.98L316.608 61.4561L316.63 61.4761L316.652 61.4955L317.957 59.98ZM316.267 38.4L317.632 39.8621L317.645 39.8502L317.657 39.838L316.267 38.4ZM316.267 19.42L314.902 20.8821L314.916 20.8945L314.929 20.9066L316.267 19.42ZM296.767 18.9L298.01 20.467L298.017 20.4617L296.767 18.9ZM292.087 27.09L290.117 26.7452L290.117 26.7473L292.087 27.09ZM275.967 26.83L277.953 27.0683L277.955 27.0538L277.956 27.0394L275.967 26.83ZM280.777 13.83L279.155 12.6604V12.6604L280.777 13.83ZM291.307 5.12L290.456 3.31036L290.449 3.31364L290.442 3.31696L291.307 5.12ZM321.987 5.25L321.121 7.05251L321.135 7.05933L321.149 7.06592L321.987 5.25ZM332.517 14.09L330.847 15.1906L330.856 15.2037L330.865 15.2167L332.517 14.09ZM332.127 40.74L330.527 39.54L330.518 39.5518L330.51 39.5637L332.127 40.74ZM321.337 47.76L320.952 45.7974L319.337 46.1141V47.76H321.337ZM321.337 48.15H319.337V49.7949L320.951 50.1124L321.337 48.15ZM334.207 56.34L332.603 57.535L332.609 57.5426L332.615 57.5502L334.207 56.34ZM334.857 86.24L333.209 85.1069L333.201 85.1187L333.193 85.1306L334.857 86.24ZM323.157 95.99L322.313 94.1768L322.301 94.1825L323.157 95.99ZM305.867 99.5V97.5C300.12 97.5 295.074 96.5013 290.689 94.5524L289.877 96.38L289.065 98.2076C294.04 100.419 299.654 101.5 305.867 101.5V99.5ZM289.877 96.38L290.689 94.5524C286.275 92.5905 282.778 89.9216 280.14 86.5644L278.567 87.8L276.994 89.0356C280.077 92.9584 284.119 96.0096 289.065 98.2076L289.877 96.38ZM278.567 87.8L280.154 86.5824C277.524 83.156 275.918 79.1638 275.352 74.5562L273.367 74.8L271.382 75.0438C272.03 80.3162 273.89 84.9907 276.98 89.0176L278.567 87.8ZM273.367 74.8L275.361 74.6466C275.295 73.7888 275.504 73.6716 275.431 73.7442L274.017 72.33L272.603 70.9158C271.49 72.0284 271.266 73.5579 271.373 74.9534L273.367 74.8ZM274.017 72.33L275.431 73.7442C275.586 73.5898 275.857 73.42 276.487 73.42V71.42V69.42C275.037 69.42 273.662 69.8569 272.603 70.9158L274.017 72.33ZM276.487 71.42V73.42H286.237V71.42V69.42H276.487V71.42ZM286.237 71.42V73.42C286.695 73.42 286.914 73.5395 287.057 73.6655C287.232 73.8199 287.486 74.1645 287.682 74.9148L289.617 74.41L291.552 73.9052C291.228 72.6622 290.659 71.5118 289.707 70.6695C288.723 69.7989 287.513 69.42 286.237 69.42V71.42ZM289.617 74.41L287.668 74.8597C288.56 78.7255 290.669 81.8355 293.934 84.1108L295.077 82.47L296.221 80.8292C293.765 79.1178 292.234 76.8545 291.566 73.9603L289.617 74.41ZM295.077 82.47L293.956 84.1266C297.294 86.3841 301.3 87.46 305.867 87.46V85.46V83.46C301.941 83.46 298.754 82.5425 296.198 80.8134L295.077 82.47ZM305.867 85.46V87.46C311.26 87.46 315.802 86.0106 319.283 82.9272L317.957 81.43L316.631 79.9328C314.046 82.2228 310.527 83.46 305.867 83.46V85.46ZM317.957 81.43L319.286 82.9248C322.86 79.7474 324.637 75.5932 324.637 70.64H322.637H320.637C320.637 74.5268 319.294 77.5659 316.628 79.9352L317.957 81.43ZM322.637 70.64H324.637C324.637 65.6863 322.859 61.5616 319.262 58.4645L317.957 59.98L316.652 61.4955C319.295 63.7717 320.637 66.7537 320.637 70.64H322.637ZM317.957 59.98L319.307 58.5039C315.827 55.3222 311.276 53.82 305.867 53.82V55.82V57.82C310.511 57.82 314.021 59.0911 316.608 61.4561L317.957 59.98ZM305.867 55.82V53.82H298.197V55.82V57.82H305.867V55.82ZM298.197 55.82V53.82C297.487 53.82 297.316 53.6393 297.3 53.6224C297.269 53.5904 297.077 53.365 297.077 52.57H295.077H293.077C293.077 53.9417 293.405 55.3413 294.414 56.3926C295.438 57.4591 296.828 57.82 298.197 57.82V55.82ZM295.077 52.57H297.077V45.29H295.077H293.077V52.57H295.077ZM295.077 45.29H297.077C297.077 44.495 297.269 44.2696 297.3 44.2376C297.316 44.2207 297.487 44.04 298.197 44.04V42.04V40.04C296.828 40.04 295.438 40.4009 294.414 41.4674C293.405 42.5187 293.077 43.9183 293.077 45.29H295.077ZM298.197 42.04V44.04H306.127V42.04V40.04H298.197V42.04ZM306.127 42.04V44.04C310.702 44.04 314.599 42.6923 317.632 39.8621L316.267 38.4L314.902 36.9379C312.735 38.961 309.872 40.04 306.127 40.04V42.04ZM316.267 38.4L317.657 39.838C320.68 36.9162 322.167 33.1749 322.167 28.78H320.167H318.167C318.167 32.1851 317.055 34.8572 314.877 36.962L316.267 38.4ZM320.167 28.78H322.167C322.167 24.3856 320.678 20.6987 317.605 17.9334L316.267 19.42L314.929 20.9066C317.057 22.8213 318.167 25.3744 318.167 28.78H320.167ZM316.267 19.42L317.632 17.9579C314.607 15.1351 310.758 13.78 306.257 13.78V15.78V17.78C309.903 17.78 312.727 18.8515 314.902 20.8821L316.267 19.42ZM306.257 15.78V13.78C302.134 13.78 298.515 14.9407 295.518 17.3383L296.767 18.9L298.017 20.4617C300.22 18.6993 302.927 17.78 306.257 17.78V15.78ZM296.767 18.9L295.524 17.333C292.589 19.6614 290.799 22.8465 290.117 26.7452L292.087 27.09L294.057 27.4348C294.588 24.4002 295.919 22.1253 298.01 20.467L296.767 18.9ZM292.087 27.09L290.117 26.7473C289.991 27.4701 289.776 27.7545 289.66 27.8606C289.57 27.9437 289.37 28.08 288.837 28.08V30.08V32.08C290.125 32.08 291.376 31.7179 292.369 30.8044C293.337 29.9138 293.837 28.7032 294.058 27.4327L292.087 27.09ZM288.837 30.08V28.08H279.087V30.08V32.08H288.837V30.08ZM279.087 30.08V28.08C278.647 28.08 278.36 28.028 278.186 27.9723C278.103 27.9455 278.052 27.9201 278.026 27.9044C278.013 27.8965 278.005 27.8906 278 27.8873C277.998 27.8855 277.997 27.8843 277.996 27.8836C277.995 27.8829 277.995 27.8825 277.995 27.8824C277.995 27.8824 277.995 27.8825 277.995 27.8828C277.995 27.883 277.995 27.8831 277.995 27.8831C277.995 27.883 277.995 27.8826 277.995 27.8817C277.994 27.8807 277.993 27.8791 277.992 27.8766C277.987 27.8679 277.974 27.8405 277.961 27.7851C277.933 27.6681 277.908 27.4426 277.953 27.0683L275.967 26.83L273.981 26.5917C273.813 27.9914 274.013 29.5101 275.109 30.6526C276.172 31.7597 277.67 32.08 279.087 32.08V30.08ZM275.967 26.83L277.956 27.0394C278.443 22.4169 279.933 18.4208 282.399 14.9996L280.777 13.83L279.155 12.6604C276.248 16.6925 274.532 21.3631 273.978 26.6206L275.967 26.83ZM280.777 13.83L282.399 14.9996C284.882 11.5567 288.126 8.86538 292.173 6.92305L291.307 5.12L290.442 3.31696C285.822 5.53462 282.046 8.64996 279.155 12.6604L280.777 13.83ZM291.307 5.12L292.159 6.92964C296.274 4.99284 301.003 4 306.387 4V2V0C300.504 0 295.18 1.08716 290.456 3.31036L291.307 5.12ZM306.387 2V4C312.034 4 316.928 5.03706 321.121 7.05251L321.987 5.25L322.854 3.44749C318.033 1.12961 312.527 0 306.387 0V2ZM321.987 5.25L321.149 7.06592C325.348 9.00375 328.557 11.7155 330.847 15.1906L332.517 14.09L334.187 12.9894C331.451 8.83784 327.64 5.65625 322.825 3.43408L321.987 5.25ZM332.517 14.09L330.865 15.2167C333.218 18.6682 334.417 22.6878 334.417 27.35H336.417H338.417C338.417 21.9589 337.016 17.1385 334.17 12.9633L332.517 14.09ZM336.417 27.35H334.417C334.417 32.064 333.108 36.0987 330.527 39.54L332.127 40.74L333.727 41.94C336.866 37.7546 338.417 32.8626 338.417 27.35H336.417ZM332.127 40.74L330.51 39.5637C328.018 42.9898 324.852 45.0327 320.952 45.7974L321.337 47.76L321.722 49.7226C326.662 48.7539 330.69 46.1169 333.745 41.9163L332.127 40.74ZM321.337 47.76H319.337V48.15H321.337H323.337V47.76H321.337ZM321.337 48.15L320.951 50.1124C325.738 51.0542 329.599 53.5029 332.603 57.535L334.207 56.34L335.811 55.145C332.228 50.3371 327.509 47.3258 321.723 46.1876L321.337 48.15ZM334.207 56.34L332.615 57.5502C335.621 61.5061 337.147 66.1853 337.147 71.68H339.147H341.147C341.147 65.388 339.38 59.8406 335.799 55.1298L334.207 56.34ZM339.147 71.68H337.147C337.147 76.8638 335.817 81.3132 333.209 85.1069L334.857 86.24L336.505 87.3731C339.617 82.8468 341.147 77.5895 341.147 71.68H339.147ZM334.857 86.24L333.193 85.1306C330.645 88.9527 327.044 91.9743 322.313 94.1768L323.157 95.99L324.001 97.8032C329.323 95.3257 333.523 91.8473 336.521 87.3494L334.857 86.24ZM323.157 95.99L322.301 94.1825C317.678 96.3724 312.217 97.5 305.867 97.5V99.5V101.5C312.69 101.5 318.756 100.288 324.013 97.7975L323.157 95.99ZM352.876 91.7L351.474 93.1259L351.48 93.1316L351.486 93.1372L352.876 91.7ZM352.876 9.8L351.486 8.3628L351.48 8.36845L351.474 8.37415L352.876 9.8ZM396.166 9.8L394.764 11.2259L394.77 11.2316L394.775 11.2372L396.166 9.8ZM396.166 91.7L394.775 90.2628L394.77 90.2685L394.764 90.2742L396.166 91.7ZM384.596 81.69L386.037 83.0773L386.05 83.0642L386.062 83.0509L384.596 81.69ZM384.596 19.94L383.131 21.3009L383.143 21.3142L383.156 21.3273L384.596 19.94ZM364.576 19.94L366.017 21.3273L366.03 21.3142L366.042 21.3009L364.576 19.94ZM364.576 81.69L363.111 83.0509L363.123 83.0642L363.136 83.0773L364.576 81.69ZM374.586 99.5V97.5C365.886 97.5 359.19 95.0265 354.267 90.2628L352.876 91.7L351.486 93.1372C357.31 98.7735 365.087 101.5 374.586 101.5V99.5ZM352.876 91.7L354.279 90.2742C349.462 85.5359 346.946 78.9065 346.946 70.12H344.946H342.946C342.946 79.7068 345.718 87.4641 351.474 93.1259L352.876 91.7ZM344.946 70.12H346.946V31.38H344.946H342.946V70.12H344.946ZM344.946 31.38H346.946C346.946 22.5935 349.462 15.9641 354.279 11.2259L352.876 9.8L351.474 8.37415C345.718 14.0359 342.946 21.7932 342.946 31.38H344.946ZM352.876 9.8L354.267 11.2372C359.19 6.47348 365.886 4 374.586 4V2V0C365.087 0 357.31 2.72652 351.486 8.3628L352.876 9.8ZM374.586 2V4C383.288 4 389.933 6.4738 394.764 11.2259L396.166 9.8L397.569 8.37415C391.827 2.7262 384.085 0 374.586 0V2ZM396.166 9.8L394.775 11.2372C399.677 15.981 402.226 22.5659 402.226 31.25H404.226H406.226C406.226 21.7341 403.402 14.019 397.557 8.3628L396.166 9.8ZM404.226 31.25H402.226V70.12H404.226H406.226V31.25H404.226ZM404.226 70.12H402.226C402.226 78.8971 399.674 85.5226 394.775 90.2628L396.166 91.7L397.557 93.1372C403.406 87.4774 406.226 79.7162 406.226 70.12H404.226ZM396.166 91.7L394.764 90.2742C389.933 95.0262 383.288 97.5 374.586 97.5V99.5V101.5C384.085 101.5 391.827 98.7738 397.569 93.1259L396.166 91.7ZM374.586 85.2V87.2C379.348 87.2 383.286 85.9338 386.037 83.0773L384.596 81.69L383.156 80.3027C381.4 82.1262 378.665 83.2 374.586 83.2V85.2ZM384.596 81.69L386.062 83.0509C388.76 80.1448 389.976 76.1722 389.976 71.42H387.976H385.976C385.976 75.5078 384.939 78.3819 383.131 80.3291L384.596 81.69ZM387.976 71.42H389.976V30.08H387.976H385.976V71.42H387.976ZM387.976 30.08H389.976C389.976 25.3329 388.762 21.383 386.037 18.5527L384.596 19.94L383.156 21.3273C384.937 23.177 385.976 25.9871 385.976 30.08H387.976ZM384.596 19.94L386.062 18.5791C383.315 15.6214 379.368 14.3 374.586 14.3V16.3V18.3C378.645 18.3 381.371 19.4053 383.131 21.3009L384.596 19.94ZM374.586 16.3V14.3C369.805 14.3 365.857 15.6214 363.111 18.5791L364.576 19.94L366.042 21.3009C367.802 19.4053 370.528 18.3 374.586 18.3V16.3ZM364.576 19.94L363.136 18.5527C360.41 21.383 359.196 25.3329 359.196 30.08H361.196H363.196C363.196 25.9871 364.236 23.177 366.017 21.3273L364.576 19.94ZM361.196 30.08H359.196V71.42H361.196H363.196V30.08H361.196ZM361.196 71.42H359.196C359.196 76.1722 360.412 80.1448 363.111 83.0509L364.576 81.69L366.042 80.3291C364.234 78.3819 363.196 75.5078 363.196 71.42H361.196ZM364.576 81.69L363.136 83.0773C365.886 85.9338 369.825 87.2 374.586 87.2V85.2V83.2C370.508 83.2 367.773 82.1262 366.017 80.3027L364.576 81.69ZM9.93023 179.7L8.52775 181.126L8.53355 181.132L8.53939 181.137L9.93023 179.7ZM9.93023 97.8L8.53939 96.3628L8.53355 96.3685L8.52775 96.3742L9.93023 97.8ZM53.2202 97.8L51.8177 99.2259L51.8235 99.2316L51.8294 99.2372L53.2202 97.8ZM53.2202 179.7L51.8294 178.263L51.8235 178.268L51.8177 178.274L53.2202 179.7ZM41.6502 169.69L43.0909 171.077L43.1035 171.064L43.1158 171.051L41.6502 169.69ZM41.6502 107.94L40.1846 109.301L40.197 109.314L40.2096 109.327L41.6502 107.94ZM21.6302 107.94L23.0709 109.327L23.0835 109.314L23.0958 109.301L21.6302 107.94ZM21.6302 169.69L20.1646 171.051L20.177 171.064L20.1896 171.077L21.6302 169.69ZM31.6402 187.5V185.5C22.9399 185.5 16.2436 183.027 11.3211 178.263L9.93023 179.7L8.53939 181.137C14.3635 186.773 22.1406 189.5 31.6402 189.5V187.5ZM9.93023 179.7L11.3327 178.274C6.51544 173.536 4.00023 166.907 4.00023 158.12H2.00023H0.000228882C0.000228882 167.707 2.77168 175.464 8.52775 181.126L9.93023 179.7ZM2.00023 158.12H4.00023V119.38H2.00023H0.000228882V158.12H2.00023ZM2.00023 119.38H4.00023C4.00023 110.593 6.51544 103.964 11.3327 99.2259L9.93023 97.8L8.52775 96.3742C2.77168 102.036 0.000228882 109.793 0.000228882 119.38H2.00023ZM9.93023 97.8L11.3211 99.2372C16.2436 94.4735 22.9399 92 31.6402 92V90V88C22.1406 88 14.3635 90.7265 8.53939 96.3628L9.93023 97.8ZM31.6402 90V92C40.3419 92 46.9865 94.4738 51.8177 99.2259L53.2202 97.8L54.6227 96.3742C48.8806 90.7262 41.1386 88 31.6402 88V90ZM53.2202 97.8L51.8294 99.2372C56.7313 103.981 59.2802 110.566 59.2802 119.25H61.2802H63.2802C63.2802 109.734 60.4558 102.019 54.6111 96.3628L53.2202 97.8ZM61.2802 119.25H59.2802V158.12H61.2802H63.2802V119.25H61.2802ZM61.2802 158.12H59.2802C59.2802 166.897 56.7276 173.523 51.8294 178.263L53.2202 179.7L54.6111 181.137C60.4595 175.477 63.2802 167.716 63.2802 158.12H61.2802ZM53.2202 179.7L51.8177 178.274C46.9865 183.026 40.3419 185.5 31.6402 185.5V187.5V189.5C41.1386 189.5 48.8806 186.774 54.6227 181.126L53.2202 179.7ZM31.6402 173.2V175.2C36.4015 175.2 40.3401 173.934 43.0909 171.077L41.6502 169.69L40.2096 168.303C38.4536 170.126 35.7189 171.2 31.6402 171.2V173.2ZM41.6502 169.69L43.1158 171.051C45.8144 168.145 47.0302 164.172 47.0302 159.42H45.0302H43.0302C43.0302 163.508 41.9927 166.382 40.1846 168.329L41.6502 169.69ZM45.0302 159.42H47.0302V118.08H45.0302H43.0302V159.42H45.0302ZM45.0302 118.08H47.0302C47.0302 113.333 45.8163 109.383 43.0909 106.553L41.6502 107.94L40.2096 109.327C41.9908 111.177 43.0302 113.987 43.0302 118.08H45.0302ZM41.6502 107.94L43.1158 106.579C40.3694 103.621 36.4218 102.3 31.6402 102.3V104.3V106.3C35.6986 106.3 38.4244 107.405 40.1846 109.301L41.6502 107.94ZM31.6402 104.3V102.3C26.8586 102.3 22.9111 103.621 20.1646 106.579L21.6302 107.94L23.0958 109.301C24.856 107.405 27.5818 106.3 31.6402 106.3V104.3ZM21.6302 107.94L20.1896 106.553C17.4641 109.383 16.2502 113.333 16.2502 118.08H18.2502H20.2502C20.2502 113.987 21.2897 111.177 23.0709 109.327L21.6302 107.94ZM18.2502 118.08H16.2502V159.42H18.2502H20.2502V118.08H18.2502ZM18.2502 159.42H16.2502C16.2502 164.172 17.4661 168.145 20.1646 171.051L21.6302 169.69L23.0958 168.329C21.2877 166.382 20.2502 163.508 20.2502 159.42H18.2502ZM21.6302 169.69L20.1896 171.077C22.9403 173.934 26.8789 175.2 31.6402 175.2V173.2V171.2C27.5615 171.2 24.8268 170.126 23.0709 168.303L21.6302 169.69ZM70.3294 186.2H68.3294V188.2H70.3294V186.2ZM70.3294 91.3V89.3H68.3294V91.3H70.3294ZM127.269 91.3H129.269V89.3H127.269V91.3ZM127.269 105.99V107.99H129.269V105.99H127.269ZM86.1895 105.99V103.99H84.1894V105.99H86.1895ZM86.1895 128.61H84.1894V130.61H86.1895V128.61ZM116.609 132.25L115.689 134.026L115.702 134.032L115.715 134.039L116.609 132.25ZM127.529 142.26L125.814 143.289L125.819 143.297L125.824 143.304L127.529 142.26ZM127.529 172.29L125.814 171.261V171.261L127.529 172.29ZM116.609 182.56L117.544 184.328L117.556 184.322L116.609 182.56ZM86.1895 171.9H84.1894V173.9H86.1895V171.9ZM110.889 167.87L109.475 166.456L109.464 166.467L109.452 166.479L110.889 167.87ZM110.889 146.55L109.452 147.941L109.475 147.964L109.499 147.987L110.889 146.55ZM86.1895 142.52V140.52H84.1894V142.52H86.1895ZM70.3294 186.2H72.3294V91.3H70.3294H68.3294V186.2H70.3294ZM70.3294 91.3V93.3H127.269V91.3V89.3H70.3294V91.3ZM127.269 91.3H125.269V105.99H127.269H129.269V91.3H127.269ZM127.269 105.99V103.99H86.1895V105.99V107.99H127.269V105.99ZM86.1895 105.99H84.1894V128.61H86.1895H88.1895V105.99H86.1895ZM86.1895 128.61V130.61H100.099V128.61V126.61H86.1895V128.61ZM100.099 128.61V130.61C106.169 130.61 111.345 131.773 115.689 134.026L116.609 132.25L117.53 130.474C112.514 127.874 106.683 126.61 100.099 126.61V128.61ZM116.609 132.25L115.715 134.039C120.068 136.215 123.417 139.294 125.814 143.289L127.529 142.26L129.244 141.231C126.442 136.56 122.511 132.965 117.504 130.461L116.609 132.25ZM127.529 142.26L125.824 143.304C128.204 147.192 129.429 151.803 129.429 157.21H131.429H133.429C133.429 151.177 132.055 145.821 129.235 141.216L127.529 142.26ZM131.429 157.21H129.429C129.429 162.616 128.204 167.278 125.814 171.261L127.529 172.29L129.244 173.319C132.055 168.635 133.429 163.244 133.429 157.21H131.429ZM127.529 172.29L125.814 171.261C123.41 175.269 120.043 178.446 115.663 180.798L116.609 182.56L117.556 184.322C122.536 181.647 126.449 177.978 129.244 173.319L127.529 172.29ZM116.609 182.56L115.675 180.792C111.426 183.036 106.301 184.2 100.229 184.2V186.2V188.2C106.812 188.2 112.606 186.937 117.544 184.328L116.609 182.56ZM100.229 186.2V184.2H70.3294V186.2V188.2H100.229V186.2ZM86.1895 171.9V173.9H100.229V171.9V169.9H86.1895V171.9ZM100.229 171.9V173.9C105.158 173.9 109.274 172.415 112.327 169.261L110.889 167.87L109.452 166.479C107.305 168.698 104.314 169.9 100.229 169.9V171.9ZM110.889 167.87L112.304 169.284C115.427 166.161 116.919 162.067 116.919 157.21H114.919H112.919C112.919 161.193 111.725 164.206 109.475 166.456L110.889 167.87ZM114.919 157.21H116.919C116.919 152.281 115.435 148.165 112.28 145.113L110.889 146.55L109.499 147.987C111.718 150.135 112.919 153.126 112.919 157.21H114.919ZM110.889 146.55L112.327 145.159C109.274 142.005 105.158 140.52 100.229 140.52V142.52V144.52C104.314 144.52 107.305 145.722 109.452 147.941L110.889 146.55ZM100.229 142.52V140.52H86.1895V142.52V144.52H100.229V142.52ZM86.1895 142.52H84.1894V171.9H86.1895H88.1895V142.52H86.1895ZM145.029 179.7L143.626 181.126L143.632 181.132L143.638 181.137L145.029 179.7ZM145.029 97.8L143.638 96.3628L143.632 96.3685L143.626 96.3742L145.029 97.8ZM188.319 97.8L186.916 99.2259L186.922 99.2316L186.928 99.2372L188.319 97.8ZM188.319 179.7L186.928 178.263L186.922 178.268L186.916 178.274L188.319 179.7ZM176.749 169.69L178.189 171.077L178.202 171.064L178.214 171.051L176.749 169.69ZM176.749 107.94L175.283 109.301L175.295 109.314L175.308 109.327L176.749 107.94ZM156.729 107.94L158.169 109.327L158.182 109.314L158.194 109.301L156.729 107.94ZM156.729 169.69L155.263 171.051L155.275 171.064L155.288 171.077L156.729 169.69ZM166.739 187.5V185.5C158.038 185.5 151.342 183.027 146.42 178.263L145.029 179.7L143.638 181.137C149.462 186.773 157.239 189.5 166.739 189.5V187.5ZM145.029 179.7L146.431 178.274C141.614 173.536 139.099 166.907 139.099 158.12H137.099H135.099C135.099 167.707 137.87 175.464 143.626 181.126L145.029 179.7ZM137.099 158.12H139.099V119.38H137.099H135.099V158.12H137.099ZM137.099 119.38H139.099C139.099 110.593 141.614 103.964 146.431 99.2259L145.029 97.8L143.626 96.3742C137.87 102.036 135.099 109.793 135.099 119.38H137.099ZM145.029 97.8L146.42 99.2372C151.342 94.4735 158.038 92 166.739 92V90V88C157.239 88 149.462 90.7265 143.638 96.3628L145.029 97.8ZM166.739 90V92C175.44 92 182.085 94.4738 186.916 99.2259L188.319 97.8L189.721 96.3742C183.979 90.7262 176.237 88 166.739 88V90ZM188.319 97.8L186.928 99.2372C191.83 103.981 194.379 110.566 194.379 119.25H196.379H198.379C198.379 109.734 195.554 102.019 189.71 96.3628L188.319 97.8ZM196.379 119.25H194.379V158.12H196.379H198.379V119.25H196.379ZM196.379 158.12H194.379C194.379 166.897 191.826 173.523 186.928 178.263L188.319 179.7L189.71 181.137C195.558 175.477 198.379 167.716 198.379 158.12H196.379ZM188.319 179.7L186.916 178.274C182.085 183.026 175.44 185.5 166.739 185.5V187.5V189.5C176.237 189.5 183.979 186.774 189.721 181.126L188.319 179.7ZM166.739 173.2V175.2C171.5 175.2 175.439 173.934 178.189 171.077L176.749 169.69L175.308 168.303C173.552 170.126 170.817 171.2 166.739 171.2V173.2ZM176.749 169.69L178.214 171.051C180.913 168.145 182.129 164.172 182.129 159.42H180.129H178.129C178.129 163.508 177.091 166.382 175.283 168.329L176.749 169.69ZM180.129 159.42H182.129V118.08H180.129H178.129V159.42H180.129ZM180.129 118.08H182.129C182.129 113.333 180.915 109.383 178.189 106.553L176.749 107.94L175.308 109.327C177.089 111.177 178.129 113.987 178.129 118.08H180.129ZM176.749 107.94L178.214 106.579C175.468 103.621 171.52 102.3 166.739 102.3V104.3V106.3C170.797 106.3 173.523 107.405 175.283 109.301L176.749 107.94ZM166.739 104.3V102.3C161.957 102.3 158.01 103.621 155.263 106.579L156.729 107.94L158.194 109.301C159.954 107.405 162.68 106.3 166.739 106.3V104.3ZM156.729 107.94L155.288 106.553C152.563 109.383 151.349 113.333 151.349 118.08H153.349H155.349C155.349 113.987 156.388 111.177 158.169 109.327L156.729 107.94ZM153.349 118.08H151.349V159.42H153.349H155.349V118.08H153.349ZM153.349 159.42H151.349C151.349 164.172 152.565 168.145 155.263 171.051L156.729 169.69L158.194 168.329C156.386 166.382 155.349 163.508 155.349 159.42H153.349ZM156.729 169.69L155.288 171.077C158.039 173.934 161.977 175.2 166.739 175.2V173.2V171.2C162.66 171.2 159.925 170.126 158.169 168.303L156.729 169.69ZM197.498 186.85H195.498V188.85H197.498V186.85ZM197.498 172.03V170.03H195.498V172.03H197.498ZM209.978 155L207.978 154.967L207.978 154.969L209.978 155ZM211.018 91.3V89.3H209.05L209.018 91.2674L211.018 91.3ZM263.148 91.3H265.148V89.3H263.148V91.3ZM263.148 186.2V188.2H265.148V186.2H263.148ZM246.898 186.2H244.898V188.2H246.898V186.2ZM246.898 105.99H248.898V103.99H246.898V105.99ZM227.008 105.99V103.99H225.045L225.008 105.953L227.008 105.99ZM226.098 155L224.098 154.963L224.098 154.966L226.098 155ZM219.468 178.66L217.889 177.432L217.883 177.44L217.877 177.448L219.468 178.66ZM197.498 186.85H199.498V172.03H197.498H195.498V186.85H197.498ZM197.498 172.03V174.03H200.748V172.03V170.03H197.498V172.03ZM200.748 172.03V174.03C202.573 174.03 204.263 173.592 205.751 172.66C207.23 171.733 208.399 170.385 209.299 168.726C211.067 165.463 211.889 160.819 211.978 155.031L209.978 155L207.978 154.969C207.893 160.534 207.091 164.405 205.782 166.82C205.143 167.998 204.411 168.779 203.626 169.271C202.849 169.758 201.913 170.03 200.748 170.03V172.03ZM209.978 155L211.978 155.033L213.018 91.3326L211.018 91.3L209.018 91.2674L207.978 154.967L209.978 155ZM211.018 91.3V93.3H263.148V91.3V89.3H211.018V91.3ZM263.148 91.3H261.148V186.2H263.148H265.148V91.3H263.148ZM263.148 186.2V184.2H246.898V186.2V188.2H263.148V186.2ZM246.898 186.2H248.898V105.99H246.898H244.898V186.2H246.898ZM246.898 105.99V103.99H227.008V105.99V107.99H246.898V105.99ZM227.008 105.99L225.008 105.953L224.098 154.963L226.098 155L228.098 155.037L229.008 106.027L227.008 105.99ZM226.098 155L224.098 154.966C223.929 165.049 221.768 172.445 217.889 177.432L219.468 178.66L221.047 179.888C225.661 173.955 227.92 165.577 228.098 155.034L226.098 155ZM219.468 178.66L217.877 177.448C214.141 182.351 208.87 184.85 201.788 184.85V186.85V188.85C209.959 188.85 216.475 185.889 221.059 179.872L219.468 178.66ZM201.788 186.85V184.85H197.498V186.85V188.85H201.788V186.85ZM280.127 179.7L278.725 181.126L278.73 181.132L278.736 181.137L280.127 179.7ZM280.127 97.8L278.736 96.3628L278.73 96.3685L278.725 96.3742L280.127 97.8ZM323.417 97.8L322.015 99.2259L322.02 99.2316L322.026 99.2372L323.417 97.8ZM323.417 179.7L322.026 178.263L322.02 178.268L322.015 178.274L323.417 179.7ZM311.847 169.69L313.288 171.077L313.3 171.064L313.313 171.051L311.847 169.69ZM311.847 107.94L310.382 109.301L310.394 109.314L310.406 109.327L311.847 107.94ZM291.827 107.94L293.268 109.327L293.28 109.314L293.293 109.301L291.827 107.94ZM291.827 169.69L290.362 171.051L290.374 171.064L290.386 171.077L291.827 169.69ZM301.837 187.5V185.5C293.137 185.5 286.44 183.027 281.518 178.263L280.127 179.7L278.736 181.137C284.56 186.773 292.337 189.5 301.837 189.5V187.5ZM280.127 179.7L281.53 178.274C276.712 173.536 274.197 166.907 274.197 158.12H272.197H270.197C270.197 167.707 272.969 175.464 278.725 181.126L280.127 179.7ZM272.197 158.12H274.197V119.38H272.197H270.197V158.12H272.197ZM272.197 119.38H274.197C274.197 110.593 276.712 103.964 281.53 99.2259L280.127 97.8L278.725 96.3742C272.969 102.036 270.197 109.793 270.197 119.38H272.197ZM280.127 97.8L281.518 99.2372C286.44 94.4735 293.137 92 301.837 92V90V88C292.337 88 284.56 90.7265 278.736 96.3628L280.127 97.8ZM301.837 90V92C310.539 92 317.183 94.4738 322.015 99.2259L323.417 97.8L324.82 96.3742C319.078 90.7262 311.335 88 301.837 88V90ZM323.417 97.8L322.026 99.2372C326.928 103.981 329.477 110.566 329.477 119.25H331.477H333.477C333.477 109.734 330.653 102.019 324.808 96.3628L323.417 97.8ZM331.477 119.25H329.477V158.12H331.477H333.477V119.25H331.477ZM331.477 158.12H329.477C329.477 166.897 326.924 173.523 322.026 178.263L323.417 179.7L324.808 181.137C330.656 175.477 333.477 167.716 333.477 158.12H331.477ZM323.417 179.7L322.015 178.274C317.183 183.026 310.539 185.5 301.837 185.5V187.5V189.5C311.335 189.5 319.078 186.774 324.82 181.126L323.417 179.7ZM301.837 173.2V175.2C306.598 175.2 310.537 173.934 313.288 171.077L311.847 169.69L310.406 168.303C308.651 170.126 305.916 171.2 301.837 171.2V173.2ZM311.847 169.69L313.313 171.051C316.011 168.145 317.227 164.172 317.227 159.42H315.227H313.227C313.227 163.508 312.19 166.382 310.382 168.329L311.847 169.69ZM315.227 159.42H317.227V118.08H315.227H313.227V159.42H315.227ZM315.227 118.08H317.227C317.227 113.333 316.013 109.383 313.288 106.553L311.847 107.94L310.406 109.327C312.188 111.177 313.227 113.987 313.227 118.08H315.227ZM311.847 107.94L313.313 106.579C310.566 103.621 306.619 102.3 301.837 102.3V104.3V106.3C305.895 106.3 308.621 107.405 310.382 109.301L311.847 107.94ZM301.837 104.3V102.3C297.055 102.3 293.108 103.621 290.362 106.579L291.827 107.94L293.293 109.301C295.053 107.405 297.779 106.3 301.837 106.3V104.3ZM291.827 107.94L290.386 106.553C287.661 109.383 286.447 113.333 286.447 118.08H288.447H290.447C290.447 113.987 291.487 111.177 293.268 109.327L291.827 107.94ZM288.447 118.08H286.447V159.42H288.447H290.447V118.08H288.447ZM288.447 159.42H286.447C286.447 164.172 287.663 168.145 290.362 171.051L291.827 169.69L293.293 168.329C291.485 166.382 290.447 163.508 290.447 159.42H288.447ZM291.827 169.69L290.386 171.077C293.137 173.934 297.076 175.2 301.837 175.2V173.2V171.2C297.758 171.2 295.024 170.126 293.268 168.303L291.827 169.69ZM381.736 186.2H379.736V188.2H381.736V186.2ZM381.736 152.53H383.736V150.53H381.736V152.53ZM345.466 146.03L344.12 147.509L344.127 147.515L344.134 147.522L345.466 146.03ZM338.186 91.3V89.3H336.186V91.3H338.186ZM354.436 91.3H356.436V89.3H354.436V91.3ZM357.946 135.11L356.649 136.632L356.68 136.658L356.711 136.683L357.946 135.11ZM381.736 137.97V139.97H383.736V137.97H381.736ZM381.736 91.3V89.3H379.736V91.3H381.736ZM397.986 91.3H399.986V89.3H397.986V91.3ZM397.986 186.2V188.2H399.986V186.2H397.986ZM381.736 186.2H383.736V152.53H381.736H379.736V186.2H381.736ZM381.736 152.53V150.53H365.746V152.53V154.53H381.736V152.53ZM365.746 152.53V150.53C357.405 150.53 351.178 148.448 346.798 144.538L345.466 146.03L344.134 147.522C349.461 152.278 356.754 154.53 365.746 154.53V152.53ZM345.466 146.03L346.813 144.551C342.454 140.582 340.186 135.053 340.186 127.7H338.186H336.186C336.186 135.947 338.772 142.638 344.12 147.509L345.466 146.03ZM338.186 127.7H340.186V91.3H338.186H336.186V127.7H338.186ZM338.186 91.3V93.3H354.436V91.3V89.3H338.186V91.3ZM354.436 91.3H352.436V126.92H354.436H356.436V91.3H354.436ZM354.436 126.92H352.436C352.436 130.889 353.803 134.208 356.649 136.632L357.946 135.11L359.243 133.588C357.409 132.025 356.436 129.885 356.436 126.92H354.436ZM357.946 135.11L356.711 136.683C359.588 138.943 363.319 139.97 367.696 139.97V137.97V135.97C363.927 135.97 361.158 135.09 359.182 133.537L357.946 135.11ZM367.696 137.97V139.97H381.736V137.97V135.97H367.696V137.97ZM381.736 137.97H383.736V91.3H381.736H379.736V137.97H381.736ZM381.736 91.3V93.3H397.986V91.3V89.3H381.736V91.3ZM397.986 91.3H395.986V186.2H397.986H399.986V91.3H397.986ZM397.986 186.2V184.2H381.736V186.2V188.2H397.986V186.2ZM424.066 130.04H422.066V132.04H424.066V130.04ZM435.246 130.04V132.04H436.518L437.057 130.888L435.246 130.04ZM452.276 93.64L454.087 94.4875L454.095 94.47L454.103 94.4523L452.276 93.64ZM469.176 92.47L467.427 93.4413L467.494 93.5607L467.576 93.67L469.176 92.47ZM469.176 95.07L467.387 94.1756L467.377 94.1948L467.368 94.2143L469.176 95.07ZM449.546 136.54L447.738 135.684L447.343 136.519L447.722 137.361L449.546 136.54ZM470.216 182.43L468.392 183.251L468.409 183.288L468.427 183.324L470.216 182.43ZM470.216 185.16L468.551 184.051L468.535 184.075L468.52 184.1L470.216 185.16ZM452.796 183.73L454.639 182.954L454.63 182.933L454.621 182.913L452.796 183.73ZM435.116 144.21L436.941 143.393L436.412 142.21H435.116V144.21ZM424.066 144.21V142.21H422.066V144.21H424.066ZM411.066 186.2V184.2C410.29 184.2 410.077 184.008 410.042 183.973C410.008 183.939 409.816 183.725 409.816 182.95H407.816H405.816C405.816 184.342 406.165 185.753 407.214 186.802C408.263 187.851 409.674 188.2 411.066 188.2V186.2ZM407.816 182.95H409.816V94.55H407.816H405.816V182.95H407.816ZM407.816 94.55H409.816C409.816 93.775 410.008 93.561 410.042 93.5267C410.077 93.4924 410.29 93.3 411.066 93.3V91.3V89.3C409.674 89.3 408.263 89.6493 407.214 90.6983C406.165 91.7473 405.816 93.1584 405.816 94.55H407.816ZM411.066 91.3V93.3H420.946V91.3V89.3H411.066V91.3ZM420.946 91.3V93.3C421.656 93.3 421.827 93.4807 421.843 93.4976C421.874 93.5296 422.066 93.755 422.066 94.55H424.066H426.066C426.066 93.1783 425.738 91.7787 424.728 90.7274C423.704 89.6609 422.315 89.3 420.946 89.3V91.3ZM424.066 94.55H422.066V130.04H424.066H426.066V94.55H424.066ZM424.066 130.04V132.04H435.246V130.04V128.04H424.066V130.04ZM435.246 130.04L437.057 130.888L454.087 94.4875L452.276 93.64L450.464 92.7925L433.434 129.192L435.246 130.04ZM452.276 93.64L454.103 94.4523C454.321 93.9623 454.565 93.7101 454.787 93.5674C455.011 93.4233 455.354 93.3 455.916 93.3V91.3V89.3C454.744 89.3 453.613 89.5667 452.624 90.2026C451.633 90.8399 450.923 91.7577 450.448 92.8277L452.276 93.64ZM455.916 91.3V93.3H466.706V91.3V89.3H455.916V91.3ZM466.706 91.3V93.3C467.11 93.3 467.306 93.3665 467.377 93.4C467.394 93.4079 467.404 93.4141 467.408 93.4173C467.411 93.419 467.412 93.4202 467.413 93.4208C467.414 93.4215 467.415 93.4219 467.415 93.4219C467.415 93.422 467.415 93.422 467.415 93.4221C467.415 93.4222 467.415 93.4227 467.416 93.4237C467.417 93.4254 467.421 93.4307 467.427 93.4413L469.176 92.47L470.924 91.4987C470.014 89.8605 468.348 89.3 466.706 89.3V91.3ZM469.176 92.47L467.576 93.67C467.584 93.6807 467.577 93.6747 467.571 93.655C467.564 93.6352 467.566 93.6266 467.566 93.64C467.566 93.6754 467.553 93.8428 467.387 94.1756L469.176 95.07L470.964 95.9644C471.688 94.517 471.907 92.7782 470.776 91.27L469.176 92.47ZM469.176 95.07L467.368 94.2143L447.738 135.684L449.546 136.54L451.353 137.396L470.983 95.9257L469.176 95.07ZM449.546 136.54L447.722 137.361L468.392 183.251L470.216 182.43L472.039 181.609L451.369 135.719L449.546 136.54ZM470.216 182.43L468.427 183.324C468.585 183.642 468.606 183.822 468.606 183.893C468.606 183.94 468.599 183.979 468.551 184.051L470.216 185.16L471.88 186.269C472.898 184.741 472.755 183.037 472.004 181.536L470.216 182.43ZM470.216 185.16L468.52 184.1C468.542 184.064 468.565 184.068 468.497 184.097C468.402 184.137 468.175 184.2 467.746 184.2V186.2V188.2C469.289 188.2 470.956 187.749 471.912 186.22L470.216 185.16ZM467.746 186.2V184.2H456.566V186.2V188.2H467.746V186.2ZM456.566 186.2V184.2C455.962 184.2 455.594 184.066 455.354 183.91C455.117 183.754 454.861 183.481 454.639 182.954L452.796 183.73L450.952 184.506C451.424 185.625 452.142 186.587 453.162 187.255C454.179 187.922 455.349 188.2 456.566 188.2V186.2ZM452.796 183.73L454.621 182.913L436.941 143.393L435.116 144.21L433.29 145.027L450.97 184.547L452.796 183.73ZM435.116 144.21V142.21H424.066V144.21V146.21H435.116V144.21ZM424.066 144.21H422.066V182.95H424.066H426.066V144.21H424.066ZM424.066 182.95H422.066C422.066 183.745 421.874 183.97 421.843 184.002C421.827 184.019 421.656 184.2 420.946 184.2V186.2V188.2C422.315 188.2 423.704 187.839 424.728 186.773C425.738 185.721 426.066 184.322 426.066 182.95H424.066ZM420.946 186.2V184.2H411.066V186.2V188.2H420.946V186.2ZM471.075 182.69L473.011 183.192L473.013 183.184L473.015 183.176L471.075 182.69ZM493.305 94.03L495.245 94.5164L495.248 94.5048L495.25 94.4932L493.305 94.03ZM515.535 94.03L513.589 94.4932L513.592 94.5062L513.596 94.5191L515.535 94.03ZM537.895 182.69L535.955 183.179L535.959 183.192L537.895 182.69ZM521.775 183.34L523.742 182.982L523.734 182.935L523.723 182.888L521.775 183.34ZM517.095 163.19L519.043 162.738L518.683 161.19H517.095V163.19ZM491.875 163.19V161.19H490.276L489.924 162.749L491.875 163.19ZM487.325 183.34L489.275 183.783L489.276 183.781L487.325 183.34ZM494.865 149.93L492.913 149.494L492.369 151.93H494.865V149.93ZM514.105 149.93V151.93H516.604L516.056 149.492L514.105 149.93ZM508.385 124.45L510.336 124.012L510.333 123.999L510.33 123.987L508.385 124.45ZM507.215 119.38L505.242 119.709L505.251 119.762L505.262 119.814L507.215 119.38ZM506.435 114.96L508.401 114.591L508.394 114.559L508.387 114.526L506.435 114.96ZM504.615 112.1L503.72 113.889L503.795 113.926L503.872 113.957L504.615 112.1ZM502.925 113.4L500.964 113.008L500.956 113.048L500.949 113.088L502.925 113.4ZM501.885 118.6L499.939 118.137L499.929 118.181L499.92 118.226L501.885 118.6ZM500.585 124.32L498.65 123.815L498.641 123.849L498.633 123.884L500.585 124.32ZM473.805 186.2V184.2C473.346 184.2 473.073 184.143 472.931 184.093C472.806 184.049 472.83 184.03 472.881 184.095C472.932 184.16 472.908 184.181 472.897 184.053C472.884 183.908 472.896 183.633 473.011 183.192L471.075 182.69L469.139 182.188C468.778 183.581 468.699 185.233 469.724 186.55C470.746 187.864 472.365 188.2 473.805 188.2V186.2ZM471.075 182.69L473.015 183.176L495.245 94.5164L493.305 94.03L491.365 93.5436L469.135 182.204L471.075 182.69ZM493.305 94.03L495.25 94.4932C495.39 93.9075 495.595 93.6703 495.735 93.5612C495.88 93.4489 496.178 93.3 496.815 93.3V91.3V89.3C495.545 89.3 494.305 89.6061 493.279 90.4038C492.25 91.2047 491.653 92.3325 491.359 93.5668L493.305 94.03ZM496.815 91.3V93.3H512.025V91.3V89.3H496.815V91.3ZM512.025 91.3V93.3C512.662 93.3 512.96 93.4489 513.104 93.5612C513.245 93.6703 513.45 93.9075 513.589 94.4932L515.535 94.03L517.48 93.5668C517.187 92.3325 516.59 91.2047 515.56 90.4038C514.535 89.6061 513.294 89.3 512.025 89.3V91.3ZM515.535 94.03L513.596 94.5191L535.956 183.179L537.895 182.69L539.834 182.201L517.474 93.5409L515.535 94.03ZM537.895 182.69L535.959 183.192C536.073 183.633 536.085 183.908 536.073 184.053C536.062 184.181 536.038 184.16 536.089 184.095C536.139 184.03 536.164 184.049 536.039 184.093C535.897 184.143 535.624 184.2 535.165 184.2V186.2V188.2C536.605 188.2 538.224 187.864 539.246 186.55C540.27 185.233 540.192 183.581 539.831 182.188L537.895 182.69ZM535.165 186.2V184.2H525.155V186.2V188.2H535.165V186.2ZM525.155 186.2V184.2C524.534 184.2 524.279 184.049 524.172 183.958C524.06 183.864 523.859 183.624 523.742 182.982L521.775 183.34L519.807 183.698C520.037 184.963 520.573 186.153 521.588 187.012C522.607 187.874 523.869 188.2 525.155 188.2V186.2ZM521.775 183.34L523.723 182.888L519.043 162.738L517.095 163.19L515.147 163.642L519.827 183.792L521.775 183.34ZM517.095 163.19V161.19H491.875V163.19V165.19H517.095V163.19ZM491.875 163.19L489.924 162.749L485.374 182.899L487.325 183.34L489.276 183.781L493.826 163.631L491.875 163.19ZM487.325 183.34L485.375 182.897C485.227 183.544 485.007 183.814 484.859 183.935C484.716 184.051 484.432 184.2 483.815 184.2V186.2V188.2C485.104 188.2 486.358 187.873 487.386 187.035C488.407 186.203 488.989 185.042 489.275 183.783L487.325 183.34ZM483.815 186.2V184.2H473.805V186.2V188.2H483.815V186.2ZM494.865 149.93V151.93H514.105V149.93V147.93H494.865V149.93ZM514.105 149.93L516.056 149.492L510.336 124.012L508.385 124.45L506.433 124.888L512.153 150.368L514.105 149.93ZM508.385 124.45L510.33 123.987C509.899 122.175 509.511 120.495 509.167 118.946L507.215 119.38L505.262 119.814C505.612 121.385 506.004 123.085 506.439 124.913L508.385 124.45ZM507.215 119.38L509.188 119.051C508.926 117.479 508.663 115.993 508.401 114.591L506.435 114.96L504.469 115.329C504.726 116.701 504.984 118.161 505.242 119.709L507.215 119.38ZM506.435 114.96L508.387 114.526C507.999 112.778 507.172 110.969 505.358 110.243L504.615 112.1L503.872 113.957C503.84 113.944 503.906 113.95 504.032 114.149C504.171 114.366 504.34 114.754 504.482 115.394L506.435 114.96ZM504.615 112.1L505.509 110.311C504.681 109.897 503.433 109.661 502.323 110.515C501.442 111.192 501.116 112.245 500.964 113.008L502.925 113.4L504.886 113.792C504.93 113.572 504.972 113.47 504.983 113.446C504.996 113.419 504.943 113.546 504.762 113.685C504.551 113.848 504.281 113.938 504.022 113.938C503.8 113.938 503.688 113.872 503.72 113.889L504.615 112.1ZM502.925 113.4L500.949 113.088C500.698 114.678 500.362 116.361 499.939 118.137L501.885 118.6L503.83 119.063C504.274 117.199 504.631 115.415 504.9 113.712L502.925 113.4ZM501.885 118.6L499.92 118.226C499.583 119.997 499.159 121.86 498.65 123.815L500.585 124.32L502.52 124.825C503.05 122.793 503.494 120.843 503.849 118.974L501.885 118.6ZM500.585 124.32L498.633 123.884L492.913 149.494L494.865 149.93L496.817 150.366L502.537 124.756L500.585 124.32Z" fill="black" mask="url(#path-1-outside-1_131_104)"/>
</svg>
