<svg width="166" height="86" viewBox="0 0 166 86" fill="none" xmlns="http://www.w3.org/2000/svg">
<mask id="path-1-outside-1_122_2588" maskUnits="userSpaceOnUse" x="-0.594727" y="-0.400002" width="166" height="87" fill="black">
<rect fill="white" x="-0.594727" y="-0.400002" width="166" height="87"/>
<path d="M26.0243 30.6C25.3577 30.6 25.0243 30.2667 25.0243 29.6V2.4C25.0243 1.73333 25.3577 1.4 26.0243 1.4H33.9843C36.7843 1.4 39.011 2.08 40.6643 3.44C42.3443 4.8 43.1843 6.62666 43.1843 8.92C43.1843 10.52 42.7177 11.8933 41.7843 13.04C40.8777 14.1867 39.691 14.88 38.2243 15.12V15.2C39.3177 15.3333 40.291 15.7333 41.1443 16.4C41.9977 17.04 42.6643 17.88 43.1443 18.92C43.6243 19.9333 43.8643 21.0533 43.8643 22.28C43.8643 23.96 43.4777 25.4267 42.7043 26.68C41.931 27.9333 40.8377 28.9067 39.4243 29.6C38.011 30.2667 36.3443 30.6 34.4243 30.6H26.0243ZM29.9043 13.44H33.9043C35.211 13.44 36.251 13.0933 37.0243 12.4C37.7977 11.68 38.1843 10.7067 38.1843 9.48C38.1843 8.28 37.7977 7.33333 37.0243 6.64C36.2777 5.92 35.2377 5.56 33.9043 5.56H30.8643C30.2243 5.56 29.9043 5.89333 29.9043 6.56V13.44ZM29.9043 25.44C29.9043 26.1067 30.2243 26.44 30.8643 26.44H34.1443C35.611 26.44 36.7577 26.0533 37.5843 25.28C38.4377 24.48 38.8643 23.4 38.8643 22.04C38.8643 20.68 38.4377 19.5867 37.5843 18.76C36.7577 17.9067 35.611 17.48 34.1443 17.48H29.9043V25.44ZM47.8087 30.6V1.4H52.2087V13.04H53.6887C56.062 13.04 57.942 13.7333 59.3287 15.12C60.7154 16.48 61.4087 18.3467 61.4087 20.72V23C61.4087 25.32 60.7154 27.1733 59.3287 28.56C57.942 29.92 56.062 30.6 53.6887 30.6H47.8087ZM63.6487 30.6V1.4H68.0487V30.6H63.6487ZM52.2087 26.6H53.6887C54.782 26.6 55.6354 26.28 56.2487 25.64C56.8887 25 57.2087 24.1067 57.2087 22.96V20.72C57.2087 19.5733 56.8887 18.68 56.2487 18.04C55.6354 17.3733 54.782 17.04 53.6887 17.04H52.2087V26.6ZM73.0331 30.6V1.4H90.5531V5.92H77.9131V12.88H82.1931C84.1398 12.88 85.8331 13.2533 87.2731 14C88.7131 14.72 89.8331 15.7467 90.6331 17.08C91.4331 18.3867 91.8331 19.92 91.8331 21.68C91.8331 23.44 91.4331 24.9867 90.6331 26.32C89.8331 27.6533 88.7131 28.7067 87.2731 29.48C85.8598 30.2267 84.1798 30.6 82.2331 30.6H73.0331ZM77.9131 26.2H82.2331C83.6198 26.2 84.7131 25.7867 85.5131 24.96C86.3398 24.1333 86.7531 23.04 86.7531 21.68C86.7531 20.2933 86.3398 19.2 85.5131 18.4C84.7131 17.5733 83.6198 17.16 82.2331 17.16H77.9131V26.2ZM105.897 31C103.097 31 100.871 30.2 99.2175 28.6C97.5908 27 96.7775 24.7867 96.7775 21.96V10.04C96.7775 7.21333 97.5908 5 99.2175 3.4C100.871 1.8 103.097 0.999998 105.897 0.999998C108.697 0.999998 110.911 1.8 112.537 3.4C114.191 5 115.017 7.2 115.017 10V21.96C115.017 24.7867 114.191 27 112.537 28.6C110.911 30.2 108.697 31 105.897 31ZM105.897 26.6C107.257 26.6 108.284 26.24 108.977 25.52C109.671 24.7733 110.017 23.72 110.017 22.36V9.64C110.017 8.28 109.671 7.24 108.977 6.52C108.284 5.77333 107.257 5.4 105.897 5.4C104.537 5.4 103.511 5.77333 102.817 6.52C102.124 7.24 101.777 8.28 101.777 9.64V22.36C101.777 23.72 102.124 24.7733 102.817 25.52C103.511 26.24 104.537 26.6 105.897 26.6ZM121.922 30.6C121.282 30.6 120.962 30.2667 120.962 29.6V2.4C120.962 1.73333 121.282 1.4 121.922 1.4H130.682C132.629 1.4 134.322 1.77333 135.762 2.52C137.229 3.26666 138.362 4.32 139.162 5.68C139.962 7.01333 140.362 8.58666 140.362 10.4C140.362 12.2133 139.962 13.8 139.162 15.16C138.362 16.4933 137.229 17.5333 135.762 18.28C134.322 19.0267 132.629 19.4 130.682 19.4H125.962V29.6C125.962 30.2667 125.629 30.6 124.962 30.6H121.922ZM125.962 15H130.682C132.095 15 133.215 14.5733 134.042 13.72C134.869 12.8667 135.282 11.76 135.282 10.4C135.282 9.04 134.869 7.93333 134.042 7.08C133.215 6.22667 132.095 5.8 130.682 5.8H126.962C126.295 5.8 125.962 6.12 125.962 6.76V15ZM1.99996 57.6C1.33329 57.6 0.999961 57.2667 0.999961 56.6V29.4C0.999961 28.7333 1.33329 28.4 1.99996 28.4H5.03996C5.67996 28.4 5.99996 28.7333 5.99996 29.4V40.32H9.43996L14.68 29.12C14.8933 28.64 15.2666 28.4 15.8 28.4H19.12C19.4933 28.4 19.7466 28.52 19.88 28.76C20.04 28.9733 20.04 29.24 19.88 29.56L13.84 42.32L20.2 56.44C20.36 56.76 20.36 57.04 20.2 57.28C20.0666 57.4933 19.8133 57.6 19.44 57.6H16C15.44 57.6 15.0533 57.3467 14.84 56.84L9.39996 44.68H5.99996V56.6C5.99996 57.2667 5.67996 57.6 5.03996 57.6H1.99996ZM33.9443 58C31.1443 58 28.9177 57.2 27.2643 55.6C25.6377 54 24.8243 51.7867 24.8243 48.96V37.04C24.8243 34.2133 25.6377 32 27.2643 30.4C28.9177 28.8 31.1443 28 33.9443 28C36.7443 28 38.9577 28.8 40.5843 30.4C42.2377 32 43.0643 34.2 43.0643 37V48.96C43.0643 51.7867 42.2377 54 40.5843 55.6C38.9577 57.2 36.7443 58 33.9443 58ZM33.9443 53.6C35.3043 53.6 36.331 53.24 37.0243 52.52C37.7177 51.7733 38.0643 50.72 38.0643 49.36V36.64C38.0643 35.28 37.7177 34.24 37.0243 33.52C36.331 32.7733 35.3043 32.4 33.9443 32.4C32.5843 32.4 31.5577 32.7733 30.8643 33.52C30.171 34.24 29.8243 35.28 29.8243 36.64V49.36C29.8243 50.72 30.171 51.7733 30.8643 52.52C31.5577 53.24 32.5843 53.6 33.9443 53.6ZM49.9687 57.6C49.3287 57.6 49.0087 57.2667 49.0087 56.6V29.4C49.0087 28.7333 49.3287 28.4 49.9687 28.4H58.7287C60.6754 28.4 62.3687 28.7733 63.8087 29.52C65.2754 30.2667 66.4087 31.32 67.2087 32.68C68.0087 34.0133 68.4087 35.5867 68.4087 37.4C68.4087 39.2133 68.0087 40.8 67.2087 42.16C66.4087 43.4933 65.2754 44.5333 63.8087 45.28C62.3687 46.0267 60.6754 46.4 58.7287 46.4H54.0087V56.6C54.0087 57.2667 53.6754 57.6 53.0087 57.6H49.9687ZM54.0087 42H58.7287C60.142 42 61.262 41.5733 62.0887 40.72C62.9154 39.8667 63.3287 38.76 63.3287 37.4C63.3287 36.04 62.9154 34.9333 62.0887 34.08C61.262 33.2267 60.142 32.8 58.7287 32.8H55.0087C54.342 32.8 54.0087 33.12 54.0087 33.76V42ZM73.0331 57.6V28.4H90.7931V57.6H85.7931V32.92H78.0331V57.6H73.0331ZM100.817 57.6L103.817 50.12L95.2975 28.4H100.737L105.137 41.28C105.404 42.0267 105.631 42.8133 105.817 43.64C106.031 44.44 106.164 45.0933 106.217 45.6C106.271 45.0933 106.377 44.44 106.537 43.64C106.724 42.8133 106.924 42.0267 107.137 41.28L111.177 28.4H116.497L106.097 57.6H100.817ZM130.202 58C128.309 58 126.669 57.6533 125.282 56.96C123.895 56.24 122.815 55.24 122.042 53.96C121.295 52.6533 120.922 51.12 120.922 49.36V36.64C120.922 34.88 121.295 33.36 122.042 32.08C122.815 30.7733 123.895 29.7733 125.282 29.08C126.669 28.36 128.309 28 130.202 28C132.815 28 134.949 28.6933 136.602 30.08C138.255 31.44 139.189 33.28 139.402 35.6C139.455 36.2933 139.135 36.64 138.442 36.64H135.442C134.829 36.64 134.469 36.32 134.362 35.68C134.042 33.4933 132.655 32.4 130.202 32.4C128.842 32.4 127.789 32.7733 127.042 33.52C126.295 34.24 125.922 35.28 125.922 36.64V49.36C125.922 50.72 126.295 51.7733 127.042 52.52C127.789 53.24 128.842 53.6 130.202 53.6C132.655 53.6 134.042 52.5067 134.362 50.32C134.469 49.68 134.829 49.36 135.442 49.36H138.442C139.135 49.36 139.469 49.68 139.442 50.32C139.229 52.6667 138.295 54.5333 136.642 55.92C134.989 57.3067 132.842 58 130.202 58ZM144.426 57.6C143.68 57.6 143.4 57.24 143.586 56.52L150.426 29.24C150.56 28.68 150.92 28.4 151.506 28.4H156.186C156.773 28.4 157.133 28.68 157.266 29.24L164.146 56.52C164.333 57.24 164.053 57.6 163.306 57.6H160.226C159.64 57.6 159.293 57.3067 159.186 56.72L157.746 50.52H149.986L148.586 56.72C148.453 57.3067 148.093 57.6 147.506 57.6H144.426ZM150.906 46.44H156.826L155.066 38.6C154.933 38.04 154.813 37.52 154.706 37.04C154.626 36.56 154.546 36.1067 154.466 35.68C154.36 35.2 154.173 34.9067 153.906 34.8C153.64 34.6667 153.466 34.8 153.386 35.2C153.306 35.7067 153.2 36.24 153.066 36.8C152.96 37.36 152.826 37.9467 152.666 38.56L150.906 46.44ZM10.28 85C8.38663 85 6.74663 84.6533 5.35996 83.96C3.97329 83.24 2.89329 82.24 2.11996 80.96C1.37329 79.6533 0.999961 78.12 0.999961 76.36V63.64C0.999961 61.88 1.37329 60.36 2.11996 59.08C2.89329 57.7733 3.97329 56.7733 5.35996 56.08C6.74663 55.36 8.38663 55 10.28 55C12.8933 55 15.0266 55.6933 16.68 57.08C18.3333 58.44 19.2666 60.28 19.48 62.6C19.5333 63.2933 19.2133 63.64 18.52 63.64H15.52C14.9066 63.64 14.5466 63.32 14.44 62.68C14.12 60.4933 12.7333 59.4 10.28 59.4C8.91996 59.4 7.86663 59.7733 7.11996 60.52C6.37329 61.24 5.99996 62.28 5.99996 63.64V76.36C5.99996 77.72 6.37329 78.7733 7.11996 79.52C7.86663 80.24 8.91996 80.6 10.28 80.6C12.7333 80.6 14.12 79.5067 14.44 77.32C14.5466 76.68 14.9066 76.36 15.52 76.36H18.52C19.2133 76.36 19.5466 76.68 19.52 77.32C19.3066 79.6667 18.3733 81.5333 16.72 82.92C15.0666 84.3067 12.92 85 10.28 85ZM24.8243 84.6V55.4H29.3843V69.68C29.3843 70.64 29.3577 71.6933 29.3043 72.84C29.251 73.9867 29.1843 75.1067 29.1043 76.2C29.0243 77.2933 28.9577 78.2267 28.9043 79L36.9443 55.4H43.0643V84.6H38.5043V70.76C38.5043 69.8267 38.531 68.76 38.5843 67.56C38.6643 66.36 38.7443 65.1867 38.8243 64.04C38.9043 62.8667 38.9843 61.8533 39.0643 61L30.9443 84.6H24.8243ZM58.2487 85C56.3554 85 54.7154 84.6533 53.3287 83.96C51.942 83.24 50.862 82.24 50.0887 80.96C49.342 79.6533 48.9687 78.12 48.9687 76.36V63.64C48.9687 61.88 49.342 60.36 50.0887 59.08C50.862 57.7733 51.942 56.7733 53.3287 56.08C54.7154 55.36 56.3554 55 58.2487 55C60.862 55 62.9954 55.6933 64.6487 57.08C66.302 58.44 67.2354 60.28 67.4487 62.6C67.502 63.2933 67.182 63.64 66.4887 63.64H63.4887C62.8754 63.64 62.5154 63.32 62.4087 62.68C62.0887 60.4933 60.702 59.4 58.2487 59.4C56.8887 59.4 55.8354 59.7733 55.0887 60.52C54.342 61.24 53.9687 62.28 53.9687 63.64V76.36C53.9687 77.72 54.342 78.7733 55.0887 79.52C55.8354 80.24 56.8887 80.6 58.2487 80.6C60.702 80.6 62.0887 79.5067 62.4087 77.32C62.5154 76.68 62.8754 76.36 63.4887 76.36H66.4887C67.182 76.36 67.5154 76.68 67.4887 77.32C67.2754 79.6667 66.342 81.5333 64.6887 82.92C63.0354 84.3067 60.8887 85 58.2487 85ZM80.3931 84.6C79.7264 84.6 79.3931 84.2667 79.3931 83.6V59.92H72.7531C72.0864 59.92 71.7531 59.5867 71.7531 58.92V56.4C71.7531 55.7333 72.0864 55.4 72.7531 55.4H91.0731C91.7398 55.4 92.0731 55.7333 92.0731 56.4V58.92C92.0731 59.5867 91.7398 59.92 91.0731 59.92H84.4331V83.6C84.4331 84.2667 84.0998 84.6 83.4331 84.6H80.3931ZM98.4175 84.6C97.7508 84.6 97.4175 84.2667 97.4175 83.6V56.4C97.4175 55.7333 97.7508 55.4 98.4175 55.4H113.937C114.604 55.4 114.937 55.7333 114.937 56.4V58.8C114.937 59.4667 114.604 59.8 113.937 59.8H103.337C102.671 59.8 102.337 60.1333 102.337 60.8V67.4H112.537C113.204 67.4 113.537 67.72 113.537 68.36V70.64C113.537 71.3067 113.204 71.64 112.537 71.64H102.337V79.2C102.337 79.8667 102.671 80.2 103.337 80.2H113.937C114.604 80.2 114.937 80.5333 114.937 81.2V83.6C114.937 84.2667 114.604 84.6 113.937 84.6H98.4175ZM121.042 84.6C120.375 84.6 120.042 84.2667 120.042 83.6V56.4C120.042 55.7333 120.375 55.4 121.042 55.4H125.682C126.269 55.4 126.629 55.68 126.762 56.24L129.242 65.56C129.349 66.04 129.535 66.28 129.802 66.28C130.095 66.28 130.309 66.04 130.442 65.56L132.962 56.24C133.095 55.68 133.455 55.4 134.042 55.4H138.722C139.389 55.4 139.722 55.7333 139.722 56.4V83.6C139.722 84.2667 139.389 84.6 138.722 84.6H136.042C135.375 84.6 135.042 84.2667 135.042 83.6V72.32C135.042 70.64 135.082 68.9067 135.162 67.12C135.269 65.3067 135.389 63.56 135.522 61.88C135.655 60.1733 135.802 58.6267 135.962 57.24L132.042 71.08C131.909 71.64 131.549 71.92 130.962 71.92H128.602C128.015 71.92 127.655 71.64 127.522 71.08L123.762 57.6C124.002 59.44 124.215 61.64 124.402 64.2C124.615 66.7333 124.722 69.44 124.722 72.32V83.6C124.722 84.2667 124.389 84.6 123.722 84.6H121.042ZM143.746 84.6V55.4H148.146V67.04H149.626C152 67.04 153.88 67.7333 155.266 69.12C156.653 70.48 157.346 72.3467 157.346 74.72V77C157.346 79.32 156.653 81.1733 155.266 82.56C153.88 83.92 152 84.6 149.626 84.6H143.746ZM159.586 84.6V55.4H163.986V84.6H159.586ZM148.146 80.6H149.626C150.72 80.6 151.573 80.28 152.186 79.64C152.826 79 153.146 78.1067 153.146 76.96V74.72C153.146 73.5733 152.826 72.68 152.186 72.04C151.573 71.3733 150.72 71.04 149.626 71.04H148.146V80.6Z"/>
</mask>
<path d="M40.6643 3.44L40.029 4.21231L40.0351 4.21724L40.6643 3.44ZM41.7843 13.04L41.0088 12.4087L41.0043 12.4142L40.9999 12.4198L41.7843 13.04ZM38.2243 15.12L38.0628 14.1331L37.2243 14.2703V15.12H38.2243ZM38.2243 15.2H37.2243V16.0855L38.1033 16.1926L38.2243 15.2ZM41.1443 16.4L40.5287 17.188L40.5365 17.1941L40.5443 17.2L41.1443 16.4ZM43.1443 18.92L42.2363 19.3391L42.2406 19.3481L43.1443 18.92ZM42.7043 26.68L43.5554 27.2051V27.2051L42.7043 26.68ZM39.4243 29.6L39.851 30.5044L39.8579 30.5012L39.8648 30.4978L39.4243 29.6ZM29.9043 13.44H28.9043V14.44H29.9043V13.44ZM37.0243 12.4L37.6919 13.1446L37.6989 13.1383L37.7058 13.1319L37.0243 12.4ZM37.0243 6.64L36.3302 7.35984L36.3433 7.37245L36.3568 7.38457L37.0243 6.64ZM37.5843 25.28L38.2675 26.0103L38.2683 26.0095L37.5843 25.28ZM37.5843 18.76L36.8661 19.4558L36.8771 19.4672L36.8885 19.4782L37.5843 18.76ZM29.9043 17.48V16.48H28.9043V17.48H29.9043ZM26.0243 30.6V29.6C25.9823 29.6 25.9518 29.5973 25.9314 29.5944C25.911 29.5915 25.9024 29.5886 25.9031 29.5888C25.904 29.5891 25.914 29.5926 25.9295 29.6019C25.9371 29.6065 25.9457 29.6122 25.9547 29.6192C25.9637 29.6263 25.9727 29.6342 25.9814 29.6429C25.9902 29.6516 25.9981 29.6606 26.0051 29.6697C26.0121 29.6787 26.0179 29.6872 26.0225 29.6949C26.0318 29.7104 26.0352 29.7203 26.0355 29.7213C26.0357 29.7219 26.0328 29.7133 26.0299 29.693C26.027 29.6725 26.0243 29.642 26.0243 29.6H25.0243H24.0243C24.0243 30.0875 24.1469 30.6368 24.5672 31.0571C24.9876 31.4775 25.5369 31.6 26.0243 31.6V30.6ZM25.0243 29.6H26.0243V2.4H25.0243H24.0243V29.6H25.0243ZM25.0243 2.4H26.0243C26.0243 2.35795 26.027 2.3275 26.0299 2.30704C26.0328 2.28667 26.0357 2.27811 26.0355 2.27872C26.0352 2.27966 26.0318 2.28961 26.0225 2.30512C26.0179 2.31278 26.0121 2.32132 26.0051 2.33035C25.9981 2.33938 25.9902 2.34839 25.9814 2.35711C25.9727 2.36582 25.9637 2.37373 25.9547 2.38076C25.9457 2.38778 25.9371 2.39352 25.9295 2.39812C25.914 2.40742 25.904 2.41087 25.9031 2.41118C25.9024 2.41139 25.911 2.40848 25.9314 2.40557C25.9518 2.40265 25.9823 2.4 26.0243 2.4V1.4V0.399998C25.5369 0.399998 24.9876 0.522545 24.5672 0.94289C24.1469 1.36324 24.0243 1.91252 24.0243 2.4H25.0243ZM26.0243 1.4V2.4H33.9843V1.4V0.399998H26.0243V1.4ZM33.9843 1.4V2.4C36.6248 2.4 38.6035 3.03962 40.0291 4.21229L40.6643 3.44L41.2996 2.66771C39.4185 1.12037 36.9439 0.399998 33.9843 0.399998V1.4ZM40.6643 3.44L40.0351 4.21724C41.4646 5.37445 42.1843 6.90726 42.1843 8.92H43.1843H44.1843C44.1843 6.34607 43.224 4.22555 41.2935 2.66275L40.6643 3.44ZM43.1843 8.92H42.1843C42.1843 10.3103 41.7846 11.4555 41.0088 12.4087L41.7843 13.04L42.5599 13.6713C43.6507 12.3312 44.1843 10.7297 44.1843 8.92H43.1843ZM41.7843 13.04L40.9999 12.4198C40.2507 13.3672 39.288 13.9326 38.0628 14.1331L38.2243 15.12L38.3858 16.1069C40.094 15.8273 41.5046 15.0061 42.5688 13.6602L41.7843 13.04ZM38.2243 15.12H37.2243V15.2H38.2243H39.2243V15.12H38.2243ZM38.2243 15.2L38.1033 16.1926C39.0195 16.3044 39.8211 16.6352 40.5287 17.188L41.1443 16.4L41.76 15.612C40.7609 14.8314 39.6159 14.3623 38.3454 14.2074L38.2243 15.2ZM41.1443 16.4L40.5443 17.2C41.2553 17.7332 41.8206 18.4382 42.2364 19.3391L43.1443 18.92L44.0523 18.5009C43.5081 17.3218 42.74 16.3468 41.7443 15.6L41.1443 16.4ZM43.1443 18.92L42.2406 19.3481C42.6514 20.2154 42.8643 21.1873 42.8643 22.28H43.8643H44.8643C44.8643 20.9194 44.5972 19.6512 44.0481 18.4919L43.1443 18.92ZM43.8643 22.28H42.8643C42.8643 23.8012 42.5161 25.0807 41.8533 26.1549L42.7043 26.68L43.5554 27.2051C44.4392 25.7727 44.8643 24.1188 44.8643 22.28H43.8643ZM42.7043 26.68L41.8533 26.1549C41.1859 27.2366 40.2402 28.0859 38.9839 28.7022L39.4243 29.6L39.8648 30.4978C41.4352 29.7274 42.6761 28.6301 43.5554 27.2051L42.7043 26.68ZM39.4243 29.6L38.9977 28.6956C37.7447 29.2866 36.2298 29.6 34.4243 29.6V30.6V31.6C36.4588 31.6 38.2773 31.2467 39.851 30.5044L39.4243 29.6ZM34.4243 30.6V29.6H26.0243V30.6V31.6H34.4243V30.6ZM29.9043 13.44V14.44H33.9043V13.44V12.44H29.9043V13.44ZM33.9043 13.44V14.44C35.3915 14.44 36.6913 14.0416 37.6919 13.1446L37.0243 12.4L36.3568 11.6554C35.8107 12.145 35.0306 12.44 33.9043 12.44V13.44ZM37.0243 12.4L37.7058 13.1319C38.7155 12.1918 39.1843 10.9354 39.1843 9.48H38.1843H37.1843C37.1843 10.4779 36.8799 11.1682 36.3429 11.6681L37.0243 12.4ZM38.1843 9.48H39.1843C39.1843 8.04451 38.7105 6.80867 37.6919 5.89543L37.0243 6.64L36.3568 7.38457C36.8848 7.85799 37.1843 8.51548 37.1843 9.48H38.1843ZM37.0243 6.64L37.7185 5.92015C36.7366 4.97332 35.4197 4.56 33.9043 4.56V5.56V6.56C35.0556 6.56 35.8188 6.86668 36.3302 7.35984L37.0243 6.64ZM33.9043 5.56V4.56H30.8643V5.56V6.56H33.9043V5.56ZM30.8643 5.56V4.56C30.3796 4.56 29.8349 4.68838 29.4229 5.11747C29.0183 5.53894 28.9043 6.0825 28.9043 6.56H29.9043H30.9043C30.9043 6.51628 30.907 6.48395 30.9101 6.46149C30.9131 6.43909 30.9164 6.42852 30.9168 6.42727C30.9171 6.4263 30.9144 6.43495 30.9059 6.44974C30.8971 6.46491 30.884 6.48351 30.8657 6.50253C30.8474 6.52162 30.8278 6.53706 30.8093 6.54862C30.7912 6.55998 30.7777 6.56532 30.7723 6.56717C30.7674 6.5689 30.7712 6.56701 30.7865 6.56473C30.802 6.56243 30.8274 6.56 30.8643 6.56V5.56ZM29.9043 6.56H28.9043V13.44H29.9043H30.9043V6.56H29.9043ZM29.9043 25.44H28.9043C28.9043 25.9175 29.0183 26.4611 29.423 26.8825C29.8349 27.3116 30.3796 27.44 30.8643 27.44V26.44V25.44C30.8274 25.44 30.802 25.4376 30.7865 25.4353C30.7712 25.433 30.7674 25.4311 30.7723 25.4328C30.7777 25.4347 30.7912 25.44 30.8093 25.4514C30.8278 25.4629 30.8474 25.4784 30.8657 25.4975C30.884 25.5165 30.8971 25.5351 30.9059 25.5503C30.9144 25.565 30.9171 25.5737 30.9168 25.5727C30.9164 25.5715 30.9131 25.5609 30.9101 25.5385C30.907 25.516 30.9043 25.4837 30.9043 25.44H29.9043ZM30.8643 26.44V27.44H34.1443V26.44V25.44H30.8643V26.44ZM34.1443 26.44V27.44C35.7872 27.44 37.2058 27.0034 38.2675 26.0103L37.5843 25.28L36.9012 24.5497C36.3095 25.1032 35.4348 25.44 34.1443 25.44V26.44ZM37.5843 25.28L38.2683 26.0095C39.3565 24.9893 39.8643 23.6273 39.8643 22.04H38.8643H37.8643C37.8643 23.1727 37.5188 23.9707 36.9004 24.5505L37.5843 25.28ZM38.8643 22.04H39.8643C39.8643 20.452 39.3566 19.0846 38.2801 18.0418L37.5843 18.76L36.8885 19.4782C37.5187 20.0887 37.8643 20.908 37.8643 22.04H38.8643ZM37.5843 18.76L38.3026 18.0642C37.2452 16.9727 35.8141 16.48 34.1443 16.48V17.48V18.48C35.4079 18.48 36.2702 18.8407 36.8661 19.4558L37.5843 18.76ZM34.1443 17.48V16.48H29.9043V17.48V18.48H34.1443V17.48ZM29.9043 17.48H28.9043V25.44H29.9043H30.9043V17.48H29.9043ZM47.8087 30.6H46.8087V31.6H47.8087V30.6ZM47.8087 1.4V0.399998H46.8087V1.4H47.8087ZM52.2087 1.4H53.2087V0.399998H52.2087V1.4ZM52.2087 13.04H51.2087V14.04H52.2087V13.04ZM59.3287 15.12L58.6216 15.8271L58.6285 15.8339L59.3287 15.12ZM59.3287 28.56L60.029 29.274L60.0358 29.2671L59.3287 28.56ZM63.6487 30.6H62.6487V31.6H63.6487V30.6ZM63.6487 1.4V0.399998H62.6487V1.4H63.6487ZM68.0487 1.4H69.0487V0.399998H68.0487V1.4ZM68.0487 30.6V31.6H69.0487V30.6H68.0487ZM52.2087 26.6H51.2087V27.6H52.2087V26.6ZM56.2487 25.64L55.5416 24.9329L55.5341 24.9404L55.5267 24.9481L56.2487 25.64ZM56.2487 18.04L55.5128 18.7171L55.5269 18.7324L55.5416 18.7471L56.2487 18.04ZM52.2087 17.04V16.04H51.2087V17.04H52.2087ZM47.8087 30.6H48.8087V1.4H47.8087H46.8087V30.6H47.8087ZM47.8087 1.4V2.4H52.2087V1.4V0.399998H47.8087V1.4ZM52.2087 1.4H51.2087V13.04H52.2087H53.2087V1.4H52.2087ZM52.2087 13.04V14.04H53.6887V13.04V12.04H52.2087V13.04ZM53.6887 13.04V14.04C55.8563 14.04 57.4607 14.6662 58.6216 15.8271L59.3287 15.12L60.0358 14.4129C58.4233 12.8004 56.2677 12.04 53.6887 12.04V13.04ZM59.3287 15.12L58.6285 15.8339C59.7823 16.9656 60.4087 18.5516 60.4087 20.72H61.4087H62.4087C62.4087 18.1417 61.6484 15.9944 60.0289 14.4061L59.3287 15.12ZM61.4087 20.72H60.4087V23H61.4087H62.4087V20.72H61.4087ZM61.4087 23H60.4087C60.4087 25.107 59.7868 26.6877 58.6216 27.8529L59.3287 28.56L60.0358 29.2671C61.644 27.659 62.4087 25.533 62.4087 23H61.4087ZM59.3287 28.56L58.6285 27.8461C57.4686 28.9836 55.8618 29.6 53.6887 29.6V30.6V31.6C56.2622 31.6 58.4155 30.8564 60.0289 29.2739L59.3287 28.56ZM53.6887 30.6V29.6H47.8087V30.6V31.6H53.6887V30.6ZM63.6487 30.6H64.6487V1.4H63.6487H62.6487V30.6H63.6487ZM63.6487 1.4V2.4H68.0487V1.4V0.399998H63.6487V1.4ZM68.0487 1.4H67.0487V30.6H68.0487H69.0487V1.4H68.0487ZM68.0487 30.6V29.6H63.6487V30.6V31.6H68.0487V30.6ZM52.2087 26.6V27.6H53.6887V26.6V25.6H52.2087V26.6ZM53.6887 26.6V27.6C54.9867 27.6 56.1264 27.2129 56.9707 26.3319L56.2487 25.64L55.5267 24.9481C55.1444 25.3471 54.5774 25.6 53.6887 25.6V26.6ZM56.2487 25.64L56.9558 26.3471C57.8301 25.4728 58.2087 24.2974 58.2087 22.96H57.2087H56.2087C56.2087 23.9159 55.9473 24.5272 55.5416 24.9329L56.2487 25.64ZM57.2087 22.96H58.2087V20.72H57.2087H56.2087V22.96H57.2087ZM57.2087 20.72H58.2087C58.2087 19.3825 57.8301 18.2072 56.9558 17.3329L56.2487 18.04L55.5416 18.7471C55.9473 19.1528 56.2087 19.7641 56.2087 20.72H57.2087ZM56.2487 18.04L56.9846 17.3629C56.1433 16.4485 54.9991 16.04 53.6887 16.04V17.04V18.04C54.565 18.04 55.1274 18.2982 55.5128 18.7171L56.2487 18.04ZM53.6887 17.04V16.04H52.2087V17.04V18.04H53.6887V17.04ZM52.2087 17.04H51.2087V26.6H52.2087H53.2087V17.04H52.2087ZM73.0331 30.6H72.0331V31.6H73.0331V30.6ZM73.0331 1.4V0.399998H72.0331V1.4H73.0331ZM90.5531 1.4H91.5531V0.399998H90.5531V1.4ZM90.5531 5.92V6.92H91.5531V5.92H90.5531ZM77.9131 5.92V4.92H76.9131V5.92H77.9131ZM77.9131 12.88H76.9131V13.88H77.9131V12.88ZM87.2731 14L86.8128 14.8878L86.8193 14.8911L86.8259 14.8944L87.2731 14ZM90.6331 17.08L89.7756 17.5945L89.7802 17.6022L90.6331 17.08ZM90.6331 26.32L89.7756 25.8055V25.8055L90.6331 26.32ZM87.2731 29.48L87.7402 30.3642L87.7462 30.361L87.2731 29.48ZM77.9131 26.2H76.9131V27.2H77.9131V26.2ZM85.5131 24.96L84.806 24.2529L84.8002 24.2587L84.7945 24.2646L85.5131 24.96ZM85.5131 18.4L84.7945 19.0954L84.8059 19.1072L84.8177 19.1186L85.5131 18.4ZM77.9131 17.16V16.16H76.9131V17.16H77.9131ZM73.0331 30.6H74.0331V1.4H73.0331H72.0331V30.6H73.0331ZM73.0331 1.4V2.4H90.5531V1.4V0.399998H73.0331V1.4ZM90.5531 1.4H89.5531V5.92H90.5531H91.5531V1.4H90.5531ZM90.5531 5.92V4.92H77.9131V5.92V6.92H90.5531V5.92ZM77.9131 5.92H76.9131V12.88H77.9131H78.9131V5.92H77.9131ZM77.9131 12.88V13.88H82.1931V12.88V11.88H77.9131V12.88ZM82.1931 12.88V13.88C84.0114 13.88 85.5408 14.2282 86.8128 14.8878L87.2731 14L87.7334 13.1122C86.1254 12.2785 84.2682 11.88 82.1931 11.88V12.88ZM87.2731 14L86.8259 14.8944C88.1021 15.5325 89.077 16.4302 89.7756 17.5945L90.6331 17.08L91.4906 16.5655C90.5891 15.0631 89.3241 13.9074 87.7203 13.1056L87.2731 14ZM90.6331 17.08L89.7802 17.6022C90.4704 18.7294 90.8331 20.0763 90.8331 21.68H91.8331H92.8331C92.8331 19.7637 92.3958 18.0439 91.4859 16.5578L90.6331 17.08ZM91.8331 21.68H90.8331C90.8331 23.2832 90.4705 24.6473 89.7756 25.8055L90.6331 26.32L91.4906 26.8345C92.3956 25.326 92.8331 23.5968 92.8331 21.68H91.8331ZM90.6331 26.32L89.7756 25.8055C89.0732 26.9762 88.0896 27.9064 86.8 28.599L87.2731 29.48L87.7462 30.361C89.3365 29.5069 90.593 28.3305 91.4906 26.8345L90.6331 26.32ZM87.2731 29.48L86.806 28.5958C85.5647 29.2516 84.052 29.6 82.2331 29.6V30.6V31.6C84.3075 31.6 86.1548 31.2018 87.7402 30.3642L87.2731 29.48ZM82.2331 30.6V29.6H73.0331V30.6V31.6H82.2331V30.6ZM77.9131 26.2V27.2H82.2331V26.2V25.2H77.9131V26.2ZM82.2331 26.2V27.2C83.8309 27.2 85.2054 26.7159 86.2317 25.6554L85.5131 24.96L84.7945 24.2646C84.2207 24.8574 83.4086 25.2 82.2331 25.2V26.2ZM85.5131 24.96L86.2202 25.6671C87.2651 24.6222 87.7531 23.2584 87.7531 21.68H86.7531H85.7531C85.7531 22.8216 85.4144 23.6445 84.806 24.2529L85.5131 24.96ZM86.7531 21.68H87.7531C87.7531 20.0822 87.269 18.7077 86.2085 17.6814L85.5131 18.4L84.8177 19.1186C85.4105 19.6923 85.7531 20.5045 85.7531 21.68H86.7531ZM85.5131 18.4L86.2317 17.7046C85.2054 16.6441 83.8309 16.16 82.2331 16.16V17.16V18.16C83.4086 18.16 84.2207 18.5026 84.7945 19.0954L85.5131 18.4ZM82.2331 17.16V16.16H77.9131V17.16V18.16H82.2331V17.16ZM77.9131 17.16H76.9131V26.2H77.9131H78.9131V17.16H77.9131ZM99.2175 28.6L98.5162 29.3129L98.522 29.3186L99.2175 28.6ZM99.2175 3.4L98.522 2.68137L98.5162 2.68707L99.2175 3.4ZM112.537 3.4L111.836 4.11295L111.842 4.1186L112.537 3.4ZM112.537 28.6L111.842 27.8814L111.836 27.8871L112.537 28.6ZM108.977 25.52L109.698 26.2136L109.704 26.2071L109.71 26.2005L108.977 25.52ZM108.977 6.52L108.245 7.20045L108.251 7.2071L108.257 7.21364L108.977 6.52ZM102.817 6.52L103.538 7.21364L103.544 7.2071L103.55 7.20045L102.817 6.52ZM102.817 25.52L102.085 26.2004L102.091 26.2071L102.097 26.2136L102.817 25.52ZM105.897 31V30C103.297 30 101.341 29.2633 99.9129 27.8814L99.2175 28.6L98.522 29.3186C100.401 31.1367 102.898 32 105.897 32V31ZM99.2175 28.6L99.9187 27.8871C98.5267 26.5179 97.7775 24.5866 97.7775 21.96H96.7775H95.7775C95.7775 24.9867 96.6549 27.4821 98.5162 29.3129L99.2175 28.6ZM96.7775 21.96H97.7775V10.04H96.7775H95.7775V21.96H96.7775ZM96.7775 10.04H97.7775C97.7775 7.4134 98.5267 5.48207 99.9187 4.11292L99.2175 3.4L98.5162 2.68707C96.6549 4.51793 95.7775 7.01326 95.7775 10.04H96.7775ZM99.2175 3.4L99.9129 4.1186C101.341 2.73674 103.297 2 105.897 2V0.999998V-1.90735e-06C102.898 -1.90735e-06 100.401 0.863258 98.522 2.6814L99.2175 3.4ZM105.897 0.999998V2C108.498 2 110.437 2.7369 111.836 4.11292L112.537 3.4L113.239 2.68707C111.384 0.863098 108.897 -1.90735e-06 105.897 -1.90735e-06V0.999998ZM112.537 3.4L111.842 4.1186C113.26 5.49051 114.017 7.40794 114.017 10H115.017H116.017C116.017 6.99206 115.122 4.50949 113.233 2.6814L112.537 3.4ZM115.017 10H114.017V21.96H115.017H116.017V10H115.017ZM115.017 21.96H114.017C114.017 24.5819 113.258 26.5113 111.842 27.8814L112.537 28.6L113.233 29.3186C115.124 27.4887 116.017 24.9914 116.017 21.96H115.017ZM112.537 28.6L111.836 27.8871C110.437 29.2631 108.498 30 105.897 30V31V32C108.897 32 111.384 31.1369 113.239 29.3129L112.537 28.6ZM105.897 26.6V27.6C107.428 27.6 108.756 27.1919 109.698 26.2136L108.977 25.52L108.257 24.8264C107.812 25.2881 107.087 25.6 105.897 25.6V26.6ZM108.977 25.52L109.71 26.2005C110.626 25.214 111.017 23.8861 111.017 22.36H110.017H109.017C109.017 23.5539 108.715 24.3326 108.245 24.8395L108.977 25.52ZM110.017 22.36H111.017V9.64H110.017H109.017V22.36H110.017ZM110.017 9.64H111.017C111.017 8.11644 110.627 6.7915 109.698 5.82635L108.977 6.52L108.257 7.21364C108.714 7.6885 109.017 8.44356 109.017 9.64H110.017ZM108.977 6.52L109.71 5.83954C108.77 4.82736 107.438 4.4 105.897 4.4V5.4V6.4C107.077 6.4 107.798 6.7193 108.245 7.20045L108.977 6.52ZM105.897 5.4V4.4C104.357 4.4 103.025 4.82736 102.085 5.83954L102.817 6.52L103.55 7.20045C103.997 6.7193 104.718 6.4 105.897 6.4V5.4ZM102.817 6.52L102.097 5.82635C101.168 6.7915 100.777 8.11644 100.777 9.64H101.777H102.777C102.777 8.44356 103.081 7.6885 103.538 7.21364L102.817 6.52ZM101.777 9.64H100.777V22.36H101.777H102.777V9.64H101.777ZM101.777 22.36H100.777C100.777 23.8861 101.169 25.214 102.085 26.2004L102.817 25.52L103.55 24.8395C103.08 24.3326 102.777 23.5539 102.777 22.36H101.777ZM102.817 25.52L102.097 26.2136C103.039 27.1919 104.367 27.6 105.897 27.6V26.6V25.6C104.708 25.6 103.982 25.2881 103.538 24.8264L102.817 25.52ZM135.762 2.52L135.302 3.40778L135.308 3.41116L135.762 2.52ZM139.162 5.68L138.3 6.18704L138.304 6.19449L139.162 5.68ZM139.162 15.16L140.019 15.6745L140.024 15.667L139.162 15.16ZM135.762 18.28L135.308 17.3888L135.302 17.3922L135.762 18.28ZM125.962 19.4V18.4H124.962V19.4H125.962ZM125.962 15H124.962V16H125.962V15ZM134.042 13.72L133.324 13.0242V13.0242L134.042 13.72ZM134.042 7.08L133.324 7.77579V7.77579L134.042 7.08ZM121.922 30.6V29.6C121.885 29.6 121.859 29.5976 121.844 29.5953C121.829 29.593 121.825 29.5911 121.83 29.5928C121.835 29.5947 121.849 29.6 121.867 29.6114C121.885 29.6229 121.905 29.6384 121.923 29.6575C121.941 29.6765 121.955 29.6951 121.963 29.7103C121.972 29.725 121.975 29.7337 121.974 29.7327C121.974 29.7315 121.971 29.7209 121.968 29.6985C121.964 29.676 121.962 29.6437 121.962 29.6H120.962H119.962C119.962 30.0775 120.076 30.6211 120.48 31.0425C120.892 31.4716 121.437 31.6 121.922 31.6V30.6ZM120.962 29.6H121.962V2.4H120.962H119.962V29.6H120.962ZM120.962 2.4H121.962C121.962 2.35628 121.964 2.32395 121.968 2.30149C121.971 2.27909 121.974 2.26852 121.974 2.26727C121.975 2.2663 121.972 2.27495 121.963 2.28975C121.955 2.30491 121.941 2.32351 121.923 2.34253C121.905 2.36162 121.885 2.37706 121.867 2.38862C121.849 2.39998 121.835 2.40532 121.83 2.40717C121.825 2.4089 121.829 2.40701 121.844 2.40473C121.859 2.40243 121.885 2.4 121.922 2.4V1.4V0.399998C121.437 0.399998 120.892 0.528378 120.48 0.957466C120.076 1.37894 119.962 1.9225 119.962 2.4H120.962ZM121.922 1.4V2.4H130.682V1.4V0.399998H121.922V1.4ZM130.682 1.4V2.4C132.5 2.4 134.03 2.74821 135.302 3.40775L135.762 2.52L136.222 1.63224C134.614 0.798456 132.757 0.399998 130.682 0.399998V1.4ZM135.762 2.52L135.308 3.41116C136.613 4.07524 137.601 4.99866 138.3 6.18702L139.162 5.68L140.024 5.17298C139.123 3.64134 137.844 2.45809 136.216 1.62883L135.762 2.52ZM139.162 5.68L138.304 6.19449C138.997 7.34817 139.362 8.73739 139.362 10.4H140.362H141.362C141.362 8.43594 140.927 6.67849 140.019 5.1655L139.162 5.68ZM140.362 10.4H139.362C139.362 12.0621 138.997 13.4684 138.3 14.653L139.162 15.16L140.024 15.667C140.927 14.1316 141.362 12.3646 141.362 10.4H140.362ZM139.162 15.16L138.304 14.6455C137.607 15.8083 136.618 16.7221 135.308 17.3888L135.762 18.28L136.216 19.1712C137.839 18.3445 139.117 17.1784 140.019 15.6745L139.162 15.16ZM135.762 18.28L135.302 17.3922C134.03 18.0518 132.5 18.4 130.682 18.4V19.4V20.4C132.757 20.4 134.614 20.0015 136.222 19.1678L135.762 18.28ZM130.682 19.4V18.4H125.962V19.4V20.4H130.682V19.4ZM125.962 19.4H124.962V29.6H125.962H126.962V19.4H125.962ZM125.962 29.6H124.962C124.962 29.642 124.959 29.6725 124.956 29.693C124.953 29.7133 124.95 29.7219 124.951 29.7213C124.951 29.7203 124.954 29.7104 124.964 29.6949C124.968 29.6872 124.974 29.6787 124.981 29.6697C124.988 29.6606 124.996 29.6516 125.005 29.6429C125.013 29.6342 125.022 29.6263 125.031 29.6192C125.041 29.6122 125.049 29.6065 125.057 29.6019C125.072 29.5926 125.082 29.5891 125.083 29.5888C125.084 29.5886 125.075 29.5915 125.055 29.5944C125.034 29.5973 125.004 29.6 124.962 29.6V30.6V31.6C125.449 31.6 125.999 31.4775 126.419 31.0571C126.839 30.6368 126.962 30.0875 126.962 29.6H125.962ZM124.962 30.6V29.6H121.922V30.6V31.6H124.962V30.6ZM125.962 15V16H130.682V15V14H125.962V15ZM130.682 15V16C132.311 16 133.71 15.5 134.76 14.4158L134.042 13.72L133.324 13.0242C132.721 13.6466 131.88 14 130.682 14V15ZM134.042 13.72L134.76 14.4158C135.794 13.3487 136.282 11.9791 136.282 10.4H135.282H134.282C134.282 11.5409 133.943 12.3847 133.324 13.0242L134.042 13.72ZM135.282 10.4H136.282C136.282 8.82089 135.794 7.45134 134.76 6.3842L134.042 7.08L133.324 7.77579C133.943 8.41532 134.282 9.25911 134.282 10.4H135.282ZM134.042 7.08L134.76 6.3842C133.71 5.29996 132.311 4.8 130.682 4.8V5.8V6.8C131.88 6.8 132.721 7.15337 133.324 7.77579L134.042 7.08ZM130.682 5.8V4.8H126.962V5.8V6.8H130.682V5.8ZM126.962 5.8V4.8C126.484 4.8 125.941 4.914 125.519 5.31861C125.09 5.73053 124.962 6.27523 124.962 6.76H125.962H126.962C126.962 6.72302 126.964 6.69765 126.967 6.68219C126.969 6.66684 126.971 6.66303 126.969 6.66801C126.967 6.67334 126.962 6.68682 126.95 6.705C126.939 6.7235 126.923 6.74306 126.904 6.76138C126.885 6.77965 126.867 6.79279 126.852 6.80153C126.837 6.81005 126.828 6.81273 126.829 6.81242C126.83 6.81202 126.841 6.8088 126.863 6.80573C126.886 6.80264 126.918 6.8 126.962 6.8V5.8ZM125.962 6.76H124.962V15H125.962H126.962V6.76H125.962ZM5.99996 40.32H4.99996V41.32H5.99996V40.32ZM9.43996 40.32V41.32H10.0761L10.3457 40.7438L9.43996 40.32ZM14.68 29.12L15.5857 29.5438L15.5898 29.535L15.5938 29.5261L14.68 29.12ZM19.88 28.76L19.0058 29.2456L19.039 29.3054L19.08 29.36L19.88 28.76ZM19.88 29.56L18.9855 29.1128L18.9807 29.1224L18.9761 29.1322L19.88 29.56ZM13.84 42.32L12.9361 41.8922L12.7385 42.3096L12.9282 42.7307L13.84 42.32ZM20.2 56.44L19.2882 56.8507L19.2965 56.8691L19.3055 56.8872L20.2 56.44ZM20.2 57.28L19.3679 56.7253L19.3598 56.7375L19.352 56.75L20.2 57.28ZM14.84 56.84L15.7616 56.4519L15.7573 56.4417L15.7528 56.4316L14.84 56.84ZM9.39996 44.68L10.3128 44.2716L10.0481 43.68H9.39996V44.68ZM5.99996 44.68V43.68H4.99996V44.68H5.99996ZM1.99996 57.6V56.6C1.95791 56.6 1.92746 56.5973 1.90701 56.5944C1.88663 56.5915 1.87807 56.5886 1.87869 56.5888C1.87962 56.5891 1.88958 56.5926 1.90508 56.6019C1.91274 56.6065 1.92128 56.6122 1.93031 56.6192C1.93935 56.6263 1.94835 56.6342 1.95707 56.6429C1.96578 56.6516 1.97369 56.6606 1.98072 56.6697C1.98774 56.6787 1.99348 56.6872 1.99808 56.6949C2.00738 56.7104 2.01083 56.7203 2.01114 56.7213C2.01135 56.7219 2.00845 56.7133 2.00554 56.693C2.00261 56.6725 1.99996 56.642 1.99996 56.6H0.999961H-3.88622e-05C-3.88622e-05 57.0875 0.122508 57.6368 0.542854 58.0571C0.963201 58.4775 1.51248 58.6 1.99996 58.6V57.6ZM0.999961 56.6H1.99996V29.4H0.999961H-3.88622e-05V56.6H0.999961ZM0.999961 29.4H1.99996C1.99996 29.3579 2.00261 29.3275 2.00554 29.307C2.00845 29.2867 2.01135 29.2781 2.01114 29.2787C2.01083 29.2797 2.00738 29.2896 1.99808 29.3051C1.99348 29.3128 1.98774 29.3213 1.98072 29.3303C1.97369 29.3394 1.96578 29.3484 1.95707 29.3571C1.94835 29.3658 1.93935 29.3737 1.93031 29.3808C1.92128 29.3878 1.91274 29.3935 1.90508 29.3981C1.88958 29.4074 1.87962 29.4109 1.87869 29.4112C1.87807 29.4114 1.88663 29.4085 1.90701 29.4056C1.92746 29.4027 1.95791 29.4 1.99996 29.4V28.4V27.4C1.51248 27.4 0.963201 27.5225 0.542854 27.9429C0.122508 28.3632 -3.88622e-05 28.9125 -3.88622e-05 29.4H0.999961ZM1.99996 28.4V29.4H5.03996V28.4V27.4H1.99996V28.4ZM5.03996 28.4V29.4C5.07694 29.4 5.10231 29.4024 5.11777 29.4047C5.13312 29.407 5.13693 29.4089 5.13195 29.4072C5.12662 29.4053 5.11314 29.4 5.09496 29.3886C5.07646 29.3771 5.0569 29.3616 5.03857 29.3425C5.02031 29.3235 5.00717 29.3049 4.99843 29.2897C4.98991 29.275 4.98723 29.2663 4.98754 29.2673C4.98794 29.2685 4.99116 29.2791 4.99423 29.3015C4.99731 29.324 4.99996 29.3563 4.99996 29.4H5.99996H6.99996C6.99996 28.9225 6.88596 28.3789 6.48135 27.9575C6.06942 27.5284 5.52473 27.4 5.03996 27.4V28.4ZM5.99996 29.4H4.99996V40.32H5.99996H6.99996V29.4H5.99996ZM5.99996 40.32V41.32H9.43996V40.32V39.32H5.99996V40.32ZM9.43996 40.32L10.3457 40.7438L15.5857 29.5438L14.68 29.12L13.7742 28.6962L8.53419 39.8962L9.43996 40.32ZM14.68 29.12L15.5938 29.5261C15.6157 29.4767 15.6346 29.4497 15.6452 29.4367C15.655 29.4246 15.6602 29.4215 15.6607 29.4212C15.6614 29.4208 15.6677 29.4165 15.6859 29.4117C15.7052 29.4066 15.7414 29.4 15.8 29.4V28.4V27.4C15.3806 27.4 14.9572 27.4958 14.5792 27.7388C14.2002 27.9824 13.9373 28.3289 13.7662 28.7139L14.68 29.12ZM15.8 28.4V29.4H19.12V28.4V27.4H15.8V28.4ZM19.12 28.4V29.4C19.2054 29.4 19.2057 29.4145 19.1619 29.3937C19.1381 29.3825 19.1073 29.3635 19.076 29.3344C19.0446 29.3051 19.0214 29.2737 19.0058 29.2456L19.88 28.76L20.7541 28.2744C20.3824 27.6052 19.7077 27.4 19.12 27.4V28.4ZM19.88 28.76L19.08 29.36C19.059 29.332 19.0371 29.2936 19.0213 29.2462C19.0055 29.1989 19 29.155 19 29.12C19 29.0544 19.0187 29.0464 18.9855 29.1128L19.88 29.56L20.7744 30.0072C21.0362 29.4835 21.1455 28.7808 20.68 28.16L19.88 28.76ZM19.88 29.56L18.9761 29.1322L12.9361 41.8922L13.84 42.32L14.7438 42.7478L20.7838 29.9878L19.88 29.56ZM13.84 42.32L12.9282 42.7307L19.2882 56.8507L20.2 56.44L21.1117 56.0293L14.7517 41.9093L13.84 42.32ZM20.2 56.44L19.3055 56.8872C19.3348 56.9458 19.32 56.9423 19.32 56.89C19.32 56.8633 19.324 56.8315 19.3342 56.7984C19.3443 56.7656 19.3575 56.7409 19.3679 56.7253L20.2 57.28L21.032 57.8347C21.4414 57.2207 21.3697 56.5435 21.0944 55.9928L20.2 56.44ZM20.2 57.28L19.352 56.75C19.3753 56.7127 19.4054 56.6781 19.4399 56.6496C19.4737 56.6216 19.5036 56.6061 19.5219 56.5984C19.5536 56.585 19.5382 56.6 19.44 56.6V57.6V58.6C19.9785 58.6 20.6536 58.441 21.048 57.81L20.2 57.28ZM19.44 57.6V56.6H16V57.6V58.6H19.44V57.6ZM16 57.6V56.6C15.9351 56.6 15.894 56.5926 15.871 56.5865C15.8492 56.5807 15.8405 56.5751 15.838 56.5735C15.8356 56.572 15.8288 56.5673 15.8173 56.5529C15.8051 56.5373 15.7846 56.5066 15.7616 56.4519L14.84 56.84L13.9183 57.2281C14.0873 57.6293 14.3528 57.9915 14.7419 58.2465C15.1297 58.5005 15.5668 58.6 16 58.6V57.6ZM14.84 56.84L15.7528 56.4316L10.3128 44.2716L9.39996 44.68L8.48714 45.0884L13.9271 57.2484L14.84 56.84ZM9.39996 44.68V43.68H5.99996V44.68V45.68H9.39996V44.68ZM5.99996 44.68H4.99996V56.6H5.99996H6.99996V44.68H5.99996ZM5.99996 56.6H4.99996C4.99996 56.6437 4.99731 56.676 4.99423 56.6985C4.99116 56.7209 4.98794 56.7315 4.98754 56.7327C4.98723 56.7337 4.98991 56.725 4.99843 56.7103C5.00717 56.6951 5.02031 56.6765 5.03857 56.6575C5.0569 56.6384 5.07646 56.6229 5.09496 56.6114C5.11314 56.6 5.12662 56.5947 5.13195 56.5928C5.13693 56.5911 5.13312 56.593 5.11777 56.5953C5.10231 56.5976 5.07694 56.6 5.03996 56.6V57.6V58.6C5.52473 58.6 6.06942 58.4716 6.48135 58.0425C6.88596 57.6211 6.99996 57.0775 6.99996 56.6H5.99996ZM5.03996 57.6V56.6H1.99996V57.6V58.6H5.03996V57.6ZM27.2643 55.6L26.5631 56.313L26.5689 56.3186L27.2643 55.6ZM27.2643 30.4L26.5689 29.6814L26.5631 29.6871L27.2643 30.4ZM40.5843 30.4L39.8831 31.1129L39.8889 31.1186L40.5843 30.4ZM40.5843 55.6L39.8889 54.8814L39.8831 54.8871L40.5843 55.6ZM37.0243 52.52L37.7447 53.2136L37.751 53.2071L37.7571 53.2005L37.0243 52.52ZM37.0243 33.52L36.2915 34.2004L36.2977 34.2071L36.304 34.2136L37.0243 33.52ZM30.8643 33.52L31.5847 34.2136L31.591 34.2071L31.5971 34.2004L30.8643 33.52ZM30.8643 52.52L30.1315 53.2005L30.1377 53.2071L30.144 53.2136L30.8643 52.52ZM33.9443 58V57C31.3442 57 29.3877 56.2633 27.9598 54.8814L27.2643 55.6L26.5689 56.3186C28.4477 58.1367 30.9445 59 33.9443 59V58ZM27.2643 55.6L27.9656 54.8871C26.5736 53.5179 25.8243 51.5866 25.8243 48.96H24.8243H23.8243C23.8243 51.9867 24.7017 54.4821 26.5631 56.3129L27.2643 55.6ZM24.8243 48.96H25.8243V37.04H24.8243H23.8243V48.96H24.8243ZM24.8243 37.04H25.8243C25.8243 34.4134 26.5736 32.4821 27.9656 31.1129L27.2643 30.4L26.5631 29.6871C24.7017 31.5179 23.8243 34.0133 23.8243 37.04H24.8243ZM27.2643 30.4L27.9598 31.1186C29.3877 29.7367 31.3442 29 33.9443 29V28V27C30.9445 27 28.4477 27.8633 26.5689 29.6814L27.2643 30.4ZM33.9443 28V29C36.5452 29 38.4841 29.7369 39.8831 31.1129L40.5843 30.4L41.2856 29.6871C39.4312 27.8631 36.9435 27 33.9443 27V28ZM40.5843 30.4L39.8889 31.1186C41.3066 32.4905 42.0643 34.4079 42.0643 37H43.0643H44.0643C44.0643 33.9921 43.1688 31.5095 41.2798 29.6814L40.5843 30.4ZM43.0643 37H42.0643V48.96H43.0643H44.0643V37H43.0643ZM43.0643 48.96H42.0643C42.0643 51.5819 41.3047 53.5113 39.8889 54.8814L40.5843 55.6L41.2798 56.3186C43.1706 54.4887 44.0643 51.9914 44.0643 48.96H43.0643ZM40.5843 55.6L39.8831 54.8871C38.4841 56.2631 36.5452 57 33.9443 57V58V59C36.9435 59 39.4312 58.1369 41.2856 56.3129L40.5843 55.6ZM33.9443 53.6V54.6C35.475 54.6 36.8026 54.1919 37.7447 53.2136L37.0243 52.52L36.304 51.8264C35.8594 52.2881 35.1337 52.6 33.9443 52.6V53.6ZM37.0243 52.52L37.7571 53.2005C38.6731 52.214 39.0643 50.8861 39.0643 49.36H38.0643H37.0643C37.0643 50.5539 36.7623 51.3326 36.2915 51.8395L37.0243 52.52ZM38.0643 49.36H39.0643V36.64H38.0643H37.0643V49.36H38.0643ZM38.0643 36.64H39.0643C39.0643 35.1164 38.674 33.7915 37.7447 32.8264L37.0243 33.52L36.304 34.2136C36.7613 34.6885 37.0643 35.4436 37.0643 36.64H38.0643ZM37.0243 33.52L37.7571 32.8395C36.8172 31.8274 35.4851 31.4 33.9443 31.4V32.4V33.4C35.1235 33.4 35.8448 33.7193 36.2915 34.2004L37.0243 33.52ZM33.9443 32.4V31.4C32.4035 31.4 31.0714 31.8274 30.1315 32.8395L30.8643 33.52L31.5971 34.2004C32.0439 33.7193 32.7651 33.4 33.9443 33.4V32.4ZM30.8643 33.52L30.144 32.8264C29.2146 33.7915 28.8243 35.1164 28.8243 36.64H29.8243H30.8243C30.8243 35.4436 31.1274 34.6885 31.5847 34.2136L30.8643 33.52ZM29.8243 36.64H28.8243V49.36H29.8243H30.8243V36.64H29.8243ZM29.8243 49.36H28.8243C28.8243 50.8861 29.2156 52.214 30.1315 53.2005L30.8643 52.52L31.5971 51.8395C31.1264 51.3326 30.8243 50.5539 30.8243 49.36H29.8243ZM30.8643 52.52L30.144 53.2136C31.086 54.1919 32.4137 54.6 33.9443 54.6V53.6V52.6C32.755 52.6 32.0293 52.2881 31.5847 51.8264L30.8643 52.52ZM63.8087 29.52L63.3484 30.4078L63.355 30.4112L63.8087 29.52ZM67.2087 32.68L66.3467 33.187L66.3512 33.1945L67.2087 32.68ZM67.2087 42.16L68.0662 42.6745L68.0706 42.667L67.2087 42.16ZM63.8087 45.28L63.355 44.3888L63.3484 44.3922L63.8087 45.28ZM54.0087 46.4V45.4H53.0087V46.4H54.0087ZM54.0087 42H53.0087V43H54.0087V42ZM62.0887 40.72L61.3705 40.0242V40.0242L62.0887 40.72ZM62.0887 34.08L61.3705 34.7758V34.7758L62.0887 34.08ZM49.9687 57.6V56.6C49.9317 56.6 49.9064 56.5976 49.8909 56.5953C49.8755 56.593 49.8717 56.5911 49.8767 56.5928C49.8821 56.5947 49.8955 56.6 49.9137 56.6114C49.9322 56.6229 49.9518 56.6384 49.9701 56.6575C49.9884 56.6765 50.0015 56.6951 50.0102 56.7103C50.0188 56.725 50.0214 56.7337 50.0211 56.7327C50.0207 56.7315 50.0175 56.7209 50.0144 56.6985C50.0114 56.676 50.0087 56.6437 50.0087 56.6H49.0087H48.0087C48.0087 57.0775 48.1227 57.6211 48.5273 58.0425C48.9392 58.4716 49.4839 58.6 49.9687 58.6V57.6ZM49.0087 56.6H50.0087V29.4H49.0087H48.0087V56.6H49.0087ZM49.0087 29.4H50.0087C50.0087 29.3563 50.0114 29.324 50.0144 29.3015C50.0175 29.2791 50.0207 29.2685 50.0211 29.2673C50.0214 29.2663 50.0188 29.275 50.0102 29.2897C50.0015 29.3049 49.9884 29.3235 49.9701 29.3425C49.9518 29.3616 49.9322 29.3771 49.9137 29.3886C49.8955 29.4 49.8821 29.4053 49.8767 29.4072C49.8717 29.4089 49.8755 29.407 49.8909 29.4047C49.9064 29.4024 49.9317 29.4 49.9687 29.4V28.4V27.4C49.4839 27.4 48.9392 27.5284 48.5273 27.9575C48.1227 28.3789 48.0087 28.9225 48.0087 29.4H49.0087ZM49.9687 28.4V29.4H58.7287V28.4V27.4H49.9687V28.4ZM58.7287 28.4V29.4C60.547 29.4 62.0764 29.7482 63.3484 30.4078L63.8087 29.52L64.269 28.6322C62.661 27.7985 60.8038 27.4 58.7287 27.4V28.4ZM63.8087 29.52L63.355 30.4112C64.6595 31.0752 65.6477 31.9987 66.3468 33.187L67.2087 32.68L68.0706 32.173C67.1697 30.6413 65.8913 29.4581 64.2624 28.6288L63.8087 29.52ZM67.2087 32.68L66.3512 33.1945C67.0434 34.3482 67.4087 35.7374 67.4087 37.4H68.4087H69.4087C69.4087 35.4359 68.974 33.6785 68.0662 32.1655L67.2087 32.68ZM68.4087 37.4H67.4087C67.4087 39.0621 67.0436 40.4684 66.3468 41.653L67.2087 42.16L68.0706 42.667C68.9738 41.1316 69.4087 39.3646 69.4087 37.4H68.4087ZM67.2087 42.16L66.3512 41.6455C65.6535 42.8083 64.6646 43.7221 63.355 44.3888L63.8087 45.28L64.2624 46.1712C65.8861 45.3445 67.1639 44.1784 68.0662 42.6745L67.2087 42.16ZM63.8087 45.28L63.3484 44.3922C62.0764 45.0518 60.547 45.4 58.7287 45.4V46.4V47.4C60.8038 47.4 62.661 47.0015 64.269 46.1678L63.8087 45.28ZM58.7287 46.4V45.4H54.0087V46.4V47.4H58.7287V46.4ZM54.0087 46.4H53.0087V56.6H54.0087H55.0087V46.4H54.0087ZM54.0087 56.6H53.0087C53.0087 56.642 53.0061 56.6725 53.0031 56.693C53.0002 56.7133 52.9973 56.7219 52.9975 56.7213C52.9978 56.7203 53.0013 56.7104 53.0106 56.6949C53.0152 56.6872 53.0209 56.6787 53.028 56.6697C53.035 56.6606 53.0429 56.6516 53.0516 56.6429C53.0603 56.6342 53.0693 56.6263 53.0784 56.6192C53.0874 56.6122 53.0959 56.6065 53.1036 56.6019C53.1191 56.5926 53.1291 56.5891 53.13 56.5888C53.1306 56.5886 53.122 56.5915 53.1017 56.5944C53.0812 56.5973 53.0508 56.6 53.0087 56.6V57.6V58.6C53.4962 58.6 54.0455 58.4775 54.4658 58.0571C54.8862 57.6368 55.0087 57.0875 55.0087 56.6H54.0087ZM53.0087 57.6V56.6H49.9687V57.6V58.6H53.0087V57.6ZM54.0087 42V43H58.7287V42V41H54.0087V42ZM58.7287 42V43C60.3574 43 61.7566 42.5 62.807 41.4158L62.0887 40.72L61.3705 40.0242C60.7675 40.6466 59.9267 41 58.7287 41V42ZM62.0887 40.72L62.807 41.4158C63.8407 40.3487 64.3287 38.9791 64.3287 37.4H63.3287H62.3287C62.3287 38.5409 61.99 39.3847 61.3705 40.0242L62.0887 40.72ZM63.3287 37.4H64.3287C64.3287 35.8209 63.8407 34.4513 62.807 33.3842L62.0887 34.08L61.3705 34.7758C61.99 35.4153 62.3287 36.2591 62.3287 37.4H63.3287ZM62.0887 34.08L62.807 33.3842C61.7566 32.3 60.3574 31.8 58.7287 31.8V32.8V33.8C59.9267 33.8 60.7675 34.1534 61.3705 34.7758L62.0887 34.08ZM58.7287 32.8V31.8H55.0087V32.8V33.8H58.7287V32.8ZM55.0087 32.8V31.8C54.5312 31.8 53.9877 31.914 53.5662 32.3186C53.1371 32.7305 53.0087 33.2752 53.0087 33.76H54.0087H55.0087C55.0087 33.723 55.0111 33.6977 55.0134 33.6822C55.0157 33.6668 55.0176 33.663 55.0159 33.668C55.014 33.6733 55.0087 33.6868 54.9973 33.705C54.9858 33.7235 54.9703 33.7431 54.9512 33.7614C54.9322 33.7796 54.9136 33.7928 54.8985 33.8015C54.8837 33.8101 54.875 33.8127 54.876 33.8124C54.8772 33.812 54.8878 33.8088 54.9102 33.8057C54.9327 33.8026 54.965 33.8 55.0087 33.8V32.8ZM54.0087 33.76H53.0087V42H54.0087H55.0087V33.76H54.0087ZM73.0331 57.6H72.0331V58.6H73.0331V57.6ZM73.0331 28.4V27.4H72.0331V28.4H73.0331ZM90.7931 28.4H91.7931V27.4H90.7931V28.4ZM90.7931 57.6V58.6H91.7931V57.6H90.7931ZM85.7931 57.6H84.7931V58.6H85.7931V57.6ZM85.7931 32.92H86.7931V31.92H85.7931V32.92ZM78.0331 32.92V31.92H77.0331V32.92H78.0331ZM78.0331 57.6V58.6H79.0331V57.6H78.0331ZM73.0331 57.6H74.0331V28.4H73.0331H72.0331V57.6H73.0331ZM73.0331 28.4V29.4H90.7931V28.4V27.4H73.0331V28.4ZM90.7931 28.4H89.7931V57.6H90.7931H91.7931V28.4H90.7931ZM90.7931 57.6V56.6H85.7931V57.6V58.6H90.7931V57.6ZM85.7931 57.6H86.7931V32.92H85.7931H84.7931V57.6H85.7931ZM85.7931 32.92V31.92H78.0331V32.92V33.92H85.7931V32.92ZM78.0331 32.92H77.0331V57.6H78.0331H79.0331V32.92H78.0331ZM78.0331 57.6V56.6H73.0331V57.6V58.6H78.0331V57.6ZM100.817 57.6L99.8893 57.2278L99.339 58.6H100.817V57.6ZM103.817 50.12L104.746 50.4922L104.893 50.1241L104.748 49.7548L103.817 50.12ZM95.2975 28.4V27.4H93.831L94.3665 28.7652L95.2975 28.4ZM100.737 28.4L101.684 28.0767L101.453 27.4H100.737V28.4ZM105.137 41.28L104.191 41.6033L104.196 41.6163L105.137 41.28ZM105.817 43.64L104.842 43.8603L104.846 43.879L104.851 43.8977L105.817 43.64ZM106.217 45.6L105.223 45.7047H107.212L106.217 45.6ZM106.537 43.64L105.562 43.4197L105.559 43.4318L105.557 43.4439L106.537 43.64ZM107.137 41.28L106.183 40.9807L106.179 40.9929L106.176 41.0053L107.137 41.28ZM111.177 28.4V27.4H110.443L110.223 28.1007L111.177 28.4ZM116.497 28.4L117.439 28.7355L117.915 27.4H116.497V28.4ZM106.097 57.6V58.6H106.803L107.039 57.9355L106.097 57.6ZM100.817 57.6L101.746 57.9722L104.746 50.4922L103.817 50.12L102.889 49.7478L99.8893 57.2278L100.817 57.6ZM103.817 50.12L104.748 49.7548L96.2284 28.0348L95.2975 28.4L94.3665 28.7652L102.887 50.4852L103.817 50.12ZM95.2975 28.4V29.4H100.737V28.4V27.4H95.2975V28.4ZM100.737 28.4L99.7912 28.7233L104.191 41.6033L105.137 41.28L106.084 40.9567L101.684 28.0767L100.737 28.4ZM105.137 41.28L104.196 41.6163C104.448 42.3225 104.664 43.0703 104.842 43.8603L105.817 43.64L106.793 43.4197C106.598 42.5564 106.36 41.7308 106.079 40.9437L105.137 41.28ZM105.817 43.64L104.851 43.8977C105.058 44.6743 105.177 45.2714 105.223 45.7047L106.217 45.6L107.212 45.4953C107.151 44.9152 107.003 44.2057 106.784 43.3823L105.817 43.64ZM106.217 45.6L107.212 45.7047C107.261 45.2413 107.361 44.6215 107.518 43.8361L106.537 43.64L105.557 43.4439C105.394 44.2585 105.281 44.9454 105.223 45.4953L106.217 45.6ZM106.537 43.64L107.513 43.8603C107.696 43.0502 107.891 42.2818 108.099 41.5547L107.137 41.28L106.176 41.0053C105.957 41.7715 105.752 42.5764 105.562 43.4197L106.537 43.64ZM107.137 41.28L108.092 41.5793L112.132 28.6993L111.177 28.4L110.223 28.1007L106.183 40.9807L107.137 41.28ZM111.177 28.4V29.4H116.497V28.4V27.4H111.177V28.4ZM116.497 28.4L115.555 28.0645L105.155 57.2645L106.097 57.6L107.039 57.9355L117.439 28.7355L116.497 28.4ZM106.097 57.6V56.6H100.817V57.6V58.6H106.097V57.6ZM125.282 56.96L124.821 57.8475L124.828 57.851L124.835 57.8544L125.282 56.96ZM122.042 53.96L121.174 54.4561L121.18 54.4667L121.186 54.4771L122.042 53.96ZM122.042 32.08L121.181 31.5707L121.178 31.5761L122.042 32.08ZM125.282 29.08L125.729 29.9744L125.736 29.971L125.743 29.9675L125.282 29.08ZM136.602 30.08L135.959 30.8462L135.967 30.8523L136.602 30.08ZM139.402 35.6L140.399 35.5233L140.398 35.5159L140.398 35.5084L139.402 35.6ZM134.362 35.68L133.372 35.8248L133.374 35.8346L133.375 35.8444L134.362 35.68ZM127.042 33.52L127.736 34.2398L127.743 34.2335L127.749 34.2271L127.042 33.52ZM127.042 52.52L126.335 53.2271L126.341 53.2335L126.348 53.2398L127.042 52.52ZM134.362 50.32L133.375 50.1556L133.374 50.1654L133.372 50.1752L134.362 50.32ZM139.442 50.32L140.438 50.4105L140.44 50.3861L140.441 50.3616L139.442 50.32ZM136.642 55.92L135.999 55.1538V55.1538L136.642 55.92ZM130.202 58V57C128.43 57 126.949 56.6758 125.729 56.0656L125.282 56.96L124.835 57.8544C126.388 58.6309 128.187 59 130.202 59V58ZM125.282 56.96L125.743 56.0725C124.512 55.4333 123.572 54.5582 122.898 53.4429L122.042 53.96L121.186 54.4771C122.059 55.9218 123.279 57.0467 124.821 57.8475L125.282 56.96ZM122.042 53.96L122.91 53.4639C122.263 52.3322 121.922 50.9757 121.922 49.36H120.922H119.922C119.922 51.2643 120.327 52.9745 121.174 54.4561L122.042 53.96ZM120.922 49.36H121.922V36.64H120.922H119.922V49.36H120.922ZM120.922 36.64H121.922C121.922 35.0237 122.264 33.6845 122.906 32.5839L122.042 32.08L121.178 31.5761C120.327 33.0355 119.922 34.7363 119.922 36.64H120.922ZM122.042 32.08L122.902 32.5893C123.576 31.4517 124.51 30.5837 125.729 29.9744L125.282 29.08L124.835 28.1856C123.28 28.963 122.055 30.0949 121.181 31.5707L122.042 32.08ZM125.282 29.08L125.743 29.9675C126.96 29.3355 128.435 29 130.202 29V28V27C128.182 27 126.377 27.3845 124.821 28.1925L125.282 29.08ZM130.202 28V29C132.632 29 134.522 29.6407 135.959 30.8462L136.602 30.08L137.244 29.3138C135.375 27.746 132.999 27 130.202 27V28ZM136.602 30.08L135.967 30.8523C137.394 32.0268 138.215 33.6116 138.406 35.6916L139.402 35.6L140.398 35.5084C140.162 32.9484 139.116 30.8532 137.237 29.3077L136.602 30.08ZM139.402 35.6L138.405 35.6767C138.408 35.7225 138.408 35.7558 138.407 35.778C138.405 35.8001 138.403 35.8087 138.403 35.8066C138.404 35.8042 138.408 35.7906 138.418 35.7702C138.429 35.7493 138.445 35.7253 138.467 35.7017C138.489 35.6781 138.512 35.66 138.532 35.6473C138.552 35.6348 138.565 35.6298 138.568 35.6288C138.571 35.628 138.563 35.6309 138.541 35.634C138.52 35.6371 138.487 35.64 138.442 35.64V36.64V37.64C138.935 37.64 139.513 37.517 139.937 37.0583C140.359 36.6002 140.437 36.0149 140.399 35.5233L139.402 35.6ZM138.442 36.64V35.64H135.442V36.64V37.64H138.442V36.64ZM135.442 36.64V35.64C135.374 35.64 135.345 35.6311 135.342 35.63C135.342 35.63 135.358 35.636 135.376 35.6526C135.394 35.6686 135.396 35.6778 135.389 35.6628C135.38 35.6453 135.362 35.6006 135.348 35.5156L134.362 35.68L133.375 35.8444C133.453 36.3117 133.646 36.7902 134.047 37.1474C134.456 37.5108 134.959 37.64 135.442 37.64V36.64ZM134.362 35.68L135.351 35.5352C135.164 34.2555 134.642 33.177 133.701 32.4347C132.774 31.7037 131.567 31.4 130.202 31.4V32.4V33.4C131.29 33.4 132.003 33.643 132.463 34.0053C132.908 34.3564 133.24 34.9178 133.372 35.8248L134.362 35.68ZM130.202 32.4V31.4C128.656 31.4 127.319 31.8289 126.335 32.8129L127.042 33.52L127.749 34.2271C128.258 33.7178 129.027 33.4 130.202 33.4V32.4ZM127.042 33.52L126.348 32.8002C125.35 33.7622 124.922 35.0968 124.922 36.64H125.922H126.922C126.922 35.4632 127.24 34.7178 127.736 34.2398L127.042 33.52ZM125.922 36.64H124.922V49.36H125.922H126.922V36.64H125.922ZM125.922 49.36H124.922C124.922 50.9054 125.351 52.2431 126.335 53.2271L127.042 52.52L127.749 51.8129C127.24 51.3035 126.922 50.5346 126.922 49.36H125.922ZM127.042 52.52L126.348 53.2398C127.333 54.1901 128.666 54.6 130.202 54.6V53.6V52.6C129.018 52.6 128.244 52.2899 127.736 51.8002L127.042 52.52ZM130.202 53.6V54.6C131.567 54.6 132.774 54.2963 133.701 53.5653C134.642 52.823 135.164 51.7445 135.351 50.4648L134.362 50.32L133.372 50.1752C133.24 51.0822 132.908 51.6436 132.463 51.9947C132.003 52.357 131.29 52.6 130.202 52.6V53.6ZM134.362 50.32L135.348 50.4844C135.362 50.3994 135.38 50.3547 135.389 50.3372C135.396 50.3222 135.394 50.3314 135.376 50.3474C135.358 50.364 135.342 50.37 135.342 50.37C135.345 50.3689 135.374 50.36 135.442 50.36V49.36V48.36C134.959 48.36 134.456 48.4892 134.047 48.8526C133.646 49.2098 133.453 49.6883 133.375 50.1556L134.362 50.32ZM135.442 49.36V50.36H138.442V49.36V48.36H135.442V49.36ZM138.442 49.36V50.36C138.49 50.36 138.527 50.3628 138.554 50.3663C138.58 50.3698 138.593 50.3736 138.597 50.3747C138.6 50.3757 138.592 50.3735 138.577 50.3649C138.561 50.3561 138.541 50.342 138.519 50.3214C138.498 50.3007 138.48 50.2777 138.466 50.2547C138.452 50.2321 138.445 50.214 138.442 50.2043C138.436 50.1869 138.446 50.2052 138.443 50.2784L139.442 50.32L140.441 50.3616C140.461 49.8701 140.349 49.305 139.904 48.8786C139.477 48.4679 138.92 48.36 138.442 48.36V49.36ZM139.442 50.32L138.446 50.2295C138.254 52.3397 137.431 53.9533 135.999 55.1538L136.642 55.92L137.284 56.6862C139.16 55.1134 140.203 52.9936 140.438 50.4105L139.442 50.32ZM136.642 55.92L135.999 55.1538C134.564 56.3578 132.661 57 130.202 57V58V59C133.022 59 135.413 58.2555 137.284 56.6862L136.642 55.92ZM143.586 56.52L144.554 56.771L144.556 56.7632L143.586 56.52ZM150.426 29.24L151.396 29.4832L151.399 29.4716L150.426 29.24ZM157.266 29.24L156.293 29.4716L156.297 29.4845L157.266 29.24ZM164.146 56.52L163.177 56.7645L163.178 56.771L164.146 56.52ZM159.186 56.72L160.17 56.5411L160.166 56.5173L160.16 56.4938L159.186 56.72ZM157.746 50.52L158.72 50.2938L158.541 49.52H157.746V50.52ZM149.986 50.52V49.52H149.187L149.011 50.2997L149.986 50.52ZM148.586 56.72L149.561 56.9416L149.562 56.9403L148.586 56.72ZM150.906 46.44L149.93 46.222L149.658 47.44H150.906V46.44ZM156.826 46.44V47.44H158.076L157.802 46.221L156.826 46.44ZM155.066 38.6L156.042 38.3809L156.039 38.3684L155.066 38.6ZM154.706 37.04L153.72 37.2044L153.724 37.2308L153.73 37.2569L154.706 37.04ZM154.466 35.68L155.449 35.4957L155.446 35.4793L155.442 35.4631L154.466 35.68ZM153.906 34.8L153.459 35.6944L153.496 35.713L153.535 35.7285L153.906 34.8ZM153.386 35.2L152.406 35.0039L152.402 35.0239L152.398 35.044L153.386 35.2ZM153.066 36.8L152.093 36.5684L152.088 36.5905L152.084 36.6129L153.066 36.8ZM152.666 38.56L151.699 38.3076L151.694 38.3247L151.69 38.342L152.666 38.56ZM144.426 57.6V56.6C144.313 56.6 144.275 56.5855 144.285 56.5888C144.302 56.595 144.376 56.6273 144.446 56.7161C144.515 56.8051 144.528 56.8859 144.53 56.9064C144.531 56.918 144.526 56.879 144.554 56.771L143.586 56.52L142.618 56.269C142.496 56.7407 142.442 57.3979 142.867 57.9439C143.29 58.4885 143.939 58.6 144.426 58.6V57.6ZM143.586 56.52L144.556 56.7632L151.396 29.4832L150.426 29.24L149.456 28.9968L142.616 56.2768L143.586 56.52ZM150.426 29.24L151.399 29.4716C151.413 29.4111 151.428 29.3844 151.431 29.3789C151.433 29.3756 151.427 29.3864 151.41 29.3993C151.394 29.4121 151.384 29.414 151.392 29.4114C151.403 29.4082 151.438 29.4 151.506 29.4V28.4V27.4C151.055 27.4 150.583 27.5093 150.182 27.8206C149.78 28.1336 149.559 28.5663 149.453 29.0084L150.426 29.24ZM151.506 28.4V29.4H156.186V28.4V27.4H151.506V28.4ZM156.186 28.4V29.4C156.254 29.4 156.289 29.4082 156.3 29.4114C156.309 29.414 156.299 29.4121 156.282 29.3994C156.266 29.3864 156.259 29.3756 156.261 29.3789C156.265 29.3844 156.279 29.4111 156.293 29.4716L157.266 29.24L158.239 29.0084C158.134 28.5663 157.913 28.1336 157.51 27.8206C157.11 27.5093 156.638 27.4 156.186 27.4V28.4ZM157.266 29.24L156.297 29.4845L163.177 56.7645L164.146 56.52L165.116 56.2755L158.236 28.9955L157.266 29.24ZM164.146 56.52L163.178 56.771C163.206 56.879 163.201 56.918 163.202 56.9064C163.204 56.8859 163.218 56.8051 163.287 56.7161C163.356 56.6273 163.43 56.595 163.448 56.5888C163.457 56.5855 163.419 56.6 163.306 56.6V57.6V58.6C163.793 58.6 164.442 58.4885 164.866 57.9439C165.29 57.3979 165.236 56.7407 165.114 56.269L164.146 56.52ZM163.306 57.6V56.6H160.226V57.6V58.6H163.306V57.6ZM160.226 57.6V56.6C160.162 56.6 160.134 56.5918 160.131 56.591C160.13 56.5907 160.135 56.5921 160.143 56.5967C160.152 56.6014 160.162 56.608 160.172 56.6166C160.194 56.6355 160.202 56.6508 160.2 56.647C160.197 56.6407 160.183 56.6098 160.17 56.5411L159.186 56.72L158.202 56.8989C158.284 57.3482 158.481 57.8056 158.88 58.1434C159.281 58.4829 159.767 58.6 160.226 58.6V57.6ZM159.186 56.72L160.16 56.4938L158.72 50.2938L157.746 50.52L156.772 50.7462L158.212 56.9462L159.186 56.72ZM157.746 50.52V49.52H149.986V50.52V51.52H157.746V50.52ZM149.986 50.52L149.011 50.2997L147.611 56.4997L148.586 56.72L149.562 56.9403L150.962 50.7403L149.986 50.52ZM148.586 56.72L147.611 56.4984C147.595 56.5689 147.578 56.604 147.571 56.616C147.566 56.6258 147.569 56.6175 147.585 56.6048C147.6 56.5918 147.612 56.5885 147.608 56.5898C147.601 56.5919 147.57 56.6 147.506 56.6V57.6V58.6C147.968 58.6 148.447 58.4821 148.848 58.1552C149.246 57.8306 149.46 57.3878 149.561 56.9416L148.586 56.72ZM147.506 57.6V56.6H144.426V57.6V58.6H147.506V57.6ZM150.906 46.44V47.44H156.826V46.44V45.44H150.906V46.44ZM156.826 46.44L157.802 46.221L156.042 38.381L155.066 38.6L154.09 38.819L155.85 46.659L156.826 46.44ZM155.066 38.6L156.039 38.3684C155.907 37.8125 155.788 37.2974 155.682 36.8231L154.706 37.04L153.73 37.2569C153.838 37.7426 153.959 38.2675 154.093 38.8316L155.066 38.6ZM154.706 37.04L155.693 36.8756C155.612 36.3897 155.53 35.9297 155.449 35.4957L154.466 35.68L153.483 35.8643C153.562 36.2836 153.641 36.7303 153.72 37.2044L154.706 37.04ZM154.466 35.68L155.442 35.4631C155.315 34.8891 155.018 34.1677 154.278 33.8715L153.906 34.8L153.535 35.7285C153.49 35.7104 153.454 35.6865 153.43 35.6648C153.406 35.6442 153.399 35.6311 153.403 35.6369C153.407 35.6431 153.419 35.6651 153.436 35.7097C153.453 35.754 153.472 35.8153 153.49 35.8969L154.466 35.68ZM153.906 34.8L154.353 33.9056C154.023 33.7402 153.467 33.6222 152.966 34.0074C152.58 34.3045 152.457 34.7476 152.406 35.0039L153.386 35.2L154.367 35.3961C154.376 35.3484 154.381 35.3494 154.367 35.3791C154.354 35.4075 154.304 35.502 154.186 35.5926C154.053 35.6946 153.888 35.75 153.724 35.75C153.578 35.75 153.484 35.7071 153.459 35.6944L153.906 34.8ZM153.386 35.2L152.398 35.044C152.323 35.5225 152.221 36.0304 152.093 36.5684L153.066 36.8L154.039 37.0316C154.178 36.4496 154.29 35.8909 154.374 35.356L153.386 35.2ZM153.066 36.8L152.084 36.6129C151.982 37.1487 151.854 37.7135 151.699 38.3076L152.666 38.56L153.634 38.8124C153.799 38.1798 153.937 37.5713 154.049 36.9871L153.066 36.8ZM152.666 38.56L151.69 38.342L149.93 46.222L150.906 46.44L151.882 46.658L153.642 38.778L152.666 38.56ZM5.35996 83.96L4.89915 84.8475L4.90592 84.851L4.91275 84.8544L5.35996 83.96ZM2.11996 80.96L1.25172 81.4561L1.25775 81.4667L1.26405 81.4771L2.11996 80.96ZM2.11996 59.08L1.25937 58.5707L1.25618 58.5761L2.11996 59.08ZM5.35996 56.08L5.80717 56.9744L5.814 56.971L5.82078 56.9675L5.35996 56.08ZM16.68 57.08L16.0373 57.8462L16.0447 57.8523L16.68 57.08ZM19.48 62.6L20.477 62.5233L20.4764 62.5159L20.4758 62.5084L19.48 62.6ZM14.44 62.68L13.4505 62.8248L13.4519 62.8346L13.4536 62.8444L14.44 62.68ZM7.11996 60.52L7.8141 61.2398L7.82064 61.2335L7.82707 61.2271L7.11996 60.52ZM7.11996 79.52L6.41286 80.2271L6.41928 80.2335L6.42583 80.2398L7.11996 79.52ZM14.44 77.32L13.4536 77.1556L13.4519 77.1654L13.4505 77.1752L14.44 77.32ZM19.52 77.32L20.5159 77.4105L20.5181 77.3861L20.5191 77.3616L19.52 77.32ZM16.72 82.92L16.0773 82.1538V82.1538L16.72 82.92ZM10.28 85V84C8.50807 84 7.02762 83.6758 5.80717 83.0656L5.35996 83.96L4.91275 84.8544C6.46564 85.6309 8.26519 86 10.28 86V85ZM5.35996 83.96L5.82078 83.0725C4.58971 82.4333 3.64972 81.5582 2.97588 80.4429L2.11996 80.96L1.26405 81.4771C2.13687 82.9218 3.35687 84.0467 4.89915 84.8475L5.35996 83.96ZM2.11996 80.96L2.9882 80.4639C2.34152 79.3322 1.99996 77.9757 1.99996 76.36H0.999961H-3.88622e-05C-3.88622e-05 78.2643 0.405068 79.9745 1.25172 81.4561L2.11996 80.96ZM0.999961 76.36H1.99996V63.64H0.999961H-3.88622e-05V76.36H0.999961ZM0.999961 63.64H1.99996C1.99996 62.0237 2.34173 60.6845 2.98374 59.5839L2.11996 59.08L1.25618 58.5761C0.404857 60.0355 -3.88622e-05 61.7363 -3.88622e-05 63.64H0.999961ZM2.11996 59.08L2.98054 59.5893C3.6538 58.4517 4.58861 57.5837 5.80717 56.9744L5.35996 56.08L4.91275 55.1856C3.35798 55.963 2.13279 57.0949 1.25938 58.5707L2.11996 59.08ZM5.35996 56.08L5.82078 56.9675C7.03798 56.3355 8.51342 56 10.28 56V55V54C8.25983 54 6.45528 54.3845 4.89915 55.1925L5.35996 56.08ZM10.28 55V56C12.7099 56 14.6 56.6407 16.0373 57.8462L16.68 57.08L17.3226 56.3138C15.4532 54.746 13.0767 54 10.28 54V55ZM16.68 57.08L16.0447 57.8523C17.4725 59.0268 18.2929 60.6116 18.4842 62.6916L19.48 62.6L20.4758 62.5084C20.2404 59.9484 19.1941 57.8532 17.3152 56.3077L16.68 57.08ZM19.48 62.6L18.4829 62.6767C18.4864 62.7225 18.4861 62.7558 18.4846 62.778C18.4832 62.8001 18.4808 62.8087 18.4813 62.8066C18.4819 62.8042 18.4857 62.7906 18.4964 62.7702C18.5073 62.7493 18.5233 62.7253 18.5452 62.7017C18.567 62.6781 18.5897 62.66 18.61 62.6473C18.6298 62.6348 18.6434 62.6298 18.6463 62.6288C18.6488 62.628 18.6409 62.6309 18.6195 62.634C18.598 62.6371 18.5654 62.64 18.52 62.64V63.64V64.64C19.0135 64.64 19.5913 64.517 20.0148 64.0583C20.4376 63.6002 20.5148 63.0149 20.477 62.5233L19.48 62.6ZM18.52 63.64V62.64H15.52V63.64V64.64H18.52V63.64ZM15.52 63.64V62.64C15.4524 62.64 15.423 62.6311 15.4198 62.63C15.4197 62.63 15.4357 62.636 15.4543 62.6526C15.4723 62.6686 15.4741 62.6778 15.4668 62.6628C15.4583 62.6453 15.4405 62.6006 15.4264 62.5156L14.44 62.68L13.4536 62.8444C13.5315 63.3117 13.7237 63.7902 14.1256 64.1474C14.5344 64.5108 15.0374 64.64 15.52 64.64V63.64ZM14.44 62.68L15.4294 62.5352C15.2421 61.2555 14.7205 60.177 13.7791 59.4347C12.8519 58.7037 11.6452 58.4 10.28 58.4V59.4V60.4C11.3681 60.4 12.0813 60.643 12.5408 61.0053C12.9861 61.3564 13.3178 61.9178 13.4505 62.8248L14.44 62.68ZM10.28 59.4V58.4C8.7346 58.4 7.39684 58.8289 6.41285 59.8129L7.11996 60.52L7.82707 61.2271C8.33641 60.7178 9.10532 60.4 10.28 60.4V59.4ZM7.11996 60.52L6.42583 59.8002C5.42815 60.7622 4.99996 62.0968 4.99996 63.64H5.99996H6.99996C6.99996 62.4632 7.31843 61.7178 7.8141 61.2398L7.11996 60.52ZM5.99996 63.64H4.99996V76.36H5.99996H6.99996V63.64H5.99996ZM5.99996 76.36H4.99996C4.99996 77.9054 5.42887 79.2431 6.41286 80.2271L7.11996 79.52L7.82707 78.8129C7.31772 78.3035 6.99996 77.5346 6.99996 76.36H5.99996ZM7.11996 79.52L6.42583 80.2398C7.41125 81.1901 8.7443 81.6 10.28 81.6V80.6V79.6C9.09562 79.6 8.322 79.2899 7.8141 78.8002L7.11996 79.52ZM10.28 80.6V81.6C11.6452 81.6 12.8519 81.2963 13.7791 80.5653C14.7205 79.823 15.2421 78.7445 15.4294 77.4648L14.44 77.32L13.4505 77.1752C13.3178 78.0822 12.9861 78.6436 12.5408 78.9947C12.0813 79.357 11.3681 79.6 10.28 79.6V80.6ZM14.44 77.32L15.4264 77.4844C15.4405 77.3994 15.4583 77.3547 15.4668 77.3372C15.4741 77.3222 15.4723 77.3314 15.4543 77.3474C15.4357 77.364 15.4197 77.37 15.4198 77.37C15.423 77.3689 15.4524 77.36 15.52 77.36V76.36V75.36C15.0374 75.36 14.5344 75.4892 14.1256 75.8526C13.7237 76.2098 13.5315 76.6883 13.4536 77.1556L14.44 77.32ZM15.52 76.36V77.36H18.52V76.36V75.36H15.52V76.36ZM18.52 76.36V77.36C18.5686 77.36 18.6053 77.3628 18.6316 77.3663C18.658 77.3698 18.6715 77.3736 18.6749 77.3747C18.678 77.3757 18.6701 77.3735 18.6549 77.3649C18.6393 77.3561 18.6189 77.342 18.5974 77.3214C18.5758 77.3007 18.5577 77.2777 18.5438 77.2547C18.53 77.2321 18.523 77.214 18.5199 77.2043C18.5143 77.1869 18.5239 77.2052 18.5208 77.2784L19.52 77.32L20.5191 77.3616C20.5396 76.8701 20.4267 76.305 19.9825 75.8786C19.5547 75.4679 18.9979 75.36 18.52 75.36V76.36ZM19.52 77.32L18.5241 77.2295C18.3322 79.3397 17.5087 80.9533 16.0773 82.1538L16.72 82.92L17.3626 83.6862C19.2379 82.1134 20.281 79.9936 20.5159 77.4105L19.52 77.32ZM16.72 82.92L16.0773 82.1538C14.6418 83.3578 12.7394 84 10.28 84V85V86C13.1005 86 15.4914 85.2555 17.3626 83.6862L16.72 82.92ZM24.8243 84.6H23.8243V85.6H24.8243V84.6ZM24.8243 55.4V54.4H23.8243V55.4H24.8243ZM29.3843 55.4H30.3843V54.4H29.3843V55.4ZM29.3043 72.84L30.3033 72.8865V72.8865L29.3043 72.84ZM29.1043 76.2L28.107 76.127V76.127L29.1043 76.2ZM28.9043 79L27.9067 78.9312L29.8509 79.3225L28.9043 79ZM36.9443 55.4V54.4H36.2286L35.9978 55.0775L36.9443 55.4ZM43.0643 55.4H44.0643V54.4H43.0643V55.4ZM43.0643 84.6V85.6H44.0643V84.6H43.0643ZM38.5043 84.6H37.5043V85.6H38.5043V84.6ZM38.5843 67.56L37.5866 67.4935L37.5858 67.5045L37.5853 67.5156L38.5843 67.56ZM38.8243 64.04L39.8219 64.1096L39.822 64.108L38.8243 64.04ZM39.0643 61L40.06 61.0933L38.1187 60.6746L39.0643 61ZM30.9443 84.6V85.6H31.6578L31.8899 84.9253L30.9443 84.6ZM24.8243 84.6H25.8243V55.4H24.8243H23.8243V84.6H24.8243ZM24.8243 55.4V56.4H29.3843V55.4V54.4H24.8243V55.4ZM29.3843 55.4H28.3843V69.68H29.3843H30.3843V55.4H29.3843ZM29.3843 69.68H28.3843C28.3843 70.6219 28.3582 71.6595 28.3054 72.7935L29.3043 72.84L30.3033 72.8865C30.3572 71.7272 30.3843 70.6581 30.3843 69.68H29.3843ZM29.3043 72.84L28.3054 72.7935C28.2525 73.9318 28.1863 75.0429 28.107 76.127L29.1043 76.2L30.1017 76.273C30.1823 75.1704 30.2495 74.0416 30.3033 72.8865L29.3043 72.84ZM29.1043 76.2L28.107 76.127C28.0269 77.2212 27.9602 78.156 27.9067 78.9312L28.9043 79L29.902 79.0688C29.9552 78.2973 30.0217 77.3654 30.1017 76.273L29.1043 76.2ZM28.9043 79L29.8509 79.3225L37.8909 55.7225L36.9443 55.4L35.9978 55.0775L27.9578 78.6775L28.9043 79ZM36.9443 55.4V56.4H43.0643V55.4V54.4H36.9443V55.4ZM43.0643 55.4H42.0643V84.6H43.0643H44.0643V55.4H43.0643ZM43.0643 84.6V83.6H38.5043V84.6V85.6H43.0643V84.6ZM38.5043 84.6H39.5043V70.76H38.5043H37.5043V84.6H38.5043ZM38.5043 70.76H39.5043C39.5043 69.845 39.5305 68.7936 39.5834 67.6044L38.5843 67.56L37.5853 67.5156C37.5315 68.7264 37.5043 69.8084 37.5043 70.76H38.5043ZM38.5843 67.56L39.5821 67.6265C39.6621 66.4275 39.742 65.2552 39.8219 64.1096L38.8243 64.04L37.8268 63.9704C37.7467 65.1181 37.6666 66.2925 37.5866 67.4935L38.5843 67.56ZM38.8243 64.04L39.822 64.108C39.9016 62.9403 39.981 61.9358 40.06 61.0933L39.0643 61L38.0687 60.9067C37.9877 61.7709 37.907 62.7931 37.8267 63.972L38.8243 64.04ZM39.0643 61L38.1187 60.6746L29.9987 84.2747L30.9443 84.6L31.8899 84.9253L40.0099 61.3253L39.0643 61ZM30.9443 84.6V83.6H24.8243V84.6V85.6H30.9443V84.6ZM53.3287 83.96L52.8679 84.8475L52.8747 84.851L52.8815 84.8544L53.3287 83.96ZM50.0887 80.96L49.2205 81.4561L49.2265 81.4667L49.2328 81.4771L50.0887 80.96ZM50.0887 59.08L49.2281 58.5707L49.2249 58.5761L50.0887 59.08ZM53.3287 56.08L53.7759 56.9744L53.7828 56.971L53.7895 56.9675L53.3287 56.08ZM64.6487 57.08L64.0061 57.8462L64.0134 57.8523L64.6487 57.08ZM67.4487 62.6L68.4458 62.5233L68.4452 62.5159L68.4445 62.5084L67.4487 62.6ZM62.4087 62.68L61.4193 62.8248L61.4207 62.8346L61.4223 62.8444L62.4087 62.68ZM55.0887 60.52L55.7828 61.2398L55.7894 61.2335L55.7958 61.2271L55.0887 60.52ZM55.0887 79.52L54.3816 80.2271L54.388 80.2335L54.3946 80.2398L55.0887 79.52ZM62.4087 77.32L61.4223 77.1556L61.4207 77.1654L61.4193 77.1752L62.4087 77.32ZM67.4887 77.32L68.4846 77.4105L68.4868 77.3861L68.4878 77.3616L67.4887 77.32ZM64.6887 82.92L64.0461 82.1538V82.1538L64.6887 82.92ZM58.2487 85V84C56.4768 84 54.9964 83.6758 53.7759 83.0656L53.3287 83.96L52.8815 84.8544C54.4344 85.6309 56.2339 86 58.2487 86V85ZM53.3287 83.96L53.7895 83.0725C52.5585 82.4333 51.6185 81.5582 50.9446 80.4429L50.0887 80.96L49.2328 81.4771C50.1056 82.9218 51.3256 84.0467 52.8679 84.8475L53.3287 83.96ZM50.0887 80.96L50.957 80.4639C50.3103 79.3322 49.9687 77.9757 49.9687 76.36H48.9687H47.9687C47.9687 78.2643 48.3738 79.9745 49.2205 81.4561L50.0887 80.96ZM48.9687 76.36H49.9687V63.64H48.9687H47.9687V76.36H48.9687ZM48.9687 63.64H49.9687C49.9687 62.0237 50.3105 60.6845 50.9525 59.5839L50.0887 59.08L49.2249 58.5761C48.3736 60.0355 47.9687 61.7363 47.9687 63.64H48.9687ZM50.0887 59.08L50.9493 59.5893C51.6226 58.4517 52.5574 57.5837 53.7759 56.9744L53.3287 56.08L52.8815 55.1856C51.3267 55.963 50.1015 57.0949 49.2281 58.5707L50.0887 59.08ZM53.3287 56.08L53.7895 56.9675C55.0067 56.3355 56.4822 56 58.2487 56V55V54C56.2286 54 54.424 54.3845 52.8679 55.1925L53.3287 56.08ZM58.2487 55V56C60.6786 56 62.5688 56.6407 64.0061 57.8462L64.6487 57.08L65.2913 56.3138C63.422 54.746 61.0455 54 58.2487 54V55ZM64.6487 57.08L64.0134 57.8523C65.4413 59.0268 66.2617 60.6116 66.4529 62.6916L67.4487 62.6L68.4445 62.5084C68.2091 59.9484 67.1628 57.8532 65.284 56.3077L64.6487 57.08ZM67.4487 62.6L66.4517 62.6767C66.4552 62.7225 66.4548 62.7558 66.4534 62.778C66.4519 62.8001 66.4495 62.8087 66.4501 62.8066C66.4507 62.8042 66.4544 62.7906 66.4651 62.7702C66.4761 62.7493 66.4921 62.7253 66.5139 62.7017C66.5357 62.6781 66.5585 62.66 66.5788 62.6473C66.5985 62.6348 66.6121 62.6298 66.615 62.6288C66.6176 62.628 66.6097 62.6309 66.5882 62.634C66.5668 62.6371 66.5342 62.64 66.4887 62.64V63.64V64.64C66.9823 64.64 67.5601 64.517 67.9835 64.0583C68.4063 63.6002 68.4836 63.0149 68.4458 62.5233L67.4487 62.6ZM66.4887 63.64V62.64H63.4887V63.64V64.64H66.4887V63.64ZM63.4887 63.64V62.64C63.4212 62.64 63.3918 62.6311 63.3885 62.63C63.3884 62.63 63.4044 62.636 63.4231 62.6526C63.441 62.6686 63.4428 62.6778 63.4356 62.6628C63.4271 62.6453 63.4093 62.6006 63.3951 62.5156L62.4087 62.68L61.4223 62.8444C61.5002 63.3117 61.6925 63.7902 62.0943 64.1474C62.5032 64.5108 63.0062 64.64 63.4887 64.64V63.64ZM62.4087 62.68L63.3982 62.5352C63.2109 61.2555 62.6892 60.177 61.7479 59.4347C60.8207 58.7037 59.6139 58.4 58.2487 58.4V59.4V60.4C59.3368 60.4 60.0501 60.643 60.5096 61.0053C60.9548 61.3564 61.2865 61.9178 61.4193 62.8248L62.4087 62.68ZM58.2487 59.4V58.4C56.7034 58.4 55.3656 58.8289 54.3816 59.8129L55.0887 60.52L55.7958 61.2271C56.3052 60.7178 57.0741 60.4 58.2487 60.4V59.4ZM55.0887 60.52L54.3946 59.8002C53.3969 60.7622 52.9687 62.0968 52.9687 63.64H53.9687H54.9687C54.9687 62.4632 55.2872 61.7178 55.7828 61.2398L55.0887 60.52ZM53.9687 63.64H52.9687V76.36H53.9687H54.9687V63.64H53.9687ZM53.9687 76.36H52.9687C52.9687 77.9054 53.3976 79.2431 54.3816 80.2271L55.0887 79.52L55.7958 78.8129C55.2865 78.3035 54.9687 77.5346 54.9687 76.36H53.9687ZM55.0887 79.52L54.3946 80.2398C55.38 81.1901 56.713 81.6 58.2487 81.6V80.6V79.6C57.0644 79.6 56.2907 79.2899 55.7828 78.8002L55.0887 79.52ZM58.2487 80.6V81.6C59.6139 81.6 60.8207 81.2963 61.7479 80.5653C62.6892 79.823 63.2109 78.7445 63.3982 77.4648L62.4087 77.32L61.4193 77.1752C61.2865 78.0822 60.9548 78.6436 60.5096 78.9947C60.0501 79.357 59.3368 79.6 58.2487 79.6V80.6ZM62.4087 77.32L63.3951 77.4844C63.4093 77.3994 63.4271 77.3547 63.4356 77.3372C63.4428 77.3222 63.441 77.3314 63.4231 77.3474C63.4044 77.364 63.3884 77.37 63.3885 77.37C63.3918 77.3689 63.4212 77.36 63.4887 77.36V76.36V75.36C63.0062 75.36 62.5032 75.4892 62.0943 75.8526C61.6925 76.2098 61.5002 76.6883 61.4223 77.1556L62.4087 77.32ZM63.4887 76.36V77.36H66.4887V76.36V75.36H63.4887V76.36ZM66.4887 76.36V77.36C66.5373 77.36 66.5741 77.3628 66.6004 77.3663C66.6267 77.3698 66.6402 77.3736 66.6436 77.3747C66.6468 77.3757 66.6388 77.3735 66.6236 77.3649C66.608 77.3561 66.5876 77.342 66.5662 77.3214C66.5446 77.3007 66.5265 77.2777 66.5125 77.2547C66.4988 77.2321 66.4917 77.214 66.4886 77.2043C66.4831 77.1869 66.4926 77.2052 66.4896 77.2784L67.4887 77.32L68.4878 77.3616C68.5083 76.8701 68.3954 76.305 67.9512 75.8786C67.5234 75.4679 66.9666 75.36 66.4887 75.36V76.36ZM67.4887 77.32L66.4928 77.2295C66.301 79.3397 65.4775 80.9533 64.0461 82.1538L64.6887 82.92L65.3313 83.6862C67.2066 82.1134 68.2498 79.9936 68.4846 77.4105L67.4887 77.32ZM64.6887 82.92L64.0461 82.1538C62.6106 83.3578 60.7081 84 58.2487 84V85V86C61.0693 86 63.4602 85.2555 65.3313 83.6862L64.6887 82.92ZM79.3931 59.92H80.3931V58.92H79.3931V59.92ZM84.4331 59.92V58.92H83.4331V59.92H84.4331ZM80.3931 84.6V83.6C80.351 83.6 80.3206 83.5973 80.3001 83.5944C80.2798 83.5915 80.2712 83.5886 80.2718 83.5888C80.2727 83.5891 80.2827 83.5926 80.2982 83.6019C80.3059 83.6065 80.3144 83.6122 80.3234 83.6192C80.3325 83.6263 80.3415 83.6342 80.3502 83.6429C80.3589 83.6516 80.3668 83.6606 80.3738 83.6697C80.3809 83.6787 80.3866 83.6872 80.3912 83.6949C80.4005 83.7104 80.404 83.7203 80.4043 83.7213C80.4045 83.7219 80.4016 83.7133 80.3987 83.693C80.3957 83.6725 80.3931 83.6421 80.3931 83.6H79.3931H78.3931C78.3931 84.0875 78.5156 84.6368 78.936 85.0571C79.3563 85.4775 79.9056 85.6 80.3931 85.6V84.6ZM79.3931 83.6H80.3931V59.92H79.3931H78.3931V83.6H79.3931ZM79.3931 59.92V58.92H72.7531V59.92V60.92H79.3931V59.92ZM72.7531 59.92V58.92C72.711 58.92 72.6806 58.9173 72.6601 58.9144C72.6398 58.9115 72.6312 58.9086 72.6318 58.9088C72.6327 58.9091 72.6427 58.9126 72.6582 58.9219C72.6659 58.9265 72.6744 58.9322 72.6834 58.9392C72.6925 58.9463 72.7015 58.9542 72.7102 58.9629C72.7189 58.9716 72.7268 58.9806 72.7338 58.9897C72.7409 58.9987 72.7466 59.0072 72.7512 59.0149C72.7605 59.0304 72.764 59.0403 72.7643 59.0413C72.7645 59.0419 72.7616 59.0333 72.7587 59.013C72.7557 58.9925 72.7531 58.962 72.7531 58.92H71.7531H70.7531C70.7531 59.4075 70.8756 59.9568 71.296 60.3771C71.7163 60.7975 72.2656 60.92 72.7531 60.92V59.92ZM71.7531 58.92H72.7531V56.4H71.7531H70.7531V58.92H71.7531ZM71.7531 56.4H72.7531C72.7531 56.3579 72.7557 56.3275 72.7587 56.307C72.7616 56.2867 72.7645 56.2781 72.7643 56.2787C72.764 56.2797 72.7605 56.2896 72.7512 56.3051C72.7466 56.3128 72.7409 56.3213 72.7338 56.3303C72.7268 56.3394 72.7189 56.3484 72.7102 56.3571C72.7015 56.3658 72.6925 56.3737 72.6834 56.3808C72.6744 56.3878 72.6659 56.3935 72.6582 56.3981C72.6427 56.4074 72.6327 56.4109 72.6318 56.4112C72.6312 56.4114 72.6398 56.4085 72.6601 56.4056C72.6806 56.4026 72.711 56.4 72.7531 56.4V55.4V54.4C72.2656 54.4 71.7163 54.5225 71.296 54.9429C70.8756 55.3632 70.7531 55.9125 70.7531 56.4H71.7531ZM72.7531 55.4V56.4H91.0731V55.4V54.4H72.7531V55.4ZM91.0731 55.4V56.4C91.1151 56.4 91.1456 56.4026 91.166 56.4056C91.1864 56.4085 91.195 56.4114 91.1944 56.4112C91.1934 56.4109 91.1835 56.4074 91.168 56.3981C91.1603 56.3935 91.1518 56.3878 91.1427 56.3808C91.1337 56.3737 91.1247 56.3658 91.116 56.3571C91.1073 56.3484 91.0994 56.3394 91.0923 56.3303C91.0853 56.3213 91.0796 56.3128 91.075 56.3051C91.0657 56.2896 91.0622 56.2797 91.0619 56.2787C91.0617 56.2781 91.0646 56.2867 91.0675 56.307C91.0704 56.3275 91.0731 56.3579 91.0731 56.4H92.0731H93.0731C93.0731 55.9125 92.9505 55.3632 92.5302 54.9429C92.1098 54.5225 91.5606 54.4 91.0731 54.4V55.4ZM92.0731 56.4H91.0731V58.92H92.0731H93.0731V56.4H92.0731ZM92.0731 58.92H91.0731C91.0731 58.962 91.0704 58.9925 91.0675 59.013C91.0646 59.0333 91.0617 59.0419 91.0619 59.0413C91.0622 59.0403 91.0657 59.0304 91.075 59.0149C91.0796 59.0072 91.0853 58.9987 91.0923 58.9897C91.0994 58.9806 91.1073 58.9716 91.116 58.9629C91.1247 58.9542 91.1337 58.9463 91.1427 58.9392C91.1518 58.9322 91.1603 58.9265 91.168 58.9219C91.1835 58.9126 91.1934 58.9091 91.1944 58.9088C91.195 58.9086 91.1864 58.9115 91.166 58.9144C91.1456 58.9173 91.1151 58.92 91.0731 58.92V59.92V60.92C91.5606 60.92 92.1098 60.7974 92.5302 60.3771C92.9505 59.9568 93.0731 59.4075 93.0731 58.92H92.0731ZM91.0731 59.92V58.92H84.4331V59.92V60.92H91.0731V59.92ZM84.4331 59.92H83.4331V83.6H84.4331H85.4331V59.92H84.4331ZM84.4331 83.6H83.4331C83.4331 83.6421 83.4304 83.6725 83.4275 83.693C83.4246 83.7133 83.4217 83.7219 83.4219 83.7213C83.4222 83.7203 83.4257 83.7104 83.435 83.6949C83.4396 83.6872 83.4453 83.6787 83.4523 83.6697C83.4594 83.6606 83.4673 83.6516 83.476 83.6429C83.4847 83.6342 83.4937 83.6263 83.5027 83.6192C83.5118 83.6122 83.5203 83.6065 83.528 83.6019C83.5435 83.5926 83.5534 83.5891 83.5544 83.5888C83.555 83.5886 83.5464 83.5915 83.526 83.5944C83.5056 83.5973 83.4751 83.6 83.4331 83.6V84.6V85.6C83.9206 85.6 84.4698 85.4775 84.8902 85.0571C85.3105 84.6368 85.4331 84.0875 85.4331 83.6H84.4331ZM83.4331 84.6V83.6H80.3931V84.6V85.6H83.4331V84.6ZM102.337 67.4H101.337V68.4H102.337V67.4ZM102.337 71.64V70.64H101.337V71.64H102.337ZM98.4175 84.6V83.6C98.3754 83.6 98.345 83.5973 98.3245 83.5944C98.3041 83.5915 98.2956 83.5886 98.2962 83.5888C98.2971 83.5891 98.3071 83.5926 98.3226 83.6019C98.3302 83.6065 98.3388 83.6122 98.3478 83.6192C98.3568 83.6263 98.3659 83.6342 98.3746 83.6429C98.3833 83.6516 98.3912 83.6606 98.3982 83.6697C98.4052 83.6787 98.411 83.6872 98.4156 83.6949C98.4249 83.7104 98.4283 83.7203 98.4286 83.7213C98.4288 83.7219 98.4259 83.7133 98.423 83.693C98.4201 83.6725 98.4175 83.6421 98.4175 83.6H97.4175H96.4175C96.4175 84.0875 96.54 84.6368 96.9604 85.0571C97.3807 85.4775 97.93 85.6 98.4175 85.6V84.6ZM97.4175 83.6H98.4175V56.4H97.4175H96.4175V83.6H97.4175ZM97.4175 56.4H98.4175C98.4175 56.3579 98.4201 56.3275 98.423 56.307C98.4259 56.2867 98.4288 56.2781 98.4286 56.2787C98.4283 56.2797 98.4249 56.2896 98.4156 56.3051C98.411 56.3128 98.4052 56.3213 98.3982 56.3303C98.3912 56.3394 98.3833 56.3484 98.3746 56.3571C98.3659 56.3658 98.3568 56.3737 98.3478 56.3808C98.3388 56.3878 98.3302 56.3935 98.3226 56.3981C98.3071 56.4074 98.2971 56.4109 98.2962 56.4112C98.2956 56.4114 98.3041 56.4085 98.3245 56.4056C98.345 56.4026 98.3754 56.4 98.4175 56.4V55.4V54.4C97.93 54.4 97.3807 54.5225 96.9604 54.9429C96.54 55.3632 96.4175 55.9125 96.4175 56.4H97.4175ZM98.4175 55.4V56.4H113.937V55.4V54.4H98.4175V55.4ZM113.937 55.4V56.4C113.98 56.4 114.01 56.4026 114.03 56.4056C114.051 56.4085 114.059 56.4114 114.059 56.4112C114.058 56.4109 114.048 56.4074 114.032 56.3981C114.025 56.3935 114.016 56.3878 114.007 56.3808C113.998 56.3737 113.989 56.3658 113.98 56.3571C113.972 56.3484 113.964 56.3394 113.957 56.3303C113.95 56.3213 113.944 56.3128 113.939 56.3051C113.93 56.2896 113.927 56.2797 113.926 56.2787C113.926 56.2781 113.929 56.2867 113.932 56.307C113.935 56.3275 113.937 56.3579 113.937 56.4H114.937H115.937C115.937 55.9125 115.815 55.3632 115.395 54.9429C114.974 54.5225 114.425 54.4 113.937 54.4V55.4ZM114.937 56.4H113.937V58.8H114.937H115.937V56.4H114.937ZM114.937 58.8H113.937C113.937 58.842 113.935 58.8725 113.932 58.893C113.929 58.9133 113.926 58.9219 113.926 58.9213C113.927 58.9203 113.93 58.9104 113.939 58.8949C113.944 58.8872 113.95 58.8787 113.957 58.8697C113.964 58.8606 113.972 58.8516 113.98 58.8429C113.989 58.8342 113.998 58.8263 114.007 58.8192C114.016 58.8122 114.025 58.8065 114.032 58.8019C114.048 58.7926 114.058 58.7891 114.059 58.7888C114.059 58.7886 114.051 58.7915 114.03 58.7944C114.01 58.7973 113.98 58.8 113.937 58.8V59.8V60.8C114.425 60.8 114.974 60.6775 115.395 60.2571C115.815 59.8368 115.937 59.2875 115.937 58.8H114.937ZM113.937 59.8V58.8H103.337V59.8V60.8H113.937V59.8ZM103.337 59.8V58.8C102.85 58.8 102.301 58.9225 101.88 59.3429C101.46 59.7632 101.337 60.3125 101.337 60.8H102.337H103.337C103.337 60.7579 103.34 60.7275 103.343 60.707C103.346 60.6867 103.349 60.6781 103.349 60.6787C103.348 60.6797 103.345 60.6896 103.336 60.7051C103.331 60.7128 103.325 60.7213 103.318 60.7303C103.311 60.7394 103.303 60.7484 103.295 60.7571C103.286 60.7658 103.277 60.7737 103.268 60.7808C103.259 60.7878 103.25 60.7935 103.243 60.7981C103.227 60.8074 103.217 60.8109 103.216 60.8112C103.216 60.8114 103.224 60.8085 103.245 60.8056C103.265 60.8027 103.295 60.8 103.337 60.8V59.8ZM102.337 60.8H101.337V67.4H102.337H103.337V60.8H102.337ZM102.337 67.4V68.4H112.537V67.4V66.4H102.337V67.4ZM112.537 67.4V68.4C112.581 68.4 112.614 68.4026 112.636 68.4057C112.658 68.4088 112.669 68.412 112.67 68.4124C112.671 68.4127 112.663 68.41 112.648 68.4015C112.633 68.3928 112.614 68.3796 112.595 68.3614C112.576 68.3431 112.56 68.3235 112.549 68.305C112.537 68.2868 112.532 68.2733 112.53 68.268C112.529 68.263 112.53 68.2668 112.533 68.2822C112.535 68.2977 112.537 68.323 112.537 68.36H113.537H114.537C114.537 67.8752 114.409 67.3305 113.98 66.9186C113.559 66.514 113.015 66.4 112.537 66.4V67.4ZM113.537 68.36H112.537V70.64H113.537H114.537V68.36H113.537ZM113.537 70.64H112.537C112.537 70.682 112.535 70.7125 112.532 70.7329C112.529 70.7533 112.526 70.7619 112.526 70.7613C112.527 70.7603 112.53 70.7504 112.539 70.7349C112.544 70.7272 112.55 70.7187 112.557 70.7096C112.564 70.7006 112.572 70.6916 112.58 70.6829C112.589 70.6742 112.598 70.6663 112.607 70.6592C112.616 70.6522 112.625 70.6465 112.632 70.6419C112.648 70.6326 112.658 70.6291 112.659 70.6288C112.659 70.6286 112.651 70.6315 112.63 70.6344C112.61 70.6373 112.58 70.64 112.537 70.64V71.64V72.64C113.025 72.64 113.574 72.5174 113.995 72.0971C114.415 71.6768 114.537 71.1275 114.537 70.64H113.537ZM112.537 71.64V70.64H102.337V71.64V72.64H112.537V71.64ZM102.337 71.64H101.337V79.2H102.337H103.337V71.64H102.337ZM102.337 79.2H101.337C101.337 79.6875 101.46 80.2368 101.88 80.6571C102.301 81.0775 102.85 81.2 103.337 81.2V80.2V79.2C103.295 79.2 103.265 79.1973 103.245 79.1944C103.224 79.1915 103.216 79.1886 103.216 79.1888C103.217 79.1891 103.227 79.1926 103.243 79.2019C103.25 79.2065 103.259 79.2122 103.268 79.2192C103.277 79.2263 103.286 79.2342 103.295 79.2429C103.303 79.2516 103.311 79.2606 103.318 79.2697C103.325 79.2787 103.331 79.2872 103.336 79.2949C103.345 79.3104 103.348 79.3203 103.349 79.3213C103.349 79.3219 103.346 79.3133 103.343 79.293C103.34 79.2725 103.337 79.2421 103.337 79.2H102.337ZM103.337 80.2V81.2H113.937V80.2V79.2H103.337V80.2ZM113.937 80.2V81.2C113.98 81.2 114.01 81.2027 114.03 81.2056C114.051 81.2085 114.059 81.2114 114.059 81.2112C114.058 81.2109 114.048 81.2074 114.032 81.1981C114.025 81.1935 114.016 81.1878 114.007 81.1808C113.998 81.1737 113.989 81.1658 113.98 81.1571C113.972 81.1484 113.964 81.1394 113.957 81.1303C113.95 81.1213 113.944 81.1128 113.939 81.1051C113.93 81.0896 113.927 81.0797 113.926 81.0787C113.926 81.0781 113.929 81.0867 113.932 81.107C113.935 81.1275 113.937 81.158 113.937 81.2H114.937H115.937C115.937 80.7125 115.815 80.1632 115.395 79.7429C114.974 79.3225 114.425 79.2 113.937 79.2V80.2ZM114.937 81.2H113.937V83.6H114.937H115.937V81.2H114.937ZM114.937 83.6H113.937C113.937 83.6421 113.935 83.6725 113.932 83.693C113.929 83.7133 113.926 83.7219 113.926 83.7213C113.927 83.7203 113.93 83.7104 113.939 83.6949C113.944 83.6872 113.95 83.6787 113.957 83.6697C113.964 83.6606 113.972 83.6516 113.98 83.6429C113.989 83.6342 113.998 83.6263 114.007 83.6192C114.016 83.6122 114.025 83.6065 114.032 83.6019C114.048 83.5926 114.058 83.5891 114.059 83.5888C114.059 83.5886 114.051 83.5915 114.03 83.5944C114.01 83.5973 113.98 83.6 113.937 83.6V84.6V85.6C114.425 85.6 114.974 85.4775 115.395 85.0571C115.815 84.6368 115.937 84.0875 115.937 83.6H114.937ZM113.937 84.6V83.6H98.4175V84.6V85.6H113.937V84.6ZM126.762 56.24L125.789 56.4716L125.792 56.4844L125.795 56.4971L126.762 56.24ZM129.242 65.56L130.218 65.3431L130.214 65.3229L130.208 65.3029L129.242 65.56ZM130.442 65.56L131.405 65.8276L131.407 65.821L130.442 65.56ZM132.962 56.24L133.927 56.501L133.931 56.4864L133.935 56.4716L132.962 56.24ZM135.162 67.12L134.163 67.0613L134.163 67.0753L135.162 67.12ZM135.522 61.88L136.519 61.9591L136.519 61.9579L135.522 61.88ZM135.962 57.24L136.955 57.3546L135 56.9675L135.962 57.24ZM132.042 71.08L131.08 70.8075L131.074 70.8278L131.069 70.8484L132.042 71.08ZM127.522 71.08L128.495 70.8484L128.49 70.8298L128.485 70.8113L127.522 71.08ZM123.762 57.6L124.725 57.3313L122.77 57.7293L123.762 57.6ZM124.402 64.2L123.404 64.2727L123.405 64.2839L124.402 64.2ZM121.042 84.6V83.6C121 83.6 120.969 83.5973 120.949 83.5944C120.929 83.5915 120.92 83.5886 120.921 83.5888C120.921 83.5891 120.931 83.5926 120.947 83.6019C120.955 83.6065 120.963 83.6122 120.972 83.6192C120.981 83.6263 120.99 83.6342 120.999 83.6429C121.008 83.6516 121.016 83.6606 121.023 83.6697C121.03 83.6787 121.035 83.6872 121.04 83.6949C121.049 83.7104 121.053 83.7203 121.053 83.7213C121.053 83.7219 121.05 83.7133 121.047 83.693C121.044 83.6725 121.042 83.6421 121.042 83.6H120.042H119.042C119.042 84.0875 119.164 84.6368 119.585 85.0571C120.005 85.4775 120.554 85.6 121.042 85.6V84.6ZM120.042 83.6H121.042V56.4H120.042H119.042V83.6H120.042ZM120.042 56.4H121.042C121.042 56.3579 121.044 56.3275 121.047 56.307C121.05 56.2867 121.053 56.2781 121.053 56.2787C121.053 56.2797 121.049 56.2896 121.04 56.3051C121.035 56.3128 121.03 56.3213 121.023 56.3303C121.016 56.3394 121.008 56.3484 120.999 56.3571C120.99 56.3658 120.981 56.3737 120.972 56.3808C120.963 56.3878 120.955 56.3935 120.947 56.3981C120.931 56.4074 120.921 56.4109 120.921 56.4112C120.92 56.4114 120.929 56.4085 120.949 56.4056C120.969 56.4026 121 56.4 121.042 56.4V55.4V54.4C120.554 54.4 120.005 54.5225 119.585 54.9429C119.164 55.3632 119.042 55.9125 119.042 56.4H120.042ZM121.042 55.4V56.4H125.682V55.4V54.4H121.042V55.4ZM125.682 55.4V56.4C125.75 56.4 125.785 56.4082 125.796 56.4114C125.804 56.414 125.794 56.4121 125.778 56.3994C125.761 56.3864 125.755 56.3756 125.757 56.3789C125.76 56.3844 125.775 56.4111 125.789 56.4716L126.762 56.24L127.735 56.0084C127.629 55.5663 127.408 55.1336 127.006 54.8206C126.605 54.5093 126.133 54.4 125.682 54.4V55.4ZM126.762 56.24L125.795 56.4971L128.275 65.8171L129.242 65.56L130.208 65.3029L127.728 55.9828L126.762 56.24ZM129.242 65.56L128.266 65.7769C128.334 66.0825 128.449 66.4267 128.672 66.7139C128.925 67.0388 129.314 67.28 129.802 67.28V66.28V65.28C129.892 65.28 129.991 65.3018 130.085 65.3512C130.174 65.3985 130.227 65.4548 130.251 65.4861C130.274 65.5151 130.274 65.5252 130.263 65.4977C130.252 65.4712 130.236 65.4219 130.218 65.3431L129.242 65.56ZM129.802 66.28V67.28C130.263 67.28 130.653 67.0752 130.929 66.7644C131.178 66.4847 131.318 66.1415 131.405 65.8276L130.442 65.56L129.478 65.2924C129.457 65.3685 129.438 65.4158 129.426 65.4412C129.413 65.467 129.413 65.4595 129.434 65.4356C129.457 65.4097 129.504 65.3666 129.579 65.3313C129.655 65.2949 129.734 65.28 129.802 65.28V66.28ZM130.442 65.56L131.407 65.821L133.927 56.501L132.962 56.24L131.997 55.979L129.477 65.299L130.442 65.56ZM132.962 56.24L133.935 56.4716C133.949 56.4111 133.963 56.3844 133.967 56.3789C133.969 56.3756 133.962 56.3864 133.946 56.3994C133.929 56.4121 133.919 56.414 133.928 56.4114C133.939 56.4082 133.974 56.4 134.042 56.4V55.4V54.4C133.59 54.4 133.118 54.5093 132.718 54.8206C132.316 55.1336 132.094 55.5663 131.989 56.0084L132.962 56.24ZM134.042 55.4V56.4H138.722V55.4V54.4H134.042V55.4ZM138.722 55.4V56.4C138.764 56.4 138.794 56.4026 138.815 56.4056C138.835 56.4085 138.844 56.4114 138.843 56.4112C138.842 56.4109 138.832 56.4074 138.817 56.3981C138.809 56.3935 138.801 56.3878 138.791 56.3808C138.782 56.3737 138.773 56.3658 138.765 56.3571C138.756 56.3484 138.748 56.3394 138.741 56.3303C138.734 56.3213 138.728 56.3128 138.724 56.3051C138.714 56.2896 138.711 56.2797 138.711 56.2787C138.71 56.2781 138.713 56.2867 138.716 56.307C138.719 56.3275 138.722 56.3579 138.722 56.4H139.722H140.722C140.722 55.9125 140.599 55.3632 140.179 54.9429C139.759 54.5225 139.209 54.4 138.722 54.4V55.4ZM139.722 56.4H138.722V83.6H139.722H140.722V56.4H139.722ZM139.722 83.6H138.722C138.722 83.6421 138.719 83.6725 138.716 83.693C138.713 83.7133 138.71 83.7219 138.711 83.7213C138.711 83.7203 138.714 83.7104 138.724 83.6949C138.728 83.6872 138.734 83.6787 138.741 83.6697C138.748 83.6606 138.756 83.6516 138.765 83.6429C138.773 83.6342 138.782 83.6263 138.791 83.6192C138.801 83.6122 138.809 83.6065 138.817 83.6019C138.832 83.5926 138.842 83.5891 138.843 83.5888C138.844 83.5886 138.835 83.5915 138.815 83.5944C138.794 83.5973 138.764 83.6 138.722 83.6V84.6V85.6C139.209 85.6 139.759 85.4775 140.179 85.0571C140.599 84.6368 140.722 84.0875 140.722 83.6H139.722ZM138.722 84.6V83.6H136.042V84.6V85.6H138.722V84.6ZM136.042 84.6V83.6C136 83.6 135.969 83.5973 135.949 83.5944C135.929 83.5915 135.92 83.5886 135.921 83.5888C135.921 83.5891 135.931 83.5926 135.947 83.6019C135.955 83.6065 135.963 83.6122 135.972 83.6192C135.981 83.6263 135.99 83.6342 135.999 83.6429C136.008 83.6516 136.016 83.6606 136.023 83.6697C136.03 83.6787 136.035 83.6872 136.04 83.6949C136.049 83.7104 136.053 83.7203 136.053 83.7213C136.053 83.7219 136.05 83.7133 136.047 83.693C136.044 83.6725 136.042 83.6421 136.042 83.6H135.042H134.042C134.042 84.0875 134.164 84.6368 134.585 85.0571C135.005 85.4775 135.554 85.6 136.042 85.6V84.6ZM135.042 83.6H136.042V72.32H135.042H134.042V83.6H135.042ZM135.042 72.32H136.042C136.042 70.6558 136.081 68.9374 136.161 67.1647L135.162 67.12L134.163 67.0753C134.082 68.8759 134.042 70.6242 134.042 72.32H135.042ZM135.162 67.12L136.16 67.1787C136.266 65.3717 136.386 63.6318 136.519 61.9591L135.522 61.88L134.525 61.8009C134.391 63.4882 134.271 65.2417 134.164 67.0613L135.162 67.12ZM135.522 61.88L136.519 61.9579C136.651 60.2609 136.797 58.7267 136.955 57.3546L135.962 57.24L134.968 57.1254C134.807 58.5266 134.659 60.0858 134.525 61.8021L135.522 61.88ZM135.962 57.24L135 56.9675L131.08 70.8075L132.042 71.08L133.004 71.3525L136.924 57.5125L135.962 57.24ZM132.042 71.08L131.069 70.8484C131.055 70.9089 131.04 70.9356 131.037 70.9411C131.035 70.9444 131.041 70.9335 131.058 70.9206C131.074 70.9079 131.084 70.906 131.076 70.9086C131.065 70.9118 131.03 70.92 130.962 70.92V71.92V72.92C131.413 72.92 131.885 72.8107 132.286 72.4994C132.688 72.1864 132.909 71.7537 133.015 71.3116L132.042 71.08ZM130.962 71.92V70.92H128.602V71.92V72.92H130.962V71.92ZM128.602 71.92V70.92C128.534 70.92 128.499 70.9118 128.488 70.9086C128.479 70.906 128.489 70.9079 128.506 70.9206C128.522 70.9335 128.529 70.9444 128.527 70.9411C128.523 70.9356 128.509 70.9089 128.495 70.8484L127.522 71.08L126.549 71.3116C126.654 71.7537 126.876 72.1864 127.278 72.4994C127.678 72.8107 128.15 72.92 128.602 72.92V71.92ZM127.522 71.08L128.485 70.8113L124.725 57.3313L123.762 57.6L122.799 57.8687L126.559 71.3487L127.522 71.08ZM123.762 57.6L122.77 57.7293C123.007 59.545 123.219 61.7251 123.404 64.2727L124.402 64.2L125.399 64.1273C125.212 61.5549 124.997 59.335 124.753 57.4707L123.762 57.6ZM124.402 64.2L123.405 64.2839C123.616 66.786 123.722 69.4644 123.722 72.32H124.722H125.722C125.722 69.4156 125.614 66.6807 125.398 64.1161L124.402 64.2ZM124.722 72.32H123.722V83.6H124.722H125.722V72.32H124.722ZM124.722 83.6H123.722C123.722 83.6421 123.719 83.6725 123.716 83.693C123.713 83.7133 123.71 83.7219 123.711 83.7213C123.711 83.7203 123.714 83.7104 123.724 83.6949C123.728 83.6872 123.734 83.6787 123.741 83.6697C123.748 83.6606 123.756 83.6516 123.765 83.6429C123.773 83.6342 123.782 83.6263 123.791 83.6192C123.801 83.6122 123.809 83.6065 123.817 83.6019C123.832 83.5926 123.842 83.5891 123.843 83.5888C123.844 83.5886 123.835 83.5915 123.815 83.5944C123.794 83.5973 123.764 83.6 123.722 83.6V84.6V85.6C124.209 85.6 124.759 85.4775 125.179 85.0571C125.599 84.6368 125.722 84.0875 125.722 83.6H124.722ZM123.722 84.6V83.6H121.042V84.6V85.6H123.722V84.6ZM143.746 84.6H142.746V85.6H143.746V84.6ZM143.746 55.4V54.4H142.746V55.4H143.746ZM148.146 55.4H149.146V54.4H148.146V55.4ZM148.146 67.04H147.146V68.04H148.146V67.04ZM155.266 69.12L154.559 69.8271L154.566 69.8339L155.266 69.12ZM155.266 82.56L155.966 83.274L155.973 83.2671L155.266 82.56ZM159.586 84.6H158.586V85.6H159.586V84.6ZM159.586 55.4V54.4H158.586V55.4H159.586ZM163.986 55.4H164.986V54.4H163.986V55.4ZM163.986 84.6V85.6H164.986V84.6H163.986ZM148.146 80.6H147.146V81.6H148.146V80.6ZM152.186 79.64L151.479 78.9329L151.472 78.9404L151.464 78.9481L152.186 79.64ZM152.186 72.04L151.45 72.7171L151.464 72.7324L151.479 72.7471L152.186 72.04ZM148.146 71.04V70.04H147.146V71.04H148.146ZM143.746 84.6H144.746V55.4H143.746H142.746V84.6H143.746ZM143.746 55.4V56.4H148.146V55.4V54.4H143.746V55.4ZM148.146 55.4H147.146V67.04H148.146H149.146V55.4H148.146ZM148.146 67.04V68.04H149.626V67.04V66.04H148.146V67.04ZM149.626 67.04V68.04C151.794 68.04 153.398 68.6662 154.559 69.8271L155.266 69.12L155.973 68.4129C154.361 66.8004 152.205 66.04 149.626 66.04V67.04ZM155.266 69.12L154.566 69.8339C155.72 70.9656 156.346 72.5516 156.346 74.72H157.346H158.346C158.346 72.1417 157.586 69.9944 155.966 68.4061L155.266 69.12ZM157.346 74.72H156.346V77H157.346H158.346V74.72H157.346ZM157.346 77H156.346C156.346 79.107 155.724 80.6877 154.559 81.8529L155.266 82.56L155.973 83.2671C157.581 81.659 158.346 79.533 158.346 77H157.346ZM155.266 82.56L154.566 81.8461C153.406 82.9836 151.799 83.6 149.626 83.6V84.6V85.6C152.2 85.6 154.353 84.8564 155.966 83.2739L155.266 82.56ZM149.626 84.6V83.6H143.746V84.6V85.6H149.626V84.6ZM159.586 84.6H160.586V55.4H159.586H158.586V84.6H159.586ZM159.586 55.4V56.4H163.986V55.4V54.4H159.586V55.4ZM163.986 55.4H162.986V84.6H163.986H164.986V55.4H163.986ZM163.986 84.6V83.6H159.586V84.6V85.6H163.986V84.6ZM148.146 80.6V81.6H149.626V80.6V79.6H148.146V80.6ZM149.626 80.6V81.6C150.924 81.6 152.064 81.2129 152.908 80.3319L152.186 79.64L151.464 78.9481C151.082 79.3471 150.515 79.6 149.626 79.6V80.6ZM152.186 79.64L152.893 80.3471C153.768 79.4728 154.146 78.2974 154.146 76.96H153.146H152.146C152.146 77.9159 151.885 78.5272 151.479 78.9329L152.186 79.64ZM153.146 76.96H154.146V74.72H153.146H152.146V76.96H153.146ZM153.146 74.72H154.146C154.146 73.3825 153.768 72.2072 152.893 71.3329L152.186 72.04L151.479 72.7471C151.885 73.1528 152.146 73.7641 152.146 74.72H153.146ZM152.186 72.04L152.922 71.3629C152.081 70.4485 150.937 70.04 149.626 70.04V71.04V72.04C150.503 72.04 151.065 72.2982 151.45 72.7171L152.186 72.04ZM149.626 71.04V70.04H148.146V71.04V72.04H149.626V71.04ZM148.146 71.04H147.146V80.6H148.146H149.146V71.04H148.146Z" fill="black" mask="url(#path-1-outside-1_122_2588)"/>
</svg>
