<svg width="278" height="150" viewBox="0 0 278 150" fill="none" xmlns="http://www.w3.org/2000/svg">
<mask id="path-1-outside-1_63_1055" maskUnits="userSpaceOnUse" x="-0.078125" y="-0.940002" width="279" height="151" fill="black">
<rect fill="white" x="-0.078125" y="-0.940002" width="279" height="151"/>
<path d="M43.7873 53.06C42.6373 53.06 42.0623 52.485 42.0623 51.335V4.41499C42.0623 3.265 42.6373 2.69 43.7873 2.69H57.5183C62.3483 2.69 66.1893 3.863 69.0413 6.209C71.9393 8.555 73.3883 11.706 73.3883 15.662C73.3883 18.422 72.5833 20.791 70.9733 22.769C69.4093 24.747 67.3623 25.943 64.8323 26.357V26.495C66.7183 26.725 68.3973 27.415 69.8693 28.565C71.3413 29.669 72.4913 31.118 73.3193 32.912C74.1473 34.66 74.5613 36.592 74.5613 38.708C74.5613 41.606 73.8943 44.136 72.5603 46.298C71.2263 48.46 69.3403 50.139 66.9023 51.335C64.4643 52.485 61.5893 53.06 58.2773 53.06H43.7873ZM50.4803 23.459H57.3803C59.6343 23.459 61.4283 22.861 62.7623 21.665C64.0963 20.423 64.7633 18.744 64.7633 16.628C64.7633 14.558 64.0963 12.925 62.7623 11.729C61.4743 10.487 59.6803 9.86599 57.3803 9.86599H52.1363C51.0323 9.86599 50.4803 10.441 50.4803 11.591V23.459ZM50.4803 44.159C50.4803 45.309 51.0323 45.884 52.1363 45.884H57.7943C60.3243 45.884 62.3023 45.217 63.7283 43.883C65.2003 42.503 65.9363 40.64 65.9363 38.294C65.9363 35.948 65.2003 34.062 63.7283 32.636C62.3023 31.164 60.3243 30.428 57.7943 30.428H50.4803V44.159ZM79.9853 53.06V2.69H87.5753V22.769H90.1283C94.2223 22.769 97.4653 23.965 99.8573 26.357C102.249 28.703 103.445 31.923 103.445 36.017V39.95C103.445 43.952 102.249 47.149 99.8573 49.541C97.4653 51.887 94.2223 53.06 90.1283 53.06H79.9853ZM107.309 53.06V2.69H114.899V53.06H107.309ZM87.5753 46.16H90.1283C92.0143 46.16 93.4863 45.608 94.5443 44.504C95.6483 43.4 96.2003 41.859 96.2003 39.881V36.017C96.2003 34.039 95.6483 32.498 94.5443 31.394C93.4863 30.244 92.0143 29.669 90.1283 29.669H87.5753V46.16ZM122.117 53.06V2.69H152.339V10.487H130.535V22.493H137.918C141.276 22.493 144.197 23.137 146.681 24.425C149.165 25.667 151.097 27.438 152.477 29.738C153.857 31.992 154.547 34.637 154.547 37.673C154.547 40.709 153.857 43.377 152.477 45.677C151.097 47.977 149.165 49.794 146.681 51.128C144.243 52.416 141.345 53.06 137.987 53.06H122.117ZM130.535 45.47H137.987C140.379 45.47 142.265 44.757 143.645 43.331C145.071 41.905 145.784 40.019 145.784 37.673C145.784 35.281 145.071 33.395 143.645 32.015C142.265 30.589 140.379 29.876 137.987 29.876H130.535V45.47ZM177.428 53.75C172.598 53.75 168.757 52.37 165.905 49.61C163.099 46.85 161.696 43.032 161.696 38.156V17.594C161.696 12.718 163.099 8.9 165.905 6.14C168.757 3.38 172.598 2 177.428 2C182.258 2 186.076 3.38 188.882 6.14C191.734 8.9 193.16 12.695 193.16 17.525V38.156C193.16 43.032 191.734 46.85 188.882 49.61C186.076 52.37 182.258 53.75 177.428 53.75ZM177.428 46.16C179.774 46.16 181.545 45.539 182.741 44.297C183.937 43.009 184.535 41.192 184.535 38.846V16.904C184.535 14.558 183.937 12.764 182.741 11.522C181.545 10.234 179.774 9.58999 177.428 9.58999C175.082 9.58999 173.311 10.234 172.115 11.522C170.919 12.764 170.321 14.558 170.321 16.904V38.846C170.321 41.192 170.919 43.009 172.115 44.297C173.311 45.539 175.082 46.16 177.428 46.16ZM203.69 53.06C202.586 53.06 202.034 52.485 202.034 51.335V4.41499C202.034 3.265 202.586 2.69 203.69 2.69H218.801C222.159 2.69 225.08 3.334 227.564 4.622C230.094 5.91 232.049 7.727 233.429 10.073C234.809 12.373 235.499 15.087 235.499 18.215C235.499 21.343 234.809 24.08 233.429 26.426C232.049 28.726 230.094 30.52 227.564 31.808C225.08 33.096 222.159 33.74 218.801 33.74H210.659V51.335C210.659 52.485 210.084 53.06 208.934 53.06H203.69ZM210.659 26.15H218.801C221.239 26.15 223.171 25.414 224.597 23.942C226.023 22.47 226.736 20.561 226.736 18.215C226.736 15.869 226.023 13.96 224.597 12.488C223.171 11.016 221.239 10.28 218.801 10.28H212.384C211.234 10.28 210.659 10.832 210.659 11.936V26.15ZM4.41521 100.06C3.26521 100.06 2.69021 99.485 2.69021 98.335V51.415C2.69021 50.265 3.26521 49.69 4.41521 49.69H9.65921C10.7632 49.69 11.3152 50.265 11.3152 51.415V70.252H17.2492L26.2882 50.932C26.6562 50.104 27.3002 49.69 28.2202 49.69H33.9472C34.5912 49.69 35.0282 49.897 35.2582 50.311C35.5342 50.679 35.5342 51.139 35.2582 51.691L24.8392 73.702L35.8102 98.059C36.0862 98.611 36.0862 99.094 35.8102 99.508C35.5802 99.876 35.1432 100.06 34.4992 100.06H28.5652C27.5992 100.06 26.9322 99.623 26.5642 98.749L17.1802 77.773H11.3152V98.335C11.3152 99.485 10.7632 100.06 9.65921 100.06H4.41521ZM58.1393 100.75C53.3093 100.75 49.4683 99.37 46.6163 96.61C43.8103 93.85 42.4073 90.032 42.4073 85.156V64.594C42.4073 59.718 43.8103 55.9 46.6163 53.14C49.4683 50.38 53.3093 49 58.1393 49C62.9693 49 66.7873 50.38 69.5933 53.14C72.4453 55.9 73.8713 59.695 73.8713 64.525V85.156C73.8713 90.032 72.4453 93.85 69.5933 96.61C66.7873 99.37 62.9693 100.75 58.1393 100.75ZM58.1393 93.16C60.4853 93.16 62.2563 92.539 63.4523 91.297C64.6483 90.009 65.2463 88.192 65.2463 85.846V63.904C65.2463 61.558 64.6483 59.764 63.4523 58.522C62.2563 57.234 60.4853 56.59 58.1393 56.59C55.7933 56.59 54.0223 57.234 52.8263 58.522C51.6303 59.764 51.0323 61.558 51.0323 63.904V85.846C51.0323 88.192 51.6303 90.009 52.8263 91.297C54.0223 92.539 55.7933 93.16 58.1393 93.16ZM84.4013 100.06C83.2973 100.06 82.7453 99.485 82.7453 98.335V51.415C82.7453 50.265 83.2973 49.69 84.4013 49.69H99.5123C102.87 49.69 105.791 50.334 108.275 51.622C110.805 52.91 112.76 54.727 114.14 57.073C115.52 59.373 116.21 62.087 116.21 65.215C116.21 68.343 115.52 71.08 114.14 73.426C112.76 75.726 110.805 77.52 108.275 78.808C105.791 80.096 102.87 80.74 99.5123 80.74H91.3703V98.335C91.3703 99.485 90.7953 100.06 89.6453 100.06H84.4013ZM91.3703 73.15H99.5123C101.95 73.15 103.882 72.414 105.308 70.942C106.734 69.47 107.447 67.561 107.447 65.215C107.447 62.869 106.734 60.96 105.308 59.488C103.882 58.016 101.95 57.28 99.5123 57.28H93.0953C91.9453 57.28 91.3703 57.832 91.3703 58.936V73.15ZM122.807 100.06V49.69H153.443V100.06H144.818V57.487H131.432V100.06H122.807ZM169.355 100.06L174.53 87.157L159.833 49.69H169.217L176.807 71.908C177.267 73.196 177.658 74.553 177.98 75.979C178.348 77.359 178.578 78.486 178.67 79.36C178.762 78.486 178.946 77.359 179.222 75.979C179.544 74.553 179.889 73.196 180.257 71.908L187.226 49.69H196.403L178.463 100.06H169.355ZM218.663 100.75C215.397 100.75 212.568 100.152 210.176 98.956C207.784 97.714 205.921 95.989 204.587 93.781C203.299 91.527 202.655 88.882 202.655 85.846V63.904C202.655 60.868 203.299 58.246 204.587 56.038C205.921 53.784 207.784 52.059 210.176 50.863C212.568 49.621 215.397 49 218.663 49C223.171 49 226.851 50.196 229.703 52.588C232.555 54.934 234.165 58.108 234.533 62.11C234.625 63.306 234.073 63.904 232.877 63.904H227.702C226.644 63.904 226.023 63.352 225.839 62.248C225.287 58.476 222.895 56.59 218.663 56.59C216.317 56.59 214.5 57.234 213.212 58.522C211.924 59.764 211.28 61.558 211.28 63.904V85.846C211.28 88.192 211.924 90.009 213.212 91.297C214.5 92.539 216.317 93.16 218.663 93.16C222.895 93.16 225.287 91.274 225.839 87.502C226.023 86.398 226.644 85.846 227.702 85.846H232.877C234.073 85.846 234.648 86.398 234.602 87.502C234.234 91.55 232.624 94.77 229.772 97.162C226.92 99.554 223.217 100.75 218.663 100.75ZM241.82 100.06C240.532 100.06 240.049 99.439 240.371 98.197L252.17 51.139C252.4 50.173 253.021 49.69 254.033 49.69H262.106C263.118 49.69 263.739 50.173 263.969 51.139L275.837 98.197C276.159 99.439 275.676 100.06 274.388 100.06H269.075C268.063 100.06 267.465 99.554 267.281 98.542L264.797 87.847H251.411L248.996 98.542C248.766 99.554 248.145 100.06 247.133 100.06H241.82ZM252.998 80.809H263.21L260.174 67.285C259.944 66.319 259.737 65.422 259.553 64.594C259.415 63.766 259.277 62.984 259.139 62.248C258.955 61.42 258.633 60.914 258.173 60.73C257.713 60.5 257.414 60.73 257.276 61.42C257.138 62.294 256.954 63.214 256.724 64.18C256.54 65.146 256.31 66.158 256.034 67.216L252.998 80.809ZM18.0082 147.75C14.7422 147.75 11.9132 147.152 9.52121 145.956C7.12921 144.714 5.26621 142.989 3.93221 140.781C2.64421 138.527 2.00021 135.882 2.00021 132.846V110.904C2.00021 107.868 2.64421 105.246 3.93221 103.038C5.26621 100.784 7.12921 99.059 9.52121 97.863C11.9132 96.621 14.7422 96 18.0082 96C22.5162 96 26.1962 97.196 29.0482 99.588C31.9002 101.934 33.5102 105.108 33.8782 109.11C33.9702 110.306 33.4182 110.904 32.2222 110.904H27.0472C25.9892 110.904 25.3682 110.352 25.1842 109.248C24.6322 105.476 22.2402 103.59 18.0082 103.59C15.6622 103.59 13.8452 104.234 12.5572 105.522C11.2692 106.764 10.6252 108.558 10.6252 110.904V132.846C10.6252 135.192 11.2692 137.009 12.5572 138.297C13.8452 139.539 15.6622 140.16 18.0082 140.16C22.2402 140.16 24.6322 138.274 25.1842 134.502C25.3682 133.398 25.9892 132.846 27.0472 132.846H32.2222C33.4182 132.846 33.9932 133.398 33.9472 134.502C33.5792 138.55 31.9692 141.77 29.1172 144.162C26.2652 146.554 22.5622 147.75 18.0082 147.75ZM41.7173 147.06V96.69H49.5833V121.323C49.5833 122.979 49.5373 124.796 49.4453 126.774C49.3533 128.752 49.2383 130.684 49.1003 132.57C48.9623 134.456 48.8473 136.066 48.7553 137.4L62.6243 96.69H73.1813V147.06H65.3153V123.186C65.3153 121.576 65.3613 119.736 65.4533 117.666C65.5913 115.596 65.7293 113.572 65.8673 111.594C66.0053 109.57 66.1433 107.822 66.2813 106.35L52.2743 147.06H41.7173ZM97.9943 147.75C94.7283 147.75 91.8993 147.152 89.5073 145.956C87.1153 144.714 85.2523 142.989 83.9183 140.781C82.6303 138.527 81.9863 135.882 81.9863 132.846V110.904C81.9863 107.868 82.6303 105.246 83.9183 103.038C85.2523 100.784 87.1153 99.059 89.5073 97.863C91.8993 96.621 94.7283 96 97.9943 96C102.502 96 106.182 97.196 109.034 99.588C111.886 101.934 113.496 105.108 113.864 109.11C113.956 110.306 113.404 110.904 112.208 110.904H107.033C105.975 110.904 105.354 110.352 105.17 109.248C104.618 105.476 102.226 103.59 97.9943 103.59C95.6483 103.59 93.8313 104.234 92.5433 105.522C91.2553 106.764 90.6113 108.558 90.6113 110.904V132.846C90.6113 135.192 91.2553 137.009 92.5433 138.297C93.8313 139.539 95.6483 140.16 97.9943 140.16C102.226 140.16 104.618 138.274 105.17 134.502C105.354 133.398 105.975 132.846 107.033 132.846H112.208C113.404 132.846 113.979 133.398 113.933 134.502C113.565 138.55 111.955 141.77 109.103 144.162C106.251 146.554 102.548 147.75 97.9943 147.75ZM134.813 147.06C133.663 147.06 133.088 146.485 133.088 145.335V104.487H121.634C120.484 104.487 119.909 103.912 119.909 102.762V98.415C119.909 97.265 120.484 96.69 121.634 96.69H153.236C154.386 96.69 154.961 97.265 154.961 98.415V102.762C154.961 103.912 154.386 104.487 153.236 104.487H141.782V145.335C141.782 146.485 141.207 147.06 140.057 147.06H134.813ZM164.525 147.06C163.375 147.06 162.8 146.485 162.8 145.335V98.415C162.8 97.265 163.375 96.69 164.525 96.69H191.297C192.447 96.69 193.022 97.265 193.022 98.415V102.555C193.022 103.705 192.447 104.28 191.297 104.28H173.012C171.862 104.28 171.287 104.855 171.287 106.005V117.39H188.882C190.032 117.39 190.607 117.942 190.607 119.046V122.979C190.607 124.129 190.032 124.704 188.882 124.704H171.287V137.745C171.287 138.895 171.862 139.47 173.012 139.47H191.297C192.447 139.47 193.022 140.045 193.022 141.195V145.335C193.022 146.485 192.447 147.06 191.297 147.06H164.525ZM202.172 147.06C201.022 147.06 200.447 146.485 200.447 145.335V98.415C200.447 97.265 201.022 96.69 202.172 96.69H210.176C211.188 96.69 211.809 97.173 212.039 98.139L216.317 114.216C216.501 115.044 216.823 115.458 217.283 115.458C217.789 115.458 218.157 115.044 218.387 114.216L222.734 98.139C222.964 97.173 223.585 96.69 224.597 96.69H232.67C233.82 96.69 234.395 97.265 234.395 98.415V145.335C234.395 146.485 233.82 147.06 232.67 147.06H228.047C226.897 147.06 226.322 146.485 226.322 145.335V125.877C226.322 122.979 226.391 119.989 226.529 116.907C226.713 113.779 226.92 110.766 227.15 107.868C227.38 104.924 227.633 102.256 227.909 99.864L221.147 123.738C220.917 124.704 220.296 125.187 219.284 125.187H215.213C214.201 125.187 213.58 124.704 213.35 123.738L206.864 100.485C207.278 103.659 207.646 107.454 207.968 111.87C208.336 116.24 208.52 120.909 208.52 125.877V145.335C208.52 146.485 207.945 147.06 206.795 147.06H202.172ZM239.957 147.06V96.69H247.547V116.769H250.1C254.194 116.769 257.437 117.965 259.829 120.357C262.221 122.703 263.417 125.923 263.417 130.017V133.95C263.417 137.952 262.221 141.149 259.829 143.541C257.437 145.887 254.194 147.06 250.1 147.06H239.957ZM267.281 147.06V96.69H274.871V147.06H267.281ZM247.547 140.16H250.1C251.986 140.16 253.458 139.608 254.516 138.504C255.62 137.4 256.172 135.859 256.172 133.881V130.017C256.172 128.039 255.62 126.498 254.516 125.394C253.458 124.244 251.986 123.669 250.1 123.669H247.547V140.16Z"/>
</mask>
<path d="M69.0413 6.209L67.7707 7.75357L67.7768 7.75856L67.7829 7.76348L69.0413 6.209ZM70.9733 22.769L69.4221 21.5065L69.4132 21.5174L69.4044 21.5285L70.9733 22.769ZM64.8323 26.357L64.5093 24.3832L62.8323 24.6577V26.357H64.8323ZM64.8323 26.495H62.8323V28.2659L64.5901 28.4803L64.8323 26.495ZM69.8693 28.565L68.638 30.141L68.6535 30.1532L68.6693 30.165L69.8693 28.565ZM73.3193 32.912L71.5033 33.7501L71.5075 33.7592L71.5118 33.7682L73.3193 32.912ZM72.5603 46.298L74.2623 47.3482V47.3482L72.5603 46.298ZM66.9023 51.335L67.7555 53.1439L67.7694 53.1373L67.7831 53.1306L66.9023 51.335ZM50.4803 23.459H48.4803V25.459H50.4803V23.459ZM62.7623 21.665L64.0974 23.1541L64.1113 23.1416L64.1251 23.1288L62.7623 21.665ZM62.7623 11.729L61.374 13.1687L61.4001 13.1939L61.4272 13.2181L62.7623 11.729ZM63.7283 43.883L65.0946 45.3435L65.0961 45.3421L63.7283 43.883ZM63.7283 32.636L62.2918 34.0276L62.3139 34.0504L62.3367 34.0725L63.7283 32.636ZM50.4803 30.428V28.428H48.4803V30.428H50.4803ZM43.7873 53.06V51.06C43.6605 51.06 43.6309 51.0435 43.665 51.0548C43.7088 51.0694 43.8071 51.114 43.9077 51.2145C44.0083 51.3151 44.0528 51.4134 44.0674 51.4572C44.0788 51.4913 44.0623 51.4618 44.0623 51.335H42.0623H40.0623C40.0623 52.2183 40.2844 53.2481 41.0793 54.043C41.8742 54.8378 42.904 55.06 43.7873 55.06V53.06ZM42.0623 51.335H44.0623V4.41499H42.0623H40.0623V51.335H42.0623ZM42.0623 4.41499H44.0623C44.0623 4.28819 44.0788 4.25866 44.0674 4.29276C44.0528 4.33655 44.0083 4.43488 43.9077 4.53546C43.8071 4.63604 43.7088 4.68058 43.665 4.69518C43.6309 4.70654 43.6605 4.68999 43.7873 4.68999V2.68999V0.689995C42.904 0.689995 41.8742 0.912174 41.0793 1.70703C40.2844 2.50189 40.0623 3.5317 40.0623 4.41499H42.0623ZM43.7873 2.68999V4.68999H57.5183V2.68999V0.689995H43.7873V2.68999ZM57.5183 2.68999V4.68999C62.0291 4.68999 65.3742 5.78225 67.7707 7.75357L69.0413 6.209L70.3118 4.66442C67.0043 1.94374 62.6674 0.689995 57.5183 0.689995V2.68999ZM69.0413 6.209L67.7829 7.76348C70.1798 9.7039 71.3883 12.2672 71.3883 15.662H73.3883H75.3883C75.3883 11.1448 73.6987 7.4061 70.2997 4.65451L69.0413 6.209ZM73.3883 15.662H71.3883C71.3883 18.0025 70.7172 19.9154 69.4221 21.5065L70.9733 22.769L72.5244 24.0315C74.4493 21.6666 75.3883 18.8414 75.3883 15.662H73.3883ZM70.9733 22.769L69.4044 21.5285C68.1554 23.1082 66.5562 24.0483 64.5093 24.3832L64.8323 26.357L65.1552 28.3307C68.1683 27.8377 70.6631 26.3858 72.5421 24.0095L70.9733 22.769ZM64.8323 26.357H62.8323V26.495H64.8323H66.8323V26.357H64.8323ZM64.8323 26.495L64.5901 28.4803C66.1219 28.6671 67.4575 29.2188 68.638 30.141L69.8693 28.565L71.1005 26.9889C69.337 25.6112 67.3146 24.7829 65.0744 24.5097L64.8323 26.495ZM69.8693 28.565L68.6693 30.165C69.8565 31.0554 70.8038 32.2343 71.5033 33.7501L73.3193 32.912L75.1352 32.0739C74.1788 30.0016 72.826 28.2825 71.0693 26.965L69.8693 28.565ZM73.3193 32.912L71.5118 33.7682C72.2015 35.2242 72.5613 36.8599 72.5613 38.708H74.5613H76.5613C76.5613 36.3241 76.093 34.0958 75.1267 32.0558L73.3193 32.912ZM74.5613 38.708H72.5613C72.5613 41.2885 71.9712 43.444 70.8582 45.2478L72.5603 46.298L74.2623 47.3482C75.8174 44.828 76.5613 41.9235 76.5613 38.708H74.5613ZM72.5603 46.298L70.8582 45.2478C69.736 47.0665 68.1452 48.4975 66.0214 49.5394L66.9023 51.335L67.7831 53.1306C70.5353 51.7805 72.7166 49.8534 74.2623 47.3482L72.5603 46.298ZM66.9023 51.335L66.049 49.5261C63.9317 50.5249 61.3602 51.06 58.2773 51.06V53.06V55.06C61.8183 55.06 64.9968 54.4451 67.7555 53.1439L66.9023 51.335ZM58.2773 53.06V51.06H43.7873V53.06V55.06H58.2773V53.06ZM50.4803 23.459V25.459H57.3803V23.459V21.459H50.4803V23.459ZM57.3803 23.459V25.459C59.9952 25.459 62.3089 24.7576 64.0974 23.1541L62.7623 21.665L61.4272 20.1759C60.5476 20.9644 59.2734 21.459 57.3803 21.459V23.459ZM62.7623 21.665L64.1251 23.1288C65.9319 21.4466 66.7633 19.2015 66.7633 16.628H64.7633H62.7633C62.7633 18.2865 62.2607 19.3994 61.3994 20.2012L62.7623 21.665ZM64.7633 16.628H66.7633C66.7633 14.087 65.9219 11.8757 64.0974 10.2399L62.7623 11.729L61.4272 13.2181C62.2706 13.9743 62.7633 15.029 62.7633 16.628H64.7633ZM62.7623 11.729L64.1505 10.2893C62.3921 8.59363 60.0443 7.86599 57.3803 7.86599V9.86599V11.866C59.3162 11.866 60.5565 12.3804 61.374 13.1687L62.7623 11.729ZM57.3803 9.86599V7.86599H52.1363V9.86599V11.866H57.3803V9.86599ZM52.1363 9.86599V7.86599C51.2547 7.86599 50.2313 8.09984 49.4515 8.91218C48.6863 9.7093 48.4803 10.7277 48.4803 11.591H50.4803H52.4803C52.4803 11.4573 52.497 11.4196 52.4886 11.4459C52.4774 11.4809 52.4372 11.5779 52.337 11.6823C52.2351 11.7884 52.1289 11.8419 52.0678 11.8632C52.0172 11.8807 52.0282 11.866 52.1363 11.866V9.86599ZM50.4803 11.591H48.4803V23.459H50.4803H52.4803V11.591H50.4803ZM50.4803 44.159H48.4803C48.4803 45.0223 48.6863 46.0407 49.4515 46.8378C50.2313 47.6502 51.2547 47.884 52.1363 47.884V45.884V43.884C52.0282 43.884 52.0172 43.8693 52.0678 43.8868C52.1289 43.9081 52.2351 43.9615 52.337 44.0677C52.4372 44.1721 52.4774 44.2691 52.4886 44.3041C52.497 44.3304 52.4803 44.2927 52.4803 44.159H50.4803ZM52.1363 45.884V47.884H57.7943V45.884V43.884H52.1363V45.884ZM57.7943 45.884V47.884C60.6767 47.884 63.1986 47.1172 65.0946 45.3435L63.7283 43.883L62.3619 42.4225C61.406 43.3168 59.9718 43.884 57.7943 43.884V45.884ZM63.7283 43.883L65.0961 45.3421C67.0379 43.5217 67.9363 41.0946 67.9363 38.294H65.9363H63.9363C63.9363 40.1854 63.3626 41.4843 62.3604 42.4239L63.7283 43.883ZM65.9363 38.294H67.9363C67.9363 35.4921 67.0381 33.0579 65.1199 31.1995L63.7283 32.636L62.3367 34.0725C63.3624 35.0661 63.9363 36.4039 63.9363 38.294H65.9363ZM63.7283 32.636L65.1647 31.2444C63.2772 29.296 60.7304 28.428 57.7943 28.428V30.428V32.428C59.9181 32.428 61.3273 33.032 62.2918 34.0276L63.7283 32.636ZM57.7943 30.428V28.428H50.4803V30.428V32.428H57.7943V30.428ZM50.4803 30.428H48.4803V44.159H50.4803H52.4803V30.428H50.4803ZM79.9853 53.06H77.9853V55.06H79.9853V53.06ZM79.9853 2.68999V0.689995H77.9853V2.68999H79.9853ZM87.5753 2.68999H89.5753V0.689995H87.5753V2.68999ZM87.5753 22.769H85.5753V24.769H87.5753V22.769ZM99.8573 26.357L98.4431 27.7712L98.45 27.7781L98.4569 27.7849L99.8573 26.357ZM99.8573 49.541L101.258 50.9689L101.265 50.9621L101.272 50.9552L99.8573 49.541ZM107.309 53.06H105.309V55.06H107.309V53.06ZM107.309 2.68999V0.689995H105.309V2.68999H107.309ZM114.899 2.68999H116.899V0.689995H114.899V2.68999ZM114.899 53.06V55.06H116.899V53.06H114.899ZM87.5753 46.16H85.5753V48.16H87.5753V46.16ZM94.5443 44.504L93.1301 43.0898L93.1151 43.1048L93.1003 43.1202L94.5443 44.504ZM94.5443 31.394L93.0724 32.7481L93.1006 32.7788L93.1301 32.8082L94.5443 31.394ZM87.5753 29.669V27.669H85.5753V29.669H87.5753ZM79.9853 53.06H81.9853V2.68999H79.9853H77.9853V53.06H79.9853ZM79.9853 2.68999V4.68999H87.5753V2.68999V0.689995H79.9853V2.68999ZM87.5753 2.68999H85.5753V22.769H87.5753H89.5753V2.68999H87.5753ZM87.5753 22.769V24.769H90.1283V22.769V20.769H87.5753V22.769ZM90.1283 22.769V24.769C93.8109 24.769 96.5027 25.8308 98.4431 27.7712L99.8573 26.357L101.272 24.9428C98.4279 22.0992 94.6337 20.769 90.1283 20.769V22.769ZM99.8573 26.357L98.4569 27.7849C100.383 29.6741 101.445 32.3329 101.445 36.017H103.445H105.445C105.445 31.5131 104.115 27.7319 101.258 24.9291L99.8573 26.357ZM103.445 36.017H101.445V39.95H103.445H105.445V36.017H103.445ZM103.445 39.95H101.445C101.445 43.5259 100.392 46.1777 98.4431 48.1268L99.8573 49.541L101.272 50.9552C104.106 48.1203 105.445 44.378 105.445 39.95H103.445ZM99.8573 49.541L98.4569 48.1131C96.5185 50.0143 93.8219 51.06 90.1283 51.06V53.06V55.06C94.6227 55.06 98.4122 53.7597 101.258 50.9689L99.8573 49.541ZM90.1283 53.06V51.06H79.9853V53.06V55.06H90.1283V53.06ZM107.309 53.06H109.309V2.68999H107.309H105.309V53.06H107.309ZM107.309 2.68999V4.68999H114.899V2.68999V0.689995H107.309V2.68999ZM114.899 2.68999H112.899V53.06H114.899H116.899V2.68999H114.899ZM114.899 53.06V51.06H107.309V53.06V55.06H114.899V53.06ZM87.5753 46.16V48.16H90.1283V46.16V44.16H87.5753V46.16ZM90.1283 46.16V48.16C92.4236 48.16 94.4684 47.4738 95.9883 45.8878L94.5443 44.504L93.1003 43.1202C92.5043 43.7422 91.605 44.16 90.1283 44.16V46.16ZM94.5443 44.504L95.9585 45.9182C97.5312 44.3456 98.2003 42.2406 98.2003 39.881H96.2003H94.2003C94.2003 41.4774 93.7655 42.4544 93.1301 43.0898L94.5443 44.504ZM96.2003 39.881H98.2003V36.017H96.2003H94.2003V39.881H96.2003ZM96.2003 36.017H98.2003C98.2003 33.6574 97.5312 31.5524 95.9585 29.9798L94.5443 31.394L93.1301 32.8082C93.7655 33.4436 94.2003 34.4206 94.2003 36.017H96.2003ZM94.5443 31.394L96.0162 30.0399C94.5022 28.3943 92.4483 27.669 90.1283 27.669V29.669V31.669C91.5803 31.669 92.4704 32.0937 93.0724 32.7481L94.5443 31.394ZM90.1283 29.669V27.669H87.5753V29.669V31.669H90.1283V29.669ZM87.5753 29.669H85.5753V46.16H87.5753H89.5753V29.669H87.5753ZM122.117 53.06H120.117V55.06H122.117V53.06ZM122.117 2.68999V0.689995H120.117V2.68999H122.117ZM152.339 2.68999H154.339V0.689995H152.339V2.68999ZM152.339 10.487V12.487H154.339V10.487H152.339ZM130.535 10.487V8.487H128.535V10.487H130.535ZM130.535 22.493H128.535V24.493H130.535V22.493ZM146.681 24.425L145.761 26.2005L145.774 26.2073L145.787 26.2139L146.681 24.425ZM152.477 29.738L150.762 30.767L150.767 30.7747L150.772 30.7823L152.477 29.738ZM152.477 45.677L150.762 44.648V44.648L152.477 45.677ZM146.681 51.128L147.616 52.8964L147.628 52.89L146.681 51.128ZM130.535 45.47H128.535V47.47H130.535V45.47ZM143.645 43.331L142.231 41.9168L142.22 41.9284L142.208 41.9402L143.645 43.331ZM143.645 32.015L142.208 33.4058L142.231 33.4294L142.255 33.4522L143.645 32.015ZM130.535 29.876V27.876H128.535V29.876H130.535ZM122.117 53.06H124.117V2.68999H122.117H120.117V53.06H122.117ZM122.117 2.68999V4.68999H152.339V2.68999V0.689995H122.117V2.68999ZM152.339 2.68999H150.339V10.487H152.339H154.339V2.68999H152.339ZM152.339 10.487V8.487H130.535V10.487V12.487H152.339V10.487ZM130.535 10.487H128.535V22.493H130.535H132.535V10.487H130.535ZM130.535 22.493V24.493H137.918V22.493V20.493H130.535V22.493ZM137.918 22.493V24.493C141.02 24.493 143.613 25.0867 145.761 26.2005L146.681 24.425L147.602 22.6495C144.782 21.1872 141.533 20.493 137.918 20.493V22.493ZM146.681 24.425L145.787 26.2139C147.943 27.2921 149.585 28.8051 150.762 30.767L152.477 29.738L154.192 28.709C152.609 26.0709 150.387 24.0419 147.576 22.6361L146.681 24.425ZM152.477 29.738L150.772 30.7823C151.932 32.6775 152.547 34.9497 152.547 37.673H154.547H156.547C156.547 34.3243 155.783 31.3065 154.183 28.6937L152.477 29.738ZM154.547 37.673H152.547C152.547 40.3954 151.932 42.6982 150.762 44.648L152.477 45.677L154.192 46.706C155.782 44.0558 156.547 41.0226 156.547 37.673H154.547ZM152.477 45.677L150.762 44.648C149.578 46.6228 147.918 48.1935 145.735 49.366L146.681 51.128L147.628 52.89C150.412 51.3945 152.617 49.3312 154.192 46.706L152.477 45.677ZM146.681 51.128L145.747 49.3596C143.653 50.4658 141.09 51.06 137.987 51.06V53.06V55.06C141.601 55.06 144.833 54.3662 147.616 52.8964L146.681 51.128ZM137.987 53.06V51.06H122.117V53.06V55.06H137.987V53.06ZM130.535 45.47V47.47H137.987V45.47V43.47H130.535V45.47ZM137.987 45.47V47.47C140.802 47.47 143.25 46.6155 145.083 44.7218L143.645 43.331L142.208 41.9402C141.281 42.8985 139.957 43.47 137.987 43.47V45.47ZM143.645 43.331L145.06 44.7452C146.922 42.8828 147.784 40.4558 147.784 37.673H145.784H143.784C143.784 39.5822 143.221 40.9272 142.231 41.9168L143.645 43.331ZM145.784 37.673H147.784C147.784 34.8588 146.93 32.4103 145.036 30.5778L143.645 32.015L142.255 33.4522C143.213 34.3797 143.784 35.7032 143.784 37.673H145.784ZM143.645 32.015L145.083 30.6242C143.25 28.7305 140.802 27.876 137.987 27.876V29.876V31.876C139.957 31.876 141.281 32.4475 142.208 33.4058L143.645 32.015ZM137.987 29.876V27.876H130.535V29.876V31.876H137.987V29.876ZM130.535 29.876H128.535V45.47H130.535H132.535V29.876H130.535ZM165.905 49.61L164.503 51.0359L164.509 51.0415L164.515 51.0472L165.905 49.61ZM165.905 6.14L164.515 4.70279L164.509 4.70845L164.503 4.71415L165.905 6.14ZM188.882 6.14L187.48 7.56585L187.486 7.57155L187.492 7.5772L188.882 6.14ZM188.882 49.61L187.492 48.1728L187.486 48.1784L187.48 48.1841L188.882 49.61ZM182.741 44.297L184.182 45.6843L184.195 45.6712L184.207 45.6579L182.741 44.297ZM182.741 11.522L181.276 12.8829L181.288 12.8962L181.301 12.9093L182.741 11.522ZM172.115 11.522L173.556 12.9093L173.569 12.8962L173.581 12.8829L172.115 11.522ZM172.115 44.297L170.65 45.6579L170.662 45.6712L170.675 45.6843L172.115 44.297ZM177.428 53.75V51.75C172.998 51.75 169.697 50.4965 167.296 48.1728L165.905 49.61L164.515 51.0472C167.817 54.2435 172.199 55.75 177.428 55.75V53.75ZM165.905 49.61L167.308 48.1841C164.971 45.8859 163.696 42.6319 163.696 38.156H161.696H159.696C159.696 43.4321 161.228 47.8141 164.503 51.0359L165.905 49.61ZM161.696 38.156H163.696V17.594H161.696H159.696V38.156H161.696ZM161.696 17.594H163.696C163.696 13.1181 164.971 9.86414 167.308 7.56585L165.905 6.14L164.503 4.71415C161.228 7.93585 159.696 12.3179 159.696 17.594H161.696ZM165.905 6.14L167.296 7.5772C169.697 5.25348 172.998 4 177.428 4V2V-3.8147e-06C172.199 -3.8147e-06 167.817 1.50652 164.515 4.70279L165.905 6.14ZM177.428 2V4C181.86 4 185.129 5.2538 187.48 7.56585L188.882 6.14L190.285 4.71415C187.023 1.5062 182.657 -3.8147e-06 177.428 -3.8147e-06V2ZM188.882 6.14L187.492 7.5772C189.872 9.88102 191.16 13.1109 191.16 17.525H193.16H195.16C195.16 12.2791 193.597 7.91898 190.273 4.70279L188.882 6.14ZM193.16 17.525H191.16V38.156H193.16H195.16V17.525H193.16ZM193.16 38.156H191.16C191.16 42.6224 189.868 45.8726 187.492 48.1728L188.882 49.61L190.273 51.0472C193.6 47.8274 195.16 43.4416 195.16 38.156H193.16ZM188.882 49.61L187.48 48.1841C185.129 50.4962 181.86 51.75 177.428 51.75V53.75V55.75C182.657 55.75 187.023 54.2438 190.285 51.0359L188.882 49.61ZM177.428 46.16V48.16C180.116 48.16 182.489 47.4428 184.182 45.6843L182.741 44.297L181.301 42.9097C180.602 43.6352 179.433 44.16 177.428 44.16V46.16ZM182.741 44.297L184.207 45.6579C185.848 43.8904 186.535 41.5242 186.535 38.846H184.535H182.535C182.535 40.8597 182.027 42.1276 181.276 42.9361L182.741 44.297ZM184.535 38.846H186.535V16.904H184.535H182.535V38.846H184.535ZM184.535 16.904H186.535C186.535 14.2309 185.85 11.867 184.182 10.1347L182.741 11.522L181.301 12.9093C182.025 13.661 182.535 14.8851 182.535 16.904H184.535ZM182.741 11.522L184.207 10.1611C182.518 8.34206 180.136 7.58999 177.428 7.58999V9.58999V11.59C179.413 11.59 180.573 12.1259 181.276 12.8829L182.741 11.522ZM177.428 9.58999V7.58999C174.721 7.58999 172.339 8.34206 170.65 10.1611L172.115 11.522L173.581 12.8829C174.284 12.1259 175.444 11.59 177.428 11.59V9.58999ZM172.115 11.522L170.675 10.1347C169.007 11.867 168.321 14.2309 168.321 16.904H170.321H172.321C172.321 14.8851 172.832 13.661 173.556 12.9093L172.115 11.522ZM170.321 16.904H168.321V38.846H170.321H172.321V16.904H170.321ZM170.321 38.846H168.321C168.321 41.5242 169.009 43.8904 170.65 45.6579L172.115 44.297L173.581 42.9361C172.83 42.1276 172.321 40.8597 172.321 38.846H170.321ZM172.115 44.297L170.675 45.6843C172.368 47.4428 174.741 48.16 177.428 48.16V46.16V44.16C175.424 44.16 174.255 43.6352 173.556 42.9097L172.115 44.297ZM227.564 4.622L226.644 6.39751L226.65 6.40094L226.657 6.40432L227.564 4.622ZM233.429 10.073L231.706 11.087L231.71 11.0945L231.714 11.102L233.429 10.073ZM233.429 26.426L235.144 27.455L235.149 27.4475L235.153 27.44L233.429 26.426ZM227.564 31.808L226.657 30.0257L226.65 30.0291L226.644 30.0325L227.564 31.808ZM210.659 33.74V31.74H208.659V33.74H210.659ZM210.659 26.15H208.659V28.15H210.659V26.15ZM224.597 23.942L223.161 22.5504V22.5504L224.597 23.942ZM224.597 12.488L223.161 13.8796V13.8796L224.597 12.488ZM203.69 53.06V51.06C203.582 51.06 203.571 51.0453 203.622 51.0628C203.683 51.0841 203.789 51.1376 203.891 51.2437C203.991 51.3481 204.032 51.4451 204.043 51.4801C204.051 51.5064 204.034 51.4687 204.034 51.335H202.034H200.034C200.034 52.1983 200.24 53.2167 201.006 54.0138C201.786 54.8262 202.809 55.06 203.69 55.06V53.06ZM202.034 51.335H204.034V4.41499H202.034H200.034V51.335H202.034ZM202.034 4.41499H204.034C204.034 4.28131 204.051 4.24358 204.043 4.26986C204.032 4.30486 203.991 4.40193 203.891 4.50631C203.789 4.61245 203.683 4.66592 203.622 4.68716C203.571 4.70473 203.582 4.68999 203.69 4.68999V2.68999V0.689995C202.809 0.689995 201.786 0.92384 201.006 1.73618C200.24 2.53329 200.034 3.55166 200.034 4.41499H202.034ZM203.69 2.68999V4.68999H218.801V2.68999V0.689995H203.69V2.68999ZM218.801 2.68999V4.68999C221.903 4.68999 224.496 5.28375 226.644 6.39751L227.564 4.622L228.485 2.84649C225.665 1.38425 222.416 0.689995 218.801 0.689995V2.68999ZM227.564 4.622L226.657 6.40432C228.863 7.52715 230.527 9.08432 231.706 11.087L233.429 10.073L235.153 9.05896C233.571 6.36967 231.326 4.29285 228.472 2.83967L227.564 4.622ZM233.429 10.073L231.714 11.102C232.879 13.0427 233.499 15.3884 233.499 18.215H235.499H237.499C237.499 14.7856 236.74 11.7033 235.144 9.044L233.429 10.073ZM235.499 18.215H233.499C233.499 21.0405 232.879 23.4168 231.706 25.412L233.429 26.426L235.153 27.44C236.74 24.7432 237.499 21.6455 237.499 18.215H235.499ZM233.429 26.426L231.714 25.397C230.539 27.3559 228.873 28.8976 226.657 30.0257L227.564 31.808L228.472 33.5903C231.316 32.1424 233.56 30.0961 235.144 27.455L233.429 26.426ZM227.564 31.808L226.644 30.0325C224.496 31.1462 221.903 31.74 218.801 31.74V33.74V35.74C222.416 35.74 225.665 35.0457 228.485 33.5835L227.564 31.808ZM218.801 33.74V31.74H210.659V33.74V35.74H218.801V33.74ZM210.659 33.74H208.659V51.335H210.659H212.659V33.74H210.659ZM210.659 51.335H208.659C208.659 51.4618 208.643 51.4913 208.654 51.4572C208.669 51.4134 208.713 51.3151 208.814 51.2145C208.915 51.114 209.013 51.0694 209.057 51.0548C209.091 51.0435 209.061 51.06 208.934 51.06V53.06V55.06C209.818 55.06 210.848 54.8378 211.642 54.043C212.437 53.2481 212.659 52.2183 212.659 51.335H210.659ZM208.934 53.06V51.06H203.69V53.06V55.06H208.934V53.06ZM210.659 26.15V28.15H218.801V26.15V24.15H210.659V26.15ZM218.801 26.15V28.15C221.67 28.15 224.161 27.2674 226.034 25.3336L224.597 23.942L223.161 22.5504C222.182 23.5606 220.809 24.15 218.801 24.15V26.15ZM224.597 23.942L226.034 25.3336C227.874 23.434 228.736 20.9992 228.736 18.215H226.736H224.736C224.736 20.1228 224.173 21.506 223.161 22.5504L224.597 23.942ZM226.736 18.215H228.736C228.736 15.4308 227.874 12.996 226.034 11.0964L224.597 12.488L223.161 13.8796C224.173 14.924 224.736 16.3072 224.736 18.215H226.736ZM224.597 12.488L226.034 11.0964C224.161 9.16259 221.67 8.28 218.801 8.28V10.28V12.28C220.809 12.28 222.182 12.8694 223.161 13.8796L224.597 12.488ZM218.801 10.28V8.28H212.384V10.28V12.28H218.801V10.28ZM212.384 10.28V8.28C211.521 8.28 210.503 8.48599 209.706 9.25122C208.893 10.0311 208.659 11.0545 208.659 11.936H210.659H212.659C212.659 11.8279 212.674 11.8169 212.657 11.8675C212.635 11.9287 212.582 12.0349 212.476 12.1368C212.371 12.237 212.274 12.2771 212.239 12.2883C212.213 12.2968 212.251 12.28 212.384 12.28V10.28ZM210.659 11.936H208.659V26.15H210.659H212.659V11.936H210.659ZM11.3152 70.252H9.31521V72.252H11.3152V70.252ZM17.2492 70.252V72.252H18.5216L19.0608 71.0995L17.2492 70.252ZM26.2882 50.932L28.0998 51.7795L28.108 51.762L28.1158 51.7443L26.2882 50.932ZM35.2582 50.311L33.5099 51.2823L33.5762 51.4017L33.6582 51.511L35.2582 50.311ZM35.2582 51.691L33.4694 50.7966L33.4597 50.8158L33.4505 50.8353L35.2582 51.691ZM24.8392 73.702L23.0315 72.8463L22.6363 73.6812L23.0157 74.5234L24.8392 73.702ZM35.8102 98.059L33.9867 98.8804L34.0033 98.9173L34.0214 98.9534L35.8102 98.059ZM35.8102 99.508L34.1461 98.3986L34.1298 98.4231L34.1142 98.448L35.8102 99.508ZM26.5642 98.749L28.4075 97.9729L28.3989 97.9525L28.3899 97.9323L26.5642 98.749ZM17.1802 77.773L19.0059 76.9563L18.4765 75.773H17.1802V77.773ZM11.3152 77.773V75.773H9.31521V77.773H11.3152ZM4.41521 100.06V98.06C4.28841 98.06 4.25888 98.0434 4.29298 98.0548C4.33677 98.0694 4.4351 98.114 4.53568 98.2145C4.63625 98.3151 4.6808 98.4134 4.69539 98.4572C4.70676 98.4913 4.69021 98.4618 4.69021 98.335H2.69021H0.690213C0.690213 99.2183 0.91239 100.248 1.70725 101.043C2.50211 101.838 3.53192 102.06 4.41521 102.06V100.06ZM2.69021 98.335H4.69021V51.415H2.69021H0.690213V98.335H2.69021ZM2.69021 51.415H4.69021C4.69021 51.2882 4.70676 51.2587 4.69539 51.2928C4.6808 51.3366 4.63625 51.4349 4.53568 51.5355C4.4351 51.636 4.33677 51.6806 4.29298 51.6952C4.25888 51.7065 4.28841 51.69 4.41521 51.69V49.69V47.69C3.53192 47.69 2.50211 47.9122 1.70725 48.707C0.91239 49.5019 0.690213 50.5317 0.690213 51.415H2.69021ZM4.41521 49.69V51.69H9.65921V49.69V47.69H4.41521V49.69ZM9.65921 49.69V51.69C9.76729 51.69 9.7783 51.7047 9.72769 51.6872C9.66654 51.6659 9.56033 51.6124 9.45844 51.5063C9.35823 51.4019 9.31807 51.3049 9.30687 51.2699C9.29845 51.2436 9.31521 51.2813 9.31521 51.415H11.3152H13.3152C13.3152 50.5517 13.1092 49.5333 12.344 48.7362C11.5641 47.9238 10.5408 47.69 9.65921 47.69V49.69ZM11.3152 51.415H9.31521V70.252H11.3152H13.3152V51.415H11.3152ZM11.3152 70.252V72.252H17.2492V70.252V68.252H11.3152V70.252ZM17.2492 70.252L19.0608 71.0995L28.0998 51.7795L26.2882 50.932L24.4767 50.0845L15.4377 69.4045L17.2492 70.252ZM26.2882 50.932L28.1158 51.7443C28.1451 51.6784 28.1654 51.6532 28.1664 51.652C28.167 51.6513 28.1638 51.6552 28.1566 51.6617C28.1492 51.6684 28.1398 51.6758 28.1287 51.6829C28.1044 51.6985 28.0886 51.7024 28.0938 51.701C28.1012 51.6991 28.1398 51.69 28.2202 51.69V49.69V47.69C27.4549 47.69 26.6703 47.8652 25.9657 48.3181C25.2591 48.7724 24.7735 49.4157 24.4606 50.1197L26.2882 50.932ZM28.2202 49.69V51.69H33.9472V49.69V47.69H28.2202V49.69ZM33.9472 49.69V51.69C34.0667 51.69 34.0243 51.7108 33.9018 51.6527C33.8369 51.622 33.7599 51.5737 33.6841 51.5031C33.6079 51.4322 33.5502 51.3549 33.5099 51.2823L35.2582 50.311L37.0065 49.3397C36.2997 48.0675 35.02 47.69 33.9472 47.69V49.69ZM35.2582 50.311L33.6582 51.511C33.6053 51.4404 33.5532 51.3479 33.5161 51.2367C33.479 51.1255 33.4652 51.0203 33.4652 50.932C33.4652 50.7641 33.5138 50.7078 33.4694 50.7966L35.2582 51.691L37.0471 52.5854C37.5268 51.626 37.7454 50.2939 36.8582 49.111L35.2582 50.311ZM35.2582 51.691L33.4505 50.8353L23.0315 72.8463L24.8392 73.702L26.6469 74.5577L37.0659 52.5467L35.2582 51.691ZM24.8392 73.702L23.0157 74.5234L33.9867 98.8804L35.8102 98.059L37.6338 97.2376L26.6628 72.8806L24.8392 73.702ZM35.8102 98.059L34.0214 98.9534C34.0579 99.0265 34.0172 98.9783 34.0172 98.8353C34.0172 98.7625 34.0281 98.6804 34.0539 98.5964C34.0796 98.5129 34.1143 98.4463 34.1461 98.3986L35.8102 99.508L37.4743 100.617C38.249 99.4554 38.1058 98.178 37.5991 97.1646L35.8102 98.059ZM35.8102 99.508L34.1142 98.448C34.1701 98.3587 34.2416 98.2767 34.3238 98.2087C34.4047 98.1418 34.4799 98.1014 34.5339 98.0787C34.6321 98.0374 34.6444 98.06 34.4992 98.06V100.06V102.06C35.4736 102.06 36.7541 101.771 37.5062 100.568L35.8102 99.508ZM34.4992 100.06V98.06H28.5652V100.06V102.06H34.4992V100.06ZM28.5652 100.06V98.06C28.4739 98.06 28.4273 98.0496 28.4138 98.046C28.4029 98.0431 28.4149 98.0451 28.4365 98.0593C28.4584 98.0737 28.4683 98.0861 28.466 98.0833C28.4622 98.0784 28.4389 98.0474 28.4075 97.9729L26.5642 98.749L24.7209 99.5251C25.0295 100.258 25.5194 100.93 26.2444 101.405C26.9668 101.878 27.776 102.06 28.5652 102.06V100.06ZM26.5642 98.749L28.3899 97.9323L19.0059 76.9563L17.1802 77.773L15.3546 78.5897L24.7386 99.5657L26.5642 98.749ZM17.1802 77.773V75.773H11.3152V77.773V79.773H17.1802V77.773ZM11.3152 77.773H9.31521V98.335H11.3152H13.3152V77.773H11.3152ZM11.3152 98.335H9.31521C9.31521 98.4687 9.29845 98.5064 9.30687 98.4801C9.31807 98.4451 9.35823 98.3481 9.45844 98.2437C9.56033 98.1376 9.66654 98.0841 9.72769 98.0628C9.7783 98.0453 9.76729 98.06 9.65921 98.06V100.06V102.06C10.5408 102.06 11.5641 101.826 12.344 101.014C13.1092 100.217 13.3152 99.1983 13.3152 98.335H11.3152ZM9.65921 100.06V98.06H4.41521V100.06V102.06H9.65921V100.06ZM46.6163 96.61L45.2138 98.0359L45.2196 98.0415L45.2254 98.0472L46.6163 96.61ZM46.6163 53.14L45.2254 51.7028L45.2196 51.7084L45.2138 51.7141L46.6163 53.14ZM69.5933 53.14L68.1908 54.5658L68.1966 54.5715L68.2024 54.5772L69.5933 53.14ZM69.5933 96.61L68.2024 95.1728L68.1966 95.1784L68.1908 95.1841L69.5933 96.61ZM63.4523 91.297L64.8929 92.6843L64.9055 92.6712L64.9178 92.6579L63.4523 91.297ZM63.4523 58.522L61.9867 59.8829L61.999 59.8962L62.0116 59.9093L63.4523 58.522ZM52.8263 58.522L54.2669 59.9093L54.2795 59.8962L54.2918 59.8829L52.8263 58.522ZM52.8263 91.297L51.3607 92.6579L51.373 92.6712L51.3856 92.6843L52.8263 91.297ZM58.1393 100.75V98.75C53.7089 98.75 50.4083 97.4965 48.0071 95.1728L46.6163 96.61L45.2254 98.0472C48.5282 101.243 52.9096 102.75 58.1393 102.75V100.75ZM46.6163 96.61L48.0187 95.1841C45.6821 92.8858 44.4073 89.6319 44.4073 85.156H42.4073H40.4073C40.4073 90.4321 41.9384 94.8141 45.2138 98.0359L46.6163 96.61ZM42.4073 85.156H44.4073V64.594H42.4073H40.4073V85.156H42.4073ZM42.4073 64.594H44.4073C44.4073 60.1181 45.6821 56.8641 48.0187 54.5658L46.6163 53.14L45.2138 51.7141C41.9384 54.9359 40.4073 59.3179 40.4073 64.594H42.4073ZM46.6163 53.14L48.0071 54.5772C50.4083 52.2535 53.7089 51 58.1393 51V49V47C52.9096 47 48.5282 48.5065 45.2254 51.7028L46.6163 53.14ZM58.1393 49V51C62.5709 51 65.8402 52.2538 68.1908 54.5658L69.5933 53.14L70.9957 51.7141C67.7343 48.5062 63.3676 47 58.1393 47V49ZM69.5933 53.14L68.2024 54.5772C70.583 56.881 71.8713 60.1109 71.8713 64.525H73.8713H75.8713C75.8713 59.2791 74.3075 54.919 70.9841 51.7028L69.5933 53.14ZM73.8713 64.525H71.8713V85.156H73.8713H75.8713V64.525H73.8713ZM73.8713 85.156H71.8713C71.8713 89.6224 70.5793 92.8726 68.2024 95.1728L69.5933 96.61L70.9841 98.0472C74.3112 94.8274 75.8713 90.4416 75.8713 85.156H73.8713ZM69.5933 96.61L68.1908 95.1841C65.8402 97.4962 62.5709 98.75 58.1393 98.75V100.75V102.75C63.3676 102.75 67.7343 101.244 70.9957 98.0359L69.5933 96.61ZM58.1393 93.16V95.16C60.8266 95.16 63.1995 94.4428 64.8929 92.6843L63.4523 91.297L62.0116 89.9097C61.313 90.6352 60.144 91.16 58.1393 91.16V93.16ZM63.4523 91.297L64.9178 92.6579C66.5591 90.8904 67.2463 88.5242 67.2463 85.846H65.2463H63.2463C63.2463 87.8597 62.7374 89.1276 61.9867 89.9361L63.4523 91.297ZM65.2463 85.846H67.2463V63.904H65.2463H63.2463V85.846H65.2463ZM65.2463 63.904H67.2463C67.2463 61.2309 66.561 58.867 64.8929 57.1347L63.4523 58.522L62.0116 59.9093C62.7355 60.661 63.2463 61.8851 63.2463 63.904H65.2463ZM63.4523 58.522L64.9178 57.1611C63.2287 55.3421 60.8469 54.59 58.1393 54.59V56.59V58.59C60.1236 58.59 61.2838 59.1259 61.9867 59.8829L63.4523 58.522ZM58.1393 56.59V54.59C55.4316 54.59 53.0498 55.3421 51.3607 57.1611L52.8263 58.522L54.2918 59.8829C54.9948 59.1259 56.1549 58.59 58.1393 58.59V56.59ZM52.8263 58.522L51.3856 57.1347C49.7175 58.867 49.0323 61.2309 49.0323 63.904H51.0323H53.0323C53.0323 61.8851 53.543 60.661 54.2669 59.9093L52.8263 58.522ZM51.0323 63.904H49.0323V85.846H51.0323H53.0323V63.904H51.0323ZM51.0323 85.846H49.0323C49.0323 88.5242 49.7194 90.8904 51.3607 92.6579L52.8263 91.297L54.2918 89.9361C53.5411 89.1276 53.0323 87.8597 53.0323 85.846H51.0323ZM52.8263 91.297L51.3856 92.6843C53.079 94.4428 55.452 95.16 58.1393 95.16V93.16V91.16C56.1346 91.16 54.9655 90.6352 54.2669 89.9097L52.8263 91.297ZM108.275 51.622L107.355 53.3975L107.361 53.4009L107.368 53.4043L108.275 51.622ZM114.14 57.073L112.416 58.087L112.421 58.0945L112.425 58.102L114.14 57.073ZM114.14 73.426L115.855 74.455L115.86 74.4475L115.864 74.44L114.14 73.426ZM108.275 78.808L107.368 77.0257L107.361 77.0291L107.355 77.0325L108.275 78.808ZM91.3703 80.74V78.74H89.3703V80.74H91.3703ZM91.3703 73.15H89.3703V75.15H91.3703V73.15ZM105.308 70.942L103.872 69.5504V69.5504L105.308 70.942ZM105.308 59.488L103.872 60.8796V60.8796L105.308 59.488ZM84.4013 100.06V98.06C84.2932 98.06 84.2822 98.0453 84.3328 98.0628C84.394 98.0841 84.5002 98.1376 84.6021 98.2437C84.7023 98.3481 84.7425 98.4451 84.7537 98.4801C84.7621 98.5064 84.7453 98.4687 84.7453 98.335H82.7453H80.7453C80.7453 99.1983 80.9513 100.217 81.7165 101.014C82.4964 101.826 83.5198 102.06 84.4013 102.06V100.06ZM82.7453 98.335H84.7453V51.415H82.7453H80.7453V98.335H82.7453ZM82.7453 51.415H84.7453C84.7453 51.2813 84.7621 51.2436 84.7537 51.2699C84.7425 51.3049 84.7023 51.4019 84.6021 51.5063C84.5002 51.6124 84.394 51.6659 84.3328 51.6872C84.2822 51.7047 84.2932 51.69 84.4013 51.69V49.69V47.69C83.5198 47.69 82.4964 47.9238 81.7165 48.7362C80.9513 49.5333 80.7453 50.5517 80.7453 51.415H82.7453ZM84.4013 49.69V51.69H99.5123V49.69V47.69H84.4013V49.69ZM99.5123 49.69V51.69C102.614 51.69 105.207 52.2837 107.355 53.3975L108.275 51.622L109.196 49.8465C106.376 48.3842 103.127 47.69 99.5123 47.69V49.69ZM108.275 51.622L107.368 53.4043C109.573 54.5271 111.238 56.0843 112.416 58.087L114.14 57.073L115.864 56.059C114.282 53.3697 112.037 51.2928 109.183 49.8397L108.275 51.622ZM114.14 57.073L112.425 58.102C113.59 60.0427 114.21 62.3884 114.21 65.215H116.21H118.21C118.21 61.7856 117.451 58.7033 115.855 56.044L114.14 57.073ZM116.21 65.215H114.21C114.21 68.0405 113.59 70.4168 112.416 72.412L114.14 73.426L115.864 74.44C117.451 71.7432 118.21 68.6455 118.21 65.215H116.21ZM114.14 73.426L112.425 72.397C111.25 74.3559 109.584 75.8976 107.368 77.0257L108.275 78.808L109.183 80.5903C112.027 79.1424 114.271 77.0961 115.855 74.455L114.14 73.426ZM108.275 78.808L107.355 77.0325C105.207 78.1462 102.614 78.74 99.5123 78.74V80.74V82.74C103.127 82.74 106.376 82.0457 109.196 80.5835L108.275 78.808ZM99.5123 80.74V78.74H91.3703V80.74V82.74H99.5123V80.74ZM91.3703 80.74H89.3703V98.335H91.3703H93.3703V80.74H91.3703ZM91.3703 98.335H89.3703C89.3703 98.4618 89.3538 98.4913 89.3651 98.4572C89.3797 98.4134 89.4243 98.3151 89.5248 98.2145C89.6254 98.114 89.7238 98.0694 89.7675 98.0548C89.8016 98.0434 89.7721 98.06 89.6453 98.06V100.06V102.06C90.5286 102.06 91.5584 101.838 92.3533 101.043C93.1481 100.248 93.3703 99.2183 93.3703 98.335H91.3703ZM89.6453 100.06V98.06H84.4013V100.06V102.06H89.6453V100.06ZM91.3703 73.15V75.15H99.5123V73.15V71.15H91.3703V73.15ZM99.5123 73.15V75.15C102.381 75.15 104.871 74.2674 106.745 72.3336L105.308 70.942L103.872 69.5504C102.893 70.5606 101.52 71.15 99.5123 71.15V73.15ZM105.308 70.942L106.745 72.3336C108.585 70.434 109.447 67.9992 109.447 65.215H107.447H105.447C105.447 67.1228 104.884 68.506 103.872 69.5504L105.308 70.942ZM107.447 65.215H109.447C109.447 62.4308 108.585 59.996 106.745 58.0964L105.308 59.488L103.872 60.8796C104.884 61.924 105.447 63.3072 105.447 65.215H107.447ZM105.308 59.488L106.745 58.0964C104.871 56.1626 102.381 55.28 99.5123 55.28V57.28V59.28C101.52 59.28 102.893 59.8694 103.872 60.8796L105.308 59.488ZM99.5123 57.28V55.28H93.0953V57.28V59.28H99.5123V57.28ZM93.0953 57.28V55.28C92.232 55.28 91.2136 55.486 90.4165 56.2512C89.6041 57.0311 89.3703 58.0545 89.3703 58.936H91.3703H93.3703C93.3703 58.8279 93.385 58.8169 93.3675 58.8675C93.3462 58.9287 93.2928 59.0349 93.1866 59.1368C93.0822 59.237 92.9852 59.2771 92.9502 59.2883C92.9239 59.2968 92.9616 59.28 93.0953 59.28V57.28ZM91.3703 58.936H89.3703V73.15H91.3703H93.3703V58.936H91.3703ZM122.807 100.06H120.807V102.06H122.807V100.06ZM122.807 49.69V47.69H120.807V49.69H122.807ZM153.443 49.69H155.443V47.69H153.443V49.69ZM153.443 100.06V102.06H155.443V100.06H153.443ZM144.818 100.06H142.818V102.06H144.818V100.06ZM144.818 57.487H146.818V55.487H144.818V57.487ZM131.432 57.487V55.487H129.432V57.487H131.432ZM131.432 100.06V102.06H133.432V100.06H131.432ZM122.807 100.06H124.807V49.69H122.807H120.807V100.06H122.807ZM122.807 49.69V51.69H153.443V49.69V47.69H122.807V49.69ZM153.443 49.69H151.443V100.06H153.443H155.443V49.69H153.443ZM153.443 100.06V98.06H144.818V100.06V102.06H153.443V100.06ZM144.818 100.06H146.818V57.487H144.818H142.818V100.06H144.818ZM144.818 57.487V55.487H131.432V57.487V59.487H144.818V57.487ZM131.432 57.487H129.432V100.06H131.432H133.432V57.487H131.432ZM131.432 100.06V98.06H122.807V100.06V102.06H131.432V100.06ZM169.355 100.06L167.499 99.3155L166.398 102.06H169.355V100.06ZM174.53 87.157L176.387 87.9015L176.682 87.1652L176.392 86.4267L174.53 87.157ZM159.833 49.69V47.69H156.9L157.972 50.4203L159.833 49.69ZM169.217 49.69L171.11 49.0435L170.648 47.69H169.217V49.69ZM176.807 71.908L174.915 72.5545L174.919 72.5676L174.924 72.5807L176.807 71.908ZM177.98 75.979L176.03 76.4195L176.038 76.4571L176.048 76.4943L177.98 75.979ZM178.67 79.36L176.681 79.5694H180.659L178.67 79.36ZM179.222 75.979L177.272 75.5385L177.266 75.5626L177.261 75.5868L179.222 75.979ZM180.257 71.908L178.349 71.3094L178.341 71.3339L178.334 71.3586L180.257 71.908ZM187.226 49.69V47.69H185.758L185.318 49.0914L187.226 49.69ZM196.403 49.69L198.287 50.361L199.239 47.69H196.403V49.69ZM178.463 100.06V102.06H179.874L180.347 100.731L178.463 100.06ZM169.355 100.06L171.212 100.804L176.387 87.9015L174.53 87.157L172.674 86.4125L167.499 99.3155L169.355 100.06ZM174.53 87.157L176.392 86.4267L161.695 48.9596L159.833 49.69L157.972 50.4203L172.669 87.8873L174.53 87.157ZM159.833 49.69V51.69H169.217V49.69V47.69H159.833V49.69ZM169.217 49.69L167.325 50.3365L174.915 72.5545L176.807 71.908L178.7 71.2615L171.11 49.0435L169.217 49.69ZM176.807 71.908L174.924 72.5807C175.355 73.7877 175.724 75.0668 176.03 76.4195L177.98 75.979L179.931 75.5385C179.593 74.0391 179.18 72.6043 178.691 71.2353L176.807 71.908ZM177.98 75.979L176.048 76.4943C176.403 77.8277 176.605 78.8422 176.681 79.5694L178.67 79.36L180.659 79.1506C180.552 78.1298 180.293 76.8903 179.913 75.4637L177.98 75.979ZM178.67 79.36L180.659 79.5694C180.742 78.7818 180.913 77.722 181.184 76.3712L179.222 75.979L177.261 75.5868C176.979 76.996 176.782 78.1902 176.681 79.1506L178.67 79.36ZM179.222 75.979L181.173 76.4195C181.488 75.0268 181.824 73.7063 182.18 72.4574L180.257 71.908L178.334 71.3586C177.955 72.6857 177.601 74.0792 177.272 75.5385L179.222 75.979ZM180.257 71.908L182.166 72.5066L189.135 50.2886L187.226 49.69L185.318 49.0914L178.349 71.3094L180.257 71.908ZM187.226 49.69V51.69H196.403V49.69V47.69H187.226V49.69ZM196.403 49.69L194.519 49.019L176.579 99.389L178.463 100.06L180.347 100.731L198.287 50.361L196.403 49.69ZM178.463 100.06V98.06H169.355V100.06V102.06H178.463V100.06ZM210.176 98.956L209.255 100.731L209.268 100.738L209.282 100.745L210.176 98.956ZM204.587 93.781L202.851 94.7733L202.863 94.7944L202.876 94.8152L204.587 93.781ZM204.587 56.038L202.866 55.0193L202.86 55.0303L204.587 56.038ZM210.176 50.863L211.071 52.6518L211.085 52.645L211.098 52.638L210.176 50.863ZM229.703 52.588L228.418 54.1204L228.426 54.1265L228.433 54.1326L229.703 52.588ZM234.533 62.11L236.528 61.9566L236.526 61.9417L236.525 61.9269L234.533 62.11ZM225.839 62.248L223.861 62.5376L223.863 62.5572L223.867 62.5768L225.839 62.248ZM213.212 58.522L214.601 59.9617L214.614 59.9491L214.627 59.9362L213.212 58.522ZM213.212 91.297L211.798 92.7112L211.811 92.7241L211.824 92.7367L213.212 91.297ZM225.839 87.502L223.867 87.1732L223.863 87.1928L223.861 87.2124L225.839 87.502ZM234.602 87.502L236.594 87.6831L236.599 87.6342L236.601 87.5853L234.602 87.502ZM229.772 97.162L228.487 95.6296V95.6296L229.772 97.162ZM218.663 100.75V98.75C215.64 98.75 213.13 98.1969 211.071 97.1671L210.176 98.956L209.282 100.745C212.006 102.107 215.155 102.75 218.663 102.75V100.75ZM210.176 98.956L211.098 97.181C209.017 96.1006 207.434 94.6254 206.299 92.7468L204.587 93.781L202.876 94.8152C204.409 97.3526 206.552 99.3274 209.255 100.731L210.176 98.956ZM204.587 93.781L206.324 92.7887C205.236 90.8847 204.655 88.5934 204.655 85.846H202.655H200.655C200.655 89.1706 201.363 92.1693 202.851 94.7733L204.587 93.781ZM202.655 85.846H204.655V63.904H202.655H200.655V85.846H202.655ZM202.655 63.904H204.655C204.655 61.1553 205.236 58.8949 206.315 57.0457L204.587 56.038L202.86 55.0303C201.363 57.5971 200.655 60.5807 200.655 63.904H202.655ZM204.587 56.038L206.309 57.0566C207.442 55.1408 209.015 53.6797 211.071 52.6518L210.176 50.863L209.282 49.0741C206.554 50.4382 204.4 52.4272 202.866 55.0194L204.587 56.038ZM210.176 50.863L211.098 52.638C213.151 51.572 215.651 51 218.663 51V49V47C215.144 47 211.986 47.67 209.255 49.088L210.176 50.863ZM218.663 49V51C222.805 51 225.998 52.0907 228.418 54.1204L229.703 52.588L230.989 51.0556C227.705 48.3013 223.538 47 218.663 47V49ZM229.703 52.588L228.433 54.1326C230.834 56.1076 232.218 58.7712 232.542 62.2931L234.533 62.11L236.525 61.9269C236.113 57.4448 234.277 53.7604 230.974 51.0434L229.703 52.588ZM234.533 62.11L232.539 62.2634C232.55 62.405 232.534 62.4381 232.544 62.3981C232.558 62.3462 232.603 62.2247 232.719 62.0989C232.835 61.973 232.953 61.9176 233.006 61.8995C233.047 61.8855 233.018 61.904 232.877 61.904V63.904V65.904C233.769 65.904 234.855 65.6819 235.658 64.8121C236.46 63.9436 236.596 62.8445 236.528 61.9566L234.533 62.11ZM232.877 63.904V61.904H227.702V63.904V65.904H232.877V63.904ZM227.702 63.904V61.904C227.61 61.904 227.589 61.8917 227.616 61.9005C227.63 61.9052 227.653 61.9145 227.683 61.9313C227.713 61.9482 227.743 61.9697 227.772 61.9952C227.8 62.0205 227.822 62.0453 227.837 62.0657C227.845 62.0756 227.85 62.0837 227.853 62.0894C227.857 62.0951 227.858 62.0982 227.858 62.0981C227.857 62.0961 227.833 62.0452 227.812 61.9192L225.839 62.248L223.867 62.5768C224.008 63.4234 224.36 64.3144 225.114 64.9848C225.883 65.6676 226.822 65.904 227.702 65.904V63.904ZM225.839 62.248L227.818 61.9584C227.488 59.6997 226.562 57.7681 224.87 56.434C223.206 55.1222 221.057 54.59 218.663 54.59V56.59V58.59C220.502 58.59 221.665 59.0008 222.393 59.575C223.093 60.1269 223.639 61.0243 223.861 62.5376L225.839 62.248ZM218.663 56.59V54.59C215.947 54.59 213.561 55.3451 211.798 57.1078L213.212 58.522L214.627 59.9362C215.44 59.1229 216.688 58.59 218.663 58.59V56.59ZM213.212 58.522L211.824 57.0823C210.034 58.8084 209.28 61.1916 209.28 63.904H211.28H213.28C213.28 61.9244 213.815 60.7196 214.601 59.9617L213.212 58.522ZM211.28 63.904H209.28V85.846H211.28H213.28V63.904H211.28ZM211.28 85.846H209.28C209.28 88.5627 210.036 90.9486 211.798 92.7112L213.212 91.297L214.627 89.8828C213.813 89.0694 213.28 87.8213 213.28 85.846H211.28ZM213.212 91.297L211.824 92.7367C213.59 94.4392 215.966 95.16 218.663 95.16V93.16V91.16C216.669 91.16 215.411 90.6388 214.601 89.8573L213.212 91.297ZM218.663 93.16V95.16C221.057 95.16 223.206 94.6278 224.87 93.316C226.562 91.9819 227.488 90.0503 227.818 87.7916L225.839 87.502L223.861 87.2124C223.639 88.7257 223.093 89.6231 222.393 90.175C221.665 90.7492 220.502 91.16 218.663 91.16V93.16ZM225.839 87.502L227.812 87.8308C227.833 87.7048 227.857 87.6538 227.858 87.6519C227.858 87.6518 227.857 87.6549 227.853 87.6606C227.85 87.6663 227.845 87.6744 227.837 87.6843C227.822 87.7047 227.8 87.7294 227.772 87.7548C227.743 87.7803 227.713 87.8018 227.683 87.8187C227.653 87.8355 227.63 87.8448 227.616 87.8494C227.589 87.8583 227.61 87.846 227.702 87.846V85.846V83.846C226.822 83.846 225.883 84.0824 225.114 84.7652C224.36 85.4356 224.008 86.3266 223.867 87.1732L225.839 87.502ZM227.702 85.846V87.846H232.877V85.846V83.846H227.702V85.846ZM232.877 85.846V87.846C233.03 87.846 233.081 87.8644 233.063 87.8589C233.037 87.8507 232.934 87.812 232.821 87.7028C232.703 87.5899 232.641 87.4667 232.615 87.3861C232.594 87.3184 232.608 87.3164 232.604 87.4187L234.602 87.502L236.601 87.5853C236.638 86.6902 236.433 85.626 235.591 84.8172C234.781 84.0399 233.738 83.846 232.877 83.846V85.846ZM234.602 87.502L232.611 87.3209C232.286 90.8961 230.895 93.6099 228.487 95.6296L229.772 97.162L231.058 98.6944C234.354 95.9301 236.183 92.2039 236.594 87.6831L234.602 87.502ZM229.772 97.162L228.487 95.6296C226.071 97.6563 222.856 98.75 218.663 98.75V100.75V102.75C223.579 102.75 227.77 101.452 231.058 98.6944L229.772 97.162ZM240.371 98.197L242.307 98.6989L242.31 98.6912L242.311 98.6834L240.371 98.197ZM252.171 51.139L254.11 51.6254L254.113 51.6138L254.116 51.6022L252.171 51.139ZM263.969 51.139L262.024 51.6022L262.027 51.6152L262.03 51.6281L263.969 51.139ZM275.837 98.197L273.898 98.6861L273.901 98.6989L275.837 98.197ZM267.281 98.542L269.249 98.1842L269.241 98.1366L269.23 98.0895L267.281 98.542ZM264.797 87.847L266.746 87.3945L266.386 85.847H264.797V87.847ZM251.411 87.847V85.847H249.813L249.461 87.4065L251.411 87.847ZM248.996 98.542L250.947 98.9852L250.947 98.9825L248.996 98.542ZM252.999 80.809L251.047 80.373L250.503 82.809H252.999V80.809ZM263.211 80.809V82.809H265.709L265.162 80.3709L263.211 80.809ZM260.174 67.285L262.126 66.8469L262.123 66.8343L262.12 66.8218L260.174 67.285ZM259.553 64.594L257.581 64.9228L257.59 64.9756L257.601 65.0279L259.553 64.594ZM259.139 62.248L261.105 61.8794L261.099 61.8467L261.092 61.8141L259.139 62.248ZM258.173 60.73L257.279 62.5188L257.353 62.5561L257.431 62.5869L258.173 60.73ZM257.276 61.42L255.315 61.0278L255.307 61.0678L255.301 61.1081L257.276 61.42ZM256.724 64.18L254.779 63.7168L254.768 63.761L254.76 63.8058L256.724 64.18ZM256.034 67.216L254.099 66.7112L254.09 66.7454L254.083 66.78L256.034 67.216ZM241.82 100.06V98.06C241.646 98.06 241.613 98.0372 241.667 98.0562C241.738 98.0809 241.914 98.164 242.071 98.3664C242.229 98.5692 242.267 98.7618 242.273 98.8399C242.279 98.9001 242.264 98.8656 242.307 98.6989L240.371 98.197L238.436 97.6951C238.217 98.5394 238.103 99.7796 238.914 100.822C239.722 101.862 240.95 102.06 241.82 102.06V100.06ZM240.371 98.197L242.311 98.6834L254.11 51.6254L252.171 51.139L250.231 50.6526L238.432 97.7106L240.371 98.197ZM252.171 51.139L254.116 51.6022C254.136 51.5198 254.151 51.5 254.141 51.5179C254.135 51.5272 254.124 51.5444 254.106 51.5659C254.087 51.5875 254.064 51.6099 254.037 51.631C254.01 51.6519 253.983 51.6681 253.96 51.6797C253.937 51.6913 253.921 51.6966 253.915 51.6984C253.904 51.7016 253.938 51.69 254.034 51.69V49.69V47.69C253.211 47.69 252.332 47.8893 251.581 48.4735C250.826 49.0609 250.417 49.8685 250.225 50.6758L252.171 51.139ZM254.034 49.69V51.69H262.107V49.69V47.69H254.034V49.69ZM262.107 49.69V51.69C262.203 51.69 262.236 51.7016 262.225 51.6984C262.219 51.6966 262.203 51.6913 262.18 51.6797C262.157 51.6681 262.13 51.6519 262.103 51.631C262.076 51.6099 262.053 51.5875 262.034 51.5659C262.016 51.5444 262.005 51.5272 261.999 51.5179C261.989 51.5 262.004 51.5198 262.024 51.6022L263.969 51.139L265.915 50.6758C265.723 49.8685 265.314 49.0609 264.559 48.4735C263.808 47.8893 262.929 47.69 262.107 47.69V49.69ZM263.969 51.139L262.03 51.6281L273.898 98.6861L275.837 98.197L277.777 97.7079L265.909 50.6499L263.969 51.139ZM275.837 98.197L273.901 98.6989C273.945 98.8656 273.93 98.9001 273.935 98.8399C273.942 98.7618 273.98 98.5692 274.138 98.3664C274.295 98.164 274.471 98.0809 274.542 98.0562C274.596 98.0372 274.563 98.06 274.388 98.06V100.06V102.06C275.259 102.06 276.487 101.862 277.295 100.822C278.106 99.7796 277.992 98.5394 277.773 97.6951L275.837 98.197ZM274.388 100.06V98.06H269.076V100.06V102.06H274.388V100.06ZM269.076 100.06V98.06C268.987 98.06 268.967 98.0487 268.994 98.0571C269.027 98.0674 269.091 98.0955 269.16 98.1537C269.228 98.2117 269.263 98.2675 269.275 98.2902C269.284 98.3077 269.267 98.2812 269.249 98.1842L267.281 98.542L265.314 98.8998C265.462 99.7177 265.825 100.572 266.576 101.207C267.331 101.846 268.237 102.06 269.076 102.06V100.06ZM267.281 98.542L269.23 98.0895L266.746 87.3945L264.797 87.847L262.849 88.2995L265.333 98.9945L267.281 98.542ZM264.797 87.847V85.847H251.411V87.847V89.847H264.797V87.847ZM251.411 87.847L249.461 87.4065L247.046 98.1015L248.996 98.542L250.947 98.9825L253.362 88.2875L251.411 87.847ZM248.996 98.542L247.046 98.0988C247.023 98.1994 247.003 98.2344 247.006 98.2281C247.008 98.2244 247.016 98.2111 247.032 98.1922C247.048 98.173 247.069 98.1514 247.095 98.13C247.121 98.1087 247.148 98.0912 247.173 98.0779C247.198 98.0647 247.217 98.0578 247.227 98.0547C247.246 98.0488 247.222 98.06 247.133 98.06V100.06V102.06C247.976 102.06 248.869 101.844 249.622 101.231C250.369 100.622 250.762 99.7969 250.947 98.9852L248.996 98.542ZM247.133 100.06V98.06H241.82V100.06V102.06H247.133V100.06ZM252.999 80.809V82.809H263.211V80.809V78.809H252.999V80.809ZM263.211 80.809L265.162 80.3709L262.126 66.8469L260.174 67.285L258.223 67.7231L261.259 81.2471L263.211 80.809ZM260.174 67.285L262.12 66.8218C261.892 65.8639 261.687 64.9768 261.506 64.1601L259.553 64.594L257.601 65.0279C257.788 65.8671 257.997 66.7741 258.229 67.7482L260.174 67.285ZM259.553 64.594L261.526 64.2652C261.386 63.4255 261.246 62.6301 261.105 61.8794L259.139 62.248L257.174 62.6166C257.309 63.3379 257.445 64.1065 257.581 64.9228L259.553 64.594ZM259.139 62.248L261.092 61.8141C260.866 60.7981 260.324 59.4361 258.916 58.873L258.173 60.73L257.431 62.5869C257.322 62.5436 257.234 62.4852 257.169 62.428C257.107 62.3731 257.078 62.3299 257.073 62.3212C257.068 62.3136 257.082 62.3341 257.106 62.3967C257.129 62.4588 257.158 62.5516 257.187 62.6819L259.139 62.248ZM258.173 60.73L259.068 58.9411C258.443 58.6287 257.363 58.3927 256.385 59.1447C255.636 59.7207 255.407 60.5702 255.315 61.0278L257.276 61.42L259.238 61.8122C259.251 61.7444 259.254 61.7693 259.217 61.8469C259.181 61.922 259.071 62.1248 258.824 62.3152C258.547 62.5284 258.202 62.6437 257.859 62.6437C257.553 62.6437 257.348 62.5533 257.279 62.5188L258.173 60.73ZM257.276 61.42L255.301 61.1081C255.172 61.9256 254.998 62.7948 254.779 63.7168L256.724 64.18L258.67 64.6432C258.911 63.6331 259.105 62.6624 259.252 61.7319L257.276 61.42ZM256.724 64.18L254.76 63.8058C254.585 64.7234 254.365 65.6917 254.099 66.7112L256.034 67.216L257.97 67.7208C258.256 66.6243 258.496 65.5686 258.689 64.5542L256.724 64.18ZM256.034 67.216L254.083 66.78L251.047 80.373L252.999 80.809L254.95 81.245L257.986 67.652L256.034 67.216ZM9.52121 145.956L8.59958 147.731L8.61313 147.738L8.62678 147.745L9.52121 145.956ZM3.93221 140.781L2.19572 141.773L2.2078 141.794L2.22038 141.815L3.93221 140.781ZM3.93221 103.038L2.21102 102.019L2.20465 102.03L3.93221 103.038ZM9.52121 97.863L10.4156 99.6518L10.4293 99.645L10.4428 99.638L9.52121 97.863ZM29.0482 99.588L27.763 101.12L27.7703 101.127L27.7777 101.133L29.0482 99.588ZM33.8782 109.11L35.8723 108.957L35.8712 108.942L35.8698 108.927L33.8782 109.11ZM25.1842 109.248L23.2053 109.538L23.2082 109.557L23.2114 109.577L25.1842 109.248ZM12.5572 105.522L13.9455 106.962L13.9586 106.949L13.9714 106.936L12.5572 105.522ZM12.5572 138.297L11.143 139.711L11.1559 139.724L11.1689 139.737L12.5572 138.297ZM25.1842 134.502L23.2114 134.173L23.2082 134.193L23.2053 134.212L25.1842 134.502ZM33.9472 134.502L35.939 134.683L35.9434 134.634L35.9455 134.585L33.9472 134.502ZM29.1172 144.162L27.832 142.63V142.63L29.1172 144.162ZM18.0082 147.75V145.75C14.9851 145.75 12.4752 145.197 10.4156 144.167L9.52121 145.956L8.62678 147.745C11.3512 149.107 14.4993 149.75 18.0082 149.75V147.75ZM9.52121 145.956L10.4428 144.181C8.36205 143.101 6.77906 141.625 5.64404 139.747L3.93221 140.781L2.22038 141.815C3.75336 144.353 5.89637 146.327 8.59958 147.731L9.52121 145.956ZM3.93221 140.781L5.6687 139.789C4.58066 137.885 4.00021 135.593 4.00021 132.846H2.00021H0.000210762C0.000210762 136.171 0.707759 139.169 2.19572 141.773L3.93221 140.781ZM2.00021 132.846H4.00021V110.904H2.00021H0.000210762V132.846H2.00021ZM2.00021 110.904H4.00021C4.00021 108.155 4.58109 105.895 5.65977 104.046L3.93221 103.038L2.20465 102.03C0.707335 104.597 0.000210762 107.581 0.000210762 110.904H2.00021ZM3.93221 103.038L5.65336 104.057C6.78722 102.141 8.35985 100.68 10.4156 99.6518L9.52121 97.863L8.62678 96.0741C5.89857 97.4382 3.7452 99.4272 2.21106 102.019L3.93221 103.038ZM9.52121 97.863L10.4428 99.638C12.4959 98.572 14.9958 98 18.0082 98V96V94C14.4886 94 11.3305 94.67 8.59958 96.088L9.52121 97.863ZM18.0082 96V98C22.1494 98 25.343 99.0907 27.763 101.12L29.0482 99.588L30.3334 98.0556C27.0494 95.3013 22.8831 94 18.0082 94V96ZM29.0482 99.588L27.7777 101.133C30.1786 103.108 31.5628 105.771 31.8866 109.293L33.8782 109.11L35.8698 108.927C35.4577 104.445 33.6218 100.76 30.3188 98.0434L29.0482 99.588ZM33.8782 109.11L31.8841 109.263C31.895 109.405 31.8789 109.438 31.8891 109.398C31.9025 109.346 31.9475 109.225 32.0636 109.099C32.1799 108.973 32.2982 108.918 32.3511 108.9C32.3921 108.886 32.3624 108.904 32.2222 108.904V110.904V112.904C33.114 112.904 34.1999 112.682 35.0028 111.812C35.8044 110.944 35.9406 109.844 35.8723 108.957L33.8782 109.11ZM32.2222 110.904V108.904H27.0472V110.904V112.904H32.2222V110.904ZM27.0472 110.904V108.904C26.9543 108.904 26.9333 108.892 26.9603 108.901C26.9743 108.905 26.9981 108.915 27.0277 108.931C27.0576 108.948 27.088 108.97 27.1167 108.995C27.1452 109.021 27.1668 109.045 27.182 109.066C27.1893 109.076 27.1946 109.084 27.198 109.089C27.2014 109.095 27.2029 109.098 27.2029 109.098C27.2019 109.096 27.178 109.045 27.157 108.919L25.1842 109.248L23.2114 109.577C23.3525 110.423 23.705 111.314 24.4592 111.985C25.2274 112.668 26.1665 112.904 27.0472 112.904V110.904ZM25.1842 109.248L27.1631 108.958C26.8326 106.7 25.9066 104.768 24.2145 103.434C22.5508 102.122 20.4013 101.59 18.0082 101.59V103.59V105.59C19.8471 105.59 21.0096 106.001 21.7379 106.575C22.4378 107.127 22.9838 108.024 23.2053 109.538L25.1842 109.248ZM18.0082 103.59V101.59C15.2915 101.59 12.9056 102.345 11.143 104.108L12.5572 105.522L13.9714 106.936C14.7848 106.123 16.0329 105.59 18.0082 105.59V103.59ZM12.5572 105.522L11.1689 104.082C9.37893 105.808 8.62521 108.192 8.62521 110.904H10.6252H12.6252C12.6252 108.924 13.1595 107.72 13.9455 106.962L12.5572 105.522ZM10.6252 110.904H8.62521V132.846H10.6252H12.6252V110.904H10.6252ZM10.6252 132.846H8.62521C8.62521 135.563 9.38035 137.949 11.143 139.711L12.5572 138.297L13.9714 136.883C13.1581 136.069 12.6252 134.821 12.6252 132.846H10.6252ZM12.5572 138.297L11.1689 139.737C12.9345 141.439 15.3109 142.16 18.0082 142.16V140.16V138.16C16.0135 138.16 14.756 137.639 13.9455 136.857L12.5572 138.297ZM18.0082 140.16V142.16C20.4013 142.16 22.5508 141.628 24.2145 140.316C25.9066 138.982 26.8326 137.05 27.1631 134.792L25.1842 134.502L23.2053 134.212C22.9838 135.726 22.4378 136.623 21.7379 137.175C21.0096 137.749 19.8471 138.16 18.0082 138.16V140.16ZM25.1842 134.502L27.157 134.831C27.178 134.705 27.2019 134.654 27.2029 134.652C27.2029 134.652 27.2014 134.655 27.198 134.661C27.1946 134.666 27.1893 134.674 27.182 134.684C27.1668 134.705 27.1452 134.729 27.1167 134.755C27.0881 134.78 27.0576 134.802 27.0277 134.819C26.9981 134.835 26.9743 134.845 26.9603 134.849C26.9333 134.858 26.9543 134.846 27.0472 134.846V132.846V130.846C26.1665 130.846 25.2274 131.082 24.4592 131.765C23.705 132.436 23.3525 133.327 23.2114 134.173L25.1842 134.502ZM27.0472 132.846V134.846H32.2222V132.846V130.846H27.0472V132.846ZM32.2222 132.846V134.846C32.3746 134.846 32.4254 134.864 32.4076 134.859C32.3815 134.851 32.2791 134.812 32.1654 134.703C32.0478 134.59 31.9859 134.467 31.9601 134.386C31.9385 134.318 31.9532 134.316 31.9489 134.419L33.9472 134.502L35.9455 134.585C35.9828 133.69 35.778 132.626 34.9355 131.817C34.1258 131.04 33.0828 130.846 32.2222 130.846V132.846ZM33.9472 134.502L31.9554 134.321C31.6304 137.896 30.2401 140.61 27.832 142.63L29.1172 144.162L30.4024 145.694C33.6984 142.93 35.528 139.204 35.939 134.683L33.9472 134.502ZM29.1172 144.162L27.832 142.63C25.4156 144.656 22.2011 145.75 18.0082 145.75V147.75V149.75C22.9234 149.75 27.1148 148.452 30.4024 145.694L29.1172 144.162ZM41.7173 147.06H39.7173V149.06H41.7173V147.06ZM41.7173 96.69V94.69H39.7173V96.69H41.7173ZM49.5833 96.69H51.5833V94.69H49.5833V96.69ZM49.4453 126.774L51.4431 126.867V126.867L49.4453 126.774ZM49.1003 132.57L47.1056 132.424V132.424L49.1003 132.57ZM48.7553 137.4L46.76 137.262L50.6484 138.045L48.7553 137.4ZM62.6243 96.69V94.69H61.1927L60.7311 96.045L62.6243 96.69ZM73.1813 96.69H75.1813V94.69H73.1813V96.69ZM73.1813 147.06V149.06H75.1813V147.06H73.1813ZM65.3153 147.06H63.3153V149.06H65.3153V147.06ZM65.4533 117.666L63.4577 117.533L63.4562 117.555L63.4552 117.577L65.4533 117.666ZM65.8673 111.594L67.8624 111.733L67.8626 111.73L65.8673 111.594ZM66.2813 106.35L68.2725 106.537L64.3901 105.699L66.2813 106.35ZM52.2743 147.06V149.06H53.7012L54.1654 147.711L52.2743 147.06ZM41.7173 147.06H43.7173V96.69H41.7173H39.7173V147.06H41.7173ZM41.7173 96.69V98.69H49.5833V96.69V94.69H41.7173V96.69ZM49.5833 96.69H47.5833V121.323H49.5833H51.5833V96.69H49.5833ZM49.5833 121.323H47.5833C47.5833 122.943 47.5382 124.728 47.4474 126.681L49.4453 126.774L51.4431 126.867C51.5363 124.864 51.5833 123.015 51.5833 121.323H49.5833ZM49.4453 126.774L47.4474 126.681C47.3562 128.642 47.2422 130.557 47.1056 132.424L49.1003 132.57L51.0949 132.716C51.2343 130.811 51.3503 128.862 51.4431 126.867L49.4453 126.774ZM49.1003 132.57L47.1056 132.424C46.9675 134.312 46.8522 135.925 46.76 137.262L48.7553 137.4L50.7505 137.538C50.8423 136.207 50.9571 134.6 51.0949 132.716L49.1003 132.57ZM48.7553 137.4L50.6484 138.045L64.5174 97.335L62.6243 96.69L60.7311 96.045L46.8621 136.755L48.7553 137.4ZM62.6243 96.69V98.69H73.1813V96.69V94.69H62.6243V96.69ZM73.1813 96.69H71.1813V147.06H73.1813H75.1813V96.69H73.1813ZM73.1813 147.06V145.06H65.3153V147.06V149.06H73.1813V147.06ZM65.3153 147.06H67.3153V123.186H65.3153H63.3153V147.06H65.3153ZM65.3153 123.186H67.3153C67.3153 121.613 67.3602 119.803 67.4513 117.755L65.4533 117.666L63.4552 117.577C63.3623 119.669 63.3153 121.539 63.3153 123.186H65.3153ZM65.4533 117.666L67.4488 117.799C67.5867 115.731 67.7246 113.709 67.8624 111.733L65.8673 111.594L63.8721 111.455C63.734 113.435 63.5958 115.461 63.4577 117.533L65.4533 117.666ZM65.8673 111.594L67.8626 111.73C67.9999 109.717 68.1366 107.987 68.2725 106.537L66.2813 106.35L64.29 106.163C64.1499 107.657 64.0107 109.423 63.8719 111.458L65.8673 111.594ZM66.2813 106.35L64.3901 105.699L50.3831 146.409L52.2743 147.06L54.1654 147.711L68.1724 107.001L66.2813 106.35ZM52.2743 147.06V145.06H41.7173V147.06V149.06H52.2743V147.06ZM89.5073 145.956L88.5857 147.731L88.5992 147.738L88.6129 147.745L89.5073 145.956ZM83.9183 140.781L82.1818 141.773L82.1939 141.794L82.2065 141.815L83.9183 140.781ZM83.9183 103.038L82.1971 102.019L82.1907 102.03L83.9183 103.038ZM89.5073 97.863L90.4017 99.6518L90.4154 99.645L90.4289 99.638L89.5073 97.863ZM109.034 99.588L107.749 101.12L107.756 101.127L107.764 101.133L109.034 99.588ZM113.864 109.11L115.858 108.957L115.857 108.942L115.856 108.927L113.864 109.11ZM105.17 109.248L103.191 109.538L103.194 109.557L103.198 109.577L105.17 109.248ZM92.5433 105.522L93.9316 106.962L93.9447 106.949L93.9575 106.936L92.5433 105.522ZM92.5433 138.297L91.1291 139.711L91.1419 139.724L91.155 139.737L92.5433 138.297ZM105.17 134.502L103.198 134.173L103.194 134.193L103.191 134.212L105.17 134.502ZM113.933 134.502L115.925 134.683L115.93 134.634L115.932 134.585L113.933 134.502ZM109.103 144.162L107.818 142.63V142.63L109.103 144.162ZM97.9943 147.75V145.75C94.9712 145.75 92.4613 145.197 90.4017 144.167L89.5073 145.956L88.6129 147.745C91.3373 149.107 94.4854 149.75 97.9943 149.75V147.75ZM89.5073 145.956L90.4289 144.181C88.3481 143.101 86.7652 141.625 85.6301 139.747L83.9183 140.781L82.2065 141.815C83.7394 144.353 85.8825 146.327 88.5857 147.731L89.5073 145.956ZM83.9183 140.781L85.6548 139.789C84.5668 137.885 83.9863 135.593 83.9863 132.846H81.9863H79.9863C79.9863 136.171 80.6938 139.169 82.1818 141.773L83.9183 140.781ZM81.9863 132.846H83.9863V110.904H81.9863H79.9863V132.846H81.9863ZM81.9863 110.904H83.9863C83.9863 108.155 84.5672 105.895 85.6459 104.046L83.9183 103.038L82.1907 102.03C80.6934 104.597 79.9863 107.581 79.9863 110.904H81.9863ZM83.9183 103.038L85.6395 104.057C86.7733 102.141 88.3459 100.68 90.4017 99.6518L89.5073 97.863L88.6129 96.0741C85.8847 97.4382 83.7313 99.4272 82.1972 102.019L83.9183 103.038ZM89.5073 97.863L90.4289 99.638C92.482 98.572 94.9819 98 97.9943 98V96V94C94.4747 94 91.3166 94.67 88.5857 96.088L89.5073 97.863ZM97.9943 96V98C102.135 98 105.329 99.0907 107.749 101.12L109.034 99.588L110.32 98.0556C107.036 95.3013 102.869 94 97.9943 94V96ZM109.034 99.588L107.764 101.133C110.165 103.108 111.549 105.771 111.873 109.293L113.864 109.11L115.856 108.927C115.444 104.445 113.608 100.76 110.305 98.0434L109.034 99.588ZM113.864 109.11L111.87 109.263C111.881 109.405 111.865 109.438 111.875 109.398C111.889 109.346 111.934 109.225 112.05 109.099C112.166 108.973 112.284 108.918 112.337 108.9C112.378 108.886 112.348 108.904 112.208 108.904V110.904V112.904C113.1 112.904 114.186 112.682 114.989 111.812C115.791 110.944 115.927 109.844 115.858 108.957L113.864 109.11ZM112.208 110.904V108.904H107.033V110.904V112.904H112.208V110.904ZM107.033 110.904V108.904C106.94 108.904 106.919 108.892 106.946 108.901C106.96 108.905 106.984 108.915 107.014 108.931C107.044 108.948 107.074 108.97 107.103 108.995C107.131 109.021 107.153 109.045 107.168 109.066C107.175 109.076 107.181 109.084 107.184 109.089C107.188 109.095 107.189 109.098 107.189 109.098C107.188 109.096 107.164 109.045 107.143 108.919L105.17 109.248L103.198 109.577C103.339 110.423 103.691 111.314 104.445 111.985C105.213 112.668 106.153 112.904 107.033 112.904V110.904ZM105.17 109.248L107.149 108.958C106.819 106.7 105.893 104.768 104.201 103.434C102.537 102.122 100.387 101.59 97.9943 101.59V103.59V105.59C99.8332 105.59 100.996 106.001 101.724 106.575C102.424 107.127 102.97 108.024 103.191 109.538L105.17 109.248ZM97.9943 103.59V101.59C95.2776 101.59 92.8917 102.345 91.1291 104.108L92.5433 105.522L93.9575 106.936C94.7709 106.123 96.019 105.59 97.9943 105.59V103.59ZM92.5433 105.522L91.155 104.082C89.365 105.808 88.6113 108.192 88.6113 110.904H90.6113H92.6113C92.6113 108.924 93.1456 107.72 93.9316 106.962L92.5433 105.522ZM90.6113 110.904H88.6113V132.846H90.6113H92.6113V110.904H90.6113ZM90.6113 132.846H88.6113C88.6113 135.563 89.3664 137.949 91.1291 139.711L92.5433 138.297L93.9575 136.883C93.1442 136.069 92.6113 134.821 92.6113 132.846H90.6113ZM92.5433 138.297L91.155 139.737C92.9206 141.439 95.297 142.16 97.9943 142.16V140.16V138.16C95.9996 138.16 94.7421 137.639 93.9316 136.857L92.5433 138.297ZM97.9943 140.16V142.16C100.387 142.16 102.537 141.628 104.201 140.316C105.893 138.982 106.819 137.05 107.149 134.792L105.17 134.502L103.191 134.212C102.97 135.726 102.424 136.623 101.724 137.175C100.996 137.749 99.8332 138.16 97.9943 138.16V140.16ZM105.17 134.502L107.143 134.831C107.164 134.705 107.188 134.654 107.189 134.652C107.189 134.652 107.188 134.655 107.184 134.661C107.181 134.666 107.175 134.674 107.168 134.684C107.153 134.705 107.131 134.729 107.103 134.755C107.074 134.78 107.044 134.802 107.014 134.819C106.984 134.835 106.96 134.845 106.946 134.849C106.919 134.858 106.94 134.846 107.033 134.846V132.846V130.846C106.153 130.846 105.213 131.082 104.445 131.765C103.691 132.436 103.339 133.327 103.198 134.173L105.17 134.502ZM107.033 132.846V134.846H112.208V132.846V130.846H107.033V132.846ZM112.208 132.846V134.846C112.361 134.846 112.411 134.864 112.394 134.859C112.368 134.851 112.265 134.812 112.151 134.703C112.034 134.59 111.972 134.467 111.946 134.386C111.925 134.318 111.939 134.316 111.935 134.419L113.933 134.502L115.932 134.585C115.969 133.69 115.764 132.626 114.922 131.817C114.112 131.04 113.069 130.846 112.208 130.846V132.846ZM113.933 134.502L111.942 134.321C111.617 137.896 110.226 140.61 107.818 142.63L109.103 144.162L110.389 145.694C113.684 142.93 115.514 139.204 115.925 134.683L113.933 134.502ZM109.103 144.162L107.818 142.63C105.402 144.656 102.187 145.75 97.9943 145.75V147.75V149.75C102.909 149.75 107.101 148.452 110.389 145.694L109.103 144.162ZM133.088 104.487H135.088V102.487H133.088V104.487ZM141.782 104.487V102.487H139.782V104.487H141.782ZM134.813 147.06V145.06C134.687 145.06 134.657 145.043 134.691 145.055C134.735 145.069 134.833 145.114 134.934 145.215C135.034 145.315 135.079 145.413 135.094 145.457C135.105 145.491 135.088 145.462 135.088 145.335H133.088H131.088C131.088 146.218 131.311 147.248 132.105 148.043C132.9 148.838 133.93 149.06 134.813 149.06V147.06ZM133.088 145.335H135.088V104.487H133.088H131.088V145.335H133.088ZM133.088 104.487V102.487H121.634V104.487V106.487H133.088V104.487ZM121.634 104.487V102.487C121.508 102.487 121.478 102.47 121.512 102.482C121.556 102.496 121.654 102.541 121.755 102.642C121.855 102.742 121.9 102.84 121.915 102.884C121.926 102.918 121.909 102.889 121.909 102.762H119.909H117.909C117.909 103.645 118.132 104.675 118.926 105.47C119.721 106.265 120.751 106.487 121.634 106.487V104.487ZM119.909 102.762H121.909V98.415H119.909H117.909V102.762H119.909ZM119.909 98.415H121.909C121.909 98.2882 121.926 98.2587 121.915 98.2928C121.9 98.3365 121.855 98.4349 121.755 98.5355C121.654 98.636 121.556 98.6806 121.512 98.6952C121.478 98.7065 121.508 98.69 121.634 98.69V96.69V94.69C120.751 94.69 119.721 94.9122 118.926 95.707C118.132 96.5019 117.909 97.5317 117.909 98.415H119.909ZM121.634 96.69V98.69H153.236V96.69V94.69H121.634V96.69ZM153.236 96.69V98.69C153.363 98.69 153.393 98.7065 153.359 98.6952C153.315 98.6806 153.216 98.636 153.116 98.5355C153.015 98.4349 152.971 98.3365 152.956 98.2928C152.945 98.2587 152.961 98.2882 152.961 98.415H154.961H156.961C156.961 97.5317 156.739 96.5019 155.944 95.707C155.149 94.9122 154.12 94.69 153.236 94.69V96.69ZM154.961 98.415H152.961V102.762H154.961H156.961V98.415H154.961ZM154.961 102.762H152.961C152.961 102.889 152.945 102.918 152.956 102.884C152.971 102.84 153.015 102.742 153.116 102.642C153.216 102.541 153.315 102.496 153.359 102.482C153.393 102.47 153.363 102.487 153.236 102.487V104.487V106.487C154.12 106.487 155.149 106.265 155.944 105.47C156.739 104.675 156.961 103.645 156.961 102.762H154.961ZM153.236 104.487V102.487H141.782V104.487V106.487H153.236V104.487ZM141.782 104.487H139.782V145.335H141.782H143.782V104.487H141.782ZM141.782 145.335H139.782C139.782 145.462 139.766 145.491 139.777 145.457C139.792 145.413 139.836 145.315 139.937 145.215C140.037 145.114 140.136 145.069 140.18 145.055C140.214 145.043 140.184 145.06 140.057 145.06V147.06V149.06C140.941 149.06 141.97 148.838 142.765 148.043C143.56 147.248 143.782 146.218 143.782 145.335H141.782ZM140.057 147.06V145.06H134.813V147.06V149.06H140.057V147.06ZM171.287 117.39H169.287V119.39H171.287V117.39ZM171.287 124.704V122.704H169.287V124.704H171.287ZM164.525 147.06V145.06C164.399 145.06 164.369 145.043 164.403 145.055C164.447 145.069 164.545 145.114 164.646 145.215C164.746 145.315 164.791 145.413 164.806 145.457C164.817 145.491 164.8 145.462 164.8 145.335H162.8H160.8C160.8 146.218 161.023 147.248 161.817 148.043C162.612 148.838 163.642 149.06 164.525 149.06V147.06ZM162.8 145.335H164.8V98.415H162.8H160.8V145.335H162.8ZM162.8 98.415H164.8C164.8 98.2882 164.817 98.2587 164.806 98.2928C164.791 98.3365 164.746 98.4349 164.646 98.5355C164.545 98.636 164.447 98.6806 164.403 98.6952C164.369 98.7065 164.399 98.69 164.525 98.69V96.69V94.69C163.642 94.69 162.612 94.9122 161.817 95.707C161.023 96.5019 160.8 97.5317 160.8 98.415H162.8ZM164.525 96.69V98.69H191.297V96.69V94.69H164.525V96.69ZM191.297 96.69V98.69C191.424 98.69 191.454 98.7065 191.42 98.6952C191.376 98.6806 191.278 98.636 191.177 98.5355C191.076 98.4349 191.032 98.3365 191.017 98.2928C191.006 98.2587 191.022 98.2882 191.022 98.415H193.022H195.022C195.022 97.5317 194.8 96.5019 194.005 95.707C193.21 94.9122 192.181 94.69 191.297 94.69V96.69ZM193.022 98.415H191.022V102.555H193.022H195.022V98.415H193.022ZM193.022 102.555H191.022C191.022 102.682 191.006 102.711 191.017 102.677C191.032 102.633 191.076 102.535 191.177 102.435C191.278 102.334 191.376 102.289 191.42 102.275C191.454 102.263 191.424 102.28 191.297 102.28V104.28V106.28C192.181 106.28 193.211 106.058 194.005 105.263C194.8 104.468 195.022 103.438 195.022 102.555H193.022ZM191.297 104.28V102.28H173.012V104.28V106.28H191.297V104.28ZM173.012 104.28V102.28C172.129 102.28 171.099 102.502 170.304 103.297C169.51 104.092 169.287 105.122 169.287 106.005H171.287H173.287C173.287 105.878 173.304 105.849 173.293 105.883C173.278 105.927 173.233 106.025 173.133 106.125C173.032 106.226 172.934 106.271 172.89 106.285C172.856 106.297 172.886 106.28 173.012 106.28V104.28ZM171.287 106.005H169.287V117.39H171.287H173.287V106.005H171.287ZM171.287 117.39V119.39H188.882V117.39V115.39H171.287V117.39ZM188.882 117.39V119.39C189.016 119.39 189.054 119.407 189.028 119.398C188.993 119.387 188.895 119.347 188.791 119.247C188.685 119.145 188.631 119.039 188.61 118.978C188.593 118.927 188.607 118.938 188.607 119.046H190.607H192.607C192.607 118.164 192.374 117.141 191.561 116.361C190.764 115.596 189.746 115.39 188.882 115.39V117.39ZM190.607 119.046H188.607V122.979H190.607H192.607V119.046H190.607ZM190.607 122.979H188.607C188.607 123.106 188.591 123.135 188.602 123.101C188.617 123.057 188.661 122.959 188.762 122.859C188.863 122.758 188.961 122.713 189.005 122.699C189.039 122.687 189.009 122.704 188.882 122.704V124.704V126.704C189.766 126.704 190.796 126.482 191.59 125.687C192.385 124.892 192.607 123.862 192.607 122.979H190.607ZM188.882 124.704V122.704H171.287V124.704V126.704H188.882V124.704ZM171.287 124.704H169.287V137.745H171.287H173.287V124.704H171.287ZM171.287 137.745H169.287C169.287 138.628 169.51 139.658 170.304 140.453C171.099 141.248 172.129 141.47 173.012 141.47V139.47V137.47C172.886 137.47 172.856 137.453 172.89 137.465C172.934 137.479 173.032 137.524 173.133 137.625C173.233 137.725 173.278 137.823 173.293 137.867C173.304 137.901 173.287 137.872 173.287 137.745H171.287ZM173.012 139.47V141.47H191.297V139.47V137.47H173.012V139.47ZM191.297 139.47V141.47C191.424 141.47 191.454 141.487 191.42 141.475C191.376 141.461 191.278 141.416 191.177 141.315C191.076 141.215 191.032 141.117 191.017 141.073C191.006 141.039 191.022 141.068 191.022 141.195H193.022H195.022C195.022 140.312 194.8 139.282 194.005 138.487C193.211 137.692 192.181 137.47 191.297 137.47V139.47ZM193.022 141.195H191.022V145.335H193.022H195.022V141.195H193.022ZM193.022 145.335H191.022C191.022 145.462 191.006 145.491 191.017 145.457C191.032 145.413 191.076 145.315 191.177 145.215C191.278 145.114 191.376 145.069 191.42 145.055C191.454 145.043 191.424 145.06 191.297 145.06V147.06V149.06C192.181 149.06 193.21 148.838 194.005 148.043C194.8 147.248 195.022 146.218 195.022 145.335H193.022ZM191.297 147.06V145.06H164.525V147.06V149.06H191.297V147.06ZM212.039 98.139L210.094 98.6022L210.1 98.6278L210.107 98.6533L212.039 98.139ZM216.317 114.216L218.27 113.782L218.261 113.742L218.25 113.702L216.317 114.216ZM218.387 114.216L220.315 114.751L220.318 114.738L218.387 114.216ZM222.734 98.139L224.665 98.661L224.673 98.6317L224.68 98.6022L222.734 98.139ZM226.529 116.907L224.533 116.79L224.532 116.804L224.531 116.818L226.529 116.907ZM227.15 107.868L229.144 108.026L229.144 108.024L227.15 107.868ZM227.909 99.864L229.896 100.093L225.985 99.319L227.909 99.864ZM221.147 123.738L219.223 123.193L219.212 123.234L219.202 123.275L221.147 123.738ZM213.35 123.738L215.296 123.275L215.287 123.238L215.277 123.201L213.35 123.738ZM206.864 100.485L208.791 99.9476L204.881 100.744L206.864 100.485ZM207.968 111.87L205.974 112.015L205.975 112.027L205.976 112.038L207.968 111.87ZM202.172 147.06V145.06C202.046 145.06 202.016 145.043 202.05 145.055C202.094 145.069 202.192 145.114 202.293 145.215C202.393 145.315 202.438 145.413 202.453 145.457C202.464 145.491 202.447 145.462 202.447 145.335H200.447H198.447C198.447 146.218 198.67 147.248 199.464 148.043C200.259 148.838 201.289 149.06 202.172 149.06V147.06ZM200.447 145.335H202.447V98.415H200.447H198.447V145.335H200.447ZM200.447 98.415H202.447C202.447 98.2882 202.464 98.2587 202.453 98.2928C202.438 98.3365 202.393 98.4349 202.293 98.5355C202.192 98.636 202.094 98.6806 202.05 98.6952C202.016 98.7065 202.046 98.69 202.172 98.69V96.69V94.69C201.289 94.69 200.259 94.9122 199.464 95.707C198.67 96.5019 198.447 97.5317 198.447 98.415H200.447ZM202.172 96.69V98.69H210.176V96.69V94.69H202.172V96.69ZM210.176 96.69V98.69C210.272 98.69 210.306 98.7016 210.295 98.6984C210.289 98.6966 210.273 98.6913 210.25 98.6797C210.227 98.6681 210.2 98.6519 210.173 98.631C210.146 98.6099 210.123 98.5875 210.104 98.5659C210.086 98.5444 210.075 98.5272 210.069 98.5179C210.059 98.5 210.074 98.5198 210.094 98.6022L212.039 98.139L213.985 97.6758C213.793 96.8685 213.384 96.0609 212.629 95.4735C211.878 94.8893 210.999 94.69 210.176 94.69V96.69ZM212.039 98.139L210.107 98.6533L214.385 114.73L216.317 114.216L218.25 113.702L213.972 97.6247L212.039 98.139ZM216.317 114.216L214.365 114.65C214.486 115.195 214.697 115.834 215.118 116.375C215.598 116.992 216.344 117.458 217.283 117.458V115.458V113.458C217.481 113.458 217.698 113.506 217.9 113.613C218.094 113.716 218.214 113.841 218.276 113.92C218.334 113.994 218.346 114.035 218.334 114.005C218.322 113.976 218.298 113.907 218.27 113.782L216.317 114.216ZM217.283 115.458V117.458C218.166 117.458 218.911 117.065 219.434 116.476C219.902 115.95 220.158 115.313 220.314 114.751L218.387 114.216L216.46 113.681C216.386 113.947 216.344 113.931 216.444 113.819C216.505 113.75 216.614 113.652 216.781 113.573C216.952 113.492 217.128 113.458 217.283 113.458V115.458ZM218.387 114.216L220.318 114.738L224.665 98.661L222.734 98.139L220.804 97.617L216.457 113.694L218.387 114.216ZM222.734 98.139L224.68 98.6022C224.7 98.5198 224.715 98.5 224.705 98.5179C224.699 98.5272 224.688 98.5444 224.67 98.5659C224.651 98.5875 224.628 98.6099 224.601 98.631C224.574 98.6519 224.547 98.6681 224.524 98.6797C224.501 98.6913 224.485 98.6966 224.479 98.6984C224.468 98.7016 224.501 98.69 224.597 98.69V96.69V94.69C223.775 94.69 222.896 94.8893 222.145 95.4735C221.39 96.0609 220.981 96.8685 220.789 97.6758L222.734 98.139ZM224.597 96.69V98.69H232.67V96.69V94.69H224.597V96.69ZM232.67 96.69V98.69C232.797 98.69 232.827 98.7065 232.793 98.6952C232.749 98.6806 232.651 98.636 232.55 98.5355C232.449 98.4349 232.405 98.3365 232.39 98.2928C232.379 98.2587 232.395 98.2882 232.395 98.415H234.395H236.395C236.395 97.5317 236.173 96.5019 235.378 95.707C234.584 94.9122 233.554 94.69 232.67 94.69V96.69ZM234.395 98.415H232.395V145.335H234.395H236.395V98.415H234.395ZM234.395 145.335H232.395C232.395 145.462 232.379 145.491 232.39 145.457C232.405 145.413 232.449 145.315 232.55 145.215C232.651 145.114 232.749 145.069 232.793 145.055C232.827 145.043 232.797 145.06 232.67 145.06V147.06V149.06C233.554 149.06 234.584 148.838 235.378 148.043C236.173 147.248 236.395 146.218 236.395 145.335H234.395ZM232.67 147.06V145.06H228.047V147.06V149.06H232.67V147.06ZM228.047 147.06V145.06C227.921 145.06 227.891 145.043 227.925 145.055C227.969 145.069 228.067 145.114 228.168 145.215C228.268 145.315 228.313 145.413 228.328 145.457C228.339 145.491 228.322 145.462 228.322 145.335H226.322H224.322C224.322 146.218 224.545 147.248 225.339 148.043C226.134 148.838 227.164 149.06 228.047 149.06V147.06ZM226.322 145.335H228.322V125.877H226.322H224.322V145.335H226.322ZM226.322 125.877H228.322C228.322 123.011 228.391 120.051 228.527 116.996L226.529 116.907L224.531 116.818C224.392 119.927 224.322 122.947 224.322 125.877H226.322ZM226.529 116.907L228.526 117.024C228.709 113.909 228.915 110.91 229.144 108.026L227.15 107.868L225.157 107.71C224.926 110.622 224.718 113.649 224.533 116.79L226.529 116.907ZM227.15 107.868L229.144 108.024C229.373 105.099 229.624 102.456 229.896 100.093L227.909 99.864L225.923 99.6348C225.643 102.056 225.388 104.749 225.157 107.712L227.15 107.868ZM227.909 99.864L225.985 99.319L219.223 123.193L221.147 123.738L223.072 124.283L229.834 100.409L227.909 99.864ZM221.147 123.738L219.202 123.275C219.182 123.357 219.167 123.377 219.177 123.359C219.183 123.35 219.194 123.333 219.212 123.311C219.231 123.289 219.254 123.267 219.281 123.246C219.308 123.225 219.335 123.209 219.358 123.197C219.381 123.186 219.397 123.18 219.403 123.179C219.414 123.175 219.38 123.187 219.284 123.187V125.187V127.187C220.107 127.187 220.986 126.988 221.737 126.403C222.492 125.816 222.901 125.008 223.093 124.201L221.147 123.738ZM219.284 125.187V123.187H215.213V125.187V127.187H219.284V125.187ZM215.213 125.187V123.187C215.117 123.187 215.084 123.175 215.095 123.179C215.101 123.18 215.117 123.186 215.14 123.197C215.163 123.209 215.19 123.225 215.217 123.246C215.244 123.267 215.267 123.289 215.286 123.311C215.304 123.333 215.315 123.35 215.321 123.359C215.331 123.377 215.316 123.357 215.296 123.275L213.35 123.738L211.405 124.201C211.597 125.008 212.006 125.816 212.761 126.403C213.512 126.988 214.391 127.187 215.213 127.187V125.187ZM213.35 123.738L215.277 123.201L208.791 99.9476L206.864 100.485L204.938 101.022L211.424 124.275L213.35 123.738ZM206.864 100.485L204.881 100.744C205.289 103.869 205.654 107.624 205.974 112.015L207.968 111.87L209.963 111.725C209.639 107.284 209.268 103.449 208.848 100.226L206.864 100.485ZM207.968 111.87L205.976 112.038C206.338 116.345 206.52 120.958 206.52 125.877H208.52H210.52C210.52 120.86 210.335 116.135 209.961 111.702L207.968 111.87ZM208.52 125.877H206.52V145.335H208.52H210.52V125.877H208.52ZM208.52 145.335H206.52C206.52 145.462 206.504 145.491 206.515 145.457C206.53 145.413 206.574 145.315 206.675 145.215C206.776 145.114 206.874 145.069 206.918 145.055C206.952 145.043 206.922 145.06 206.795 145.06V147.06V149.06C207.679 149.06 208.709 148.838 209.503 148.043C210.298 147.248 210.52 146.218 210.52 145.335H208.52ZM206.795 147.06V145.06H202.172V147.06V149.06H206.795V147.06ZM239.957 147.06H237.957V149.06H239.957V147.06ZM239.957 96.69V94.69H237.957V96.69H239.957ZM247.547 96.69H249.547V94.69H247.547V96.69ZM247.547 116.769H245.547V118.769H247.547V116.769ZM259.829 120.357L258.415 121.771L258.422 121.778L258.429 121.785L259.829 120.357ZM259.829 143.541L261.23 144.969L261.237 144.962L261.244 144.955L259.829 143.541ZM267.281 147.06H265.281V149.06H267.281V147.06ZM267.281 96.69V94.69H265.281V96.69H267.281ZM274.871 96.69H276.871V94.69H274.871V96.69ZM274.871 147.06V149.06H276.871V147.06H274.871ZM247.547 140.16H245.547V142.16H247.547V140.16ZM254.516 138.504L253.102 137.09L253.087 137.105L253.073 137.12L254.516 138.504ZM254.516 125.394L253.045 126.748L253.073 126.779L253.102 126.808L254.516 125.394ZM247.547 123.669V121.669H245.547V123.669H247.547ZM239.957 147.06H241.957V96.69H239.957H237.957V147.06H239.957ZM239.957 96.69V98.69H247.547V96.69V94.69H239.957V96.69ZM247.547 96.69H245.547V116.769H247.547H249.547V96.69H247.547ZM247.547 116.769V118.769H250.1V116.769V114.769H247.547V116.769ZM250.1 116.769V118.769C253.783 118.769 256.475 119.831 258.415 121.771L259.829 120.357L261.244 118.943C258.4 116.099 254.606 114.769 250.1 114.769V116.769ZM259.829 120.357L258.429 121.785C260.355 123.674 261.417 126.333 261.417 130.017H263.417H265.417C265.417 125.513 264.088 121.732 261.23 118.929L259.829 120.357ZM263.417 130.017H261.417V133.95H263.417H265.417V130.017H263.417ZM263.417 133.95H261.417C261.417 137.526 260.364 140.178 258.415 142.127L259.829 143.541L261.244 144.955C264.079 142.12 265.417 138.378 265.417 133.95H263.417ZM259.829 143.541L258.429 142.113C256.491 144.014 253.794 145.06 250.1 145.06V147.06V149.06C254.595 149.06 258.384 147.76 261.23 144.969L259.829 143.541ZM250.1 147.06V145.06H239.957V147.06V149.06H250.1V147.06ZM267.281 147.06H269.281V96.69H267.281H265.281V147.06H267.281ZM267.281 96.69V98.69H274.871V96.69V94.69H267.281V96.69ZM274.871 96.69H272.871V147.06H274.871H276.871V96.69H274.871ZM274.871 147.06V145.06H267.281V147.06V149.06H274.871V147.06ZM247.547 140.16V142.16H250.1V140.16V138.16H247.547V140.16ZM250.1 140.16V142.16C252.396 142.16 254.441 141.474 255.96 139.888L254.516 138.504L253.073 137.12C252.476 137.742 251.577 138.16 250.1 138.16V140.16ZM254.516 138.504L255.931 139.918C257.503 138.346 258.172 136.241 258.172 133.881H256.172H254.172C254.172 135.477 253.738 136.454 253.102 137.09L254.516 138.504ZM256.172 133.881H258.172V130.017H256.172H254.172V133.881H256.172ZM256.172 130.017H258.172C258.172 127.657 257.503 125.552 255.931 123.98L254.516 125.394L253.102 126.808C253.738 127.444 254.172 128.421 254.172 130.017H256.172ZM254.516 125.394L255.988 124.04C254.474 122.394 252.421 121.669 250.1 121.669V123.669V125.669C251.552 125.669 252.443 126.094 253.045 126.748L254.516 125.394ZM250.1 123.669V121.669H247.547V123.669V125.669H250.1V123.669ZM247.547 123.669H245.547V140.16H247.547H249.547V123.669H247.547Z" fill="black" mask="url(#path-1-outside-1_63_1055)"/>
</svg>
