<svg width="336" height="256" viewBox="0 0 336 256" fill="none" xmlns="http://www.w3.org/2000/svg">
<mask id="path-1-outside-1_63_9321" maskUnits="userSpaceOnUse" x="-0.756836" y="-0.200012" width="337" height="257" fill="black">
<rect fill="white" x="-0.756836" y="-0.200012" width="337" height="257"/>
<path d="M39.7369 65.08H54.8569C54.8569 69.16 55.9369 72.32 58.0969 74.56C60.3369 76.72 63.4969 77.8 67.5769 77.8C71.6569 77.8 74.8169 76.72 77.0569 74.56C79.2969 72.32 80.4169 69.16 80.4169 65.08V51.16H55.2169V37.6H80.4169V26.92C80.4169 22.84 79.2969 19.72 77.0569 17.56C74.8169 15.32 71.6569 14.2 67.5769 14.2C63.4969 14.2 60.3369 15.32 58.0969 17.56C55.9369 19.72 54.8569 22.84 54.8569 26.92H39.7369C39.7369 21.64 40.8969 17.08 43.2169 13.24C45.5369 9.31998 48.7769 6.31998 52.9369 4.23998C57.0969 2.07998 61.9769 0.999987 67.5769 0.999987C73.2569 0.999987 78.1769 2.07998 82.3369 4.23998C86.4969 6.31998 89.6969 9.31998 91.9369 13.24C94.2569 17.08 95.4169 21.64 95.4169 26.92V65.08C95.4169 70.36 94.2569 74.96 91.9369 78.88C89.6969 82.72 86.4969 85.72 82.3369 87.88C78.1769 89.96 73.2569 91 67.5769 91C61.9769 91 57.0969 89.96 52.9369 87.88C48.7769 85.72 45.5369 82.72 43.2169 78.88C40.8969 74.96 39.7369 70.36 39.7369 65.08ZM111.81 89.8C109.81 89.8 108.81 88.8 108.81 86.8V5.19998C108.81 3.19998 109.81 2.19999 111.81 2.19999H120.93C122.85 2.19999 123.81 3.19998 123.81 5.19998V37.96H134.13L149.85 4.35999C150.49 2.91999 151.61 2.19999 153.21 2.19999H163.17C164.29 2.19999 165.05 2.55999 165.45 3.27999C165.93 3.91998 165.93 4.71998 165.45 5.67998L147.33 43.96L166.41 86.32C166.89 87.28 166.89 88.12 166.41 88.84C166.01 89.48 165.25 89.8 164.13 89.8H153.81C152.13 89.8 150.97 89.04 150.33 87.52L134.01 51.04H123.81V86.8C123.81 88.8 122.85 89.8 120.93 89.8H111.81ZM201.763 91C196.243 91 191.323 90.04 187.003 88.12C182.683 86.2 179.203 83.56 176.563 80.2C173.923 76.76 172.323 72.76 171.763 68.2C171.683 67.16 171.883 66.4 172.363 65.92C172.923 65.36 173.683 65.08 174.643 65.08H183.643C185.243 65.08 186.283 66 186.763 67.84C187.483 70.96 189.163 73.44 191.803 75.28C194.523 77.12 197.843 78.04 201.763 78.04C206.403 78.04 210.123 76.8 212.923 74.32C215.803 71.76 217.243 68.44 217.243 64.36C217.243 60.28 215.803 57 212.923 54.52C210.123 51.96 206.403 50.68 201.763 50.68H194.683C192.763 50.68 191.803 49.68 191.803 47.68V40.96C191.803 38.96 192.763 37.96 194.683 37.96H202.003C205.843 37.96 208.963 36.84 211.363 34.6C213.763 32.28 214.963 29.32 214.963 25.72C214.963 22.12 213.763 19.24 211.363 17.08C208.963 14.84 205.883 13.72 202.123 13.72C198.683 13.72 195.763 14.68 193.363 16.6C191.043 18.44 189.603 20.96 189.043 24.16C188.723 26 187.723 26.92 186.043 26.92H177.043C174.883 26.92 173.923 25.92 174.163 23.92C174.643 19.36 176.123 15.36 178.603 11.92C181.083 8.47998 184.323 5.79998 188.323 3.87999C192.403 1.95999 197.043 0.999987 202.243 0.999987C207.683 0.999987 212.483 1.99999 216.643 3.99998C220.803 5.91998 224.043 8.63998 226.363 12.16C228.763 15.68 229.963 19.76 229.963 24.4C229.963 29.12 228.643 33.24 226.003 36.76C223.443 40.28 220.123 42.44 216.043 43.24V43.6C220.923 44.56 224.883 47.08 227.923 51.16C230.963 55.16 232.483 59.88 232.483 65.32C232.483 70.44 231.163 74.92 228.523 78.76C225.963 82.6 222.363 85.6 217.723 87.76C213.163 89.92 207.843 91 201.763 91ZM269.996 91C261.596 91 254.916 88.6 249.956 83.8C245.076 79 242.636 72.36 242.636 63.88V28.12C242.636 19.64 245.076 13 249.956 8.19999C254.916 3.39999 261.596 0.999987 269.996 0.999987C278.396 0.999987 285.036 3.39999 289.916 8.19999C294.876 13 297.356 19.6 297.356 28V63.88C297.356 72.36 294.876 79 289.916 83.8C285.036 88.6 278.396 91 269.996 91ZM269.996 77.8C274.076 77.8 277.156 76.72 279.236 74.56C281.316 72.32 282.356 69.16 282.356 65.08V26.92C282.356 22.84 281.316 19.72 279.236 17.56C277.156 15.32 274.076 14.2 269.996 14.2C265.916 14.2 262.836 15.32 260.756 17.56C258.676 19.72 257.636 22.84 257.636 26.92V65.08C257.636 69.16 258.676 72.32 260.756 74.56C262.836 76.72 265.916 77.8 269.996 77.8ZM68.5369 173C60.1369 173 53.4569 170.6 48.4969 165.8C43.6169 161 41.1769 154.36 41.1769 145.88V110.12C41.1769 101.64 43.6169 95 48.4969 90.2C53.4569 85.4 60.1369 83 68.5369 83C76.9369 83 83.5769 85.4 88.4569 90.2C93.4169 95 95.8969 101.6 95.8969 110V145.88C95.8969 154.36 93.4169 161 88.4569 165.8C83.5769 170.6 76.9369 173 68.5369 173ZM68.5369 159.8C72.6169 159.8 75.6969 158.72 77.7769 156.56C79.8569 154.32 80.8969 151.16 80.8969 147.08V108.92C80.8969 104.84 79.8569 101.72 77.7769 99.56C75.6969 97.32 72.6169 96.2 68.5369 96.2C64.4569 96.2 61.3769 97.32 59.2969 99.56C57.2169 101.72 56.1769 104.84 56.1769 108.92V147.08C56.1769 151.16 57.2169 154.32 59.2969 156.56C61.3769 158.72 64.4569 159.8 68.5369 159.8ZM109.05 171.8V84.2H161.61V97.76H123.69V118.64H136.53C142.37 118.64 147.45 119.76 151.77 122C156.09 124.16 159.45 127.24 161.85 131.24C164.25 135.16 165.45 139.76 165.45 145.04C165.45 150.32 164.25 154.96 161.85 158.96C159.45 162.96 156.09 166.12 151.77 168.44C147.53 170.68 142.49 171.8 136.65 171.8H109.05ZM123.69 158.6H136.65C140.81 158.6 144.09 157.36 146.49 154.88C148.97 152.4 150.21 149.12 150.21 145.04C150.21 140.88 148.97 137.6 146.49 135.2C144.09 132.72 140.81 131.48 136.65 131.48H123.69V158.6ZM202.843 173C194.443 173 187.763 170.6 182.803 165.8C177.923 161 175.483 154.36 175.483 145.88V110.12C175.483 101.64 177.923 95 182.803 90.2C187.763 85.4 194.443 83 202.843 83C211.243 83 217.883 85.4 222.763 90.2C227.723 95 230.203 101.6 230.203 110V145.88C230.203 154.36 227.723 161 222.763 165.8C217.883 170.6 211.243 173 202.843 173ZM202.843 159.8C206.923 159.8 210.003 158.72 212.083 156.56C214.163 154.32 215.203 151.16 215.203 147.08V108.92C215.203 104.84 214.163 101.72 212.083 99.56C210.003 97.32 206.923 96.2 202.843 96.2C198.763 96.2 195.683 97.32 193.603 99.56C191.523 101.72 190.483 104.84 190.483 108.92V147.08C190.483 151.16 191.523 154.32 193.603 156.56C195.683 158.72 198.763 159.8 202.843 159.8ZM250.796 139.16V125.24H289.196V139.16H250.796ZM1.00036 254.4V240.72H4.00036C9.52036 240.72 12.3604 235.48 12.5204 225L13.4804 166.2H61.6004V253.8H46.6004V179.76H28.2404L27.4004 225C27.2404 234.52 25.2004 241.8 21.2804 246.84C17.4404 251.88 12.0004 254.4 4.96036 254.4H1.00036ZM102.113 255C93.7135 255 87.0335 252.6 82.0735 247.8C77.1935 243 74.7535 236.36 74.7535 227.88V192.12C74.7535 183.64 77.1935 177 82.0735 172.2C87.0335 167.4 93.7135 165 102.113 165C110.513 165 117.153 167.4 122.033 172.2C126.993 177 129.473 183.6 129.473 192V227.88C129.473 236.36 126.993 243 122.033 247.8C117.153 252.6 110.513 255 102.113 255ZM102.113 241.8C106.193 241.8 109.273 240.72 111.353 238.56C113.433 236.32 114.473 233.16 114.473 229.08V190.92C114.473 186.84 113.433 183.72 111.353 181.56C109.273 179.32 106.193 178.2 102.113 178.2C98.0335 178.2 94.9535 179.32 92.8735 181.56C90.7935 183.72 89.7535 186.84 89.7535 190.92V229.08C89.7535 233.16 90.7935 236.32 92.8735 238.56C94.9535 240.72 98.0335 241.8 102.113 241.8ZM180.667 253.8V222.72H165.907C157.907 222.72 151.667 220.72 147.187 216.72C142.707 212.64 140.467 207 140.467 199.8V166.2H155.467V199.08C155.467 202.28 156.547 204.8 158.707 206.64C160.947 208.4 163.947 209.28 167.707 209.28H180.667V166.2H195.667V253.8H180.667ZM212.54 253.8C210.54 253.8 209.54 252.8 209.54 250.8V169.2C209.54 167.2 210.54 166.2 212.54 166.2H221.66C223.58 166.2 224.54 167.2 224.54 169.2V201.96H234.86L250.58 168.36C251.22 166.92 252.34 166.2 253.94 166.2H263.9C265.02 166.2 265.78 166.56 266.18 167.28C266.66 167.92 266.66 168.72 266.18 169.68L248.06 207.96L267.14 250.32C267.62 251.28 267.62 252.12 267.14 252.84C266.74 253.48 265.98 253.8 264.86 253.8H254.54C252.86 253.8 251.7 253.04 251.06 251.52L234.74 215.04H224.54V250.8C224.54 252.8 223.58 253.8 221.66 253.8H212.54ZM275.253 253.8C273.013 253.8 272.173 252.72 272.733 250.56L293.253 168.72C293.653 167.04 294.733 166.2 296.493 166.2H310.533C312.293 166.2 313.373 167.04 313.773 168.72L334.413 250.56C334.973 252.72 334.133 253.8 331.893 253.8H322.653C320.893 253.8 319.853 252.92 319.533 251.16L315.213 232.56H291.933L287.733 251.16C287.333 252.92 286.253 253.8 284.493 253.8H275.253ZM294.693 220.32H312.453L307.173 196.8C306.773 195.12 306.413 193.56 306.093 192.12C305.853 190.68 305.613 189.32 305.373 188.04C305.053 186.6 304.493 185.72 303.693 185.4C302.893 185 302.373 185.4 302.133 186.6C301.893 188.12 301.573 189.72 301.173 191.4C300.853 193.08 300.453 194.84 299.973 196.68L294.693 220.32Z"/>
</mask>
<path d="M39.7369 65.08V64.08H38.7369V65.08H39.7369ZM54.8569 65.08H55.8569V64.08H54.8569V65.08ZM58.0969 74.56L57.3771 75.2541L57.3897 75.2672L57.4028 75.2798L58.0969 74.56ZM77.0569 74.56L77.7511 75.2798L77.7576 75.2735L77.764 75.2671L77.0569 74.56ZM80.4169 51.16H81.4169V50.16H80.4169V51.16ZM55.2169 51.16H54.2169V52.16H55.2169V51.16ZM55.2169 37.6V36.6H54.2169V37.6H55.2169ZM80.4169 37.6V38.6H81.4169V37.6H80.4169ZM77.0569 17.56L76.3498 18.2671L76.3562 18.2735L76.3628 18.2798L77.0569 17.56ZM54.8569 26.92V27.92H55.8569V26.92H54.8569ZM39.7369 26.92H38.7369V27.92H39.7369V26.92ZM43.2169 13.24L44.0729 13.7571L44.0775 13.7493L43.2169 13.24ZM52.9369 4.23998L53.3841 5.13441L53.391 5.131L53.3977 5.12748L52.9369 4.23998ZM82.3369 4.23998L81.8761 5.12748L81.8829 5.131L81.8897 5.13441L82.3369 4.23998ZM91.9369 13.24L91.0687 13.7361L91.0747 13.7467L91.081 13.7571L91.9369 13.24ZM91.9369 78.88L91.0763 78.3707L91.0731 78.3761L91.9369 78.88ZM82.3369 87.88L82.7841 88.7744L82.791 88.771L82.7977 88.7675L82.3369 87.88ZM52.9369 87.88L52.4761 88.7675L52.4829 88.771L52.4897 88.7744L52.9369 87.88ZM43.2169 78.88L42.3563 79.3893L42.361 79.3971L43.2169 78.88ZM39.7369 65.08V66.08H54.8569V65.08V64.08H39.7369V65.08ZM54.8569 65.08H53.8569C53.8569 69.3356 54.9868 72.7754 57.3771 75.2541L58.0969 74.56L58.8168 73.8659C56.887 71.8646 55.8569 68.9843 55.8569 65.08H54.8569ZM58.0969 74.56L57.4028 75.2798C59.8815 77.6701 63.3213 78.8 67.5769 78.8V77.8V76.8C63.6726 76.8 60.7923 75.7699 58.791 73.8401L58.0969 74.56ZM67.5769 77.8V78.8C71.8326 78.8 75.2723 77.6701 77.7511 75.2798L77.0569 74.56L76.3628 73.8401C74.3615 75.7699 71.4812 76.8 67.5769 76.8V77.8ZM77.0569 74.56L77.764 75.2671C80.2413 72.7898 81.4169 69.3453 81.4169 65.08H80.4169H79.4169C79.4169 68.9746 78.3525 71.8502 76.3498 73.8529L77.0569 74.56ZM80.4169 65.08H81.4169V51.16H80.4169H79.4169V65.08H80.4169ZM80.4169 51.16V50.16H55.2169V51.16V52.16H80.4169V51.16ZM55.2169 51.16H56.2169V37.6H55.2169H54.2169V51.16H55.2169ZM55.2169 37.6V38.6H80.4169V37.6V36.6H55.2169V37.6ZM80.4169 37.6H81.4169V26.92H80.4169H79.4169V37.6H80.4169ZM80.4169 26.92H81.4169C81.4169 22.6568 80.2421 19.2422 77.7511 16.8401L77.0569 17.56L76.3628 18.2798C78.3518 20.1978 79.4169 23.0232 79.4169 26.92H80.4169ZM77.0569 17.56L77.764 16.8529C75.2867 14.3755 71.8423 13.2 67.5769 13.2V14.2V15.2C71.4716 15.2 74.3471 16.2644 76.3498 18.2671L77.0569 17.56ZM67.5769 14.2V13.2C63.3116 13.2 59.8671 14.3755 57.3898 16.8529L58.0969 17.56L58.804 18.2671C60.8067 16.2644 63.6823 15.2 67.5769 15.2V14.2ZM58.0969 17.56L57.3898 16.8529C54.986 19.2567 53.8569 22.6667 53.8569 26.92H54.8569H55.8569C55.8569 23.0133 56.8878 20.1833 58.804 18.2671L58.0969 17.56ZM54.8569 26.92V25.92H39.7369V26.92V27.92H54.8569V26.92ZM39.7369 26.92H40.7369C40.7369 21.7897 41.8626 17.4154 44.0728 13.7571L43.2169 13.24L42.361 12.7229C39.9312 16.7446 38.7369 21.4903 38.7369 26.92H39.7369ZM43.2169 13.24L44.0775 13.7493C46.2974 9.99839 49.3922 7.13036 53.3841 5.13441L52.9369 4.23998L52.4897 3.34555C48.1616 5.50961 44.7764 8.64158 42.3563 12.7307L43.2169 13.24ZM52.9369 4.23998L53.3977 5.12748C57.3902 3.05449 62.1063 1.99998 67.5769 1.99998V0.999985V-1.52588e-05C61.8475 -1.52588e-05 56.8037 1.10548 52.4761 3.35249L52.9369 4.23998ZM67.5769 0.999985V1.99998C73.1301 1.99998 77.8856 3.05547 81.8761 5.12748L82.3369 4.23998L82.7977 3.35249C78.4683 1.1045 73.3837 -1.52588e-05 67.5769 -1.52588e-05V0.999985ZM82.3369 4.23998L81.8897 5.13441C85.8788 7.12894 88.9297 9.99294 91.0687 13.7361L91.9369 13.24L92.8052 12.7439C90.4641 8.64703 87.1151 5.51102 82.7841 3.34555L82.3369 4.23998ZM91.9369 13.24L91.081 13.7571C93.2912 17.4154 94.4169 21.7897 94.4169 26.92H95.4169H96.4169C96.4169 21.4903 95.2226 16.7446 92.7928 12.7229L91.9369 13.24ZM95.4169 26.92H94.4169V65.08H95.4169H96.4169V26.92H95.4169ZM95.4169 65.08H94.4169C94.4169 70.2097 93.2914 74.628 91.0763 78.3707L91.9369 78.88L92.7975 79.3893C95.2224 75.292 96.4169 70.5103 96.4169 65.08H95.4169ZM91.9369 78.88L91.0731 78.3761C88.9338 82.0436 85.8778 84.9147 81.8761 86.9925L82.3369 87.88L82.7977 88.7675C87.1161 86.5253 90.4601 83.3963 92.8007 79.3839L91.9369 78.88ZM82.3369 87.88L81.8897 86.9856C77.8959 88.9824 73.1355 90 67.5769 90V91V92C73.3784 92 78.4579 90.9375 82.7841 88.7744L82.3369 87.88ZM67.5769 91V90C62.1008 90 57.3797 88.9834 53.3841 86.9856L52.9369 87.88L52.4897 88.7744C56.8141 90.9366 61.853 92 67.5769 92V91ZM52.9369 87.88L53.3977 86.9925C49.3933 84.9133 46.2933 82.0382 44.0728 78.3629L43.2169 78.88L42.361 79.3971C44.7805 83.4018 48.1605 86.5267 52.4761 88.7675L52.9369 87.88ZM43.2169 78.88L44.0775 78.3707C41.8624 74.628 40.7369 70.2097 40.7369 65.08H39.7369H38.7369C38.7369 70.5103 39.9314 75.292 42.3563 79.3893L43.2169 78.88ZM123.81 37.96H122.81V38.96H123.81V37.96ZM134.13 37.96V38.96H134.766L135.036 38.3838L134.13 37.96ZM149.85 4.35999L150.756 4.78376L150.76 4.77498L150.764 4.76613L149.85 4.35999ZM165.45 3.27998L164.576 3.76562L164.609 3.82534L164.65 3.87999L165.45 3.27998ZM165.45 5.67999L164.556 5.23277L164.551 5.24241L164.546 5.25214L165.45 5.67999ZM147.33 43.96L146.426 43.5321L146.229 43.9496L146.418 44.3707L147.33 43.96ZM166.41 86.32L165.498 86.7307L165.507 86.7491L165.516 86.7672L166.41 86.32ZM166.41 88.84L165.578 88.2853L165.57 88.2975L165.562 88.31L166.41 88.84ZM150.33 87.52L151.252 87.1319L151.247 87.1217L151.243 87.1116L150.33 87.52ZM134.01 51.04L134.923 50.6316L134.658 50.04H134.01V51.04ZM123.81 51.04V50.04H122.81V51.04H123.81ZM111.81 89.8V88.8C110.964 88.8 110.513 88.5892 110.267 88.3429C110.021 88.0966 109.81 87.6458 109.81 86.8H108.81H107.81C107.81 87.9541 108.099 89.0034 108.853 89.7571C109.607 90.5108 110.656 90.8 111.81 90.8V89.8ZM108.81 86.8H109.81V5.19998H108.81H107.81V86.8H108.81ZM108.81 5.19998H109.81C109.81 4.35413 110.021 3.90341 110.267 3.65709C110.513 3.41077 110.964 3.19998 111.81 3.19998V2.19998V1.19998C110.656 1.19998 109.607 1.4892 108.853 2.24287C108.099 2.99656 107.81 4.04584 107.81 5.19998H108.81ZM111.81 2.19998V3.19998H120.93V2.19998V1.19998H111.81V2.19998ZM120.93 2.19998V3.19998C121.725 3.19998 122.141 3.40494 122.369 3.64252C122.604 3.88771 122.81 4.34415 122.81 5.19998H123.81H124.81C124.81 4.05582 124.536 3.01226 123.811 2.25745C123.079 1.49503 122.055 1.19998 120.93 1.19998V2.19998ZM123.81 5.19998H122.81V37.96H123.81H124.81V5.19998H123.81ZM123.81 37.96V38.96H134.13V37.96V36.96H123.81V37.96ZM134.13 37.96L135.036 38.3838L150.756 4.78376L149.85 4.35999L148.944 3.93622L133.224 37.5362L134.13 37.96ZM149.85 4.35999L150.764 4.76613C151.019 4.19112 151.343 3.81754 151.711 3.58116C152.079 3.34414 152.563 3.19998 153.21 3.19998V2.19998V1.19998C152.257 1.19998 151.381 1.41583 150.629 1.8988C149.877 2.38244 149.321 3.08884 148.936 3.95385L149.85 4.35999ZM153.21 2.19998V3.19998H163.17V2.19998V1.19998H153.21V2.19998ZM163.17 2.19998V3.19998C164.076 3.19998 164.414 3.47474 164.576 3.76562L165.45 3.27998L166.324 2.79434C165.686 1.64523 164.504 1.19998 163.17 1.19998V2.19998ZM165.45 3.27998L164.65 3.87999C164.824 4.11255 164.934 4.47649 164.556 5.23277L165.45 5.67999L166.344 6.1272C166.926 4.96348 167.036 3.72741 166.25 2.67999L165.45 3.27998ZM165.45 5.67999L164.546 5.25214L146.426 43.5321L147.33 43.96L148.234 44.3878L166.354 6.10783L165.45 5.67999ZM147.33 43.96L146.418 44.3707L165.498 86.7307L166.41 86.32L167.322 85.9093L148.242 43.5493L147.33 43.96ZM166.41 86.32L165.516 86.7672C165.88 87.4965 165.809 87.9393 165.578 88.2853L166.41 88.84L167.242 89.3947C167.971 88.3007 167.9 87.0635 167.304 85.8728L166.41 86.32ZM166.41 88.84L165.562 88.31C165.423 88.5323 165.085 88.8 164.13 88.8V89.8V90.8C165.415 90.8 166.597 90.4277 167.258 89.37L166.41 88.84ZM164.13 89.8V88.8H153.81V89.8V90.8H164.13V89.8ZM153.81 89.8V88.8C153.123 88.8 152.614 88.6461 152.228 88.3935C151.844 88.1418 151.509 87.744 151.252 87.1319L150.33 87.52L149.408 87.908C149.791 88.816 150.356 89.5582 151.132 90.0665C151.906 90.5739 152.817 90.8 153.81 90.8V89.8ZM150.33 87.52L151.243 87.1116L134.923 50.6316L134.01 51.04L133.097 51.4484L149.417 87.9284L150.33 87.52ZM134.01 51.04V50.04H123.81V51.04V52.04H134.01V51.04ZM123.81 51.04H122.81V86.8H123.81H124.81V51.04H123.81ZM123.81 86.8H122.81C122.81 87.6558 122.604 88.1123 122.369 88.3575C122.141 88.595 121.725 88.8 120.93 88.8V89.8V90.8C122.055 90.8 123.079 90.5049 123.811 89.7425C124.536 88.9877 124.81 87.9442 124.81 86.8H123.81ZM120.93 89.8V88.8H111.81V89.8V90.8H120.93V89.8ZM187.003 88.12L186.597 89.0338L187.003 88.12ZM176.563 80.2L175.77 80.8088L175.777 80.8178L176.563 80.2ZM171.763 68.2L170.766 68.2767L170.768 68.2993L170.771 68.3219L171.763 68.2ZM172.363 65.92L171.656 65.2129V65.2129L172.363 65.92ZM186.763 67.84L187.738 67.6151L187.734 67.6013L187.731 67.5876L186.763 67.84ZM191.803 75.28L191.231 76.1005L191.243 76.1083L191.803 75.28ZM212.923 74.32L213.586 75.0686L213.588 75.0674L212.923 74.32ZM212.923 54.52L212.248 55.258L212.259 55.2681L212.271 55.2778L212.923 54.52ZM211.363 34.6L212.045 35.331L212.052 35.3251L212.058 35.319L211.363 34.6ZM211.363 17.08L210.681 17.811L210.687 17.8172L210.694 17.8233L211.363 17.08ZM193.363 16.6L193.985 17.3835L193.988 17.3809L193.363 16.6ZM189.043 24.16L188.058 23.9876L188.058 23.9886L189.043 24.16ZM174.163 23.92L175.156 24.0391L175.157 24.0319L175.158 24.0247L174.163 23.92ZM178.603 11.92L177.792 11.3352V11.3352L178.603 11.92ZM188.323 3.87998L187.897 2.97514L187.89 2.97846L188.323 3.87998ZM216.643 3.99998L216.21 4.90124L216.217 4.90465L216.224 4.90794L216.643 3.99998ZM226.363 12.16L225.528 12.7103L225.533 12.7168L225.537 12.7233L226.363 12.16ZM226.003 36.76L225.203 36.16L225.199 36.1659L225.194 36.1718L226.003 36.76ZM216.043 43.24L215.851 42.2587L215.043 42.417V43.24H216.043ZM216.043 43.6H215.043V44.4224L215.85 44.5812L216.043 43.6ZM227.923 51.16L227.121 51.7575L227.127 51.7651L227.923 51.16ZM228.523 78.76L227.699 78.1935L227.695 78.1993L227.691 78.2053L228.523 78.76ZM217.723 87.76L217.301 86.8534L217.295 86.8562L217.723 87.76ZM201.763 91V90C196.36 90 191.582 89.0606 187.409 87.2062L187.003 88.12L186.597 89.0338C191.065 91.0194 196.126 92 201.763 92V91ZM187.003 88.12L187.409 87.2062C183.222 85.3452 179.878 82.8008 177.349 79.5822L176.563 80.2L175.777 80.8178C178.528 84.3192 182.144 87.0548 186.597 89.0338L187.003 88.12ZM176.563 80.2L177.356 79.5912C174.832 76.3013 173.295 72.4719 172.756 68.0781L171.763 68.2L170.771 68.3219C171.351 73.0481 173.015 77.2187 175.77 80.8088L176.563 80.2ZM171.763 68.2L172.76 68.1233C172.691 67.2177 172.887 66.8108 173.07 66.6271L172.363 65.92L171.656 65.2129C170.88 65.9892 170.676 67.1023 170.766 68.2767L171.763 68.2ZM172.363 65.92L173.07 66.6271C173.404 66.2932 173.888 66.08 174.643 66.08V65.08V64.08C173.478 64.08 172.442 64.4268 171.656 65.2129L172.363 65.92ZM174.643 65.08V66.08H183.643V65.08V64.08H174.643V65.08ZM183.643 65.08V66.08C184.239 66.08 184.651 66.2451 184.961 66.519C185.286 66.807 185.588 67.2956 185.796 68.0924L186.763 67.84L187.731 67.5876C187.459 66.5444 187 65.653 186.286 65.021C185.555 64.3748 184.648 64.08 183.643 64.08V65.08ZM186.763 67.84L185.789 68.0648C186.565 71.4277 188.389 74.1194 191.231 76.1004L191.803 75.28L192.375 74.4596C189.937 72.7606 188.401 70.4922 187.738 67.6151L186.763 67.84ZM191.803 75.28L191.243 76.1083C194.158 78.0804 197.683 79.04 201.763 79.04V78.04V77.04C198.003 77.04 194.888 76.1596 192.363 74.4517L191.803 75.28ZM201.763 78.04V79.04C206.586 79.04 210.562 77.7469 213.586 75.0686L212.923 74.32L212.26 73.5714C209.684 75.853 206.22 77.04 201.763 77.04V78.04ZM212.923 74.32L213.588 75.0674C216.695 72.3053 218.243 68.7066 218.243 64.36H217.243H216.243C216.243 68.1734 214.911 71.2146 212.259 73.5726L212.923 74.32ZM217.243 64.36H218.243C218.243 60.0131 216.694 56.4475 213.576 53.7622L212.923 54.52L212.271 55.2778C214.912 57.5525 216.243 60.5469 216.243 64.36H217.243ZM212.923 54.52L213.598 53.782C210.575 51.0178 206.594 49.68 201.763 49.68V50.68V51.68C206.212 51.68 209.672 52.9022 212.248 55.258L212.923 54.52ZM201.763 50.68V49.68H194.683V50.68V51.68H201.763V50.68ZM194.683 50.68V49.68C193.888 49.68 193.473 49.475 193.245 49.2375C193.009 48.9923 192.803 48.5358 192.803 47.68H191.803H190.803C190.803 48.8242 191.077 49.8677 191.802 50.6225C192.534 51.3849 193.558 51.68 194.683 51.68V50.68ZM191.803 47.68H192.803V40.96H191.803H190.803V47.68H191.803ZM191.803 40.96H192.803C192.803 40.1042 193.009 39.6477 193.245 39.4025C193.473 39.1649 193.888 38.96 194.683 38.96V37.96V36.96C193.558 36.96 192.534 37.255 191.802 38.0175C191.077 38.7723 190.803 39.8158 190.803 40.96H191.803ZM194.683 37.96V38.96H202.003V37.96V36.96H194.683V37.96ZM202.003 37.96V38.96C206.051 38.96 209.429 37.7728 212.045 35.331L211.363 34.6L210.681 33.8689C208.497 35.9072 205.636 36.96 202.003 36.96V37.96ZM211.363 34.6L212.058 35.319C214.669 32.7947 215.963 29.5674 215.963 25.72H214.963H213.963C213.963 29.0725 212.857 31.7652 210.668 33.881L211.363 34.6ZM214.963 25.72H215.963C215.963 21.8728 214.668 18.7093 212.032 16.3367L211.363 17.08L210.694 17.8233C212.858 19.7707 213.963 22.3672 213.963 25.72H214.963ZM211.363 17.08L212.045 16.3489C209.433 13.9109 206.097 12.72 202.123 12.72V13.72V14.72C205.669 14.72 208.493 15.7691 210.681 17.811L211.363 17.08ZM202.123 13.72V12.72C198.485 12.72 195.337 13.7403 192.738 15.8191L193.363 16.6L193.988 17.3809C196.189 15.6196 198.882 14.72 202.123 14.72V13.72ZM193.363 16.6L192.742 15.8165C190.211 17.824 188.656 20.5715 188.058 23.9876L189.043 24.16L190.028 24.3324C190.55 21.3484 191.876 19.056 193.985 17.3835L193.363 16.6ZM189.043 24.16L188.058 23.9886C187.922 24.7717 187.663 25.2301 187.376 25.494C187.102 25.7464 186.694 25.92 186.043 25.92V26.92V27.92C187.072 27.92 188.005 27.6335 188.73 26.9659C189.443 26.3098 189.845 25.3883 190.028 24.3313L189.043 24.16ZM186.043 26.92V25.92H177.043V26.92V27.92H186.043V26.92ZM177.043 26.92V25.92C176.087 25.92 175.633 25.6947 175.425 25.4774C175.233 25.2778 175.055 24.8809 175.156 24.0391L174.163 23.92L173.17 23.8008C173.031 24.959 173.213 26.0621 173.982 26.8625C174.733 27.6452 175.84 27.92 177.043 27.92V26.92ZM174.163 23.92L175.158 24.0247C175.621 19.6234 177.044 15.7921 179.414 12.5048L178.603 11.92L177.792 11.3352C175.202 14.9279 173.665 19.0965 173.169 23.8153L174.163 23.92ZM178.603 11.92L179.414 12.5048C181.792 9.20667 184.899 6.63268 188.756 4.78151L188.323 3.87998L187.89 2.97846C183.747 4.96729 180.374 7.7533 177.792 11.3352L178.603 11.92ZM188.323 3.87998L188.749 4.78481C192.677 2.93641 197.168 1.99998 202.243 1.99998V0.999985V-1.52588e-05C196.918 -1.52588e-05 192.13 0.983566 187.897 2.97517L188.323 3.87998ZM202.243 0.999985V1.99998C207.56 1.99998 212.207 2.97685 216.21 4.90124L216.643 3.99998L217.076 3.09873C212.759 1.02312 207.807 -1.52588e-05 202.243 -1.52588e-05V0.999985ZM216.643 3.99998L216.224 4.90794C220.23 6.75686 223.32 9.35939 225.528 12.7103L226.363 12.16L227.198 11.6097C224.767 7.92057 221.376 5.08311 217.062 3.09203L216.643 3.99998ZM226.363 12.16L225.537 12.7233C227.814 16.0624 228.963 19.9422 228.963 24.4H229.963H230.963C230.963 19.5778 229.713 15.2975 227.189 11.5966L226.363 12.16ZM229.963 24.4H228.963C228.963 28.9203 227.704 32.826 225.203 36.16L226.003 36.76L226.803 37.36C229.583 33.654 230.963 29.3196 230.963 24.4H229.963ZM226.003 36.76L225.194 36.1718C222.775 39.4982 219.671 41.5097 215.851 42.2587L216.043 43.24L216.236 44.2213C220.576 43.3703 224.111 41.0618 226.812 37.3482L226.003 36.76ZM216.043 43.24H215.043V43.6H216.043H217.043V43.24H216.043ZM216.043 43.6L215.85 44.5812C220.48 45.4921 224.226 47.8714 227.121 51.7575L227.923 51.16L228.725 50.5625C225.541 46.2885 221.366 43.6279 216.236 42.6188L216.043 43.6ZM227.923 51.16L227.127 51.7651C230.024 55.5764 231.483 60.0793 231.483 65.32H232.483H233.483C233.483 59.6806 231.903 54.7436 228.719 50.5549L227.923 51.16ZM232.483 65.32H231.483C231.483 70.2586 230.213 74.5366 227.699 78.1935L228.523 78.76L229.347 79.3265C232.113 75.3034 233.483 70.6214 233.483 65.32H232.483ZM228.523 78.76L227.691 78.2053C225.244 81.8763 221.793 84.7622 217.301 86.8534L217.723 87.76L218.145 88.6666C222.933 86.4378 226.683 83.3237 229.355 79.3147L228.523 78.76ZM217.723 87.76L217.295 86.8562C212.893 88.9412 207.725 90 201.763 90V91V92C207.961 92 213.433 90.8988 218.151 88.6637L217.723 87.76ZM249.956 83.8L249.255 84.5129L249.261 84.5186L249.956 83.8ZM249.956 8.19999L249.261 7.48136L249.255 7.48706L249.956 8.19999ZM289.916 8.19999L289.215 8.91293L289.221 8.91859L289.916 8.19999ZM289.916 83.8L289.221 83.0814L289.215 83.0871L289.916 83.8ZM279.236 74.56L279.957 75.2536L279.963 75.2471L279.969 75.2404L279.236 74.56ZM279.236 17.56L278.504 18.2404L278.51 18.2471L278.516 18.2536L279.236 17.56ZM260.756 17.56L261.477 18.2536L261.483 18.2471L261.489 18.2404L260.756 17.56ZM260.756 74.56L260.023 75.2404L260.03 75.2471L260.036 75.2536L260.756 74.56ZM269.996 91V90C261.796 90 255.386 87.6632 250.652 83.0814L249.956 83.8L249.261 84.5186C254.446 89.5367 261.396 92 269.996 92V91ZM249.956 83.8L250.658 83.0871C246.012 78.5179 243.636 72.1599 243.636 63.88H242.636H241.636C241.636 72.5601 244.14 79.4821 249.255 84.5129L249.956 83.8ZM242.636 63.88H243.636V28.12H242.636H241.636V63.88H242.636ZM242.636 28.12H243.636C243.636 19.8401 246.012 13.4821 250.658 8.91291L249.956 8.19999L249.255 7.48706C244.14 12.5179 241.636 19.4399 241.636 28.12H242.636ZM249.956 8.19999L250.652 8.91859C255.386 4.33672 261.796 1.99998 269.996 1.99998V0.999985V-1.52588e-05C261.396 -1.52588e-05 254.446 2.46325 249.261 7.48138L249.956 8.19999ZM269.996 0.999985V1.99998C278.197 1.99998 284.563 4.33688 289.215 8.91291L289.916 8.19999L290.618 7.48706C285.51 2.46309 278.595 -1.52588e-05 269.996 -1.52588e-05V0.999985ZM289.916 8.19999L289.221 8.91859C293.945 13.4905 296.356 19.8079 296.356 28H297.356H298.356C298.356 19.392 295.807 12.5095 290.612 7.48138L289.916 8.19999ZM297.356 28H296.356V63.88H297.356H298.356V28H297.356ZM297.356 63.88H296.356C296.356 72.1552 293.943 78.5113 289.221 83.0814L289.916 83.8L290.612 84.5186C295.809 79.4887 298.356 72.5648 298.356 63.88H297.356ZM289.916 83.8L289.215 83.0871C284.563 87.6631 278.197 90 269.996 90V91V92C278.595 92 285.51 89.5369 290.618 84.5129L289.916 83.8ZM269.996 77.8V78.8C274.247 78.8 277.628 77.6719 279.957 75.2536L279.236 74.56L278.516 73.8663C276.685 75.7681 273.906 76.8 269.996 76.8V77.8ZM279.236 74.56L279.969 75.2404C282.272 72.7607 283.356 69.3261 283.356 65.08H282.356H281.356C281.356 68.9939 280.361 71.8793 278.504 73.8795L279.236 74.56ZM282.356 65.08H283.356V26.92H282.356H281.356V65.08H282.356ZM282.356 26.92H283.356C283.356 22.6764 282.273 19.2715 279.957 16.8663L279.236 17.56L278.516 18.2536C280.36 20.1685 281.356 23.0035 281.356 26.92H282.356ZM279.236 17.56L279.969 16.8795C277.643 14.374 274.257 13.2 269.996 13.2V14.2V15.2C273.895 15.2 276.67 16.2659 278.504 18.2404L279.236 17.56ZM269.996 14.2V13.2C265.735 13.2 262.35 14.374 260.023 16.8795L260.756 17.56L261.489 18.2404C263.323 16.2659 266.097 15.2 269.996 15.2V14.2ZM260.756 17.56L260.036 16.8663C257.72 19.2715 256.636 22.6764 256.636 26.92H257.636H258.636C258.636 23.0035 259.633 20.1685 261.477 18.2536L260.756 17.56ZM257.636 26.92H256.636V65.08H257.636H258.636V26.92H257.636ZM257.636 65.08H256.636C256.636 69.3261 257.721 72.7607 260.023 75.2404L260.756 74.56L261.489 73.8795C259.632 71.8793 258.636 68.9939 258.636 65.08H257.636ZM260.756 74.56L260.036 75.2536C262.365 77.6719 265.746 78.8 269.996 78.8V77.8V76.8C266.087 76.8 263.308 75.7681 261.477 73.8663L260.756 74.56ZM48.4969 165.8L47.7956 166.513L47.8015 166.519L48.4969 165.8ZM48.4969 90.2L47.8015 89.4814L47.7957 89.4871L48.4969 90.2ZM88.4569 90.2L87.7556 90.9129L87.7615 90.9186L88.4569 90.2ZM88.4569 165.8L87.7615 165.081L87.7557 165.087L88.4569 165.8ZM77.7769 156.56L78.4972 157.254L78.5035 157.247L78.5097 157.24L77.7769 156.56ZM77.7769 99.56L77.0441 100.24L77.0503 100.247L77.0566 100.254L77.7769 99.56ZM59.2969 99.56L60.0172 100.254L60.0235 100.247L60.0297 100.24L59.2969 99.56ZM59.2969 156.56L58.5641 157.24L58.5703 157.247L58.5766 157.254L59.2969 156.56ZM68.5369 173V172C60.3367 172 53.9269 169.663 49.1923 165.081L48.4969 165.8L47.8015 166.519C52.9869 171.537 59.9371 174 68.5369 174V173ZM48.4969 165.8L49.1982 165.087C44.5529 160.518 42.1769 154.16 42.1769 145.88H41.1769H40.1769C40.1769 154.56 42.681 161.482 47.7957 166.513L48.4969 165.8ZM41.1769 145.88H42.1769V110.12H41.1769H40.1769V145.88H41.1769ZM41.1769 110.12H42.1769C42.1769 101.84 44.5529 95.4821 49.1982 90.9129L48.4969 90.2L47.7957 89.4871C42.681 94.5179 40.1769 101.44 40.1769 110.12H41.1769ZM48.4969 90.2L49.1923 90.9186C53.9269 86.3367 60.3367 84 68.5369 84V83V82C59.9371 82 52.9869 84.4632 47.8015 89.4814L48.4969 90.2ZM68.5369 83V84C76.7377 84 83.1034 86.3369 87.7557 90.9129L88.4569 90.2L89.1582 89.4871C84.0504 84.4631 77.1361 82 68.5369 82V83ZM88.4569 90.2L87.7615 90.9186C92.4858 95.4905 94.8969 101.808 94.8969 110H95.8969H96.8969C96.8969 101.392 94.348 94.5095 89.1523 89.4814L88.4569 90.2ZM95.8969 110H94.8969V145.88H95.8969H96.8969V110H95.8969ZM95.8969 145.88H94.8969C94.8969 154.155 92.4839 160.511 87.7615 165.081L88.4569 165.8L89.1523 166.519C94.3499 161.489 96.8969 154.565 96.8969 145.88H95.8969ZM88.4569 165.8L87.7557 165.087C83.1034 169.663 76.7377 172 68.5369 172V173V174C77.1361 174 84.0504 171.537 89.1582 166.513L88.4569 165.8ZM68.5369 159.8V160.8C72.7876 160.8 76.1685 159.672 78.4972 157.254L77.7769 156.56L77.0566 155.866C75.2253 157.768 72.4463 158.8 68.5369 158.8V159.8ZM77.7769 156.56L78.5097 157.24C80.8123 154.761 81.8969 151.326 81.8969 147.08H80.8969H79.8969C79.8969 150.994 78.9015 153.879 77.0441 155.88L77.7769 156.56ZM80.8969 147.08H81.8969V108.92H80.8969H79.8969V147.08H80.8969ZM80.8969 108.92H81.8969C81.8969 104.676 80.8133 101.271 78.4972 98.8663L77.7769 99.56L77.0566 100.254C78.9005 102.168 79.8969 105.004 79.8969 108.92H80.8969ZM77.7769 99.56L78.5097 98.8795C76.1832 96.374 72.7977 95.2 68.5369 95.2V96.2V97.2C72.4361 97.2 75.2107 98.2659 77.0441 100.24L77.7769 99.56ZM68.5369 96.2V95.2C64.2761 95.2 60.8907 96.374 58.5641 98.8795L59.2969 99.56L60.0297 100.24C61.8632 98.2659 64.6377 97.2 68.5369 97.2V96.2ZM59.2969 99.56L58.5766 98.8663C56.2605 101.271 55.1769 104.676 55.1769 108.92H56.1769H57.1769C57.1769 105.004 58.1733 102.168 60.0172 100.254L59.2969 99.56ZM56.1769 108.92H55.1769V147.08H56.1769H57.1769V108.92H56.1769ZM56.1769 147.08H55.1769C55.1769 151.326 56.2615 154.761 58.5641 157.24L59.2969 156.56L60.0297 155.88C58.1723 153.879 57.1769 150.994 57.1769 147.08H56.1769ZM59.2969 156.56L58.5766 157.254C60.9053 159.672 64.2863 160.8 68.5369 160.8V159.8V158.8C64.6276 158.8 61.8485 157.768 60.0172 155.866L59.2969 156.56ZM109.05 171.8H108.05V172.8H109.05V171.8ZM109.05 84.2V83.2H108.05V84.2H109.05ZM161.61 84.2H162.61V83.2H161.61V84.2ZM161.61 97.76V98.76H162.61V97.76H161.61ZM123.69 97.76V96.76H122.69V97.76H123.69ZM123.69 118.64H122.69V119.64H123.69V118.64ZM151.77 122L151.31 122.888L151.316 122.891L151.323 122.894L151.77 122ZM161.85 131.24L160.993 131.755L160.997 131.762L161.85 131.24ZM161.85 158.96L160.993 158.445V158.445L161.85 158.96ZM151.77 168.44L152.237 169.324L152.243 169.321L151.77 168.44ZM123.69 158.6H122.69V159.6H123.69V158.6ZM146.49 154.88L145.783 154.173L145.777 154.179L145.771 154.185L146.49 154.88ZM146.49 135.2L145.771 135.895L145.783 135.907L145.795 135.919L146.49 135.2ZM123.69 131.48V130.48H122.69V131.48H123.69ZM109.05 171.8H110.05V84.2H109.05H108.05V171.8H109.05ZM109.05 84.2V85.2H161.61V84.2V83.2H109.05V84.2ZM161.61 84.2H160.61V97.76H161.61H162.61V84.2H161.61ZM161.61 97.76V96.76H123.69V97.76V98.76H161.61V97.76ZM123.69 97.76H122.69V118.64H123.69H124.69V97.76H123.69ZM123.69 118.64V119.64H136.53V118.64V117.64H123.69V118.64ZM136.53 118.64V119.64C142.242 119.64 147.158 120.735 151.31 122.888L151.77 122L152.23 121.112C147.742 118.785 142.498 117.64 136.53 117.64V118.64ZM151.77 122L151.323 122.894C155.479 124.973 158.694 127.924 160.993 131.754L161.85 131.24L162.708 130.725C160.206 126.556 156.701 123.347 152.217 121.106L151.77 122ZM161.85 131.24L160.997 131.762C163.287 135.503 164.45 139.916 164.45 145.04H165.45H166.45C166.45 139.604 165.213 134.817 162.703 130.718L161.85 131.24ZM165.45 145.04H164.45C164.45 150.163 163.287 154.621 160.993 158.445L161.85 158.96L162.708 159.474C165.213 155.299 166.45 150.477 166.45 145.04H165.45ZM161.85 158.96L160.993 158.445C158.69 162.283 155.467 165.32 151.297 167.559L151.77 168.44L152.243 169.321C156.714 166.92 160.21 163.637 162.708 159.474L161.85 158.96ZM151.77 168.44L151.303 167.556C147.235 169.705 142.362 170.8 136.65 170.8V171.8V172.8C142.618 172.8 147.825 171.655 152.237 169.324L151.77 168.44ZM136.65 171.8V170.8H109.05V171.8V172.8H136.65V171.8ZM123.69 158.6V159.6H136.65V158.6V157.6H123.69V158.6ZM136.65 158.6V159.6C141.021 159.6 144.582 158.289 147.209 155.575L146.49 154.88L145.771 154.185C143.598 156.431 140.599 157.6 136.65 157.6V158.6ZM146.49 154.88L147.197 155.587C149.895 152.889 151.21 149.338 151.21 145.04H150.21H149.21C149.21 148.902 148.045 151.911 145.783 154.173L146.49 154.88ZM150.21 145.04H151.21C151.21 140.669 149.899 137.108 147.185 134.481L146.49 135.2L145.795 135.919C148.041 138.092 149.21 141.091 149.21 145.04H150.21ZM146.49 135.2L147.209 134.505C144.582 131.791 141.021 130.48 136.65 130.48V131.48V132.48C140.599 132.48 143.598 133.649 145.771 135.895L146.49 135.2ZM136.65 131.48V130.48H123.69V131.48V132.48H136.65V131.48ZM123.69 131.48H122.69V158.6H123.69H124.69V131.48H123.69ZM182.803 165.8L182.102 166.513L182.108 166.519L182.803 165.8ZM182.803 90.2L182.108 89.4814L182.102 89.4871L182.803 90.2ZM222.763 90.2L222.062 90.9129L222.068 90.9186L222.763 90.2ZM222.763 165.8L222.068 165.081L222.062 165.087L222.763 165.8ZM212.083 156.56L212.803 157.254L212.81 157.247L212.816 157.24L212.083 156.56ZM212.083 99.56L211.35 100.24L211.357 100.247L211.363 100.254L212.083 99.56ZM193.603 99.56L194.323 100.254L194.33 100.247L194.336 100.24L193.603 99.56ZM193.603 156.56L192.87 157.24L192.877 157.247L192.883 157.254L193.603 156.56ZM202.843 173V172C194.643 172 188.233 169.663 183.499 165.081L182.803 165.8L182.108 166.519C187.293 171.537 194.243 174 202.843 174V173ZM182.803 165.8L183.504 165.087C178.859 160.518 176.483 154.16 176.483 145.88H175.483H174.483C174.483 154.56 176.987 161.482 182.102 166.513L182.803 165.8ZM175.483 145.88H176.483V110.12H175.483H174.483V145.88H175.483ZM175.483 110.12H176.483C176.483 101.84 178.859 95.4821 183.504 90.9129L182.803 90.2L182.102 89.4871C176.987 94.5179 174.483 101.44 174.483 110.12H175.483ZM182.803 90.2L183.499 90.9186C188.233 86.3367 194.643 84 202.843 84V83V82C194.243 82 187.293 84.4632 182.108 89.4814L182.803 90.2ZM202.843 83V84C211.044 84 217.41 86.3369 222.062 90.9129L222.763 90.2L223.464 89.4871C218.357 84.4631 211.442 82 202.843 82V83ZM222.763 90.2L222.068 90.9186C226.792 95.4905 229.203 101.808 229.203 110H230.203H231.203C231.203 101.392 228.654 94.5095 223.459 89.4814L222.763 90.2ZM230.203 110H229.203V145.88H230.203H231.203V110H230.203ZM230.203 145.88H229.203C229.203 154.155 226.79 160.511 222.068 165.081L222.763 165.8L223.459 166.519C228.656 161.489 231.203 154.565 231.203 145.88H230.203ZM222.763 165.8L222.062 165.087C217.41 169.663 211.044 172 202.843 172V173V174C211.442 174 218.357 171.537 223.464 166.513L222.763 165.8ZM202.843 159.8V160.8C207.094 160.8 210.475 159.672 212.803 157.254L212.083 156.56L211.363 155.866C209.532 157.768 206.753 158.8 202.843 158.8V159.8ZM212.083 156.56L212.816 157.24C215.119 154.761 216.203 151.326 216.203 147.08H215.203H214.203C214.203 150.994 213.208 153.879 211.35 155.88L212.083 156.56ZM215.203 147.08H216.203V108.92H215.203H214.203V147.08H215.203ZM215.203 108.92H216.203C216.203 104.676 215.12 101.271 212.803 98.8663L212.083 99.56L211.363 100.254C213.207 102.168 214.203 105.004 214.203 108.92H215.203ZM212.083 99.56L212.816 98.8795C210.489 96.374 207.104 95.2 202.843 95.2V96.2V97.2C206.742 97.2 209.517 98.2659 211.35 100.24L212.083 99.56ZM202.843 96.2V95.2C198.582 95.2 195.197 96.374 192.87 98.8795L193.603 99.56L194.336 100.24C196.169 98.2659 198.944 97.2 202.843 97.2V96.2ZM193.603 99.56L192.883 98.8663C190.567 101.271 189.483 104.676 189.483 108.92H190.483H191.483C191.483 105.004 192.48 102.168 194.323 100.254L193.603 99.56ZM190.483 108.92H189.483V147.08H190.483H191.483V108.92H190.483ZM190.483 147.08H189.483C189.483 151.326 190.568 154.761 192.87 157.24L193.603 156.56L194.336 155.88C192.479 153.879 191.483 150.994 191.483 147.08H190.483ZM193.603 156.56L192.883 157.254C195.212 159.672 198.592 160.8 202.843 160.8V159.8V158.8C198.934 158.8 196.155 157.768 194.323 155.866L193.603 156.56ZM250.796 139.16H249.796V140.16H250.796V139.16ZM250.796 125.24V124.24H249.796V125.24H250.796ZM289.196 125.24H290.196V124.24H289.196V125.24ZM289.196 139.16V140.16H290.196V139.16H289.196ZM250.796 139.16H251.796V125.24H250.796H249.796V139.16H250.796ZM250.796 125.24V126.24H289.196V125.24V124.24H250.796V125.24ZM289.196 125.24H288.196V139.16H289.196H290.196V125.24H289.196ZM289.196 139.16V138.16H250.796V139.16V140.16H289.196V139.16ZM1.00036 254.4H0.000357628V255.4H1.00036V254.4ZM1.00036 240.72V239.72H0.000357628V240.72H1.00036ZM12.5204 225L11.5205 224.984L11.5205 224.985L12.5204 225ZM13.4804 166.2V165.2H12.4966L12.4805 166.184L13.4804 166.2ZM61.6004 166.2H62.6004V165.2H61.6004V166.2ZM61.6004 253.8V254.8H62.6004V253.8H61.6004ZM46.6004 253.8H45.6004V254.8H46.6004V253.8ZM46.6004 179.76H47.6004V178.76H46.6004V179.76ZM28.2404 179.76V178.76H27.2588L27.2405 179.741L28.2404 179.76ZM27.4004 225L26.4005 224.981L26.4005 224.983L27.4004 225ZM21.2804 246.84L20.491 246.226L20.4849 246.234L21.2804 246.84ZM1.00036 254.4H2.00036V240.72H1.00036H0.000357628V254.4H1.00036ZM1.00036 240.72V241.72H4.00036V240.72V239.72H1.00036V240.72ZM4.00036 240.72V241.72C5.5452 241.72 6.94634 241.351 8.16895 240.585C9.38758 239.821 10.3744 238.697 11.1495 237.266C12.6844 234.435 13.4394 230.311 13.5202 225.015L12.5204 225L11.5205 224.985C11.4413 230.169 10.6963 233.905 9.39118 236.313C8.74627 237.503 7.97814 238.344 7.10677 238.89C6.23938 239.434 5.21552 239.72 4.00036 239.72V240.72ZM12.5204 225L13.5202 225.016L14.4802 166.216L13.4804 166.2L12.4805 166.184L11.5205 224.984L12.5204 225ZM13.4804 166.2V167.2H61.6004V166.2V165.2H13.4804V166.2ZM61.6004 166.2H60.6004V253.8H61.6004H62.6004V166.2H61.6004ZM61.6004 253.8V252.8H46.6004V253.8V254.8H61.6004V253.8ZM46.6004 253.8H47.6004V179.76H46.6004H45.6004V253.8H46.6004ZM46.6004 179.76V178.76H28.2404V179.76V180.76H46.6004V179.76ZM28.2404 179.76L27.2405 179.741L26.4005 224.981L27.4004 225L28.4002 225.019L29.2402 179.779L28.2404 179.76ZM27.4004 225L26.4005 224.983C26.2424 234.388 24.2269 241.423 20.491 246.226L21.2804 246.84L22.0697 247.454C26.1738 242.177 28.2383 234.652 28.4002 225.017L27.4004 225ZM21.2804 246.84L20.4849 246.234C16.8569 250.996 11.728 253.4 4.96036 253.4V254.4V255.4C12.2727 255.4 18.0238 252.764 22.0758 247.446L21.2804 246.84ZM4.96036 254.4V253.4H1.00036V254.4V255.4H4.96036V254.4ZM82.0735 247.8L81.3722 248.513L81.3781 248.519L82.0735 247.8ZM82.0735 172.2L81.378 171.481L81.3722 171.487L82.0735 172.2ZM122.033 172.2L121.332 172.913L121.338 172.919L122.033 172.2ZM122.033 247.8L121.338 247.081L121.332 247.087L122.033 247.8ZM111.353 238.56L112.074 239.254L112.08 239.247L112.086 239.24L111.353 238.56ZM111.353 181.56L110.621 182.24L110.627 182.247L110.633 182.254L111.353 181.56ZM92.8735 181.56L93.5938 182.254L93.6001 182.247L93.6063 182.24L92.8735 181.56ZM92.8735 238.56L92.1407 239.24L92.1469 239.247L92.1532 239.254L92.8735 238.56ZM102.113 255V254C93.9133 254 87.5035 251.663 82.7689 247.081L82.0735 247.8L81.3781 248.519C86.5635 253.537 93.5136 256 102.113 256V255ZM82.0735 247.8L82.7747 247.087C78.1294 242.518 75.7535 236.16 75.7535 227.88H74.7535H73.7535C73.7535 236.56 76.2575 243.482 81.3722 248.513L82.0735 247.8ZM74.7535 227.88H75.7535V192.12H74.7535H73.7535V227.88H74.7535ZM74.7535 192.12H75.7535C75.7535 183.84 78.1294 177.482 82.7747 172.913L82.0735 172.2L81.3722 171.487C76.2575 176.518 73.7535 183.44 73.7535 192.12H74.7535ZM82.0735 172.2L82.7689 172.919C87.5035 168.337 93.9133 166 102.113 166V165V164C93.5136 164 86.5635 166.463 81.3781 171.481L82.0735 172.2ZM102.113 165V166C110.314 166 116.68 168.337 121.332 172.913L122.033 172.2L122.735 171.487C117.627 166.463 110.713 164 102.113 164V165ZM122.033 172.2L121.338 172.919C126.062 177.491 128.473 183.808 128.473 192H129.473H130.473C130.473 183.392 127.925 176.509 122.729 171.481L122.033 172.2ZM129.473 192H128.473V227.88H129.473H130.473V192H129.473ZM129.473 227.88H128.473C128.473 236.155 126.061 242.511 121.338 247.081L122.033 247.8L122.729 248.519C127.926 243.489 130.473 236.565 130.473 227.88H129.473ZM122.033 247.8L121.332 247.087C116.68 251.663 110.314 254 102.113 254V255V256C110.713 256 117.627 253.537 122.735 248.513L122.033 247.8ZM102.113 241.8V242.8C106.364 242.8 109.745 241.672 112.074 239.254L111.353 238.56L110.633 237.866C108.802 239.768 106.023 240.8 102.113 240.8V241.8ZM111.353 238.56L112.086 239.24C114.389 236.761 115.473 233.326 115.473 229.08H114.473H113.473C113.473 232.994 112.478 235.879 110.621 237.88L111.353 238.56ZM114.473 229.08H115.473V190.92H114.473H113.473V229.08H114.473ZM114.473 190.92H115.473C115.473 186.676 114.39 183.271 112.074 180.866L111.353 181.56L110.633 182.254C112.477 184.168 113.473 187.004 113.473 190.92H114.473ZM111.353 181.56L112.086 180.88C109.76 178.374 106.374 177.2 102.113 177.2V178.2V179.2C106.013 179.2 108.787 180.266 110.621 182.24L111.353 181.56ZM102.113 178.2V177.2C97.8527 177.2 94.4672 178.374 92.1407 180.88L92.8735 181.56L93.6063 182.24C95.4397 180.266 98.2143 179.2 102.113 179.2V178.2ZM92.8735 181.56L92.1532 180.866C89.8371 183.271 88.7535 186.676 88.7535 190.92H89.7535H90.7535C90.7535 187.004 91.7499 184.168 93.5938 182.254L92.8735 181.56ZM89.7535 190.92H88.7535V229.08H89.7535H90.7535V190.92H89.7535ZM89.7535 229.08H88.7535C88.7535 233.326 89.8381 236.761 92.1407 239.24L92.8735 238.56L93.6063 237.88C91.7489 235.879 90.7535 232.994 90.7535 229.08H89.7535ZM92.8735 238.56L92.1532 239.254C94.4818 241.672 97.8628 242.8 102.113 242.8V241.8V240.8C98.2041 240.8 95.4251 239.768 93.5938 237.866L92.8735 238.56ZM180.667 253.8H179.667V254.8H180.667V253.8ZM180.667 222.72H181.667V221.72H180.667V222.72ZM147.187 216.72L146.513 217.459L146.521 217.466L147.187 216.72ZM140.467 166.2V165.2H139.467V166.2H140.467ZM155.467 166.2H156.467V165.2H155.467V166.2ZM158.707 206.64L158.058 207.401L158.073 207.414L158.089 207.426L158.707 206.64ZM180.667 209.28V210.28H181.667V209.28H180.667ZM180.667 166.2V165.2H179.667V166.2H180.667ZM195.667 166.2H196.667V165.2H195.667V166.2ZM195.667 253.8V254.8H196.667V253.8H195.667ZM180.667 253.8H181.667V222.72H180.667H179.667V253.8H180.667ZM180.667 222.72V221.72H165.907V222.72V223.72H180.667V222.72ZM165.907 222.72V221.72C158.069 221.72 152.096 219.763 147.853 215.974L147.187 216.72L146.521 217.466C151.237 221.677 157.744 223.72 165.907 223.72V222.72ZM147.187 216.72L147.86 215.981C143.627 212.126 141.467 206.776 141.467 199.8H140.467H139.467C139.467 207.224 141.786 213.154 146.513 217.459L147.187 216.72ZM140.467 199.8H141.467V166.2H140.467H139.467V199.8H140.467ZM140.467 166.2V167.2H155.467V166.2V165.2H140.467V166.2ZM155.467 166.2H154.467V199.08H155.467H156.467V166.2H155.467ZM155.467 199.08H154.467C154.467 202.531 155.645 205.346 158.058 207.401L158.707 206.64L159.355 205.879C157.448 204.254 156.467 202.029 156.467 199.08H155.467ZM158.707 206.64L158.089 207.426C160.554 209.363 163.794 210.28 167.707 210.28V209.28V208.28C164.099 208.28 161.339 207.437 159.324 205.854L158.707 206.64ZM167.707 209.28V210.28H180.667V209.28V208.28H167.707V209.28ZM180.667 209.28H181.667V166.2H180.667H179.667V209.28H180.667ZM180.667 166.2V167.2H195.667V166.2V165.2H180.667V166.2ZM195.667 166.2H194.667V253.8H195.667H196.667V166.2H195.667ZM195.667 253.8V252.8H180.667V253.8V254.8H195.667V253.8ZM224.54 201.96H223.54V202.96H224.54V201.96ZM234.86 201.96V202.96H235.496L235.766 202.384L234.86 201.96ZM250.58 168.36L251.486 168.784L251.49 168.775L251.494 168.766L250.58 168.36ZM266.18 167.28L265.306 167.766L265.339 167.825L265.38 167.88L266.18 167.28ZM266.18 169.68L265.285 169.233L265.28 169.242L265.276 169.252L266.18 169.68ZM248.06 207.96L247.156 207.532L246.958 207.95L247.148 208.371L248.06 207.96ZM267.14 250.32L266.228 250.731L266.236 250.749L266.245 250.767L267.14 250.32ZM267.14 252.84L266.308 252.285L266.3 252.298L266.292 252.31L267.14 252.84ZM251.06 251.52L251.981 251.132L251.977 251.122L251.973 251.112L251.06 251.52ZM234.74 215.04L235.653 214.632L235.388 214.04H234.74V215.04ZM224.54 215.04V214.04H223.54V215.04H224.54ZM212.54 253.8V252.8C211.694 252.8 211.243 252.589 210.997 252.343C210.751 252.097 210.54 251.646 210.54 250.8H209.54H208.54C208.54 251.954 208.829 253.003 209.583 253.757C210.336 254.511 211.386 254.8 212.54 254.8V253.8ZM209.54 250.8H210.54V169.2H209.54H208.54V250.8H209.54ZM209.54 169.2H210.54C210.54 168.354 210.751 167.903 210.997 167.657C211.243 167.411 211.694 167.2 212.54 167.2V166.2V165.2C211.386 165.2 210.336 165.489 209.583 166.243C208.829 166.997 208.54 168.046 208.54 169.2H209.54ZM212.54 166.2V167.2H221.66V166.2V165.2H212.54V166.2ZM221.66 166.2V167.2C222.455 167.2 222.87 167.405 223.098 167.643C223.334 167.888 223.54 168.344 223.54 169.2H224.54H225.54C225.54 168.056 225.266 167.012 224.541 166.257C223.809 165.495 222.785 165.2 221.66 165.2V166.2ZM224.54 169.2H223.54V201.96H224.54H225.54V169.2H224.54ZM224.54 201.96V202.96H234.86V201.96V200.96H224.54V201.96ZM234.86 201.96L235.766 202.384L251.486 168.784L250.58 168.36L249.674 167.936L233.954 201.536L234.86 201.96ZM250.58 168.36L251.494 168.766C251.749 168.191 252.073 167.818 252.44 167.581C252.809 167.344 253.292 167.2 253.94 167.2V166.2V165.2C252.987 165.2 252.11 165.416 251.359 165.899C250.607 166.382 250.05 167.089 249.666 167.954L250.58 168.36ZM253.94 166.2V167.2H263.9V166.2V165.2H253.94V166.2ZM263.9 166.2V167.2C264.805 167.2 265.144 167.475 265.306 167.766L266.18 167.28L267.054 166.794C266.415 165.645 265.234 165.2 263.9 165.2V166.2ZM266.18 167.28L265.38 167.88C265.554 168.113 265.663 168.476 265.285 169.233L266.18 169.68L267.074 170.127C267.656 168.963 267.765 167.727 266.98 166.68L266.18 167.28ZM266.18 169.68L265.276 169.252L247.156 207.532L248.06 207.96L248.964 208.388L267.084 170.108L266.18 169.68ZM248.06 207.96L247.148 208.371L266.228 250.731L267.14 250.32L268.052 249.909L248.972 207.549L248.06 207.96ZM267.14 250.32L266.245 250.767C266.61 251.496 266.538 251.939 266.308 252.285L267.14 252.84L267.972 253.395C268.701 252.301 268.63 251.063 268.034 249.873L267.14 250.32ZM267.14 252.84L266.292 252.31C266.153 252.532 265.815 252.8 264.86 252.8V253.8V254.8C266.145 254.8 267.327 254.428 267.988 253.37L267.14 252.84ZM264.86 253.8V252.8H254.54V253.8V254.8H264.86V253.8ZM254.54 253.8V252.8C253.853 252.8 253.343 252.646 252.958 252.394C252.574 252.142 252.239 251.744 251.981 251.132L251.06 251.52L250.138 251.908C250.52 252.816 251.086 253.558 251.862 254.066C252.636 254.574 253.547 254.8 254.54 254.8V253.8ZM251.06 251.52L251.973 251.112L235.653 214.632L234.74 215.04L233.827 215.448L250.147 251.928L251.06 251.52ZM234.74 215.04V214.04H224.54V215.04V216.04H234.74V215.04ZM224.54 215.04H223.54V250.8H224.54H225.54V215.04H224.54ZM224.54 250.8H223.54C223.54 251.656 223.334 252.112 223.098 252.357C222.87 252.595 222.455 252.8 221.66 252.8V253.8V254.8C222.785 254.8 223.809 254.505 224.541 253.743C225.266 252.988 225.54 251.944 225.54 250.8H224.54ZM221.66 253.8V252.8H212.54V253.8V254.8H221.66V253.8ZM272.733 250.56L273.701 250.811L273.703 250.803L272.733 250.56ZM293.253 168.72L294.223 168.963L294.226 168.952L293.253 168.72ZM313.773 168.72L312.8 168.952L312.803 168.965L313.773 168.72ZM334.413 250.56L333.443 250.805L333.445 250.811L334.413 250.56ZM319.533 251.16L320.517 250.981L320.512 250.957L320.507 250.934L319.533 251.16ZM315.213 232.56L316.187 232.334L316.007 231.56H315.213V232.56ZM291.933 232.56V231.56H291.133L290.957 232.34L291.933 232.56ZM287.733 251.16L288.708 251.382L288.708 251.38L287.733 251.16ZM294.693 220.32L293.717 220.102L293.445 221.32H294.693V220.32ZM312.453 220.32V221.32H313.702L313.429 220.101L312.453 220.32ZM307.173 196.8L308.149 196.581L308.146 196.568L307.173 196.8ZM306.093 192.12L305.106 192.284L305.111 192.311L305.117 192.337L306.093 192.12ZM305.373 188.04L306.356 187.856L306.353 187.839L306.349 187.823L305.373 188.04ZM303.693 185.4L303.246 186.294L303.283 186.313L303.321 186.328L303.693 185.4ZM302.133 186.6L301.152 186.404L301.148 186.424L301.145 186.444L302.133 186.6ZM301.173 191.4L300.2 191.168L300.195 191.191L300.19 191.213L301.173 191.4ZM299.973 196.68L299.005 196.428L299.001 196.445L298.997 196.462L299.973 196.68ZM275.253 253.8V252.8C274.246 252.8 273.869 252.552 273.732 252.376C273.597 252.202 273.45 251.779 273.701 250.811L272.733 250.56L271.765 250.309C271.456 251.501 271.449 252.698 272.154 253.604C272.857 254.508 274.019 254.8 275.253 254.8V253.8ZM272.733 250.56L273.703 250.803L294.223 168.963L293.253 168.72L292.283 168.477L271.763 250.317L272.733 250.56ZM293.253 168.72L294.226 168.952C294.387 168.274 294.659 167.866 294.977 167.619C295.296 167.371 295.771 167.2 296.493 167.2V166.2V165.2C295.455 165.2 294.509 165.449 293.749 166.041C292.987 166.634 292.519 167.486 292.28 168.488L293.253 168.72ZM296.493 166.2V167.2H310.533V166.2V165.2H296.493V166.2ZM310.533 166.2V167.2C311.255 167.2 311.729 167.371 312.049 167.619C312.367 167.866 312.639 168.274 312.8 168.952L313.773 168.72L314.746 168.488C314.507 167.486 314.039 166.634 313.277 166.041C312.516 165.449 311.571 165.2 310.533 165.2V166.2ZM313.773 168.72L312.803 168.965L333.443 250.805L334.413 250.56L335.383 250.315L314.742 168.475L313.773 168.72ZM334.413 250.56L333.445 250.811C333.696 251.779 333.549 252.202 333.414 252.376C333.277 252.552 332.899 252.8 331.893 252.8V253.8V254.8C333.126 254.8 334.289 254.508 334.992 253.604C335.697 252.698 335.69 251.501 335.381 250.309L334.413 250.56ZM331.893 253.8V252.8H322.653V253.8V254.8H331.893V253.8ZM322.653 253.8V252.8C321.939 252.8 321.491 252.624 321.199 252.377C320.905 252.128 320.648 251.705 320.517 250.981L319.533 251.16L318.549 251.339C318.737 252.375 319.161 253.272 319.907 253.903C320.655 254.536 321.607 254.8 322.653 254.8V253.8ZM319.533 251.16L320.507 250.934L316.187 232.334L315.213 232.56L314.239 232.786L318.559 251.386L319.533 251.16ZM315.213 232.56V231.56H291.933V232.56V233.56H315.213V232.56ZM291.933 232.56L290.957 232.34L286.757 250.94L287.733 251.16L288.708 251.38L292.908 232.78L291.933 232.56ZM287.733 251.16L286.758 250.938C286.592 251.666 286.313 252.103 285.991 252.365C285.672 252.625 285.205 252.8 284.493 252.8V253.8V254.8C285.541 254.8 286.493 254.535 287.255 253.915C288.013 253.297 288.473 252.414 288.708 251.382L287.733 251.16ZM284.493 253.8V252.8H275.253V253.8V254.8H284.493V253.8ZM294.693 220.32V221.32H312.453V220.32V219.32H294.693V220.32ZM312.453 220.32L313.429 220.101L308.149 196.581L307.173 196.8L306.197 197.019L311.477 220.539L312.453 220.32ZM307.173 196.8L308.146 196.568C307.747 194.892 307.388 193.337 307.069 191.903L306.093 192.12L305.117 192.337C305.438 193.783 305.799 195.348 306.2 197.032L307.173 196.8ZM306.093 192.12L307.079 191.956C306.838 190.51 306.597 189.143 306.356 187.856L305.373 188.04L304.39 188.224C304.629 189.497 304.867 190.85 305.106 192.284L306.093 192.12ZM305.373 188.04L306.349 187.823C306.008 186.289 305.338 184.981 304.064 184.471L303.693 185.4L303.321 186.328C303.648 186.459 304.098 186.911 304.397 188.257L305.373 188.04ZM303.693 185.4L304.14 184.506C303.543 184.207 302.767 184.089 302.093 184.607C301.534 185.038 301.284 185.748 301.152 186.404L302.133 186.6L303.113 186.796C303.163 186.548 303.219 186.383 303.269 186.279C303.318 186.174 303.344 186.169 303.313 186.193C303.267 186.228 303.199 186.25 303.145 186.25C303.11 186.25 303.138 186.24 303.246 186.294L303.693 185.4ZM302.133 186.6L301.145 186.444C300.91 187.936 300.595 189.51 300.2 191.168L301.173 191.4L302.146 191.632C302.551 189.93 302.876 188.304 303.121 186.756L302.133 186.6ZM301.173 191.4L300.19 191.213C299.875 192.869 299.48 194.607 299.005 196.428L299.973 196.68L300.94 196.932C301.425 195.073 301.831 193.291 302.155 191.587L301.173 191.4ZM299.973 196.68L298.997 196.462L293.717 220.102L294.693 220.32L295.669 220.538L300.949 196.898L299.973 196.68Z" fill="black" mask="url(#path-1-outside-1_63_9321)"/>
</svg>
