<svg width="1035" height="362" viewBox="0 0 1035 362" fill="none" xmlns="http://www.w3.org/2000/svg">
<mask id="path-1-outside-1_63_1050" maskUnits="userSpaceOnUse" x="-0.390625" y="0" width="1036" height="362" fill="black">
<rect fill="white" x="-0.390625" width="1036" height="362"/>
<path d="M268.805 135.5H300.305C300.305 144 302.555 150.583 307.055 155.25C311.721 159.75 318.305 162 326.805 162C335.305 162 341.888 159.75 346.555 155.25C351.221 150.583 353.555 144 353.555 135.5V106.5H301.055V78.25H353.555V56C353.555 47.5 351.221 41 346.555 36.5C341.888 31.8333 335.305 29.5 326.805 29.5C318.305 29.5 311.721 31.8333 307.055 36.5C302.555 41 300.305 47.5 300.305 56H268.805C268.805 45 271.221 35.5 276.055 27.5C280.888 19.3333 287.638 13.0833 296.305 8.74999C304.971 4.24999 315.138 2 326.805 2C338.638 2 348.888 4.24999 357.555 8.74999C366.221 13.0833 372.888 19.3333 377.555 27.5C382.388 35.5 384.805 45 384.805 56V135.5C384.805 146.5 382.388 156.083 377.555 164.25C372.888 172.25 366.221 178.5 357.555 183C348.888 187.333 338.638 189.5 326.805 189.5C315.138 189.5 304.971 187.333 296.305 183C287.638 178.5 280.888 172.25 276.055 164.25C271.221 156.083 268.805 146.5 268.805 135.5ZM408.957 187C404.79 187 402.707 184.917 402.707 180.75V10.75C402.707 6.58333 404.79 4.5 408.957 4.5H427.957C431.957 4.5 433.957 6.58333 433.957 10.75V79H455.457L488.207 9C489.54 6 491.874 4.5 495.207 4.5H515.957C518.29 4.5 519.874 5.25 520.707 6.75C521.707 8.08332 521.707 9.74999 520.707 11.75L482.957 91.5L522.707 179.75C523.707 181.75 523.707 183.5 522.707 185C521.874 186.333 520.29 187 517.957 187H496.457C492.957 187 490.54 185.417 489.207 182.25L455.207 106.25H433.957V180.75C433.957 184.917 431.957 187 427.957 187H408.957ZM586.359 189.5C574.859 189.5 564.609 187.5 555.609 183.5C546.609 179.5 539.359 174 533.859 167C528.359 159.833 525.026 151.5 523.859 142C523.693 139.833 524.109 138.25 525.109 137.25C526.276 136.083 527.859 135.5 529.859 135.5H548.609C551.943 135.5 554.109 137.417 555.109 141.25C556.609 147.75 560.109 152.917 565.609 156.75C571.276 160.583 578.193 162.5 586.359 162.5C596.026 162.5 603.776 159.917 609.609 154.75C615.609 149.417 618.609 142.5 618.609 134C618.609 125.5 615.609 118.667 609.609 113.5C603.776 108.167 596.026 105.5 586.359 105.5H571.609C567.609 105.5 565.609 103.417 565.609 99.25V85.25C565.609 81.0833 567.609 79 571.609 79H586.859C594.859 79 601.359 76.6667 606.359 72C611.359 67.1667 613.859 61 613.859 53.5C613.859 46 611.359 40 606.359 35.5C601.359 30.8333 594.943 28.5 587.109 28.5C579.943 28.5 573.859 30.5 568.859 34.5C564.026 38.3333 561.026 43.5833 559.859 50.25C559.193 54.0833 557.109 56 553.609 56H534.859C530.359 56 528.359 53.9167 528.859 49.75C529.859 40.25 532.943 31.9167 538.109 24.75C543.276 17.5833 550.026 12 558.359 7.99999C566.859 4 576.526 2 587.359 2C598.693 2 608.693 4.08333 617.359 8.24999C626.026 12.25 632.776 17.9167 637.609 25.25C642.609 32.5833 645.109 41.0833 645.109 50.75C645.109 60.5833 642.359 69.1667 636.859 76.5C631.526 83.8333 624.609 88.3333 616.109 90V90.75C626.276 92.75 634.526 98 640.859 106.5C647.193 114.833 650.359 124.667 650.359 136C650.359 146.667 647.609 156 642.109 164C636.776 172 629.276 178.25 619.609 182.75C610.109 187.25 599.026 189.5 586.359 189.5ZM718.512 189.5C701.012 189.5 687.095 184.5 676.762 174.5C666.595 164.5 661.512 150.667 661.512 133V58.5C661.512 40.8333 666.595 27 676.762 17C687.095 7 701.012 2 718.512 2C736.012 2 749.845 7 760.012 17C770.345 27 775.512 40.75 775.512 58.25V133C775.512 150.667 770.345 164.5 760.012 174.5C749.845 184.5 736.012 189.5 718.512 189.5ZM718.512 162C727.012 162 733.428 159.75 737.762 155.25C742.095 150.583 744.262 144 744.262 135.5V56C744.262 47.5 742.095 41 737.762 36.5C733.428 31.8333 727.012 29.5 718.512 29.5C710.012 29.5 703.595 31.8333 699.262 36.5C694.928 41 692.762 47.5 692.762 56V135.5C692.762 144 694.928 150.583 699.262 155.25C703.595 159.75 710.012 162 718.512 162ZM59 359.5C41.5 359.5 27.5833 354.5 17.25 344.5C7.08333 334.5 2 320.667 2 303V228.5C2 210.833 7.08333 197 17.25 187C27.5833 177 41.5 172 59 172C76.5 172 90.3333 177 100.5 187C110.833 197 116 210.75 116 228.25V303C116 320.667 110.833 334.5 100.5 344.5C90.3333 354.5 76.5 359.5 59 359.5ZM59 332C67.5 332 73.9167 329.75 78.25 325.25C82.5833 320.583 84.75 314 84.75 305.5V226C84.75 217.5 82.5833 211 78.25 206.5C73.9167 201.833 67.5 199.5 59 199.5C50.5 199.5 44.0833 201.833 39.75 206.5C35.4167 211 33.25 217.5 33.25 226V305.5C33.25 314 35.4167 320.583 39.75 325.25C44.0833 329.75 50.5 332 59 332ZM133.402 357V174.5H242.902V202.75H163.902V246.25H190.652C202.819 246.25 213.402 248.583 222.402 253.25C231.402 257.75 238.402 264.167 243.402 272.5C248.402 280.667 250.902 290.25 250.902 301.25C250.902 312.25 248.402 321.917 243.402 330.25C238.402 338.583 231.402 345.167 222.402 350C213.569 354.667 203.069 357 190.902 357H133.402ZM163.902 329.5H190.902C199.569 329.5 206.402 326.917 211.402 321.75C216.569 316.583 219.152 309.75 219.152 301.25C219.152 292.583 216.569 285.75 211.402 280.75C206.402 275.583 199.569 273 190.902 273H163.902V329.5ZM318.805 359.5C301.305 359.5 287.388 354.5 277.055 344.5C266.888 334.5 261.805 320.667 261.805 303V228.5C261.805 210.833 266.888 197 277.055 187C287.388 177 301.305 172 318.805 172C336.305 172 350.138 177 360.305 187C370.638 197 375.805 210.75 375.805 228.25V303C375.805 320.667 370.638 334.5 360.305 344.5C350.138 354.5 336.305 359.5 318.805 359.5ZM318.805 332C327.305 332 333.721 329.75 338.055 325.25C342.388 320.583 344.555 314 344.555 305.5V226C344.555 217.5 342.388 211 338.055 206.5C333.721 201.833 327.305 199.5 318.805 199.5C310.305 199.5 303.888 201.833 299.555 206.5C295.221 211 293.055 217.5 293.055 226V305.5C293.055 314 295.221 320.583 299.555 325.25C303.888 329.75 310.305 332 318.805 332ZM377.957 358.25V329.75H384.207C395.707 329.75 401.624 318.833 401.957 297L403.957 174.5H504.207V357H472.957V202.75H434.707L432.957 297C432.624 316.833 428.374 332 420.207 342.5C412.207 353 400.874 358.25 386.207 358.25H377.957ZM578.609 359.5C561.109 359.5 547.193 354.5 536.859 344.5C526.693 334.5 521.609 320.667 521.609 303V228.5C521.609 210.833 526.693 197 536.859 187C547.193 177 561.109 172 578.609 172C596.109 172 609.943 177 620.109 187C630.443 197 635.609 210.75 635.609 228.25V303C635.609 320.667 630.443 334.5 620.109 344.5C609.943 354.5 596.109 359.5 578.609 359.5ZM578.609 332C587.109 332 593.526 329.75 597.859 325.25C602.193 320.583 604.359 314 604.359 305.5V226C604.359 217.5 602.193 211 597.859 206.5C593.526 201.833 587.109 199.5 578.609 199.5C570.109 199.5 563.693 201.833 559.359 206.5C555.026 211 552.859 217.5 552.859 226V305.5C552.859 314 555.026 320.583 559.359 325.25C563.693 329.75 570.109 332 578.609 332ZM732.262 357V292.25H701.512C684.845 292.25 671.845 288.083 662.512 279.75C653.178 271.25 648.512 259.5 648.512 244.5V174.5H679.762V243C679.762 249.667 682.012 254.917 686.512 258.75C691.178 262.417 697.428 264.25 705.262 264.25H732.262V174.5H763.512V357H732.262ZM788.664 357C784.497 357 782.414 354.917 782.414 350.75V180.75C782.414 176.583 784.497 174.5 788.664 174.5H807.664C811.664 174.5 813.664 176.583 813.664 180.75V249H835.164L867.914 179C869.247 176 871.581 174.5 874.914 174.5H895.664C897.997 174.5 899.581 175.25 900.414 176.75C901.414 178.083 901.414 179.75 900.414 181.75L862.664 261.5L902.414 349.75C903.414 351.75 903.414 353.5 902.414 355C901.581 356.333 899.997 357 897.664 357H876.164C872.664 357 870.247 355.417 868.914 352.25L834.914 276.25H813.664V350.75C813.664 354.917 811.664 357 807.664 357H788.664ZM909.316 357C904.65 357 902.9 354.75 904.066 350.25L946.816 179.75C947.65 176.25 949.9 174.5 953.566 174.5H982.816C986.483 174.5 988.733 176.25 989.566 179.75L1032.57 350.25C1033.73 354.75 1031.98 357 1027.32 357H1008.07C1004.4 357 1002.23 355.167 1001.57 351.5L992.566 312.75H944.066L935.316 351.5C934.483 355.167 932.233 357 928.566 357H909.316ZM949.816 287.25H986.816L975.816 238.25C974.983 234.75 974.233 231.5 973.566 228.5C973.066 225.5 972.566 222.667 972.066 220C971.4 217 970.233 215.167 968.566 214.5C966.9 213.667 965.816 214.5 965.316 217C964.816 220.167 964.15 223.5 963.316 227C962.65 230.5 961.816 234.167 960.816 238L949.816 287.25Z"/>
</mask>
<path d="M268.805 135.5V133.5H266.805V135.5H268.805ZM300.305 135.5H302.305V133.5H300.305V135.5ZM307.055 155.25L305.615 156.638L305.64 156.664L305.666 156.69L307.055 155.25ZM346.555 155.25L347.943 156.69L347.956 156.677L347.969 156.664L346.555 155.25ZM353.555 106.5H355.555V104.5H353.555V106.5ZM301.055 106.5H299.055V108.5H301.055V106.5ZM301.055 78.25V76.25H299.055V78.25H301.055ZM353.555 78.25V80.25H355.555V78.25H353.555ZM346.555 36.5L345.14 37.9142L345.153 37.927L345.166 37.9397L346.555 36.5ZM307.055 36.5L305.64 35.0858L307.055 36.5ZM300.305 56V58H302.305V56H300.305ZM268.805 56H266.805V58H268.805V56ZM276.055 27.5L277.767 28.5342L277.771 28.5265L277.776 28.5186L276.055 27.5ZM296.305 8.74998L297.199 10.5388L297.213 10.532L297.226 10.525L296.305 8.74998ZM357.555 8.74998L356.633 10.525L356.647 10.532L356.66 10.5388L357.555 8.74998ZM377.555 27.5L375.818 28.4923L375.83 28.5134L375.843 28.5342L377.555 27.5ZM377.555 164.25L375.833 163.231L375.827 163.242L377.555 164.25ZM357.555 183L358.449 184.789L358.463 184.782L358.476 184.775L357.555 183ZM296.305 183L295.383 184.775L295.397 184.782L295.41 184.789L296.305 183ZM276.055 164.25L274.334 165.269L274.338 165.276L274.343 165.284L276.055 164.25ZM268.805 135.5V137.5H300.305V135.5V133.5H268.805V135.5ZM300.305 135.5H298.305C298.305 144.351 300.655 151.494 305.615 156.638L307.055 155.25L308.494 153.862C304.455 149.673 302.305 143.649 302.305 135.5H300.305ZM307.055 155.25L305.666 156.69C310.811 161.65 317.953 164 326.805 164V162V160C318.656 160 312.632 157.85 308.443 153.81L307.055 155.25ZM326.805 162V164C335.656 164 342.799 161.65 347.943 156.69L346.555 155.25L345.166 153.81C340.977 157.85 334.953 160 326.805 160V162ZM346.555 155.25L347.969 156.664C353.11 151.523 355.555 144.371 355.555 135.5H353.555H351.555C351.555 143.629 349.333 149.644 345.14 153.836L346.555 155.25ZM353.555 135.5H355.555V106.5H353.555H351.555V135.5H353.555ZM353.555 106.5V104.5H301.055V106.5V108.5H353.555V106.5ZM301.055 106.5H303.055V78.25H301.055H299.055V106.5H301.055ZM301.055 78.25V80.25H353.555V78.25V76.25H301.055V78.25ZM353.555 78.25H355.555V56H353.555H351.555V78.25H353.555ZM353.555 56H355.555C355.555 47.1335 353.112 40.0444 347.943 35.0603L346.555 36.5L345.166 37.9397C349.331 41.9556 351.555 47.8664 351.555 56H353.555ZM346.555 36.5L347.969 35.0858C342.828 29.9445 335.675 27.5 326.805 27.5V29.5V31.5C334.934 31.5 340.948 33.7222 345.14 37.9142L346.555 36.5ZM326.805 29.5V27.5C317.934 27.5 310.782 29.9445 305.64 35.0858L307.055 36.5L308.469 37.9142C312.661 33.7222 318.675 31.5 326.805 31.5V29.5ZM307.055 36.5L305.64 35.0858C300.653 40.0734 298.305 47.1534 298.305 56H300.305H302.305C302.305 47.8466 304.457 41.9266 308.469 37.9142L307.055 36.5ZM300.305 56V54H268.805V56V58H300.305V56ZM268.805 56H270.805C270.805 45.2993 273.153 36.1707 277.767 28.5342L276.055 27.5L274.343 26.4658C269.29 34.8293 266.805 44.7006 266.805 56H268.805ZM276.055 27.5L277.776 28.5186C282.409 20.6901 288.869 14.7041 297.199 10.5388L296.305 8.74998L295.41 6.96114C286.407 11.4626 279.367 17.9765 274.334 26.4814L276.055 27.5ZM296.305 8.74998L297.226 10.525C305.558 6.19899 315.397 4 326.805 4V2V0C314.879 0 304.385 2.30099 295.383 6.97499L296.305 8.74998ZM326.805 2V4C338.384 4 348.305 6.20097 356.633 10.525L357.555 8.74998L358.476 6.97499C349.471 2.29903 338.892 0 326.805 0V2ZM357.555 8.74998L356.66 10.5388C364.985 14.7012 371.354 20.6792 375.818 28.4923L377.555 27.5L379.291 26.5077C374.422 17.9874 367.458 11.4654 358.449 6.96114L357.555 8.74998ZM377.555 27.5L375.843 28.5342C380.457 36.1707 382.805 45.2993 382.805 56H384.805H386.805C386.805 44.7006 384.319 34.8293 379.267 26.4658L377.555 27.5ZM384.805 56H382.805V135.5H384.805H386.805V56H384.805ZM384.805 135.5H382.805C382.805 146.199 380.457 155.419 375.834 163.231L377.555 164.25L379.276 165.269C384.319 156.747 386.805 146.801 386.805 135.5H384.805ZM377.555 164.25L375.827 163.242C371.362 170.897 364.983 176.889 356.633 181.225L357.555 183L358.476 184.775C367.46 180.111 374.414 173.603 379.282 165.258L377.555 164.25ZM357.555 183L356.66 181.211C348.326 185.378 338.395 187.5 326.805 187.5V189.5V191.5C338.881 191.5 349.45 189.288 358.449 184.789L357.555 183ZM326.805 189.5V187.5C315.386 187.5 305.537 185.38 297.199 181.211L296.305 183L295.41 184.789C304.406 189.287 314.89 191.5 326.805 191.5V189.5ZM296.305 183L297.226 181.225C288.871 176.887 282.401 170.886 277.767 163.216L276.055 164.25L274.343 165.284C279.375 173.614 286.405 180.113 295.383 184.775L296.305 183ZM276.055 164.25L277.776 163.231C273.152 155.419 270.805 146.199 270.805 135.5H268.805H266.805C266.805 146.801 269.29 156.747 274.334 165.269L276.055 164.25ZM433.957 79H431.957V81H433.957V79ZM455.457 79V81H456.729L457.269 79.8475L455.457 79ZM488.207 9L490.019 9.84753L490.027 9.82999L490.035 9.81227L488.207 9ZM520.707 6.75L518.959 7.72128L519.025 7.8407L519.107 7.95L520.707 6.75ZM520.707 11.75L518.918 10.8556L518.909 10.8748L518.899 10.8943L520.707 11.75ZM482.957 91.5L481.149 90.6443L480.754 91.4792L481.133 92.3214L482.957 91.5ZM522.707 179.75L520.883 180.571L520.9 180.608L520.918 180.644L522.707 179.75ZM522.707 185L521.043 183.891L521.027 183.915L521.011 183.94L522.707 185ZM489.207 182.25L491.05 181.474L491.042 181.453L491.033 181.433L489.207 182.25ZM455.207 106.25L457.033 105.433L456.503 104.25H455.207V106.25ZM433.957 106.25V104.25H431.957V106.25H433.957ZM408.957 187V185C407.182 185 406.218 184.558 405.684 184.023C405.149 183.489 404.707 182.525 404.707 180.75H402.707H400.707C400.707 183.142 401.306 185.303 402.855 186.852C404.404 188.401 406.565 189 408.957 189V187ZM402.707 180.75H404.707V10.75H402.707H400.707V180.75H402.707ZM402.707 10.75H404.707C404.707 8.97495 405.149 8.01102 405.684 7.47672C406.218 6.9424 407.182 6.5 408.957 6.5V4.5V2.5C406.565 2.5 404.404 3.09926 402.855 4.64828C401.306 6.19731 400.707 8.35837 400.707 10.75H402.707ZM408.957 4.5V6.5H427.957V4.5V2.5H408.957V4.5ZM427.957 4.5V6.5C429.628 6.5 430.518 6.93074 431.014 7.44756C431.525 7.97961 431.957 8.95499 431.957 10.75H433.957H435.957C435.957 8.37833 435.389 6.22871 433.9 4.67743C432.396 3.11092 430.287 2.5 427.957 2.5V4.5ZM433.957 10.75H431.957V79H433.957H435.957V10.75H433.957ZM433.957 79V81H455.457V79V77H433.957V79ZM455.457 79L457.269 79.8475L490.019 9.84753L488.207 9L486.396 8.15245L453.646 78.1525L455.457 79ZM488.207 9L490.035 9.81227C490.572 8.60228 491.257 7.81009 492.039 7.30736C492.823 6.8033 493.846 6.5 495.207 6.5V4.5V2.5C493.235 2.5 491.425 2.94669 489.875 3.94264C488.324 4.9399 487.175 6.39772 486.379 8.18771L488.207 9ZM495.207 4.5V6.5H515.957V4.5V2.5H495.207V4.5ZM515.957 4.5V6.5C517.862 6.5 518.602 7.0795 518.959 7.72128L520.707 6.75L522.455 5.77872C521.145 3.42049 518.719 2.5 515.957 2.5V4.5ZM520.707 6.75L519.107 7.95C519.496 8.46846 519.714 9.26299 518.918 10.8556L520.707 11.75L522.496 12.6444C523.7 10.237 523.918 7.69818 522.307 5.54999L520.707 6.75ZM520.707 11.75L518.899 10.8943L481.149 90.6443L482.957 91.5L484.765 92.3557L522.515 12.6057L520.707 11.75ZM482.957 91.5L481.133 92.3214L520.883 180.571L522.707 179.75L524.531 178.929L484.781 90.6786L482.957 91.5ZM522.707 179.75L520.918 180.644C521.688 182.183 521.544 183.139 521.043 183.891L522.707 185L524.371 186.109C525.87 183.861 525.727 181.317 524.496 178.856L522.707 179.75ZM522.707 185L521.011 183.94C520.7 184.438 519.96 185 517.957 185V187V189C520.621 189 523.048 188.229 524.403 186.06L522.707 185ZM517.957 187V185H496.457V187V189H517.957V187ZM496.457 187V185C495.013 185 493.935 184.676 493.116 184.14C492.299 183.604 491.592 182.761 491.05 181.474L489.207 182.25L487.364 183.026C488.155 184.905 489.324 186.437 490.923 187.485C492.521 188.532 494.401 189 496.457 189V187ZM489.207 182.25L491.033 181.433L457.033 105.433L455.207 106.25L453.381 107.067L487.381 183.067L489.207 182.25ZM455.207 106.25V104.25H433.957V106.25V108.25H455.207V106.25ZM433.957 106.25H431.957V180.75H433.957H435.957V106.25H433.957ZM433.957 180.75H431.957C431.957 182.545 431.525 183.52 431.014 184.052C430.518 184.569 429.628 185 427.957 185V187V189C430.287 189 432.396 188.389 433.9 186.823C435.389 185.271 435.957 183.122 435.957 180.75H433.957ZM427.957 187V185H408.957V187V189H427.957V187ZM555.609 183.5L554.797 185.328L555.609 183.5ZM533.859 167L532.273 168.218L532.28 168.227L532.287 168.236L533.859 167ZM523.859 142L521.865 142.153L521.869 142.199L521.874 142.244L523.859 142ZM525.109 137.25L523.695 135.836V135.836L525.109 137.25ZM555.109 141.25L557.058 140.8L557.052 140.773L557.045 140.745L555.109 141.25ZM565.609 156.75L564.466 158.391L564.477 158.399L564.489 158.407L565.609 156.75ZM609.609 154.75L610.935 156.247L610.938 156.245L609.609 154.75ZM609.609 113.5L608.26 114.976L608.282 114.996L608.304 115.016L609.609 113.5ZM606.359 72L607.724 73.4621L607.737 73.4501L607.749 73.438L606.359 72ZM606.359 35.5L604.995 36.9621L605.008 36.9745L605.021 36.9866L606.359 35.5ZM568.859 34.5L570.102 36.067L570.109 36.0617L568.859 34.5ZM559.859 50.25L557.889 49.9052L557.889 49.9073L559.859 50.25ZM528.859 49.75L530.845 49.9883L530.847 49.9738L530.848 49.9594L528.859 49.75ZM538.109 24.75L536.487 23.5804V23.5804L538.109 24.75ZM558.359 8L557.508 6.19035L557.501 6.19362L557.494 6.19695L558.359 8ZM617.359 8.24998L616.493 10.0525L616.507 10.0593L616.521 10.0659L617.359 8.24998ZM637.609 25.25L635.939 26.3506L635.948 26.3637L635.957 26.3767L637.609 25.25ZM636.859 76.5L635.259 75.3L635.251 75.3118L635.242 75.3236L636.859 76.5ZM616.109 90L615.725 88.0374L614.109 88.3541V90H616.109ZM616.109 90.75H614.109V92.3949L615.723 92.7124L616.109 90.75ZM640.859 106.5L639.256 107.695L639.261 107.703L639.267 107.71L640.859 106.5ZM642.109 164L640.461 162.867L640.453 162.879L640.445 162.891L642.109 164ZM619.609 182.75L618.765 180.937L618.753 180.943L619.609 182.75ZM586.359 189.5V187.5C575.093 187.5 565.127 185.541 556.422 181.672L555.609 183.5L554.797 185.328C564.092 189.459 574.626 191.5 586.359 191.5V189.5ZM555.609 183.5L556.422 181.672C547.687 177.79 540.71 172.482 535.432 165.764L533.859 167L532.287 168.236C538.009 175.518 545.531 181.21 554.797 185.328L555.609 183.5ZM533.859 167L535.446 165.782C530.176 158.916 526.97 150.924 525.844 141.756L523.859 142L521.874 142.244C523.082 152.076 526.542 160.751 532.273 168.218L533.859 167ZM523.859 142L525.853 141.847C525.708 139.949 526.116 139.072 526.524 138.664L525.109 137.25L523.695 135.836C522.103 137.428 521.678 139.718 521.865 142.153L523.859 142ZM525.109 137.25L526.524 138.664C527.238 137.95 528.27 137.5 529.859 137.5V135.5V133.5C527.449 133.5 525.314 134.217 523.695 135.836L525.109 137.25ZM529.859 135.5V137.5H548.609V135.5V133.5H529.859V135.5ZM548.609 135.5V137.5C549.867 137.5 550.747 137.849 551.409 138.435C552.104 139.05 552.738 140.085 553.174 141.755L555.109 141.25L557.045 140.745C556.48 138.582 555.532 136.742 554.06 135.439C552.555 134.109 550.685 133.5 548.609 133.5V135.5ZM555.109 141.25L553.161 141.7C554.773 148.685 558.561 154.276 564.466 158.391L565.609 156.75L566.753 155.109C561.657 151.558 558.446 146.815 557.058 140.8L555.109 141.25ZM565.609 156.75L564.489 158.407C570.546 162.504 577.872 164.5 586.359 164.5V162.5V160.5C578.513 160.5 572.006 158.663 566.73 155.093L565.609 156.75ZM586.359 162.5V164.5C596.392 164.5 604.654 161.811 610.935 156.247L609.609 154.75L608.283 153.253C602.898 158.023 595.66 160.5 586.359 160.5V162.5ZM609.609 154.75L610.938 156.245C617.393 150.507 620.609 143.033 620.609 134H618.609H616.609C616.609 141.967 613.826 148.326 608.281 153.255L609.609 154.75ZM618.609 134H620.609C620.609 124.966 617.391 117.562 610.914 111.984L609.609 113.5L608.304 115.016C613.828 119.772 616.609 126.034 616.609 134H618.609ZM609.609 113.5L610.959 112.024C604.679 106.282 596.409 103.5 586.359 103.5V105.5V107.5C595.643 107.5 602.873 110.051 608.26 114.976L609.609 113.5ZM586.359 105.5V103.5H571.609V105.5V107.5H586.359V105.5ZM571.609 105.5V103.5C569.939 103.5 569.048 103.069 568.552 102.552C568.041 102.02 567.609 101.045 567.609 99.25H565.609H563.609C563.609 101.622 564.177 103.771 565.667 105.323C567.17 106.889 569.28 107.5 571.609 107.5V105.5ZM565.609 99.25H567.609V85.25H565.609H563.609V99.25H565.609ZM565.609 85.25H567.609C567.609 83.455 568.041 82.4796 568.552 81.9476C569.048 81.4307 569.939 81 571.609 81V79V77C569.28 77 567.17 77.6109 565.667 79.1774C564.177 80.7287 563.609 82.8783 563.609 85.25H565.609ZM571.609 79V81H586.859V79V77H571.609V79ZM586.859 79V81C595.274 81 602.292 78.5323 607.724 73.4621L606.359 72L604.995 70.5379C600.427 74.801 594.445 77 586.859 77V79ZM606.359 72L607.749 73.438C613.172 68.1962 615.859 61.4949 615.859 53.5H613.859H611.859C611.859 60.5051 609.547 66.1372 604.969 70.562L606.359 72ZM613.859 53.5H615.859C615.859 45.5056 613.17 38.9387 607.697 34.0134L606.359 35.5L605.021 36.9866C609.549 41.0613 611.859 46.4944 611.859 53.5H613.859ZM606.359 35.5L607.724 34.0379C602.3 28.9751 595.37 26.5 587.109 26.5V28.5V30.5C594.515 30.5 600.419 32.6915 604.995 36.9621L606.359 35.5ZM587.109 28.5V26.5C579.546 26.5 573.007 28.6207 567.61 32.9383L568.859 34.5L570.109 36.0617C574.712 32.3793 580.34 30.5 587.109 30.5V28.5ZM568.859 34.5L567.617 32.933C562.361 37.1014 559.132 42.8065 557.889 49.9052L559.859 50.25L561.829 50.5947C562.92 44.3602 565.691 39.5653 570.102 36.067L568.859 34.5ZM559.859 50.25L557.889 49.9073C557.603 51.5501 557.058 52.5245 556.443 53.0906C555.852 53.6337 554.982 54 553.609 54V56V58C555.737 58 557.658 57.4079 559.151 56.0343C560.619 54.6838 561.449 52.7832 561.83 50.5927L559.859 50.25ZM553.609 56V54H534.859V56V58H553.609V56ZM534.859 56V54C532.856 54 531.884 53.5287 531.427 53.0524C531.004 52.6115 530.633 51.7552 530.845 49.9883L528.859 49.75L526.874 49.5117C526.586 51.9114 526.965 54.1801 528.542 55.8226C530.084 57.4296 532.362 58 534.859 58V56ZM528.859 49.75L530.848 49.9594C531.815 40.7769 534.785 32.7808 539.732 25.9196L538.109 24.75L536.487 23.5804C531.1 31.0525 527.904 39.7231 526.87 49.5406L528.859 49.75ZM538.109 24.75L539.732 25.9196C544.694 19.0367 551.178 13.6654 559.225 9.80304L558.359 8L557.494 6.19695C548.874 10.3346 541.858 16.13 536.487 23.5804L538.109 24.75ZM558.359 8L559.211 9.80963C567.407 5.95284 576.775 4 587.359 4V2V0C576.277 0 566.312 2.04715 557.508 6.19035L558.359 8ZM587.359 2V4C598.446 4 608.141 6.03706 616.493 10.0525L617.359 8.24998L618.226 6.44748C609.245 2.12961 598.94 0 587.359 0V2ZM617.359 8.24998L616.521 10.0659C624.88 13.9237 631.329 19.3555 635.939 26.3506L637.609 25.25L639.279 24.1494C634.223 16.4778 627.172 10.5762 618.198 6.43407L617.359 8.24998ZM637.609 25.25L635.957 26.3767C640.71 33.3482 643.109 41.4478 643.109 50.75H645.109H647.109C647.109 40.7189 644.509 31.8184 639.262 24.1233L637.609 25.25ZM645.109 50.75H643.109C643.109 60.184 640.48 68.3387 635.259 75.3L636.859 76.5L638.459 77.7C644.238 69.9946 647.109 60.9826 647.109 50.75H645.109ZM636.859 76.5L635.242 75.3236C630.19 82.2698 623.704 86.4727 615.725 88.0374L616.109 90L616.494 91.9626C625.515 90.1939 632.862 85.3969 638.477 77.6763L636.859 76.5ZM616.109 90H614.109V90.75H616.109H618.109V90H616.109ZM616.109 90.75L615.723 92.7124C625.391 94.6142 633.211 99.5829 639.256 107.695L640.859 106.5L642.463 105.305C635.841 96.4171 627.161 90.8858 616.495 88.7876L616.109 90.75ZM640.859 106.5L639.267 107.71C645.314 115.666 648.359 125.065 648.359 136H650.359H652.359C652.359 124.268 649.072 114.001 642.452 105.29L640.859 106.5ZM650.359 136H648.359C648.359 146.304 645.71 155.233 640.461 162.867L642.109 164L643.757 165.133C649.509 156.767 652.359 147.03 652.359 136H650.359ZM642.109 164L640.445 162.891C635.337 170.553 628.137 176.574 618.765 180.937L619.609 182.75L620.453 184.563C630.416 179.926 638.215 173.447 643.773 165.109L642.109 164ZM619.609 182.75L618.753 180.943C609.57 185.292 598.79 187.5 586.359 187.5V189.5V191.5C599.262 191.5 610.649 189.208 620.466 184.557L619.609 182.75ZM676.762 174.5L675.359 175.926L675.365 175.932L675.371 175.937L676.762 174.5ZM676.762 17L675.371 15.5628L675.365 15.5685L675.359 15.5741L676.762 17ZM760.012 17L758.609 18.4259L758.615 18.4315L758.621 18.4372L760.012 17ZM760.012 174.5L758.621 173.063L758.615 173.068L758.609 173.074L760.012 174.5ZM737.762 155.25L739.202 156.637L739.215 156.624L739.227 156.611L737.762 155.25ZM737.762 36.5L736.296 37.8609L736.308 37.8742L736.321 37.8873L737.762 36.5ZM699.262 36.5L700.702 37.8873L700.715 37.8742L700.727 37.8609L699.262 36.5ZM699.262 155.25L697.796 156.611L697.808 156.624L697.821 156.637L699.262 155.25ZM718.512 189.5V187.5C701.411 187.5 688.035 182.627 678.153 173.063L676.762 174.5L675.371 175.937C686.155 186.373 700.612 191.5 718.512 191.5V189.5ZM676.762 174.5L678.164 173.074C668.467 163.536 663.512 150.267 663.512 133H661.512H659.512C659.512 151.067 664.723 165.464 675.359 175.926L676.762 174.5ZM661.512 133H663.512V58.5H661.512H659.512V133H661.512ZM661.512 58.5H663.512C663.512 41.2335 668.467 27.9641 678.164 18.4259L676.762 17L675.359 15.5741C664.723 26.0359 659.512 40.4332 659.512 58.5H661.512ZM676.762 17L678.153 18.4372C688.035 8.87347 701.411 4 718.512 4V2V0C700.612 0 686.155 5.12651 675.371 15.5628L676.762 17ZM718.512 2V4C735.613 4 748.898 8.87379 758.609 18.4259L760.012 17L761.414 15.5741C750.792 5.12619 736.41 0 718.512 0V2ZM760.012 17L758.621 18.4372C768.483 27.981 773.512 41.1659 773.512 58.25H775.512H777.512C777.512 40.3341 772.207 26.019 761.403 15.5628L760.012 17ZM775.512 58.25H773.512V133H775.512H777.512V58.25H775.512ZM775.512 133H773.512C773.512 150.257 768.479 163.523 758.621 173.063L760.012 174.5L761.403 175.937C772.211 165.477 777.512 151.076 777.512 133H775.512ZM760.012 174.5L758.609 173.074C748.898 182.626 735.613 187.5 718.512 187.5V189.5V191.5C736.41 191.5 750.792 186.374 761.414 175.926L760.012 174.5ZM718.512 162V164C727.353 164 734.372 161.654 739.202 156.637L737.762 155.25L736.321 153.863C732.485 157.846 726.67 160 718.512 160V162ZM737.762 155.25L739.227 156.611C744.006 151.465 746.262 144.332 746.262 135.5H744.262H742.262C742.262 143.668 740.184 149.702 736.296 153.889L737.762 155.25ZM744.262 135.5H746.262V56H744.262H742.262V135.5H744.262ZM744.262 56H746.262C746.262 47.1729 744.008 40.103 739.202 35.1127L737.762 36.5L736.321 37.8873C740.182 41.897 742.262 47.8271 742.262 56H744.262ZM737.762 36.5L739.227 35.1391C734.401 29.9414 727.373 27.5 718.512 27.5V29.5V31.5C726.65 31.5 732.456 33.7253 736.296 37.8609L737.762 36.5ZM718.512 29.5V27.5C709.65 27.5 702.623 29.9414 697.796 35.1391L699.262 36.5L700.727 37.8609C704.568 33.7253 710.373 31.5 718.512 31.5V29.5ZM699.262 36.5L697.821 35.1127C693.016 40.103 690.762 47.1729 690.762 56H692.762H694.762C694.762 47.8271 696.841 41.897 700.702 37.8873L699.262 36.5ZM692.762 56H690.762V135.5H692.762H694.762V56H692.762ZM692.762 135.5H690.762C690.762 144.332 693.018 151.465 697.796 156.611L699.262 155.25L700.727 153.889C696.839 149.702 694.762 143.668 694.762 135.5H692.762ZM699.262 155.25L697.821 156.637C702.652 161.654 709.67 164 718.512 164V162V160C710.353 160 704.538 157.846 700.702 153.863L699.262 155.25ZM17.25 344.5L15.8475 345.926L15.8533 345.932L15.8592 345.937L17.25 344.5ZM17.25 187L15.8592 185.563L15.8533 185.568L15.8475 185.574L17.25 187ZM100.5 187L99.0975 188.426L99.1033 188.432L99.1092 188.437L100.5 187ZM100.5 344.5L99.1092 343.063L99.1033 343.068L99.0975 343.074L100.5 344.5ZM78.25 325.25L79.6906 326.637L79.7032 326.624L79.7156 326.611L78.25 325.25ZM78.25 206.5L76.7844 207.861L76.7968 207.874L76.8094 207.887L78.25 206.5ZM39.75 206.5L41.1906 207.887L41.2032 207.874L41.2156 207.861L39.75 206.5ZM39.75 325.25L38.2844 326.611L38.2968 326.624L38.3094 326.637L39.75 325.25ZM59 359.5V357.5C41.8997 357.5 28.5234 352.627 18.6408 343.063L17.25 344.5L15.8592 345.937C26.6433 356.373 41.1003 361.5 59 361.5V359.5ZM17.25 344.5L18.6525 343.074C8.95522 333.536 4 320.267 4 303H2H0C0 321.067 5.21146 335.464 15.8475 345.926L17.25 344.5ZM2 303H4V228.5H2H0V303H2ZM2 228.5H4C4 211.233 8.95522 197.964 18.6525 188.426L17.25 187L15.8475 185.574C5.21146 196.036 0 210.433 0 228.5H2ZM17.25 187L18.6408 188.437C28.5234 178.873 41.8997 174 59 174V172V170C41.1003 170 26.6433 175.127 15.8592 185.563L17.25 187ZM59 172V174C76.1016 174 89.3863 178.874 99.0975 188.426L100.5 187L101.902 185.574C91.2804 175.126 76.8984 170 59 170V172ZM100.5 187L99.1092 188.437C108.971 197.981 114 211.166 114 228.25H116H118C118 210.334 112.696 196.019 101.891 185.563L100.5 187ZM116 228.25H114V303H116H118V228.25H116ZM116 303H114C114 320.257 108.967 333.523 99.1092 343.063L100.5 344.5L101.891 345.937C112.699 335.477 118 321.076 118 303H116ZM100.5 344.5L99.0975 343.074C89.3863 352.626 76.1016 357.5 59 357.5V359.5V361.5C76.8984 361.5 91.2804 356.374 101.902 345.926L100.5 344.5ZM59 332V334C67.8413 334 74.8599 331.654 79.6906 326.637L78.25 325.25L76.8094 323.863C72.9734 327.846 67.1587 330 59 330V332ZM78.25 325.25L79.7156 326.611C84.4942 321.465 86.75 314.332 86.75 305.5H84.75H82.75C82.75 313.668 80.6725 319.702 76.7844 323.889L78.25 325.25ZM84.75 305.5H86.75V226H84.75H82.75V305.5H84.75ZM84.75 226H86.75C86.75 217.173 84.4961 210.103 79.6906 205.113L78.25 206.5L76.8094 207.887C80.6706 211.897 82.75 217.827 82.75 226H84.75ZM78.25 206.5L79.7156 205.139C74.8892 199.941 67.8616 197.5 59 197.5V199.5V201.5C67.1384 201.5 72.9442 203.725 76.7844 207.861L78.25 206.5ZM59 199.5V197.5C50.1384 197.5 43.1108 199.941 38.2844 205.139L39.75 206.5L41.2156 207.861C45.0558 203.725 50.8616 201.5 59 201.5V199.5ZM39.75 206.5L38.3094 205.113C33.5039 210.103 31.25 217.173 31.25 226H33.25H35.25C35.25 217.827 37.3294 211.897 41.1906 207.887L39.75 206.5ZM33.25 226H31.25V305.5H33.25H35.25V226H33.25ZM33.25 305.5H31.25C31.25 314.332 33.5058 321.465 38.2844 326.611L39.75 325.25L41.2156 323.889C37.3275 319.702 35.25 313.668 35.25 305.5H33.25ZM39.75 325.25L38.3094 326.637C43.1401 331.654 50.1587 334 59 334V332V330C50.8413 330 45.0266 327.846 41.1906 323.863L39.75 325.25ZM133.402 357H131.402V359H133.402V357ZM133.402 174.5V172.5H131.402V174.5H133.402ZM242.902 174.5H244.902V172.5H242.902V174.5ZM242.902 202.75V204.75H244.902V202.75H242.902ZM163.902 202.75V200.75H161.902V202.75H163.902ZM163.902 246.25H161.902V248.25H163.902V246.25ZM222.402 253.25L221.482 255.026L221.495 255.032L221.508 255.039L222.402 253.25ZM243.402 272.5L241.687 273.529L241.692 273.537L241.697 273.544L243.402 272.5ZM243.402 330.25L241.687 329.221V329.221L243.402 330.25ZM222.402 350L223.337 351.768L223.349 351.762L222.402 350ZM163.902 329.5H161.902V331.5H163.902V329.5ZM211.402 321.75L209.988 320.336L209.977 320.347L209.965 320.359L211.402 321.75ZM211.402 280.75L209.965 282.141L209.988 282.164L210.012 282.187L211.402 280.75ZM163.902 273V271H161.902V273H163.902ZM133.402 357H135.402V174.5H133.402H131.402V357H133.402ZM133.402 174.5V176.5H242.902V174.5V172.5H133.402V174.5ZM242.902 174.5H240.902V202.75H242.902H244.902V174.5H242.902ZM242.902 202.75V200.75H163.902V202.75V204.75H242.902V202.75ZM163.902 202.75H161.902V246.25H163.902H165.902V202.75H163.902ZM163.902 246.25V248.25H190.652V246.25V244.25H163.902V246.25ZM190.652 246.25V248.25C202.562 248.25 212.818 250.533 221.482 255.026L222.402 253.25L223.323 251.474C213.987 246.634 203.076 244.25 190.652 244.25V246.25ZM222.402 253.25L221.508 255.039C230.18 259.375 236.89 265.534 241.687 273.529L243.402 272.5L245.117 271.471C239.914 262.8 232.624 256.125 223.297 251.461L222.402 253.25ZM243.402 272.5L241.697 273.544C246.477 281.352 248.902 290.563 248.902 301.25H250.902H252.902C252.902 289.937 250.328 279.981 245.108 271.456L243.402 272.5ZM250.902 301.25H248.902C248.902 311.936 246.477 321.238 241.687 329.221L243.402 330.25L245.117 331.279C250.327 322.595 252.902 312.564 252.902 301.25H250.902ZM243.402 330.25L241.687 329.221C236.883 337.229 230.155 343.566 221.456 348.238L222.402 350L223.349 351.762C232.649 346.767 239.922 339.938 245.117 331.279L243.402 330.25ZM222.402 350L221.468 348.232C212.979 352.716 202.814 355 190.902 355V357V359C203.324 359 214.159 356.617 223.337 351.768L222.402 350ZM190.902 357V355H133.402V357V359H190.902V357ZM163.902 329.5V331.5H190.902V329.5V327.5H163.902V329.5ZM190.902 329.5V331.5C199.991 331.5 207.387 328.775 212.84 323.141L211.402 321.75L209.965 320.359C205.418 325.058 199.147 327.5 190.902 327.5V329.5ZM211.402 321.75L212.817 323.164C218.42 317.561 221.152 310.187 221.152 301.25H219.152H217.152C217.152 309.313 214.718 315.606 209.988 320.336L211.402 321.75ZM219.152 301.25H221.152C221.152 292.161 218.427 284.765 212.793 279.313L211.402 280.75L210.012 282.187C214.711 286.735 217.152 293.006 217.152 301.25H219.152ZM211.402 280.75L212.84 279.359C207.387 273.725 199.991 271 190.902 271V273V275C199.147 275 205.418 277.442 209.965 282.141L211.402 280.75ZM190.902 273V271H163.902V273V275H190.902V273ZM163.902 273H161.902V329.5H163.902H165.902V273H163.902ZM277.055 344.5L275.652 345.926L275.658 345.932L275.664 345.937L277.055 344.5ZM277.055 187L275.664 185.563L275.658 185.568L275.652 185.574L277.055 187ZM360.305 187L358.902 188.426L358.908 188.432L358.914 188.437L360.305 187ZM360.305 344.5L358.914 343.063L358.908 343.068L358.902 343.074L360.305 344.5ZM338.055 325.25L339.495 326.637L339.508 326.624L339.52 326.611L338.055 325.25ZM338.055 206.5L336.589 207.861L336.601 207.874L336.614 207.887L338.055 206.5ZM299.555 206.5L300.995 207.887L301.008 207.874L301.02 207.861L299.555 206.5ZM299.555 325.25L298.089 326.611L298.101 326.624L298.114 326.637L299.555 325.25ZM318.805 359.5V357.5C301.704 357.5 288.328 352.627 278.446 343.063L277.055 344.5L275.664 345.937C286.448 356.373 300.905 361.5 318.805 361.5V359.5ZM277.055 344.5L278.457 343.074C268.76 333.536 263.805 320.267 263.805 303H261.805H259.805C259.805 321.067 265.016 335.464 275.652 345.926L277.055 344.5ZM261.805 303H263.805V228.5H261.805H259.805V303H261.805ZM261.805 228.5H263.805C263.805 211.233 268.76 197.964 278.457 188.426L277.055 187L275.652 185.574C265.016 196.036 259.805 210.433 259.805 228.5H261.805ZM277.055 187L278.446 188.437C288.328 178.873 301.704 174 318.805 174V172V170C300.905 170 286.448 175.127 275.664 185.563L277.055 187ZM318.805 172V174C335.906 174 349.191 178.874 358.902 188.426L360.305 187L361.707 185.574C351.085 175.126 336.703 170 318.805 170V172ZM360.305 187L358.914 188.437C368.776 197.981 373.805 211.166 373.805 228.25H375.805H377.805C377.805 210.334 372.5 196.019 361.696 185.563L360.305 187ZM375.805 228.25H373.805V303H375.805H377.805V228.25H375.805ZM375.805 303H373.805C373.805 320.257 368.772 333.523 358.914 343.063L360.305 344.5L361.696 345.937C372.504 335.477 377.805 321.076 377.805 303H375.805ZM360.305 344.5L358.902 343.074C349.191 352.626 335.906 357.5 318.805 357.5V359.5V361.5C336.703 361.5 351.085 356.374 361.707 345.926L360.305 344.5ZM318.805 332V334C327.646 334 334.665 331.654 339.495 326.637L338.055 325.25L336.614 323.863C332.778 327.846 326.963 330 318.805 330V332ZM338.055 325.25L339.52 326.611C344.299 321.465 346.555 314.332 346.555 305.5H344.555H342.555C342.555 313.668 340.477 319.702 336.589 323.889L338.055 325.25ZM344.555 305.5H346.555V226H344.555H342.555V305.5H344.555ZM344.555 226H346.555C346.555 217.173 344.301 210.103 339.495 205.113L338.055 206.5L336.614 207.887C340.475 211.897 342.555 217.827 342.555 226H344.555ZM338.055 206.5L339.52 205.139C334.694 199.941 327.666 197.5 318.805 197.5V199.5V201.5C326.943 201.5 332.749 203.725 336.589 207.861L338.055 206.5ZM318.805 199.5V197.5C309.943 197.5 302.916 199.941 298.089 205.139L299.555 206.5L301.02 207.861C304.861 203.725 310.666 201.5 318.805 201.5V199.5ZM299.555 206.5L298.114 205.113C293.309 210.103 291.055 217.173 291.055 226H293.055H295.055C295.055 217.827 297.134 211.897 300.995 207.887L299.555 206.5ZM293.055 226H291.055V305.5H293.055H295.055V226H293.055ZM293.055 305.5H291.055C291.055 314.332 293.311 321.465 298.089 326.611L299.555 325.25L301.02 323.889C297.132 319.702 295.055 313.668 295.055 305.5H293.055ZM299.555 325.25L298.114 326.637C302.945 331.654 309.963 334 318.805 334V332V330C310.646 330 304.831 327.846 300.995 323.863L299.555 325.25ZM377.957 358.25H375.957V360.25H377.957V358.25ZM377.957 329.75V327.75H375.957V329.75H377.957ZM401.957 297L399.957 296.967V296.969L401.957 297ZM403.957 174.5V172.5H401.989L401.957 174.467L403.957 174.5ZM504.207 174.5H506.207V172.5H504.207V174.5ZM504.207 357V359H506.207V357H504.207ZM472.957 357H470.957V359H472.957V357ZM472.957 202.75H474.957V200.75H472.957V202.75ZM434.707 202.75V200.75H432.744L432.707 202.713L434.707 202.75ZM432.957 297L430.957 296.963L430.957 296.966L432.957 297ZM420.207 342.5L418.628 341.272L418.622 341.28L418.616 341.288L420.207 342.5ZM377.957 358.25H379.957V329.75H377.957H375.957V358.25H377.957ZM377.957 329.75V331.75H384.207V329.75V327.75H377.957V329.75ZM384.207 329.75V331.75C387.412 331.75 390.315 330.985 392.847 329.398C395.372 327.816 397.419 325.485 399.028 322.516C402.216 316.633 403.788 308.059 403.957 297.031L401.957 297L399.957 296.969C399.792 307.774 398.24 315.575 395.511 320.609C394.162 323.098 392.553 324.862 390.723 326.008C388.901 327.15 386.752 327.75 384.207 327.75V329.75ZM401.957 297L403.957 297.033L405.957 174.533L403.957 174.5L401.957 174.467L399.957 296.967L401.957 297ZM403.957 174.5V176.5H504.207V174.5V172.5H403.957V174.5ZM504.207 174.5H502.207V357H504.207H506.207V174.5H504.207ZM504.207 357V355H472.957V357V359H504.207V357ZM472.957 357H474.957V202.75H472.957H470.957V357H472.957ZM472.957 202.75V200.75H434.707V202.75V204.75H472.957V202.75ZM434.707 202.75L432.707 202.713L430.957 296.963L432.957 297L434.957 297.037L436.707 202.787L434.707 202.75ZM432.957 297L430.957 296.966C430.628 316.569 426.427 331.245 418.628 341.272L420.207 342.5L421.786 343.728C430.321 332.755 434.62 317.097 434.957 297.034L432.957 297ZM420.207 342.5L418.616 341.288C411.04 351.231 400.329 356.25 386.207 356.25V358.25V360.25C401.418 360.25 413.374 354.769 421.798 343.712L420.207 342.5ZM386.207 358.25V356.25H377.957V358.25V360.25H386.207V358.25ZM536.859 344.5L535.457 345.926L535.463 345.932L535.469 345.937L536.859 344.5ZM536.859 187L535.469 185.563L535.463 185.568L535.457 185.574L536.859 187ZM620.109 187L618.707 188.426L618.713 188.432L618.719 188.437L620.109 187ZM620.109 344.5L618.719 343.063L618.713 343.068L618.707 343.074L620.109 344.5ZM597.859 325.25L599.3 326.637L599.313 326.624L599.325 326.611L597.859 325.25ZM597.859 206.5L596.394 207.861L596.406 207.874L596.419 207.887L597.859 206.5ZM559.359 206.5L560.8 207.887L560.813 207.874L560.825 207.861L559.359 206.5ZM559.359 325.25L557.894 326.611L557.906 326.624L557.919 326.637L559.359 325.25ZM578.609 359.5V357.5C561.509 357.5 548.133 352.627 538.25 343.063L536.859 344.5L535.469 345.937C546.253 356.373 560.71 361.5 578.609 361.5V359.5ZM536.859 344.5L538.262 343.074C528.565 333.536 523.609 320.267 523.609 303H521.609H519.609C519.609 321.067 524.821 335.464 535.457 345.926L536.859 344.5ZM521.609 303H523.609V228.5H521.609H519.609V303H521.609ZM521.609 228.5H523.609C523.609 211.233 528.565 197.964 538.262 188.426L536.859 187L535.457 185.574C524.821 196.036 519.609 210.433 519.609 228.5H521.609ZM536.859 187L538.25 188.437C548.133 178.873 561.509 174 578.609 174V172V170C560.71 170 546.253 175.127 535.469 185.563L536.859 187ZM578.609 172V174C595.711 174 608.996 178.874 618.707 188.426L620.109 187L621.512 185.574C610.89 175.126 596.508 170 578.609 170V172ZM620.109 187L618.719 188.437C628.581 197.981 633.609 211.166 633.609 228.25H635.609H637.609C637.609 210.334 632.305 196.019 621.5 185.563L620.109 187ZM635.609 228.25H633.609V303H635.609H637.609V228.25H635.609ZM635.609 303H633.609C633.609 320.257 628.577 333.523 618.719 343.063L620.109 344.5L621.5 345.937C632.309 335.477 637.609 321.076 637.609 303H635.609ZM620.109 344.5L618.707 343.074C608.996 352.626 595.711 357.5 578.609 357.5V359.5V361.5C596.508 361.5 610.89 356.374 621.512 345.926L620.109 344.5ZM578.609 332V334C587.451 334 594.469 331.654 599.3 326.637L597.859 325.25L596.419 323.863C592.583 327.846 586.768 330 578.609 330V332ZM597.859 325.25L599.325 326.611C604.104 321.465 606.359 314.332 606.359 305.5H604.359H602.359C602.359 313.668 600.282 319.702 596.394 323.889L597.859 325.25ZM604.359 305.5H606.359V226H604.359H602.359V305.5H604.359ZM604.359 226H606.359C606.359 217.173 604.105 210.103 599.3 205.113L597.859 206.5L596.419 207.887C600.28 211.897 602.359 217.827 602.359 226H604.359ZM597.859 206.5L599.325 205.139C594.499 199.941 587.471 197.5 578.609 197.5V199.5V201.5C586.748 201.5 592.554 203.725 596.394 207.861L597.859 206.5ZM578.609 199.5V197.5C569.748 197.5 562.72 199.941 557.894 205.139L559.359 206.5L560.825 207.861C564.665 203.725 570.471 201.5 578.609 201.5V199.5ZM559.359 206.5L557.919 205.113C553.113 210.103 550.859 217.173 550.859 226H552.859H554.859C554.859 217.827 556.939 211.897 560.8 207.887L559.359 206.5ZM552.859 226H550.859V305.5H552.859H554.859V226H552.859ZM552.859 305.5H550.859C550.859 314.332 553.115 321.465 557.894 326.611L559.359 325.25L560.825 323.889C556.937 319.702 554.859 313.668 554.859 305.5H552.859ZM559.359 325.25L557.919 326.637C562.749 331.654 569.768 334 578.609 334V332V330C570.451 330 564.636 327.846 560.8 323.863L559.359 325.25ZM732.262 357H730.262V359H732.262V357ZM732.262 292.25H734.262V290.25H732.262V292.25ZM662.512 279.75L661.165 281.229L661.172 281.235L661.18 281.242L662.512 279.75ZM648.512 174.5V172.5H646.512V174.5H648.512ZM679.762 174.5H681.762V172.5H679.762V174.5ZM686.512 258.75L685.215 260.272L685.245 260.298L685.276 260.323L686.512 258.75ZM732.262 264.25V266.25H734.262V264.25H732.262ZM732.262 174.5V172.5H730.262V174.5H732.262ZM763.512 174.5H765.512V172.5H763.512V174.5ZM763.512 357V359H765.512V357H763.512ZM732.262 357H734.262V292.25H732.262H730.262V357H732.262ZM732.262 292.25V290.25H701.512V292.25V294.25H732.262V292.25ZM701.512 292.25V290.25C685.171 290.25 672.703 286.168 663.844 278.258L662.512 279.75L661.18 281.242C670.987 289.998 684.519 294.25 701.512 294.25V292.25ZM662.512 279.75L663.858 278.271C655.02 270.222 650.512 259.053 650.512 244.5H648.512H646.512C646.512 259.947 651.337 272.278 661.165 281.229L662.512 279.75ZM648.512 244.5H650.512V174.5H648.512H646.512V244.5H648.512ZM648.512 174.5V176.5H679.762V174.5V172.5H648.512V174.5ZM679.762 174.5H677.762V243H679.762H681.762V174.5H679.762ZM679.762 243H677.762C677.762 250.169 680.209 256.008 685.215 260.272L686.512 258.75L687.809 257.228C683.815 253.825 681.762 249.165 681.762 243H679.762ZM686.512 258.75L685.276 260.323C690.394 264.343 697.124 266.25 705.262 266.25V264.25V262.25C697.733 262.25 691.963 260.49 687.747 257.177L686.512 258.75ZM705.262 264.25V266.25H732.262V264.25V262.25H705.262V264.25ZM732.262 264.25H734.262V174.5H732.262H730.262V264.25H732.262ZM732.262 174.5V176.5H763.512V174.5V172.5H732.262V174.5ZM763.512 174.5H761.512V357H763.512H765.512V174.5H763.512ZM763.512 357V355H732.262V357V359H763.512V357ZM813.664 249H811.664V251H813.664V249ZM835.164 249V251H836.436L836.976 249.848L835.164 249ZM867.914 179L869.726 179.848L869.734 179.83L869.742 179.812L867.914 179ZM900.414 176.75L898.666 177.721L898.732 177.841L898.814 177.95L900.414 176.75ZM900.414 181.75L898.625 180.856L898.616 180.875L898.606 180.894L900.414 181.75ZM862.664 261.5L860.856 260.644L860.461 261.479L860.841 262.321L862.664 261.5ZM902.414 349.75L900.591 350.571L900.607 350.608L900.625 350.644L902.414 349.75ZM902.414 355L900.75 353.891L900.734 353.915L900.718 353.94L902.414 355ZM868.914 352.25L870.757 351.474L870.749 351.453L870.74 351.433L868.914 352.25ZM834.914 276.25L836.74 275.433L836.21 274.25H834.914V276.25ZM813.664 276.25V274.25H811.664V276.25H813.664ZM788.664 357V355C786.889 355 785.925 354.558 785.391 354.023C784.856 353.489 784.414 352.525 784.414 350.75H782.414H780.414C780.414 353.142 781.013 355.303 782.562 356.852C784.111 358.401 786.272 359 788.664 359V357ZM782.414 350.75H784.414V180.75H782.414H780.414V350.75H782.414ZM782.414 180.75H784.414C784.414 178.975 784.856 178.011 785.391 177.477C785.925 176.942 786.889 176.5 788.664 176.5V174.5V172.5C786.272 172.5 784.111 173.099 782.562 174.648C781.013 176.197 780.414 178.358 780.414 180.75H782.414ZM788.664 174.5V176.5H807.664V174.5V172.5H788.664V174.5ZM807.664 174.5V176.5C809.335 176.5 810.225 176.931 810.721 177.448C811.232 177.98 811.664 178.955 811.664 180.75H813.664H815.664C815.664 178.378 815.096 176.229 813.607 174.677C812.103 173.111 809.994 172.5 807.664 172.5V174.5ZM813.664 180.75H811.664V249H813.664H815.664V180.75H813.664ZM813.664 249V251H835.164V249V247H813.664V249ZM835.164 249L836.976 249.848L869.726 179.848L867.914 179L866.103 178.152L833.353 248.152L835.164 249ZM867.914 179L869.742 179.812C870.279 178.602 870.964 177.81 871.746 177.307C872.53 176.803 873.553 176.5 874.914 176.5V174.5V172.5C872.942 172.5 871.132 172.947 869.583 173.943C868.031 174.94 866.882 176.398 866.086 178.188L867.914 179ZM874.914 174.5V176.5H895.664V174.5V172.5H874.914V174.5ZM895.664 174.5V176.5C897.569 176.5 898.309 177.079 898.666 177.721L900.414 176.75L902.162 175.779C900.852 173.42 898.426 172.5 895.664 172.5V174.5ZM900.414 176.75L898.814 177.95C899.203 178.468 899.422 179.263 898.625 180.856L900.414 181.75L902.203 182.644C903.407 180.237 903.625 177.698 902.014 175.55L900.414 176.75ZM900.414 181.75L898.606 180.894L860.856 260.644L862.664 261.5L864.472 262.356L902.222 182.606L900.414 181.75ZM862.664 261.5L860.841 262.321L900.591 350.571L902.414 349.75L904.238 348.929L864.488 260.679L862.664 261.5ZM902.414 349.75L900.625 350.644C901.395 352.183 901.251 353.139 900.75 353.891L902.414 355L904.078 356.109C905.577 353.861 905.434 351.317 904.203 348.856L902.414 349.75ZM902.414 355L900.718 353.94C900.407 354.438 899.667 355 897.664 355V357V359C900.328 359 902.755 358.229 904.11 356.06L902.414 355ZM897.664 357V355H876.164V357V359H897.664V357ZM876.164 357V355C874.72 355 873.642 354.676 872.823 354.14C872.006 353.604 871.299 352.761 870.757 351.474L868.914 352.25L867.071 353.026C867.862 354.905 869.031 356.437 870.63 357.485C872.228 358.532 874.108 359 876.164 359V357ZM868.914 352.25L870.74 351.433L836.74 275.433L834.914 276.25L833.088 277.067L867.088 353.067L868.914 352.25ZM834.914 276.25V274.25H813.664V276.25V278.25H834.914V276.25ZM813.664 276.25H811.664V350.75H813.664H815.664V276.25H813.664ZM813.664 350.75H811.664C811.664 352.545 811.232 353.52 810.721 354.052C810.225 354.569 809.335 355 807.664 355V357V359C809.994 359 812.103 358.389 813.607 356.823C815.096 355.271 815.664 353.122 815.664 350.75H813.664ZM807.664 357V355H788.664V357V359H807.664V357ZM904.066 350.25L906.002 350.752L906.004 350.744L906.006 350.736L904.066 350.25ZM946.816 179.75L948.756 180.236L948.759 180.225L948.762 180.213L946.816 179.75ZM989.566 179.75L987.621 180.213L987.624 180.226L987.627 180.239L989.566 179.75ZM1032.57 350.25L1030.63 350.739L1030.63 350.752L1032.57 350.25ZM1001.57 351.5L1003.53 351.142L1003.53 351.095L1003.51 351.048L1001.57 351.5ZM992.566 312.75L994.515 312.298L994.155 310.75H992.566V312.75ZM944.066 312.75V310.75H942.468L942.115 312.309L944.066 312.75ZM935.316 351.5L937.267 351.943L937.267 351.941L935.316 351.5ZM949.816 287.25L947.865 286.814L947.32 289.25H949.816V287.25ZM986.816 287.25V289.25H989.315L988.768 286.812L986.816 287.25ZM975.816 238.25L977.768 237.812L977.765 237.799L977.762 237.787L975.816 238.25ZM973.566 228.5L971.594 228.829L971.602 228.882L971.614 228.934L973.566 228.5ZM972.066 220L974.032 219.631L974.026 219.599L974.019 219.566L972.066 220ZM968.566 214.5L967.672 216.289L967.746 216.326L967.824 216.357L968.566 214.5ZM965.316 217L963.355 216.608L963.347 216.648L963.341 216.688L965.316 217ZM963.316 227L961.371 226.537L961.36 226.581L961.352 226.626L963.316 227ZM960.816 238L958.881 237.495L958.872 237.529L958.865 237.564L960.816 238ZM909.316 357V355C907.21 355 906.391 354.481 906.083 354.085C905.777 353.692 905.477 352.779 906.002 350.752L904.066 350.25L902.13 349.748C901.489 352.221 901.481 354.683 902.925 356.54C904.367 358.394 906.756 359 909.316 359V357ZM904.066 350.25L906.006 350.736L948.756 180.236L946.816 179.75L944.876 179.264L902.126 349.764L904.066 350.25ZM946.816 179.75L948.762 180.213C949.101 178.787 949.677 177.92 950.357 177.391C951.041 176.859 952.049 176.5 953.566 176.5V174.5V172.5C951.417 172.5 949.467 173.016 947.901 174.234C946.331 175.455 945.365 177.213 944.871 179.287L946.816 179.75ZM953.566 174.5V176.5H982.816V174.5V172.5H953.566V174.5ZM982.816 174.5V176.5C984.334 176.5 985.342 176.859 986.026 177.391C986.706 177.92 987.281 178.787 987.621 180.213L989.566 179.75L991.512 179.287C991.018 177.213 990.052 175.455 988.482 174.234C986.916 173.016 984.966 172.5 982.816 172.5V174.5ZM989.566 179.75L987.627 180.239L1030.63 350.739L1032.57 350.25L1034.51 349.761L991.506 179.261L989.566 179.75ZM1032.57 350.25L1030.63 350.752C1031.16 352.779 1030.86 353.692 1030.55 354.085C1030.24 354.481 1029.42 355 1027.32 355V357V359C1029.88 359 1032.27 358.394 1033.71 356.54C1035.15 354.683 1035.14 352.221 1034.5 349.748L1032.57 350.25ZM1027.32 357V355H1008.07V357V359H1027.32V357ZM1008.07 357V355C1006.57 355 1005.61 354.629 1004.98 354.098C1004.35 353.564 1003.81 352.664 1003.53 351.142L1001.57 351.5L999.599 351.858C999.989 354.003 1000.86 355.853 1002.4 357.152C1003.94 358.454 1005.9 359 1008.07 359V357ZM1001.57 351.5L1003.51 351.048L994.515 312.298L992.566 312.75L990.618 313.202L999.618 351.952L1001.57 351.5ZM992.566 312.75V310.75H944.066V312.75V314.75H992.566V312.75ZM944.066 312.75L942.115 312.309L933.365 351.059L935.316 351.5L937.267 351.941L946.017 313.191L944.066 312.75ZM935.316 351.5L933.366 351.057C933.019 352.584 932.429 353.514 931.741 354.075C931.058 354.631 930.063 355 928.566 355V357V359C930.736 359 932.7 358.453 934.267 357.175C935.829 355.903 936.781 354.082 937.267 351.943L935.316 351.5ZM928.566 357V355H909.316V357V359H928.566V357ZM949.816 287.25V289.25H986.816V287.25V285.25H949.816V287.25ZM986.816 287.25L988.768 286.812L977.768 237.812L975.816 238.25L973.865 238.688L984.865 287.688L986.816 287.25ZM975.816 238.25L977.762 237.787C976.931 234.295 976.183 231.055 975.519 228.066L973.566 228.5L971.614 228.934C972.283 231.945 973.036 235.205 973.871 238.713L975.816 238.25ZM973.566 228.5L975.539 228.171C975.037 225.159 974.535 222.313 974.032 219.631L972.066 220L970.101 220.369C970.598 223.021 971.096 225.841 971.594 228.829L973.566 228.5ZM972.066 220L974.019 219.566C973.31 216.378 971.924 213.689 969.309 212.643L968.566 214.5L967.824 216.357C968.542 216.645 969.489 217.622 970.114 220.434L972.066 220ZM968.566 214.5L969.461 212.711C968.233 212.097 966.654 211.861 965.284 212.915C964.144 213.792 963.628 215.245 963.355 216.608L965.316 217L967.278 217.392C967.382 216.872 967.501 216.52 967.607 216.296C967.715 216.069 967.775 216.046 967.723 216.085C967.642 216.148 967.52 216.187 967.426 216.187C967.369 216.187 967.439 216.172 967.672 216.289L968.566 214.5ZM965.316 217L963.341 216.688C962.85 219.798 962.194 223.081 961.371 226.537L963.316 227L965.262 227.463C966.106 223.919 966.783 220.535 967.292 217.312L965.316 217ZM963.316 227L961.352 226.626C960.694 230.077 959.871 233.7 958.881 237.495L960.816 238L962.752 238.505C963.762 234.633 964.605 230.923 965.281 227.374L963.316 227ZM960.816 238L958.865 237.564L947.865 286.814L949.816 287.25L951.768 287.686L962.768 238.436L960.816 238Z" fill="black" mask="url(#path-1-outside-1_63_1050)"/>
</svg>
