<svg width="64" height="64" viewBox="0 0 64 64" fill="none" xmlns="http://www.w3.org/2000/svg">
<rect width="64" height="64" fill="white"/>
<path d="M13.5625 32L13.7698 32.6C13.7698 32.6 13.7692 32.5978 15.5011 31.9996C13.7692 31.4014 13.7698 31.3999 13.7698 31.3999L13.5625 32Z" fill="#0F0F0F"/>
<path fill-rule="evenodd" clip-rule="evenodd" d="M50.2341 31.3999L50.4415 31.9999L50.2347 32.5983L50.2336 32.6018L50.2319 32.6066L50.2275 32.6192L50.2134 32.6586C50.2019 32.6907 50.1856 32.7351 50.1648 32.7905C50.123 32.901 50.0627 33.0567 49.9826 33.2504C49.8227 33.638 49.5839 34.181 49.2592 34.8278C48.6118 36.1169 47.6117 37.8418 46.1981 39.5753C43.3703 43.0425 38.772 46.6666 32.0018 46.6666C25.2318 46.6666 20.6334 43.0425 17.8058 39.5753C16.392 37.8418 15.3919 36.1169 14.7446 34.8278C14.4199 34.181 14.181 33.638 14.0211 33.2504C13.9411 33.0567 13.8807 32.901 13.839 32.7905C13.8181 32.7351 13.8019 32.6907 13.7903 32.6586L13.7763 32.6192L13.7718 32.6066L13.7695 32.6L15.5008 31.9996L13.7695 31.3999L13.7718 31.3933L13.7763 31.3806L13.7903 31.3412C13.8019 31.3091 13.8181 31.2648 13.839 31.2094C13.8807 31.0988 13.9411 30.9432 14.0211 30.7494C14.181 30.3618 14.4199 29.8188 14.7446 29.172C15.3919 27.8829 16.392 26.158 17.8058 24.4246C20.6334 20.9573 25.2318 17.3333 32.0018 17.3333C38.772 17.3333 43.3703 20.9573 46.1981 24.4246C47.6117 26.158 48.6118 27.8829 49.2592 29.172C49.5839 29.8188 49.8227 30.3618 49.9826 30.7494C50.0627 30.9432 50.123 31.0988 50.1648 31.2094C50.1856 31.2648 50.2019 31.3091 50.2134 31.3412L50.2275 31.3806L50.2319 31.3933L50.2336 31.398L50.2341 31.3999ZM50.2341 31.3999C50.2341 31.3999 50.2347 31.4013 48.5018 31.9999L50.2341 31.3999ZM50.0178 32.5232C50.2316 32.5969 50.2347 32.5983 50.2347 32.5983L48.6115 32.0377C49.4046 32.3118 49.8103 32.4517 50.0178 32.5232ZM31.9994 37.4999C35.0371 37.4999 37.4994 35.0376 37.4994 31.9999C37.4994 28.9623 35.0371 26.4999 31.9994 26.4999C28.9618 26.4999 26.4994 28.9623 26.4994 31.9999C26.4994 35.0376 28.9618 37.4999 31.9994 37.4999Z" fill="#0F0F0F"/>
</svg>
