<svg width="162" height="32" viewBox="0 0 162 32" fill="none" xmlns="http://www.w3.org/2000/svg">
<g clip-path="url(#clip0_63_553)">
<path d="M15.7909 11.0754C15.8216 11.4146 16.0678 11.6612 16.3755 11.7537L23.3606 13.3879C23.4221 13.3879 23.4837 13.4187 23.5452 13.4187C23.8529 13.4187 24.1298 13.2337 24.2529 12.9254L27.0223 6.29622C27.1454 5.98789 27.0839 5.64872 26.8377 5.43289C26.5915 5.21706 26.2531 5.15539 25.9453 5.30956L24.5606 6.01872L23.0221 2.99706C22.3451 1.67122 20.9912 0.900391 19.5449 0.900391H13.0215C12.3445 0.900391 11.6983 1.11622 11.0829 1.48622C10.5598 1.79456 10.1597 2.19539 9.82125 2.68872L6.0364 8.39289C5.91331 8.57789 5.88254 8.79372 5.91331 8.97872C5.94409 9.19456 6.06717 9.34872 6.2518 9.47206L11.4829 12.8329C11.8521 13.0487 12.3137 12.9562 12.5599 12.6171L16.2524 6.94372L17.6064 9.56456L16.2217 10.2737C15.9139 10.4279 15.7601 10.7362 15.7909 11.0754ZM11.6675 11.1062L7.79036 8.60872L11.1136 3.52122C11.2983 3.21289 11.5444 2.99706 11.8521 2.81206C12.2214 2.59622 12.6214 2.47289 13.0215 2.47289H13.0522C13.6061 2.47289 14.16 2.81206 14.4062 3.30539L15.4524 5.34039L11.6675 11.1062ZM17.0525 5.03206L15.7909 2.56539C15.7601 2.53456 15.7601 2.47289 15.7293 2.44206H19.5449C20.4373 2.44206 21.2374 2.90456 21.6374 3.70622L23.5144 7.43706C23.6067 7.62206 23.7606 7.77622 23.976 7.83789C24.1606 7.89956 24.376 7.89956 24.5606 7.77622L24.7453 7.68372L23.0529 11.7229L18.8064 10.7362L18.9911 10.6437C19.1757 10.5512 19.3295 10.3971 19.3911 10.1812C19.4526 9.99622 19.4526 9.78039 19.3295 9.59539L17.0525 5.03206ZM28.4994 11.8771C28.284 11.8154 28.0686 11.8462 27.9147 11.9696L22.5605 15.0529C22.1913 15.2687 22.0682 15.7312 22.2836 16.1321L25.6376 22.0212H22.6836V20.4487C22.6836 20.1096 22.4682 19.8321 22.1605 19.7087C21.8528 19.5854 21.5143 19.6779 21.2989 19.9246L16.6832 25.4129C16.4371 25.6904 16.4371 26.1221 16.6832 26.4304L21.2989 31.8879C21.4528 32.0729 21.6682 32.1654 21.8836 32.1654C21.9759 32.1654 22.0682 32.1346 22.1605 32.1037C22.4682 31.9804 22.6836 31.7029 22.6836 31.3637V29.7912H26.0684C27.5454 29.7912 28.8686 28.9587 29.5148 27.6329L32.4688 21.8671C32.4688 21.8362 32.4996 21.8362 32.4996 21.8054V21.7746C32.8073 21.1579 32.9304 20.4796 32.8689 19.7704C32.8381 19.1846 32.6535 18.5987 32.3765 18.1054L28.9917 12.1546C28.8686 12.0621 28.7148 11.9079 28.4994 11.8771ZM28.1301 26.9854C27.7301 27.7871 26.93 28.2804 26.0684 28.2804H21.9143C21.6989 28.2804 21.5143 28.3729 21.3604 28.4962C21.2066 28.6504 21.145 28.8354 21.145 29.0512V29.2671L18.3141 25.9371L21.145 22.6071V22.8229C21.145 23.2546 21.4835 23.5937 21.9143 23.5937H29.8533L28.1301 26.9854ZM31.3303 19.9554C31.3611 20.3871 31.2995 20.7879 31.1149 21.1579V21.1887C30.8687 21.6821 30.3149 22.0212 29.761 22.0212H27.4531L24.0375 16.0396L28.0378 13.6962L31.0534 18.9687C31.2072 19.2771 31.2995 19.6162 31.3303 19.9554ZM0.774528 22.5762L4.28244 27.9721C4.31321 28.0029 4.31321 28.0337 4.34398 28.0646C4.71324 28.6196 5.23635 29.0821 5.88254 29.3904C6.40565 29.6371 6.9903 29.7604 7.57496 29.7912L14.9293 29.8529C15.1447 29.8529 15.3293 29.7604 15.4831 29.6371C15.637 29.4829 15.6985 29.2979 15.6985 29.0821V22.7921C15.6985 22.5762 15.6062 22.3912 15.4831 22.2371C15.3293 22.0829 15.1447 22.0212 14.9293 22.0212H7.60573L9.08275 19.4621L10.4367 20.2329C10.7136 20.3871 11.0829 20.3562 11.329 20.1404C11.5752 19.9246 11.6675 19.5854 11.5444 19.2771L9.08275 12.5246C8.95966 12.1546 8.59041 11.9696 8.22115 12.0312L1.17455 13.3571C0.866841 13.4187 0.589901 13.6654 0.55913 14.0046C0.497587 14.3129 0.651443 14.6521 0.928384 14.8062L2.28232 15.5771L0.589901 18.5062C-0.117836 19.8012 -0.0562938 21.3429 0.774528 22.5762ZM14.16 23.5629V28.2496L7.57496 28.2187C7.2057 28.2187 6.89799 28.1571 6.55951 28.0029C6.15948 27.8179 5.85177 27.5404 5.63637 27.2321L5.6056 27.1704C5.29789 26.7079 5.29789 26.0912 5.57483 25.5979L6.71336 23.5937L14.16 23.5629ZM1.9746 19.2771L4.03627 15.6696C4.12859 15.4846 4.15936 15.2687 4.09781 15.0837C4.03627 14.8679 3.91319 14.7137 3.72856 14.6212L3.5747 14.4979L7.88267 13.6962L9.39046 17.8279L9.20583 17.7354C9.0212 17.6429 8.8058 17.6121 8.62118 17.6737C8.43655 17.7354 8.25192 17.8587 8.15961 18.0437L5.63637 22.4529L4.28244 24.8579C4.25167 24.8887 4.25167 24.9504 4.2209 24.9812L2.12846 21.7746C1.57458 20.9729 1.54381 20.0479 1.9746 19.2771Z" fill="black"/>
</g>
<g clip-path="url(#clip1_63_553)">
<path d="M59.9983 0.111328H59.9601C51.1983 0.134245 44.1094 7.23841 44.1094 16.0002C44.1094 24.762 51.1983 31.8662 59.9601 31.8891H59.9983C68.7753 31.8891 75.8872 24.7773 75.8872 16.0002C75.8872 7.22313 68.7753 0.111328 59.9983 0.111328ZM60.6323 9.62175C62.3205 9.57591 63.9552 9.35438 65.5365 8.97244C66.0101 10.844 66.308 13.0058 66.3538 15.3738H60.6323V9.62175ZM60.6323 8.34605V1.48633C62.3434 1.95994 64.0851 4.24397 65.1851 7.75022C63.7184 8.10161 62.1983 8.30022 60.6323 8.34605ZM59.3642 1.47105V8.35369C57.783 8.30786 56.2476 8.10161 54.7733 7.74258C55.8885 4.21341 57.6378 1.91411 59.3642 1.47105ZM59.3642 9.62175V15.3662H53.6045C53.6503 12.9981 53.9483 10.8363 54.4219 8.9648C56.0108 9.34674 57.6684 9.57591 59.3642 9.62175ZM52.3212 15.3662H45.4003C45.5378 12.0967 46.7601 9.1023 48.708 6.73424C50.1212 7.51341 51.626 8.15508 53.1997 8.62869C52.6802 10.653 52.3747 12.937 52.3212 15.3662ZM52.3212 16.6342C52.367 19.0558 52.6726 21.3474 53.192 23.3717C51.6184 23.853 50.1212 24.487 48.7003 25.2662C46.7524 22.8981 45.5378 19.9037 45.3927 16.6342H52.3212ZM53.6045 16.6342H59.3642V22.371C57.6684 22.4169 56.0108 22.6461 54.4219 23.0356C53.9483 21.1641 53.6503 19.0023 53.6045 16.6342ZM59.3642 23.6467V30.537C57.6378 30.0863 55.8885 27.7947 54.7733 24.2655C56.2476 23.8988 57.783 23.6926 59.3642 23.6467ZM60.6323 30.5141V23.6391C62.1983 23.6849 63.7184 23.8912 65.1927 24.2426C64.0851 27.7565 62.351 30.0405 60.6323 30.5141ZM60.6323 22.371V16.6342H66.3538C66.308 18.9947 66.0101 21.1565 65.5365 23.028C63.9552 22.646 62.3205 22.4169 60.6323 22.371ZM67.6295 16.6342H74.5962C74.4587 19.9037 73.2365 22.8905 71.2885 25.2662C69.8601 24.4794 68.3476 23.8377 66.7587 23.3565C67.2781 21.3322 67.5837 19.0558 67.6295 16.6342ZM67.6295 15.3662C67.5837 12.9447 67.2781 10.6606 66.7663 8.63633C68.3552 8.15508 69.8677 7.51341 71.2885 6.73424C73.2365 9.1023 74.4587 12.0967 74.5962 15.3738H67.6295V15.3662ZM70.4177 5.75647C69.1497 6.42869 67.8205 6.98633 66.4226 7.40647C65.6816 5.01549 64.6351 3.06758 63.4052 1.78424C66.1094 2.43355 68.5233 3.83911 70.4177 5.75647ZM56.5455 1.79952C55.3156 3.07522 54.2767 5.02313 53.5434 7.39883C52.1608 6.97869 50.8392 6.42869 49.5865 5.75647C51.458 3.84674 53.8566 2.44883 56.5455 1.79952ZM49.5788 26.2363C50.8316 25.5641 52.1608 25.0141 53.5358 24.594C54.2767 26.9773 55.3156 28.9176 56.5455 30.2009C53.8566 29.5516 51.458 28.1537 49.5788 26.2363ZM63.4052 30.2162C64.6427 28.9329 65.6816 26.9849 66.4302 24.5863C67.8281 25.0065 69.1573 25.5641 70.4253 26.2363C68.5309 28.1613 66.1094 29.5669 63.4052 30.2162Z" fill="black"/>
</g>
<g clip-path="url(#clip2_63_553)">
<g clip-path="url(#clip3_63_553)">
<path d="M110.453 27.0853C101.596 28.0485 93.396 22.8086 93.396 16.0008C93.396 9.19306 101.596 3.95316 110.453 4.91637V0.0827996C98.0417 -0.859849 87 6.56223 87 16.0008C87 25.4394 98.0409 32.8464 110.455 31.92L110.453 27.0853Z" fill="black"/>
</g>
<path d="M113.613 13.5957H130.665V18.3934H113.613V13.5957Z" fill="black"/>
<g clip-path="url(#clip4_63_553)">
<path d="M135.001 4.91358C126.146 3.95068 117.949 9.18891 117.949 15.9945C117.949 22.8001 126.146 28.0383 135.001 27.0754V31.9075C122.593 32.8498 111.555 25.4301 111.555 15.9945C111.555 6.55891 122.592 -0.845695 135.002 0.0803337L135.001 4.91358Z" fill="black"/>
</g>
</g>
<path d="M152.483 0H153.905L156.577 7.12842L159.243 0H160.665L157.136 9.24219H156.006L152.483 0ZM151.835 0H153.188L153.422 6.16992V9.24219H151.835V0ZM159.96 0H161.319V9.24219H159.726V6.16992L159.96 0Z" fill="black"/>
<path d="M147.456 0V9.24219H145.875V0H147.456ZM150.357 0V1.26953H143V0H150.357Z" fill="black"/>
<defs>
<clipPath id="clip0_63_553">
<rect width="33" height="32" fill="white"/>
</clipPath>
<clipPath id="clip1_63_553">
<rect width="32" height="32" fill="white" transform="translate(44)"/>
</clipPath>
<clipPath id="clip2_63_553">
<rect width="48" height="32" fill="white" transform="translate(87)"/>
</clipPath>
<clipPath id="clip3_63_553">
<rect width="23.455" height="31.9969" fill="white" transform="translate(87 0.00195312)"/>
</clipPath>
<clipPath id="clip4_63_553">
<rect width="23.4475" height="31.9867" fill="white" transform="matrix(1 0 0 -1 111.555 31.9883)"/>
</clipPath>
</defs>
</svg>
