<svg width="521" height="65" viewBox="0 0 521 65" fill="none" xmlns="http://www.w3.org/2000/svg">
<mask id="path-1-outside-1_63_552" maskUnits="userSpaceOnUse" x="-0.586914" y="-0.629883" width="522" height="65" fill="black">
<rect fill="white" x="-0.586914" y="-0.629883" width="522" height="65"/>
<path d="M2.00009 62.0301V45.1251H4.55309C5.33509 43.8371 6.14009 41.8361 6.96809 39.1221C7.79609 36.4081 8.23309 33.3951 8.27909 30.0831L8.69309 2.00012H35.8101V45.1251H40.2261V62.0301H32.2911V52.3701H9.93509V62.0301H2.00009ZM13.1781 45.1251H27.5301V9.31412H16.7661L16.4211 30.0831C16.4211 33.4411 16.0531 36.4771 15.3171 39.1911C14.5811 41.9051 13.8681 43.8831 13.1781 45.1251ZM44.8221 52.3701C43.5341 52.3701 43.0511 51.7491 43.3731 50.5071L55.1721 3.44911C55.4021 2.48312 56.0231 2.00012 57.0351 2.00012H65.1081C66.1201 2.00012 66.7411 2.48312 66.9711 3.44911L78.8391 50.5071C79.1611 51.7491 78.6781 52.3701 77.3901 52.3701H72.0771C71.0651 52.3701 70.4671 51.8641 70.2831 50.8521L67.7991 40.1571H54.4131L51.9981 50.8521C51.7681 51.8641 51.1471 52.3701 50.1351 52.3701H44.8221ZM56.0001 33.1191H66.2121L63.1761 19.5951C62.9461 18.6291 62.7391 17.7321 62.5551 16.9041C62.4171 16.0761 62.2791 15.2941 62.1411 14.5581C61.9571 13.7301 61.6351 13.2241 61.1751 13.0401C60.7151 12.8101 60.4161 13.0401 60.2781 13.7301C60.1401 14.6041 59.9561 15.5241 59.7261 16.4901C59.5421 17.4561 59.3121 18.4681 59.0361 19.5261L56.0001 33.1191ZM87.3682 52.3701C86.2642 52.3701 85.7122 51.7951 85.7122 50.6451V3.72511C85.7122 2.57512 86.2642 2.00012 87.3682 2.00012H102.479C105.837 2.00012 108.758 2.64412 111.242 3.93212C113.772 5.22012 115.727 7.03712 117.107 9.38312C118.487 11.6831 119.177 14.3971 119.177 17.5251C119.177 20.6531 118.487 23.3901 117.107 25.7361C115.727 28.0361 113.772 29.8301 111.242 31.1181C108.758 32.4061 105.837 33.0501 102.479 33.0501H94.3372V50.6451C94.3372 51.7951 93.7622 52.3701 92.6122 52.3701H87.3682ZM94.3372 25.4601H102.479C104.917 25.4601 106.849 24.7241 108.275 23.2521C109.701 21.7801 110.414 19.8711 110.414 17.5251C110.414 15.1791 109.701 13.2701 108.275 11.7981C106.849 10.3261 104.917 9.59012 102.479 9.59012H96.0622C94.9122 9.59012 94.3372 10.1421 94.3372 11.2461V25.4601ZM125.36 52.3701V2.00012H133.226V26.6331C133.226 28.2891 133.18 30.1061 133.088 32.0841C132.996 34.0621 132.881 35.9941 132.743 37.8801C132.605 39.7661 132.49 41.3761 132.398 42.7101L146.267 2.00012H156.824V52.3701H148.958V28.4961C148.958 26.8861 149.004 25.0461 149.096 22.9761C149.234 20.9061 149.372 18.8821 149.51 16.9041C149.648 14.8801 149.786 13.1321 149.924 11.6601L135.917 52.3701H125.36ZM167.423 52.3701C166.273 52.3701 165.698 51.7951 165.698 50.6451V3.72511C165.698 2.57512 166.273 2.00012 167.423 2.00012H172.667C173.771 2.00012 174.323 2.57512 174.323 3.72511V22.4241H187.847V3.72511C187.847 2.57512 188.399 2.00012 189.503 2.00012H194.747C195.897 2.00012 196.472 2.57512 196.472 3.72511V50.6451C196.472 51.7951 195.897 52.3701 194.747 52.3701H189.503C188.399 52.3701 187.847 51.7951 187.847 50.6451V30.2211H174.323V50.6451C174.323 51.7951 173.771 52.3701 172.667 52.3701H167.423ZM204.794 52.3701C203.506 52.3701 203.023 51.7491 203.345 50.5071L215.144 3.44911C215.374 2.48312 215.995 2.00012 217.007 2.00012H225.08C226.092 2.00012 226.713 2.48312 226.943 3.44911L238.811 50.5071C239.133 51.7491 238.65 52.3701 237.362 52.3701H232.049C231.037 52.3701 230.439 51.8641 230.255 50.8521L227.771 40.1571H214.385L211.97 50.8521C211.74 51.8641 211.119 52.3701 210.107 52.3701H204.794ZM215.972 33.1191H226.184L223.148 19.5951C222.918 18.6291 222.711 17.7321 222.527 16.9041C222.389 16.0761 222.251 15.2941 222.113 14.5581C221.929 13.7301 221.607 13.2241 221.147 13.0401C220.687 12.8101 220.388 13.0401 220.25 13.7301C220.112 14.6041 219.928 15.5241 219.698 16.4901C219.514 17.4561 219.284 18.4681 219.008 19.5261L215.972 33.1191ZM287.333 52.3701C286.183 52.3701 285.608 51.7951 285.608 50.6451V3.72511C285.608 2.57512 286.183 2.00012 287.333 2.00012H292.577C293.681 2.00012 294.233 2.57512 294.233 3.72511V22.5621H300.167L309.206 3.24212C309.574 2.41412 310.218 2.00012 311.138 2.00012H316.865C317.509 2.00012 317.946 2.20712 318.176 2.62112C318.452 2.98911 318.452 3.44911 318.176 4.00111L307.757 26.0121L318.728 50.3691C319.004 50.9211 319.004 51.4041 318.728 51.8181C318.498 52.1861 318.061 52.3701 317.417 52.3701H311.483C310.517 52.3701 309.85 51.9331 309.482 51.0591L300.098 30.0831H294.233V50.6451C294.233 51.7951 293.681 52.3701 292.577 52.3701H287.333ZM332.294 52.3701L337.469 39.4671L322.772 2.00012H332.156L339.746 24.2181C340.206 25.5061 340.597 26.8631 340.919 28.2891C341.287 29.6691 341.517 30.7961 341.609 31.6701C341.701 30.7961 341.885 29.6691 342.161 28.2891C342.483 26.8631 342.828 25.5061 343.196 24.2181L350.165 2.00012H359.342L341.402 52.3701H332.294ZM367.319 52.3701C366.215 52.3701 365.663 51.7951 365.663 50.6451V3.72511C365.663 2.57512 366.215 2.00012 367.319 2.00012H382.43C385.788 2.00012 388.709 2.64412 391.193 3.93212C393.723 5.22012 395.678 7.03712 397.058 9.38312C398.438 11.6831 399.128 14.3971 399.128 17.5251C399.128 20.6531 398.438 23.3901 397.058 25.7361C395.678 28.0361 393.723 29.8301 391.193 31.1181C388.709 32.4061 385.788 33.0501 382.43 33.0501H374.288V50.6451C374.288 51.7951 373.713 52.3701 372.563 52.3701H367.319ZM374.288 25.4601H382.43C384.868 25.4601 386.8 24.7241 388.226 23.2521C389.652 21.7801 390.365 19.8711 390.365 17.5251C390.365 15.1791 389.652 13.2701 388.226 11.7981C386.8 10.3261 384.868 9.59012 382.43 9.59012H376.013C374.863 9.59012 374.288 10.1421 374.288 11.2461V25.4601ZM401.931 62.0301V45.1251H404.484C405.266 43.8371 406.071 41.8361 406.899 39.1221C407.727 36.4081 408.164 33.3951 408.21 30.0831L408.624 2.00012H435.741V45.1251H440.157V62.0301H432.222V52.3701H409.866V62.0301H401.931ZM413.109 45.1251H427.461V9.31412H416.697L416.352 30.0831C416.352 33.4411 415.984 36.4771 415.248 39.1911C414.512 41.9051 413.799 43.8831 413.109 45.1251ZM443.58 52.3701V2.00012H451.17V22.0791H453.723C457.817 22.0791 461.06 23.2751 463.452 25.6671C465.844 28.0131 467.04 31.2331 467.04 35.3271V39.2601C467.04 43.2621 465.844 46.4591 463.452 48.8511C461.06 51.1971 457.817 52.3701 453.723 52.3701H443.58ZM470.904 52.3701V2.00012H478.494V52.3701H470.904ZM451.17 45.4701H453.723C455.609 45.4701 457.081 44.9181 458.139 43.8141C459.243 42.7101 459.795 41.1691 459.795 39.1911V35.3271C459.795 33.3491 459.243 31.8081 458.139 30.7041C457.081 29.5541 455.609 28.9791 453.723 28.9791H451.17V45.4701ZM483.642 52.3701L483.573 2.00012H491.232V45.2631H497.649V2.00012H504.48V45.2631H510.897V2.00012H518.487V52.3701H483.642Z"/>
</mask>
<path d="M2.00009 62.0301H8.60691e-05V64.0301H2.00009V62.0301ZM2.00009 45.1251V43.1251H8.60691e-05V45.1251H2.00009ZM4.55309 45.1251V47.1251H5.67856L6.26266 46.1631L4.55309 45.1251ZM6.96809 39.1221L8.88104 39.7057H8.88104L6.96809 39.1221ZM8.27909 30.0831L6.2793 30.0536L6.27928 30.0553L8.27909 30.0831ZM8.69309 2.00011V0.000114441H6.72235L6.6933 1.97063L8.69309 2.00011ZM35.8101 2.00011H37.8101V0.000114441H35.8101V2.00011ZM35.8101 45.1251H33.8101V47.1251H35.8101V45.1251ZM40.2261 45.1251H42.2261V43.1251H40.2261V45.1251ZM40.2261 62.0301V64.0301H42.2261V62.0301H40.2261ZM32.2911 62.0301H30.2911V64.0301H32.2911V62.0301ZM32.2911 52.3701H34.2911V50.3701H32.2911V52.3701ZM9.93509 52.3701V50.3701H7.93509V52.3701H9.93509ZM9.93509 62.0301V64.0301H11.9351V62.0301H9.93509ZM13.1781 45.1251L11.4298 44.1538L9.77906 47.1251H13.1781V45.1251ZM27.5301 45.1251V47.1251H29.5301V45.1251H27.5301ZM27.5301 9.31412H29.5301V7.31412H27.5301V9.31412ZM16.7661 9.31412V7.31412H14.799L14.7664 9.2809L16.7661 9.31412ZM16.4211 30.0831L14.4214 30.0499L14.4211 30.0665V30.0831H16.4211ZM15.3171 39.1911L13.3868 38.6676V38.6676L15.3171 39.1911ZM2.00009 62.0301H4.00009V45.1251H2.00009H8.60691e-05V62.0301H2.00009ZM2.00009 45.1251V47.1251H4.55309V45.1251V43.1251H2.00009V45.1251ZM4.55309 45.1251L6.26266 46.1631C7.17646 44.658 8.03915 42.4653 8.88104 39.7057L6.96809 39.1221L5.05513 38.5385C4.24102 41.207 3.49372 43.0162 2.84351 44.0872L4.55309 45.1251ZM6.96809 39.1221L8.88104 39.7057C9.77232 36.7843 10.2307 33.5807 10.2789 30.1109L8.27909 30.0831L6.27928 30.0553C6.23547 33.2096 5.81985 36.0319 5.05513 38.5385L6.96809 39.1221ZM8.27909 30.0831L10.2789 30.1126L10.6929 2.0296L8.69309 2.00011L6.6933 1.97063L6.2793 30.0536L8.27909 30.0831ZM8.69309 2.00011V4.00011H35.8101V2.00011V0.000114441H8.69309V2.00011ZM35.8101 2.00011H33.8101V45.1251H35.8101H37.8101V2.00011H35.8101ZM35.8101 45.1251V47.1251H40.2261V45.1251V43.1251H35.8101V45.1251ZM40.2261 45.1251H38.2261V62.0301H40.2261H42.2261V45.1251H40.2261ZM40.2261 62.0301V60.0301H32.2911V62.0301V64.0301H40.2261V62.0301ZM32.2911 62.0301H34.2911V52.3701H32.2911H30.2911V62.0301H32.2911ZM32.2911 52.3701V50.3701H9.93509V52.3701V54.3701H32.2911V52.3701ZM9.93509 52.3701H7.93509V62.0301H9.93509H11.9351V52.3701H9.93509ZM9.93509 62.0301V60.0301H2.00009V62.0301V64.0301H9.93509V62.0301ZM13.1781 45.1251V47.1251H27.5301V45.1251V43.1251H13.1781V45.1251ZM27.5301 45.1251H29.5301V9.31412H27.5301H25.5301V45.1251H27.5301ZM27.5301 9.31412V7.31412H16.7661V9.31412V11.3141H27.5301V9.31412ZM16.7661 9.31412L14.7664 9.2809L14.4214 30.0499L16.4211 30.0831L18.4208 30.1163L18.7658 9.34734L16.7661 9.31412ZM16.4211 30.0831H14.4211C14.4211 33.2974 14.0686 36.1535 13.3868 38.6676L15.3171 39.1911L17.2474 39.7146C18.0376 36.8007 18.4211 33.5848 18.4211 30.0831H16.4211ZM15.3171 39.1911L13.3868 38.6676C12.6604 41.3463 11.9976 43.1317 11.4298 44.1538L13.1781 45.1251L14.9264 46.0964C15.7385 44.6346 16.5018 42.464 17.2474 39.7146L15.3171 39.1911ZM43.3731 50.5071L45.3091 51.009L45.3111 51.0013L45.3131 50.9935L43.3731 50.5071ZM55.1721 3.44911L57.1121 3.93552L57.115 3.92396L57.1177 3.91235L55.1721 3.44911ZM66.9711 3.44911L65.0255 3.91235L65.0286 3.9253L65.0319 3.9382L66.9711 3.44911ZM78.8391 50.5071L76.8998 50.9962L76.9031 51.009L78.8391 50.5071ZM70.2831 50.8521L72.2509 50.4943L72.2422 50.4468L72.2313 50.3996L70.2831 50.8521ZM67.7991 40.1571L69.7473 39.7046L69.3878 38.1571H67.7991V40.1571ZM54.4131 40.1571V38.1571H52.8144L52.4622 39.7166L54.4131 40.1571ZM51.9981 50.8521L53.9484 51.2954L53.949 51.2926L51.9981 50.8521ZM56.0001 33.1191L54.0482 32.6832L53.5042 35.1191H56.0001V33.1191ZM66.2121 33.1191V35.1191H68.7109L68.1636 32.681L66.2121 33.1191ZM63.1761 19.5951L65.1276 19.157L65.1247 19.1444L65.1217 19.1319L63.1761 19.5951ZM62.5551 16.9041L60.5823 17.2329L60.5911 17.2857L60.6028 17.338L62.5551 16.9041ZM62.1411 14.5581L64.1069 14.1895L64.1007 14.1568L64.0935 14.1243L62.1411 14.5581ZM61.1751 13.0401L60.2807 14.829L60.3551 14.8662L60.4324 14.8971L61.1751 13.0401ZM60.2781 13.7301L58.317 13.3379L58.309 13.3779L58.3026 13.4182L60.2781 13.7301ZM59.7261 16.4901L57.7805 16.0269L57.77 16.0712L57.7615 16.1159L59.7261 16.4901ZM59.0361 19.5261L57.1009 19.0213L57.0919 19.0556L57.0842 19.0902L59.0361 19.5261ZM44.8221 52.3701V50.3701C44.6475 50.3701 44.6147 50.3474 44.6689 50.3663C44.7393 50.391 44.9152 50.4741 45.0726 50.6765C45.2303 50.8793 45.2684 51.0719 45.2751 51.15C45.2804 51.2103 45.2659 51.1757 45.3091 51.009L43.3731 50.5071L41.4371 50.0052C41.2182 50.8495 41.1043 52.0897 41.9152 53.1322C42.7237 54.1718 43.9513 54.3701 44.8221 54.3701V52.3701ZM43.3731 50.5071L45.3131 50.9935L57.1121 3.93552L55.1721 3.44911L53.2322 2.9627L41.4332 50.0207L43.3731 50.5071ZM55.1721 3.44911L57.1177 3.91235C57.1374 3.82991 57.153 3.81012 57.1425 3.82802C57.137 3.83736 57.1258 3.85455 57.1072 3.87599C57.0885 3.89764 57.0653 3.92006 57.0383 3.94107C57.0113 3.96206 56.9849 3.97818 56.9617 3.98987C56.9388 4.00142 56.9227 4.00676 56.9167 4.00855C56.9058 4.01176 56.9391 4.00011 57.0351 4.00011V2.00011V0.000114441C56.213 0.000114441 55.3336 0.199451 54.5825 0.783661C53.8273 1.37106 53.4187 2.17865 53.2265 2.98587L55.1721 3.44911ZM57.0351 2.00011V4.00011H65.1081V2.00011V0.000114441H57.0351V2.00011ZM65.1081 2.00011V4.00011C65.2041 4.00011 65.2374 4.01176 65.2266 4.00855C65.2205 4.00676 65.2045 4.00142 65.1815 3.98987C65.1584 3.97818 65.132 3.96206 65.105 3.94107C65.078 3.92006 65.0548 3.89764 65.0361 3.87599C65.0175 3.85455 65.0062 3.83736 65.0007 3.82802C64.9902 3.81013 65.0059 3.82991 65.0255 3.91235L66.9711 3.44911L68.9167 2.98587C68.7245 2.17865 68.316 1.37106 67.5608 0.783661C66.8096 0.199451 65.9303 0.000114441 65.1081 0.000114441V2.00011ZM66.9711 3.44911L65.0319 3.9382L76.8999 50.9962L78.8391 50.5071L80.7784 50.018L68.9104 2.96003L66.9711 3.44911ZM78.8391 50.5071L76.9031 51.009C76.9464 51.1757 76.9319 51.2103 76.9371 51.15C76.9439 51.0719 76.9819 50.8793 77.1397 50.6765C77.2971 50.4741 77.473 50.391 77.5434 50.3663C77.5976 50.3474 77.5647 50.3701 77.3901 50.3701V52.3701V54.3701C78.261 54.3701 79.4885 54.1718 80.2971 53.1322C81.108 52.0897 80.994 50.8495 80.7751 50.0052L78.8391 50.5071ZM77.3901 52.3701V50.3701H72.0771V52.3701V54.3701H77.3901V52.3701ZM72.0771 52.3701V50.3701C71.9883 50.3701 71.9685 50.3588 71.9954 50.3673C72.0282 50.3775 72.0927 50.4056 72.1615 50.4638C72.23 50.5218 72.265 50.5776 72.2767 50.6003C72.2857 50.6179 72.2685 50.5914 72.2509 50.4943L70.2831 50.8521L68.3154 51.2099C68.4641 52.0278 68.827 52.8821 69.5777 53.5174C70.3325 54.156 71.2389 54.3701 72.0771 54.3701V52.3701ZM70.2831 50.8521L72.2313 50.3996L69.7473 39.7046L67.7991 40.1571L65.851 40.6096L68.335 51.3046L70.2831 50.8521ZM67.7991 40.1571V38.1571H54.4131V40.1571V42.1571H67.7991V40.1571ZM54.4131 40.1571L52.4622 39.7166L50.0472 50.4116L51.9981 50.8521L53.949 51.2926L56.364 40.5976L54.4131 40.1571ZM51.9981 50.8521L50.0479 50.4089C50.025 50.5096 50.0042 50.5445 50.0078 50.5382C50.0099 50.5345 50.0178 50.5212 50.0334 50.5023C50.0493 50.4831 50.0703 50.4615 50.0965 50.4401C50.1228 50.4188 50.1496 50.4014 50.1749 50.388C50.1998 50.3749 50.2189 50.3679 50.2289 50.3649C50.2479 50.359 50.2233 50.3701 50.1351 50.3701V52.3701V54.3701C50.9775 54.3701 51.8704 54.1545 52.6232 53.5411C53.3705 52.9322 53.7639 52.107 53.9484 51.2954L51.9981 50.8521ZM50.1351 52.3701V50.3701H44.8221V52.3701V54.3701H50.1351V52.3701ZM56.0001 33.1191V35.1191H66.2121V33.1191V31.1191H56.0001V33.1191ZM66.2121 33.1191L68.1636 32.681L65.1276 19.157L63.1761 19.5951L61.2247 20.0332L64.2607 33.5572L66.2121 33.1191ZM63.1761 19.5951L65.1217 19.1319C64.8937 18.1741 64.689 17.287 64.5075 16.4703L62.5551 16.9041L60.6028 17.338C60.7893 18.1773 60.9986 19.0842 61.2305 20.0584L63.1761 19.5951ZM62.5551 16.9041L64.5279 16.5753C64.388 15.7356 64.2476 14.9402 64.1069 14.1895L62.1411 14.5581L60.1754 14.9267C60.3106 15.648 60.4463 16.4166 60.5823 17.2329L62.5551 16.9041ZM62.1411 14.5581L64.0935 14.1243C63.8677 13.1082 63.3257 11.7463 61.9179 11.1832L61.1751 13.0401L60.4324 14.8971C60.3239 14.8537 60.2358 14.7953 60.171 14.7382C60.1088 14.6832 60.0798 14.64 60.0743 14.6314C60.0695 14.6237 60.0835 14.6443 60.1073 14.7068C60.1308 14.7689 60.1598 14.8617 60.1888 14.992L62.1411 14.5581ZM61.1751 13.0401L62.0696 11.2513C61.4447 10.9388 60.3642 10.7028 59.3865 11.4549C58.6377 12.0308 58.4085 12.8803 58.317 13.3379L60.2781 13.7301L62.2393 14.1223C62.2529 14.0545 62.2552 14.0794 62.2184 14.157C62.1827 14.2321 62.0729 14.4349 61.8253 14.6254C61.5482 14.8385 61.2037 14.9539 60.8603 14.9539C60.5546 14.9539 60.3497 14.8634 60.2807 14.829L61.1751 13.0401ZM60.2781 13.7301L58.3026 13.4182C58.1735 14.2357 58 15.105 57.7805 16.0269L59.7261 16.4901L61.6717 16.9534C61.9122 15.9433 62.1067 14.9725 62.2537 14.042L60.2781 13.7301ZM59.7261 16.4901L57.7615 16.1159C57.5867 17.0335 57.3669 18.0018 57.1009 19.0213L59.0361 19.5261L60.9714 20.031C61.2574 18.9345 61.4976 17.8787 61.6908 16.8643L59.7261 16.4901ZM59.0361 19.5261L57.0842 19.0902L54.0482 32.6832L56.0001 33.1191L57.952 33.5551L60.988 19.9621L59.0361 19.5261ZM111.242 3.93212L110.322 5.70763L110.328 5.71106L110.335 5.71444L111.242 3.93212ZM117.107 9.38311L115.383 10.3972L115.388 10.4047L115.392 10.4121L117.107 9.38311ZM117.107 25.7361L118.822 26.7651L118.827 26.7577L118.831 26.7502L117.107 25.7361ZM111.242 31.1181L110.335 29.3358L110.328 29.3392L110.322 29.3426L111.242 31.1181ZM94.3372 33.0501V31.0501H92.3372V33.0501H94.3372ZM94.3372 25.4601H92.3372V27.4601H94.3372V25.4601ZM108.275 23.2521L106.839 21.8605V21.8605L108.275 23.2521ZM108.275 11.7981L106.839 13.1897V13.1897L108.275 11.7981ZM87.3682 52.3701V50.3701C87.2601 50.3701 87.2491 50.3554 87.2997 50.373C87.3609 50.3942 87.4671 50.4477 87.569 50.5538C87.6692 50.6582 87.7093 50.7552 87.7205 50.7903C87.7289 50.8165 87.7122 50.7788 87.7122 50.6451H85.7122H83.7122C83.7122 51.5084 83.9182 52.5268 84.6834 53.3239C85.4632 54.1363 86.4866 54.3701 87.3682 54.3701V52.3701ZM85.7122 50.6451H87.7122V3.72511H85.7122H83.7122V50.6451H85.7122ZM85.7122 3.72511H87.7122C87.7122 3.59143 87.7289 3.5537 87.7205 3.57998C87.7093 3.61498 87.6692 3.71205 87.569 3.81643C87.4671 3.92257 87.3609 3.97604 87.2997 3.99728C87.2491 4.01485 87.2601 4.00011 87.3682 4.00011V2.00011V0.000114441C86.4866 0.000114441 85.4632 0.233959 84.6834 1.0463C83.9182 1.84341 83.7122 2.86178 83.7122 3.72511H85.7122ZM87.3682 2.00011V4.00011H102.479V2.00011V0.000114441H87.3682V2.00011ZM102.479 2.00011V4.00011C105.58 4.00011 108.174 4.59387 110.322 5.70763L111.242 3.93212L112.163 2.1566C109.343 0.694366 106.094 0.000114441 102.479 0.000114441V2.00011ZM111.242 3.93212L110.335 5.71444C112.54 6.83727 114.205 8.39444 115.383 10.3972L117.107 9.38311L118.831 8.36908C117.249 5.67979 115.004 3.60297 112.15 2.14979L111.242 3.93212ZM117.107 9.38311L115.392 10.4121C116.557 12.3528 117.177 14.6986 117.177 17.5251H119.177H121.177C121.177 14.0957 120.418 11.0134 118.822 8.35412L117.107 9.38311ZM119.177 17.5251H117.177C117.177 20.3506 116.557 22.7269 115.383 24.7221L117.107 25.7361L118.831 26.7502C120.417 24.0533 121.177 20.9556 121.177 17.5251H119.177ZM117.107 25.7361L115.392 24.7071C114.217 26.6661 112.551 28.2077 110.335 29.3358L111.242 31.1181L112.15 32.9004C114.994 31.4525 117.238 29.4062 118.822 26.7651L117.107 25.7361ZM111.242 31.1181L110.322 29.3426C108.174 30.4564 105.58 31.0501 102.479 31.0501V33.0501V35.0501C106.094 35.0501 109.343 34.3559 112.163 32.8936L111.242 31.1181ZM102.479 33.0501V31.0501H94.3372V33.0501V35.0501H102.479V33.0501ZM94.3372 33.0501H92.3372V50.6451H94.3372H96.3372V33.0501H94.3372ZM94.3372 50.6451H92.3372C92.3372 50.7719 92.3206 50.8014 92.332 50.7673C92.3466 50.7236 92.3911 50.6252 92.4917 50.5247C92.5923 50.4241 92.6906 50.3795 92.7344 50.3649C92.7685 50.3536 92.739 50.3701 92.6122 50.3701V52.3701V54.3701C93.4955 54.3701 94.5253 54.1479 95.3201 53.3531C96.115 52.5582 96.3372 51.5284 96.3372 50.6451H94.3372ZM92.6122 52.3701V50.3701H87.3682V52.3701V54.3701H92.6122V52.3701ZM94.3372 25.4601V27.4601H102.479V25.4601V23.4601H94.3372V25.4601ZM102.479 25.4601V27.4601C105.348 27.4601 107.838 26.5775 109.712 24.6437L108.275 23.2521L106.839 21.8605C105.86 22.8707 104.486 23.4601 102.479 23.4601V25.4601ZM108.275 23.2521L109.712 24.6437C111.552 22.7441 112.414 20.3093 112.414 17.5251H110.414H108.414C108.414 19.4329 107.85 20.8161 106.839 21.8605L108.275 23.2521ZM110.414 17.5251H112.414C112.414 14.7409 111.552 12.3061 109.712 10.4065L108.275 11.7981L106.839 13.1897C107.85 14.2341 108.414 15.6173 108.414 17.5251H110.414ZM108.275 11.7981L109.712 10.4065C107.838 8.47271 105.348 7.59012 102.479 7.59012V9.59012V11.5901C104.486 11.5901 105.86 12.1795 106.839 13.1897L108.275 11.7981ZM102.479 9.59012V7.59012H96.0622V9.59012V11.5901H102.479V9.59012ZM96.0622 9.59012V7.59012C95.1988 7.59012 94.1805 7.79611 93.3834 8.56134C92.571 9.34119 92.3372 10.3646 92.3372 11.2461H94.3372H96.3372C96.3372 11.138 96.3519 11.127 96.3343 11.1776C96.3131 11.2388 96.2596 11.345 96.1535 11.4469C96.0491 11.5471 95.952 11.5873 95.917 11.5985C95.8908 11.6069 95.9285 11.5901 96.0622 11.5901V9.59012ZM94.3372 11.2461H92.3372V25.4601H94.3372H96.3372V11.2461H94.3372ZM125.36 52.3701H123.36V54.3701H125.36V52.3701ZM125.36 2.00011V0.000114441H123.36V2.00011H125.36ZM133.226 2.00011H135.226V0.000114441H133.226V2.00011ZM133.088 32.0841L135.086 32.177V32.177L133.088 32.0841ZM132.743 37.8801L130.749 37.7342V37.7342L132.743 37.8801ZM132.398 42.7101L130.403 42.5725L134.291 43.3551L132.398 42.7101ZM146.267 2.00011V0.000114441H144.836L144.374 1.35516L146.267 2.00011ZM156.824 2.00011H158.824V0.000114441H156.824V2.00011ZM156.824 52.3701V54.3701H158.824V52.3701H156.824ZM148.958 52.3701H146.958V54.3701H148.958V52.3701ZM149.096 22.9761L147.101 22.8431L147.099 22.8652L147.098 22.8873L149.096 22.9761ZM149.51 16.9041L151.505 17.0433L151.506 17.0402L149.51 16.9041ZM149.924 11.6601L151.915 11.8468L148.033 11.0094L149.924 11.6601ZM135.917 52.3701V54.3701H137.344L137.808 53.0208L135.917 52.3701ZM125.36 52.3701H127.36V2.00011H125.36H123.36V52.3701H125.36ZM125.36 2.00011V4.00011H133.226V2.00011V0.000114441H125.36V2.00011ZM133.226 2.00011H131.226V26.6331H133.226H135.226V2.00011H133.226ZM133.226 26.6331H131.226C131.226 28.2528 131.181 30.0384 131.09 31.9912L133.088 32.0841L135.086 32.177C135.179 30.1739 135.226 28.3254 135.226 26.6331H133.226ZM133.088 32.0841L131.09 31.9912C130.999 33.9523 130.885 35.8666 130.749 37.7342L132.743 37.8801L134.738 38.0261C134.877 36.1216 134.993 34.1719 135.086 32.177L133.088 32.0841ZM132.743 37.8801L130.749 37.7342C130.61 39.6219 130.495 41.2349 130.403 42.5725L132.398 42.7101L134.393 42.8477C134.485 41.5174 134.6 39.9103 134.738 38.0261L132.743 37.8801ZM132.398 42.7101L134.291 43.3551L148.16 2.64507L146.267 2.00011L144.374 1.35516L130.505 42.0652L132.398 42.7101ZM146.267 2.00011V4.00011H156.824V2.00011V0.000114441H146.267V2.00011ZM156.824 2.00011H154.824V52.3701H156.824H158.824V2.00011H156.824ZM156.824 52.3701V50.3701H148.958V52.3701V54.3701H156.824V52.3701ZM148.958 52.3701H150.958V28.4961H148.958H146.958V52.3701H148.958ZM148.958 28.4961H150.958C150.958 26.9227 151.003 25.1132 151.094 23.0649L149.096 22.9761L147.098 22.8873C147.005 24.979 146.958 26.8495 146.958 28.4961H148.958ZM149.096 22.9761L151.092 23.1092C151.23 21.0411 151.368 19.0192 151.505 17.0433L149.51 16.9041L147.515 16.7649C147.377 18.7451 147.239 20.7711 147.101 22.8431L149.096 22.9761ZM149.51 16.9041L151.506 17.0402C151.643 15.0273 151.78 13.2971 151.915 11.8468L149.924 11.6601L147.933 11.4734C147.793 12.9672 147.654 14.7329 147.515 16.7681L149.51 16.9041ZM149.924 11.6601L148.033 11.0094L134.026 51.7194L135.917 52.3701L137.808 53.0208L151.815 12.3108L149.924 11.6601ZM135.917 52.3701V50.3701H125.36V52.3701V54.3701H135.917V52.3701ZM174.323 22.4241H172.323V24.4241H174.323V22.4241ZM187.847 22.4241V24.4241H189.847V22.4241H187.847ZM187.847 30.2211H189.847V28.2211H187.847V30.2211ZM174.323 30.2211V28.2211H172.323V30.2211H174.323ZM167.423 52.3701V50.3701C167.296 50.3701 167.267 50.3536 167.301 50.3649C167.345 50.3795 167.443 50.4241 167.544 50.5247C167.644 50.6252 167.689 50.7236 167.703 50.7673C167.715 50.8014 167.698 50.7719 167.698 50.6451H165.698H163.698C163.698 51.5284 163.92 52.5582 164.715 53.3531C165.51 54.1479 166.54 54.3701 167.423 54.3701V52.3701ZM165.698 50.6451H167.698V3.72511H165.698H163.698V50.6451H165.698ZM165.698 3.72511H167.698C167.698 3.59831 167.715 3.56878 167.703 3.60288C167.689 3.64667 167.644 3.745 167.544 3.84558C167.443 3.94616 167.345 3.9907 167.301 4.00529C167.267 4.01666 167.296 4.00011 167.423 4.00011V2.00011V0.000114441C166.54 0.000114441 165.51 0.222294 164.715 1.01715C163.92 1.81201 163.698 2.84182 163.698 3.72511H165.698ZM167.423 2.00011V4.00011H172.667V2.00011V0.000114441H167.423V2.00011ZM172.667 2.00011V4.00011C172.775 4.00011 172.786 4.01485 172.736 3.99728C172.675 3.97604 172.568 3.92257 172.466 3.81643C172.366 3.71205 172.326 3.61499 172.315 3.57998C172.307 3.5537 172.323 3.59143 172.323 3.72511H174.323H176.323C176.323 2.86178 176.117 1.84341 175.352 1.0463C174.572 0.233959 173.549 0.000114441 172.667 0.000114441V2.00011ZM174.323 3.72511H172.323V22.4241H174.323H176.323V3.72511H174.323ZM174.323 22.4241V24.4241H187.847V22.4241V20.4241H174.323V22.4241ZM187.847 22.4241H189.847V3.72511H187.847H185.847V22.4241H187.847ZM187.847 3.72511H189.847C189.847 3.59143 189.864 3.5537 189.856 3.57998C189.844 3.61498 189.804 3.71205 189.704 3.81643C189.602 3.92257 189.496 3.97604 189.435 3.99728C189.384 4.01485 189.395 4.00011 189.503 4.00011V2.00011V0.000114441C188.622 0.000114441 187.598 0.233959 186.818 1.0463C186.053 1.84341 185.847 2.86178 185.847 3.72511H187.847ZM189.503 2.00011V4.00011H194.747V2.00011V0.000114441H189.503V2.00011ZM194.747 2.00011V4.00011C194.874 4.00011 194.904 4.01666 194.87 4.00529C194.826 3.9907 194.727 3.94616 194.627 3.84558C194.526 3.745 194.482 3.64667 194.467 3.60288C194.456 3.56878 194.472 3.59831 194.472 3.72511H196.472H198.472C198.472 2.84182 198.25 1.81201 197.455 1.01715C196.66 0.222294 195.631 0.000114441 194.747 0.000114441V2.00011ZM196.472 3.72511H194.472V50.6451H196.472H198.472V3.72511H196.472ZM196.472 50.6451H194.472C194.472 50.7719 194.456 50.8014 194.467 50.7673C194.482 50.7236 194.526 50.6252 194.627 50.5247C194.727 50.4241 194.826 50.3795 194.87 50.3649C194.904 50.3536 194.874 50.3701 194.747 50.3701V52.3701V54.3701C195.631 54.3701 196.66 54.1479 197.455 53.3531C198.25 52.5582 198.472 51.5284 198.472 50.6451H196.472ZM194.747 52.3701V50.3701H189.503V52.3701V54.3701H194.747V52.3701ZM189.503 52.3701V50.3701C189.395 50.3701 189.384 50.3554 189.435 50.373C189.496 50.3942 189.602 50.4477 189.704 50.5538C189.804 50.6582 189.844 50.7552 189.856 50.7903C189.864 50.8165 189.847 50.7788 189.847 50.6451H187.847H185.847C185.847 51.5084 186.053 52.5268 186.818 53.3239C187.598 54.1363 188.622 54.3701 189.503 54.3701V52.3701ZM187.847 50.6451H189.847V30.2211H187.847H185.847V50.6451H187.847ZM187.847 30.2211V28.2211H174.323V30.2211V32.2211H187.847V30.2211ZM174.323 30.2211H172.323V50.6451H174.323H176.323V30.2211H174.323ZM174.323 50.6451H172.323C172.323 50.7788 172.307 50.8165 172.315 50.7903C172.326 50.7552 172.366 50.6582 172.466 50.5538C172.568 50.4477 172.675 50.3942 172.736 50.373C172.786 50.3554 172.775 50.3701 172.667 50.3701V52.3701V54.3701C173.549 54.3701 174.572 54.1363 175.352 53.3239C176.117 52.5268 176.323 51.5084 176.323 50.6451H174.323ZM172.667 52.3701V50.3701H167.423V52.3701V54.3701H172.667V52.3701ZM203.345 50.5071L205.281 51.009L205.283 51.0013L205.285 50.9935L203.345 50.5071ZM215.144 3.44911L217.084 3.93552L217.087 3.92396L217.09 3.91235L215.144 3.44911ZM226.943 3.44911L224.998 3.91235L225.001 3.9253L225.004 3.9382L226.943 3.44911ZM238.811 50.5071L236.872 50.9962L236.875 51.009L238.811 50.5071ZM230.255 50.8521L232.223 50.4943L232.214 50.4468L232.203 50.3996L230.255 50.8521ZM227.771 40.1571L229.719 39.7046L229.36 38.1571H227.771V40.1571ZM214.385 40.1571V38.1571H212.787L212.434 39.7166L214.385 40.1571ZM211.97 50.8521L213.921 51.2954L213.921 51.2926L211.97 50.8521ZM215.972 33.1191L214.02 32.6832L213.476 35.1191H215.972V33.1191ZM226.184 33.1191V35.1191H228.683L228.136 32.681L226.184 33.1191ZM223.148 19.5951L225.1 19.157L225.097 19.1444L225.094 19.1319L223.148 19.5951ZM222.527 16.9041L220.555 17.2329L220.563 17.2857L220.575 17.338L222.527 16.9041ZM222.113 14.5581L224.079 14.1895L224.073 14.1568L224.066 14.1243L222.113 14.5581ZM221.147 13.0401L220.253 14.829L220.327 14.8662L220.405 14.8971L221.147 13.0401ZM220.25 13.7301L218.289 13.3379L218.281 13.3779L218.275 13.4182L220.25 13.7301ZM219.698 16.4901L217.753 16.0269L217.742 16.0712L217.734 16.1159L219.698 16.4901ZM219.008 19.5261L217.073 19.0213L217.064 19.0556L217.056 19.0902L219.008 19.5261ZM204.794 52.3701V50.3701C204.62 50.3701 204.587 50.3474 204.641 50.3663C204.712 50.391 204.887 50.4741 205.045 50.6765C205.203 50.8793 205.241 51.0719 205.247 51.15C205.253 51.2103 205.238 51.1757 205.281 51.009L203.345 50.5071L201.409 50.0052C201.19 50.8495 201.077 52.0897 201.887 53.1322C202.696 54.1718 203.923 54.3701 204.794 54.3701V52.3701ZM203.345 50.5071L205.285 50.9935L217.084 3.93552L215.144 3.44911L213.204 2.9627L201.405 50.0207L203.345 50.5071ZM215.144 3.44911L217.09 3.91235C217.11 3.82991 217.125 3.81012 217.115 3.82802C217.109 3.83736 217.098 3.85455 217.079 3.87599C217.061 3.89764 217.037 3.92006 217.01 3.94107C216.983 3.96206 216.957 3.97818 216.934 3.98987C216.911 4.00142 216.895 4.00676 216.889 4.00855C216.878 4.01176 216.911 4.00011 217.007 4.00011V2.00011V0.000114441C216.185 0.000114441 215.306 0.199451 214.555 0.783661C213.799 1.37106 213.391 2.17865 213.199 2.98587L215.144 3.44911ZM217.007 2.00011V4.00011H225.08V2.00011V0.000114441H217.007V2.00011ZM225.08 2.00011V4.00011C225.176 4.00011 225.21 4.01176 225.199 4.00855C225.193 4.00676 225.177 4.00142 225.154 3.98987C225.131 3.97818 225.104 3.96206 225.077 3.94107C225.05 3.92006 225.027 3.89764 225.008 3.87599C224.99 3.85455 224.978 3.83736 224.973 3.82802C224.962 3.81013 224.978 3.82991 224.998 3.91235L226.943 3.44911L228.889 2.98587C228.697 2.17865 228.288 1.37106 227.533 0.783661C226.782 0.199451 225.902 0.000114441 225.08 0.000114441V2.00011ZM226.943 3.44911L225.004 3.9382L236.872 50.9962L238.811 50.5071L240.751 50.018L228.883 2.96003L226.943 3.44911ZM238.811 50.5071L236.875 51.009C236.919 51.1757 236.904 51.2103 236.909 51.15C236.916 51.0719 236.954 50.8793 237.112 50.6765C237.269 50.4741 237.445 50.391 237.516 50.3663C237.57 50.3474 237.537 50.3701 237.362 50.3701V52.3701V54.3701C238.233 54.3701 239.461 54.1718 240.269 53.1322C241.08 52.0897 240.966 50.8495 240.747 50.0052L238.811 50.5071ZM237.362 52.3701V50.3701H232.049V52.3701V54.3701H237.362V52.3701ZM232.049 52.3701V50.3701C231.961 50.3701 231.941 50.3588 231.968 50.3673C232 50.3775 232.065 50.4056 232.134 50.4638C232.202 50.5218 232.237 50.5776 232.249 50.6003C232.258 50.6179 232.241 50.5914 232.223 50.4943L230.255 50.8521L228.288 51.2099C228.436 52.0278 228.799 52.8821 229.55 53.5174C230.305 54.156 231.211 54.3701 232.049 54.3701V52.3701ZM230.255 50.8521L232.203 50.3996L229.719 39.7046L227.771 40.1571L225.823 40.6096L228.307 51.3046L230.255 50.8521ZM227.771 40.1571V38.1571H214.385V40.1571V42.1571H227.771V40.1571ZM214.385 40.1571L212.434 39.7166L210.019 50.4116L211.97 50.8521L213.921 51.2926L216.336 40.5976L214.385 40.1571ZM211.97 50.8521L210.02 50.4089C209.997 50.5096 209.976 50.5445 209.98 50.5382C209.982 50.5345 209.99 50.5212 210.006 50.5023C210.021 50.4831 210.043 50.4615 210.069 50.4401C210.095 50.4188 210.122 50.4014 210.147 50.388C210.172 50.3749 210.191 50.3679 210.201 50.3649C210.22 50.359 210.195 50.3701 210.107 50.3701V52.3701V54.3701C210.95 54.3701 211.843 54.1545 212.595 53.5411C213.343 52.9322 213.736 52.107 213.921 51.2954L211.97 50.8521ZM210.107 52.3701V50.3701H204.794V52.3701V54.3701H210.107V52.3701ZM215.972 33.1191V35.1191H226.184V33.1191V31.1191H215.972V33.1191ZM226.184 33.1191L228.136 32.681L225.1 19.157L223.148 19.5951L221.197 20.0332L224.233 33.5572L226.184 33.1191ZM223.148 19.5951L225.094 19.1319C224.866 18.1741 224.661 17.287 224.48 16.4703L222.527 16.9041L220.575 17.338C220.761 18.1773 220.971 19.0842 221.203 20.0584L223.148 19.5951ZM222.527 16.9041L224.5 16.5753C224.36 15.7356 224.22 14.9402 224.079 14.1895L222.113 14.5581L220.148 14.9267C220.283 15.648 220.418 16.4166 220.555 17.2329L222.527 16.9041ZM222.113 14.5581L224.066 14.1243C223.84 13.1082 223.298 11.7463 221.89 11.1832L221.147 13.0401L220.405 14.8971C220.296 14.8537 220.208 14.7953 220.143 14.7382C220.081 14.6832 220.052 14.64 220.047 14.6314C220.042 14.6237 220.056 14.6443 220.079 14.7068C220.103 14.7689 220.132 14.8617 220.161 14.992L222.113 14.5581ZM221.147 13.0401L222.042 11.2513C221.417 10.9388 220.336 10.7028 219.359 11.4549C218.61 12.0308 218.381 12.8803 218.289 13.3379L220.25 13.7301L222.211 14.1223C222.225 14.0545 222.227 14.0794 222.191 14.157C222.155 14.2321 222.045 14.4349 221.798 14.6254C221.52 14.8385 221.176 14.9539 220.833 14.9539C220.527 14.9539 220.322 14.8634 220.253 14.829L221.147 13.0401ZM220.25 13.7301L218.275 13.4182C218.146 14.2357 217.972 15.105 217.753 16.0269L219.698 16.4901L221.644 16.9534C221.884 15.9433 222.079 14.9725 222.226 14.042L220.25 13.7301ZM219.698 16.4901L217.734 16.1159C217.559 17.0335 217.339 18.0018 217.073 19.0213L219.008 19.5261L220.944 20.031C221.23 18.9345 221.47 17.8787 221.663 16.8643L219.698 16.4901ZM219.008 19.5261L217.056 19.0902L214.02 32.6832L215.972 33.1191L217.924 33.5551L220.96 19.9621L219.008 19.5261ZM294.233 22.5621H292.233V24.5621H294.233V22.5621ZM300.167 22.5621V24.5621H301.44L301.979 23.4097L300.167 22.5621ZM309.206 3.24212L311.018 4.08966L311.026 4.07211L311.034 4.05439L309.206 3.24212ZM318.176 2.62112L316.428 3.5924L316.494 3.71183L316.576 3.82112L318.176 2.62112ZM318.176 4.00111L316.388 3.10669L316.378 3.12596L316.369 3.14543L318.176 4.00111ZM307.757 26.0121L305.95 25.1564L305.555 25.9913L305.934 26.8335L307.757 26.0121ZM318.728 50.3691L316.905 51.1905L316.921 51.2274L316.94 51.2635L318.728 50.3691ZM318.728 51.8181L317.064 50.7087L317.048 50.7332L317.032 50.7581L318.728 51.8181ZM309.482 51.0591L311.326 50.283L311.317 50.2626L311.308 50.2424L309.482 51.0591ZM300.098 30.0831L301.924 29.2664L301.395 28.0831H300.098V30.0831ZM294.233 30.0831V28.0831H292.233V30.0831H294.233ZM287.333 52.3701V50.3701C287.207 50.3701 287.177 50.3536 287.211 50.3649C287.255 50.3795 287.353 50.4241 287.454 50.5247C287.554 50.6252 287.599 50.7236 287.614 50.7673C287.625 50.8014 287.608 50.7719 287.608 50.6451H285.608H283.608C283.608 51.5284 283.831 52.5582 284.625 53.3531C285.42 54.1479 286.45 54.3701 287.333 54.3701V52.3701ZM285.608 50.6451H287.608V3.72511H285.608H283.608V50.6451H285.608ZM285.608 3.72511H287.608C287.608 3.59831 287.625 3.56878 287.614 3.60288C287.599 3.64667 287.554 3.745 287.454 3.84558C287.353 3.94616 287.255 3.9907 287.211 4.00529C287.177 4.01666 287.207 4.00011 287.333 4.00011V2.00011V0.000114441C286.45 0.000114441 285.42 0.222294 284.625 1.01715C283.831 1.81201 283.608 2.84182 283.608 3.72511H285.608ZM287.333 2.00011V4.00011H292.577V2.00011V0.000114441H287.333V2.00011ZM292.577 2.00011V4.00011C292.685 4.00011 292.697 4.01485 292.646 3.99728C292.585 3.97604 292.479 3.92257 292.377 3.81643C292.276 3.71205 292.236 3.61499 292.225 3.57998C292.217 3.5537 292.233 3.59143 292.233 3.72511H294.233H296.233C296.233 2.86178 296.027 1.84341 295.262 1.0463C294.482 0.233959 293.459 0.000114441 292.577 0.000114441V2.00011ZM294.233 3.72511H292.233V22.5621H294.233H296.233V3.72511H294.233ZM294.233 22.5621V24.5621H300.167V22.5621V20.5621H294.233V22.5621ZM300.167 22.5621L301.979 23.4097L311.018 4.08966L309.206 3.24212L307.395 2.39457L298.356 21.7146L300.167 22.5621ZM309.206 3.24212L311.034 4.05439C311.063 3.98855 311.084 3.96332 311.085 3.96209C311.085 3.96141 311.082 3.96532 311.075 3.97186C311.067 3.97847 311.058 3.98587 311.047 3.99297C311.023 4.00863 311.007 4.01251 311.012 4.01115C311.019 4.00917 311.058 4.00011 311.138 4.00011V2.00011V0.000114441C310.373 0.000114441 309.589 0.175308 308.884 0.628258C308.177 1.08252 307.692 1.72583 307.379 2.42984L309.206 3.24212ZM311.138 2.00011V4.00011H316.865V2.00011V0.000114441H311.138V2.00011ZM316.865 2.00011V4.00011C316.985 4.00011 316.943 4.02087 316.82 3.96284C316.755 3.9321 316.678 3.8838 316.602 3.81322C316.526 3.74234 316.468 3.66499 316.428 3.5924L318.176 2.62112L319.925 1.64983C319.218 0.377609 317.938 0.000114441 316.865 0.000114441V2.00011ZM318.176 2.62112L316.576 3.82112C316.523 3.7505 316.471 3.65806 316.434 3.54682C316.397 3.43558 316.383 3.33038 316.383 3.24212C316.383 3.07419 316.432 3.01789 316.388 3.10669L318.176 4.00111L319.965 4.89554C320.445 3.93611 320.664 2.60397 319.776 1.42112L318.176 2.62112ZM318.176 4.00111L316.369 3.14543L305.95 25.1564L307.757 26.0121L309.565 26.8678L319.984 4.8568L318.176 4.00111ZM307.757 26.0121L305.934 26.8335L316.905 51.1905L318.728 50.3691L320.552 49.5477L309.581 25.1907L307.757 26.0121ZM318.728 50.3691L316.94 51.2635C316.976 51.3366 316.935 51.2884 316.935 51.1454C316.935 51.0726 316.946 50.9905 316.972 50.9065C316.998 50.823 317.033 50.7564 317.064 50.7087L318.728 51.8181L320.393 52.9275C321.167 51.7655 321.024 50.4881 320.517 49.4747L318.728 50.3691ZM318.728 51.8181L317.032 50.7581C317.088 50.6688 317.16 50.5868 317.242 50.5188C317.323 50.4519 317.398 50.4116 317.452 50.3888C317.55 50.3475 317.563 50.3701 317.417 50.3701V52.3701V54.3701C318.392 54.3701 319.672 54.0815 320.424 52.8781L318.728 51.8181ZM317.417 52.3701V50.3701H311.483V52.3701V54.3701H317.417V52.3701ZM311.483 52.3701V50.3701C311.392 50.3701 311.345 50.3598 311.332 50.3562C311.321 50.3532 311.333 50.3553 311.355 50.3694C311.377 50.3838 311.386 50.3962 311.384 50.3934C311.38 50.3885 311.357 50.3575 311.326 50.283L309.482 51.0591L307.639 51.8352C307.948 52.5681 308.438 53.2403 309.163 53.7153C309.885 54.1886 310.694 54.3701 311.483 54.3701V52.3701ZM309.482 51.0591L311.308 50.2424L301.924 29.2664L300.098 30.0831L298.273 30.8998L307.657 51.8759L309.482 51.0591ZM300.098 30.0831V28.0831H294.233V30.0831V32.0831H300.098V30.0831ZM294.233 30.0831H292.233V50.6451H294.233H296.233V30.0831H294.233ZM294.233 50.6451H292.233C292.233 50.7788 292.217 50.8165 292.225 50.7903C292.236 50.7552 292.276 50.6582 292.377 50.5538C292.479 50.4477 292.585 50.3942 292.646 50.373C292.697 50.3554 292.685 50.3701 292.577 50.3701V52.3701V54.3701C293.459 54.3701 294.482 54.1363 295.262 53.3239C296.027 52.5268 296.233 51.5084 296.233 50.6451H294.233ZM292.577 52.3701V50.3701H287.333V52.3701V54.3701H292.577V52.3701ZM332.294 52.3701L330.438 51.6256L329.337 54.3701H332.294V52.3701ZM337.469 39.4671L339.326 40.2116L339.621 39.4753L339.331 38.7368L337.469 39.4671ZM322.772 2.00011V0.000114441H319.84L320.911 2.73046L322.772 2.00011ZM332.156 2.00011L334.049 1.35357L333.587 0.000114441H332.156V2.00011ZM339.746 24.2181L337.854 24.8647L337.858 24.8778L337.863 24.8908L339.746 24.2181ZM340.919 28.2891L338.969 28.7296L338.977 28.7672L338.987 28.8044L340.919 28.2891ZM341.609 31.6701L339.62 31.8795L343.598 31.8795L341.609 31.6701ZM342.161 28.2891L340.211 27.8486L340.205 27.8727L340.2 27.8969L342.161 28.2891ZM343.196 24.2181L341.288 23.6195L341.28 23.644L341.273 23.6687L343.196 24.2181ZM350.165 2.00011V0.000114441H348.697L348.257 1.40154L350.165 2.00011ZM359.342 2.00011L361.227 2.67115L362.178 0.000114441H359.342V2.00011ZM341.402 52.3701V54.3701H342.813L343.287 53.0412L341.402 52.3701ZM332.294 52.3701L334.151 53.1146L339.326 40.2116L337.469 39.4671L335.613 38.7226L330.438 51.6256L332.294 52.3701ZM337.469 39.4671L339.331 38.7368L324.634 1.26977L322.772 2.00011L320.911 2.73046L335.608 40.1975L337.469 39.4671ZM322.772 2.00011V4.00011H332.156V2.00011V0.000114441H322.772V2.00011ZM332.156 2.00011L330.264 2.64666L337.854 24.8647L339.746 24.2181L341.639 23.5716L334.049 1.35357L332.156 2.00011ZM339.746 24.2181L337.863 24.8908C338.294 26.0978 338.663 27.377 338.969 28.7296L340.919 28.2891L342.87 27.8486C342.532 26.3493 342.119 24.9144 341.63 23.5454L339.746 24.2181ZM340.919 28.2891L338.987 28.8044C339.343 30.1378 339.544 31.1523 339.62 31.8795L341.609 31.6701L343.598 31.4607C343.491 30.4399 343.232 29.2004 342.852 27.7738L340.919 28.2891ZM341.609 31.6701L343.598 31.8795C343.681 31.092 343.852 30.0321 344.123 28.6813L342.161 28.2891L340.2 27.8969C339.918 29.3061 339.722 30.5003 339.62 31.4607L341.609 31.6701ZM342.161 28.2891L344.112 28.7296C344.427 27.3369 344.763 26.0164 345.12 24.7676L343.196 24.2181L341.273 23.6687C340.894 24.9958 340.54 26.3893 340.211 27.8486L342.161 28.2891ZM343.196 24.2181L345.105 24.8167L352.074 2.59869L350.165 2.00011L348.257 1.40154L341.288 23.6195L343.196 24.2181ZM350.165 2.00011V4.00011H359.342V2.00011V0.000114441H350.165V2.00011ZM359.342 2.00011L357.458 1.32908L339.518 51.6991L341.402 52.3701L343.287 53.0412L361.227 2.67115L359.342 2.00011ZM341.402 52.3701V50.3701H332.294V52.3701V54.3701H341.402V52.3701ZM391.193 3.93212L390.273 5.70763L390.279 5.71106L390.286 5.71444L391.193 3.93212ZM397.059 9.38311L395.335 10.3972L395.339 10.4047L395.344 10.4121L397.059 9.38311ZM397.059 25.7361L398.773 26.7651L398.778 26.7577L398.782 26.7502L397.059 25.7361ZM391.193 31.1181L390.286 29.3358L390.279 29.3392L390.273 29.3426L391.193 31.1181ZM374.288 33.0501V31.0501H372.288V33.0501H374.288ZM374.288 25.4601H372.288V27.4601H374.288V25.4601ZM388.227 23.2521L386.79 21.8605V21.8605L388.227 23.2521ZM388.227 11.7981L386.79 13.1897V13.1897L388.227 11.7981ZM367.319 52.3701V50.3701C367.211 50.3701 367.2 50.3554 367.251 50.373C367.312 50.3942 367.418 50.4477 367.52 50.5538C367.62 50.6582 367.661 50.7552 367.672 50.7903C367.68 50.8165 367.663 50.7788 367.663 50.6451H365.663H363.663C363.663 51.5084 363.869 52.5268 364.635 53.3239C365.415 54.1363 366.438 54.3701 367.319 54.3701V52.3701ZM365.663 50.6451H367.663V3.72511H365.663H363.663V50.6451H365.663ZM365.663 3.72511H367.663C367.663 3.59143 367.68 3.5537 367.672 3.57998C367.661 3.61498 367.62 3.71205 367.52 3.81643C367.418 3.92257 367.312 3.97604 367.251 3.99728C367.2 4.01485 367.211 4.00011 367.319 4.00011V2.00011V0.000114441C366.438 0.000114441 365.415 0.233959 364.635 1.0463C363.869 1.84341 363.663 2.86178 363.663 3.72511H365.663ZM367.319 2.00011V4.00011H382.43V2.00011V0.000114441H367.319V2.00011ZM382.43 2.00011V4.00011C385.532 4.00011 388.125 4.59387 390.273 5.70763L391.193 3.93212L392.114 2.1566C389.294 0.694366 386.045 0.000114441 382.43 0.000114441V2.00011ZM391.193 3.93212L390.286 5.71444C392.492 6.83727 394.157 8.39444 395.335 10.3972L397.059 9.38311L398.782 8.36908C397.2 5.67979 394.955 3.60297 392.101 2.14979L391.193 3.93212ZM397.059 9.38311L395.344 10.4121C396.508 12.3528 397.129 14.6986 397.129 17.5251H399.129H401.129C401.129 14.0957 400.369 11.0134 398.773 8.35412L397.059 9.38311ZM399.129 17.5251H397.129C397.129 20.3506 396.508 22.7269 395.335 24.7221L397.059 25.7361L398.782 26.7502C400.369 24.0533 401.129 20.9556 401.129 17.5251H399.129ZM397.059 25.7361L395.344 24.7071C394.168 26.6661 392.502 28.2077 390.286 29.3358L391.193 31.1181L392.101 32.9004C394.945 31.4525 397.189 29.4062 398.773 26.7651L397.059 25.7361ZM391.193 31.1181L390.273 29.3426C388.125 30.4564 385.532 31.0501 382.43 31.0501V33.0501V35.0501C386.045 35.0501 389.294 34.3559 392.114 32.8936L391.193 31.1181ZM382.43 33.0501V31.0501H374.288V33.0501V35.0501H382.43V33.0501ZM374.288 33.0501H372.288V50.6451H374.288H376.288V33.0501H374.288ZM374.288 50.6451H372.288C372.288 50.7719 372.272 50.8014 372.283 50.7673C372.298 50.7236 372.342 50.6252 372.443 50.5247C372.544 50.4241 372.642 50.3795 372.686 50.3649C372.72 50.3536 372.69 50.3701 372.564 50.3701V52.3701V54.3701C373.447 54.3701 374.477 54.1479 375.271 53.3531C376.066 52.5582 376.288 51.5284 376.288 50.6451H374.288ZM372.564 52.3701V50.3701H367.319V52.3701V54.3701H372.564V52.3701ZM374.288 25.4601V27.4601H382.43V25.4601V23.4601H374.288V25.4601ZM382.43 25.4601V27.4601C385.299 27.4601 387.79 26.5775 389.663 24.6437L388.227 23.2521L386.79 21.8605C385.811 22.8707 384.438 23.4601 382.43 23.4601V25.4601ZM388.227 23.2521L389.663 24.6437C391.503 22.7441 392.366 20.3093 392.366 17.5251H390.366H388.366C388.366 19.4329 387.802 20.8161 386.79 21.8605L388.227 23.2521ZM390.366 17.5251H392.366C392.366 14.7409 391.503 12.3061 389.663 10.4065L388.227 11.7981L386.79 13.1897C387.802 14.2341 388.366 15.6173 388.366 17.5251H390.366ZM388.227 11.7981L389.663 10.4065C387.79 8.47271 385.299 7.59012 382.43 7.59012V9.59012V11.5901C384.438 11.5901 385.811 12.1795 386.79 13.1897L388.227 11.7981ZM382.43 9.59012V7.59012H376.013V9.59012V11.5901H382.43V9.59012ZM376.013 9.59012V7.59012C375.15 7.59012 374.132 7.79611 373.335 8.56134C372.522 9.34119 372.288 10.3646 372.288 11.2461H374.288H376.288C376.288 11.138 376.303 11.127 376.286 11.1776C376.264 11.2388 376.211 11.345 376.105 11.4469C376 11.5471 375.903 11.5873 375.868 11.5985C375.842 11.6069 375.88 11.5901 376.013 11.5901V9.59012ZM374.288 11.2461H372.288V25.4601H374.288H376.288V11.2461H374.288ZM401.931 62.0301H399.931V64.0301H401.931V62.0301ZM401.931 45.1251V43.1251H399.931V45.1251H401.931ZM404.484 45.1251V47.1251H405.609L406.193 46.1631L404.484 45.1251ZM406.899 39.1221L408.812 39.7057V39.7057L406.899 39.1221ZM408.21 30.0831L406.21 30.0536L406.21 30.0553L408.21 30.0831ZM408.624 2.00011V0.000114441H406.653L406.624 1.97063L408.624 2.00011ZM435.741 2.00011H437.741V0.000114441H435.741V2.00011ZM435.741 45.1251H433.741V47.1251H435.741V45.1251ZM440.157 45.1251H442.157V43.1251H440.157V45.1251ZM440.157 62.0301V64.0301H442.157V62.0301H440.157ZM432.222 62.0301H430.222V64.0301H432.222V62.0301ZM432.222 52.3701H434.222V50.3701H432.222V52.3701ZM409.866 52.3701V50.3701H407.866V52.3701H409.866ZM409.866 62.0301V64.0301H411.866V62.0301H409.866ZM413.109 45.1251L411.36 44.1538L409.71 47.1251H413.109V45.1251ZM427.461 45.1251V47.1251H429.461V45.1251H427.461ZM427.461 9.31412H429.461V7.31412H427.461V9.31412ZM416.697 9.31412V7.31412H414.73L414.697 9.2809L416.697 9.31412ZM416.352 30.0831L414.352 30.0499L414.352 30.0665V30.0831H416.352ZM415.248 39.1911L413.317 38.6676V38.6676L415.248 39.1911ZM401.931 62.0301H403.931V45.1251H401.931H399.931V62.0301H401.931ZM401.931 45.1251V47.1251H404.484V45.1251V43.1251H401.931V45.1251ZM404.484 45.1251L406.193 46.1631C407.107 44.658 407.97 42.4653 408.812 39.7057L406.899 39.1221L404.986 38.5385C404.172 41.207 403.424 43.0162 402.774 44.0872L404.484 45.1251ZM406.899 39.1221L408.812 39.7057C409.703 36.7843 410.161 33.5807 410.209 30.1109L408.21 30.0831L406.21 30.0553C406.166 33.2096 405.75 36.0319 404.986 38.5385L406.899 39.1221ZM408.21 30.0831L410.209 30.1126L410.623 2.0296L408.624 2.00011L406.624 1.97063L406.21 30.0536L408.21 30.0831ZM408.624 2.00011V4.00011H435.741V2.00011V0.000114441H408.624V2.00011ZM435.741 2.00011H433.741V45.1251H435.741H437.741V2.00011H435.741ZM435.741 45.1251V47.1251H440.157V45.1251V43.1251H435.741V45.1251ZM440.157 45.1251H438.157V62.0301H440.157H442.157V45.1251H440.157ZM440.157 62.0301V60.0301H432.222V62.0301V64.0301H440.157V62.0301ZM432.222 62.0301H434.222V52.3701H432.222H430.222V62.0301H432.222ZM432.222 52.3701V50.3701H409.866V52.3701V54.3701H432.222V52.3701ZM409.866 52.3701H407.866V62.0301H409.866H411.866V52.3701H409.866ZM409.866 62.0301V60.0301H401.931V62.0301V64.0301H409.866V62.0301ZM413.109 45.1251V47.1251H427.461V45.1251V43.1251H413.109V45.1251ZM427.461 45.1251H429.461V9.31412H427.461H425.461V45.1251H427.461ZM427.461 9.31412V7.31412H416.697V9.31412V11.3141H427.461V9.31412ZM416.697 9.31412L414.697 9.2809L414.352 30.0499L416.352 30.0831L418.351 30.1163L418.696 9.34734L416.697 9.31412ZM416.352 30.0831H414.352C414.352 33.2974 413.999 36.1535 413.317 38.6676L415.248 39.1911L417.178 39.7146C417.968 36.8007 418.352 33.5848 418.352 30.0831H416.352ZM415.248 39.1911L413.317 38.6676C412.591 41.3463 411.928 43.1317 411.36 44.1538L413.109 45.1251L414.857 46.0964C415.669 44.6346 416.432 42.464 417.178 39.7146L415.248 39.1911ZM443.58 52.3701H441.58V54.3701H443.58V52.3701ZM443.58 2.00011V0.000114441H441.58V2.00011H443.58ZM451.17 2.00011H453.17V0.000114441H451.17V2.00011ZM451.17 22.0791H449.17V24.0791H451.17V22.0791ZM463.452 25.6671L462.037 27.0813L462.044 27.0882L462.051 27.095L463.452 25.6671ZM463.452 48.8511L464.852 50.279L464.859 50.2722L464.866 50.2653L463.452 48.8511ZM470.904 52.3701H468.904V54.3701H470.904V52.3701ZM470.904 2.00011V0.000114441H468.904V2.00011H470.904ZM478.494 2.00011H480.494V0.000114441H478.494V2.00011ZM478.494 52.3701V54.3701H480.494V52.3701H478.494ZM451.17 45.4701H449.17V47.4701H451.17V45.4701ZM458.139 43.8141L456.724 42.3999L456.709 42.4149L456.695 42.4303L458.139 43.8141ZM458.139 30.7041L456.667 32.0582L456.695 32.0889L456.724 32.1183L458.139 30.7041ZM451.17 28.9791V26.9791H449.17V28.9791H451.17ZM443.58 52.3701H445.58V2.00011H443.58H441.58V52.3701H443.58ZM443.58 2.00011V4.00011H451.17V2.00011V0.000114441H443.58V2.00011ZM451.17 2.00011H449.17V22.0791H451.17H453.17V2.00011H451.17ZM451.17 22.0791V24.0791H453.723V22.0791V20.0791H451.17V22.0791ZM453.723 22.0791V24.0791C457.405 24.0791 460.097 25.1409 462.037 27.0813L463.452 25.6671L464.866 24.2529C462.022 21.4093 458.228 20.0791 453.723 20.0791V22.0791ZM463.452 25.6671L462.051 27.095C463.977 28.9842 465.04 31.643 465.04 35.3271H467.04H469.04C469.04 30.8232 467.71 27.042 464.852 24.2392L463.452 25.6671ZM467.04 35.3271H465.04V39.2601H467.04H469.04V35.3271H467.04ZM467.04 39.2601H465.04C465.04 42.8361 463.986 45.4879 462.037 47.4369L463.452 48.8511L464.866 50.2653C467.701 47.4304 469.04 43.6882 469.04 39.2601H467.04ZM463.452 48.8511L462.051 47.4232C460.113 49.3244 457.416 50.3701 453.723 50.3701V52.3701V54.3701C458.217 54.3701 462.006 53.0698 464.852 50.279L463.452 48.8511ZM453.723 52.3701V50.3701H443.58V52.3701V54.3701H453.723V52.3701ZM470.904 52.3701H472.904V2.00011H470.904H468.904V52.3701H470.904ZM470.904 2.00011V4.00011H478.494V2.00011V0.000114441H470.904V2.00011ZM478.494 2.00011H476.494V52.3701H478.494H480.494V2.00011H478.494ZM478.494 52.3701V50.3701H470.904V52.3701V54.3701H478.494V52.3701ZM451.17 45.4701V47.4701H453.723V45.4701V43.4701H451.17V45.4701ZM453.723 45.4701V47.4701C456.018 47.4701 458.063 46.7839 459.583 45.1979L458.139 43.8141L456.695 42.4303C456.099 43.0523 455.199 43.4701 453.723 43.4701V45.4701ZM458.139 43.8141L459.553 45.2283C461.125 43.6557 461.795 41.5507 461.795 39.1911H459.795H457.795C457.795 40.7876 457.36 41.7645 456.724 42.3999L458.139 43.8141ZM459.795 39.1911H461.795V35.3271H459.795H457.795V39.1911H459.795ZM459.795 35.3271H461.795C461.795 32.9676 461.125 30.8625 459.553 29.2899L458.139 30.7041L456.724 32.1183C457.36 32.7537 457.795 33.7307 457.795 35.3271H459.795ZM458.139 30.7041L459.61 29.35C458.096 27.7044 456.043 26.9791 453.723 26.9791V28.9791V30.9791C455.175 30.9791 456.065 31.4039 456.667 32.0582L458.139 30.7041ZM453.723 28.9791V26.9791H451.17V28.9791V30.9791H453.723V28.9791ZM451.17 28.9791H449.17V45.4701H451.17H453.17V28.9791H451.17ZM483.642 52.3701L481.642 52.3729L481.644 54.3701H483.642V52.3701ZM483.573 2.00011V0.000114441H481.57L481.573 2.00286L483.573 2.00011ZM491.232 2.00011H493.232V0.000114441H491.232V2.00011ZM491.232 45.2631H489.232V47.2631H491.232V45.2631ZM497.649 45.2631V47.2631H499.649V45.2631H497.649ZM497.649 2.00011V0.000114441H495.649V2.00011H497.649ZM504.48 2.00011H506.48V0.000114441H504.48V2.00011ZM504.48 45.2631H502.48V47.2631H504.48V45.2631ZM510.897 45.2631V47.2631H512.897V45.2631H510.897ZM510.897 2.00011V0.000114441H508.897V2.00011H510.897ZM518.487 2.00011H520.487V0.000114441H518.487V2.00011ZM518.487 52.3701V54.3701H520.487V52.3701H518.487ZM483.642 52.3701L485.642 52.3674L485.573 1.99738L483.573 2.00011L481.573 2.00286L481.642 52.3729L483.642 52.3701ZM483.573 2.00011V4.00011H491.232V2.00011V0.000114441H483.573V2.00011ZM491.232 2.00011H489.232V45.2631H491.232H493.232V2.00011H491.232ZM491.232 45.2631V47.2631H497.649V45.2631V43.2631H491.232V45.2631ZM497.649 45.2631H499.649V2.00011H497.649H495.649V45.2631H497.649ZM497.649 2.00011V4.00011H504.48V2.00011V0.000114441H497.649V2.00011ZM504.48 2.00011H502.48V45.2631H504.48H506.48V2.00011H504.48ZM504.48 45.2631V47.2631H510.897V45.2631V43.2631H504.48V45.2631ZM510.897 45.2631H512.897V2.00011H510.897H508.897V45.2631H510.897ZM510.897 2.00011V4.00011H518.487V2.00011V0.000114441H510.897V2.00011ZM518.487 2.00011H516.487V52.3701H518.487H520.487V2.00011H518.487ZM518.487 52.3701V50.3701H483.642V52.3701V54.3701H518.487V52.3701Z" fill="black" mask="url(#path-1-outside-1_63_552)"/>
</svg>
