<svg width="1440" height="5837" viewBox="0 0 1440 5837" fill="none" xmlns="http://www.w3.org/2000/svg">
<rect x="-29.5" y="-88.5" width="249" height="249" stroke="black" stroke-opacity="0.06"/>
<rect x="219.5" y="-88.5" width="249" height="249" stroke="black" stroke-opacity="0.06"/>
<rect x="468.5" y="-88.5" width="249" height="249" stroke="black" stroke-opacity="0.06"/>
<rect x="717.5" y="-88.5" width="249" height="249" stroke="black" stroke-opacity="0.06"/>
<rect x="966.5" y="-88.5" width="249" height="249" stroke="black" stroke-opacity="0.06"/>
<rect x="1215.5" y="-88.5" width="249" height="249" stroke="black" stroke-opacity="0.06"/>
<rect x="-29.5" y="160.5" width="249" height="249" stroke="black" stroke-opacity="0.06"/>
<rect x="219.5" y="160.5" width="249" height="249" stroke="black" stroke-opacity="0.06"/>
<rect x="468.5" y="160.5" width="249" height="249" stroke="black" stroke-opacity="0.06"/>
<rect x="717.5" y="160.5" width="249" height="249" stroke="black" stroke-opacity="0.06"/>
<rect x="966.5" y="160.5" width="249" height="249" stroke="black" stroke-opacity="0.06"/>
<rect x="1215.5" y="160.5" width="249" height="249" stroke="black" stroke-opacity="0.06"/>
<rect x="-29.5" y="409.5" width="249" height="249" stroke="black" stroke-opacity="0.06"/>
<rect x="219.5" y="409.5" width="249" height="249" stroke="black" stroke-opacity="0.06"/>
<rect x="468.5" y="409.5" width="249" height="249" stroke="black" stroke-opacity="0.06"/>
<rect x="717.5" y="409.5" width="249" height="249" stroke="black" stroke-opacity="0.06"/>
<rect x="966.5" y="409.5" width="249" height="249" stroke="black" stroke-opacity="0.06"/>
<rect x="1215.5" y="409.5" width="249" height="249" stroke="black" stroke-opacity="0.06"/>
<rect x="-29.5" y="658.5" width="249" height="249" stroke="black" stroke-opacity="0.06"/>
<rect x="219.5" y="658.5" width="249" height="249" stroke="black" stroke-opacity="0.06"/>
<rect x="468.5" y="658.5" width="249" height="249" stroke="black" stroke-opacity="0.06"/>
<rect x="717.5" y="658.5" width="249" height="249" stroke="black" stroke-opacity="0.06"/>
<rect x="966.5" y="658.5" width="249" height="249" stroke="black" stroke-opacity="0.06"/>
<rect x="1215.5" y="658.5" width="249" height="249" stroke="black" stroke-opacity="0.06"/>
<rect x="-29.5" y="907.5" width="249" height="249" stroke="black" stroke-opacity="0.06"/>
<rect x="219.5" y="907.5" width="249" height="249" stroke="black" stroke-opacity="0.06"/>
<rect x="468.5" y="907.5" width="249" height="249" stroke="black" stroke-opacity="0.06"/>
<rect x="717.5" y="907.5" width="249" height="249" stroke="black" stroke-opacity="0.06"/>
<rect x="966.5" y="907.5" width="249" height="249" stroke="black" stroke-opacity="0.06"/>
<rect x="1215.5" y="907.5" width="249" height="249" stroke="black" stroke-opacity="0.06"/>
<rect x="-29.5" y="1156.5" width="249" height="249" stroke="black" stroke-opacity="0.06"/>
<rect x="219.5" y="1156.5" width="249" height="249" stroke="black" stroke-opacity="0.06"/>
<rect x="468.5" y="1156.5" width="249" height="249" stroke="black" stroke-opacity="0.06"/>
<rect x="717.5" y="1156.5" width="249" height="249" stroke="black" stroke-opacity="0.06"/>
<rect x="966.5" y="1156.5" width="249" height="249" stroke="black" stroke-opacity="0.06"/>
<rect x="1215.5" y="1156.5" width="249" height="249" stroke="black" stroke-opacity="0.06"/>
<rect x="-29.5" y="1405.5" width="249" height="249" stroke="black" stroke-opacity="0.06"/>
<rect x="219.5" y="1405.5" width="249" height="249" stroke="black" stroke-opacity="0.06"/>
<rect x="468.5" y="1405.5" width="249" height="249" stroke="black" stroke-opacity="0.06"/>
<rect x="717.5" y="1405.5" width="249" height="249" stroke="black" stroke-opacity="0.06"/>
<rect x="966.5" y="1405.5" width="249" height="249" stroke="black" stroke-opacity="0.06"/>
<rect x="1215.5" y="1405.5" width="249" height="249" stroke="black" stroke-opacity="0.06"/>
<rect x="-29.5" y="1654.5" width="249" height="249" stroke="black" stroke-opacity="0.06"/>
<rect x="219.5" y="1654.5" width="249" height="249" stroke="black" stroke-opacity="0.06"/>
<rect x="468.5" y="1654.5" width="249" height="249" stroke="black" stroke-opacity="0.06"/>
<rect x="717.5" y="1654.5" width="249" height="249" stroke="black" stroke-opacity="0.06"/>
<rect x="966.5" y="1654.5" width="249" height="249" stroke="black" stroke-opacity="0.06"/>
<rect x="1215.5" y="1654.5" width="249" height="249" stroke="black" stroke-opacity="0.06"/>
<rect x="-29.5" y="1903.5" width="249" height="249" stroke="black" stroke-opacity="0.06"/>
<rect x="219.5" y="1903.5" width="249" height="249" stroke="black" stroke-opacity="0.06"/>
<rect x="468.5" y="1903.5" width="249" height="249" stroke="black" stroke-opacity="0.06"/>
<rect x="717.5" y="1903.5" width="249" height="249" stroke="black" stroke-opacity="0.06"/>
<rect x="966.5" y="1903.5" width="249" height="249" stroke="black" stroke-opacity="0.06"/>
<rect x="1215.5" y="1903.5" width="249" height="249" stroke="black" stroke-opacity="0.06"/>
<rect x="-29.5" y="2152.5" width="249" height="249" stroke="black" stroke-opacity="0.06"/>
<rect x="219.5" y="2152.5" width="249" height="249" stroke="black" stroke-opacity="0.06"/>
<rect x="468.5" y="2152.5" width="249" height="249" stroke="black" stroke-opacity="0.06"/>
<rect x="717.5" y="2152.5" width="249" height="249" stroke="black" stroke-opacity="0.06"/>
<rect x="966.5" y="2152.5" width="249" height="249" stroke="black" stroke-opacity="0.06"/>
<rect x="1215.5" y="2152.5" width="249" height="249" stroke="black" stroke-opacity="0.06"/>
<rect x="-29.5" y="2401.5" width="249" height="249" stroke="black" stroke-opacity="0.06"/>
<rect x="219.5" y="2401.5" width="249" height="249" stroke="black" stroke-opacity="0.06"/>
<rect x="468.5" y="2401.5" width="249" height="249" stroke="black" stroke-opacity="0.06"/>
<rect x="717.5" y="2401.5" width="249" height="249" stroke="black" stroke-opacity="0.06"/>
<rect x="966.5" y="2401.5" width="249" height="249" stroke="black" stroke-opacity="0.06"/>
<rect x="1215.5" y="2401.5" width="249" height="249" stroke="black" stroke-opacity="0.06"/>
<rect x="-29.5" y="2650.5" width="249" height="249" stroke="black" stroke-opacity="0.06"/>
<rect x="219.5" y="2650.5" width="249" height="249" stroke="black" stroke-opacity="0.06"/>
<rect x="468.5" y="2650.5" width="249" height="249" stroke="black" stroke-opacity="0.06"/>
<rect x="717.5" y="2650.5" width="249" height="249" stroke="black" stroke-opacity="0.06"/>
<rect x="966.5" y="2650.5" width="249" height="249" stroke="black" stroke-opacity="0.06"/>
<rect x="1215.5" y="2650.5" width="249" height="249" stroke="black" stroke-opacity="0.06"/>
<rect x="-29.5" y="2899.5" width="249" height="249" stroke="black" stroke-opacity="0.06"/>
<rect x="219.5" y="2899.5" width="249" height="249" stroke="black" stroke-opacity="0.06"/>
<rect x="468.5" y="2899.5" width="249" height="249" stroke="black" stroke-opacity="0.06"/>
<rect x="717.5" y="2899.5" width="249" height="249" stroke="black" stroke-opacity="0.06"/>
<rect x="966.5" y="2899.5" width="249" height="249" stroke="black" stroke-opacity="0.06"/>
<rect x="1215.5" y="2899.5" width="249" height="249" stroke="black" stroke-opacity="0.06"/>
<rect x="-29.5" y="3148.5" width="249" height="249" stroke="black" stroke-opacity="0.06"/>
<rect x="219.5" y="3148.5" width="249" height="249" stroke="black" stroke-opacity="0.06"/>
<rect x="468.5" y="3148.5" width="249" height="249" stroke="black" stroke-opacity="0.06"/>
<rect x="717.5" y="3148.5" width="249" height="249" stroke="black" stroke-opacity="0.06"/>
<rect x="966.5" y="3148.5" width="249" height="249" stroke="black" stroke-opacity="0.06"/>
<rect x="1215.5" y="3148.5" width="249" height="249" stroke="black" stroke-opacity="0.06"/>
<rect x="-29.5" y="3397.5" width="249" height="249" stroke="black" stroke-opacity="0.06"/>
<rect x="219.5" y="3397.5" width="249" height="249" stroke="black" stroke-opacity="0.06"/>
<rect x="468.5" y="3397.5" width="249" height="249" stroke="black" stroke-opacity="0.06"/>
<rect x="717.5" y="3397.5" width="249" height="249" stroke="black" stroke-opacity="0.06"/>
<rect x="966.5" y="3397.5" width="249" height="249" stroke="black" stroke-opacity="0.06"/>
<rect x="1215.5" y="3397.5" width="249" height="249" stroke="black" stroke-opacity="0.06"/>
<rect x="-29.5" y="3646.5" width="249" height="249" stroke="black" stroke-opacity="0.06"/>
<rect x="219.5" y="3646.5" width="249" height="249" stroke="black" stroke-opacity="0.06"/>
<rect x="468.5" y="3646.5" width="249" height="249" stroke="black" stroke-opacity="0.06"/>
<rect x="717.5" y="3646.5" width="249" height="249" stroke="black" stroke-opacity="0.06"/>
<rect x="966.5" y="3646.5" width="249" height="249" stroke="black" stroke-opacity="0.06"/>
<rect x="1215.5" y="3646.5" width="249" height="249" stroke="black" stroke-opacity="0.06"/>
<rect x="-29.5" y="3895.5" width="249" height="249" stroke="black" stroke-opacity="0.06"/>
<rect x="219.5" y="3895.5" width="249" height="249" stroke="black" stroke-opacity="0.06"/>
<rect x="468.5" y="3895.5" width="249" height="249" stroke="black" stroke-opacity="0.06"/>
<rect x="717.5" y="3895.5" width="249" height="249" stroke="black" stroke-opacity="0.06"/>
<rect x="966.5" y="3895.5" width="249" height="249" stroke="black" stroke-opacity="0.06"/>
<rect x="1215.5" y="3895.5" width="249" height="249" stroke="black" stroke-opacity="0.06"/>
<rect x="-29.5" y="4144.5" width="249" height="249" stroke="black" stroke-opacity="0.06"/>
<rect x="219.5" y="4144.5" width="249" height="249" stroke="black" stroke-opacity="0.06"/>
<rect x="468.5" y="4144.5" width="249" height="249" stroke="black" stroke-opacity="0.06"/>
<rect x="717.5" y="4144.5" width="249" height="249" stroke="black" stroke-opacity="0.06"/>
<rect x="966.5" y="4144.5" width="249" height="249" stroke="black" stroke-opacity="0.06"/>
<rect x="1215.5" y="4144.5" width="249" height="249" stroke="black" stroke-opacity="0.06"/>
<rect x="-29.5" y="4393.5" width="249" height="249" stroke="black" stroke-opacity="0.06"/>
<rect x="219.5" y="4393.5" width="249" height="249" stroke="black" stroke-opacity="0.06"/>
<rect x="468.5" y="4393.5" width="249" height="249" stroke="black" stroke-opacity="0.06"/>
<rect x="717.5" y="4393.5" width="249" height="249" stroke="black" stroke-opacity="0.06"/>
<rect x="966.5" y="4393.5" width="249" height="249" stroke="black" stroke-opacity="0.06"/>
<rect x="1215.5" y="4393.5" width="249" height="249" stroke="black" stroke-opacity="0.06"/>
<rect x="-29.5" y="4642.5" width="249" height="249" stroke="black" stroke-opacity="0.06"/>
<rect x="219.5" y="4642.5" width="249" height="249" stroke="black" stroke-opacity="0.06"/>
<rect x="468.5" y="4642.5" width="249" height="249" stroke="black" stroke-opacity="0.06"/>
<rect x="717.5" y="4642.5" width="249" height="249" stroke="black" stroke-opacity="0.06"/>
<rect x="966.5" y="4642.5" width="249" height="249" stroke="black" stroke-opacity="0.06"/>
<rect x="1215.5" y="4642.5" width="249" height="249" stroke="black" stroke-opacity="0.06"/>
<rect x="-29.5" y="4891.5" width="249" height="249" stroke="black" stroke-opacity="0.06"/>
<rect x="219.5" y="4891.5" width="249" height="249" stroke="black" stroke-opacity="0.06"/>
<rect x="468.5" y="4891.5" width="249" height="249" stroke="black" stroke-opacity="0.06"/>
<rect x="717.5" y="4891.5" width="249" height="249" stroke="black" stroke-opacity="0.06"/>
<rect x="966.5" y="4891.5" width="249" height="249" stroke="black" stroke-opacity="0.06"/>
<rect x="1215.5" y="4891.5" width="249" height="249" stroke="black" stroke-opacity="0.06"/>
<rect x="-29.5" y="5140.5" width="249" height="249" stroke="black" stroke-opacity="0.06"/>
<rect x="219.5" y="5140.5" width="249" height="249" stroke="black" stroke-opacity="0.06"/>
<rect x="468.5" y="5140.5" width="249" height="249" stroke="black" stroke-opacity="0.06"/>
<rect x="717.5" y="5140.5" width="249" height="249" stroke="black" stroke-opacity="0.06"/>
<rect x="966.5" y="5140.5" width="249" height="249" stroke="black" stroke-opacity="0.06"/>
<rect x="1215.5" y="5140.5" width="249" height="249" stroke="black" stroke-opacity="0.06"/>
<rect x="-29.5" y="5389.5" width="249" height="249" stroke="black" stroke-opacity="0.06"/>
<rect x="219.5" y="5389.5" width="249" height="249" stroke="black" stroke-opacity="0.06"/>
<rect x="468.5" y="5389.5" width="249" height="249" stroke="black" stroke-opacity="0.06"/>
<rect x="717.5" y="5389.5" width="249" height="249" stroke="black" stroke-opacity="0.06"/>
<rect x="966.5" y="5389.5" width="249" height="249" stroke="black" stroke-opacity="0.06"/>
<rect x="1215.5" y="5389.5" width="249" height="249" stroke="black" stroke-opacity="0.06"/>
<rect x="-29.5" y="5638.5" width="249" height="249" stroke="black" stroke-opacity="0.06"/>
<rect x="219.5" y="5638.5" width="249" height="249" stroke="black" stroke-opacity="0.06"/>
<rect x="468.5" y="5638.5" width="249" height="249" stroke="black" stroke-opacity="0.06"/>
<rect x="717.5" y="5638.5" width="249" height="249" stroke="black" stroke-opacity="0.06"/>
<rect x="966.5" y="5638.5" width="249" height="249" stroke="black" stroke-opacity="0.06"/>
<rect x="1215.5" y="5638.5" width="249" height="249" stroke="black" stroke-opacity="0.06"/>
</svg>
