<svg width="581" height="295" viewBox="0 0 581 295" fill="none" xmlns="http://www.w3.org/2000/svg">
<mask id="path-1-outside-1_63_11141" maskUnits="userSpaceOnUse" x="-0.203125" y="-0.800049" width="581" height="296" fill="black">
<rect fill="white" x="-0.203125" y="-0.800049" width="581" height="296"/>
<path d="M70.6146 99.5C64.4613 99.5 59.1313 98.3733 54.6246 96.12C50.1179 93.78 46.6079 90.53 44.0946 86.37C41.6679 82.1233 40.4546 77.14 40.4546 71.4199V30.0799C40.4546 24.3599 41.6679 19.4199 44.0946 15.2599C46.6079 11.0133 50.1179 7.76328 54.6246 5.50994C59.1313 3.16995 64.4613 1.99995 70.6146 1.99995C79.108 1.99995 86.0413 4.25328 91.4146 8.75995C96.788 13.1799 99.8213 19.1599 100.515 26.6999C100.688 28.9533 99.648 30.0799 97.3946 30.0799H87.6446C85.6513 30.0799 84.4813 29.0399 84.1346 26.9599C83.0946 19.8533 78.588 16.2999 70.6146 16.2999C66.1946 16.2999 62.7713 17.5133 60.3446 19.9399C57.9179 22.2799 56.7046 25.6599 56.7046 30.0799V71.4199C56.7046 75.84 57.9179 79.2633 60.3446 81.69C62.7713 84.03 66.1946 85.2 70.6146 85.2C78.588 85.2 83.0946 81.6466 84.1346 74.5399C84.4813 72.4599 85.6513 71.4199 87.6446 71.4199H97.3946C99.648 71.4199 100.731 72.4599 100.645 74.5399C99.9513 82.1666 96.918 88.2333 91.5446 92.74C86.1713 97.2466 79.1946 99.5 70.6146 99.5ZM142.324 99.5C133.224 99.5 125.987 96.9 120.614 91.7C115.327 86.5 112.684 79.3066 112.684 70.12V31.38C112.684 22.1933 115.327 15 120.614 9.79995C125.987 4.59995 133.224 1.99995 142.324 1.99995C151.424 1.99995 158.617 4.59995 163.904 9.79995C169.277 15 171.964 22.1499 171.964 31.2499V70.12C171.964 79.3066 169.277 86.5 163.904 91.7C158.617 96.9 151.424 99.5 142.324 99.5ZM142.324 85.2C146.744 85.2 150.081 84.03 152.334 81.69C154.587 79.2633 155.714 75.84 155.714 71.4199V30.0799C155.714 25.6599 154.587 22.2799 152.334 19.9399C150.081 17.5133 146.744 16.2999 142.324 16.2999C137.904 16.2999 134.567 17.5133 132.314 19.9399C130.061 22.2799 128.934 25.6599 128.934 30.0799V71.4199C128.934 75.84 130.061 79.2633 132.314 81.69C134.567 84.03 137.904 85.2 142.324 85.2ZM186.213 98.2V3.29995H243.153V17.9899H202.073V40.6099H215.983C222.31 40.6099 227.813 41.8233 232.493 44.2499C237.173 46.5899 240.813 49.9266 243.413 54.2599C246.013 58.5066 247.313 63.49 247.313 69.21C247.313 74.93 246.013 79.9566 243.413 84.29C240.813 88.6233 237.173 92.0466 232.493 94.56C227.9 96.9866 222.44 98.2 216.113 98.2H186.213ZM202.073 83.9H216.113C220.62 83.9 224.173 82.5566 226.773 79.87C229.46 77.1833 230.803 73.63 230.803 69.21C230.803 64.7033 229.46 61.15 226.773 58.55C224.173 55.8633 220.62 54.5199 216.113 54.5199H202.073V83.9ZM263.512 98.2C261.346 98.2 260.262 97.1166 260.262 94.95V6.54995C260.262 4.38328 261.346 3.29995 263.512 3.29995H313.952C316.119 3.29995 317.202 4.38328 317.202 6.54995V14.3499C317.202 16.5166 316.119 17.6 313.952 17.6H279.502C277.336 17.6 276.252 18.6833 276.252 20.8499V42.3H309.402C311.569 42.3 312.652 43.3399 312.652 45.4199V52.83C312.652 54.9966 311.569 56.08 309.402 56.08H276.252V80.65C276.252 82.8166 277.336 83.9 279.502 83.9H313.952C316.119 83.9 317.202 84.9833 317.202 87.15V94.95C317.202 97.1166 316.119 98.2 313.952 98.2H263.512ZM334.702 98.2C332.622 98.2 331.582 97.1166 331.582 94.95V6.54995C331.582 4.38328 332.622 3.29995 334.702 3.29995H363.172C369.498 3.29995 375.002 4.51328 379.682 6.93995C384.448 9.36661 388.132 12.7899 390.732 17.2099C393.332 21.5433 394.632 26.6566 394.632 32.55C394.632 38.4433 393.332 43.6 390.732 48.02C388.132 52.3533 384.448 55.7333 379.682 58.1599C375.002 60.5866 369.498 61.8 363.172 61.8H347.832V94.95C347.832 97.1166 346.748 98.2 344.582 98.2H334.702ZM347.832 47.4999H363.172C367.765 47.4999 371.405 46.1133 374.092 43.3399C376.778 40.5666 378.122 36.9699 378.122 32.55C378.122 28.1299 376.778 24.5333 374.092 21.76C371.405 18.9866 367.765 17.6 363.172 17.6H351.082C348.915 17.6 347.832 18.64 347.832 20.7199V47.4999ZM403.681 98.2V3.29995H418.501V49.7099C418.501 52.8299 418.414 56.2533 418.241 59.98C418.067 63.7066 417.851 67.3466 417.591 70.9C417.331 74.4533 417.114 77.4866 416.941 80L443.071 3.29995H462.961V98.2H448.141V53.2199C448.141 50.1866 448.227 46.7199 448.401 42.8199C448.661 38.9199 448.921 35.1066 449.181 31.38C449.441 27.5666 449.701 24.2733 449.961 21.4999L423.571 98.2H403.681ZM182.338 187.5C176.185 187.5 170.855 186.373 166.348 184.12C161.842 181.78 158.332 178.53 155.818 174.37C153.392 170.123 152.178 165.14 152.178 159.42V118.08C152.178 112.36 153.392 107.42 155.818 103.26C158.332 99.0133 161.842 95.7633 166.348 93.5099C170.855 91.1699 176.185 89.9999 182.338 89.9999C190.832 89.9999 197.765 92.2533 203.138 96.7599C208.512 101.18 211.545 107.16 212.238 114.7C212.412 116.953 211.372 118.08 209.118 118.08H199.368C197.375 118.08 196.205 117.04 195.858 114.96C194.818 107.853 190.312 104.3 182.338 104.3C177.918 104.3 174.495 105.513 172.068 107.94C169.642 110.28 168.428 113.66 168.428 118.08V159.42C168.428 163.84 169.642 167.263 172.068 169.69C174.495 172.03 177.918 173.2 182.338 173.2C190.312 173.2 194.818 169.647 195.858 162.54C196.205 160.46 197.375 159.42 199.368 159.42H209.118C211.372 159.42 212.455 160.46 212.368 162.54C211.675 170.167 208.642 176.233 203.268 180.74C197.895 185.247 190.918 187.5 182.338 187.5ZM228.308 186.2C226.141 186.2 225.058 185.117 225.058 182.95V94.5499C225.058 92.3833 226.141 91.2999 228.308 91.2999H254.178C263.278 91.2999 270.514 93.5099 275.888 97.9299C281.348 102.35 284.078 108.287 284.078 115.74C284.078 120.94 282.561 125.403 279.528 129.13C276.581 132.857 272.724 135.11 267.958 135.89V136.15C271.511 136.583 274.674 137.883 277.448 140.05C280.221 142.13 282.388 144.86 283.948 148.24C285.508 151.533 286.288 155.173 286.288 159.16C286.288 164.62 285.031 169.387 282.518 173.46C280.004 177.533 276.451 180.697 271.858 182.95C267.264 185.117 261.848 186.2 255.608 186.2H228.308ZM240.918 130.43H253.918C258.164 130.43 261.544 129.303 264.058 127.05C266.571 124.71 267.828 121.547 267.828 117.56C267.828 113.66 266.571 110.583 264.058 108.33C261.631 105.99 258.251 104.82 253.918 104.82H244.038C241.958 104.82 240.918 105.903 240.918 108.07V130.43ZM240.918 169.43C240.918 171.597 241.958 172.68 244.038 172.68H254.698C259.464 172.68 263.191 171.423 265.878 168.91C268.651 166.31 270.038 162.8 270.038 158.38C270.038 153.96 268.651 150.407 265.878 147.72C263.191 144.947 259.464 143.56 254.698 143.56H240.918V169.43ZM326.797 187.5C317.697 187.5 310.46 184.9 305.087 179.7C299.8 174.5 297.157 167.307 297.157 158.12V119.38C297.157 110.193 299.8 103 305.087 97.8C310.46 92.6 317.697 89.9999 326.797 89.9999C335.897 89.9999 343.09 92.6 348.377 97.8C353.75 103 356.437 110.15 356.437 119.25V158.12C356.437 167.307 353.75 174.5 348.377 179.7C343.09 184.9 335.897 187.5 326.797 187.5ZM326.797 173.2C331.217 173.2 334.554 172.03 336.807 169.69C339.06 167.263 340.187 163.84 340.187 159.42V118.08C340.187 113.66 339.06 110.28 336.807 107.94C334.554 105.513 331.217 104.3 326.797 104.3C322.377 104.3 319.04 105.513 316.787 107.94C314.534 110.28 313.407 113.66 313.407 118.08V159.42C313.407 163.84 314.534 167.263 316.787 169.69C319.04 172.03 322.377 173.2 326.797 173.2ZM413.196 187.5C406.696 187.5 401.453 185.333 397.466 181C393.566 176.667 391.616 170.947 391.616 163.84V143.56H380.956V186.2H366.656V91.2999H380.956V130.56H391.616V113.53C391.616 106.423 393.566 100.747 397.466 96.4999C401.453 92.1666 406.696 89.9999 413.196 89.9999C419.869 89.9999 425.199 92.1666 429.186 96.4999C433.173 100.747 435.166 106.423 435.166 113.53V163.84C435.166 170.947 433.173 176.667 429.186 181C425.199 185.333 419.869 187.5 413.196 187.5ZM412.806 175.15C415.319 175.15 417.269 174.24 418.656 172.42C420.129 170.513 420.866 167.913 420.866 164.62V112.88C420.866 109.587 420.129 107.03 418.656 105.21C417.269 103.303 415.319 102.35 412.806 102.35C410.206 102.35 408.169 103.303 406.696 105.21C405.309 107.03 404.616 109.587 404.616 112.88V164.62C404.616 167.913 405.309 170.513 406.696 172.42C408.169 174.24 410.206 175.15 412.806 175.15ZM2.00001 247.42H18.38C18.38 251.84 19.55 255.263 21.89 257.69C24.3167 260.03 27.74 261.2 32.16 261.2C36.58 261.2 40.0033 260.03 42.43 257.69C44.8567 255.263 46.07 251.84 46.07 247.42V232.34H18.77V217.65H46.07V206.08C46.07 201.66 44.8567 198.28 42.43 195.94C40.0033 193.513 36.58 192.3 32.16 192.3C27.74 192.3 24.3167 193.513 21.89 195.94C19.55 198.28 18.38 201.66 18.38 206.08H2.00001C2.00001 200.36 3.25668 195.42 5.77001 191.26C8.28335 187.013 11.7933 183.763 16.3 181.51C20.8067 179.17 26.0933 178 32.16 178C38.3133 178 43.6433 179.17 48.15 181.51C52.6567 183.763 56.1233 187.013 58.55 191.26C61.0634 195.42 62.32 200.36 62.32 206.08V247.42C62.32 253.14 61.0634 258.123 58.55 262.37C56.1233 266.53 52.6567 269.78 48.15 272.12C43.6433 274.373 38.3133 275.5 32.16 275.5C26.0933 275.5 20.8067 274.373 16.3 272.12C11.7933 269.78 8.28335 266.53 5.77001 262.37C3.25668 258.123 2.00001 253.14 2.00001 247.42ZM80.2092 274.2C78.0426 274.2 76.9592 273.117 76.9592 270.95V182.55C76.9592 180.383 78.0426 179.3 80.2092 179.3H106.079C115.179 179.3 122.416 181.51 127.789 185.93C133.249 190.35 135.979 196.287 135.979 203.74C135.979 208.94 134.463 213.403 131.429 217.13C128.483 220.857 124.626 223.11 119.859 223.89V224.15C123.413 224.583 126.576 225.883 129.349 228.05C132.123 230.13 134.289 232.86 135.849 236.24C137.409 239.533 138.189 243.173 138.189 247.16C138.189 252.62 136.933 257.387 134.419 261.46C131.906 265.533 128.353 268.697 123.759 270.95C119.166 273.117 113.749 274.2 107.509 274.2H80.2092ZM92.8192 218.43H105.819C110.066 218.43 113.446 217.303 115.959 215.05C118.473 212.71 119.729 209.547 119.729 205.56C119.729 201.66 118.473 198.583 115.959 196.33C113.533 193.99 110.153 192.82 105.819 192.82H95.9392C93.8592 192.82 92.8192 193.903 92.8192 196.07V218.43ZM92.8192 257.43C92.8192 259.597 93.8592 260.68 95.9392 260.68H106.599C111.366 260.68 115.093 259.423 117.779 256.91C120.553 254.31 121.939 250.8 121.939 246.38C121.939 241.96 120.553 238.407 117.779 235.72C115.093 232.947 111.366 231.56 106.599 231.56H92.8192V257.43ZM178.698 275.5C169.598 275.5 162.362 272.9 156.988 267.7C151.702 262.5 149.058 255.307 149.058 246.12V207.38C149.058 198.193 151.702 191 156.988 185.8C162.362 180.6 169.598 178 178.698 178C187.798 178 194.992 180.6 200.278 185.8C205.652 191 208.338 198.15 208.338 207.25V246.12C208.338 255.307 205.652 262.5 200.278 267.7C194.992 272.9 187.798 275.5 178.698 275.5ZM178.698 261.2C183.118 261.2 186.455 260.03 188.708 257.69C190.962 255.263 192.088 251.84 192.088 247.42V206.08C192.088 201.66 190.962 198.28 188.708 195.94C186.455 193.513 183.118 192.3 178.698 192.3C174.278 192.3 170.942 193.513 168.688 195.94C166.435 198.28 165.308 201.66 165.308 206.08V247.42C165.308 251.84 166.435 255.263 168.688 257.69C170.942 260.03 174.278 261.2 178.698 261.2ZM214.658 274.85V260.03H217.908C223.888 260.03 226.964 254.353 227.138 243L228.178 179.3H280.308V274.2H264.058V193.99H244.168L243.258 243C243.084 253.313 240.874 261.2 236.628 266.66C232.468 272.12 226.574 274.85 218.948 274.85H214.658ZM337.847 275.5C331.347 275.5 326.104 273.333 322.117 269C318.217 264.667 316.267 258.947 316.267 251.84V231.56H305.607V274.2H291.307V179.3H305.607V218.56H316.267V201.53C316.267 194.423 318.217 188.747 322.117 184.5C326.104 180.167 331.347 178 337.847 178C344.52 178 349.85 180.167 353.837 184.5C357.824 188.747 359.817 194.423 359.817 201.53V251.84C359.817 258.947 357.824 264.667 353.837 269C349.85 273.333 344.52 275.5 337.847 275.5ZM337.457 263.15C339.97 263.15 341.92 262.24 343.307 260.42C344.78 258.513 345.517 255.913 345.517 252.62V200.88C345.517 197.587 344.78 195.03 343.307 193.21C341.92 191.303 339.97 190.35 337.457 190.35C334.857 190.35 332.82 191.303 331.347 193.21C329.96 195.03 329.267 197.587 329.267 200.88V252.62C329.267 255.913 329.96 258.513 331.347 260.42C332.82 262.24 334.857 263.15 337.457 263.15ZM417.486 292.4V274.2H368.086V179.3H384.336V259.64H406.436V179.3H422.686V259.64H432.436V292.4H417.486ZM440.055 274.2V179.3H454.875V225.71C454.875 228.83 454.789 232.253 454.615 235.98C454.442 239.707 454.225 243.347 453.965 246.9C453.705 250.453 453.489 253.487 453.315 256L479.445 179.3H499.335V274.2H484.515V229.22C484.515 226.187 484.602 222.72 484.775 218.82C485.035 214.92 485.295 211.107 485.555 207.38C485.815 203.567 486.075 200.273 486.335 197.5L459.945 274.2H440.055ZM556.095 275.5C549.595 275.5 544.351 273.333 540.365 269C536.465 264.667 534.515 258.947 534.515 251.84V231.56H523.855V274.2H509.555V179.3H523.855V218.56H534.515V201.53C534.515 194.423 536.465 188.747 540.365 184.5C544.351 180.167 549.595 178 556.095 178C562.768 178 568.098 180.167 572.085 184.5C576.071 188.747 578.065 194.423 578.065 201.53V251.84C578.065 258.947 576.071 264.667 572.085 269C568.098 273.333 562.768 275.5 556.095 275.5ZM555.705 263.15C558.218 263.15 560.168 262.24 561.555 260.42C563.028 258.513 563.765 255.913 563.765 252.62V200.88C563.765 197.587 563.028 195.03 561.555 193.21C560.168 191.303 558.218 190.35 555.705 190.35C553.105 190.35 551.068 191.303 549.595 193.21C548.208 195.03 547.515 197.587 547.515 200.88V252.62C547.515 255.913 548.208 258.513 549.595 260.42C551.068 262.24 553.105 263.15 555.705 263.15Z"/>
</mask>
<path d="M54.6246 96.1199L53.703 97.8949L53.7165 97.902L53.7302 97.9088L54.6246 96.1199ZM44.0946 86.3699L42.3581 87.3622L42.3702 87.3834L42.3828 87.4042L44.0946 86.3699ZM44.0946 15.2599L42.3734 14.2413L42.3671 14.2522L44.0946 15.2599ZM54.6246 5.50994L55.519 7.2988L55.5327 7.29197L55.5462 7.28493L54.6246 5.50994ZM91.4146 8.75995L90.1294 10.2923L90.1367 10.2985L90.1441 10.3045L91.4146 8.75995ZM100.515 26.7L102.509 26.5466L102.508 26.5317L102.506 26.5168L100.515 26.7ZM84.1346 26.9599L82.1557 27.2495L82.1586 27.2692L82.1618 27.2887L84.1346 26.9599ZM60.3446 19.9399L61.7329 21.3796L61.746 21.367L61.7588 21.3542L60.3446 19.9399ZM60.3446 81.6899L58.9304 83.1042L58.9433 83.117L58.9563 83.1296L60.3446 81.6899ZM84.1346 74.5399L82.1618 74.2112L82.1586 74.2307L82.1557 74.2504L84.1346 74.5399ZM100.645 74.5399L102.636 74.721L102.641 74.6722L102.643 74.6232L100.645 74.5399ZM91.5446 92.74L90.2594 91.2076V91.2076L91.5446 92.74ZM70.6146 99.5V97.5C64.7042 97.5 59.6933 96.4182 55.519 94.3311L54.6246 96.1199L53.7302 97.9088C58.5693 100.328 64.2184 101.5 70.6146 101.5V99.5ZM54.6246 96.1199L55.5462 94.345C51.3508 92.1665 48.1208 89.1664 45.8064 85.3357L44.0946 86.3699L42.3828 87.4042C45.0951 91.8935 48.8851 95.3934 53.703 97.8949L54.6246 96.1199ZM44.0946 86.3699L45.8311 85.3777C43.6044 81.4809 42.4546 76.8514 42.4546 71.42H40.4546H38.4546C38.4546 77.4285 39.7315 82.7656 42.3581 87.3622L44.0946 86.3699ZM40.4546 71.42H42.4546V30.0799H40.4546H38.4546V71.42H40.4546ZM40.4546 30.0799H42.4546C42.4546 24.6473 43.6048 20.0689 45.8222 16.2677L44.0946 15.2599L42.3671 14.2522C39.7311 18.771 38.4546 24.0726 38.4546 30.0799H40.4546ZM44.0946 15.2599L45.8158 16.2786C48.129 12.3701 51.3486 9.38403 55.519 7.2988L54.6246 5.50994L53.7302 3.72109C48.8873 6.14253 45.0869 9.65647 42.3735 14.2413L44.0946 15.2599ZM54.6246 5.50994L55.5462 7.28493C59.714 5.12092 64.7149 3.99995 70.6146 3.99995V1.99995V-5.34058e-05C64.2077 -5.34058e-05 58.5486 1.21898 53.703 3.73495L54.6246 5.50994ZM70.6146 1.99995V3.99995C78.7411 3.99995 85.1881 6.148 90.1294 10.2923L91.4146 8.75995L92.6998 7.22756C86.8945 2.35856 79.4748 -5.34058e-05 70.6146 -5.34058e-05V1.99995ZM91.4146 8.75995L90.1441 10.3045C95.0664 14.3535 97.8738 19.8232 98.523 26.8831L100.515 26.7L102.506 26.5168C101.769 18.4967 98.5095 12.0064 92.6852 7.21537L91.4146 8.75995ZM100.515 26.7L98.5205 26.8533C98.5517 27.2593 98.5204 27.5237 98.4798 27.6819C98.4423 27.8283 98.4009 27.872 98.395 27.8784C98.3893 27.8846 98.3501 27.9284 98.2097 27.9764C98.0576 28.0284 97.7991 28.0799 97.3946 28.0799V30.0799V32.0799C98.815 32.0799 100.287 31.7256 101.334 30.5915C102.38 29.4588 102.618 27.9631 102.509 26.5466L100.515 26.7ZM97.3946 30.0799V28.0799H87.6446V30.0799V32.0799H97.3946V30.0799ZM87.6446 30.0799V28.0799C86.9997 28.0799 86.7282 27.9183 86.6008 27.8051C86.4596 27.6795 86.2316 27.3765 86.1074 26.6311L84.1346 26.9599L82.1618 27.2887C82.3843 28.6234 82.9147 29.8804 83.9434 30.7948C84.986 31.7215 86.2962 32.0799 87.6446 32.0799V30.0799ZM84.1346 26.9599L86.1135 26.6703C85.539 22.7443 83.9624 19.5622 81.2129 17.3944C78.4919 15.249 74.8784 14.2999 70.6146 14.2999V16.2999V18.2999C74.3242 18.2999 76.9507 19.1276 78.7363 20.5355C80.4935 21.921 81.6902 24.0689 82.1557 27.2495L84.1346 26.9599ZM70.6146 16.2999V14.2999C65.8239 14.2999 61.8317 15.6244 58.9304 18.5257L60.3446 19.9399L61.7588 21.3542C63.7109 19.4021 66.5653 18.2999 70.6146 18.2999V16.2999ZM60.3446 19.9399L58.9563 18.5003C56.0277 21.3243 54.7046 25.2935 54.7046 30.0799H56.7046H58.7046C58.7046 26.0264 59.8082 23.2355 61.7329 21.3796L60.3446 19.9399ZM56.7046 30.0799H54.7046V71.42H56.7046H58.7046V30.0799H56.7046ZM56.7046 71.42H54.7046C54.7046 76.2107 56.0291 80.2029 58.9304 83.1042L60.3446 81.6899L61.7588 80.2757C59.8068 78.3237 58.7046 75.4692 58.7046 71.42H56.7046ZM60.3446 81.6899L58.9563 83.1296C61.8605 85.9301 65.8433 87.2 70.6146 87.2V85.2V83.2C66.5459 83.2 63.682 82.1298 61.7329 80.2503L60.3446 81.6899ZM70.6146 85.2V87.2C74.8784 87.2 78.4919 86.2509 81.2129 84.1055C83.9624 81.9377 85.539 78.7556 86.1135 74.8295L84.1346 74.5399L82.1557 74.2504C81.6902 77.431 80.4935 79.5789 78.7363 80.9644C76.9507 82.3723 74.3242 83.2 70.6146 83.2V85.2ZM84.1346 74.5399L86.1074 74.8687C86.2316 74.1234 86.4596 73.8204 86.6008 73.6948C86.7282 73.5816 86.9997 73.42 87.6446 73.42V71.42V69.4199C86.2962 69.4199 84.986 69.7783 83.9434 70.7051C82.9147 71.6195 82.3843 72.8765 82.1618 74.2112L84.1346 74.5399ZM87.6446 71.42V73.42H97.3946V71.42V69.4199H87.6446V71.42ZM97.3946 71.42V73.42C98.2587 73.42 98.4926 73.6241 98.5121 73.6427C98.5215 73.6518 98.5524 73.6812 98.5851 73.7835C98.6219 73.8988 98.6608 74.1103 98.6464 74.4567L100.645 74.5399L102.643 74.6232C102.701 73.2402 102.379 71.81 101.282 70.7572C100.218 69.7358 98.7838 69.4199 97.3946 69.4199V71.42ZM100.645 74.5399L98.6528 74.3589C98.0025 81.5127 95.1888 87.0732 90.2594 91.2076L91.5446 92.74L92.8298 94.2723C98.6471 89.3933 101.9 82.8205 102.636 74.721L100.645 74.5399ZM91.5446 92.74L90.2594 91.2076C85.3217 95.3489 78.8335 97.5 70.6146 97.5V99.5V101.5C79.5558 101.5 87.0209 99.1443 92.8298 94.2723L91.5446 92.74ZM120.614 91.7L119.211 93.1258L119.217 93.1315L119.223 93.1372L120.614 91.7ZM120.614 9.79995L119.223 8.36275L119.217 8.3684L119.211 8.3741L120.614 9.79995ZM163.904 9.79995L162.501 11.2258L162.507 11.2315L162.513 11.2372L163.904 9.79995ZM163.904 91.7L162.513 90.2627L162.507 90.2684L162.501 90.2741L163.904 91.7ZM152.334 81.6899L153.774 83.0772L153.787 83.0642L153.799 83.0509L152.334 81.6899ZM152.334 19.9399L150.868 21.3008L150.881 21.3141L150.893 21.3272L152.334 19.9399ZM132.314 19.9399L133.754 21.3272L133.767 21.3141L133.779 21.3008L132.314 19.9399ZM132.314 81.6899L130.848 83.0508L130.861 83.0642L130.873 83.0772L132.314 81.6899ZM142.324 99.5V97.5C133.624 97.5 126.927 95.0265 122.005 90.2627L120.614 91.7L119.223 93.1372C125.047 98.7734 132.824 101.5 142.324 101.5V99.5ZM120.614 91.7L122.016 90.2741C117.199 85.5358 114.684 78.9065 114.684 70.1199H112.684H110.684C110.684 79.7068 113.455 87.4641 119.211 93.1258L120.614 91.7ZM112.684 70.1199H114.684V31.38H112.684H110.684V70.1199H112.684ZM112.684 31.38H114.684C114.684 22.5934 117.199 15.9641 122.016 11.2258L120.614 9.79995L119.211 8.3741C113.455 14.0358 110.684 21.7931 110.684 31.38H112.684ZM120.614 9.79995L122.005 11.2372C126.927 6.47343 133.624 3.99995 142.324 3.99995V1.99995V-5.34058e-05C132.824 -5.34058e-05 125.047 2.72647 119.223 8.36275L120.614 9.79995ZM142.324 1.99995V3.99995C151.025 3.99995 157.67 6.47375 162.501 11.2258L163.904 9.79995L165.306 8.3741C159.564 2.72615 151.822 -5.34058e-05 142.324 -5.34058e-05V1.99995ZM163.904 9.79995L162.513 11.2372C167.415 15.981 169.964 22.5658 169.964 31.2499H171.964H173.964C173.964 21.7341 171.139 14.0189 165.295 8.36275L163.904 9.79995ZM171.964 31.2499H169.964V70.1199H171.964H173.964V31.2499H171.964ZM171.964 70.1199H169.964C169.964 78.8971 167.411 85.5225 162.513 90.2627L163.904 91.7L165.295 93.1372C171.143 87.4774 173.964 79.7162 173.964 70.1199H171.964ZM163.904 91.7L162.501 90.2741C157.67 95.0262 151.025 97.5 142.324 97.5V99.5V101.5C151.822 101.5 159.564 98.7738 165.306 93.1258L163.904 91.7ZM142.324 85.2V87.2C147.085 87.2 151.024 85.9337 153.774 83.0772L152.334 81.6899L150.893 80.3027C149.137 82.1262 146.403 83.2 142.324 83.2V85.2ZM152.334 81.6899L153.799 83.0509C156.498 80.1447 157.714 76.1722 157.714 71.42H155.714H153.714C153.714 75.5077 152.676 78.3819 150.868 80.329L152.334 81.6899ZM155.714 71.42H157.714V30.0799H155.714H153.714V71.42H155.714ZM155.714 30.0799H157.714C157.714 25.3328 156.5 21.3829 153.774 18.5527L152.334 19.9399L150.893 21.3272C152.674 23.1769 153.714 25.9871 153.714 30.0799H155.714ZM152.334 19.9399L153.799 18.579C151.053 15.6213 147.105 14.2999 142.324 14.2999V16.2999V18.2999C146.382 18.2999 149.108 19.4052 150.868 21.3008L152.334 19.9399ZM142.324 16.2999V14.2999C137.542 14.2999 133.595 15.6213 130.848 18.579L132.314 19.9399L133.779 21.3008C135.54 19.4052 138.265 18.2999 142.324 18.2999V16.2999ZM132.314 19.9399L130.873 18.5527C128.148 21.3829 126.934 25.3328 126.934 30.0799H128.934H130.934C130.934 25.9871 131.973 23.1769 133.754 21.3272L132.314 19.9399ZM128.934 30.0799H126.934V71.42H128.934H130.934V30.0799H128.934ZM128.934 71.42H126.934C126.934 76.1722 128.15 80.1447 130.848 83.0508L132.314 81.6899L133.779 80.329C131.971 78.3819 130.934 75.5077 130.934 71.42H128.934ZM132.314 81.6899L130.873 83.0772C133.624 85.9337 137.563 87.2 142.324 87.2V85.2V83.2C138.245 83.2 135.51 82.1262 133.754 80.3027L132.314 81.6899ZM186.213 98.2H184.213V100.2H186.213V98.2ZM186.213 3.29995V1.29995H184.213V3.29995H186.213ZM243.153 3.29995H245.153V1.29995H243.153V3.29995ZM243.153 17.9899V19.9899H245.153V17.9899H243.153ZM202.073 17.9899V15.9899H200.073V17.9899H202.073ZM202.073 40.6099H200.073V42.6099H202.073V40.6099ZM232.493 44.2499L231.572 46.0255L231.585 46.0322L231.599 46.0388L232.493 44.2499ZM243.413 54.2599L241.698 55.2889L241.703 55.2966L241.707 55.3043L243.413 54.2599ZM243.413 84.2899L241.698 83.261V83.261L243.413 84.2899ZM232.493 94.56L233.427 96.3284L233.439 96.3219L232.493 94.56ZM202.073 83.8999H200.073V85.8999H202.073V83.8999ZM226.773 79.8699L225.359 78.4557L225.347 78.4673L225.336 78.4791L226.773 79.8699ZM226.773 58.5499L225.336 59.9408L225.359 59.9644L225.382 59.9872L226.773 58.5499ZM202.073 54.5199V52.5199H200.073V54.5199H202.073ZM186.213 98.2H188.213V3.29995H186.213H184.213V98.2H186.213ZM186.213 3.29995V5.29995H243.153V3.29995V1.29995H186.213V3.29995ZM243.153 3.29995H241.153V17.9899H243.153H245.153V3.29995H243.153ZM243.153 17.9899V15.9899H202.073V17.9899V19.9899H243.153V17.9899ZM202.073 17.9899H200.073V40.6099H202.073H204.073V17.9899H202.073ZM202.073 40.6099V42.6099H215.983V40.6099V38.6099H202.073V40.6099ZM215.983 40.6099V42.6099C222.053 42.6099 227.228 43.773 231.572 46.0255L232.493 44.2499L233.414 42.4744C228.398 39.8735 222.567 38.6099 215.983 38.6099V40.6099ZM232.493 44.2499L231.599 46.0388C235.951 48.215 239.301 51.2937 241.698 55.2889L243.413 54.2599L245.128 53.231C242.325 48.5595 238.395 44.9649 233.387 42.4611L232.493 44.2499ZM243.413 54.2599L241.707 55.3043C244.088 59.1921 245.313 63.8026 245.313 69.21H247.313H249.313C249.313 63.1773 247.938 57.8211 245.119 53.2156L243.413 54.2599ZM247.313 69.21H245.313C245.313 74.6163 244.088 79.2778 241.698 83.261L243.413 84.2899L245.128 85.3189C247.938 80.6354 249.313 75.2436 249.313 69.21H247.313ZM243.413 84.2899L241.698 83.261C239.293 87.269 235.926 90.4461 231.547 92.798L232.493 94.56L233.439 96.3219C238.42 93.6471 242.333 89.9775 245.128 85.3189L243.413 84.2899ZM232.493 94.56L231.559 92.7916C227.31 95.0364 222.184 96.2 216.113 96.2V98.2V100.2C222.695 100.2 228.49 98.9368 233.427 96.3283L232.493 94.56ZM216.113 98.2V96.2H186.213V98.2V100.2H216.113V98.2ZM202.073 83.8999V85.8999H216.113V83.8999V81.8999H202.073V83.8999ZM216.113 83.8999V85.8999C221.042 85.8999 225.158 84.4151 228.21 81.2608L226.773 79.8699L225.336 78.4791C223.188 80.6982 220.197 81.8999 216.113 81.8999V83.8999ZM226.773 79.8699L228.187 81.2842C231.31 78.161 232.803 74.0668 232.803 69.21H230.803H228.803C228.803 73.1931 227.609 76.2055 225.359 78.4557L226.773 79.8699ZM230.803 69.21H232.803C232.803 64.281 231.318 60.1653 228.164 57.1127L226.773 58.5499L225.382 59.9872C227.601 62.1346 228.803 65.1255 228.803 69.21H230.803ZM226.773 58.5499L228.21 57.1591C225.158 54.0048 221.042 52.5199 216.113 52.5199V54.5199V56.5199C220.197 56.5199 223.188 57.7217 225.336 59.9408L226.773 58.5499ZM216.113 54.5199V52.5199H202.073V54.5199V56.5199H216.113V54.5199ZM202.073 54.5199H200.073V83.8999H202.073H204.073V54.5199H202.073ZM276.252 42.2999H274.252V44.2999H276.252V42.2999ZM276.252 56.08V54.08H274.252V56.08H276.252ZM263.512 98.2V96.2C262.737 96.2 262.523 96.0075 262.489 95.9732C262.455 95.9389 262.262 95.725 262.262 94.95H260.262H258.262C258.262 96.3416 258.612 97.7526 259.661 98.8017C260.71 99.8507 262.121 100.2 263.512 100.2V98.2ZM260.262 94.95H262.262V6.54994H260.262H258.262V94.95H260.262ZM260.262 6.54994H262.262C262.262 5.7749 262.455 5.56097 262.489 5.52666C262.523 5.49236 262.737 5.29995 263.512 5.29995V3.29995V1.29995C262.121 1.29995 260.71 1.64921 259.661 2.69823C258.612 3.74726 258.262 5.15833 258.262 6.54994H260.262ZM263.512 3.29995V5.29995H313.952V3.29995V1.29995H263.512V3.29995ZM313.952 3.29995V5.29995C314.727 5.29995 314.941 5.49236 314.976 5.52666C315.01 5.56097 315.202 5.7749 315.202 6.54994H317.202H319.202C319.202 5.15833 318.853 3.74726 317.804 2.69823C316.755 1.64921 315.344 1.29995 313.952 1.29995V3.29995ZM317.202 6.54994H315.202V14.3499H317.202H319.202V6.54994H317.202ZM317.202 14.3499H315.202C315.202 15.125 315.01 15.3389 314.976 15.3732C314.941 15.4075 314.727 15.6 313.952 15.6V17.6V19.6C315.344 19.6 316.755 19.2507 317.804 18.2017C318.853 17.1526 319.202 15.7416 319.202 14.3499H317.202ZM313.952 17.6V15.6H279.502V17.6V19.6H313.952V17.6ZM279.502 17.6V15.6C278.111 15.6 276.7 15.9492 275.651 16.9982C274.602 18.0473 274.252 19.4583 274.252 20.8499H276.252H278.252C278.252 20.0749 278.445 19.861 278.479 19.8267C278.513 19.7924 278.727 19.6 279.502 19.6V17.6ZM276.252 20.8499H274.252V42.2999H276.252H278.252V20.8499H276.252ZM276.252 42.2999V44.2999H309.402V42.2999V40.2999H276.252V42.2999ZM309.402 42.2999V44.2999C310.197 44.2999 310.423 44.492 310.455 44.5227C310.472 44.5389 310.652 44.7095 310.652 45.4199H312.652H314.652C314.652 44.0504 314.291 42.661 313.225 41.6372C312.174 40.6279 310.774 40.2999 309.402 40.2999V42.2999ZM312.652 45.4199H310.652V52.8299H312.652H314.652V45.4199H312.652ZM312.652 52.8299H310.652C310.652 53.605 310.46 53.8189 310.426 53.8532C310.391 53.8875 310.177 54.08 309.402 54.08V56.08V58.08C310.794 58.08 312.205 57.7307 313.254 56.6817C314.303 55.6326 314.652 54.2216 314.652 52.8299H312.652ZM309.402 56.08V54.08H276.252V56.08V58.08H309.402V56.08ZM276.252 56.08H274.252V80.6499H276.252H278.252V56.08H276.252ZM276.252 80.6499H274.252C274.252 82.0416 274.602 83.4526 275.651 84.5017C276.7 85.5507 278.111 85.8999 279.502 85.8999V83.8999V81.8999C278.727 81.8999 278.513 81.7075 278.479 81.6732C278.445 81.6389 278.252 81.425 278.252 80.6499H276.252ZM279.502 83.8999V85.8999H313.952V83.8999V81.8999H279.502V83.8999ZM313.952 83.8999V85.8999C314.727 85.8999 314.941 86.0924 314.976 86.1267C315.01 86.161 315.202 86.3749 315.202 87.1499H317.202H319.202C319.202 85.7583 318.853 84.3473 317.804 83.2982C316.755 82.2492 315.344 81.8999 313.952 81.8999V83.8999ZM317.202 87.1499H315.202V94.95H317.202H319.202V87.1499H317.202ZM317.202 94.95H315.202C315.202 95.725 315.01 95.9389 314.976 95.9732C314.941 96.0075 314.727 96.2 313.952 96.2V98.2V100.2C315.344 100.2 316.755 99.8507 317.804 98.8017C318.853 97.7526 319.202 96.3416 319.202 94.95H317.202ZM313.952 98.2V96.2H263.512V98.2V100.2H313.952V98.2ZM379.682 6.93995L378.761 8.71545L378.767 8.71889L378.774 8.72227L379.682 6.93995ZM390.732 17.2099L389.008 18.224L389.012 18.2315L389.017 18.2389L390.732 17.2099ZM390.732 48.02L392.446 49.0489L392.451 49.0415L392.455 49.034L390.732 48.02ZM379.682 58.1599L378.774 56.3776L378.767 56.381L378.761 56.3844L379.682 58.1599ZM347.832 61.7999V59.7999H345.832V61.7999H347.832ZM347.832 47.5H345.832V49.5H347.832V47.5ZM374.091 43.3399L372.655 41.9484V41.9484L374.091 43.3399ZM374.091 21.7599L372.655 23.1515V23.1515L374.091 21.7599ZM334.702 98.2V96.2C333.991 96.2 333.82 96.0192 333.804 96.0024C333.773 95.9703 333.582 95.7449 333.582 94.95H331.582H329.582C329.582 96.3216 329.909 97.7212 330.919 98.7725C331.943 99.839 333.332 100.2 334.702 100.2V98.2ZM331.582 94.95H333.582V6.54994H331.582H329.582V94.95H331.582ZM331.582 6.54994H333.582C333.582 5.75494 333.773 5.52956 333.804 5.49751C333.82 5.48069 333.991 5.29995 334.702 5.29995V3.29995V1.29995C333.332 1.29995 331.943 1.66087 330.919 2.72739C329.909 3.77866 329.582 5.17828 329.582 6.54994H331.582ZM334.702 3.29995V5.29995H363.172V3.29995V1.29995H334.702V3.29995ZM363.172 3.29995V5.29995C369.241 5.29995 374.417 6.46304 378.761 8.71545L379.682 6.93995L380.602 5.16444C375.586 2.56353 369.755 1.29995 363.172 1.29995V3.29995ZM379.682 6.93995L378.774 8.72227C383.216 10.9838 386.61 14.1473 389.008 18.224L390.732 17.2099L392.455 16.1959C389.653 11.4326 385.68 7.74947 380.589 5.15762L379.682 6.93995ZM390.732 17.2099L389.017 18.2389C391.401 22.213 392.632 26.9581 392.632 32.5499H394.632H396.632C396.632 26.3552 395.262 20.8736 392.446 16.181L390.732 17.2099ZM394.632 32.5499H392.632C392.632 38.1408 391.401 42.9367 389.008 47.0059L390.732 48.02L392.455 49.034C395.262 44.2632 396.632 38.7458 396.632 32.5499H394.632ZM390.732 48.02L389.017 46.991C386.621 50.9832 383.227 54.1109 378.774 56.3776L379.682 58.1599L380.589 59.9423C385.67 57.3557 389.642 53.7233 392.446 49.0489L390.732 48.02ZM379.682 58.1599L378.761 56.3844C374.417 58.6369 369.241 59.7999 363.172 59.7999V61.7999V63.7999C369.755 63.7999 375.586 62.5364 380.602 59.9355L379.682 58.1599ZM363.172 61.7999V59.7999H347.832V61.7999V63.7999H363.172V61.7999ZM347.832 61.7999H345.832V94.95H347.832H349.832V61.7999H347.832ZM347.832 94.95H345.832C345.832 95.725 345.639 95.9389 345.605 95.9732C345.57 96.0075 345.357 96.2 344.582 96.2V98.2V100.2C345.973 100.2 347.384 99.8507 348.433 98.8017C349.482 97.7526 349.832 96.3416 349.832 94.95H347.832ZM344.582 98.2V96.2H334.702V98.2V100.2H344.582V98.2ZM347.832 47.5V49.5H363.172V47.5V45.5H347.832V47.5ZM363.172 47.5V49.5C368.196 49.5 372.394 47.9667 375.528 44.7315L374.091 43.3399L372.655 41.9484C370.416 44.2599 367.334 45.5 363.172 45.5V47.5ZM374.091 43.3399L375.528 44.7315C378.629 41.5306 380.122 37.4082 380.122 32.5499H378.122H376.122C376.122 36.5317 374.927 39.6026 372.655 41.9484L374.091 43.3399ZM378.122 32.5499H380.122C380.122 27.6917 378.629 23.5693 375.528 20.3684L374.091 21.7599L372.655 23.1515C374.927 25.4973 376.122 28.5682 376.122 32.5499H378.122ZM374.091 21.7599L375.528 20.3684C372.394 17.1332 368.196 15.6 363.172 15.6V17.6V19.6C367.334 19.6 370.416 20.84 372.655 23.1515L374.091 21.7599ZM363.172 17.6V15.6H351.082V17.6V19.6H363.172V17.6ZM351.082 17.6V15.6C349.71 15.6 348.31 15.9279 347.259 16.9372C346.192 17.961 345.832 19.3504 345.832 20.7199H347.832H349.832C349.832 20.0095 350.012 19.8389 350.029 19.8227C350.061 19.792 350.286 19.6 351.082 19.6V17.6ZM347.832 20.7199H345.832V47.5H347.832H349.832V20.7199H347.832ZM403.681 98.2H401.681V100.2H403.681V98.2ZM403.681 3.29995V1.29995H401.681V3.29995H403.681ZM418.501 3.29995H420.501V1.29995H418.501V3.29995ZM418.241 59.9799L420.239 60.0729V60.0729L418.241 59.9799ZM417.591 70.8999L415.596 70.754V70.754L417.591 70.8999ZM416.941 80L414.945 79.8624L418.834 80.6449L416.941 80ZM443.071 3.29995V1.29995H441.639L441.178 2.65499L443.071 3.29995ZM462.961 3.29995H464.961V1.29995H462.961V3.29995ZM462.961 98.2V100.2H464.961V98.2H462.961ZM448.141 98.2H446.141V100.2H448.141V98.2ZM448.401 42.8199L446.405 42.6869L446.404 42.709L446.403 42.7311L448.401 42.8199ZM449.181 31.38L451.176 31.5191L451.176 31.516L449.181 31.38ZM449.961 21.4999L451.952 21.6866L448.07 20.8493L449.961 21.4999ZM423.571 98.2V100.2H424.998L425.462 98.8506L423.571 98.2ZM403.681 98.2H405.681V3.29995H403.681H401.681V98.2H403.681ZM403.681 3.29995V5.29995H418.501V3.29995V1.29995H403.681V3.29995ZM418.501 3.29995H416.501V49.7099H418.501H420.501V3.29995H418.501ZM418.501 49.7099H416.501C416.501 52.7937 416.415 56.1855 416.243 59.887L418.241 59.9799L420.239 60.0729C420.413 56.321 420.501 52.8662 420.501 49.7099H418.501ZM418.241 59.9799L416.243 59.887C416.07 63.5968 415.855 67.2191 415.596 70.754L417.591 70.8999L419.585 71.0459C419.847 67.4741 420.064 63.8164 420.239 60.0729L418.241 59.9799ZM417.591 70.8999L415.596 70.754C415.336 74.3091 415.119 77.3454 414.945 79.8624L416.941 80L418.936 80.1376C419.109 77.6279 419.326 74.5975 419.585 71.0459L417.591 70.8999ZM416.941 80L418.834 80.6449L444.964 3.94491L443.071 3.29995L441.178 2.65499L415.048 79.355L416.941 80ZM443.071 3.29995V5.29995H462.961V3.29995V1.29995H443.071V3.29995ZM462.961 3.29995H460.961V98.2H462.961H464.961V3.29995H462.961ZM462.961 98.2V96.2H448.141V98.2V100.2H462.961V98.2ZM448.141 98.2H450.141V53.2199H448.141H446.141V98.2H448.141ZM448.141 53.2199H450.141C450.141 50.2232 450.226 46.7871 450.399 42.9087L448.401 42.8199L446.403 42.7311C446.228 46.6528 446.141 50.15 446.141 53.2199H448.141ZM448.401 42.8199L450.396 42.953C450.656 39.0549 450.916 35.2437 451.176 31.5191L449.181 31.38L447.186 31.2408C446.925 34.9696 446.665 38.785 446.405 42.6869L448.401 42.8199ZM449.181 31.38L451.176 31.516C451.435 27.7138 451.694 24.4382 451.952 21.6866L449.961 21.4999L447.969 21.3133C447.707 24.1083 447.446 27.4194 447.185 31.2439L449.181 31.38ZM449.961 21.4999L448.07 20.8493L421.68 97.5493L423.571 98.2L425.462 98.8506L451.852 22.1506L449.961 21.4999ZM423.571 98.2V96.2H403.681V98.2V100.2H423.571V98.2ZM166.348 184.12L165.427 185.895L165.44 185.902L165.454 185.909L166.348 184.12ZM155.818 174.37L154.082 175.362L154.094 175.383L154.107 175.404L155.818 174.37ZM155.818 103.26L154.097 102.241L154.091 102.252L155.818 103.26ZM166.348 93.5099L167.243 95.2988L167.257 95.292L167.27 95.2849L166.348 93.5099ZM203.138 96.7599L201.853 98.2923L201.861 98.2985L201.868 98.3045L203.138 96.7599ZM212.238 114.7L214.233 114.547L214.231 114.532L214.23 114.517L212.238 114.7ZM195.858 114.96L193.88 115.25L193.882 115.269L193.886 115.289L195.858 114.96ZM172.068 107.94L173.457 109.38L173.47 109.367L173.483 109.354L172.068 107.94ZM172.068 169.69L170.654 171.104L170.667 171.117L170.68 171.13L172.068 169.69ZM195.858 162.54L193.886 162.211L193.882 162.231L193.88 162.25L195.858 162.54ZM212.368 162.54L214.36 162.721L214.365 162.672L214.367 162.623L212.368 162.54ZM203.268 180.74L201.983 179.208V179.208L203.268 180.74ZM182.338 187.5V185.5C176.428 185.5 171.417 184.418 167.243 182.331L166.348 184.12L165.454 185.909C170.293 188.328 175.942 189.5 182.338 189.5V187.5ZM166.348 184.12L167.27 182.345C163.075 180.167 159.845 177.166 157.53 173.336L155.818 174.37L154.107 175.404C156.819 179.894 160.609 183.393 165.427 185.895L166.348 184.12ZM155.818 174.37L157.555 173.378C155.328 169.481 154.178 164.851 154.178 159.42H152.178H150.178C150.178 165.429 151.455 170.766 154.082 175.362L155.818 174.37ZM152.178 159.42H154.178V118.08H152.178H150.178V159.42H152.178ZM152.178 118.08H154.178C154.178 112.647 155.329 108.069 157.546 104.268L155.818 103.26L154.091 102.252C151.455 106.771 150.178 112.073 150.178 118.08H152.178ZM155.818 103.26L157.54 104.279C159.853 100.37 163.072 97.384 167.243 95.2988L166.348 93.5099L165.454 91.7211C160.611 94.1425 156.811 97.6565 154.097 102.241L155.818 103.26ZM166.348 93.5099L167.27 95.2849C171.438 93.1209 176.439 91.9999 182.338 91.9999V89.9999V87.9999C175.932 87.9999 170.272 89.219 165.427 91.7349L166.348 93.5099ZM182.338 89.9999V91.9999C190.465 91.9999 196.912 94.148 201.853 98.2923L203.138 96.7599L204.424 95.2276C198.618 90.3586 191.199 87.9999 182.338 87.9999V89.9999ZM203.138 96.7599L201.868 98.3045C206.79 102.354 209.598 107.823 210.247 114.883L212.238 114.7L214.23 114.517C213.493 106.497 210.233 100.006 204.409 95.2154L203.138 96.7599ZM212.238 114.7L210.244 114.853C210.276 115.259 210.244 115.524 210.204 115.682C210.166 115.828 210.125 115.872 210.119 115.878C210.113 115.885 210.074 115.928 209.934 115.976C209.781 116.028 209.523 116.08 209.118 116.08V118.08V120.08C210.539 120.08 212.011 119.726 213.058 118.592C214.104 117.459 214.342 115.963 214.233 114.547L212.238 114.7ZM209.118 118.08V116.08H199.368V118.08V120.08H209.118V118.08ZM199.368 118.08V116.08C198.723 116.08 198.452 115.918 198.325 115.805C198.183 115.68 197.955 115.377 197.831 114.631L195.858 114.96L193.886 115.289C194.108 116.623 194.638 117.88 195.667 118.795C196.71 119.722 198.02 120.08 199.368 120.08V118.08ZM195.858 114.96L197.837 114.67C197.263 110.744 195.686 107.562 192.937 105.394C190.216 103.249 186.602 102.3 182.338 102.3V104.3V106.3C186.048 106.3 188.674 107.128 190.46 108.535C192.217 109.921 193.414 112.069 193.88 115.25L195.858 114.96ZM182.338 104.3V102.3C177.548 102.3 173.556 103.624 170.654 106.526L172.068 107.94L173.483 109.354C175.435 107.402 178.289 106.3 182.338 106.3V104.3ZM172.068 107.94L170.68 106.5C167.751 109.324 166.428 113.294 166.428 118.08H168.428H170.428C170.428 114.026 171.532 111.236 173.457 109.38L172.068 107.94ZM168.428 118.08H166.428V159.42H168.428H170.428V118.08H168.428ZM168.428 159.42H166.428C166.428 164.211 167.753 168.203 170.654 171.104L172.068 169.69L173.483 168.276C171.531 166.324 170.428 163.469 170.428 159.42H168.428ZM172.068 169.69L170.68 171.13C173.584 173.93 177.567 175.2 182.338 175.2V173.2V171.2C178.27 171.2 175.406 170.13 173.457 168.25L172.068 169.69ZM182.338 173.2V175.2C186.602 175.2 190.216 174.251 192.937 172.105C195.686 169.938 197.263 166.756 197.837 162.83L195.858 162.54L193.88 162.25C193.414 165.431 192.217 167.579 190.46 168.964C188.674 170.372 186.048 171.2 182.338 171.2V173.2ZM195.858 162.54L197.831 162.869C197.955 162.123 198.183 161.82 198.325 161.695C198.452 161.582 198.723 161.42 199.368 161.42V159.42V157.42C198.02 157.42 196.71 157.778 195.667 158.705C194.638 159.62 194.108 160.877 193.886 162.211L195.858 162.54ZM199.368 159.42V161.42H209.118V159.42V157.42H199.368V159.42ZM209.118 159.42V161.42C209.983 161.42 210.216 161.624 210.236 161.643C210.245 161.652 210.276 161.681 210.309 161.784C210.346 161.899 210.385 162.11 210.37 162.457L212.368 162.54L214.367 162.623C214.424 161.24 214.103 159.81 213.006 158.757C211.942 157.736 210.508 157.42 209.118 157.42V159.42ZM212.368 162.54L210.377 162.359C209.726 169.513 206.913 175.073 201.983 179.208L203.268 180.74L204.554 182.272C210.371 177.393 213.624 170.821 214.36 162.721L212.368 162.54ZM203.268 180.74L201.983 179.208C197.045 183.349 190.557 185.5 182.338 185.5V187.5V189.5C191.28 189.5 198.745 187.144 204.554 182.272L203.268 180.74ZM275.888 97.9299L274.617 99.4745L274.623 99.4795L274.629 99.4844L275.888 97.9299ZM279.528 129.13L277.977 127.867L277.968 127.878L277.959 127.889L279.528 129.13ZM267.958 135.89L267.635 133.916L265.958 134.191V135.89H267.958ZM267.958 136.15H265.958V137.921L267.716 138.135L267.958 136.15ZM277.448 140.05L276.216 141.626L276.232 141.638L276.248 141.65L277.448 140.05ZM283.948 148.24L282.132 149.078L282.136 149.087L282.14 149.096L283.948 148.24ZM282.518 173.46L284.22 174.51V174.51L282.518 173.46ZM271.858 182.95L272.711 184.759L272.725 184.752L272.738 184.746L271.858 182.95ZM240.918 130.43H238.918V132.43H240.918V130.43ZM264.058 127.05L265.393 128.539L265.407 128.527L265.421 128.514L264.058 127.05ZM264.058 108.33L262.669 109.77L262.696 109.795L262.723 109.819L264.058 108.33ZM265.878 168.91L267.244 170.37L267.246 170.369L265.878 168.91ZM265.878 147.72L264.441 149.112L264.463 149.134L264.486 149.156L265.878 147.72ZM240.918 143.56V141.56H238.918V143.56H240.918ZM228.308 186.2V184.2C227.533 184.2 227.319 184.008 227.284 183.973C227.25 183.939 227.058 183.725 227.058 182.95H225.058H223.058C223.058 184.342 223.407 185.753 224.456 186.802C225.505 187.851 226.916 188.2 228.308 188.2V186.2ZM225.058 182.95H227.058V94.5499H225.058H223.058V182.95H225.058ZM225.058 94.5499H227.058C227.058 93.7749 227.25 93.561 227.284 93.5267C227.319 93.4924 227.533 93.2999 228.308 93.2999V91.2999V89.2999C226.916 89.2999 225.505 89.6492 224.456 90.6982C223.407 91.7473 223.058 93.1583 223.058 94.5499H225.058ZM228.308 91.2999V93.2999H254.178V91.2999V89.2999H228.308V91.2999ZM254.178 91.2999V93.2999C262.958 93.2999 269.699 95.4292 274.617 99.4745L275.888 97.9299L277.158 96.3854C271.329 91.5907 263.597 89.2999 254.178 89.2999V91.2999ZM275.888 97.9299L274.629 99.4844C279.588 103.499 282.078 108.848 282.078 115.74H284.078H286.078C286.078 107.725 283.107 101.201 277.146 96.3755L275.888 97.9299ZM284.078 115.74H282.078C282.078 120.521 280.695 124.528 277.977 127.867L279.528 129.13L281.079 130.392C284.427 126.279 286.078 121.359 286.078 115.74H284.078ZM279.528 129.13L277.959 127.889C275.327 131.218 271.918 133.215 267.635 133.916L267.958 135.89L268.281 137.864C273.53 137.005 277.835 134.495 281.096 130.37L279.528 129.13ZM267.958 135.89H265.958V136.15H267.958H269.958V135.89H267.958ZM267.958 136.15L267.716 138.135C270.915 138.525 273.735 139.687 276.216 141.626L277.448 140.05L278.679 138.474C275.614 136.079 272.107 134.641 268.2 134.165L267.958 136.15ZM277.448 140.05L276.248 141.65C278.736 143.516 280.7 145.976 282.132 149.078L283.948 148.24L285.764 147.402C284.075 143.744 281.706 140.743 278.648 138.45L277.448 140.05ZM283.948 148.24L282.14 149.096C283.562 152.097 284.288 155.441 284.288 159.16H286.288H288.288C288.288 154.905 287.453 150.969 285.755 147.384L283.948 148.24ZM286.288 159.16H284.288C284.288 164.302 283.108 168.695 280.816 172.41L282.518 173.46L284.22 174.51C286.954 170.079 288.288 164.937 288.288 159.16H286.288ZM282.518 173.46L280.816 172.41C278.514 176.14 275.256 179.055 270.977 181.154L271.858 182.95L272.738 184.746C277.646 182.338 281.495 178.927 284.22 174.51L282.518 173.46ZM271.858 182.95L271.004 181.141C266.732 183.156 261.619 184.2 255.608 184.2V186.2V188.2C262.077 188.2 267.797 187.077 272.711 184.759L271.858 182.95ZM255.608 186.2V184.2H228.308V186.2V188.2H255.608V186.2ZM240.918 130.43V132.43H253.918V130.43V128.43H240.918V130.43ZM253.918 130.43V132.43C258.525 132.43 262.425 131.2 265.393 128.539L264.058 127.05L262.723 125.561C260.664 127.407 257.803 128.43 253.918 128.43V130.43ZM264.058 127.05L265.421 128.514C268.407 125.734 269.828 122.004 269.828 117.56H267.828H265.828C265.828 121.089 264.735 123.686 262.695 125.586L264.058 127.05ZM267.828 117.56H269.828C269.828 113.189 268.397 109.534 265.393 106.841L264.058 108.33L262.723 109.819C264.745 111.633 265.828 114.131 265.828 117.56H267.828ZM264.058 108.33L265.446 106.89C262.549 104.097 258.615 102.82 253.918 102.82V104.82V106.82C257.887 106.82 260.713 107.883 262.669 109.77L264.058 108.33ZM253.918 104.82V102.82H244.038V104.82V106.82H253.918V104.82ZM244.038 104.82V102.82C242.668 102.82 241.279 103.181 240.255 104.247C239.246 105.299 238.918 106.698 238.918 108.07H240.918H242.918C242.918 107.275 243.11 107.05 243.14 107.018C243.157 107.001 243.327 106.82 244.038 106.82V104.82ZM240.918 108.07H238.918V130.43H240.918H242.918V108.07H240.918ZM240.918 169.43H238.918C238.918 170.802 239.246 172.201 240.255 173.253C241.279 174.319 242.668 174.68 244.038 174.68V172.68V170.68C243.327 170.68 243.157 170.499 243.14 170.482C243.11 170.45 242.918 170.225 242.918 169.43H240.918ZM244.038 172.68V174.68H254.698V172.68V170.68H244.038V172.68ZM254.698 172.68V174.68C259.817 174.68 264.087 173.324 267.244 170.37L265.878 168.91L264.511 167.449C262.295 169.523 259.112 170.68 254.698 170.68V172.68ZM265.878 168.91L267.246 170.369C270.489 167.329 272.038 163.255 272.038 158.38H270.038H268.038C268.038 162.345 266.813 165.291 264.51 167.451L265.878 168.91ZM270.038 158.38H272.038C272.038 153.504 270.489 149.402 267.269 146.283L265.878 147.72L264.486 149.156C266.813 151.411 268.038 154.416 268.038 158.38H270.038ZM265.878 147.72L267.314 146.328C264.166 143.079 259.87 141.56 254.698 141.56V143.56V145.56C259.058 145.56 262.216 146.815 264.441 149.112L265.878 147.72ZM254.698 143.56V141.56H240.918V143.56V145.56H254.698V143.56ZM240.918 143.56H238.918V169.43H240.918H242.918V143.56H240.918ZM305.087 179.7L303.684 181.126L303.69 181.132L303.696 181.137L305.087 179.7ZM305.087 97.7999L303.696 96.3627L303.69 96.3684L303.684 96.3741L305.087 97.7999ZM348.377 97.7999L346.974 99.2258L346.98 99.2315L346.986 99.2372L348.377 97.7999ZM348.377 179.7L346.986 178.263L346.98 178.268L346.974 178.274L348.377 179.7ZM336.807 169.69L338.248 171.077L338.26 171.064L338.272 171.051L336.807 169.69ZM336.807 107.94L335.341 109.301L335.354 109.314L335.366 109.327L336.807 107.94ZM316.787 107.94L318.228 109.327L318.24 109.314L318.252 109.301L316.787 107.94ZM316.787 169.69L315.321 171.051L315.334 171.064L315.346 171.077L316.787 169.69ZM326.797 187.5V185.5C318.097 185.5 311.4 183.026 306.478 178.263L305.087 179.7L303.696 181.137C309.52 186.773 317.297 189.5 326.797 189.5V187.5ZM305.087 179.7L306.489 178.274C301.672 173.536 299.157 166.906 299.157 158.12H297.157H295.157C295.157 167.707 297.928 175.464 303.684 181.126L305.087 179.7ZM297.157 158.12H299.157V119.38H297.157H295.157V158.12H297.157ZM297.157 119.38H299.157C299.157 110.593 301.672 103.964 306.489 99.2258L305.087 97.7999L303.684 96.3741C297.928 102.036 295.157 109.793 295.157 119.38H297.157ZM305.087 97.7999L306.478 99.2372C311.4 94.4734 318.097 91.9999 326.797 91.9999V89.9999V87.9999C317.297 87.9999 309.52 90.7265 303.696 96.3627L305.087 97.7999ZM326.797 89.9999V91.9999C335.499 91.9999 342.143 94.4737 346.974 99.2258L348.377 97.7999L349.779 96.3741C344.037 90.7262 336.295 87.9999 326.797 87.9999V89.9999ZM348.377 97.7999L346.986 99.2372C351.888 103.981 354.437 110.566 354.437 119.25H356.437H358.437C358.437 109.734 355.612 102.019 349.768 96.3627L348.377 97.7999ZM356.437 119.25H354.437V158.12H356.437H358.437V119.25H356.437ZM356.437 158.12H354.437C354.437 166.897 351.884 173.523 346.986 178.263L348.377 179.7L349.768 181.137C355.616 175.477 358.437 167.716 358.437 158.12H356.437ZM348.377 179.7L346.974 178.274C342.143 183.026 335.499 185.5 326.797 185.5V187.5V189.5C336.295 189.5 344.037 186.774 349.779 181.126L348.377 179.7ZM326.797 173.2V175.2C331.558 175.2 335.497 173.934 338.248 171.077L336.807 169.69L335.366 168.303C333.61 170.126 330.876 171.2 326.797 171.2V173.2ZM336.807 169.69L338.272 171.051C340.971 168.145 342.187 164.172 342.187 159.42H340.187H338.187C338.187 163.508 337.149 166.382 335.341 168.329L336.807 169.69ZM340.187 159.42H342.187V118.08H340.187H338.187V159.42H340.187ZM340.187 118.08H342.187C342.187 113.333 340.973 109.383 338.248 106.553L336.807 107.94L335.366 109.327C337.147 111.177 338.187 113.987 338.187 118.08H340.187ZM336.807 107.94L338.272 106.579C335.526 103.621 331.578 102.3 326.797 102.3V104.3V106.3C330.855 106.3 333.581 107.405 335.341 109.301L336.807 107.94ZM326.797 104.3V102.3C322.015 102.3 318.068 103.621 315.321 106.579L316.787 107.94L318.252 109.301C320.013 107.405 322.738 106.3 326.797 106.3V104.3ZM316.787 107.94L315.346 106.553C312.621 109.383 311.407 113.333 311.407 118.08H313.407H315.407C315.407 113.987 316.446 111.177 318.228 109.327L316.787 107.94ZM313.407 118.08H311.407V159.42H313.407H315.407V118.08H313.407ZM313.407 159.42H311.407C311.407 164.172 312.623 168.145 315.321 171.051L316.787 169.69L318.252 168.329C316.444 166.382 315.407 163.508 315.407 159.42H313.407ZM316.787 169.69L315.346 171.077C318.097 173.934 322.036 175.2 326.797 175.2V173.2V171.2C322.718 171.2 319.983 170.126 318.228 168.303L316.787 169.69ZM397.466 181L395.979 182.338L395.987 182.346L395.994 182.354L397.466 181ZM391.616 143.56H393.616V141.56H391.616V143.56ZM380.956 143.56V141.56H378.956V143.56H380.956ZM380.956 186.2V188.2H382.956V186.2H380.956ZM366.656 186.2H364.656V188.2H366.656V186.2ZM366.656 91.2999V89.2999H364.656V91.2999H366.656ZM380.956 91.2999H382.956V89.2999H380.956V91.2999ZM380.956 130.56H378.956V132.56H380.956V130.56ZM391.616 130.56V132.56H393.616V130.56H391.616ZM397.466 96.4999L395.994 95.1458L395.993 95.1471L397.466 96.4999ZM429.186 96.4999L427.714 97.8541L427.721 97.8615L427.728 97.8688L429.186 96.4999ZM429.186 181L427.714 179.646V179.646L429.186 181ZM418.656 172.42L417.073 171.197L417.065 171.208L418.656 172.42ZM418.656 105.21L417.039 106.386L417.069 106.428L417.102 106.468L418.656 105.21ZM406.696 105.21L405.113 103.987L405.105 103.998L406.696 105.21ZM406.696 172.42L405.079 173.596L405.109 173.638L405.142 173.678L406.696 172.42ZM413.196 187.5V185.5C407.191 185.5 402.504 183.522 398.938 179.646L397.466 181L395.994 182.354C400.401 187.144 406.201 189.5 413.196 189.5V187.5ZM397.466 181L398.953 179.662C395.452 175.772 393.616 170.566 393.616 163.84H391.616H389.616C389.616 171.327 391.68 177.561 395.979 182.338L397.466 181ZM391.616 163.84H393.616V143.56H391.616H389.616V163.84H391.616ZM391.616 143.56V141.56H380.956V143.56V145.56H391.616V143.56ZM380.956 143.56H378.956V186.2H380.956H382.956V143.56H380.956ZM380.956 186.2V184.2H366.656V186.2V188.2H380.956V186.2ZM366.656 186.2H368.656V91.2999H366.656H364.656V186.2H366.656ZM366.656 91.2999V93.2999H380.956V91.2999V89.2999H366.656V91.2999ZM380.956 91.2999H378.956V130.56H380.956H382.956V91.2999H380.956ZM380.956 130.56V132.56H391.616V130.56V128.56H380.956V130.56ZM391.616 130.56H393.616V113.53H391.616H389.616V130.56H391.616ZM391.616 113.53H393.616C393.616 106.802 395.452 101.649 398.939 97.8528L397.466 96.4999L395.993 95.1471C391.68 99.8438 389.616 106.044 389.616 113.53H391.616ZM397.466 96.4999L398.938 97.8541C402.504 93.9777 407.191 91.9999 413.196 91.9999V89.9999V87.9999C406.201 87.9999 400.401 90.3556 395.994 95.1458L397.466 96.4999ZM413.196 89.9999V91.9999C419.392 91.9999 424.159 93.9893 427.714 97.8541L429.186 96.4999L430.658 95.1458C426.24 90.3439 420.346 87.9999 413.196 87.9999V89.9999ZM429.186 96.4999L427.728 97.8688C431.293 101.667 433.166 106.814 433.166 113.53H435.166H437.166C437.166 106.033 435.052 99.8265 430.644 95.1311L429.186 96.4999ZM435.166 113.53H433.166V163.84H435.166H437.166V113.53H435.166ZM435.166 163.84H433.166C433.166 170.554 431.294 175.755 427.714 179.646L429.186 181L430.658 182.354C435.052 177.578 437.166 171.339 437.166 163.84H435.166ZM429.186 181L427.714 179.646C424.159 183.511 419.392 185.5 413.196 185.5V187.5V189.5C420.346 189.5 426.24 187.156 430.658 182.354L429.186 181ZM412.806 175.15V177.15C415.873 177.15 418.441 176.002 420.247 173.632L418.656 172.42L417.065 171.208C416.098 172.478 414.766 173.15 412.806 173.15V175.15ZM418.656 172.42L420.239 173.643C422.067 171.277 422.866 168.196 422.866 164.62H420.866H418.866C418.866 167.631 418.192 169.749 417.074 171.197L418.656 172.42ZM420.866 164.62H422.866V112.88H420.866H418.866V164.62H420.866ZM420.866 112.88H422.866C422.866 109.312 422.069 106.248 420.211 103.952L418.656 105.21L417.102 106.468C418.189 107.812 418.866 109.862 418.866 112.88H420.866ZM418.656 105.21L420.274 104.034C418.482 101.571 415.91 100.35 412.806 100.35V102.35V104.35C414.729 104.35 416.056 105.036 417.039 106.386L418.656 105.21ZM412.806 102.35V100.35C409.643 100.35 406.999 101.547 405.114 103.987L406.696 105.21L408.279 106.433C409.34 105.059 410.769 104.35 412.806 104.35V102.35ZM406.696 105.21L405.105 103.998C403.359 106.29 402.616 109.335 402.616 112.88H404.616H406.616C406.616 109.838 407.26 107.77 408.287 106.422L406.696 105.21ZM404.616 112.88H402.616V164.62H404.616H406.616V112.88H404.616ZM404.616 164.62H402.616C402.616 168.173 403.362 171.236 405.079 173.596L406.696 172.42L408.314 171.244C407.257 169.791 406.616 167.654 406.616 164.62H404.616ZM406.696 172.42L405.142 173.678C407.04 176.023 409.678 177.15 412.806 177.15V175.15V173.15C410.734 173.15 409.299 172.457 408.251 171.162L406.696 172.42ZM2.00001 247.42V245.42H1.14441e-05V247.42H2.00001ZM18.38 247.42H20.38V245.42H18.38V247.42ZM21.89 257.69L20.4503 259.078L20.4756 259.104L20.5017 259.13L21.89 257.69ZM42.43 257.69L43.8183 259.13L43.8314 259.117L43.8442 259.104L42.43 257.69ZM46.07 232.34H48.07V230.34H46.07V232.34ZM18.77 232.34H16.77V234.34H18.77V232.34ZM18.77 217.65V215.65H16.77V217.65H18.77ZM46.07 217.65V219.65H48.07V217.65H46.07ZM42.43 195.94L41.0158 197.354L41.0287 197.367L41.0417 197.38L42.43 195.94ZM21.89 195.94L20.4758 194.526L21.89 195.94ZM18.38 206.08V208.08H20.38V206.08H18.38ZM2.00001 206.08H1.14441e-05V208.08H2.00001V206.08ZM5.77001 191.26L7.48184 192.294L7.48654 192.286L7.49117 192.279L5.77001 191.26ZM16.3 181.51L17.1944 183.299L17.2081 183.292L17.2216 183.285L16.3 181.51ZM48.15 181.51L47.2284 183.285L47.2419 183.292L47.2556 183.299L48.15 181.51ZM58.55 191.26L56.8135 192.252L56.8256 192.273L56.8382 192.294L58.55 191.26ZM58.55 262.37L56.8288 261.351L56.8225 261.362L58.55 262.37ZM48.15 272.12L49.0444 273.909L49.0581 273.902L49.0716 273.895L48.15 272.12ZM16.3 272.12L15.3784 273.895L15.3919 273.902L15.4056 273.909L16.3 272.12ZM5.77001 262.37L4.04886 263.389L4.05349 263.396L4.05818 263.404L5.77001 262.37ZM2.00001 247.42V249.42H18.38V247.42V245.42H2.00001V247.42ZM18.38 247.42H16.38C16.38 252.191 17.6499 256.174 20.4503 259.078L21.89 257.69L23.3297 256.302C21.4502 254.353 20.38 251.489 20.38 247.42H18.38ZM21.89 257.69L20.5017 259.13C23.4059 261.93 27.3887 263.2 32.16 263.2V261.2V259.2C28.0913 259.2 25.2274 258.13 23.2783 256.25L21.89 257.69ZM32.16 261.2V263.2C36.9313 263.2 40.9141 261.93 43.8183 259.13L42.43 257.69L41.0417 256.25C39.0926 258.13 36.2287 259.2 32.16 259.2V261.2ZM42.43 257.69L43.8442 259.104C46.7455 256.203 48.07 252.211 48.07 247.42H46.07H44.07C44.07 251.469 42.9678 254.324 41.0158 256.276L42.43 257.69ZM46.07 247.42H48.07V232.34H46.07H44.07V247.42H46.07ZM46.07 232.34V230.34H18.77V232.34V234.34H46.07V232.34ZM18.77 232.34H20.77V217.65H18.77H16.77V232.34H18.77ZM18.77 217.65V219.65H46.07V217.65V215.65H18.77V217.65ZM46.07 217.65H48.07V206.08H46.07H44.07V217.65H46.07ZM46.07 206.08H48.07C48.07 201.294 46.747 197.324 43.8183 194.5L42.43 195.94L41.0417 197.38C42.9664 199.236 44.07 202.026 44.07 206.08H46.07ZM42.43 195.94L43.8442 194.526C40.9429 191.624 36.9507 190.3 32.16 190.3V192.3V194.3C36.2093 194.3 39.0638 195.402 41.0158 197.354L42.43 195.94ZM32.16 192.3V190.3C27.3693 190.3 23.3771 191.624 20.4758 194.526L21.89 195.94L23.3042 197.354C25.2562 195.402 28.1107 194.3 32.16 194.3V192.3ZM21.89 195.94L20.4758 194.526C17.6482 197.353 16.38 201.313 16.38 206.08H18.38H20.38C20.38 202.007 21.4519 199.207 23.3042 197.354L21.89 195.94ZM18.38 206.08V204.08H2.00001V206.08V208.08H18.38V206.08ZM2.00001 206.08H4.00001C4.00001 200.659 5.18812 196.091 7.48184 192.294L5.77001 191.26L4.05818 190.226C1.32524 194.749 1.14441e-05 200.061 1.14441e-05 206.08H2.00001ZM5.77001 191.26L7.49117 192.279C9.80436 188.37 13.024 185.384 17.1944 183.299L16.3 181.51L15.4056 179.721C10.5627 182.143 6.76233 185.656 4.04886 190.241L5.77001 191.26ZM16.3 181.51L17.2216 183.285C21.3932 181.119 26.3521 180 32.16 180V178V176C25.8346 176 20.2202 177.221 15.3784 179.735L16.3 181.51ZM32.16 178V180C38.0598 180 43.0606 181.121 47.2284 183.285L48.15 181.51L49.0716 179.735C44.2261 177.219 38.5669 176 32.16 176V178ZM48.15 181.51L47.2556 183.299C51.4204 185.381 54.5889 188.359 56.8135 192.252L58.55 191.26L60.2865 190.268C57.6578 185.667 53.893 182.145 49.0444 179.721L48.15 181.51ZM58.55 191.26L56.8382 192.294C59.1319 196.091 60.32 200.659 60.32 206.08H62.32H64.32C64.32 200.061 62.9948 194.749 60.2618 190.226L58.55 191.26ZM62.32 206.08H60.32V247.42H62.32H64.32V206.08H62.32ZM62.32 247.42H60.32C60.32 252.839 59.1323 257.459 56.8289 261.351L58.55 262.37L60.2712 263.389C62.9944 258.787 64.32 253.441 64.32 247.42H62.32ZM58.55 262.37L56.8225 261.362C54.597 265.177 51.4184 268.169 47.2284 270.345L48.15 272.12L49.0716 273.895C53.895 271.391 57.6497 267.883 60.2776 263.378L58.55 262.37ZM48.15 272.12L47.2556 270.331C43.0814 272.418 38.0705 273.5 32.16 273.5V275.5V277.5C38.5562 277.5 44.2053 276.328 49.0444 273.909L48.15 272.12ZM32.16 275.5V273.5C26.3412 273.5 21.3723 272.42 17.1944 270.331L16.3 272.12L15.4056 273.909C20.241 276.327 25.8455 277.5 32.16 277.5V275.5ZM16.3 272.12L17.2216 270.345C13.0262 268.167 9.7962 265.166 7.48184 261.336L5.77001 262.37L4.05818 263.404C6.7705 267.894 10.5605 271.393 15.3784 273.895L16.3 272.12ZM5.77001 262.37L7.49117 261.351C5.18773 257.459 4.00001 252.839 4.00001 247.42H2.00001H1.14441e-05C1.14441e-05 253.441 1.32563 258.787 4.04886 263.389L5.77001 262.37ZM127.789 185.93L126.519 187.475L126.525 187.48L126.531 187.484L127.789 185.93ZM131.429 217.13L129.878 215.867L129.869 215.878L129.86 215.889L131.429 217.13ZM119.859 223.89L119.536 221.916L117.859 222.191V223.89H119.859ZM119.859 224.15H117.859V225.921L119.617 226.135L119.859 224.15ZM129.349 228.05L128.118 229.626L128.133 229.638L128.149 229.65L129.349 228.05ZM135.849 236.24L134.033 237.078L134.038 237.087L134.042 237.096L135.849 236.24ZM134.419 261.46L136.121 262.51V262.51L134.419 261.46ZM123.759 270.95L124.612 272.759L124.626 272.752L124.64 272.746L123.759 270.95ZM92.8192 218.43H90.8192V220.43H92.8192V218.43ZM115.959 215.05L117.294 216.539L117.308 216.527L117.322 216.514L115.959 215.05ZM115.959 196.33L114.571 197.77L114.597 197.795L114.624 197.819L115.959 196.33ZM117.779 256.91L119.146 258.37L119.147 258.369L117.779 256.91ZM117.779 235.72L116.343 237.112L116.365 237.134L116.388 237.156L117.779 235.72ZM92.8192 231.56V229.56H90.8192V231.56H92.8192ZM80.2092 274.2V272.2C79.4342 272.2 79.2203 272.008 79.186 271.973C79.1516 271.939 78.9592 271.725 78.9592 270.95H76.9592H74.9592C74.9592 272.342 75.3085 273.753 76.3575 274.802C77.4065 275.851 78.8176 276.2 80.2092 276.2V274.2ZM76.9592 270.95H78.9592V182.55H76.9592H74.9592V270.95H76.9592ZM76.9592 182.55H78.9592C78.9592 181.775 79.1516 181.561 79.1859 181.527C79.2203 181.492 79.4342 181.3 80.2092 181.3V179.3V177.3C78.8176 177.3 77.4065 177.649 76.3575 178.698C75.3085 179.747 74.9592 181.158 74.9592 182.55H76.9592ZM80.2092 179.3V181.3H106.079V179.3V177.3H80.2092V179.3ZM106.079 179.3V181.3C114.86 181.3 121.601 183.429 126.519 187.475L127.789 185.93L129.06 184.385C123.231 179.591 115.498 177.3 106.079 177.3V179.3ZM127.789 185.93L126.531 187.484C131.49 191.499 133.979 196.848 133.979 203.74H135.979H137.979C137.979 195.725 135.009 189.201 129.048 184.375L127.789 185.93ZM135.979 203.74H133.979C133.979 208.521 132.597 212.528 129.878 215.867L131.429 217.13L132.98 218.392C136.329 214.279 137.979 209.359 137.979 203.74H135.979ZM131.429 217.13L129.86 215.889C127.229 219.218 123.82 221.215 119.536 221.916L119.859 223.89L120.182 225.864C125.432 225.005 129.736 222.495 132.998 218.37L131.429 217.13ZM119.859 223.89H117.859V224.15H119.859H121.859V223.89H119.859ZM119.859 224.15L119.617 226.135C122.816 226.525 125.636 227.687 128.118 229.626L129.349 228.05L130.581 226.474C127.516 224.079 124.009 222.641 120.101 222.165L119.859 224.15ZM129.349 228.05L128.149 229.65C130.638 231.516 132.602 233.976 134.033 237.078L135.849 236.24L137.665 235.402C135.977 231.744 133.607 228.743 130.549 226.45L129.349 228.05ZM135.849 236.24L134.042 237.096C135.463 240.097 136.189 243.441 136.189 247.16H138.189H140.189C140.189 242.905 139.355 238.969 137.657 235.384L135.849 236.24ZM138.189 247.16H136.189C136.189 252.302 135.009 256.695 132.717 260.41L134.419 261.46L136.121 262.51C138.856 258.079 140.189 252.937 140.189 247.16H138.189ZM134.419 261.46L132.717 260.41C130.416 264.14 127.158 267.055 122.878 269.154L123.759 270.95L124.64 272.746C129.548 270.338 133.396 266.927 136.121 262.51L134.419 261.46ZM123.759 270.95L122.906 269.141C118.633 271.156 113.52 272.2 107.509 272.2V274.2V276.2C113.978 276.2 119.698 275.077 124.612 272.759L123.759 270.95ZM107.509 274.2V272.2H80.2092V274.2V276.2H107.509V274.2ZM92.8192 218.43V220.43H105.819V218.43V216.43H92.8192V218.43ZM105.819 218.43V220.43C110.427 220.43 114.327 219.2 117.294 216.539L115.959 215.05L114.624 213.561C112.565 215.407 109.705 216.43 105.819 216.43V218.43ZM115.959 215.05L117.322 216.514C120.308 213.734 121.729 210.004 121.729 205.56H119.729H117.729C117.729 209.089 116.637 211.686 114.596 213.586L115.959 215.05ZM119.729 205.56H121.729C121.729 201.189 120.298 197.534 117.294 194.841L115.959 196.33L114.624 197.819C116.647 199.633 117.729 202.131 117.729 205.56H119.729ZM115.959 196.33L117.348 194.89C114.45 192.097 110.517 190.82 105.819 190.82V192.82V194.82C109.789 194.82 112.615 195.883 114.571 197.77L115.959 196.33ZM105.819 192.82V190.82H95.9392V192.82V194.82H105.819V192.82ZM95.9392 192.82V190.82C94.5697 190.82 93.1803 191.181 92.1565 192.247C91.1472 193.299 90.8192 194.698 90.8192 196.07H92.8192H94.8192C94.8192 195.275 95.0112 195.05 95.042 195.018C95.0582 195.001 95.2288 194.82 95.9392 194.82V192.82ZM92.8192 196.07H90.8192V218.43H92.8192H94.8192V196.07H92.8192ZM92.8192 257.43H90.8192C90.8192 258.802 91.1472 260.201 92.1565 261.253C93.1803 262.319 94.5697 262.68 95.9392 262.68V260.68V258.68C95.2288 258.68 95.0582 258.499 95.042 258.482C95.0112 258.45 94.8192 258.225 94.8192 257.43H92.8192ZM95.9392 260.68V262.68H106.599V260.68V258.68H95.9392V260.68ZM106.599 260.68V262.68C111.718 262.68 115.989 261.324 119.146 258.37L117.779 256.91L116.413 255.449C114.196 257.523 111.013 258.68 106.599 258.68V260.68ZM117.779 256.91L119.147 258.369C122.39 255.329 123.939 251.255 123.939 246.38H121.939H119.939C119.939 250.345 118.715 253.291 116.411 255.451L117.779 256.91ZM121.939 246.38H123.939C123.939 241.504 122.39 237.402 119.171 234.283L117.779 235.72L116.388 237.156C118.715 239.411 119.939 242.416 119.939 246.38H121.939ZM117.779 235.72L119.216 234.328C116.068 231.079 111.772 229.56 106.599 229.56V231.56V233.56C110.96 233.56 114.118 234.815 116.343 237.112L117.779 235.72ZM106.599 231.56V229.56H92.8192V231.56V233.56H106.599V231.56ZM92.8192 231.56H90.8192V257.43H92.8192H94.8192V231.56H92.8192ZM156.988 267.7L155.586 269.126L155.592 269.132L155.598 269.137L156.988 267.7ZM156.988 185.8L155.598 184.363L155.592 184.368L155.586 184.374L156.988 185.8ZM200.278 185.8L198.876 187.226L198.882 187.232L198.888 187.237L200.278 185.8ZM200.278 267.7L198.888 266.263L198.882 266.268L198.876 266.274L200.278 267.7ZM188.708 257.69L190.149 259.077L190.162 259.064L190.174 259.051L188.708 257.69ZM188.708 195.94L187.243 197.301L187.255 197.314L187.268 197.327L188.708 195.94ZM168.688 195.94L170.129 197.327L170.142 197.314L170.154 197.301L168.688 195.94ZM168.688 257.69L167.223 259.051L167.235 259.064L167.248 259.077L168.688 257.69ZM178.698 275.5V273.5C169.998 273.5 163.302 271.026 158.379 266.263L156.988 267.7L155.598 269.137C161.422 274.773 169.199 277.5 178.698 277.5V275.5ZM156.988 267.7L158.391 266.274C153.574 261.536 151.058 254.906 151.058 246.12H149.058H147.058C147.058 255.707 149.83 263.464 155.586 269.126L156.988 267.7ZM149.058 246.12H151.058V207.38H149.058H147.058V246.12H149.058ZM149.058 207.38H151.058C151.058 198.593 153.574 191.964 158.391 187.226L156.988 185.8L155.586 184.374C149.83 190.036 147.058 197.793 147.058 207.38H149.058ZM156.988 185.8L158.379 187.237C163.302 182.473 169.998 180 178.698 180V178V176C169.199 176 161.422 178.726 155.598 184.363L156.988 185.8ZM178.698 178V180C187.4 180 194.045 182.474 198.876 187.226L200.278 185.8L201.681 184.374C195.939 178.726 188.197 176 178.698 176V178ZM200.278 185.8L198.888 187.237C203.79 191.981 206.338 198.566 206.338 207.25H208.338H210.338C210.338 197.734 207.514 190.019 201.669 184.363L200.278 185.8ZM208.338 207.25H206.338V246.12H208.338H210.338V207.25H208.338ZM208.338 246.12H206.338C206.338 254.897 203.786 261.523 198.888 266.263L200.278 267.7L201.669 269.137C207.518 263.477 210.338 255.716 210.338 246.12H208.338ZM200.278 267.7L198.876 266.274C194.045 271.026 187.4 273.5 178.698 273.5V275.5V277.5C188.197 277.5 195.939 274.774 201.681 269.126L200.278 267.7ZM178.698 261.2V263.2C183.46 263.2 187.398 261.934 190.149 259.077L188.708 257.69L187.268 256.303C185.512 258.126 182.777 259.2 178.698 259.2V261.2ZM188.708 257.69L190.174 259.051C192.873 256.145 194.088 252.172 194.088 247.42H192.088H190.088C190.088 251.508 189.051 254.382 187.243 256.329L188.708 257.69ZM192.088 247.42H194.088V206.08H192.088H190.088V247.42H192.088ZM192.088 206.08H194.088C194.088 201.333 192.875 197.383 190.149 194.553L188.708 195.94L187.268 197.327C189.049 199.177 190.088 201.987 190.088 206.08H192.088ZM188.708 195.94L190.174 194.579C187.428 191.621 183.48 190.3 178.698 190.3V192.3V194.3C182.757 194.3 185.483 195.405 187.243 197.301L188.708 195.94ZM178.698 192.3V190.3C173.917 190.3 169.969 191.621 167.223 194.579L168.688 195.94L170.154 197.301C171.914 195.405 174.64 194.3 178.698 194.3V192.3ZM168.688 195.94L167.248 194.553C164.522 197.383 163.308 201.333 163.308 206.08H165.308H167.308C167.308 201.987 168.348 199.177 170.129 197.327L168.688 195.94ZM165.308 206.08H163.308V247.42H165.308H167.308V206.08H165.308ZM165.308 247.42H163.308C163.308 252.172 164.524 256.145 167.223 259.051L168.688 257.69L170.154 256.329C168.346 254.382 167.308 251.508 167.308 247.42H165.308ZM168.688 257.69L167.248 259.077C169.999 261.934 173.937 263.2 178.698 263.2V261.2V259.2C174.62 259.2 171.885 258.126 170.129 256.303L168.688 257.69ZM214.658 274.85H212.658V276.85H214.658V274.85ZM214.658 260.03V258.03H212.658V260.03H214.658ZM227.138 243L225.138 242.967L225.138 242.969L227.138 243ZM228.178 179.3V177.3H226.21L226.178 179.267L228.178 179.3ZM280.308 179.3H282.308V177.3H280.308V179.3ZM280.308 274.2V276.2H282.308V274.2H280.308ZM264.058 274.2H262.058V276.2H264.058V274.2ZM264.058 193.99H266.058V191.99H264.058V193.99ZM244.168 193.99V191.99H242.204L242.168 193.953L244.168 193.99ZM243.258 243L241.258 242.963L241.258 242.966L243.258 243ZM236.628 266.66L235.049 265.432L235.043 265.44L235.037 265.448L236.628 266.66ZM214.658 274.85H216.658V260.03H214.658H212.658V274.85H214.658ZM214.658 260.03V262.03H217.908V260.03V258.03H214.658V260.03ZM217.908 260.03V262.03C219.732 262.03 221.423 261.592 222.91 260.66C224.39 259.733 225.559 258.385 226.459 256.725C228.227 253.463 229.049 248.819 229.137 243.03L227.138 243L225.138 242.969C225.053 248.534 224.25 252.405 222.942 254.819C222.303 255.998 221.571 256.779 220.786 257.271C220.009 257.758 219.073 258.03 217.908 258.03V260.03ZM227.138 243L229.137 243.033L230.177 179.333L228.178 179.3L226.178 179.267L225.138 242.967L227.138 243ZM228.178 179.3V181.3H280.308V179.3V177.3H228.178V179.3ZM280.308 179.3H278.308V274.2H280.308H282.308V179.3H280.308ZM280.308 274.2V272.2H264.058V274.2V276.2H280.308V274.2ZM264.058 274.2H266.058V193.99H264.058H262.058V274.2H264.058ZM264.058 193.99V191.99H244.168V193.99V195.99H264.058V193.99ZM244.168 193.99L242.168 193.953L241.258 242.963L243.258 243L245.257 243.037L246.167 194.027L244.168 193.99ZM243.258 243L241.258 242.966C241.089 253.049 238.927 260.445 235.049 265.432L236.628 266.66L238.206 267.888C242.821 261.954 245.08 253.577 245.257 243.034L243.258 243ZM236.628 266.66L235.037 265.448C231.301 270.351 226.03 272.85 218.948 272.85V274.85V276.85C227.119 276.85 233.634 273.889 238.219 267.872L236.628 266.66ZM218.948 274.85V272.85H214.658V274.85V276.85H218.948V274.85ZM322.117 269L320.63 270.338L320.638 270.346L320.645 270.354L322.117 269ZM316.267 231.56H318.267V229.56H316.267V231.56ZM305.607 231.56V229.56H303.607V231.56H305.607ZM305.607 274.2V276.2H307.607V274.2H305.607ZM291.307 274.2H289.307V276.2H291.307V274.2ZM291.307 179.3V177.3H289.307V179.3H291.307ZM305.607 179.3H307.607V177.3H305.607V179.3ZM305.607 218.56H303.607V220.56H305.607V218.56ZM316.267 218.56V220.56H318.267V218.56H316.267ZM322.117 184.5L320.645 183.146L320.644 183.147L322.117 184.5ZM353.837 184.5L352.365 185.854L352.372 185.861L352.379 185.869L353.837 184.5ZM353.837 269L352.365 267.646V267.646L353.837 269ZM343.307 260.42L341.724 259.197L341.716 259.208L343.307 260.42ZM343.307 193.21L341.689 194.386L341.72 194.428L341.752 194.468L343.307 193.21ZM331.347 193.21L329.764 191.987L329.756 191.998L331.347 193.21ZM331.347 260.42L329.729 261.596L329.76 261.638L329.792 261.678L331.347 260.42ZM337.847 275.5V273.5C331.842 273.5 327.155 271.522 323.589 267.646L322.117 269L320.645 270.354C325.052 275.144 330.852 277.5 337.847 277.5V275.5ZM322.117 269L323.603 267.662C320.103 263.772 318.267 258.566 318.267 251.84H316.267H314.267C314.267 259.327 316.331 265.561 320.63 270.338L322.117 269ZM316.267 251.84H318.267V231.56H316.267H314.267V251.84H316.267ZM316.267 231.56V229.56H305.607V231.56V233.56H316.267V231.56ZM305.607 231.56H303.607V274.2H305.607H307.607V231.56H305.607ZM305.607 274.2V272.2H291.307V274.2V276.2H305.607V274.2ZM291.307 274.2H293.307V179.3H291.307H289.307V274.2H291.307ZM291.307 179.3V181.3H305.607V179.3V177.3H291.307V179.3ZM305.607 179.3H303.607V218.56H305.607H307.607V179.3H305.607ZM305.607 218.56V220.56H316.267V218.56V216.56H305.607V218.56ZM316.267 218.56H318.267V201.53H316.267H314.267V218.56H316.267ZM316.267 201.53H318.267C318.267 194.802 320.103 189.649 323.59 185.853L322.117 184.5L320.644 183.147C316.331 187.844 314.267 194.044 314.267 201.53H316.267ZM322.117 184.5L323.589 185.854C327.155 181.978 331.842 180 337.847 180V178V176C330.852 176 325.052 178.356 320.645 183.146L322.117 184.5ZM337.847 178V180C344.043 180 348.809 181.989 352.365 185.854L353.837 184.5L355.309 183.146C350.891 178.344 344.997 176 337.847 176V178ZM353.837 184.5L352.379 185.869C355.944 189.667 357.817 194.814 357.817 201.53H359.817H361.817C361.817 194.033 359.703 187.826 355.295 183.131L353.837 184.5ZM359.817 201.53H357.817V251.84H359.817H361.817V201.53H359.817ZM359.817 251.84H357.817C357.817 258.554 355.945 263.755 352.365 267.646L353.837 269L355.309 270.354C359.703 265.578 361.817 259.339 361.817 251.84H359.817ZM353.837 269L352.365 267.646C348.809 271.511 344.043 273.5 337.847 273.5V275.5V277.5C344.997 277.5 350.891 275.156 355.309 270.354L353.837 269ZM337.457 263.15V265.15C340.524 265.15 343.092 264.002 344.898 261.632L343.307 260.42L341.716 259.208C340.749 260.478 339.417 261.15 337.457 261.15V263.15ZM343.307 260.42L344.889 261.643C346.717 259.277 347.517 256.196 347.517 252.62H345.517H343.517C343.517 255.631 342.843 257.749 341.724 259.197L343.307 260.42ZM345.517 252.62H347.517V200.88H345.517H343.517V252.62H345.517ZM345.517 200.88H347.517C347.517 197.312 346.72 194.248 344.861 191.952L343.307 193.21L341.752 194.468C342.84 195.812 343.517 197.862 343.517 200.88H345.517ZM343.307 193.21L344.924 192.034C343.133 189.571 340.561 188.35 337.457 188.35V190.35V192.35C339.38 192.35 340.707 193.036 341.689 194.386L343.307 193.21ZM337.457 190.35V188.35C334.294 188.35 331.65 189.547 329.764 191.987L331.347 193.21L332.929 194.433C333.991 193.059 335.42 192.35 337.457 192.35V190.35ZM331.347 193.21L329.756 191.998C328.01 194.29 327.267 197.335 327.267 200.88H329.267H331.267C331.267 197.838 331.911 195.77 332.938 194.422L331.347 193.21ZM329.267 200.88H327.267V252.62H329.267H331.267V200.88H329.267ZM329.267 252.62H327.267C327.267 256.173 328.013 259.236 329.729 261.596L331.347 260.42L332.964 259.244C331.908 257.791 331.267 255.654 331.267 252.62H329.267ZM331.347 260.42L329.792 261.678C331.691 264.023 334.329 265.15 337.457 265.15V263.15V261.15C335.385 261.15 333.95 260.457 332.901 259.162L331.347 260.42ZM417.486 292.4H415.486V294.4H417.486V292.4ZM417.486 274.2H419.486V272.2H417.486V274.2ZM368.086 274.2H366.086V276.2H368.086V274.2ZM368.086 179.3V177.3H366.086V179.3H368.086ZM384.336 179.3H386.336V177.3H384.336V179.3ZM384.336 259.64H382.336V261.64H384.336V259.64ZM406.436 259.64V261.64H408.436V259.64H406.436ZM406.436 179.3V177.3H404.436V179.3H406.436ZM422.686 179.3H424.686V177.3H422.686V179.3ZM422.686 259.64H420.686V261.64H422.686V259.64ZM432.436 259.64H434.436V257.64H432.436V259.64ZM432.436 292.4V294.4H434.436V292.4H432.436ZM417.486 292.4H419.486V274.2H417.486H415.486V292.4H417.486ZM417.486 274.2V272.2H368.086V274.2V276.2H417.486V274.2ZM368.086 274.2H370.086V179.3H368.086H366.086V274.2H368.086ZM368.086 179.3V181.3H384.336V179.3V177.3H368.086V179.3ZM384.336 179.3H382.336V259.64H384.336H386.336V179.3H384.336ZM384.336 259.64V261.64H406.436V259.64V257.64H384.336V259.64ZM406.436 259.64H408.436V179.3H406.436H404.436V259.64H406.436ZM406.436 179.3V181.3H422.686V179.3V177.3H406.436V179.3ZM422.686 179.3H420.686V259.64H422.686H424.686V179.3H422.686ZM422.686 259.64V261.64H432.436V259.64V257.64H422.686V259.64ZM432.436 259.64H430.436V292.4H432.436H434.436V259.64H432.436ZM432.436 292.4V290.4H417.486V292.4V294.4H432.436V292.4ZM440.055 274.2H438.055V276.2H440.055V274.2ZM440.055 179.3V177.3H438.055V179.3H440.055ZM454.875 179.3H456.875V177.3H454.875V179.3ZM454.615 235.98L456.613 236.073V236.073L454.615 235.98ZM453.965 246.9L451.971 246.754V246.754L453.965 246.9ZM453.315 256L451.32 255.862L455.208 256.645L453.315 256ZM479.445 179.3V177.3H478.014L477.552 178.655L479.445 179.3ZM499.335 179.3H501.335V177.3H499.335V179.3ZM499.335 274.2V276.2H501.335V274.2H499.335ZM484.515 274.2H482.515V276.2H484.515V274.2ZM484.775 218.82L482.78 218.687L482.778 218.709L482.777 218.731L484.775 218.82ZM485.555 207.38L487.55 207.519L487.551 207.516L485.555 207.38ZM486.335 197.5L488.327 197.687L484.444 196.849L486.335 197.5ZM459.945 274.2V276.2H461.372L461.836 274.851L459.945 274.2ZM440.055 274.2H442.055V179.3H440.055H438.055V274.2H440.055ZM440.055 179.3V181.3H454.875V179.3V177.3H440.055V179.3ZM454.875 179.3H452.875V225.71H454.875H456.875V179.3H454.875ZM454.875 225.71H452.875C452.875 228.794 452.79 232.186 452.617 235.887L454.615 235.98L456.613 236.073C456.788 232.321 456.875 228.866 456.875 225.71H454.875ZM454.615 235.98L452.617 235.887C452.445 239.597 452.229 243.219 451.971 246.754L453.965 246.9L455.96 247.046C456.221 243.474 456.439 239.816 456.613 236.073L454.615 235.98ZM453.965 246.9L451.971 246.754C451.711 250.309 451.494 253.345 451.32 255.862L453.315 256L455.311 256.138C455.484 253.628 455.7 250.597 455.96 247.046L453.965 246.9ZM453.315 256L455.208 256.645L481.338 179.945L479.445 179.3L477.552 178.655L451.422 255.355L453.315 256ZM479.445 179.3V181.3H499.335V179.3V177.3H479.445V179.3ZM499.335 179.3H497.335V274.2H499.335H501.335V179.3H499.335ZM499.335 274.2V272.2H484.515V274.2V276.2H499.335V274.2ZM484.515 274.2H486.515V229.22H484.515H482.515V274.2H484.515ZM484.515 229.22H486.515C486.515 226.223 486.601 222.787 486.773 218.909L484.775 218.82L482.777 218.731C482.603 222.653 482.515 226.15 482.515 229.22H484.515ZM484.775 218.82L486.771 218.953C487.031 215.055 487.291 211.244 487.55 207.519L485.555 207.38L483.56 207.241C483.3 210.97 483.04 214.785 482.78 218.687L484.775 218.82ZM485.555 207.38L487.551 207.516C487.81 203.714 488.069 200.438 488.327 197.687L486.335 197.5L484.344 197.313C484.082 200.108 483.821 203.419 483.56 207.244L485.555 207.38ZM486.335 197.5L484.444 196.849L458.054 273.549L459.945 274.2L461.836 274.851L488.227 198.151L486.335 197.5ZM459.945 274.2V272.2H440.055V274.2V276.2H459.945V274.2ZM540.365 269L538.878 270.338L538.885 270.346L538.893 270.354L540.365 269ZM534.515 231.56H536.515V229.56H534.515V231.56ZM523.855 231.56V229.56H521.855V231.56H523.855ZM523.855 274.2V276.2H525.855V274.2H523.855ZM509.555 274.2H507.555V276.2H509.555V274.2ZM509.555 179.3V177.3H507.555V179.3H509.555ZM523.855 179.3H525.855V177.3H523.855V179.3ZM523.855 218.56H521.855V220.56H523.855V218.56ZM534.515 218.56V220.56H536.515V218.56H534.515ZM540.365 184.5L538.893 183.146L538.892 183.147L540.365 184.5ZM572.085 184.5L570.613 185.854L570.62 185.861L570.626 185.869L572.085 184.5ZM572.085 269L570.613 267.646V267.646L572.085 269ZM561.555 260.42L559.972 259.197L559.964 259.208L561.555 260.42ZM561.555 193.21L559.937 194.386L559.968 194.428L560 194.468L561.555 193.21ZM549.595 193.21L548.012 191.987L548.004 191.998L549.595 193.21ZM549.595 260.42L547.977 261.596L548.008 261.638L548.04 261.678L549.595 260.42ZM556.095 275.5V273.5C550.089 273.5 545.403 271.522 541.836 267.646L540.365 269L538.893 270.354C543.3 275.144 549.1 277.5 556.095 277.5V275.5ZM540.365 269L541.851 267.662C538.35 263.772 536.515 258.566 536.515 251.84H534.515H532.515C532.515 259.327 534.579 265.561 538.878 270.338L540.365 269ZM534.515 251.84H536.515V231.56H534.515H532.515V251.84H534.515ZM534.515 231.56V229.56H523.855V231.56V233.56H534.515V231.56ZM523.855 231.56H521.855V274.2H523.855H525.855V231.56H523.855ZM523.855 274.2V272.2H509.555V274.2V276.2H523.855V274.2ZM509.555 274.2H511.555V179.3H509.555H507.555V274.2H509.555ZM509.555 179.3V181.3H523.855V179.3V177.3H509.555V179.3ZM523.855 179.3H521.855V218.56H523.855H525.855V179.3H523.855ZM523.855 218.56V220.56H534.515V218.56V216.56H523.855V218.56ZM534.515 218.56H536.515V201.53H534.515H532.515V218.56H534.515ZM534.515 201.53H536.515C536.515 194.802 538.351 189.649 541.838 185.853L540.365 184.5L538.892 183.147C534.578 187.844 532.515 194.044 532.515 201.53H534.515ZM540.365 184.5L541.836 185.854C545.403 181.978 550.089 180 556.095 180V178V176C549.1 176 543.3 178.356 538.893 183.146L540.365 184.5ZM556.095 178V180C562.291 180 567.057 181.989 570.613 185.854L572.085 184.5L573.556 183.146C569.139 178.344 563.245 176 556.095 176V178ZM572.085 184.5L570.626 185.869C574.192 189.667 576.065 194.814 576.065 201.53H578.065H580.065C580.065 194.033 577.951 187.826 573.543 183.131L572.085 184.5ZM578.065 201.53H576.065V251.84H578.065H580.065V201.53H578.065ZM578.065 251.84H576.065C576.065 258.554 574.192 263.755 570.613 267.646L572.085 269L573.556 270.354C577.95 265.578 580.065 259.339 580.065 251.84H578.065ZM572.085 269L570.613 267.646C567.057 271.511 562.291 273.5 556.095 273.5V275.5V277.5C563.245 277.5 569.139 275.156 573.556 270.354L572.085 269ZM555.705 263.15V265.15C558.771 265.15 561.34 264.002 563.145 261.632L561.555 260.42L559.964 259.208C558.996 260.478 557.664 261.15 555.705 261.15V263.15ZM561.555 260.42L563.137 261.643C564.965 259.277 565.765 256.196 565.765 252.62H563.765H561.765C561.765 255.631 561.091 257.749 559.972 259.197L561.555 260.42ZM563.765 252.62H565.765V200.88H563.765H561.765V252.62H563.765ZM563.765 200.88H565.765C565.765 197.312 564.968 194.248 563.109 191.952L561.555 193.21L560 194.468C561.088 195.812 561.765 197.862 561.765 200.88H563.765ZM561.555 193.21L563.172 192.034C561.381 189.571 558.808 188.35 555.705 188.35V190.35V192.35C557.628 192.35 558.955 193.036 559.937 194.386L561.555 193.21ZM555.705 190.35V188.35C552.542 188.35 549.897 189.547 548.012 191.987L549.595 193.21L551.177 194.433C552.239 193.059 553.667 192.35 555.705 192.35V190.35ZM549.595 193.21L548.004 191.998C546.257 194.29 545.515 197.335 545.515 200.88H547.515H549.515C549.515 197.838 550.158 195.77 551.185 194.422L549.595 193.21ZM547.515 200.88H545.515V252.62H547.515H549.515V200.88H547.515ZM547.515 252.62H545.515C545.515 256.173 546.26 259.236 547.977 261.596L549.595 260.42L551.212 259.244C550.155 257.791 549.515 255.654 549.515 252.62H547.515ZM549.595 260.42L548.04 261.678C549.938 264.023 552.577 265.15 555.705 265.15V263.15V261.15C553.633 261.15 552.198 260.457 551.149 259.162L549.595 260.42Z" fill="black" mask="url(#path-1-outside-1_63_11141)"/>
</svg>
