<svg width="263" height="128" viewBox="0 0 263 128" fill="none" xmlns="http://www.w3.org/2000/svg">
<mask id="path-1-outside-1_63_9345" maskUnits="userSpaceOnUse" x="3" y="0" width="259" height="128" fill="black">
<rect fill="white" x="3" width="259" height="128"/>
<path d="M50.8136 43.56C48.163 43.56 45.867 43.0747 43.9256 42.104C41.9843 41.096 40.4723 39.696 39.3896 37.904C38.3443 36.0747 37.8216 33.928 37.8216 31.464V13.656C37.8216 11.192 38.3443 9.064 39.3896 7.272C40.4723 5.44267 41.9843 4.04266 43.9256 3.072C45.867 2.064 48.163 1.56 50.8136 1.56C54.4723 1.56 57.459 2.53067 59.7736 4.472C62.0883 6.376 63.395 8.952 63.6936 12.2C63.7683 13.1707 63.3203 13.656 62.3496 13.656H58.1496C57.291 13.656 56.787 13.208 56.6376 12.312C56.1896 9.25066 54.2483 7.72 50.8136 7.72C48.9096 7.72 47.435 8.24266 46.3896 9.288C45.3443 10.296 44.8216 11.752 44.8216 13.656V31.464C44.8216 33.368 45.3443 34.8427 46.3896 35.888C47.435 36.896 48.9096 37.4 50.8136 37.4C54.2483 37.4 56.1896 35.8693 56.6376 32.808C56.787 31.912 57.291 31.464 58.1496 31.464H62.3496C63.3203 31.464 63.787 31.912 63.7496 32.808C63.451 36.0933 62.1443 38.7067 59.8296 40.648C57.515 42.5893 54.5096 43.56 50.8136 43.56ZM82.8238 43.56C78.9038 43.56 75.7864 42.44 73.4718 40.2C71.1944 37.96 70.0558 34.8613 70.0558 30.904V14.216C70.0558 10.2587 71.1944 7.16 73.4718 4.92C75.7864 2.68 78.9038 1.56 82.8238 1.56C86.7438 1.56 89.8424 2.68 92.1198 4.92C94.4344 7.16 95.5918 10.24 95.5918 14.16V30.904C95.5918 34.8613 94.4344 37.96 92.1198 40.2C89.8424 42.44 86.7438 43.56 82.8238 43.56ZM82.8238 37.4C84.7278 37.4 86.1651 36.896 87.1358 35.888C88.1064 34.8427 88.5918 33.368 88.5918 31.464V13.656C88.5918 11.752 88.1064 10.296 87.1358 9.288C86.1651 8.24266 84.7278 7.72 82.8238 7.72C80.9198 7.72 79.4824 8.24266 78.5118 9.288C77.5411 10.296 77.0558 11.752 77.0558 13.656V31.464C77.0558 33.368 77.5411 34.8427 78.5118 35.888C79.4824 36.896 80.9198 37.4 82.8238 37.4ZM102.85 43V2.12H127.378V8.448H109.682V18.192H115.674C118.399 18.192 120.77 18.7147 122.786 19.76C124.802 20.768 126.37 22.2053 127.49 24.072C128.61 25.9013 129.17 28.048 129.17 30.512C129.17 32.976 128.61 35.1413 127.49 37.008C126.37 38.8747 124.802 40.3493 122.786 41.432C120.807 42.4773 118.455 43 115.73 43H102.85ZM109.682 36.84H115.73C117.671 36.84 119.202 36.2613 120.322 35.104C121.479 33.9467 122.058 32.416 122.058 30.512C122.058 28.5707 121.479 27.04 120.322 25.92C119.202 24.7627 117.671 24.184 115.73 24.184H109.682V36.84ZM137.268 43C136.335 43 135.868 42.5333 135.868 41.6V3.52C135.868 2.58667 136.335 2.12 137.268 2.12H158.996C159.929 2.12 160.396 2.58667 160.396 3.52V6.88C160.396 7.81333 159.929 8.28 158.996 8.28H144.156C143.223 8.28 142.756 8.74667 142.756 9.68V18.92H157.036C157.969 18.92 158.436 19.368 158.436 20.264V23.456C158.436 24.3893 157.969 24.856 157.036 24.856H142.756V35.44C142.756 36.3733 143.223 36.84 144.156 36.84H158.996C159.929 36.84 160.396 37.3067 160.396 38.24V41.6C160.396 42.5333 159.929 43 158.996 43H137.268ZM169.054 43C168.158 43 167.71 42.5333 167.71 41.6V3.52C167.71 2.58667 168.158 2.12 169.054 2.12H181.318C184.043 2.12 186.414 2.64267 188.43 3.688C190.483 4.73333 192.07 6.208 193.19 8.112C194.31 9.97867 194.87 12.1813 194.87 14.72C194.87 17.2587 194.31 19.48 193.19 21.384C192.07 23.2507 190.483 24.7067 188.43 25.752C186.414 26.7973 184.043 27.32 181.318 27.32H174.71V41.6C174.71 42.5333 174.243 43 173.31 43H169.054ZM174.71 21.16H181.318C183.297 21.16 184.865 20.5627 186.022 19.368C187.179 18.1733 187.758 16.624 187.758 14.72C187.758 12.816 187.179 11.2667 186.022 10.072C184.865 8.87733 183.297 8.28 181.318 8.28H176.11C175.177 8.28 174.71 8.728 174.71 9.624V21.16ZM199.888 43V2.12H206.272V22.112C206.272 23.456 206.235 24.9307 206.16 26.536C206.086 28.1413 205.992 29.7093 205.88 31.24C205.768 32.7707 205.675 34.0773 205.6 35.16L216.856 2.12H225.424V43H219.04V23.624C219.04 22.3173 219.078 20.824 219.152 19.144C219.264 17.464 219.376 15.8213 219.488 14.216C219.6 12.5733 219.712 11.1547 219.824 9.96L208.456 43H199.888ZM83.2718 81.56C80.6211 81.56 78.3251 81.0747 76.3838 80.104C74.4424 79.096 72.9304 77.696 71.8478 75.904C70.8024 74.0747 70.2798 71.928 70.2798 69.464V51.656C70.2798 49.192 70.8024 47.064 71.8478 45.272C72.9304 43.4427 74.4424 42.0427 76.3838 41.072C78.3251 40.064 80.6211 39.56 83.2718 39.56C86.9304 39.56 89.9171 40.5307 92.2318 42.472C94.5464 44.376 95.8531 46.952 96.1518 50.2C96.2264 51.1707 95.7784 51.656 94.8078 51.656H90.6078C89.7491 51.656 89.2451 51.208 89.0958 50.312C88.6478 47.2507 86.7064 45.72 83.2718 45.72C81.3678 45.72 79.8931 46.2427 78.8478 47.288C77.8024 48.296 77.2798 49.752 77.2798 51.656V69.464C77.2798 71.368 77.8024 72.8427 78.8478 73.888C79.8931 74.896 81.3678 75.4 83.2718 75.4C86.7064 75.4 88.6478 73.8693 89.0958 70.808C89.2451 69.912 89.7491 69.464 90.6078 69.464H94.8078C95.7784 69.464 96.2451 69.912 96.2078 70.808C95.9091 74.0933 94.6024 76.7067 92.2878 78.648C89.9731 80.5893 86.9678 81.56 83.2718 81.56ZM104.194 81C103.261 81 102.794 80.5333 102.794 79.6V41.52C102.794 40.5867 103.261 40.12 104.194 40.12H115.338C119.258 40.12 122.375 41.072 124.69 42.976C127.042 44.88 128.218 47.4373 128.218 50.648C128.218 52.888 127.565 54.8107 126.258 56.416C124.989 58.0213 123.327 58.992 121.274 59.328V59.44C122.805 59.6267 124.167 60.1867 125.362 61.12C126.557 62.016 127.49 63.192 128.162 64.648C128.834 66.0667 129.17 67.6347 129.17 69.352C129.17 71.704 128.629 73.7573 127.546 75.512C126.463 77.2667 124.933 78.6293 122.954 79.6C120.975 80.5333 118.642 81 115.954 81H104.194ZM109.626 56.976H115.226C117.055 56.976 118.511 56.4907 119.594 55.52C120.677 54.512 121.218 53.1493 121.218 51.432C121.218 49.752 120.677 48.4267 119.594 47.456C118.549 46.448 117.093 45.944 115.226 45.944H110.97C110.074 45.944 109.626 46.4107 109.626 47.344V56.976ZM109.626 73.776C109.626 74.7093 110.074 75.176 110.97 75.176H115.562C117.615 75.176 119.221 74.6347 120.378 73.552C121.573 72.432 122.17 70.92 122.17 69.016C122.17 67.112 121.573 65.5813 120.378 64.424C119.221 63.2293 117.615 62.632 115.562 62.632H109.626V73.776ZM147.74 81.56C143.82 81.56 140.703 80.44 138.388 78.2C136.111 75.96 134.972 72.8613 134.972 68.904V52.216C134.972 48.2587 136.111 45.16 138.388 42.92C140.703 40.68 143.82 39.56 147.74 39.56C151.66 39.56 154.759 40.68 157.036 42.92C159.351 45.16 160.508 48.24 160.508 52.16V68.904C160.508 72.8613 159.351 75.96 157.036 78.2C154.759 80.44 151.66 81.56 147.74 81.56ZM147.74 75.4C149.644 75.4 151.081 74.896 152.052 73.888C153.023 72.8427 153.508 71.368 153.508 69.464V51.656C153.508 49.752 153.023 48.296 152.052 47.288C151.081 46.2427 149.644 45.72 147.74 45.72C145.836 45.72 144.399 46.2427 143.428 47.288C142.457 48.296 141.972 49.752 141.972 51.656V69.464C141.972 71.368 142.457 72.8427 143.428 73.888C144.399 74.896 145.836 75.4 147.74 75.4ZM186.078 81.56C183.278 81.56 181.019 80.6267 179.302 78.76C177.622 76.8933 176.782 74.4293 176.782 71.368V62.632H172.19V81H166.03V40.12H172.19V57.032H176.782V49.696C176.782 46.6347 177.622 44.1893 179.302 42.36C181.019 40.4933 183.278 39.56 186.078 39.56C188.953 39.56 191.249 40.4933 192.966 42.36C194.683 44.1893 195.542 46.6347 195.542 49.696V71.368C195.542 74.4293 194.683 76.8933 192.966 78.76C191.249 80.6267 188.953 81.56 186.078 81.56ZM185.91 76.24C186.993 76.24 187.833 75.848 188.43 75.064C189.065 74.2427 189.382 73.1227 189.382 71.704V49.416C189.382 47.9973 189.065 46.896 188.43 46.112C187.833 45.2907 186.993 44.88 185.91 44.88C184.79 44.88 183.913 45.2907 183.278 46.112C182.681 46.896 182.382 47.9973 182.382 49.416V71.704C182.382 73.1227 182.681 74.2427 183.278 75.064C183.913 75.848 184.79 76.24 185.91 76.24ZM4.4675 107.464H11.5235C11.5235 109.368 12.0275 110.843 13.0355 111.888C14.0808 112.896 15.5555 113.4 17.4595 113.4C19.3635 113.4 20.8382 112.896 21.8835 111.888C22.9288 110.843 23.4515 109.368 23.4515 107.464V100.968H11.6915V94.64H23.4515V89.656C23.4515 87.752 22.9288 86.296 21.8835 85.288C20.8382 84.2427 19.3635 83.72 17.4595 83.72C15.5555 83.72 14.0808 84.2427 13.0355 85.288C12.0275 86.296 11.5235 87.752 11.5235 89.656H4.4675C4.4675 87.192 5.00883 85.064 6.0915 83.272C7.17417 81.4427 8.68617 80.0427 10.6275 79.072C12.5688 78.064 14.8462 77.56 17.4595 77.56C20.1102 77.56 22.4062 78.064 24.3475 79.072C26.2888 80.0427 27.7822 81.4427 28.8275 83.272C29.9102 85.064 30.4515 87.192 30.4515 89.656V107.464C30.4515 109.928 29.9102 112.075 28.8275 113.904C27.7822 115.696 26.2888 117.096 24.3475 118.104C22.4062 119.075 20.1102 119.56 17.4595 119.56C14.8462 119.56 12.5688 119.075 10.6275 118.104C8.68617 117.096 7.17417 115.696 6.0915 113.904C5.00883 112.075 4.4675 109.928 4.4675 107.464ZM39.2776 119C38.3443 119 37.8776 118.533 37.8776 117.6V79.52C37.8776 78.5867 38.3443 78.12 39.2776 78.12H50.4216C54.3416 78.12 57.459 79.072 59.7736 80.976C62.1256 82.88 63.3016 85.4373 63.3016 88.648C63.3016 90.888 62.6483 92.8107 61.3416 94.416C60.0723 96.0213 58.411 96.992 56.3576 97.328V97.44C57.8883 97.6267 59.251 98.1867 60.4456 99.12C61.6403 100.016 62.5736 101.192 63.2456 102.648C63.9176 104.067 64.2536 105.635 64.2536 107.352C64.2536 109.704 63.7123 111.757 62.6296 113.512C61.547 115.267 60.0163 116.629 58.0376 117.6C56.059 118.533 53.7256 119 51.0376 119H39.2776ZM44.7096 94.976H50.3096C52.139 94.976 53.595 94.4907 54.6776 93.52C55.7603 92.512 56.3016 91.1493 56.3016 89.432C56.3016 87.752 55.7603 86.4267 54.6776 85.456C53.6323 84.448 52.1763 83.944 50.3096 83.944H46.0536C45.1576 83.944 44.7096 84.4107 44.7096 85.344V94.976ZM44.7096 111.776C44.7096 112.709 45.1576 113.176 46.0536 113.176H50.6456C52.699 113.176 54.3043 112.635 55.4616 111.552C56.6563 110.432 57.2536 108.92 57.2536 107.016C57.2536 105.112 56.6563 103.581 55.4616 102.424C54.3043 101.229 52.699 100.632 50.6456 100.632H44.7096V111.776ZM82.8238 119.56C78.9038 119.56 75.7864 118.44 73.4718 116.2C71.1944 113.96 70.0558 110.861 70.0558 106.904V90.216C70.0558 86.2587 71.1944 83.16 73.4718 80.92C75.7864 78.68 78.9038 77.56 82.8238 77.56C86.7438 77.56 89.8424 78.68 92.1198 80.92C94.4344 83.16 95.5918 86.24 95.5918 90.16V106.904C95.5918 110.861 94.4344 113.96 92.1198 116.2C89.8424 118.44 86.7438 119.56 82.8238 119.56ZM82.8238 113.4C84.7278 113.4 86.1651 112.896 87.1358 111.888C88.1064 110.843 88.5918 109.368 88.5918 107.464V89.656C88.5918 87.752 88.1064 86.296 87.1358 85.288C86.1651 84.2427 84.7278 83.72 82.8238 83.72C80.9198 83.72 79.4824 84.2427 78.5118 85.288C77.5411 86.296 77.0558 87.752 77.0558 89.656V107.464C77.0558 109.368 77.5411 110.843 78.5118 111.888C79.4824 112.896 80.9198 113.4 82.8238 113.4ZM99.4339 119.28V112.896H100.834C103.41 112.896 104.735 110.451 104.81 105.56L105.258 78.12H127.714V119H120.714V84.448H112.146L111.754 105.56C111.679 110.003 110.727 113.4 108.898 115.752C107.106 118.104 104.567 119.28 101.282 119.28H99.4339ZM153.62 119.56C150.82 119.56 148.561 118.627 146.844 116.76C145.164 114.893 144.324 112.429 144.324 109.368V100.632H139.732V119H133.572V78.12H139.732V95.032H144.324V87.696C144.324 84.6347 145.164 82.1893 146.844 80.36C148.561 78.4933 150.82 77.56 153.62 77.56C156.495 77.56 158.791 78.4933 160.508 80.36C162.225 82.1893 163.084 84.6347 163.084 87.696V109.368C163.084 112.429 162.225 114.893 160.508 116.76C158.791 118.627 156.495 119.56 153.62 119.56ZM153.452 114.24C154.535 114.24 155.375 113.848 155.972 113.064C156.607 112.243 156.924 111.123 156.924 109.704V87.416C156.924 85.9973 156.607 84.896 155.972 84.112C155.375 83.2907 154.535 82.88 153.452 82.88C152.332 82.88 151.455 83.2907 150.82 84.112C150.223 84.896 149.924 85.9973 149.924 87.416V109.704C149.924 111.123 150.223 112.243 150.82 113.064C151.455 113.848 152.332 114.24 153.452 114.24ZM189.046 126.84V119H167.766V78.12H174.766V112.728H184.286V78.12H191.286V112.728H195.486V126.84H189.046ZM199.888 119V78.12H206.272V98.112C206.272 99.456 206.235 100.931 206.16 102.536C206.086 104.141 205.992 105.709 205.88 107.24C205.768 108.771 205.675 110.077 205.6 111.16L216.856 78.12H225.424V119H219.04V99.624C219.04 98.3173 219.078 96.824 219.152 95.144C219.264 93.464 219.376 91.8213 219.488 90.216C219.6 88.5733 219.712 87.1547 219.824 85.96L208.456 119H199.888ZM250.994 119.56C248.194 119.56 245.936 118.627 244.218 116.76C242.538 114.893 241.698 112.429 241.698 109.368V100.632H237.106V119H230.946V78.12H237.106V95.032H241.698V87.696C241.698 84.6347 242.538 82.1893 244.218 80.36C245.936 78.4933 248.194 77.56 250.994 77.56C253.869 77.56 256.165 78.4933 257.882 80.36C259.6 82.1893 260.458 84.6347 260.458 87.696V109.368C260.458 112.429 259.6 114.893 257.882 116.76C256.165 118.627 253.869 119.56 250.994 119.56ZM250.826 114.24C251.909 114.24 252.749 113.848 253.346 113.064C253.981 112.243 254.298 111.123 254.298 109.704V87.416C254.298 85.9973 253.981 84.896 253.346 84.112C252.749 83.2907 251.909 82.88 250.826 82.88C249.706 82.88 248.829 83.2907 248.194 84.112C247.597 84.896 247.298 85.9973 247.298 87.416V109.704C247.298 111.123 247.597 112.243 248.194 113.064C248.829 113.848 249.706 114.24 250.826 114.24Z"/>
</mask>
<path d="M43.9256 42.104L43.4648 42.9915L43.4716 42.995L43.4784 42.9984L43.9256 42.104ZM39.3896 37.904L38.5214 38.4001L38.5274 38.4107L38.5337 38.4211L39.3896 37.904ZM39.3896 7.272L38.529 6.76267L38.5258 6.76813L39.3896 7.272ZM43.9256 3.072L44.3728 3.96642L44.3797 3.96301L44.3864 3.95949L43.9256 3.072ZM59.7736 4.472L59.131 5.23822L59.1384 5.24429L59.7736 4.472ZM63.6936 12.2L64.6907 12.1233L64.6901 12.1159L64.6894 12.1084L63.6936 12.2ZM56.6376 12.312L55.6482 12.4568L55.6496 12.4666L55.6512 12.4764L56.6376 12.312ZM46.3896 9.288L47.0838 10.0078L47.0903 10.0015L47.0967 9.9951L46.3896 9.288ZM46.3896 35.888L45.6825 36.5951L45.6889 36.6015L45.6955 36.6078L46.3896 35.888ZM56.6376 32.808L55.6512 32.6436L55.6496 32.6534L55.6482 32.6632L56.6376 32.808ZM63.7496 32.808L64.7455 32.8985L64.7477 32.8741L64.7488 32.8496L63.7496 32.808ZM59.8296 40.648L59.187 39.8818V39.8818L59.8296 40.648ZM50.8136 43.56V42.56C48.2844 42.56 46.1479 42.0971 44.3728 41.2096L43.9256 42.104L43.4784 42.9984C45.586 44.0522 48.0415 44.56 50.8136 44.56V43.56ZM43.9256 42.104L44.3864 41.2165C42.6007 40.2893 41.2287 39.0142 40.2455 37.3869L39.3896 37.904L38.5337 38.4211C39.7159 40.3778 41.3679 41.9027 43.4648 42.9915L43.9256 42.104ZM39.3896 37.904L40.2579 37.4079C39.3125 35.7535 38.8216 33.7837 38.8216 31.464H37.8216H36.8216C36.8216 34.0723 37.3761 36.3958 38.5214 38.4001L39.3896 37.904ZM37.8216 31.464H38.8216V13.656H37.8216H36.8216V31.464H37.8216ZM37.8216 13.656H38.8216C38.8216 11.3357 39.3127 9.38845 40.2534 7.77587L39.3896 7.272L38.5258 6.76813C37.3759 8.73954 36.8216 11.0483 36.8216 13.656H37.8216ZM39.3896 7.272L40.2502 7.78132C41.2328 6.12107 42.5996 4.85304 44.3728 3.96642L43.9256 3.072L43.4784 2.17757C41.369 3.23229 39.7118 4.76426 38.5291 6.76268L39.3896 7.272ZM43.9256 3.072L44.3864 3.95949C46.1583 3.03949 48.2898 2.56 50.8136 2.56V1.56V0.559998C48.0362 0.559998 45.5756 1.08851 43.4648 2.1845L43.9256 3.072ZM50.8136 1.56V2.56C54.2889 2.56 57.0324 3.47803 59.131 5.23819L59.7736 4.472L60.4162 3.70581C57.8856 1.58331 54.6557 0.559998 50.8136 0.559998V1.56ZM59.7736 4.472L59.1384 5.24429C61.2275 6.96278 62.4212 9.2836 62.6978 12.2916L63.6936 12.2L64.6894 12.1084C64.3687 8.6204 62.9491 5.78922 60.4089 3.69971L59.7736 4.472ZM63.6936 12.2L62.6966 12.2767C62.7228 12.6171 62.64 12.6558 62.6788 12.6137C62.7183 12.571 62.6881 12.656 62.3496 12.656V13.656V14.656C62.9818 14.656 63.661 14.4983 64.1484 13.9703C64.6352 13.4429 64.7392 12.7536 64.6907 12.1233L63.6936 12.2ZM62.3496 13.656V12.656H58.1496V13.656V14.656H62.3496V13.656ZM58.1496 13.656V12.656C57.8961 12.656 57.8152 12.5932 57.792 12.5726C57.7618 12.5458 57.6741 12.4483 57.624 12.1476L56.6376 12.312L55.6512 12.4764C55.7505 13.0717 55.9894 13.6462 56.4633 14.0674C56.9441 14.4948 57.5444 14.656 58.1496 14.656V13.656ZM56.6376 12.312L57.6271 12.1672C57.3758 10.4502 56.6835 9.04364 55.4648 8.08273C54.2603 7.13302 52.6695 6.72 50.8136 6.72V7.72V8.72C52.3924 8.72 53.4897 9.07231 54.2265 9.65327C54.9491 10.223 55.4514 11.1125 55.6482 12.4568L56.6376 12.312ZM50.8136 7.72V6.72C48.7243 6.72 46.9652 7.29824 45.6825 8.58089L46.3896 9.288L47.0967 9.9951C47.9047 9.18709 49.095 8.72 50.8136 8.72V7.72ZM46.3896 9.288L45.6955 8.56815C44.3992 9.81819 43.8216 11.5688 43.8216 13.656H44.8216H45.8216C45.8216 11.9352 46.2894 10.7738 47.0838 10.0078L46.3896 9.288ZM44.8216 13.656H43.8216V31.464H44.8216H45.8216V13.656H44.8216ZM44.8216 31.464H43.8216C43.8216 33.5534 44.3999 35.3125 45.6825 36.5951L46.3896 35.888L47.0967 35.1809C46.2887 34.3729 45.8216 33.1826 45.8216 31.464H44.8216ZM46.3896 35.888L45.6955 36.6078C46.9796 37.8461 48.734 38.4 50.8136 38.4V37.4V36.4C49.0853 36.4 47.8903 35.9459 47.0838 35.1682L46.3896 35.888ZM50.8136 37.4V38.4C52.6695 38.4 54.2603 37.987 55.4648 37.0373C56.6835 36.0764 57.3758 34.6698 57.6271 32.9528L56.6376 32.808L55.6482 32.6632C55.4514 34.0075 54.9491 34.897 54.2265 35.4667C53.4897 36.0477 52.3924 36.4 50.8136 36.4V37.4ZM56.6376 32.808L57.624 32.9724C57.6741 32.6717 57.7618 32.5742 57.792 32.5474C57.8152 32.5268 57.8961 32.464 58.1496 32.464V31.464V30.464C57.5444 30.464 56.9441 30.6252 56.4633 31.0526C55.9894 31.4738 55.7505 32.0483 55.6512 32.6436L56.6376 32.808ZM58.1496 31.464V32.464H62.3496V31.464V30.464H58.1496V31.464ZM62.3496 31.464V32.464C62.7037 32.464 62.7629 32.5481 62.7351 32.5214C62.6909 32.479 62.762 32.4899 62.7505 32.7664L63.7496 32.808L64.7488 32.8496C64.7746 32.2301 64.631 31.569 64.1202 31.0786C63.6257 30.6039 62.9662 30.464 62.3496 30.464V31.464ZM63.7496 32.808L62.7537 32.7175C62.4766 35.7664 61.2797 38.1266 59.187 39.8818L59.8296 40.648L60.4722 41.4142C63.0089 39.2867 64.4254 36.4203 64.7455 32.8985L63.7496 32.808ZM59.8296 40.648L59.187 39.8818C57.0901 41.6405 54.329 42.56 50.8136 42.56V43.56V44.56C54.6902 44.56 57.9398 43.5382 60.4722 41.4142L59.8296 40.648ZM73.4718 40.2L72.7705 40.9129L72.7763 40.9186L73.4718 40.2ZM73.4718 4.92L72.7763 4.20137L72.7705 4.20707L73.4718 4.92ZM92.1198 4.92L91.4185 5.63295L91.4243 5.6386L92.1198 4.92ZM92.1198 40.2L91.4243 39.4814L91.4185 39.4871L92.1198 40.2ZM87.1358 35.888L87.8561 36.5816L87.8624 36.5751L87.8686 36.5685L87.1358 35.888ZM87.1358 9.288L86.403 9.96845L86.4091 9.9751L86.4154 9.98164L87.1358 9.288ZM78.5118 9.288L79.2321 9.98164L79.2384 9.9751L79.2446 9.96845L78.5118 9.288ZM78.5118 35.888L77.779 36.5685L77.7851 36.5751L77.7914 36.5816L78.5118 35.888ZM82.8238 43.56V42.56C79.1036 42.56 76.2564 41.5033 74.1672 39.4814L73.4718 40.2L72.7763 40.9186C75.3164 43.3767 78.7039 44.56 82.8238 44.56V43.56ZM73.4718 40.2L74.173 39.4871C72.1304 37.4779 71.0558 34.6613 71.0558 30.904H70.0558H69.0558C69.0558 35.0614 70.2585 38.4421 72.7705 40.9129L73.4718 40.2ZM70.0558 30.904H71.0558V14.216H70.0558H69.0558V30.904H70.0558ZM70.0558 14.216H71.0558C71.0558 10.4587 72.1304 7.64207 74.173 5.63293L73.4718 4.92L72.7705 4.20707C70.2585 6.67793 69.0558 10.0586 69.0558 14.216H70.0558ZM73.4718 4.92L74.1672 5.6386C76.2564 3.61674 79.1036 2.56 82.8238 2.56V1.56V0.559998C78.7039 0.559998 75.3164 1.74326 72.7763 4.2014L73.4718 4.92ZM82.8238 1.56V2.56C86.5446 2.56 89.3689 3.6169 91.4185 5.63293L92.1198 4.92L92.821 4.20707C90.316 1.7431 86.9429 0.559998 82.8238 0.559998V1.56ZM92.1198 4.92L91.4243 5.6386C93.5033 7.65051 94.5918 10.4479 94.5918 14.16H95.5918H96.5918C96.5918 10.0321 95.3655 6.66949 92.8152 4.2014L92.1198 4.92ZM95.5918 14.16H94.5918V30.904H95.5918H96.5918V14.16H95.5918ZM95.5918 30.904H94.5918C94.5918 34.6566 93.5014 37.4713 91.4243 39.4814L92.1198 40.2L92.8152 40.9186C95.3674 38.4487 96.5918 35.0661 96.5918 30.904H95.5918ZM92.1198 40.2L91.4185 39.4871C89.3689 41.5031 86.5446 42.56 82.8238 42.56V43.56V44.56C86.9429 44.56 90.316 43.3769 92.821 40.9129L92.1198 40.2ZM82.8238 37.4V38.4C84.8984 38.4 86.6367 37.8479 87.8561 36.5816L87.1358 35.888L86.4154 35.1944C85.6935 35.9441 84.5571 36.4 82.8238 36.4V37.4ZM87.1358 35.888L87.8686 36.5685C89.0618 35.2834 89.5918 33.5341 89.5918 31.464H88.5918H87.5918C87.5918 33.2019 87.151 34.402 86.403 35.2075L87.1358 35.888ZM88.5918 31.464H89.5918V13.656H88.5918H87.5918V31.464H88.5918ZM88.5918 13.656H89.5918C89.5918 11.5884 89.0628 9.8475 87.8561 8.59436L87.1358 9.288L86.4154 9.98164C87.15 10.7445 87.5918 11.9156 87.5918 13.656H88.5918ZM87.1358 9.288L87.8686 8.60754C86.6513 7.2967 84.9086 6.72 82.8238 6.72V7.72V8.72C84.547 8.72 85.6788 9.18863 86.403 9.96845L87.1358 9.288ZM82.8238 7.72V6.72C80.739 6.72 78.9962 7.2967 77.779 8.60754L78.5118 9.288L79.2446 9.96845C79.9687 9.18863 81.1006 8.72 82.8238 8.72V7.72ZM78.5118 9.288L77.7914 8.59436C76.5847 9.8475 76.0558 11.5884 76.0558 13.656H77.0558H78.0558C78.0558 11.9156 78.4975 10.7445 79.2321 9.98164L78.5118 9.288ZM77.0558 13.656H76.0558V31.464H77.0558H78.0558V13.656H77.0558ZM77.0558 31.464H76.0558C76.0558 33.5341 76.5857 35.2834 77.779 36.5685L78.5118 35.888L79.2446 35.2075C78.4965 34.402 78.0558 33.2019 78.0558 31.464H77.0558ZM78.5118 35.888L77.7914 36.5816C79.0108 37.8479 80.7491 38.4 82.8238 38.4V37.4V36.4C81.0904 36.4 79.9541 35.9441 79.2321 35.1944L78.5118 35.888ZM102.85 43H101.85V44H102.85V43ZM102.85 2.12V1.12H101.85V2.12H102.85ZM127.378 2.12H128.378V1.12H127.378V2.12ZM127.378 8.448V9.448H128.378V8.448H127.378ZM109.682 8.448V7.448H108.682V8.448H109.682ZM109.682 18.192H108.682V19.192H109.682V18.192ZM122.786 19.76L122.326 20.6478L122.332 20.6511L122.339 20.6544L122.786 19.76ZM127.49 24.072L126.632 24.5865L126.637 24.5942L127.49 24.072ZM127.49 37.008L126.632 36.4935V36.4935L127.49 37.008ZM122.786 41.432L123.253 42.3162L123.259 42.313L122.786 41.432ZM109.682 36.84H108.682V37.84H109.682V36.84ZM120.322 35.104L119.615 34.3969L119.609 34.4027L119.603 34.4086L120.322 35.104ZM120.322 25.92L119.603 26.6154L119.615 26.6272L119.626 26.6386L120.322 25.92ZM109.682 24.184V23.184H108.682V24.184H109.682ZM102.85 43H103.85V2.12H102.85H101.85V43H102.85ZM102.85 2.12V3.12H127.378V2.12V1.12H102.85V2.12ZM127.378 2.12H126.378V8.448H127.378H128.378V2.12H127.378ZM127.378 8.448V7.448H109.682V8.448V9.448H127.378V8.448ZM109.682 8.448H108.682V18.192H109.682H110.682V8.448H109.682ZM109.682 18.192V19.192H115.674V18.192V17.192H109.682V18.192ZM115.674 18.192V19.192C118.271 19.192 120.478 19.6895 122.326 20.6478L122.786 19.76L123.246 18.8722C121.062 17.7398 118.528 17.192 115.674 17.192V18.192ZM122.786 19.76L122.339 20.6544C124.191 21.5805 125.614 22.8889 126.632 24.5865L127.49 24.072L128.347 23.5575C127.126 21.5218 125.413 19.9555 123.233 18.8656L122.786 19.76ZM127.49 24.072L126.637 24.5942C127.647 26.2441 128.17 28.2043 128.17 30.512H129.17H130.17C130.17 27.8917 129.573 25.5586 128.343 23.5498L127.49 24.072ZM129.17 30.512H128.17C128.17 32.8192 127.647 34.802 126.632 36.4935L127.49 37.008L128.347 37.5225C129.572 35.4807 130.17 33.1328 130.17 30.512H129.17ZM127.49 37.008L126.632 36.4935C125.61 38.1975 124.178 39.5491 122.313 40.551L122.786 41.432L123.259 42.313C125.425 41.1496 127.13 39.5518 128.347 37.5225L127.49 37.008ZM122.786 41.432L122.319 40.5478C120.512 41.5022 118.327 42 115.73 42V43V44C118.583 44 121.102 43.4524 123.253 42.3162L122.786 41.432ZM115.73 43V42H102.85V43V44H115.73V43ZM109.682 36.84V37.84H115.73V36.84V35.84H109.682V36.84ZM115.73 36.84V37.84C117.882 37.84 119.694 37.1906 121.04 35.7994L120.322 35.104L119.603 34.4086C118.71 35.3321 117.46 35.84 115.73 35.84V36.84ZM120.322 35.104L121.029 35.8111C122.405 34.4355 123.058 32.6344 123.058 30.512H122.058H121.058C121.058 32.1976 120.554 33.4578 119.615 34.3969L120.322 35.104ZM122.058 30.512H123.058C123.058 28.3595 122.408 26.5477 121.017 25.2014L120.322 25.92L119.626 26.6386C120.55 27.5323 121.058 28.7818 121.058 30.512H122.058ZM120.322 25.92L121.04 25.2246C119.694 23.8334 117.882 23.184 115.73 23.184V24.184V25.184C117.46 25.184 118.71 25.6919 119.603 26.6154L120.322 25.92ZM115.73 24.184V23.184H109.682V24.184V25.184H115.73V24.184ZM109.682 24.184H108.682V36.84H109.682H110.682V24.184H109.682ZM142.756 18.92H141.756V19.92H142.756V18.92ZM142.756 24.856V23.856H141.756V24.856H142.756ZM137.268 43V42C136.955 42 136.905 41.9225 136.925 41.9429C136.945 41.9632 136.868 41.9125 136.868 41.6H135.868H134.868C134.868 42.2208 135.024 42.8701 135.511 43.3571C135.998 43.8441 136.647 44 137.268 44V43ZM135.868 41.6H136.868V3.52H135.868H134.868V41.6H135.868ZM135.868 3.52H136.868C136.868 3.20748 136.945 3.15676 136.925 3.1771C136.905 3.19745 136.955 3.12 137.268 3.12V2.12V1.12C136.647 1.12 135.998 1.27588 135.511 1.76289C135.024 2.2499 134.868 2.89919 134.868 3.52H135.868ZM137.268 2.12V3.12H158.996V2.12V1.12H137.268V2.12ZM158.996 2.12V3.12C159.309 3.12 159.359 3.19745 159.339 3.1771C159.319 3.15676 159.396 3.20748 159.396 3.52H160.396H161.396C161.396 2.89919 161.24 2.2499 160.753 1.76289C160.266 1.27588 159.617 1.12 158.996 1.12V2.12ZM160.396 3.52H159.396V6.88H160.396H161.396V3.52H160.396ZM160.396 6.88H159.396C159.396 7.19252 159.319 7.24324 159.339 7.22289C159.359 7.20255 159.309 7.28 158.996 7.28V8.28V9.28C159.617 9.28 160.266 9.12412 160.753 8.6371C161.24 8.15009 161.396 7.50081 161.396 6.88H160.396ZM158.996 8.28V7.28H144.156V8.28V9.28H158.996V8.28ZM144.156 8.28V7.28C143.535 7.28 142.886 7.43588 142.399 7.92289C141.912 8.4099 141.756 9.05919 141.756 9.68H142.756H143.756C143.756 9.36748 143.833 9.31676 143.813 9.3371C143.793 9.35745 143.843 9.28 144.156 9.28V8.28ZM142.756 9.68H141.756V18.92H142.756H143.756V9.68H142.756ZM142.756 18.92V19.92H157.036V18.92V17.92H142.756V18.92ZM157.036 18.92V19.92C157.359 19.92 157.415 19.998 157.393 19.9774C157.364 19.9495 157.436 19.9808 157.436 20.264H158.436H159.436C159.436 19.6512 159.274 19.0105 158.779 18.5346C158.29 18.066 157.647 17.92 157.036 17.92V18.92ZM158.436 20.264H157.436V23.456H158.436H159.436V20.264H158.436ZM158.436 23.456H157.436C157.436 23.7685 157.359 23.8192 157.379 23.7989C157.399 23.7785 157.349 23.856 157.036 23.856V24.856V25.856C157.657 25.856 158.306 25.7001 158.793 25.2131C159.28 24.7261 159.436 24.0768 159.436 23.456H158.436ZM157.036 24.856V23.856H142.756V24.856V25.856H157.036V24.856ZM142.756 24.856H141.756V35.44H142.756H143.756V24.856H142.756ZM142.756 35.44H141.756C141.756 36.0608 141.912 36.7101 142.399 37.1971C142.886 37.6841 143.535 37.84 144.156 37.84V36.84V35.84C143.843 35.84 143.793 35.7625 143.813 35.7829C143.833 35.8032 143.756 35.7525 143.756 35.44H142.756ZM144.156 36.84V37.84H158.996V36.84V35.84H144.156V36.84ZM158.996 36.84V37.84C159.309 37.84 159.359 37.9175 159.339 37.8971C159.319 37.8768 159.396 37.9275 159.396 38.24H160.396H161.396C161.396 37.6192 161.24 36.9699 160.753 36.4829C160.266 35.9959 159.617 35.84 158.996 35.84V36.84ZM160.396 38.24H159.396V41.6H160.396H161.396V38.24H160.396ZM160.396 41.6H159.396C159.396 41.9125 159.319 41.9632 159.339 41.9429C159.359 41.9225 159.309 42 158.996 42V43V44C159.617 44 160.266 43.8441 160.753 43.3571C161.24 42.8701 161.396 42.2208 161.396 41.6H160.396ZM158.996 43V42H137.268V43V44H158.996V43ZM188.43 3.688L187.97 4.57578L187.976 4.57916L188.43 3.688ZM193.19 8.112L192.328 8.61904L192.333 8.6265L193.19 8.112ZM193.19 21.384L194.048 21.8985L194.052 21.891L193.19 21.384ZM188.43 25.752L187.976 24.8608L187.97 24.8642L188.43 25.752ZM174.71 27.32V26.32H173.71V27.32H174.71ZM174.71 21.16H173.71V22.16H174.71V21.16ZM186.022 19.368L185.304 18.6722V18.6722L186.022 19.368ZM186.022 10.072L185.304 10.7678V10.7678L186.022 10.072ZM169.054 43V42C168.771 42 168.74 41.9284 168.768 41.9575C168.788 41.9789 168.71 41.9225 168.71 41.6H167.71H166.71C166.71 42.2108 166.856 42.8544 167.325 43.3425C167.801 43.8383 168.441 44 169.054 44V43ZM167.71 41.6H168.71V3.52H167.71H166.71V41.6H167.71ZM167.71 3.52H168.71C168.71 3.1975 168.788 3.14106 168.768 3.16253C168.74 3.19162 168.771 3.12 169.054 3.12V2.12V1.12C168.441 1.12 167.801 1.28171 167.325 1.77747C166.856 2.26561 166.71 2.90916 166.71 3.52H167.71ZM169.054 2.12V3.12H181.318V2.12V1.12H169.054V2.12ZM181.318 2.12V3.12C183.915 3.12 186.122 3.61754 187.97 4.57575L188.43 3.688L188.89 2.80024C186.706 1.66779 184.172 1.12 181.318 1.12V2.12ZM188.43 3.688L187.976 4.57916C189.868 5.54191 191.309 6.88666 192.328 8.61902L193.19 8.112L194.052 7.60498C192.831 5.52934 191.099 3.92476 188.884 2.79684L188.43 3.688ZM193.19 8.112L192.333 8.6265C193.345 10.3135 193.87 12.3321 193.87 14.72H194.87H195.87C195.87 12.0306 195.275 9.64382 194.048 7.5975L193.19 8.112ZM194.87 14.72H193.87C193.87 17.1074 193.345 19.1484 192.328 20.877L193.19 21.384L194.052 21.891C195.275 19.8116 195.87 17.4099 195.87 14.72H194.87ZM193.19 21.384L192.333 20.8695C191.315 22.5656 189.873 23.8955 187.976 24.8608L188.43 25.752L188.884 26.6432C191.094 25.5179 192.825 23.9357 194.048 21.8985L193.19 21.384ZM188.43 25.752L187.97 24.8642C186.122 25.8225 183.915 26.32 181.318 26.32V27.32V28.32C184.172 28.32 186.706 27.7722 188.89 26.6398L188.43 25.752ZM181.318 27.32V26.32H174.71V27.32V28.32H181.318V27.32ZM174.71 27.32H173.71V41.6H174.71H175.71V27.32H174.71ZM174.71 41.6H173.71C173.71 41.9125 173.633 41.9632 173.653 41.9429C173.673 41.9225 173.623 42 173.31 42V43V44C173.931 44 174.58 43.8441 175.067 43.3571C175.554 42.8701 175.71 42.2208 175.71 41.6H174.71ZM173.31 43V42H169.054V43V44H173.31V43ZM174.71 21.16V22.16H181.318V21.16V20.16H174.71V21.16ZM181.318 21.16V22.16C183.512 22.16 185.359 21.4894 186.74 20.0638L186.022 19.368L185.304 18.6722C184.37 19.636 183.081 20.16 181.318 20.16V21.16ZM186.022 19.368L186.74 20.0638C188.105 18.6553 188.758 16.8431 188.758 14.72H187.758H186.758C186.758 16.4049 186.254 17.6913 185.304 18.6722L186.022 19.368ZM187.758 14.72H188.758C188.758 12.5969 188.105 10.7847 186.74 9.37621L186.022 10.072L185.304 10.7678C186.254 11.7487 186.758 13.0351 186.758 14.72H187.758ZM186.022 10.072L186.74 9.37621C185.359 7.95063 183.512 7.28 181.318 7.28V8.28V9.28C183.081 9.28 184.37 9.80404 185.304 10.7678L186.022 10.072ZM181.318 8.28V7.28H176.11V8.28V9.28H181.318V8.28ZM176.11 8.28V7.28C175.499 7.28 174.856 7.426 174.368 7.89461C173.872 8.37054 173.71 9.01123 173.71 9.624H174.71H175.71C175.71 9.34077 175.782 9.30946 175.753 9.33739C175.731 9.358 175.788 9.28 176.11 9.28V8.28ZM174.71 9.624H173.71V21.16H174.71H175.71V9.624H174.71ZM199.888 43H198.888V44H199.888V43ZM199.888 2.12V1.12H198.888V2.12H199.888ZM206.272 2.12H207.272V1.12H206.272V2.12ZM206.16 26.536L207.159 26.5825V26.5825L206.16 26.536ZM205.88 31.24L204.883 31.167V31.167L205.88 31.24ZM205.6 35.16L204.603 35.0912L206.547 35.4825L205.6 35.16ZM216.856 2.12V1.12H216.14L215.91 1.79752L216.856 2.12ZM225.424 2.12H226.424V1.12H225.424V2.12ZM225.424 43V44H226.424V43H225.424ZM219.04 43H218.04V44H219.04V43ZM219.152 19.144L218.154 19.0775L218.154 19.0885L218.153 19.0996L219.152 19.144ZM219.488 14.216L220.486 14.2856L220.486 14.284L219.488 14.216ZM219.824 9.96L220.82 10.0533L218.879 9.63465L219.824 9.96ZM208.456 43V44H209.17L209.402 43.3253L208.456 43ZM199.888 43H200.888V2.12H199.888H198.888V43H199.888ZM199.888 2.12V3.12H206.272V2.12V1.12H199.888V2.12ZM206.272 2.12H205.272V22.112H206.272H207.272V2.12H206.272ZM206.272 22.112H205.272C205.272 23.4379 205.235 24.8968 205.161 26.4895L206.16 26.536L207.159 26.5825C207.234 24.9645 207.272 23.4741 207.272 22.112H206.272ZM206.16 26.536L205.161 26.4895C205.087 28.0864 204.994 29.6456 204.883 31.167L205.88 31.24L206.878 31.313C206.99 29.7731 207.084 28.1962 207.159 26.5825L206.16 26.536ZM205.88 31.24L204.883 31.167C204.771 32.6986 204.677 34.0067 204.603 35.0912L205.6 35.16L206.598 35.2288C206.672 34.148 206.766 32.8428 206.878 31.313L205.88 31.24ZM205.6 35.16L206.547 35.4825L217.803 2.44248L216.856 2.12L215.91 1.79752L204.654 34.8375L205.6 35.16ZM216.856 2.12V3.12H225.424V2.12V1.12H216.856V2.12ZM225.424 2.12H224.424V43H225.424H226.424V2.12H225.424ZM225.424 43V42H219.04V43V44H225.424V43ZM219.04 43H220.04V23.624H219.04H218.04V43H219.04ZM219.04 23.624H220.04C220.04 22.3356 220.077 20.8576 220.151 19.1884L219.152 19.144L218.153 19.0996C218.078 20.7904 218.04 22.299 218.04 23.624H219.04ZM219.152 19.144L220.15 19.2105C220.262 17.5315 220.374 15.8899 220.486 14.2856L219.488 14.216L218.491 14.1464C218.379 15.7528 218.267 17.3965 218.154 19.0775L219.152 19.144ZM219.488 14.216L220.486 14.284C220.598 12.6469 220.709 11.2371 220.82 10.0533L219.824 9.96L218.829 9.86666C218.716 11.0722 218.603 12.4997 218.491 14.148L219.488 14.216ZM219.824 9.96L218.879 9.63465L207.511 42.6747L208.456 43L209.402 43.3253L220.77 10.2853L219.824 9.96ZM208.456 43V42H199.888V43V44H208.456V43ZM76.3838 80.104L75.9229 80.9915L75.9297 80.995L75.9365 80.9984L76.3838 80.104ZM71.8477 75.904L70.9795 76.4001L70.9855 76.4107L70.9918 76.4211L71.8477 75.904ZM71.8477 45.272L70.9872 44.7627L70.984 44.7681L71.8477 45.272ZM76.3838 41.072L76.831 41.9664L76.8378 41.963L76.8446 41.9595L76.3838 41.072ZM92.2318 42.472L91.5891 43.2382L91.5965 43.2443L92.2318 42.472ZM96.1517 50.2L97.1488 50.1233L97.1482 50.1159L97.1476 50.1084L96.1517 50.2ZM89.0957 50.312L88.1063 50.4568L88.1077 50.4666L88.1094 50.4764L89.0957 50.312ZM78.8477 47.288L79.5419 48.0078L79.5484 48.0015L79.5549 47.9951L78.8477 47.288ZM78.8477 73.888L78.1406 74.5951L78.1471 74.6015L78.1536 74.6078L78.8477 73.888ZM89.0957 70.808L88.1094 70.6436L88.1077 70.6534L88.1063 70.6632L89.0957 70.808ZM96.2077 70.808L97.2036 70.8985L97.2059 70.8741L97.2069 70.8496L96.2077 70.808ZM92.2878 78.648L91.6451 77.8818V77.8818L92.2878 78.648ZM83.2718 81.56V80.56C80.7425 80.56 78.6061 80.0971 76.831 79.2096L76.3838 80.104L75.9365 80.9984C78.0441 82.0522 80.4996 82.56 83.2718 82.56V81.56ZM76.3838 80.104L76.8446 79.2165C75.0588 78.2893 73.6868 77.0142 72.7037 75.3869L71.8477 75.904L70.9918 76.4211C72.174 78.3778 73.826 79.9027 75.9229 80.9915L76.3838 80.104ZM71.8477 75.904L72.716 75.4079C71.7706 73.7535 71.2798 71.7837 71.2798 69.464H70.2798H69.2797C69.2797 72.0723 69.8342 74.3958 70.9795 76.4001L71.8477 75.904ZM70.2798 69.464H71.2798V51.656H70.2798H69.2797V69.464H70.2798ZM70.2798 51.656H71.2798C71.2798 49.3357 71.7709 47.3885 72.7115 45.7759L71.8477 45.272L70.984 44.7681C69.834 46.7395 69.2797 49.0483 69.2797 51.656H70.2798ZM71.8477 45.272L72.7083 45.7813C73.6909 44.1211 75.0577 42.853 76.831 41.9664L76.3838 41.072L75.9365 40.1776C73.8271 41.2323 72.1699 42.7643 70.9872 44.7627L71.8477 45.272ZM76.3838 41.072L76.8446 41.9595C78.6164 41.0395 80.7479 40.56 83.2718 40.56V39.56V38.56C80.4943 38.56 78.0337 39.0885 75.9229 40.1845L76.3838 41.072ZM83.2718 39.56V40.56C86.747 40.56 89.4905 41.478 91.5891 43.2382L92.2318 42.472L92.8744 41.7058C90.3437 39.5833 87.1138 38.56 83.2718 38.56V39.56ZM92.2318 42.472L91.5965 43.2443C93.6856 44.9628 94.8794 47.2836 95.156 50.2916L96.1517 50.2L97.1476 50.1084C96.8268 46.6204 95.4072 43.7892 92.867 41.6997L92.2318 42.472ZM96.1517 50.2L95.1547 50.2767C95.1809 50.6171 95.0981 50.6558 95.1369 50.6137C95.1764 50.571 95.1462 50.656 94.8078 50.656V51.656V52.656C95.44 52.656 96.1191 52.4983 96.6066 51.9703C97.0934 51.4429 97.1973 50.7536 97.1488 50.1233L96.1517 50.2ZM94.8078 51.656V50.656H90.6077V51.656V52.656H94.8078V51.656ZM90.6077 51.656V50.656C90.3543 50.656 90.2733 50.5932 90.2501 50.5726C90.22 50.5458 90.1323 50.4483 90.0821 50.1476L89.0957 50.312L88.1094 50.4764C88.2086 51.0717 88.4475 51.6462 88.9214 52.0674C89.4022 52.4948 90.0026 52.656 90.6077 52.656V51.656ZM89.0957 50.312L90.0852 50.1672C89.8339 48.4502 89.1416 47.0436 87.9229 46.0827C86.7184 45.133 85.1276 44.72 83.2718 44.72V45.72V46.72C84.8505 46.72 85.9478 47.0723 86.6846 47.6533C87.4072 48.223 87.9096 49.1125 88.1063 50.4568L89.0957 50.312ZM83.2718 45.72V44.72C81.1824 44.72 79.4233 45.2982 78.1406 46.5809L78.8477 47.288L79.5549 47.9951C80.3629 47.1871 81.5531 46.72 83.2718 46.72V45.72ZM78.8477 47.288L78.1536 46.5682C76.8573 47.8182 76.2798 49.5688 76.2798 51.656H77.2798H78.2798C78.2798 49.9352 78.7476 48.7738 79.5419 48.0078L78.8477 47.288ZM77.2798 51.656H76.2798V69.464H77.2798H78.2798V51.656H77.2798ZM77.2798 69.464H76.2798C76.2798 71.5534 76.858 73.3125 78.1406 74.5951L78.8477 73.888L79.5549 73.1809C78.7468 72.3729 78.2798 71.1826 78.2798 69.464H77.2798ZM78.8477 73.888L78.1536 74.6078C79.4377 75.8461 81.1921 76.4 83.2718 76.4V75.4V74.4C81.5434 74.4 80.3485 73.9459 79.5419 73.1682L78.8477 73.888ZM83.2718 75.4V76.4C85.1276 76.4 86.7184 75.987 87.9229 75.0373C89.1416 74.0764 89.8339 72.6698 90.0852 70.9528L89.0957 70.808L88.1063 70.6632C87.9096 72.0075 87.4072 72.897 86.6846 73.4667C85.9478 74.0477 84.8505 74.4 83.2718 74.4V75.4ZM89.0957 70.808L90.0821 70.9724C90.1323 70.6717 90.22 70.5742 90.2501 70.5474C90.2733 70.5268 90.3543 70.464 90.6077 70.464V69.464V68.464C90.0026 68.464 89.4022 68.6252 88.9214 69.0526C88.4475 69.4738 88.2086 70.0483 88.1094 70.6436L89.0957 70.808ZM90.6077 69.464V70.464H94.8078V69.464V68.464H90.6077V69.464ZM94.8078 69.464V70.464C95.1618 70.464 95.221 70.5481 95.1932 70.5214C95.149 70.479 95.2201 70.4899 95.2086 70.7664L96.2077 70.808L97.2069 70.8496C97.2327 70.2301 97.0891 69.569 96.5783 69.0786C96.0838 68.6039 95.4244 68.464 94.8078 68.464V69.464ZM96.2077 70.808L95.2119 70.7175C94.9347 73.7664 93.7378 76.1266 91.6451 77.8818L92.2878 78.648L92.9304 79.4142C95.467 77.2867 96.8835 74.4203 97.2036 70.8985L96.2077 70.808ZM92.2878 78.648L91.6451 77.8818C89.5483 79.6405 86.7872 80.56 83.2718 80.56V81.56V82.56C87.1483 82.56 90.3979 81.5382 92.9304 79.4142L92.2878 78.648ZM124.69 42.976L124.055 43.7483L124.061 43.7532L124.69 42.976ZM126.258 56.416L125.482 55.7847L125.478 55.7902L125.473 55.7958L126.258 56.416ZM121.274 59.328L121.112 58.3411L120.274 58.4783V59.328H121.274ZM121.274 59.44H120.274V60.3255L121.153 60.4326L121.274 59.44ZM125.362 61.12L124.746 61.908L124.754 61.9141L124.762 61.92L125.362 61.12ZM128.162 64.648L127.254 65.0671L127.258 65.0761L128.162 64.648ZM127.546 75.512L128.397 76.0371V76.0371L127.546 75.512ZM122.954 79.6L123.38 80.5044L123.387 80.5012L123.394 80.4978L122.954 79.6ZM109.626 56.976H108.626V57.976H109.626V56.976ZM119.594 55.52L120.261 56.2646L120.268 56.2583L120.275 56.2519L119.594 55.52ZM119.594 47.456L118.9 48.1758L118.913 48.1884L118.926 48.2006L119.594 47.456ZM120.378 73.552L121.061 74.2823L121.062 74.2815L120.378 73.552ZM120.378 64.424L119.66 65.1198L119.671 65.1312L119.682 65.1422L120.378 64.424ZM109.626 62.632V61.632H108.626V62.632H109.626ZM104.194 81V80C103.881 80 103.831 79.9225 103.851 79.9429C103.871 79.9632 103.794 79.9125 103.794 79.6H102.794H101.794C101.794 80.2208 101.95 80.8701 102.437 81.3571C102.924 81.8441 103.573 82 104.194 82V81ZM102.794 79.6H103.794V41.52H102.794H101.794V79.6H102.794ZM102.794 41.52H103.794C103.794 41.2075 103.871 41.1568 103.851 41.1771C103.831 41.1975 103.881 41.12 104.194 41.12V40.12V39.12C103.573 39.12 102.924 39.2759 102.437 39.7629C101.95 40.2499 101.794 40.8992 101.794 41.52H102.794ZM104.194 40.12V41.12H115.338V40.12V39.12H104.194V40.12ZM115.338 40.12V41.12C119.098 41.12 121.968 42.0316 124.055 43.7483L124.69 42.976L125.325 42.2037C122.783 40.1124 119.417 39.12 115.338 39.12V40.12ZM124.69 42.976L124.061 43.7532C126.162 45.4544 127.218 47.7179 127.218 50.648H128.218H129.218C129.218 47.1567 127.922 44.3055 125.319 42.1988L124.69 42.976ZM128.218 50.648H127.218C127.218 52.6783 126.632 54.3728 125.482 55.7847L126.258 56.416L127.033 57.0473C128.498 55.2485 129.218 53.0977 129.218 50.648H128.218ZM126.258 56.416L125.473 55.7958C124.362 57.2019 122.924 58.0447 121.112 58.3411L121.274 59.328L121.435 60.3149C123.73 59.9393 125.615 58.8408 127.042 57.0362L126.258 56.416ZM121.274 59.328H120.274V59.44H121.274H122.274V59.328H121.274ZM121.274 59.44L121.153 60.4326C122.506 60.5977 123.697 61.0886 124.746 61.908L125.362 61.12L125.978 60.332C124.637 59.2848 123.103 58.6556 121.395 58.4474L121.274 59.44ZM125.362 61.12L124.762 61.92C125.814 62.7092 126.646 63.7502 127.254 65.0671L128.162 64.648L129.07 64.2289C128.334 62.6338 127.299 61.3228 125.962 60.32L125.362 61.12ZM128.162 64.648L127.258 65.0761C127.861 66.3488 128.17 67.7686 128.17 69.352H129.17H130.17C130.17 67.5007 129.807 65.7846 129.066 64.2199L128.162 64.648ZM129.17 69.352H128.17C128.17 71.5452 127.667 73.4113 126.695 74.9869L127.546 75.512L128.397 76.0371C129.59 74.1033 130.17 71.8628 130.17 69.352H129.17ZM127.546 75.512L126.695 74.9869C125.718 76.5699 124.335 77.8086 122.513 78.7022L122.954 79.6L123.394 80.4978C125.53 79.4501 127.208 77.9634 128.397 76.0371L127.546 75.512ZM122.954 79.6L122.527 78.6956C120.709 79.5533 118.527 80 115.954 80V81V82C118.756 82 121.241 81.5134 123.38 80.5044L122.954 79.6ZM115.954 81V80H104.194V81V82H115.954V81ZM109.626 56.976V57.976H115.226V56.976V55.976H109.626V56.976ZM115.226 56.976V57.976C117.236 57.976 118.952 57.439 120.261 56.2646L119.594 55.52L118.926 54.7754C118.071 55.5424 116.875 55.976 115.226 55.976V56.976ZM119.594 55.52L120.275 56.2519C121.594 55.0238 122.218 53.3781 122.218 51.432H121.218H120.218C120.218 52.9206 119.759 54.0002 118.912 54.7881L119.594 55.52ZM121.218 51.432H122.218C122.218 49.5165 121.589 47.902 120.261 46.7114L119.594 47.456L118.926 48.2006C119.764 48.9513 120.218 49.9875 120.218 51.432H121.218ZM119.594 47.456L120.288 46.7362C119.007 45.5013 117.275 44.944 115.226 44.944V45.944V46.944C116.911 46.944 118.09 47.3947 118.9 48.1758L119.594 47.456ZM115.226 45.944V44.944H110.97V45.944V46.944H115.226V45.944ZM110.97 45.944V44.944C110.357 44.944 109.716 45.1057 109.24 45.6015C108.772 46.0896 108.626 46.7332 108.626 47.344H109.626H110.626C110.626 47.0215 110.704 46.9651 110.683 46.9865C110.655 47.0156 110.687 46.944 110.97 46.944V45.944ZM109.626 47.344H108.626V56.976H109.626H110.626V47.344H109.626ZM109.626 73.776H108.626C108.626 74.3868 108.772 75.0304 109.24 75.5185C109.716 76.0143 110.357 76.176 110.97 76.176V75.176V74.176C110.687 74.176 110.655 74.1044 110.683 74.1335C110.704 74.1549 110.626 74.0985 110.626 73.776H109.626ZM110.97 75.176V76.176H115.562V75.176V74.176H110.97V75.176ZM115.562 75.176V76.176C117.791 76.176 119.669 75.5848 121.061 74.2823L120.378 73.552L119.695 72.8217C118.772 73.6846 117.439 74.176 115.562 74.176V75.176ZM120.378 73.552L121.062 74.2815C122.491 72.9413 123.17 71.1473 123.17 69.016H122.17H121.17C121.17 70.6927 120.654 71.9227 119.694 72.8225L120.378 73.552ZM122.17 69.016H123.17C123.17 66.884 122.491 65.0793 121.074 63.7058L120.378 64.424L119.682 65.1422C120.654 66.0834 121.17 67.34 121.17 69.016H122.17ZM120.378 64.424L121.096 63.7282C119.708 62.2953 117.818 61.632 115.562 61.632V62.632V63.632C117.412 63.632 118.733 64.1633 119.66 65.1198L120.378 64.424ZM115.562 62.632V61.632H109.626V62.632V63.632H115.562V62.632ZM109.626 62.632H108.626V73.776H109.626H110.626V62.632H109.626ZM138.388 78.2L137.687 78.9129L137.693 78.9186L138.388 78.2ZM138.388 42.92L137.693 42.2014L137.687 42.2071L138.388 42.92ZM157.036 42.92L156.335 43.6329L156.341 43.6386L157.036 42.92ZM157.036 78.2L156.341 77.4814L156.335 77.4871L157.036 78.2ZM152.052 73.888L152.772 74.5816L152.779 74.5751L152.785 74.5685L152.052 73.888ZM152.052 47.288L151.319 47.9684L151.325 47.9751L151.332 47.9816L152.052 47.288ZM143.428 47.288L144.148 47.9816L144.155 47.9751L144.161 47.9684L143.428 47.288ZM143.428 73.888L142.695 74.5685L142.701 74.5751L142.708 74.5816L143.428 73.888ZM147.74 81.56V80.56C144.02 80.56 141.173 79.5033 139.083 77.4814L138.388 78.2L137.693 78.9186C140.233 81.3767 143.62 82.56 147.74 82.56V81.56ZM138.388 78.2L139.089 77.4871C137.047 75.4779 135.972 72.6613 135.972 68.904H134.972H133.972C133.972 73.0614 135.175 76.4421 137.687 78.9129L138.388 78.2ZM134.972 68.904H135.972V52.216H134.972H133.972V68.904H134.972ZM134.972 52.216H135.972C135.972 48.4587 137.047 45.6421 139.089 43.6329L138.388 42.92L137.687 42.2071C135.175 44.6779 133.972 48.0586 133.972 52.216H134.972ZM138.388 42.92L139.083 43.6386C141.173 41.6167 144.02 40.56 147.74 40.56V39.56V38.56C143.62 38.56 140.233 39.7433 137.693 42.2014L138.388 42.92ZM147.74 39.56V40.56C151.461 40.56 154.285 41.6169 156.335 43.6329L157.036 42.92L157.737 42.2071C155.232 39.7431 151.859 38.56 147.74 38.56V39.56ZM157.036 42.92L156.341 43.6386C158.42 45.6505 159.508 48.4479 159.508 52.16H160.508H161.508C161.508 48.0321 160.282 44.6695 157.731 42.2014L157.036 42.92ZM160.508 52.16H159.508V68.904H160.508H161.508V52.16H160.508ZM160.508 68.904H159.508C159.508 72.6566 158.418 75.4713 156.341 77.4814L157.036 78.2L157.731 78.9186C160.284 76.4487 161.508 73.0661 161.508 68.904H160.508ZM157.036 78.2L156.335 77.4871C154.285 79.5031 151.461 80.56 147.74 80.56V81.56V82.56C151.859 82.56 155.232 81.3769 157.737 78.9129L157.036 78.2ZM147.74 75.4V76.4C149.815 76.4 151.553 75.8479 152.772 74.5816L152.052 73.888L151.332 73.1944C150.61 73.9441 149.473 74.4 147.74 74.4V75.4ZM152.052 73.888L152.785 74.5685C153.978 73.2834 154.508 71.5341 154.508 69.464H153.508H152.508C152.508 71.2019 152.067 72.402 151.319 73.2076L152.052 73.888ZM153.508 69.464H154.508V51.656H153.508H152.508V69.464H153.508ZM153.508 51.656H154.508C154.508 49.5884 153.979 47.8475 152.772 46.5944L152.052 47.288L151.332 47.9816C152.066 48.7445 152.508 49.9156 152.508 51.656H153.508ZM152.052 47.288L152.785 46.6075C151.568 45.2967 149.825 44.72 147.74 44.72V45.72V46.72C149.463 46.72 150.595 47.1886 151.319 47.9684L152.052 47.288ZM147.74 45.72V44.72C145.655 44.72 143.912 45.2967 142.695 46.6075L143.428 47.288L144.161 47.9684C144.885 47.1886 146.017 46.72 147.74 46.72V45.72ZM143.428 47.288L142.708 46.5944C141.501 47.8475 140.972 49.5884 140.972 51.656H141.972H142.972C142.972 49.9156 143.414 48.7445 144.148 47.9816L143.428 47.288ZM141.972 51.656H140.972V69.464H141.972H142.972V51.656H141.972ZM141.972 69.464H140.972C140.972 71.5341 141.502 73.2834 142.695 74.5685L143.428 73.888L144.161 73.2076C143.413 72.402 142.972 71.2019 142.972 69.464H141.972ZM143.428 73.888L142.708 74.5816C143.927 75.8479 145.665 76.4 147.74 76.4V75.4V74.4C146.007 74.4 144.87 73.9441 144.148 73.1944L143.428 73.888ZM179.302 78.76L178.559 79.429L178.566 79.4371L179.302 78.76ZM176.782 62.632H177.782V61.632H176.782V62.632ZM172.19 62.632V61.632H171.19V62.632H172.19ZM172.19 81V82H173.19V81H172.19ZM166.03 81H165.03V82H166.03V81ZM166.03 40.12V39.12H165.03V40.12H166.03ZM172.19 40.12H173.19V39.12H172.19V40.12ZM172.19 57.032H171.19V58.032H172.19V57.032ZM176.782 57.032V58.032H177.782V57.032H176.782ZM179.302 42.36L178.566 41.6829L178.566 41.6836L179.302 42.36ZM192.966 42.36L192.23 43.0371L192.237 43.0444L192.966 42.36ZM192.966 78.76L192.23 78.0829V78.0829L192.966 78.76ZM188.43 75.064L187.639 74.4525L187.635 74.458L188.43 75.064ZM188.43 46.112L187.621 46.7002L187.637 46.7211L187.653 46.7412L188.43 46.112ZM183.278 46.112L182.487 45.5005L182.483 45.506L183.278 46.112ZM183.278 75.064L182.469 75.6522L182.485 75.6731L182.501 75.6932L183.278 75.064ZM186.078 81.56V80.56C183.525 80.56 181.545 79.7211 180.038 78.0829L179.302 78.76L178.566 79.4371C180.494 81.5322 183.031 82.56 186.078 82.56V81.56ZM179.302 78.76L180.045 78.091C178.565 76.4462 177.782 74.239 177.782 71.368H176.782H175.782C175.782 74.6197 176.679 77.3405 178.559 79.429L179.302 78.76ZM176.782 71.368H177.782V62.632H176.782H175.782V71.368H176.782ZM176.782 62.632V61.632H172.19V62.632V63.632H176.782V62.632ZM172.19 62.632H171.19V81H172.19H173.19V62.632H172.19ZM172.19 81V80H166.03V81V82H172.19V81ZM166.03 81H167.03V40.12H166.03H165.03V81H166.03ZM166.03 40.12V41.12H172.19V40.12V39.12H166.03V40.12ZM172.19 40.12H171.19V57.032H172.19H173.19V40.12H172.19ZM172.19 57.032V58.032H176.782V57.032V56.032H172.19V57.032ZM176.782 57.032H177.782V49.696H176.782H175.782V57.032H176.782ZM176.782 49.696H177.782C177.782 46.8241 178.565 44.6407 180.039 43.0364L179.302 42.36L178.566 41.6836C176.679 43.7379 175.782 46.4452 175.782 49.696H176.782ZM179.302 42.36L180.038 43.0371C181.545 41.3989 183.525 40.56 186.078 40.56V39.56V38.56C183.031 38.56 180.494 39.5878 178.566 41.6829L179.302 42.36ZM186.078 39.56V40.56C188.714 40.56 190.728 41.4047 192.23 43.0371L192.966 42.36L193.702 41.6829C191.769 39.582 189.191 38.56 186.078 38.56V39.56ZM192.966 42.36L192.237 43.0444C193.744 44.6494 194.542 46.8299 194.542 49.696H195.542H196.542C196.542 46.4394 195.623 43.7293 193.695 41.6756L192.966 42.36ZM195.542 49.696H194.542V71.368H195.542H196.542V49.696H195.542ZM195.542 71.368H194.542C194.542 74.2333 193.744 76.4375 192.23 78.0829L192.966 78.76L193.702 79.4371C195.623 77.3491 196.542 74.6254 196.542 71.368H195.542ZM192.966 78.76L192.23 78.0829C190.728 79.7153 188.714 80.56 186.078 80.56V81.56V82.56C189.191 82.56 191.769 81.538 193.702 79.4371L192.966 78.76ZM185.91 76.24V77.24C187.27 77.24 188.419 76.7291 189.226 75.67L188.43 75.064L187.635 74.458C187.247 74.9669 186.716 75.24 185.91 75.24V76.24ZM188.43 75.064L189.221 75.6754C190.033 74.6247 190.382 73.2638 190.382 71.704H189.382H188.382C188.382 72.9816 188.096 73.8607 187.639 74.4526L188.43 75.064ZM189.382 71.704H190.382V49.416H189.382H188.382V71.704H189.382ZM189.382 49.416H190.382C190.382 47.8598 190.035 46.5049 189.207 45.4828L188.43 46.112L187.653 46.7412C188.095 47.2871 188.382 48.1348 188.382 49.416H189.382ZM188.43 46.112L189.239 45.5238C188.439 44.4244 187.288 43.88 185.91 43.88V44.88V45.88C186.698 45.88 187.226 46.157 187.621 46.7002L188.43 46.112ZM185.91 44.88V43.88C184.509 43.88 183.327 44.4126 182.487 45.5006L183.278 46.112L184.069 46.7234C184.498 46.1687 185.072 45.88 185.91 45.88V44.88ZM183.278 46.112L182.483 45.506C181.706 46.5259 181.382 47.8714 181.382 49.416H182.382H183.382C183.382 48.1232 183.656 47.2661 184.074 46.718L183.278 46.112ZM182.382 49.416H181.382V71.704H182.382H183.382V49.416H182.382ZM182.382 71.704H181.382C181.382 73.2524 181.707 74.604 182.469 75.6522L183.278 75.064L184.087 74.4758C183.655 73.8813 183.382 72.993 183.382 71.704H182.382ZM183.278 75.064L182.501 75.6932C183.348 76.7396 184.526 77.24 185.91 77.24V76.24V75.24C185.054 75.24 184.478 74.9564 184.055 74.4348L183.278 75.064ZM4.4675 107.464V106.464H3.4675V107.464H4.4675ZM11.5235 107.464H12.5235V106.464H11.5235V107.464ZM13.0355 111.888L12.3157 112.582L12.3283 112.595L12.3414 112.608L13.0355 111.888ZM21.8835 111.888L22.5776 112.608L22.5842 112.602L22.5906 112.595L21.8835 111.888ZM23.4515 100.968H24.4515V99.968H23.4515V100.968ZM11.6915 100.968H10.6915V101.968H11.6915V100.968ZM11.6915 94.64V93.64H10.6915V94.64H11.6915ZM23.4515 94.64V95.64H24.4515V94.64H23.4515ZM21.8835 85.288L21.1764 85.9951L21.1828 86.0015L21.1894 86.0078L21.8835 85.288ZM13.0355 85.288L12.3284 84.5809L13.0355 85.288ZM11.5235 89.656V90.656H12.5235V89.656H11.5235ZM4.4675 89.656H3.4675V90.656H4.4675V89.656ZM6.0915 83.272L6.94745 83.7891L6.95208 83.7813L6.0915 83.272ZM10.6275 79.072L11.0747 79.9664L11.0815 79.963L11.0883 79.9595L10.6275 79.072ZM24.3475 79.072L23.8867 79.9595L23.8935 79.963L23.9003 79.9664L24.3475 79.072ZM28.8275 83.272L27.9593 83.7681L27.9653 83.7787L27.9716 83.7891L28.8275 83.272ZM28.8275 113.904L27.9669 113.395L27.9637 113.4L28.8275 113.904ZM24.3475 118.104L24.7947 118.998L24.8015 118.995L24.8083 118.991L24.3475 118.104ZM10.6275 118.104L10.1667 118.991L10.1735 118.995L10.1803 118.998L10.6275 118.104ZM6.0915 113.904L5.23089 114.413L5.23558 114.421L6.0915 113.904ZM4.4675 107.464V108.464H11.5235V107.464V106.464H4.4675V107.464ZM11.5235 107.464H10.5235C10.5235 109.544 11.0774 111.298 12.3157 112.582L13.0355 111.888L13.7553 111.194C12.9776 110.387 12.5235 109.192 12.5235 107.464H11.5235ZM13.0355 111.888L12.3414 112.608C13.6255 113.846 15.3798 114.4 17.4595 114.4V113.4V112.4C15.7312 112.4 14.5362 111.946 13.7296 111.168L13.0355 111.888ZM17.4595 113.4V114.4C19.5392 114.4 21.2935 113.846 22.5776 112.608L21.8835 111.888L21.1894 111.168C20.3828 111.946 19.1878 112.4 17.4595 112.4V113.4ZM21.8835 111.888L22.5906 112.595C23.8733 111.312 24.4515 109.553 24.4515 107.464H23.4515H22.4515C22.4515 109.183 21.9844 110.373 21.1764 111.181L21.8835 111.888ZM23.4515 107.464H24.4515V100.968H23.4515H22.4515V107.464H23.4515ZM23.4515 100.968V99.968H11.6915V100.968V101.968H23.4515V100.968ZM11.6915 100.968H12.6915V94.64H11.6915H10.6915V100.968H11.6915ZM11.6915 94.64V95.64H23.4515V94.64V93.64H11.6915V94.64ZM23.4515 94.64H24.4515V89.656H23.4515H22.4515V94.64H23.4515ZM23.4515 89.656H24.4515C24.4515 87.5688 23.874 85.8182 22.5776 84.5682L21.8835 85.288L21.1894 86.0078C21.9837 86.7738 22.4515 87.9352 22.4515 89.656H23.4515ZM21.8835 85.288L22.5906 84.5809C21.308 83.2982 19.5489 82.72 17.4595 82.72V83.72V84.72C19.1781 84.72 20.3684 85.1871 21.1764 85.9951L21.8835 85.288ZM17.4595 83.72V82.72C15.3701 82.72 13.611 83.2982 12.3284 84.5809L13.0355 85.288L13.7426 85.9951C14.5506 85.1871 15.7409 84.72 17.4595 84.72V83.72ZM13.0355 85.288L12.3284 84.5809C11.0766 85.8327 10.5235 87.5787 10.5235 89.656H11.5235H12.5235C12.5235 87.9253 12.9784 86.7593 13.7426 85.9951L13.0355 85.288ZM11.5235 89.656V88.656H4.4675V89.656V90.656H11.5235V89.656ZM4.4675 89.656H5.4675C5.4675 87.3417 5.97455 85.3994 6.94741 83.7891L6.0915 83.272L5.23558 82.7549C4.04311 84.7286 3.4675 87.0423 3.4675 89.656H4.4675ZM6.0915 83.272L6.95208 83.7813C7.93467 82.1211 9.30148 80.853 11.0747 79.9664L10.6275 79.072L10.1803 78.1776C8.07085 79.2323 6.41366 80.7643 5.23092 82.7627L6.0915 83.272ZM10.6275 79.072L11.0883 79.9595C12.8621 79.0385 14.9755 78.56 17.4595 78.56V77.56V76.56C14.7168 76.56 12.2756 77.0895 10.1667 78.1845L10.6275 79.072ZM17.4595 77.56V78.56C19.9834 78.56 22.1148 79.0395 23.8867 79.9595L24.3475 79.072L24.8083 78.1845C22.6975 77.0885 20.237 76.56 17.4595 76.56V77.56ZM24.3475 79.072L23.9003 79.9664C25.6707 80.8516 27.015 82.1156 27.9593 83.7681L28.8275 83.272L29.6957 82.7759C28.5494 80.7697 26.907 79.2337 24.7947 78.1776L24.3475 79.072ZM28.8275 83.272L27.9716 83.7891C28.9444 85.3994 29.4515 87.3417 29.4515 89.656H30.4515H31.4515C31.4515 87.0423 30.8759 84.7286 29.6834 82.7549L28.8275 83.272ZM30.4515 89.656H29.4515V107.464H30.4515H31.4515V89.656H30.4515ZM30.4515 107.464H29.4515C29.4515 109.778 28.9446 111.743 27.9669 113.395L28.8275 113.904L29.6881 114.413C30.8757 112.407 31.4515 110.078 31.4515 107.464H30.4515ZM28.8275 113.904L27.9637 113.4C27.019 115.02 25.6697 116.291 23.8867 117.217L24.3475 118.104L24.8083 118.991C26.908 117.901 28.5453 116.372 29.6913 114.408L28.8275 113.904ZM24.3475 118.104L23.9003 117.21C22.1252 118.097 19.9887 118.56 17.4595 118.56V119.56V120.56C20.2316 120.56 22.6872 120.052 24.7947 118.998L24.3475 118.104ZM17.4595 119.56V118.56C14.9701 118.56 12.8517 118.098 11.0747 117.21L10.6275 118.104L10.1803 118.998C12.286 120.051 14.7222 120.56 17.4595 120.56V119.56ZM10.6275 118.104L11.0883 117.217C9.30258 116.289 7.93059 115.014 6.94741 113.387L6.0915 113.904L5.23558 114.421C6.41774 116.378 8.06975 117.903 10.1667 118.991L10.6275 118.104ZM6.0915 113.904L6.95208 113.395C5.97436 111.743 5.4675 109.778 5.4675 107.464H4.4675H3.4675C3.4675 110.078 4.04331 112.407 5.23092 114.413L6.0915 113.904ZM59.7736 80.976L59.1383 81.7483L59.1444 81.7532L59.7736 80.976ZM61.3416 94.416L60.5661 93.7847L60.5616 93.7902L60.5572 93.7958L61.3416 94.416ZM56.3576 97.328L56.1961 96.3411L55.3576 96.4783V97.328H56.3576ZM56.3576 97.44H55.3576V98.3255L56.2366 98.4326L56.3576 97.44ZM60.4456 99.12L59.83 99.908L59.8377 99.9141L59.8456 99.92L60.4456 99.12ZM63.2456 102.648L62.3376 103.067L62.3419 103.076L63.2456 102.648ZM62.6296 113.512L63.4807 114.037V114.037L62.6296 113.512ZM58.0376 117.6L58.4642 118.504L58.4712 118.501L58.4781 118.498L58.0376 117.6ZM44.7096 94.976H43.7096V95.976H44.7096V94.976ZM54.6776 93.52L55.3452 94.2646L55.3522 94.2583L55.359 94.2519L54.6776 93.52ZM54.6776 85.456L53.9835 86.1758L53.9966 86.1884L54.0101 86.2006L54.6776 85.456ZM55.4616 111.552L56.1448 112.282L56.1456 112.282L55.4616 111.552ZM55.4616 102.424L54.7434 103.12L54.7544 103.131L54.7658 103.142L55.4616 102.424ZM44.7096 100.632V99.632H43.7096V100.632H44.7096ZM39.2776 119V118C38.9651 118 38.9144 117.923 38.9347 117.943C38.9551 117.963 38.8776 117.913 38.8776 117.6H37.8776H36.8776C36.8776 118.221 37.0335 118.87 37.5205 119.357C38.0075 119.844 38.6568 120 39.2776 120V119ZM37.8776 117.6H38.8776V79.52H37.8776H36.8776V117.6H37.8776ZM37.8776 79.52H38.8776C38.8776 79.2075 38.9551 79.1568 38.9347 79.1771C38.9144 79.1974 38.9651 79.12 39.2776 79.12V78.12V77.12C38.6568 77.12 38.0075 77.2759 37.5205 77.7629C37.0335 78.2499 36.8776 78.8992 36.8776 79.52H37.8776ZM39.2776 78.12V79.12H50.4216V78.12V77.12H39.2776V78.12ZM50.4216 78.12V79.12C54.182 79.12 57.0514 80.0316 59.1384 81.7483L59.7736 80.976L60.4089 80.2037C57.8665 78.1124 54.5012 77.12 50.4216 77.12V78.12ZM59.7736 80.976L59.1444 81.7532C61.2459 83.4545 62.3016 85.7179 62.3016 88.648H63.3016H64.3016C64.3016 85.1567 63.0053 82.3055 60.4028 80.1988L59.7736 80.976ZM63.3016 88.648H62.3016C62.3016 90.6783 61.7153 92.3728 60.5661 93.7847L61.3416 94.416L62.1172 95.0473C63.5813 93.2485 64.3016 91.0977 64.3016 88.648H63.3016ZM61.3416 94.416L60.5572 93.7958C59.4454 95.2019 58.0079 96.0446 56.1961 96.3411L56.3576 97.328L56.5191 98.3149C58.814 97.9393 60.6992 96.8408 62.126 95.0362L61.3416 94.416ZM56.3576 97.328H55.3576V97.44H56.3576H57.3576V97.328H56.3576ZM56.3576 97.44L56.2366 98.4326C57.5901 98.5977 58.7811 99.0886 59.83 99.908L60.4456 99.12L61.0613 98.332C59.7208 97.2848 58.1865 96.6556 56.4787 96.4474L56.3576 97.44ZM60.4456 99.12L59.8456 99.92C60.8979 100.709 61.7299 101.75 62.3377 103.067L63.2456 102.648L64.1536 102.229C63.4174 100.634 62.3827 99.3228 61.0456 98.32L60.4456 99.12ZM63.2456 102.648L62.3419 103.076C62.9447 104.349 63.2536 105.769 63.2536 107.352H64.2536H65.2536C65.2536 105.501 64.8905 103.785 64.1494 102.22L63.2456 102.648ZM64.2536 107.352H63.2536C63.2536 109.545 62.7507 111.411 61.7786 112.987L62.6296 113.512L63.4807 114.037C64.6738 112.103 65.2536 109.863 65.2536 107.352H64.2536ZM62.6296 113.512L61.7786 112.987C60.8018 114.57 59.4188 115.809 57.5972 116.702L58.0376 117.6L58.4781 118.498C60.6138 117.45 62.2921 115.963 63.4807 114.037L62.6296 113.512ZM58.0376 117.6L57.611 116.696C55.7927 117.553 53.6111 118 51.0376 118V119V120C53.8401 120 56.3252 119.513 58.4642 118.504L58.0376 117.6ZM51.0376 119V118H39.2776V119V120H51.0376V119ZM44.7096 94.976V95.976H50.3096V94.976V93.976H44.7096V94.976ZM50.3096 94.976V95.976C52.3194 95.976 54.0353 95.439 55.3452 94.2646L54.6776 93.52L54.0101 92.7754C53.1546 93.5424 51.9585 93.976 50.3096 93.976V94.976ZM54.6776 93.52L55.359 94.2519C56.6781 93.0238 57.3016 91.3781 57.3016 89.432H56.3016H55.3016C55.3016 90.9206 54.8425 92.0002 53.9962 92.7881L54.6776 93.52ZM56.3016 89.432H57.3016C57.3016 87.5165 56.6731 85.902 55.3452 84.7114L54.6776 85.456L54.0101 86.2006C54.8475 86.9513 55.3016 87.9875 55.3016 89.432H56.3016ZM54.6776 85.456L55.3718 84.7362C54.0912 83.5013 52.3583 82.944 50.3096 82.944V83.944V84.944C51.9943 84.944 53.1734 85.3947 53.9835 86.1758L54.6776 85.456ZM50.3096 83.944V82.944H46.0536V83.944V84.944H50.3096V83.944ZM46.0536 83.944V82.944C45.4409 82.944 44.8002 83.1057 44.3242 83.6015C43.8556 84.0896 43.7096 84.7332 43.7096 85.344H44.7096H45.7096C45.7096 85.0215 45.7876 84.9651 45.767 84.9865C45.7391 85.0156 45.7704 84.944 46.0536 84.944V83.944ZM44.7096 85.344H43.7096V94.976H44.7096H45.7096V85.344H44.7096ZM44.7096 111.776H43.7096C43.7096 112.387 43.8556 113.03 44.3242 113.519C44.8002 114.014 45.4409 114.176 46.0536 114.176V113.176V112.176C45.7704 112.176 45.7391 112.104 45.767 112.133C45.7876 112.155 45.7096 112.099 45.7096 111.776H44.7096ZM46.0536 113.176V114.176H50.6456V113.176V112.176H46.0536V113.176ZM50.6456 113.176V114.176C52.8752 114.176 54.7524 113.585 56.1448 112.282L55.4616 111.552L54.7785 110.822C53.8561 111.685 52.5228 112.176 50.6456 112.176V113.176ZM55.4616 111.552L56.1456 112.282C57.5751 110.941 58.2536 109.147 58.2536 107.016H57.2536H56.2536C56.2536 108.693 55.7375 109.923 54.7777 110.822L55.4616 111.552ZM57.2536 107.016H58.2536C58.2536 104.884 57.5752 103.079 56.1574 101.706L55.4616 102.424L54.7658 103.142C55.7374 104.083 56.2536 105.34 56.2536 107.016H57.2536ZM55.4616 102.424L56.1799 101.728C54.7918 100.295 52.902 99.632 50.6456 99.632V100.632V101.632C52.4959 101.632 53.8168 102.163 54.7434 103.12L55.4616 102.424ZM50.6456 100.632V99.632H44.7096V100.632V101.632H50.6456V100.632ZM44.7096 100.632H43.7096V111.776H44.7096H45.7096V100.632H44.7096ZM73.4717 116.2L72.7705 116.913L72.7763 116.919L73.4717 116.2ZM73.4717 80.92L72.7763 80.2014L72.7705 80.2071L73.4717 80.92ZM92.1198 80.92L91.4185 81.6329L91.4243 81.6386L92.1198 80.92ZM92.1198 116.2L91.4243 115.481L91.4185 115.487L92.1198 116.2ZM87.1357 111.888L87.8561 112.582L87.8624 112.575L87.8685 112.568L87.1357 111.888ZM87.1357 85.288L86.403 85.9684L86.4091 85.9751L86.4154 85.9816L87.1357 85.288ZM78.5117 85.288L79.2321 85.9816L79.2384 85.9751L79.2445 85.9684L78.5117 85.288ZM78.5117 111.888L77.779 112.568L77.7851 112.575L77.7914 112.582L78.5117 111.888ZM82.8238 119.56V118.56C79.1036 118.56 76.2564 117.503 74.1672 115.481L73.4717 116.2L72.7763 116.919C75.3164 119.377 78.7039 120.56 82.8238 120.56V119.56ZM73.4717 116.2L74.173 115.487C72.1304 113.478 71.0557 110.661 71.0557 106.904H70.0557H69.0557C69.0557 111.061 70.2585 114.442 72.7705 116.913L73.4717 116.2ZM70.0557 106.904H71.0557V90.216H70.0557H69.0557V106.904H70.0557ZM70.0557 90.216H71.0557C71.0557 86.4587 72.1304 83.6421 74.173 81.6329L73.4717 80.92L72.7705 80.2071C70.2585 82.6779 69.0557 86.0586 69.0557 90.216H70.0557ZM73.4717 80.92L74.1672 81.6386C76.2564 79.6167 79.1036 78.56 82.8238 78.56V77.56V76.56C78.7039 76.56 75.3164 77.7433 72.7763 80.2014L73.4717 80.92ZM82.8238 77.56V78.56C86.5446 78.56 89.3689 79.6169 91.4185 81.6329L92.1198 80.92L92.821 80.2071C90.3159 77.7431 86.9429 76.56 82.8238 76.56V77.56ZM92.1198 80.92L91.4243 81.6386C93.5033 83.6505 94.5918 86.4479 94.5918 90.16H95.5918H96.5918C96.5918 86.0321 95.3655 82.6695 92.8152 80.2014L92.1198 80.92ZM95.5918 90.16H94.5918V106.904H95.5918H96.5918V90.16H95.5918ZM95.5918 106.904H94.5918C94.5918 110.657 93.5014 113.471 91.4243 115.481L92.1198 116.2L92.8152 116.919C95.3674 114.449 96.5918 111.066 96.5918 106.904H95.5918ZM92.1198 116.2L91.4185 115.487C89.3689 117.503 86.5446 118.56 82.8238 118.56V119.56V120.56C86.9429 120.56 90.3159 119.377 92.821 116.913L92.1198 116.2ZM82.8238 113.4V114.4C84.8984 114.4 86.6367 113.848 87.8561 112.582L87.1357 111.888L86.4154 111.194C85.6935 111.944 84.5571 112.4 82.8238 112.4V113.4ZM87.1357 111.888L87.8685 112.568C89.0618 111.283 89.5918 109.534 89.5918 107.464H88.5918H87.5918C87.5918 109.202 87.151 110.402 86.403 111.208L87.1357 111.888ZM88.5918 107.464H89.5918V89.656H88.5918H87.5918V107.464H88.5918ZM88.5918 89.656H89.5918C89.5918 87.5884 89.0628 85.8475 87.8561 84.5944L87.1357 85.288L86.4154 85.9816C87.15 86.7445 87.5918 87.9156 87.5918 89.656H88.5918ZM87.1357 85.288L87.8685 84.6075C86.6513 83.2967 84.9086 82.72 82.8238 82.72V83.72V84.72C84.5469 84.72 85.6788 85.1886 86.403 85.9684L87.1357 85.288ZM82.8238 83.72V82.72C80.7389 82.72 78.9962 83.2967 77.779 84.6075L78.5117 85.288L79.2445 85.9684C79.9687 85.1886 81.1006 84.72 82.8238 84.72V83.72ZM78.5117 85.288L77.7914 84.5944C76.5847 85.8475 76.0557 87.5884 76.0557 89.656H77.0557H78.0557C78.0557 87.9156 78.4975 86.7445 79.2321 85.9816L78.5117 85.288ZM77.0557 89.656H76.0557V107.464H77.0557H78.0557V89.656H77.0557ZM77.0557 107.464H76.0557C76.0557 109.534 76.5857 111.283 77.779 112.568L78.5117 111.888L79.2445 111.208C78.4965 110.402 78.0557 109.202 78.0557 107.464H77.0557ZM78.5117 111.888L77.7914 112.582C79.0108 113.848 80.7491 114.4 82.8238 114.4V113.4V112.4C81.0904 112.4 79.954 111.944 79.2321 111.194L78.5117 111.888ZM99.4339 119.28H98.4339V120.28H99.4339V119.28ZM99.4339 112.896V111.896H98.4339V112.896H99.4339ZM104.81 105.56L103.81 105.544L103.81 105.545L104.81 105.56ZM105.258 78.12V77.12H104.274L104.258 78.1037L105.258 78.12ZM127.714 78.12H128.714V77.12H127.714V78.12ZM127.714 119V120H128.714V119H127.714ZM120.714 119H119.714V120H120.714V119ZM120.714 84.448H121.714V83.448H120.714V84.448ZM112.146 84.448V83.448H111.164L111.146 84.4294L112.146 84.448ZM111.754 105.56L110.754 105.541L110.754 105.543L111.754 105.56ZM108.898 115.752L108.108 115.138L108.102 115.146L108.898 115.752ZM99.4339 119.28H100.434V112.896H99.4339H98.4339V119.28H99.4339ZM99.4339 112.896V113.896H100.834V112.896V111.896H99.4339V112.896ZM100.834 112.896V113.896C101.643 113.896 102.397 113.702 103.062 113.285C103.724 112.87 104.243 112.27 104.639 111.538C105.417 110.104 105.772 108.077 105.81 105.575L104.81 105.56L103.81 105.545C103.774 107.934 103.429 109.575 102.881 110.586C102.614 111.077 102.314 111.393 102 111.59C101.69 111.785 101.313 111.896 100.834 111.896V112.896ZM104.81 105.56L105.81 105.576L106.258 78.1363L105.258 78.12L104.258 78.1037L103.81 105.544L104.81 105.56ZM105.258 78.12V79.12H127.714V78.12V77.12H105.258V78.12ZM127.714 78.12H126.714V119H127.714H128.714V78.12H127.714ZM127.714 119V118H120.714V119V120H127.714V119ZM120.714 119H121.714V84.448H120.714H119.714V119H120.714ZM120.714 84.448V83.448H112.146V84.448V85.448H120.714V84.448ZM112.146 84.448L111.146 84.4294L110.754 105.541L111.754 105.56L112.754 105.579L113.146 84.4666L112.146 84.448ZM111.754 105.56L110.754 105.543C110.681 109.871 109.754 113.023 108.109 115.138L108.898 115.752L109.687 116.366C111.701 113.777 112.677 110.135 112.754 105.577L111.754 105.56ZM108.898 115.752L108.102 115.146C106.522 117.22 104.295 118.28 101.282 118.28V119.28V120.28C104.84 120.28 107.689 118.988 109.693 116.358L108.898 115.752ZM101.282 119.28V118.28H99.4339V119.28V120.28H101.282V119.28ZM146.844 116.76L146.101 117.429L146.108 117.437L146.844 116.76ZM144.324 100.632H145.324V99.632H144.324V100.632ZM139.732 100.632V99.632H138.732V100.632H139.732ZM139.732 119V120H140.732V119H139.732ZM133.572 119H132.572V120H133.572V119ZM133.572 78.12V77.12H132.572V78.12H133.572ZM139.732 78.12H140.732V77.12H139.732V78.12ZM139.732 95.032H138.732V96.032H139.732V95.032ZM144.324 95.032V96.032H145.324V95.032H144.324ZM146.844 80.36L146.108 79.6829L146.107 79.6836L146.844 80.36ZM160.508 80.36L159.772 81.0371L159.779 81.0444L160.508 80.36ZM160.508 116.76L159.772 116.083V116.083L160.508 116.76ZM155.972 113.064L155.181 112.453L155.177 112.458L155.972 113.064ZM155.972 84.112L155.163 84.7002L155.178 84.7211L155.195 84.7412L155.972 84.112ZM150.82 84.112L150.029 83.5005L150.025 83.506L150.82 84.112ZM150.82 113.064L150.011 113.652L150.026 113.673L150.043 113.693L150.82 113.064ZM153.62 119.56V118.56C151.067 118.56 149.087 117.721 147.58 116.083L146.844 116.76L146.108 117.437C148.036 119.532 150.573 120.56 153.62 120.56V119.56ZM146.844 116.76L147.587 116.091C146.107 114.446 145.324 112.239 145.324 109.368H144.324H143.324C143.324 112.62 144.221 115.34 146.101 117.429L146.844 116.76ZM144.324 109.368H145.324V100.632H144.324H143.324V109.368H144.324ZM144.324 100.632V99.632H139.732V100.632V101.632H144.324V100.632ZM139.732 100.632H138.732V119H139.732H140.732V100.632H139.732ZM139.732 119V118H133.572V119V120H139.732V119ZM133.572 119H134.572V78.12H133.572H132.572V119H133.572ZM133.572 78.12V79.12H139.732V78.12V77.12H133.572V78.12ZM139.732 78.12H138.732V95.032H139.732H140.732V78.12H139.732ZM139.732 95.032V96.032H144.324V95.032V94.032H139.732V95.032ZM144.324 95.032H145.324V87.696H144.324H143.324V95.032H144.324ZM144.324 87.696H145.324C145.324 84.8241 146.107 82.6407 147.581 81.0364L146.844 80.36L146.107 79.6836C144.221 81.7379 143.324 84.4452 143.324 87.696H144.324ZM146.844 80.36L147.58 81.037C149.087 79.3988 151.067 78.56 153.62 78.56V77.56V76.56C150.573 76.56 148.036 77.5878 146.108 79.6829L146.844 80.36ZM153.62 77.56V78.56C156.256 78.56 158.27 79.4047 159.772 81.037L160.508 80.36L161.244 79.6829C159.311 77.582 156.733 76.56 153.62 76.56V77.56ZM160.508 80.36L159.779 81.0444C161.286 82.6494 162.084 84.8299 162.084 87.696H163.084H164.084C164.084 84.4394 163.165 81.7293 161.237 79.6756L160.508 80.36ZM163.084 87.696H162.084V109.368H163.084H164.084V87.696H163.084ZM163.084 109.368H162.084C162.084 112.233 161.286 114.438 159.772 116.083L160.508 116.76L161.244 117.437C163.165 115.349 164.084 112.625 164.084 109.368H163.084ZM160.508 116.76L159.772 116.083C158.27 117.715 156.256 118.56 153.62 118.56V119.56V120.56C156.733 120.56 159.311 119.538 161.244 117.437L160.508 116.76ZM153.452 114.24V115.24C154.811 115.24 155.961 114.729 156.767 113.67L155.972 113.064L155.177 112.458C154.789 112.967 154.258 113.24 153.452 113.24V114.24ZM155.972 113.064L156.763 113.675C157.575 112.625 157.924 111.264 157.924 109.704H156.924H155.924C155.924 110.982 155.638 111.861 155.181 112.453L155.972 113.064ZM156.924 109.704H157.924V87.416H156.924H155.924V109.704H156.924ZM156.924 87.416H157.924C157.924 85.8598 157.577 84.5049 156.749 83.4828L155.972 84.112L155.195 84.7412C155.637 85.2871 155.924 86.1348 155.924 87.416H156.924ZM155.972 84.112L156.781 83.5238C155.981 82.4244 154.83 81.88 153.452 81.88V82.88V83.88C154.239 83.88 154.768 84.157 155.163 84.7002L155.972 84.112ZM153.452 82.88V81.88C152.051 81.88 150.869 82.4126 150.029 83.5005L150.82 84.112L151.611 84.7234C152.04 84.1687 152.613 83.88 153.452 83.88V82.88ZM150.82 84.112L150.025 83.506C149.247 84.5259 148.924 85.8714 148.924 87.416H149.924H150.924C150.924 86.1232 151.198 85.2661 151.615 84.718L150.82 84.112ZM149.924 87.416H148.924V109.704H149.924H150.924V87.416H149.924ZM149.924 109.704H148.924C148.924 111.252 149.249 112.604 150.011 113.652L150.82 113.064L151.629 112.476C151.196 111.881 150.924 110.993 150.924 109.704H149.924ZM150.82 113.064L150.043 113.693C150.89 114.74 152.068 115.24 153.452 115.24V114.24V113.24C152.596 113.24 152.019 112.956 151.597 112.435L150.82 113.064ZM189.046 126.84H188.046V127.84H189.046V126.84ZM189.046 119H190.046V118H189.046V119ZM167.766 119H166.766V120H167.766V119ZM167.766 78.12V77.12H166.766V78.12H167.766ZM174.766 78.12H175.766V77.12H174.766V78.12ZM174.766 112.728H173.766V113.728H174.766V112.728ZM184.286 112.728V113.728H185.286V112.728H184.286ZM184.286 78.12V77.12H183.286V78.12H184.286ZM191.286 78.12H192.286V77.12H191.286V78.12ZM191.286 112.728H190.286V113.728H191.286V112.728ZM195.486 112.728H196.486V111.728H195.486V112.728ZM195.486 126.84V127.84H196.486V126.84H195.486ZM189.046 126.84H190.046V119H189.046H188.046V126.84H189.046ZM189.046 119V118H167.766V119V120H189.046V119ZM167.766 119H168.766V78.12H167.766H166.766V119H167.766ZM167.766 78.12V79.12H174.766V78.12V77.12H167.766V78.12ZM174.766 78.12H173.766V112.728H174.766H175.766V78.12H174.766ZM174.766 112.728V113.728H184.286V112.728V111.728H174.766V112.728ZM184.286 112.728H185.286V78.12H184.286H183.286V112.728H184.286ZM184.286 78.12V79.12H191.286V78.12V77.12H184.286V78.12ZM191.286 78.12H190.286V112.728H191.286H192.286V78.12H191.286ZM191.286 112.728V113.728H195.486V112.728V111.728H191.286V112.728ZM195.486 112.728H194.486V126.84H195.486H196.486V112.728H195.486ZM195.486 126.84V125.84H189.046V126.84V127.84H195.486V126.84ZM199.888 119H198.888V120H199.888V119ZM199.888 78.12V77.12H198.888V78.12H199.888ZM206.272 78.12H207.272V77.12H206.272V78.12ZM206.16 102.536L207.159 102.582V102.582L206.16 102.536ZM205.88 107.24L204.883 107.167V107.167L205.88 107.24ZM205.6 111.16L204.603 111.091L206.547 111.482L205.6 111.16ZM216.856 78.12V77.12H216.14L215.91 77.7975L216.856 78.12ZM225.424 78.12H226.424V77.12H225.424V78.12ZM225.424 119V120H226.424V119H225.424ZM219.04 119H218.04V120H219.04V119ZM219.152 95.144L218.154 95.0775L218.154 95.0885L218.153 95.0996L219.152 95.144ZM219.488 90.216L220.486 90.2856L220.486 90.284L219.488 90.216ZM219.824 85.96L220.82 86.0533L218.879 85.6347L219.824 85.96ZM208.456 119V120H209.17L209.402 119.325L208.456 119ZM199.888 119H200.888V78.12H199.888H198.888V119H199.888ZM199.888 78.12V79.12H206.272V78.12V77.12H199.888V78.12ZM206.272 78.12H205.272V98.112H206.272H207.272V78.12H206.272ZM206.272 98.112H205.272C205.272 99.4379 205.235 100.897 205.161 102.49L206.16 102.536L207.159 102.582C207.234 100.965 207.272 99.4741 207.272 98.112H206.272ZM206.16 102.536L205.161 102.49C205.087 104.086 204.994 105.646 204.883 107.167L205.88 107.24L206.878 107.313C206.99 105.773 207.084 104.196 207.159 102.582L206.16 102.536ZM205.88 107.24L204.883 107.167C204.771 108.699 204.677 110.007 204.603 111.091L205.6 111.16L206.598 111.229C206.672 110.148 206.766 108.843 206.878 107.313L205.88 107.24ZM205.6 111.16L206.547 111.482L217.803 78.4425L216.856 78.12L215.91 77.7975L204.654 110.838L205.6 111.16ZM216.856 78.12V79.12H225.424V78.12V77.12H216.856V78.12ZM225.424 78.12H224.424V119H225.424H226.424V78.12H225.424ZM225.424 119V118H219.04V119V120H225.424V119ZM219.04 119H220.04V99.624H219.04H218.04V119H219.04ZM219.04 99.624H220.04C220.04 98.3356 220.077 96.8576 220.151 95.1884L219.152 95.144L218.153 95.0996C218.078 96.7904 218.04 98.299 218.04 99.624H219.04ZM219.152 95.144L220.15 95.2105C220.262 93.5315 220.374 91.8899 220.486 90.2856L219.488 90.216L218.491 90.1464C218.379 91.7528 218.267 93.3965 218.154 95.0775L219.152 95.144ZM219.488 90.216L220.486 90.284C220.598 88.6469 220.709 87.2371 220.82 86.0533L219.824 85.96L218.829 85.8667C218.716 87.0722 218.603 88.4997 218.491 90.148L219.488 90.216ZM219.824 85.96L218.879 85.6347L207.511 118.675L208.456 119L209.402 119.325L220.77 86.2853L219.824 85.96ZM208.456 119V118H199.888V119V120H208.456V119ZM244.218 116.76L243.475 117.429L243.482 117.437L244.218 116.76ZM241.698 100.632H242.698V99.632H241.698V100.632ZM237.106 100.632V99.632H236.106V100.632H237.106ZM237.106 119V120H238.106V119H237.106ZM230.946 119H229.946V120H230.946V119ZM230.946 78.12V77.12H229.946V78.12H230.946ZM237.106 78.12H238.106V77.12H237.106V78.12ZM237.106 95.032H236.106V96.032H237.106V95.032ZM241.698 95.032V96.032H242.698V95.032H241.698ZM244.218 80.36L243.482 79.6829L243.482 79.6836L244.218 80.36ZM257.882 80.36L257.146 81.0371L257.153 81.0444L257.882 80.36ZM257.882 116.76L257.146 116.083V116.083L257.882 116.76ZM253.346 113.064L252.555 112.453L252.551 112.458L253.346 113.064ZM253.346 84.112L252.538 84.7002L252.553 84.7211L252.569 84.7412L253.346 84.112ZM248.194 84.112L247.403 83.5005L247.399 83.506L248.194 84.112ZM248.194 113.064L247.386 113.652L247.401 113.673L247.417 113.693L248.194 113.064ZM250.994 119.56V118.56C248.442 118.56 246.461 117.721 244.954 116.083L244.218 116.76L243.482 117.437C245.41 119.532 247.947 120.56 250.994 120.56V119.56ZM244.218 116.76L244.962 116.091C243.481 114.446 242.698 112.239 242.698 109.368H241.698H240.698C240.698 112.62 241.595 115.34 243.475 117.429L244.218 116.76ZM241.698 109.368H242.698V100.632H241.698H240.698V109.368H241.698ZM241.698 100.632V99.632H237.106V100.632V101.632H241.698V100.632ZM237.106 100.632H236.106V119H237.106H238.106V100.632H237.106ZM237.106 119V118H230.946V119V120H237.106V119ZM230.946 119H231.946V78.12H230.946H229.946V119H230.946ZM230.946 78.12V79.12H237.106V78.12V77.12H230.946V78.12ZM237.106 78.12H236.106V95.032H237.106H238.106V78.12H237.106ZM237.106 95.032V96.032H241.698V95.032V94.032H237.106V95.032ZM241.698 95.032H242.698V87.696H241.698H240.698V95.032H241.698ZM241.698 87.696H242.698C242.698 84.8241 243.482 82.6407 244.955 81.0364L244.218 80.36L243.482 79.6836C241.595 81.7379 240.698 84.4452 240.698 87.696H241.698ZM244.218 80.36L244.954 81.037C246.461 79.3988 248.442 78.56 250.994 78.56V77.56V76.56C247.947 76.56 245.41 77.5878 243.482 79.6829L244.218 80.36ZM250.994 77.56V78.56C253.631 78.56 255.645 79.4047 257.146 81.037L257.882 80.36L258.618 79.6829C256.685 77.582 254.108 76.56 250.994 76.56V77.56ZM257.882 80.36L257.153 81.0444C258.66 82.6494 259.458 84.8299 259.458 87.696H260.458H261.458C261.458 84.4394 260.539 81.7293 258.611 79.6756L257.882 80.36ZM260.458 87.696H259.458V109.368H260.458H261.458V87.696H260.458ZM260.458 109.368H259.458C259.458 112.233 258.66 114.438 257.146 116.083L257.882 116.76L258.618 117.437C260.539 115.349 261.458 112.625 261.458 109.368H260.458ZM257.882 116.76L257.146 116.083C255.645 117.715 253.631 118.56 250.994 118.56V119.56V120.56C254.108 120.56 256.685 119.538 258.618 117.437L257.882 116.76ZM250.826 114.24V115.24C252.186 115.24 253.335 114.729 254.142 113.67L253.346 113.064L252.551 112.458C252.163 112.967 251.632 113.24 250.826 113.24V114.24ZM253.346 113.064L254.138 113.675C254.95 112.625 255.298 111.264 255.298 109.704H254.298H253.298C253.298 110.982 253.012 111.861 252.555 112.453L253.346 113.064ZM254.298 109.704H255.298V87.416H254.298H253.298V109.704H254.298ZM254.298 87.416H255.298C255.298 85.8598 254.951 84.5049 254.124 83.4828L253.346 84.112L252.569 84.7412C253.011 85.2871 253.298 86.1348 253.298 87.416H254.298ZM253.346 84.112L254.155 83.5238C253.355 82.4244 252.204 81.88 250.826 81.88V82.88V83.88C251.614 83.88 252.143 84.157 252.538 84.7002L253.346 84.112ZM250.826 82.88V81.88C249.425 81.88 248.244 82.4126 247.403 83.5005L248.194 84.112L248.986 84.7234C249.414 84.1687 249.988 83.88 250.826 83.88V82.88ZM248.194 84.112L247.399 83.506C246.622 84.5259 246.298 85.8714 246.298 87.416H247.298H248.298C248.298 86.1232 248.572 85.2661 248.99 84.718L248.194 84.112ZM247.298 87.416H246.298V109.704H247.298H248.298V87.416H247.298ZM247.298 109.704H246.298C246.298 111.252 246.623 112.604 247.386 113.652L248.194 113.064L249.003 112.476C248.571 111.881 248.298 110.993 248.298 109.704H247.298ZM248.194 113.064L247.417 113.693C248.264 114.74 249.442 115.24 250.826 115.24V114.24V113.24C249.97 113.24 249.394 112.956 248.972 112.435L248.194 113.064Z" fill="black" mask="url(#path-1-outside-1_63_9345)"/>
</svg>
