<svg width="390" height="337" viewBox="0 0 390 337" fill="none" xmlns="http://www.w3.org/2000/svg">
<mask id="path-1-outside-1_63_9372" maskUnits="userSpaceOnUse" x="-1" y="-0.400024" width="398" height="338" fill="black">
<rect fill="white" x="-1" y="-0.400024" width="398" height="338"/>
<path d="M32.3972 88.6C30.1572 88.6 29.3172 87.52 29.8772 85.36L50.3972 3.51997C50.7972 1.83997 51.8772 0.999973 53.6372 0.999973H67.6772C69.4372 0.999973 70.5172 1.83997 70.9172 3.51997L91.5572 85.36C92.1172 87.52 91.2772 88.6 89.0372 88.6H79.7972C78.0372 88.6 76.9972 87.72 76.6772 85.96L72.3572 67.36H49.0772L44.8772 85.96C44.4772 87.72 43.3972 88.6 41.6372 88.6H32.3972ZM51.8372 55.12H69.5972L64.3172 31.6C63.9172 29.92 63.5572 28.36 63.2372 26.92C62.9972 25.48 62.7572 24.12 62.5172 22.84C62.1972 21.4 61.6372 20.52 60.8372 20.2C60.0372 19.8 59.5172 20.2 59.2772 21.4C59.0372 22.92 58.7172 24.52 58.3172 26.2C57.9972 27.88 57.5972 29.64 57.1172 31.48L51.8372 55.12ZM103.99 88.6C101.99 88.6 100.99 87.6 100.99 85.6V3.99997C100.99 1.99997 101.99 0.999973 103.99 0.999973H113.11C115.03 0.999973 115.99 1.99997 115.99 3.99997V36.76H126.31L142.03 3.15997C142.67 1.71997 143.79 0.999973 145.39 0.999973H155.35C156.47 0.999973 157.23 1.35997 157.63 2.07997C158.11 2.71997 158.11 3.51997 157.63 4.47997L139.51 42.76L158.59 85.12C159.07 86.08 159.07 86.92 158.59 87.64C158.19 88.28 157.43 88.6 156.31 88.6H145.99C144.31 88.6 143.15 87.84 142.51 86.32L126.19 49.84H115.99V85.6C115.99 87.6 115.03 88.6 113.11 88.6H103.99ZM190.463 88.6C188.463 88.6 187.463 87.6 187.463 85.6V14.56H167.543C165.543 14.56 164.543 13.56 164.543 11.56V3.99997C164.543 1.99997 165.543 0.999973 167.543 0.999973H222.503C224.503 0.999973 225.503 1.99997 225.503 3.99997V11.56C225.503 13.56 224.503 14.56 222.503 14.56H202.583V85.6C202.583 87.6 201.583 88.6 199.583 88.6H190.463ZM234.817 88.6V0.999973H248.497V43.84C248.497 46.72 248.417 49.88 248.257 53.32C248.097 56.76 247.897 60.12 247.657 63.4C247.417 66.68 247.217 69.48 247.057 71.8L271.177 0.999973H289.537V88.6H275.857V47.08C275.857 44.28 275.937 41.08 276.097 37.48C276.337 33.88 276.577 30.36 276.817 26.92C277.057 23.4 277.297 20.36 277.537 17.8L253.177 88.6H234.817ZM310.13 55.96V42.04H348.53V55.96H310.13ZM36.9572 170.6C34.9572 170.6 33.9572 169.6 33.9572 167.6V86C33.9572 84 34.9572 83 36.9572 83H60.8372C69.2372 83 75.9172 85.04 80.8772 89.12C85.9172 93.2 88.4372 98.68 88.4372 105.56C88.4372 110.36 87.0372 114.48 84.2372 117.92C81.5172 121.36 77.9572 123.44 73.5572 124.16V124.4C76.8372 124.8 79.7572 126 82.3172 128C84.8772 129.92 86.8772 132.44 88.3172 135.56C89.7572 138.6 90.4772 141.96 90.4772 145.64C90.4772 150.68 89.3172 155.08 86.9972 158.84C84.6772 162.6 81.3972 165.52 77.1572 167.6C72.9172 169.6 67.9172 170.6 62.1572 170.6H36.9572ZM48.5972 119.12H60.5972C64.5172 119.12 67.6372 118.08 69.9572 116C72.2772 113.84 73.4372 110.92 73.4372 107.24C73.4372 103.64 72.2772 100.8 69.9572 98.72C67.7172 96.56 64.5972 95.48 60.5972 95.48H51.4772C49.5572 95.48 48.5972 96.48 48.5972 98.48V119.12ZM48.5972 155.12C48.5972 157.12 49.5572 158.12 51.4772 158.12H61.3172C65.7172 158.12 69.1572 156.96 71.6372 154.64C74.1972 152.24 75.4772 149 75.4772 144.92C75.4772 140.84 74.1972 137.56 71.6372 135.08C69.1572 132.52 65.7172 131.24 61.3172 131.24H48.5972V155.12ZM100.51 170.6V83H114.19V125.84C114.19 128.72 114.11 131.88 113.95 135.32C113.79 138.76 113.59 142.12 113.35 145.4C113.11 148.68 112.91 151.48 112.75 153.8L136.87 83H155.23V170.6H141.55V129.08C141.55 126.28 141.63 123.08 141.79 119.48C142.03 115.88 142.27 112.36 142.51 108.92C142.75 105.4 142.99 102.36 143.23 99.8L118.87 170.6H100.51ZM171.143 170.6C169.223 170.6 168.263 169.6 168.263 167.6V86C168.263 84 169.223 83 171.143 83H197.423C203.263 83 208.343 84.12 212.663 86.36C217.063 88.6 220.463 91.76 222.863 95.84C225.263 99.84 226.463 104.56 226.463 110C226.463 115.44 225.263 120.2 222.863 124.28C220.463 128.28 217.063 131.4 212.663 133.64C208.343 135.88 203.263 137 197.423 137H183.263V167.6C183.263 169.6 182.263 170.6 180.263 170.6H171.143ZM183.263 123.8H197.423C201.663 123.8 205.023 122.52 207.503 119.96C209.983 117.4 211.223 114.08 211.223 110C211.223 105.92 209.983 102.6 207.503 100.04C205.023 97.48 201.663 96.2 197.423 96.2H186.263C184.263 96.2 183.263 97.16 183.263 99.08V123.8ZM246.937 170.6L255.937 148.16L230.377 83H246.697L259.897 121.64C260.697 123.88 261.377 126.24 261.937 128.72C262.577 131.12 262.977 133.08 263.137 134.6C263.297 133.08 263.617 131.12 264.097 128.72C264.657 126.24 265.257 123.88 265.897 121.64L278.017 83H293.977L262.777 170.6H246.937ZM301.97 170.6V83H315.65V125.84C315.65 128.72 315.57 131.88 315.41 135.32C315.25 138.76 315.05 142.12 314.81 145.4C314.57 148.68 314.37 151.48 314.21 153.8L338.33 83H356.69V170.6H343.01V129.08C343.01 126.28 343.09 123.08 343.25 119.48C343.49 115.88 343.73 112.36 343.97 108.92C344.21 105.4 344.45 102.36 344.69 99.8L320.33 170.6H301.97ZM329.33 74.36C323.73 74.36 319.05 73.04 315.29 70.4C311.61 67.68 309.41 64.12 308.69 59.72C308.53 58.68 308.73 57.92 309.29 57.44C309.85 56.88 310.61 56.6 311.57 56.6H317.33C318.21 56.6 318.85 56.84 319.25 57.32C319.73 57.8 320.13 58.48 320.45 59.36C321.01 61.2 322.05 62.68 323.57 63.8C325.17 64.84 327.09 65.36 329.33 65.36C331.57 65.36 333.49 64.84 335.09 63.8C336.69 62.68 337.73 61.2 338.21 59.36C338.53 58.48 338.89 57.8 339.29 57.32C339.77 56.84 340.45 56.6 341.33 56.6H347.21C348.17 56.6 348.93 56.84 349.49 57.32C350.05 57.8 350.25 58.44 350.09 59.24C349.45 63.8 347.25 67.48 343.49 70.28C339.81 73 335.09 74.36 329.33 74.36ZM39.3572 252.6C37.3572 252.6 36.3572 251.6 36.3572 249.6V168C36.3572 166 37.3572 165 39.3572 165H48.4772C50.3972 165 51.3572 166 51.3572 168V200.52H74.8772V168C74.8772 166 75.8372 165 77.7572 165H86.8772C88.8772 165 89.8772 166 89.8772 168V249.6C89.8772 251.6 88.8772 252.6 86.8772 252.6H77.7572C75.8372 252.6 74.8772 251.6 74.8772 249.6V214.08H51.3572V249.6C51.3572 251.6 50.3972 252.6 48.4772 252.6H39.3572ZM130.27 253.8C121.87 253.8 115.19 251.4 110.23 246.6C105.35 241.8 102.91 235.16 102.91 226.68V190.92C102.91 182.44 105.35 175.8 110.23 171C115.19 166.2 121.87 163.8 130.27 163.8C138.67 163.8 145.31 166.2 150.19 171C155.15 175.8 157.63 182.4 157.63 190.8V226.68C157.63 235.16 155.15 241.8 150.19 246.6C145.31 251.4 138.67 253.8 130.27 253.8ZM130.27 240.6C134.35 240.6 137.43 239.52 139.51 237.36C141.59 235.12 142.63 231.96 142.63 227.88V189.72C142.63 185.64 141.59 182.52 139.51 180.36C137.43 178.12 134.35 177 130.27 177C126.19 177 123.11 178.12 121.03 180.36C118.95 182.52 117.91 185.64 117.91 189.72V227.88C117.91 231.96 118.95 235.12 121.03 237.36C123.11 239.52 126.19 240.6 130.27 240.6ZM173.663 252.6C171.663 252.6 170.663 251.6 170.663 249.6V168C170.663 166 171.663 165 173.663 165H197.543C205.943 165 212.623 167.04 217.583 171.12C222.623 175.2 225.143 180.68 225.143 187.56C225.143 192.36 223.743 196.48 220.943 199.92C218.223 203.36 214.663 205.44 210.263 206.16V206.4C213.543 206.8 216.463 208 219.023 210C221.583 211.92 223.583 214.44 225.023 217.56C226.463 220.6 227.183 223.96 227.183 227.64C227.183 232.68 226.023 237.08 223.703 240.84C221.383 244.6 218.103 247.52 213.863 249.6C209.623 251.6 204.623 252.6 198.863 252.6H173.663ZM185.303 201.12H197.303C201.223 201.12 204.343 200.08 206.663 198C208.983 195.84 210.143 192.92 210.143 189.24C210.143 185.64 208.983 182.8 206.663 180.72C204.423 178.56 201.303 177.48 197.303 177.48H188.183C186.263 177.48 185.303 178.48 185.303 180.48V201.12ZM185.303 237.12C185.303 239.12 186.263 240.12 188.183 240.12H198.023C202.423 240.12 205.863 238.96 208.343 236.64C210.903 234.24 212.183 231 212.183 226.92C212.183 222.84 210.903 219.56 208.343 217.08C205.863 214.52 202.423 213.24 198.023 213.24H185.303V237.12ZM249.337 252.6L258.337 230.16L232.777 165H249.097L262.297 203.64C263.097 205.88 263.777 208.24 264.337 210.72C264.977 213.12 265.377 215.08 265.537 216.6C265.697 215.08 266.017 213.12 266.497 210.72C267.057 208.24 267.657 205.88 268.297 203.64L280.417 165H296.377L265.177 252.6H249.337ZM344.33 253.8C338.33 253.8 333.49 251.8 329.81 247.8C326.21 243.8 324.41 238.52 324.41 231.96V213.24H314.57V252.6H301.37V165H314.57V201.24H324.41V185.52C324.41 178.96 326.21 173.72 329.81 169.8C333.49 165.8 338.33 163.8 344.33 163.8C350.49 163.8 355.41 165.8 359.09 169.8C362.77 173.72 364.61 178.96 364.61 185.52V231.96C364.61 238.52 362.77 243.8 359.09 247.8C355.41 251.8 350.49 253.8 344.33 253.8ZM343.97 242.4C346.29 242.4 348.09 241.56 349.37 239.88C350.73 238.12 351.41 235.72 351.41 232.68V184.92C351.41 181.88 350.73 179.52 349.37 177.84C348.09 176.08 346.29 175.2 343.97 175.2C341.57 175.2 339.69 176.08 338.33 177.84C337.05 179.52 336.41 181.88 336.41 184.92V232.68C336.41 235.72 337.05 238.12 338.33 239.88C339.69 241.56 341.57 242.4 343.97 242.4ZM3.38063 334.6C1.38063 334.6 0.380626 333.6 0.380626 331.6V250C0.380626 248 1.38063 247 3.38063 247H27.2606C35.6606 247 42.3406 249.04 47.3006 253.12C52.3406 257.2 54.8606 262.68 54.8606 269.56C54.8606 274.36 53.4606 278.48 50.6606 281.92C47.9406 285.36 44.3806 287.44 39.9806 288.16V288.4C43.2606 288.8 46.1806 290 48.7406 292C51.3006 293.92 53.3006 296.44 54.7406 299.56C56.1806 302.6 56.9006 305.96 56.9006 309.64C56.9006 314.68 55.7406 319.08 53.4206 322.84C51.1006 326.6 47.8206 329.52 43.5806 331.6C39.3406 333.6 34.3406 334.6 28.5806 334.6H3.38063ZM15.0206 283.12H27.0206C30.9406 283.12 34.0606 282.08 36.3806 280C38.7006 277.84 39.8606 274.92 39.8606 271.24C39.8606 267.64 38.7006 264.8 36.3806 262.72C34.1406 260.56 31.0206 259.48 27.0206 259.48H17.9006C15.9806 259.48 15.0206 260.48 15.0206 262.48V283.12ZM15.0206 319.12C15.0206 321.12 15.9806 322.12 17.9006 322.12H27.7406C32.1406 322.12 35.5806 320.96 38.0606 318.64C40.6206 316.24 41.9006 313 41.9006 308.92C41.9006 304.84 40.6206 301.56 38.0606 299.08C35.5806 296.52 32.1406 295.24 27.7406 295.24H15.0206V319.12ZM71.8537 334.6C69.8537 334.6 68.8537 333.6 68.8537 331.6V250C68.8537 248 69.8537 247 71.8537 247H118.414C120.414 247 121.414 248 121.414 250V257.2C121.414 259.2 120.414 260.2 118.414 260.2H86.6137C84.6137 260.2 83.6137 261.2 83.6137 263.2V283H114.214C116.214 283 117.214 283.96 117.214 285.88V292.72C117.214 294.72 116.214 295.72 114.214 295.72H83.6137V318.4C83.6137 320.4 84.6137 321.4 86.6137 321.4H118.414C120.414 321.4 121.414 322.4 121.414 324.4V331.6C121.414 333.6 120.414 334.6 118.414 334.6H71.8537ZM137.567 334.6C135.647 334.6 134.687 333.6 134.687 331.6V250C134.687 248 135.647 247 137.567 247H163.847C169.687 247 174.767 248.12 179.087 250.36C183.487 252.6 186.887 255.76 189.287 259.84C191.687 263.84 192.887 268.56 192.887 274C192.887 279.44 191.687 284.2 189.287 288.28C186.887 292.28 183.487 295.4 179.087 297.64C174.767 299.88 169.687 301 163.847 301H149.687V331.6C149.687 333.6 148.687 334.6 146.687 334.6H137.567ZM149.687 287.8H163.847C168.087 287.8 171.447 286.52 173.927 283.96C176.407 281.4 177.647 278.08 177.647 274C177.647 269.92 176.407 266.6 173.927 264.04C171.447 261.48 168.087 260.2 163.847 260.2H152.687C150.687 260.2 149.687 261.16 149.687 263.08V287.8ZM229.56 335.8C223.88 335.8 218.96 334.76 214.8 332.68C210.64 330.52 207.4 327.52 205.08 323.68C202.84 319.76 201.72 315.16 201.72 309.88V271.72C201.72 266.44 202.84 261.88 205.08 258.04C207.4 254.12 210.64 251.12 214.8 249.04C218.96 246.88 223.88 245.8 229.56 245.8C237.4 245.8 243.8 247.88 248.76 252.04C253.72 256.12 256.52 261.64 257.16 268.6C257.32 270.68 256.36 271.72 254.28 271.72H245.28C243.44 271.72 242.36 270.76 242.04 268.84C241.08 262.28 236.92 259 229.56 259C225.48 259 222.32 260.12 220.08 262.36C217.84 264.52 216.72 267.64 216.72 271.72V309.88C216.72 313.96 217.84 317.12 220.08 319.36C222.32 321.52 225.48 322.6 229.56 322.6C236.92 322.6 241.08 319.32 242.04 312.76C242.36 310.84 243.44 309.88 245.28 309.88H254.28C256.36 309.88 257.36 310.84 257.28 312.76C256.64 319.8 253.84 325.4 248.88 329.56C243.92 333.72 237.48 335.8 229.56 335.8ZM268.393 334.6V247H282.073V289.84C282.073 292.72 281.993 295.88 281.833 299.32C281.673 302.76 281.473 306.12 281.233 309.4C280.993 312.68 280.793 315.48 280.633 317.8L304.753 247H323.113V334.6H309.433V293.08C309.433 290.28 309.513 287.08 309.673 283.48C309.913 279.88 310.153 276.36 310.393 272.92C310.633 269.4 310.873 266.36 311.113 263.8L286.753 334.6H268.393ZM375.506 335.8C369.506 335.8 364.666 333.8 360.986 329.8C357.386 325.8 355.586 320.52 355.586 313.96V295.24H345.746V334.6H332.546V247H345.746V283.24H355.586V267.52C355.586 260.96 357.386 255.72 360.986 251.8C364.666 247.8 369.506 245.8 375.506 245.8C381.666 245.8 386.586 247.8 390.266 251.8C393.946 255.72 395.786 260.96 395.786 267.52V313.96C395.786 320.52 393.946 325.8 390.266 329.8C386.586 333.8 381.666 335.8 375.506 335.8ZM375.146 324.4C377.466 324.4 379.266 323.56 380.546 321.88C381.906 320.12 382.586 317.72 382.586 314.68V266.92C382.586 263.88 381.906 261.52 380.546 259.84C379.266 258.08 377.466 257.2 375.146 257.2C372.746 257.2 370.866 258.08 369.506 259.84C368.226 261.52 367.586 263.88 367.586 266.92V314.68C367.586 317.72 368.226 320.12 369.506 321.88C370.866 323.56 372.746 324.4 375.146 324.4Z"/>
</mask>
<path d="M29.8772 85.36L30.8452 85.6109L30.8472 85.6032L29.8772 85.36ZM50.3972 3.51997L51.3672 3.76319L51.37 3.75159L50.3972 3.51997ZM70.9172 3.51997L69.9443 3.75161L69.9476 3.76451L70.9172 3.51997ZM91.5572 85.36L90.5875 85.6045L90.5892 85.6109L91.5572 85.36ZM76.6772 85.96L77.6611 85.7811L77.6567 85.7573L77.6513 85.7337L76.6772 85.96ZM72.3572 67.36L73.3313 67.1337L73.1516 66.36H72.3572V67.36ZM49.0772 67.36V66.36H48.2778L48.1018 67.1397L49.0772 67.36ZM44.8772 85.96L45.8523 86.1816L45.8526 86.1802L44.8772 85.96ZM51.8372 55.12L50.8612 54.902L50.5892 56.12H51.8372V55.12ZM69.5972 55.12V56.12H70.8466L70.5729 54.9009L69.5972 55.12ZM64.3172 31.6L65.293 31.3809L65.29 31.3684L64.3172 31.6ZM63.2372 26.92L62.2508 27.0844L62.2552 27.1108L62.261 27.1369L63.2372 26.92ZM62.5172 22.84L63.5001 22.6557L63.497 22.6393L63.4934 22.623L62.5172 22.84ZM60.8372 20.2L60.39 21.0944L60.4272 21.113L60.4658 21.1284L60.8372 20.2ZM59.2772 21.4L58.2966 21.2039L58.2926 21.2239L58.2894 21.244L59.2772 21.4ZM58.3172 26.2L57.3444 25.9683L57.3391 25.9905L57.3349 26.0129L58.3172 26.2ZM57.1172 31.48L56.1496 31.2276L56.1451 31.2447L56.1412 31.262L57.1172 31.48ZM32.3972 88.6V87.6C31.3906 87.6 31.013 87.3515 30.8765 87.176C30.7412 87.0021 30.5941 86.5793 30.8452 85.6109L29.8772 85.36L28.9092 85.109C28.6003 86.3007 28.5932 87.4979 29.2978 88.4039C30.0014 89.3084 31.1638 89.6 32.3972 89.6V88.6ZM29.8772 85.36L30.8472 85.6032L51.3672 3.76318L50.3972 3.51997L49.4272 3.27676L28.9072 85.1168L29.8772 85.36ZM50.3972 3.51997L51.37 3.75159C51.5314 3.0737 51.8035 2.66637 52.1211 2.41933C52.4408 2.17068 52.9153 1.99997 53.6372 1.99997V0.999969V-3.05176e-05C52.5991 -3.05176e-05 51.6536 0.249268 50.8933 0.840622C50.1309 1.43357 49.663 2.28624 49.4244 3.28835L50.3972 3.51997ZM53.6372 0.999969V1.99997H67.6772V0.999969V-3.05176e-05H53.6372V0.999969ZM67.6772 0.999969V1.99997C68.3991 1.99997 68.8736 2.17068 69.1933 2.41933C69.5109 2.66637 69.783 3.0737 69.9444 3.75159L70.9172 3.51997L71.89 3.28835C71.6514 2.28624 71.1835 1.43357 70.4211 0.840622C69.6608 0.249268 68.7153 -3.05176e-05 67.6772 -3.05176e-05V0.999969ZM70.9172 3.51997L69.9476 3.76451L90.5876 85.6045L91.5572 85.36L92.5268 85.1154L71.8868 3.27543L70.9172 3.51997ZM91.5572 85.36L90.5892 85.6109C90.8403 86.5793 90.6932 87.0021 90.5578 87.176C90.4214 87.3515 90.0438 87.6 89.0372 87.6V88.6V89.6C90.2706 89.6 91.433 89.3084 92.1366 88.4039C92.8412 87.4979 92.8341 86.3007 92.5252 85.109L91.5572 85.36ZM89.0372 88.6V87.6H79.7972V88.6V89.6H89.0372V88.6ZM79.7972 88.6V87.6C79.0833 87.6 78.6353 87.4238 78.3431 87.1766C78.049 86.9277 77.7927 86.5051 77.6611 85.7811L76.6772 85.96L75.6933 86.1389C75.8817 87.1748 76.3054 88.0722 77.0513 88.7034C77.7991 89.3362 78.7511 89.6 79.7972 89.6V88.6ZM76.6772 85.96L77.6513 85.7337L73.3313 67.1337L72.3572 67.36L71.3831 67.5862L75.7031 86.1862L76.6772 85.96ZM72.3572 67.36V66.36H49.0772V67.36V68.36H72.3572V67.36ZM49.0772 67.36L48.1018 67.1397L43.9018 85.7397L44.8772 85.96L45.8526 86.1802L50.0526 67.5802L49.0772 67.36ZM44.8772 85.96L43.9021 85.7384C43.7368 86.4655 43.4571 86.9027 43.1355 87.1647C42.8167 87.4245 42.349 87.6 41.6372 87.6V88.6V89.6C42.6854 89.6 43.6377 89.3354 44.3989 88.7152C45.1573 88.0972 45.6176 87.2144 45.8523 86.1816L44.8772 85.96ZM41.6372 88.6V87.6H32.3972V88.6V89.6H41.6372V88.6ZM51.8372 55.12V56.12H69.5972V55.12V54.12H51.8372V55.12ZM69.5972 55.12L70.5729 54.9009L65.2929 31.3809L64.3172 31.6L63.3415 31.819L68.6215 55.339L69.5972 55.12ZM64.3172 31.6L65.29 31.3684C64.891 29.6924 64.5321 28.1374 64.2134 26.703L63.2372 26.92L62.261 27.1369C62.5823 28.5826 62.9434 30.1475 63.3444 31.8316L64.3172 31.6ZM63.2372 26.92L64.2236 26.7556C63.9826 25.3097 63.7414 23.943 63.5001 22.6557L62.5172 22.84L61.5343 23.0243C61.7729 24.2969 62.0118 25.6502 62.2508 27.0844L63.2372 26.92ZM62.5172 22.84L63.4934 22.623C63.1525 21.089 62.4825 19.7811 61.2086 19.2715L60.8372 20.2L60.4658 21.1284C60.7919 21.2589 61.2419 21.7109 61.541 23.0569L62.5172 22.84ZM60.8372 20.2L61.2844 19.3055C60.687 19.0068 59.9116 18.8888 59.2375 19.4073C58.6779 19.8378 58.4279 20.5476 58.2966 21.2039L59.2772 21.4L60.2578 21.5961C60.3073 21.3484 60.3637 21.1827 60.413 21.079C60.4628 20.9741 60.4881 20.9686 60.4569 20.9926C60.411 21.0279 60.3438 21.05 60.2897 21.05C60.2544 21.05 60.282 21.0404 60.39 21.0944L60.8372 20.2ZM59.2772 21.4L58.2894 21.244C58.0539 22.7358 57.7391 24.3104 57.3444 25.9683L58.3172 26.2L59.29 26.4316C59.6953 24.7295 60.0205 23.1042 60.265 21.5559L59.2772 21.4ZM58.3172 26.2L57.3349 26.0129C57.0195 27.6687 56.6246 29.4068 56.1496 31.2276L57.1172 31.48L58.0848 31.7324C58.5698 29.8731 58.9749 28.0913 59.2995 26.3871L58.3172 26.2ZM57.1172 31.48L56.1412 31.262L50.8612 54.902L51.8372 55.12L52.8131 55.338L58.0931 31.698L57.1172 31.48ZM115.99 36.76H114.99V37.76H115.99V36.76ZM126.31 36.76V37.76H126.946L127.216 37.1837L126.31 36.76ZM142.03 3.15997L142.936 3.58375L142.94 3.57497L142.944 3.56612L142.03 3.15997ZM157.63 2.07997L156.756 2.56561L156.789 2.62533L156.83 2.67998L157.63 2.07997ZM157.63 4.47997L156.736 4.03276L156.731 4.0424L156.726 4.05213L157.63 4.47997ZM139.51 42.76L138.606 42.3321L138.409 42.7496L138.599 43.1707L139.51 42.76ZM158.59 85.12L157.679 85.5307L157.687 85.5491L157.696 85.5672L158.59 85.12ZM158.59 87.64L157.758 87.0853L157.75 87.0975L157.742 87.11L158.59 87.64ZM142.51 86.32L143.432 85.9319L143.428 85.9217L143.423 85.9116L142.51 86.32ZM126.19 49.84L127.103 49.4316L126.838 48.84H126.19V49.84ZM115.99 49.84V48.84H114.99V49.84H115.99ZM103.99 88.6V87.6C103.144 87.6 102.694 87.3892 102.447 87.1429C102.201 86.8965 101.99 86.4458 101.99 85.6H100.99H99.9903C99.9903 86.7541 100.28 87.8034 101.033 88.5571C101.787 89.3108 102.836 89.6 103.99 89.6V88.6ZM100.99 85.6H101.99V3.99997H100.99H99.9903V85.6H100.99ZM100.99 3.99997H101.99C101.99 3.15411 102.201 2.7034 102.447 2.45708C102.694 2.21076 103.144 1.99997 103.99 1.99997V0.999969V-3.05176e-05C102.836 -3.05176e-05 101.787 0.289185 101.033 1.04286C100.28 1.79655 99.9903 2.84583 99.9903 3.99997H100.99ZM103.99 0.999969V1.99997H113.11V0.999969V-3.05176e-05H103.99V0.999969ZM113.11 0.999969V1.99997C113.906 1.99997 114.321 2.20493 114.549 2.4425C114.784 2.6877 114.99 3.14413 114.99 3.99997H115.99H116.99C116.99 2.8558 116.716 1.81225 115.992 1.05744C115.26 0.295021 114.235 -3.05176e-05 113.11 -3.05176e-05V0.999969ZM115.99 3.99997H114.99V36.76H115.99H116.99V3.99997H115.99ZM115.99 36.76V37.76H126.31V36.76V35.76H115.99V36.76ZM126.31 36.76L127.216 37.1837L142.936 3.58375L142.03 3.15997L141.125 2.73621L125.405 36.3362L126.31 36.76ZM142.03 3.15997L142.944 3.56612C143.2 2.99111 143.523 2.61752 143.891 2.38115C144.26 2.14413 144.743 1.99997 145.39 1.99997V0.999969V-3.05176e-05C144.438 -3.05176e-05 143.561 0.21582 142.81 0.698792C142.057 1.18243 141.501 1.88883 141.117 2.75384L142.03 3.15997ZM145.39 0.999969V1.99997H155.35V0.999969V-3.05176e-05H145.39V0.999969ZM155.35 0.999969V1.99997C156.256 1.99997 156.595 2.27473 156.756 2.56561L157.63 2.07997L158.504 1.59433C157.866 0.445221 156.685 -3.05176e-05 155.35 -3.05176e-05V0.999969ZM157.63 2.07997L156.83 2.67998C157.005 2.91254 157.114 3.27647 156.736 4.03276L157.63 4.47997L158.525 4.92719C159.107 3.76347 159.216 2.5274 158.43 1.47997L157.63 2.07997ZM157.63 4.47997L156.726 4.05213L138.606 42.3321L139.51 42.76L140.414 43.1878L158.534 4.90781L157.63 4.47997ZM139.51 42.76L138.599 43.1707L157.679 85.5307L158.59 85.12L159.502 84.7093L140.422 42.3493L139.51 42.76ZM158.59 85.12L157.696 85.5672C158.061 86.2965 157.989 86.7393 157.758 87.0853L158.59 87.64L159.422 88.1947C160.152 87.1007 160.08 85.8635 159.485 84.6728L158.59 85.12ZM158.59 87.64L157.742 87.11C157.603 87.3323 157.265 87.6 156.31 87.6V88.6V89.6C157.596 89.6 158.777 89.2277 159.438 88.17L158.59 87.64ZM156.31 88.6V87.6H145.99V88.6V89.6H156.31V88.6ZM145.99 88.6V87.6C145.303 87.6 144.794 87.4461 144.408 87.1935C144.024 86.9418 143.69 86.544 143.432 85.9319L142.51 86.32L141.589 86.708C141.971 87.616 142.537 88.3582 143.312 88.8664C144.087 89.3738 144.997 89.6 145.99 89.6V88.6ZM142.51 86.32L143.423 85.9116L127.103 49.4316L126.19 49.84L125.277 50.2483L141.598 86.7283L142.51 86.32ZM126.19 49.84V48.84H115.99V49.84V50.84H126.19V49.84ZM115.99 49.84H114.99V85.6H115.99H116.99V49.84H115.99ZM115.99 85.6H114.99C114.99 86.4558 114.784 86.9123 114.549 87.1574C114.321 87.395 113.906 87.6 113.11 87.6V88.6V89.6C114.235 89.6 115.26 89.3049 115.992 88.5425C116.716 87.7877 116.99 86.7441 116.99 85.6H115.99ZM113.11 88.6V87.6H103.99V88.6V89.6H113.11V88.6ZM187.463 14.56H188.463V13.56H187.463V14.56ZM202.583 14.56V13.56H201.583V14.56H202.583ZM190.463 88.6V87.6C189.618 87.6 189.167 87.3892 188.921 87.1429C188.674 86.8965 188.463 86.4458 188.463 85.6H187.463H186.463C186.463 86.7541 186.753 87.8034 187.506 88.5571C188.26 89.3108 189.309 89.6 190.463 89.6V88.6ZM187.463 85.6H188.463V14.56H187.463H186.463V85.6H187.463ZM187.463 14.56V13.56H167.543V14.56V15.56H187.463V14.56ZM167.543 14.56V13.56C166.698 13.56 166.247 13.3492 166.001 13.1029C165.754 12.8565 165.543 12.4058 165.543 11.56H164.543H163.543C163.543 12.7141 163.833 13.7634 164.586 14.5171C165.34 15.2708 166.389 15.56 167.543 15.56V14.56ZM164.543 11.56H165.543V3.99997H164.543H163.543V11.56H164.543ZM164.543 3.99997H165.543C165.543 3.15411 165.754 2.7034 166.001 2.45708C166.247 2.21076 166.698 1.99997 167.543 1.99997V0.999969V-3.05176e-05C166.389 -3.05176e-05 165.34 0.289185 164.586 1.04286C163.833 1.79655 163.543 2.84583 163.543 3.99997H164.543ZM167.543 0.999969V1.99997H222.503V0.999969V-3.05176e-05H167.543V0.999969ZM222.503 0.999969V1.99997C223.349 1.99997 223.8 2.21076 224.046 2.45708C224.293 2.7034 224.503 3.15411 224.503 3.99997H225.503H226.503C226.503 2.84583 226.214 1.79655 225.461 1.04287C224.707 0.289185 223.658 -3.05176e-05 222.503 -3.05176e-05V0.999969ZM225.503 3.99997H224.503V11.56H225.503H226.503V3.99997H225.503ZM225.503 11.56H224.503C224.503 12.4058 224.293 12.8565 224.046 13.1029C223.8 13.3492 223.349 13.56 222.503 13.56V14.56V15.56C223.658 15.56 224.707 15.2708 225.461 14.5171C226.214 13.7634 226.503 12.7141 226.503 11.56H225.503ZM222.503 14.56V13.56H202.583V14.56V15.56H222.503V14.56ZM202.583 14.56H201.583V85.6H202.583H203.583V14.56H202.583ZM202.583 85.6H201.583C201.583 86.4458 201.373 86.8965 201.126 87.1429C200.88 87.3892 200.429 87.6 199.583 87.6V88.6V89.6C200.738 89.6 201.787 89.3108 202.541 88.5571C203.294 87.8034 203.583 86.7541 203.583 85.6H202.583ZM199.583 88.6V87.6H190.463V88.6V89.6H199.583V88.6ZM234.817 88.6H233.817V89.6H234.817V88.6ZM234.817 0.999969V-3.05176e-05H233.817V0.999969H234.817ZM248.497 0.999969H249.497V-3.05176e-05H248.497V0.999969ZM248.257 53.32L249.255 53.3664V53.3664L248.257 53.32ZM247.657 63.4L246.659 63.327V63.327L247.657 63.4ZM247.057 71.8L246.059 71.7312L248.003 72.1225L247.057 71.8ZM271.177 0.999969V-3.05176e-05H270.461L270.23 0.677498L271.177 0.999969ZM289.537 0.999969H290.537V-3.05176e-05H289.537V0.999969ZM289.537 88.6V89.6H290.537V88.6H289.537ZM275.857 88.6H274.857V89.6H275.857V88.6ZM276.097 37.48L275.099 37.4135L275.098 37.4245L275.098 37.4356L276.097 37.48ZM276.817 26.92L277.814 26.9896L277.814 26.988L276.817 26.92ZM277.537 17.8L278.532 17.8933L276.591 17.4746L277.537 17.8ZM253.177 88.6V89.6H253.89L254.122 88.9253L253.177 88.6ZM234.817 88.6H235.817V0.999969H234.817H233.817V88.6H234.817ZM234.817 0.999969V1.99997H248.497V0.999969V-3.05176e-05H234.817V0.999969ZM248.497 0.999969H247.497V43.84H248.497H249.497V0.999969H248.497ZM248.497 43.84H247.497C247.497 46.7018 247.417 49.8461 247.258 53.2735L248.257 53.32L249.255 53.3664C249.416 49.9138 249.497 46.7381 249.497 43.84H248.497ZM248.257 53.32L247.258 53.2735C247.098 56.7051 246.899 60.0562 246.659 63.327L247.657 63.4L248.654 63.4729C248.895 60.1837 249.095 56.8149 249.255 53.3664L248.257 53.32ZM247.657 63.4L246.659 63.327C246.419 66.6079 246.219 69.4093 246.059 71.7312L247.057 71.8L248.054 71.8688C248.214 69.5506 248.414 66.7521 248.654 63.4729L247.657 63.4ZM247.057 71.8L248.003 72.1225L272.123 1.32245L271.177 0.999969L270.23 0.677498L246.11 71.4775L247.057 71.8ZM271.177 0.999969V1.99997H289.537V0.999969V-3.05176e-05H271.177V0.999969ZM289.537 0.999969H288.537V88.6H289.537H290.537V0.999969H289.537ZM289.537 88.6V87.6H275.857V88.6V89.6H289.537V88.6ZM275.857 88.6H276.857V47.08H275.857H274.857V88.6H275.857ZM275.857 47.08H276.857C276.857 44.2983 276.936 41.1135 277.096 37.5244L276.097 37.48L275.098 37.4356C274.937 41.0464 274.857 44.2617 274.857 47.08H275.857ZM276.097 37.48L277.094 37.5465C277.334 33.9475 277.574 30.4285 277.814 26.9896L276.817 26.92L275.819 26.8504C275.579 30.2914 275.339 33.8125 275.099 37.4135L276.097 37.48ZM276.817 26.92L277.814 26.988C278.054 23.4736 278.293 20.4424 278.532 17.8933L277.537 17.8L276.541 17.7066C276.3 20.2775 276.059 23.3264 275.819 26.852L276.817 26.92ZM277.537 17.8L276.591 17.4746L252.231 88.2746L253.177 88.6L254.122 88.9253L278.482 18.1253L277.537 17.8ZM253.177 88.6V87.6H234.817V88.6V89.6H253.177V88.6ZM310.13 55.96H309.13V56.96H310.13V55.96ZM310.13 42.04V41.04H309.13V42.04H310.13ZM348.53 42.04H349.53V41.04H348.53V42.04ZM348.53 55.96V56.96H349.53V55.96H348.53ZM310.13 55.96H311.13V42.04H310.13H309.13V55.96H310.13ZM310.13 42.04V43.04H348.53V42.04V41.04H310.13V42.04ZM348.53 42.04H347.53V55.96H348.53H349.53V42.04H348.53ZM348.53 55.96V54.96H310.13V55.96V56.96H348.53V55.96ZM80.8772 89.12L80.2419 89.8923L80.248 89.8972L80.8772 89.12ZM84.2372 117.92L83.4616 117.289L83.4572 117.294L83.4528 117.3L84.2372 117.92ZM73.5572 124.16L73.3957 123.173L72.5572 123.31V124.16H73.5572ZM73.5572 124.4H72.5572V125.285L73.4361 125.393L73.5572 124.4ZM82.3172 128L81.7016 128.788L81.7093 128.794L81.7172 128.8L82.3172 128ZM88.3172 135.56L87.4092 135.979L87.4135 135.988L88.3172 135.56ZM86.9972 158.84L87.8482 159.365V159.365L86.9972 158.84ZM77.1572 167.6L77.5838 168.504L77.5907 168.501L77.5976 168.498L77.1572 167.6ZM48.5972 119.12H47.5972V120.12H48.5972V119.12ZM69.9572 116L70.6247 116.745L70.6317 116.738L70.6386 116.732L69.9572 116ZM69.9572 98.72L69.2631 99.4398L69.2761 99.4524L69.2896 99.4645L69.9572 98.72ZM71.6372 154.64L72.3204 155.37L72.3211 155.37L71.6372 154.64ZM71.6372 135.08L70.919 135.776L70.93 135.787L70.9414 135.798L71.6372 135.08ZM48.5972 131.24V130.24H47.5972V131.24H48.5972ZM36.9572 170.6V169.6C36.1113 169.6 35.6606 169.389 35.4143 169.143C35.168 168.897 34.9572 168.446 34.9572 167.6H33.9572H32.9572C32.9572 168.754 33.2464 169.803 34.0001 170.557C34.7538 171.311 35.803 171.6 36.9572 171.6V170.6ZM33.9572 167.6H34.9572V86H33.9572H32.9572V167.6H33.9572ZM33.9572 86H34.9572C34.9572 85.1541 35.168 84.7034 35.4143 84.4571C35.6606 84.2108 36.1113 84 36.9572 84V83V82C35.803 82 34.7538 82.2892 34.0001 83.0429C33.2464 83.7965 32.9572 84.8458 32.9572 86H33.9572ZM36.9572 83V84H60.8372V83V82H36.9572V83ZM60.8372 83V84C69.0776 84 75.5097 85.9996 80.2419 89.8923L80.8772 89.12L81.5125 88.3477C76.3247 84.0803 69.3968 82 60.8372 82V83ZM80.8772 89.12L80.248 89.8972C85.0375 93.7744 87.4372 98.9606 87.4372 105.56H88.4372H89.4372C89.4372 98.3994 86.7969 92.6255 81.5064 88.3427L80.8772 89.12ZM88.4372 105.56H87.4372C87.4372 110.15 86.1042 114.042 83.4616 117.289L84.2372 117.92L85.0128 118.551C87.9702 114.918 89.4372 110.57 89.4372 105.56H88.4372ZM84.2372 117.92L83.4528 117.3C80.8903 120.541 77.5542 122.493 73.3957 123.173L73.5572 124.16L73.7187 125.147C78.3602 124.387 82.1441 122.179 85.0216 118.54L84.2372 117.92ZM73.5572 124.16H72.5572V124.4H73.5572H74.5572V124.16H73.5572ZM73.5572 124.4L73.4361 125.393C76.539 125.771 79.2873 126.902 81.7016 128.788L82.3172 128L82.9328 127.212C80.2271 125.098 77.1354 123.829 73.6783 123.407L73.5572 124.4ZM82.3172 128L81.7172 128.8C84.1348 130.613 86.0334 132.998 87.4092 135.979L88.3172 135.56L89.2252 135.141C87.7209 131.882 85.6196 129.227 82.9172 127.2L82.3172 128ZM88.3172 135.56L87.4135 135.988C88.7843 138.882 89.4772 142.094 89.4772 145.64H90.4772H91.4772C91.4772 141.826 90.7301 138.318 89.2209 135.132L88.3172 135.56ZM90.4772 145.64H89.4772C89.4772 150.521 88.3557 154.734 86.1462 158.315L86.9972 158.84L87.8482 159.365C90.2787 155.426 91.4772 150.839 91.4772 145.64H90.4772ZM86.9972 158.84L86.1462 158.315C83.9321 161.903 80.7997 164.699 76.7168 166.702L77.1572 167.6L77.5976 168.498C81.9947 166.341 85.4223 163.297 87.8482 159.365L86.9972 158.84ZM77.1572 167.6L76.7306 166.696C72.6509 168.62 67.8027 169.6 62.1572 169.6V170.6V171.6C68.0317 171.6 73.1835 170.58 77.5838 168.504L77.1572 167.6ZM62.1572 170.6V169.6H36.9572V170.6V171.6H62.1572V170.6ZM48.5972 119.12V120.12H60.5972V119.12V118.12H48.5972V119.12ZM60.5972 119.12V120.12C64.6976 120.12 68.0775 119.028 70.6247 116.745L69.9572 116L69.2896 115.255C67.1969 117.132 64.3367 118.12 60.5972 118.12V119.12ZM69.9572 116L70.6386 116.732C73.195 114.352 74.4372 111.149 74.4372 107.24H73.4372H72.4372C72.4372 110.691 71.3594 113.328 69.2758 115.268L69.9572 116ZM73.4372 107.24H74.4372C74.4372 103.404 73.19 100.275 70.6247 97.9754L69.9572 98.72L69.2896 99.4645C71.3644 101.325 72.4372 103.875 72.4372 107.24H73.4372ZM69.9572 98.72L70.6513 98.0001C68.1761 95.6133 64.7792 94.48 60.5972 94.48V95.48V96.48C64.4152 96.48 67.2583 97.5067 69.2631 99.4398L69.9572 98.72ZM60.5972 95.48V94.48H51.4772V95.48V96.48H60.5972V95.48ZM51.4772 95.48V94.48C50.3524 94.48 49.3277 94.775 48.5958 95.5374C47.8712 96.2922 47.5972 97.3358 47.5972 98.48H48.5972H49.5972C49.5972 97.6241 49.8032 97.1677 50.0386 96.9225C50.2667 96.6849 50.682 96.48 51.4772 96.48V95.48ZM48.5972 98.48H47.5972V119.12H48.5972H49.5972V98.48H48.5972ZM48.5972 155.12H47.5972C47.5972 156.264 47.8712 157.308 48.5958 158.062C49.3277 158.825 50.3524 159.12 51.4772 159.12V158.12V157.12C50.682 157.12 50.2667 156.915 50.0386 156.677C49.8032 156.432 49.5972 155.976 49.5972 155.12H48.5972ZM51.4772 158.12V159.12H61.3172V158.12V157.12H51.4772V158.12ZM61.3172 158.12V159.12C65.8934 159.12 69.6053 157.91 72.3204 155.37L71.6372 154.64L70.954 153.91C68.709 156.01 65.541 157.12 61.3172 157.12V158.12ZM71.6372 154.64L72.3211 155.37C75.116 152.749 76.4772 149.227 76.4772 144.92H75.4772H74.4772C74.4772 148.773 73.2784 151.731 70.9533 153.91L71.6372 154.64ZM75.4772 144.92H76.4772C76.4772 140.612 75.1161 137.058 72.333 134.362L71.6372 135.08L70.9414 135.798C73.2783 138.062 74.4772 141.068 74.4772 144.92H75.4772ZM71.6372 135.08L72.3554 134.384C69.6447 131.586 65.9203 130.24 61.3172 130.24V131.24V132.24C65.5141 132.24 68.6697 133.454 70.919 135.776L71.6372 135.08ZM61.3172 131.24V130.24H48.5972V131.24V132.24H61.3172V131.24ZM48.5972 131.24H47.5972V155.12H48.5972H49.5972V131.24H48.5972ZM100.51 170.6H99.5103V171.6H100.51V170.6ZM100.51 83V82H99.5103V83H100.51ZM114.19 83H115.19V82H114.19V83ZM113.95 135.32L114.949 135.366V135.366L113.95 135.32ZM113.35 145.4L112.353 145.327V145.327L113.35 145.4ZM112.75 153.8L111.753 153.731L113.697 154.122L112.75 153.8ZM136.87 83V82H136.155L135.924 82.6775L136.87 83ZM155.23 83H156.23V82H155.23V83ZM155.23 170.6V171.6H156.23V170.6H155.23ZM141.55 170.6H140.55V171.6H141.55V170.6ZM141.79 119.48L140.793 119.413L140.792 119.425L140.791 119.436L141.79 119.48ZM142.51 108.92L143.508 108.99L143.508 108.988L142.51 108.92ZM143.23 99.8L144.226 99.8933L142.285 99.4746L143.23 99.8ZM118.87 170.6V171.6H119.584L119.816 170.925L118.87 170.6ZM100.51 170.6H101.51V83H100.51H99.5103V170.6H100.51ZM100.51 83V84H114.19V83V82H100.51V83ZM114.19 83H113.19V125.84H114.19H115.19V83H114.19ZM114.19 125.84H113.19C113.19 128.702 113.111 131.846 112.951 135.274L113.95 135.32L114.949 135.366C115.11 131.914 115.19 128.738 115.19 125.84H114.19ZM113.95 135.32L112.951 135.274C112.792 138.705 112.592 142.056 112.353 145.327L113.35 145.4L114.348 145.473C114.588 142.184 114.789 138.815 114.949 135.366L113.95 135.32ZM113.35 145.4L112.353 145.327C112.113 148.608 111.913 151.409 111.753 153.731L112.75 153.8L113.748 153.869C113.908 151.551 114.108 148.752 114.348 145.473L113.35 145.4ZM112.75 153.8L113.697 154.122L137.817 83.3224L136.87 83L135.924 82.6775L111.804 153.477L112.75 153.8ZM136.87 83V84H155.23V83V82H136.87V83ZM155.23 83H154.23V170.6H155.23H156.23V83H155.23ZM155.23 170.6V169.6H141.55V170.6V171.6H155.23V170.6ZM141.55 170.6H142.55V129.08H141.55H140.55V170.6H141.55ZM141.55 129.08H142.55C142.55 126.298 142.63 123.114 142.789 119.524L141.79 119.48L140.791 119.436C140.631 123.046 140.55 126.262 140.55 129.08H141.55ZM141.79 119.48L142.788 119.546C143.028 115.947 143.268 112.428 143.508 108.99L142.51 108.92L141.513 108.85C141.273 112.291 141.033 115.812 140.793 119.413L141.79 119.48ZM142.51 108.92L143.508 108.988C143.748 105.474 143.987 102.442 144.226 99.8933L143.23 99.8L142.235 99.7066C141.994 102.277 141.753 105.326 141.513 108.852L142.51 108.92ZM143.23 99.8L142.285 99.4746L117.925 170.275L118.87 170.6L119.816 170.925L144.176 100.125L143.23 99.8ZM118.87 170.6V169.6H100.51V170.6V171.6H118.87V170.6ZM212.663 86.36L212.203 87.2477L212.21 87.2511L212.663 86.36ZM222.863 95.84L222.001 96.347L222.006 96.3545L222.863 95.84ZM222.863 124.28L223.721 124.794L223.725 124.787L222.863 124.28ZM212.663 133.64L212.21 132.749L212.203 132.752L212.663 133.64ZM183.263 137V136H182.263V137H183.263ZM183.263 123.8H182.263V124.8H183.263V123.8ZM207.503 119.96L206.785 119.264V119.264L207.503 119.96ZM207.503 100.04L206.785 100.736V100.736L207.503 100.04ZM171.143 170.6V169.6C170.348 169.6 169.933 169.395 169.705 169.157C169.469 168.912 169.263 168.456 169.263 167.6H168.263H167.263C167.263 168.744 167.537 169.788 168.262 170.543C168.994 171.305 170.019 171.6 171.143 171.6V170.6ZM168.263 167.6H169.263V86H168.263H167.263V167.6H168.263ZM168.263 86H169.263C169.263 85.1441 169.469 84.6877 169.705 84.4425C169.933 84.2049 170.348 84 171.143 84V83V82C170.019 82 168.994 82.295 168.262 83.0574C167.537 83.8122 167.263 84.8558 167.263 86H168.263ZM171.143 83V84H197.423V83V82H171.143V83ZM197.423 83V84C203.135 84 208.051 85.0948 212.203 87.2477L212.663 86.36L213.124 85.4722C208.636 83.1451 203.392 82 197.423 82V83ZM212.663 86.36L212.21 87.2511C216.448 89.4085 219.702 92.4386 222.001 96.347L222.863 95.84L223.725 95.333C221.224 91.0813 217.679 87.7914 213.117 85.4688L212.663 86.36ZM222.863 95.84L222.006 96.3545C224.298 100.175 225.463 104.711 225.463 110H226.463H227.463C227.463 104.409 226.229 99.5051 223.721 95.3255L222.863 95.84ZM226.463 110H225.463C225.463 115.289 224.298 119.868 222.001 123.773L222.863 124.28L223.725 124.787C226.229 120.532 227.463 115.591 227.463 110H226.463ZM222.863 124.28L222.006 123.765C219.708 127.595 216.453 130.589 212.21 132.749L212.663 133.64L213.117 134.531C217.674 132.211 221.219 128.965 223.721 124.794L222.863 124.28ZM212.663 133.64L212.203 132.752C208.051 134.905 203.135 136 197.423 136V137V138C203.392 138 208.636 136.855 213.124 134.528L212.663 133.64ZM197.423 137V136H183.263V137V138H197.423V137ZM183.263 137H182.263V167.6H183.263H184.263V137H183.263ZM183.263 167.6H182.263C182.263 168.446 182.053 168.897 181.806 169.143C181.56 169.389 181.109 169.6 180.263 169.6V170.6V171.6C181.418 171.6 182.467 171.311 183.221 170.557C183.974 169.803 184.263 168.754 184.263 167.6H183.263ZM180.263 170.6V169.6H171.143V170.6V171.6H180.263V170.6ZM183.263 123.8V124.8H197.423V123.8V122.8H183.263V123.8ZM197.423 123.8V124.8C201.879 124.8 205.518 123.447 208.222 120.656L207.503 119.96L206.785 119.264C204.529 121.593 201.448 122.8 197.423 122.8V123.8ZM207.503 119.96L208.222 120.656C210.909 117.882 212.223 114.299 212.223 110H211.223H210.223C210.223 113.861 209.058 116.918 206.785 119.264L207.503 119.96ZM211.223 110H212.223C212.223 105.701 210.909 102.118 208.222 99.3442L207.503 100.04L206.785 100.736C209.058 103.082 210.223 106.139 210.223 110H211.223ZM207.503 100.04L208.222 99.3442C205.518 96.5533 201.879 95.2 197.423 95.2V96.2V97.2C201.448 97.2 204.529 98.4067 206.785 100.736L207.503 100.04ZM197.423 96.2V95.2H186.263V96.2V97.2H197.423V96.2ZM186.263 96.2V95.2C185.119 95.2 184.076 95.474 183.321 96.1986C182.558 96.9305 182.263 97.9552 182.263 99.08H183.263H184.263C184.263 98.2847 184.468 97.8694 184.706 97.6414C184.951 97.406 185.408 97.2 186.263 97.2V96.2ZM183.263 99.08H182.263V123.8H183.263H184.263V99.08H183.263ZM246.937 170.6L246.008 170.228L245.458 171.6H246.937V170.6ZM255.937 148.16L256.865 148.532L257.012 148.164L256.868 147.795L255.937 148.16ZM230.377 83V82H228.91L229.446 83.3652L230.377 83ZM246.697 83L247.643 82.6767L247.412 82H246.697V83ZM259.897 121.64L258.95 121.963L258.955 121.976L259.897 121.64ZM261.937 128.72L260.961 128.94L260.965 128.959L260.97 128.978L261.937 128.72ZM263.137 134.6L262.142 134.705H264.131L263.137 134.6ZM264.097 128.72L263.121 128.5L263.118 128.512L263.116 128.524L264.097 128.72ZM265.897 121.64L264.942 121.341L264.939 121.353L264.935 121.365L265.897 121.64ZM278.017 83V82H277.282L277.062 82.7007L278.017 83ZM293.977 83L294.919 83.3355L295.394 82H293.977V83ZM262.777 170.6V171.6H263.482L263.719 170.936L262.777 170.6ZM246.937 170.6L247.865 170.972L256.865 148.532L255.937 148.16L255.008 147.788L246.008 170.228L246.937 170.6ZM255.937 148.16L256.868 147.795L231.308 82.6348L230.377 83L229.446 83.3652L255.006 148.525L255.937 148.16ZM230.377 83V84H246.697V83V82H230.377V83ZM246.697 83L245.75 83.3232L258.95 121.963L259.897 121.64L260.843 121.317L247.643 82.6767L246.697 83ZM259.897 121.64L258.955 121.976C259.74 124.176 260.409 126.497 260.961 128.94L261.937 128.72L262.912 128.5C262.344 125.983 261.653 123.584 260.838 121.304L259.897 121.64ZM261.937 128.72L260.97 128.978C261.604 131.354 261.99 133.258 262.142 134.705L263.137 134.6L264.131 134.495C263.963 132.902 263.549 130.886 262.903 128.462L261.937 128.72ZM263.137 134.6L264.131 134.705C264.287 133.228 264.6 131.301 265.077 128.916L264.097 128.72L263.116 128.524C262.633 130.938 262.307 132.932 262.142 134.495L263.137 134.6ZM264.097 128.72L265.072 128.94C265.628 126.477 266.224 124.135 266.858 121.915L265.897 121.64L264.935 121.365C264.289 123.625 263.685 126.003 263.121 128.5L264.097 128.72ZM265.897 121.64L266.851 121.939L278.971 83.2993L278.017 83L277.062 82.7007L264.942 121.341L265.897 121.64ZM278.017 83V84H293.977V83V82H278.017V83ZM293.977 83L293.035 82.6645L261.835 170.264L262.777 170.6L263.719 170.936L294.919 83.3355L293.977 83ZM262.777 170.6V169.6H246.937V170.6V171.6H262.777V170.6ZM301.97 170.6H300.97V171.6H301.97V170.6ZM301.97 83V82H300.97V83H301.97ZM315.65 83H316.65V82H315.65V83ZM315.41 135.32L316.409 135.366V135.366L315.41 135.32ZM314.81 145.4L313.812 145.327V145.327L314.81 145.4ZM314.21 153.8L313.212 153.731L315.156 154.122L314.21 153.8ZM338.33 83V82H337.614L337.383 82.6775L338.33 83ZM356.69 83H357.69V82H356.69V83ZM356.69 170.6V171.6H357.69V170.6H356.69ZM343.01 170.6H342.01V171.6H343.01V170.6ZM343.25 119.48L342.252 119.413L342.251 119.425L342.251 119.436L343.25 119.48ZM343.97 108.92L344.967 108.99L344.967 108.988L343.97 108.92ZM344.69 99.8L345.685 99.8933L343.744 99.4746L344.69 99.8ZM320.33 170.6V171.6H321.043L321.275 170.925L320.33 170.6ZM315.29 70.4L314.695 71.2041L314.705 71.2114L314.715 71.2184L315.29 70.4ZM308.69 59.72L307.701 59.872L307.703 59.8815L308.69 59.72ZM309.29 57.44L309.94 58.1992L309.97 58.1742L309.997 58.1471L309.29 57.44ZM319.25 57.32L318.481 57.9602L318.51 57.995L318.543 58.0271L319.25 57.32ZM320.45 59.36L321.406 59.0688L321.399 59.0433L321.389 59.0182L320.45 59.36ZM323.57 63.8L322.976 64.605L323 64.6224L323.025 64.6384L323.57 63.8ZM335.09 63.8L335.635 64.6384L335.649 64.6291L335.663 64.6192L335.09 63.8ZM338.21 59.36L337.27 59.0182L337.254 59.0622L337.242 59.1076L338.21 59.36ZM339.29 57.32L338.583 56.6129L338.551 56.6449L338.521 56.6798L339.29 57.32ZM349.49 57.32L350.14 56.5607V56.5607L349.49 57.32ZM350.09 59.24L349.109 59.0439L349.103 59.0723L349.099 59.101L350.09 59.24ZM343.49 70.28L344.084 71.0842L344.087 71.082L343.49 70.28ZM301.97 170.6H302.97V83H301.97H300.97V170.6H301.97ZM301.97 83V84H315.65V83V82H301.97V83ZM315.65 83H314.65V125.84H315.65H316.65V83H315.65ZM315.65 125.84H314.65C314.65 128.702 314.57 131.846 314.411 135.274L315.41 135.32L316.409 135.366C316.569 131.914 316.65 128.738 316.65 125.84H315.65ZM315.41 135.32L314.411 135.274C314.251 138.705 314.052 142.056 313.812 145.327L314.81 145.4L315.807 145.473C316.048 142.184 316.248 138.815 316.409 135.366L315.41 135.32ZM314.81 145.4L313.812 145.327C313.572 148.608 313.372 151.409 313.212 153.731L314.21 153.8L315.207 153.869C315.367 151.551 315.567 148.752 315.807 145.473L314.81 145.4ZM314.21 153.8L315.156 154.122L339.276 83.3224L338.33 83L337.383 82.6775L313.263 153.477L314.21 153.8ZM338.33 83V84H356.69V83V82H338.33V83ZM356.69 83H355.69V170.6H356.69H357.69V83H356.69ZM356.69 170.6V169.6H343.01V170.6V171.6H356.69V170.6ZM343.01 170.6H344.01V129.08H343.01H342.01V170.6H343.01ZM343.01 129.08H344.01C344.01 126.298 344.089 123.114 344.249 119.524L343.25 119.48L342.251 119.436C342.09 123.046 342.01 126.262 342.01 129.08H343.01ZM343.25 119.48L344.247 119.546C344.487 115.947 344.727 112.428 344.967 108.99L343.97 108.92L342.972 108.85C342.732 112.291 342.492 115.812 342.252 119.413L343.25 119.48ZM343.97 108.92L344.967 108.988C345.207 105.474 345.446 102.442 345.685 99.8933L344.69 99.8L343.694 99.7066C343.453 102.277 343.212 105.326 342.972 108.852L343.97 108.92ZM344.69 99.8L343.744 99.4746L319.384 170.275L320.33 170.6L321.275 170.925L345.635 100.125L344.69 99.8ZM320.33 170.6V169.6H301.97V170.6V171.6H320.33V170.6ZM329.33 74.36V73.36C323.89 73.36 319.422 72.0796 315.864 69.5816L315.29 70.4L314.715 71.2184C318.677 74.0004 323.57 75.36 329.33 75.36V74.36ZM315.29 70.4L315.884 69.5958C312.407 67.0261 310.353 63.6938 309.677 59.5585L308.69 59.72L307.703 59.8815C308.466 64.5461 310.812 68.3338 314.695 71.2041L315.29 70.4ZM308.69 59.72L309.678 59.5679C309.546 58.7101 309.746 58.3661 309.94 58.1992L309.29 57.44L308.639 56.6807C307.714 57.4738 307.513 58.6499 307.701 59.872L308.69 59.72ZM309.29 57.44L309.997 58.1471C310.331 57.8132 310.815 57.6 311.57 57.6V56.6V55.6C310.405 55.6 309.369 55.9468 308.583 56.7329L309.29 57.44ZM311.57 56.6V57.6H317.33V56.6V55.6H311.57V56.6ZM317.33 56.6V57.6C318.039 57.6 318.34 57.7901 318.481 57.9602L319.25 57.32L320.018 56.6798C319.36 55.8898 318.38 55.6 317.33 55.6V56.6ZM319.25 57.32L318.543 58.0271C318.888 58.3723 319.222 58.91 319.51 59.7017L320.45 59.36L321.389 59.0182C321.037 58.0499 320.572 57.2276 319.957 56.6129L319.25 57.32ZM320.45 59.36L319.493 59.6511C320.114 61.6929 321.28 63.3548 322.976 64.605L323.57 63.8L324.163 62.9949C322.82 62.0052 321.905 60.707 321.406 59.0688L320.45 59.36ZM323.57 63.8L323.025 64.6384C324.813 65.8011 326.93 66.36 329.33 66.36V65.36V64.36C327.249 64.36 325.526 63.8788 324.115 62.9615L323.57 63.8ZM329.33 65.36V66.36C331.729 66.36 333.846 65.8011 335.635 64.6384L335.09 63.8L334.545 62.9615C333.133 63.8788 331.41 64.36 329.33 64.36V65.36ZM335.09 63.8L335.663 64.6192C337.452 63.3671 338.636 61.6888 339.177 59.6124L338.21 59.36L337.242 59.1076C336.824 60.7111 335.927 61.9929 334.516 62.9807L335.09 63.8ZM338.21 59.36L339.149 59.7017C339.448 58.8816 339.759 58.3187 340.058 57.9602L339.29 57.32L338.521 56.6798C338.02 57.2812 337.612 58.0783 337.27 59.0182L338.21 59.36ZM339.29 57.32L339.997 58.0271C340.238 57.7856 340.633 57.6 341.33 57.6V56.6V55.6C340.266 55.6 339.301 55.8944 338.583 56.6129L339.29 57.32ZM341.33 56.6V57.6H347.21V56.6V55.6H341.33V56.6ZM347.21 56.6V57.6C348.004 57.6 348.509 57.7964 348.839 58.0792L349.49 57.32L350.14 56.5607C349.35 55.8835 348.335 55.6 347.21 55.6V56.6ZM349.49 57.32L348.839 58.0792C349.091 58.2949 349.207 58.5527 349.109 59.0439L350.09 59.24L351.07 59.4361C351.292 58.3272 351.009 57.305 350.14 56.5607L349.49 57.32ZM350.09 59.24L349.099 59.101C348.497 63.391 346.442 66.8343 342.892 69.4779L343.49 70.28L344.087 71.082C348.057 68.1256 350.402 64.209 351.08 59.379L350.09 59.24ZM343.49 70.28L342.895 69.4758C339.427 72.0389 334.932 73.36 329.33 73.36V74.36V75.36C335.248 75.36 340.192 73.961 344.084 71.0842L343.49 70.28ZM51.3572 200.52H50.3572V201.52H51.3572V200.52ZM74.8772 200.52V201.52H75.8772V200.52H74.8772ZM74.8772 214.08H75.8772V213.08H74.8772V214.08ZM51.3572 214.08V213.08H50.3572V214.08H51.3572ZM39.3572 252.6V251.6C38.5113 251.6 38.0606 251.389 37.8143 251.143C37.568 250.897 37.3572 250.446 37.3572 249.6H36.3572H35.3572C35.3572 250.754 35.6464 251.803 36.4001 252.557C37.1538 253.311 38.203 253.6 39.3572 253.6V252.6ZM36.3572 249.6H37.3572V168H36.3572H35.3572V249.6H36.3572ZM36.3572 168H37.3572C37.3572 167.154 37.568 166.703 37.8143 166.457C38.0606 166.211 38.5113 166 39.3572 166V165V164C38.203 164 37.1538 164.289 36.4001 165.043C35.6464 165.797 35.3572 166.846 35.3572 168H36.3572ZM39.3572 165V166H48.4772V165V164H39.3572V165ZM48.4772 165V166C49.2724 166 49.6877 166.205 49.9158 166.443C50.1512 166.688 50.3572 167.144 50.3572 168H51.3572H52.3572C52.3572 166.856 52.0832 165.812 51.3586 165.057C50.6266 164.295 49.602 164 48.4772 164V165ZM51.3572 168H50.3572V200.52H51.3572H52.3572V168H51.3572ZM51.3572 200.52V201.52H74.8772V200.52V199.52H51.3572V200.52ZM74.8772 200.52H75.8772V168H74.8772H73.8772V200.52H74.8772ZM74.8772 168H75.8772C75.8772 167.144 76.0832 166.688 76.3186 166.443C76.5467 166.205 76.962 166 77.7572 166V165V164C76.6324 164 75.6077 164.295 74.8758 165.057C74.1512 165.812 73.8772 166.856 73.8772 168H74.8772ZM77.7572 165V166H86.8772V165V164H77.7572V165ZM86.8772 165V166C87.723 166 88.1738 166.211 88.4201 166.457C88.6664 166.703 88.8772 167.154 88.8772 168H89.8772H90.8772C90.8772 166.846 90.588 165.797 89.8343 165.043C89.0806 164.289 88.0313 164 86.8772 164V165ZM89.8772 168H88.8772V249.6H89.8772H90.8772V168H89.8772ZM89.8772 249.6H88.8772C88.8772 250.446 88.6664 250.897 88.4201 251.143C88.1738 251.389 87.723 251.6 86.8772 251.6V252.6V253.6C88.0313 253.6 89.0806 253.311 89.8343 252.557C90.588 251.803 90.8772 250.754 90.8772 249.6H89.8772ZM86.8772 252.6V251.6H77.7572V252.6V253.6H86.8772V252.6ZM77.7572 252.6V251.6C76.962 251.6 76.5467 251.395 76.3186 251.157C76.0832 250.912 75.8772 250.456 75.8772 249.6H74.8772H73.8772C73.8772 250.744 74.1512 251.788 74.8758 252.543C75.6077 253.305 76.6324 253.6 77.7572 253.6V252.6ZM74.8772 249.6H75.8772V214.08H74.8772H73.8772V249.6H74.8772ZM74.8772 214.08V213.08H51.3572V214.08V215.08H74.8772V214.08ZM51.3572 214.08H50.3572V249.6H51.3572H52.3572V214.08H51.3572ZM51.3572 249.6H50.3572C50.3572 250.456 50.1512 250.912 49.9158 251.157C49.6877 251.395 49.2724 251.6 48.4772 251.6V252.6V253.6C49.602 253.6 50.6266 253.305 51.3586 252.543C52.0832 251.788 52.3572 250.744 52.3572 249.6H51.3572ZM48.4772 252.6V251.6H39.3572V252.6V253.6H48.4772V252.6ZM110.23 246.6L109.529 247.313L109.535 247.319L110.23 246.6ZM110.23 171L109.535 170.281L109.529 170.287L110.23 171ZM150.19 171L149.489 171.713L149.495 171.719L150.19 171ZM150.19 246.6L149.495 245.881L149.489 245.887L150.19 246.6ZM139.51 237.36L140.231 238.054L140.237 238.047L140.243 238.04L139.51 237.36ZM139.51 180.36L138.778 181.04L138.784 181.047L138.79 181.054L139.51 180.36ZM121.03 180.36L121.751 181.054L121.757 181.047L121.763 181.04L121.03 180.36ZM121.03 237.36L120.298 238.04L120.304 238.047L120.31 238.054L121.03 237.36ZM130.27 253.8V252.8C122.07 252.8 115.66 250.463 110.926 245.881L110.23 246.6L109.535 247.319C114.72 252.337 121.67 254.8 130.27 254.8V253.8ZM110.23 246.6L110.932 245.887C106.286 241.318 103.91 234.96 103.91 226.68H102.91H101.91C101.91 235.36 104.414 242.282 109.529 247.313L110.23 246.6ZM102.91 226.68H103.91V190.92H102.91H101.91V226.68H102.91ZM102.91 190.92H103.91C103.91 182.64 106.286 176.282 110.932 171.713L110.23 171L109.529 170.287C104.414 175.318 101.91 182.24 101.91 190.92H102.91ZM110.23 171L110.926 171.719C115.66 167.137 122.07 164.8 130.27 164.8V163.8V162.8C121.67 162.8 114.72 165.263 109.535 170.281L110.23 171ZM130.27 163.8V164.8C138.471 164.8 144.837 167.137 149.489 171.713L150.19 171L150.892 170.287C145.784 165.263 138.869 162.8 130.27 162.8V163.8ZM150.19 171L149.495 171.719C154.219 176.29 156.63 182.608 156.63 190.8H157.63H158.63C158.63 182.192 156.081 175.309 150.886 170.281L150.19 171ZM157.63 190.8H156.63V226.68H157.63H158.63V190.8H157.63ZM157.63 226.68H156.63C156.63 234.955 154.217 241.311 149.495 245.881L150.19 246.6L150.886 247.319C156.083 242.289 158.63 235.365 158.63 226.68H157.63ZM150.19 246.6L149.489 245.887C144.837 250.463 138.471 252.8 130.27 252.8V253.8V254.8C138.869 254.8 145.784 252.337 150.892 247.313L150.19 246.6ZM130.27 240.6V241.6C134.521 241.6 137.902 240.472 140.231 238.054L139.51 237.36L138.79 236.666C136.959 238.568 134.18 239.6 130.27 239.6V240.6ZM139.51 237.36L140.243 238.04C142.546 235.561 143.63 232.126 143.63 227.88H142.63H141.63C141.63 231.794 140.635 234.679 138.778 236.68L139.51 237.36ZM142.63 227.88H143.63V189.72H142.63H141.63V227.88H142.63ZM142.63 189.72H143.63C143.63 185.476 142.547 182.071 140.231 179.666L139.51 180.36L138.79 181.054C140.634 182.968 141.63 185.804 141.63 189.72H142.63ZM139.51 180.36L140.243 179.68C137.917 177.174 134.531 176 130.27 176V177V178C134.17 178 136.944 179.066 138.778 181.04L139.51 180.36ZM130.27 177V176C126.01 176 122.624 177.174 120.298 179.68L121.03 180.36L121.763 181.04C123.597 179.066 126.371 178 130.27 178V177ZM121.03 180.36L120.31 179.666C117.994 182.071 116.91 185.476 116.91 189.72H117.91H118.91C118.91 185.804 119.907 182.968 121.751 181.054L121.03 180.36ZM117.91 189.72H116.91V227.88H117.91H118.91V189.72H117.91ZM117.91 227.88H116.91C116.91 232.126 117.995 235.561 120.298 238.04L121.03 237.36L121.763 236.68C119.906 234.679 118.91 231.794 118.91 227.88H117.91ZM121.03 237.36L120.31 238.054C122.639 240.472 126.02 241.6 130.27 241.6V240.6V239.6C126.361 239.6 123.582 238.568 121.751 236.666L121.03 237.36ZM217.583 171.12L216.948 171.892L216.954 171.897L217.583 171.12ZM220.943 199.92L220.168 199.289L220.163 199.294L220.159 199.3L220.943 199.92ZM210.263 206.16L210.102 205.173L209.263 205.31V206.16H210.263ZM210.263 206.4H209.263V207.285L210.142 207.393L210.263 206.4ZM219.023 210L218.408 210.788L218.416 210.794L218.423 210.8L219.023 210ZM225.023 217.56L224.115 217.979L224.12 217.988L225.023 217.56ZM223.703 240.84L224.554 241.365V241.365L223.703 240.84ZM213.863 249.6L214.29 250.504L214.297 250.501L214.304 250.498L213.863 249.6ZM185.303 201.12H184.303V202.12H185.303V201.12ZM206.663 198L207.331 198.745L207.338 198.738L207.345 198.732L206.663 198ZM206.663 180.72L205.969 181.44L205.982 181.452L205.996 181.465L206.663 180.72ZM208.343 236.64L209.027 237.37L209.027 237.37L208.343 236.64ZM208.343 217.08L207.625 217.776L207.636 217.787L207.648 217.798L208.343 217.08ZM185.303 213.24V212.24H184.303V213.24H185.303ZM173.663 252.6V251.6C172.818 251.6 172.367 251.389 172.121 251.143C171.874 250.897 171.663 250.446 171.663 249.6H170.663H169.663C169.663 250.754 169.953 251.803 170.706 252.557C171.46 253.311 172.509 253.6 173.663 253.6V252.6ZM170.663 249.6H171.663V168H170.663H169.663V249.6H170.663ZM170.663 168H171.663C171.663 167.154 171.874 166.703 172.121 166.457C172.367 166.211 172.818 166 173.663 166V165V164C172.509 164 171.46 164.289 170.706 165.043C169.953 165.797 169.663 166.846 169.663 168H170.663ZM173.663 165V166H197.543V165V164H173.663V165ZM197.543 165V166C205.784 166 212.216 168 216.948 171.892L217.583 171.12L218.219 170.348C213.031 166.08 206.103 164 197.543 164V165ZM217.583 171.12L216.954 171.897C221.744 175.774 224.143 180.961 224.143 187.56H225.143H226.143C226.143 180.399 223.503 174.626 218.213 170.343L217.583 171.12ZM225.143 187.56H224.143C224.143 192.15 222.81 196.042 220.168 199.289L220.943 199.92L221.719 200.551C224.676 196.918 226.143 192.57 226.143 187.56H225.143ZM220.943 199.92L220.159 199.3C217.597 202.541 214.26 204.493 210.102 205.173L210.263 206.16L210.425 207.147C215.066 206.387 218.85 204.179 221.728 200.54L220.943 199.92ZM210.263 206.16H209.263V206.4H210.263H211.263V206.16H210.263ZM210.263 206.4L210.142 207.393C213.245 207.771 215.994 208.902 218.408 210.788L219.023 210L219.639 209.212C216.933 207.098 213.842 205.829 210.384 205.407L210.263 206.4ZM219.023 210L218.423 210.8C220.841 212.613 222.74 214.998 224.115 217.979L225.023 217.56L225.931 217.141C224.427 213.882 222.326 211.227 219.623 209.2L219.023 210ZM225.023 217.56L224.12 217.988C225.491 220.882 226.183 224.094 226.183 227.64H227.183H228.183C228.183 223.826 227.436 220.318 225.927 217.132L225.023 217.56ZM227.183 227.64H226.183C226.183 232.521 225.062 236.734 222.852 240.315L223.703 240.84L224.554 241.365C226.985 237.426 228.183 232.839 228.183 227.64H227.183ZM223.703 240.84L222.852 240.315C220.638 243.903 217.506 246.699 213.423 248.702L213.863 249.6L214.304 250.498C218.701 248.341 222.129 245.297 224.554 241.365L223.703 240.84ZM213.863 249.6L213.437 248.696C209.357 250.62 204.509 251.6 198.863 251.6V252.6V253.6C204.738 253.6 209.89 252.58 214.29 250.504L213.863 249.6ZM198.863 252.6V251.6H173.663V252.6V253.6H198.863V252.6ZM185.303 201.12V202.12H197.303V201.12V200.12H185.303V201.12ZM197.303 201.12V202.12C201.404 202.12 204.784 201.028 207.331 198.745L206.663 198L205.996 197.255C203.903 199.132 201.043 200.12 197.303 200.12V201.12ZM206.663 198L207.345 198.732C209.901 196.352 211.143 193.149 211.143 189.24H210.143H209.143C209.143 192.691 208.066 195.328 205.982 197.268L206.663 198ZM210.143 189.24H211.143C211.143 185.404 209.896 182.275 207.331 179.975L206.663 180.72L205.996 181.465C208.071 183.325 209.143 185.875 209.143 189.24H210.143ZM206.663 180.72L207.358 180C204.882 177.613 201.485 176.48 197.303 176.48V177.48V178.48C201.121 178.48 203.965 179.507 205.969 181.44L206.663 180.72ZM197.303 177.48V176.48H188.183V177.48V178.48H197.303V177.48ZM188.183 177.48V176.48C187.059 176.48 186.034 176.775 185.302 177.537C184.577 178.292 184.303 179.336 184.303 180.48H185.303H186.303C186.303 179.624 186.509 179.168 186.745 178.923C186.973 178.685 187.388 178.48 188.183 178.48V177.48ZM185.303 180.48H184.303V201.12H185.303H186.303V180.48H185.303ZM185.303 237.12H184.303C184.303 238.264 184.577 239.308 185.302 240.062C186.034 240.825 187.059 241.12 188.183 241.12V240.12V239.12C187.388 239.12 186.973 238.915 186.745 238.677C186.509 238.432 186.303 237.976 186.303 237.12H185.303ZM188.183 240.12V241.12H198.023V240.12V239.12H188.183V240.12ZM198.023 240.12V241.12C202.6 241.12 206.312 239.91 209.027 237.37L208.343 236.64L207.66 235.91C205.415 238.01 202.247 239.12 198.023 239.12V240.12ZM208.343 236.64L209.027 237.37C211.822 234.749 213.183 231.227 213.183 226.92H212.183H211.183C211.183 230.773 209.985 233.731 207.659 235.91L208.343 236.64ZM212.183 226.92H213.183C213.183 222.612 211.822 219.058 209.039 216.362L208.343 217.08L207.648 217.798C209.984 220.062 211.183 223.068 211.183 226.92H212.183ZM208.343 217.08L209.062 216.384C206.351 213.586 202.626 212.24 198.023 212.24V213.24V214.24C202.22 214.24 205.376 215.454 207.625 217.776L208.343 217.08ZM198.023 213.24V212.24H185.303V213.24V214.24H198.023V213.24ZM185.303 213.24H184.303V237.12H185.303H186.303V213.24H185.303ZM249.337 252.6L248.408 252.228L247.858 253.6H249.337V252.6ZM258.337 230.16L259.265 230.532L259.412 230.164L259.268 229.795L258.337 230.16ZM232.777 165V164H231.31L231.846 165.365L232.777 165ZM249.097 165L250.043 164.677L249.812 164H249.097V165ZM262.297 203.64L261.35 203.963L261.355 203.976L262.297 203.64ZM264.337 210.72L263.361 210.94L263.365 210.959L263.37 210.978L264.337 210.72ZM265.537 216.6L264.542 216.705H266.531L265.537 216.6ZM266.497 210.72L265.521 210.5L265.518 210.512L265.516 210.524L266.497 210.72ZM268.297 203.64L267.342 203.341L267.339 203.353L267.335 203.365L268.297 203.64ZM280.417 165V164H279.682L279.462 164.701L280.417 165ZM296.377 165L297.319 165.335L297.794 164H296.377V165ZM265.177 252.6V253.6H265.882L266.119 252.936L265.177 252.6ZM249.337 252.6L250.265 252.972L259.265 230.532L258.337 230.16L257.408 229.788L248.408 252.228L249.337 252.6ZM258.337 230.16L259.268 229.795L233.708 164.635L232.777 165L231.846 165.365L257.406 230.525L258.337 230.16ZM232.777 165V166H249.097V165V164H232.777V165ZM249.097 165L248.15 165.323L261.35 203.963L262.297 203.64L263.243 203.317L250.043 164.677L249.097 165ZM262.297 203.64L261.355 203.976C262.14 206.176 262.809 208.497 263.361 210.94L264.337 210.72L265.312 210.5C264.744 207.983 264.053 205.584 263.238 203.304L262.297 203.64ZM264.337 210.72L263.37 210.978C264.004 213.354 264.39 215.258 264.542 216.705L265.537 216.6L266.531 216.495C266.363 214.902 265.949 212.886 265.303 210.462L264.337 210.72ZM265.537 216.6L266.531 216.705C266.687 215.228 267 213.301 267.477 210.916L266.497 210.72L265.516 210.524C265.033 212.938 264.707 214.932 264.542 216.495L265.537 216.6ZM266.497 210.72L267.472 210.94C268.028 208.477 268.624 206.135 269.258 203.915L268.297 203.64L267.335 203.365C266.689 205.625 266.085 208.003 265.521 210.5L266.497 210.72ZM268.297 203.64L269.251 203.939L281.371 165.299L280.417 165L279.462 164.701L267.342 203.341L268.297 203.64ZM280.417 165V166H296.377V165V164H280.417V165ZM296.377 165L295.435 164.664L264.235 252.264L265.177 252.6L266.119 252.936L297.319 165.335L296.377 165ZM265.177 252.6V251.6H249.337V252.6V253.6H265.177V252.6ZM329.81 247.8L329.066 248.469L329.074 248.477L329.81 247.8ZM324.41 213.24H325.41V212.24H324.41V213.24ZM314.57 213.24V212.24H313.57V213.24H314.57ZM314.57 252.6V253.6H315.57V252.6H314.57ZM301.37 252.6H300.37V253.6H301.37V252.6ZM301.37 165V164H300.37V165H301.37ZM314.57 165H315.57V164H314.57V165ZM314.57 201.24H313.57V202.24H314.57V201.24ZM324.41 201.24V202.24H325.41V201.24H324.41ZM329.81 169.8L329.074 169.123L329.073 169.124L329.81 169.8ZM359.09 169.8L358.354 170.477L358.361 170.484L359.09 169.8ZM359.09 247.8L358.354 247.123V247.123L359.09 247.8ZM349.37 239.88L348.578 239.269L348.574 239.274L349.37 239.88ZM349.37 177.84L348.561 178.428L348.576 178.449L348.592 178.469L349.37 177.84ZM338.33 177.84L337.538 177.229L337.534 177.234L338.33 177.84ZM338.33 239.88L337.521 240.468L337.536 240.489L337.552 240.509L338.33 239.88ZM344.33 253.8V252.8C338.577 252.8 334.015 250.894 330.546 247.123L329.81 247.8L329.074 248.477C332.964 252.705 338.082 254.8 344.33 254.8V253.8ZM329.81 247.8L330.553 247.131C327.153 243.353 325.41 238.33 325.41 231.96H324.41H323.41C323.41 238.71 325.267 244.247 329.066 248.469L329.81 247.8ZM324.41 231.96H325.41V213.24H324.41H323.41V231.96H324.41ZM324.41 213.24V212.24H314.57V213.24V214.24H324.41V213.24ZM314.57 213.24H313.57V252.6H314.57H315.57V213.24H314.57ZM314.57 252.6V251.6H301.37V252.6V253.6H314.57V252.6ZM301.37 252.6H302.37V165H301.37H300.37V252.6H301.37ZM301.37 165V166H314.57V165V164H301.37V165ZM314.57 165H313.57V201.24H314.57H315.57V165H314.57ZM314.57 201.24V202.24H324.41V201.24V200.24H314.57V201.24ZM324.41 201.24H325.41V185.52H324.41H323.41V201.24H324.41ZM324.41 185.52H325.41C325.41 179.149 327.153 174.171 330.546 170.476L329.81 169.8L329.073 169.124C325.267 173.269 323.41 178.77 323.41 185.52H324.41ZM329.81 169.8L330.546 170.477C334.015 166.706 338.577 164.8 344.33 164.8V163.8V162.8C338.082 162.8 332.964 164.894 329.074 169.123L329.81 169.8ZM344.33 163.8V164.8C350.251 164.8 354.889 166.711 358.354 170.477L359.09 169.8L359.826 169.123C355.93 164.889 350.728 162.8 344.33 162.8V163.8ZM359.09 169.8L358.361 170.484C361.83 174.18 363.61 179.155 363.61 185.52H364.61H365.61C365.61 178.765 363.709 173.26 359.819 169.116L359.09 169.8ZM364.61 185.52H363.61V231.96H364.61H365.61V185.52H364.61ZM364.61 231.96H363.61C363.61 238.324 361.83 243.344 358.354 247.123L359.09 247.8L359.826 248.477C363.709 244.256 365.61 238.716 365.61 231.96H364.61ZM359.09 247.8L358.354 247.123C354.889 250.889 350.251 252.8 344.33 252.8V253.8V254.8C350.728 254.8 355.93 252.711 359.826 248.477L359.09 247.8ZM343.97 242.4V243.4C346.566 243.4 348.676 242.441 350.165 240.486L349.37 239.88L348.574 239.274C347.504 240.679 346.013 241.4 343.97 241.4V242.4ZM349.37 239.88L350.161 240.491C351.698 238.502 352.41 235.861 352.41 232.68H351.41H350.41C350.41 235.579 349.761 237.738 348.578 239.269L349.37 239.88ZM351.41 232.68H352.41V184.92H351.41H350.41V232.68H351.41ZM351.41 184.92H352.41C352.41 181.742 351.7 179.129 350.147 177.211L349.37 177.84L348.592 178.469C349.76 179.911 350.41 182.017 350.41 184.92H351.41ZM349.37 177.84L350.178 177.252C348.696 175.214 346.585 174.2 343.97 174.2V175.2V176.2C345.994 176.2 347.483 176.946 348.561 178.428L349.37 177.84ZM343.97 175.2V174.2C341.288 174.2 339.104 175.202 337.538 177.229L338.33 177.84L339.121 178.451C340.275 176.958 341.851 176.2 343.97 176.2V175.2ZM338.33 177.84L337.534 177.234C336.074 179.15 335.41 181.754 335.41 184.92H336.41H337.41C337.41 182.006 338.025 179.89 339.125 178.446L338.33 177.84ZM336.41 184.92H335.41V232.68H336.41H337.41V184.92H336.41ZM336.41 232.68H335.41C335.41 235.85 336.076 238.481 337.521 240.468L338.33 239.88L339.138 239.292C338.023 237.759 337.41 235.59 337.41 232.68H336.41ZM338.33 239.88L337.552 240.509C339.125 242.452 341.306 243.4 343.97 243.4V242.4V241.4C341.834 241.4 340.254 240.668 339.107 239.251L338.33 239.88ZM47.3006 253.12L46.6653 253.892L46.6714 253.897L47.3006 253.12ZM50.6606 281.92L49.8851 281.289L49.8806 281.294L49.8762 281.3L50.6606 281.92ZM39.9806 288.16L39.8191 287.173L38.9806 287.31V288.16H39.9806ZM39.9806 288.4H38.9806V289.285L39.8596 289.393L39.9806 288.4ZM48.7406 292L48.125 292.788L48.1328 292.794L48.1406 292.8L48.7406 292ZM54.7406 299.56L53.8326 299.979L53.8369 299.988L54.7406 299.56ZM53.4206 322.84L54.2717 323.365V323.365L53.4206 322.84ZM43.5806 331.6L44.0072 332.504L44.0142 332.501L44.021 332.498L43.5806 331.6ZM15.0206 283.12H14.0206V284.12H15.0206V283.12ZM36.3806 280L37.0482 280.745L37.0552 280.738L37.062 280.732L36.3806 280ZM36.3806 262.72L35.6865 263.44L35.6996 263.452L35.7131 263.465L36.3806 262.72ZM38.0606 318.64L38.7438 319.37L38.7446 319.37L38.0606 318.64ZM38.0606 299.08L37.3424 299.776L37.3534 299.787L37.3648 299.798L38.0606 299.08ZM15.0206 295.24V294.24H14.0206V295.24H15.0206ZM3.38063 334.6V333.6C2.53477 333.6 2.08405 333.389 1.83773 333.143C1.59141 332.897 1.38063 332.446 1.38063 331.6H0.380627H-0.619373C-0.619373 332.754 -0.330162 333.803 0.423519 334.557C1.1772 335.311 2.22648 335.6 3.38063 335.6V334.6ZM0.380627 331.6H1.38063V250H0.380627H-0.619373V331.6H0.380627ZM0.380627 250H1.38063C1.38063 249.154 1.59141 248.703 1.83773 248.457C2.08405 248.211 2.53477 248 3.38063 248V247V246C2.22648 246 1.1772 246.289 0.423519 247.043C-0.330162 247.797 -0.619373 248.846 -0.619373 250H0.380627ZM3.38063 247V248H27.2606V247V246H3.38063V247ZM27.2606 247V248C35.5011 248 41.9331 250 46.6654 253.892L47.3006 253.12L47.9359 252.348C42.7482 248.08 35.8202 246 27.2606 246V247ZM47.3006 253.12L46.6714 253.897C51.4609 257.774 53.8606 262.961 53.8606 269.56H54.8606H55.8606C55.8606 262.399 53.2203 256.626 47.9298 252.343L47.3006 253.12ZM54.8606 269.56H53.8606C53.8606 274.15 52.5276 278.042 49.8851 281.289L50.6606 281.92L51.4362 282.551C54.3936 278.918 55.8606 274.57 55.8606 269.56H54.8606ZM50.6606 281.92L49.8762 281.3C47.3137 284.541 43.9776 286.493 39.8191 287.173L39.9806 288.16L40.1421 289.147C44.7837 288.387 48.5676 286.179 51.445 282.54L50.6606 281.92ZM39.9806 288.16H38.9806V288.4H39.9806H40.9806V288.16H39.9806ZM39.9806 288.4L39.8596 289.393C42.9624 289.771 45.7108 290.902 48.125 292.788L48.7406 292L49.3563 291.212C46.6505 289.098 43.5588 287.829 40.1017 287.407L39.9806 288.4ZM48.7406 292L48.1406 292.8C50.5583 294.613 52.4569 296.998 53.8327 299.979L54.7406 299.56L55.6486 299.141C54.1444 295.882 52.043 293.227 49.3406 291.2L48.7406 292ZM54.7406 299.56L53.8369 299.988C55.2077 302.882 55.9006 306.094 55.9006 309.64H56.9006H57.9006C57.9006 305.826 57.1535 302.318 55.6444 299.132L54.7406 299.56ZM56.9006 309.64H55.9006C55.9006 314.521 54.7791 318.734 52.5696 322.315L53.4206 322.84L54.2717 323.365C56.7022 319.426 57.9006 314.839 57.9006 309.64H56.9006ZM53.4206 322.84L52.5696 322.315C50.3555 325.903 47.2231 328.699 43.1402 330.702L43.5806 331.6L44.021 332.498C48.4181 330.341 51.8458 327.297 54.2717 323.365L53.4206 322.84ZM43.5806 331.6L43.154 330.696C39.0744 332.62 34.2261 333.6 28.5806 333.6V334.6V335.6C34.4551 335.6 39.6069 334.58 44.0072 332.504L43.5806 331.6ZM28.5806 334.6V333.6H3.38063V334.6V335.6H28.5806V334.6ZM15.0206 283.12V284.12H27.0206V283.12V282.12H15.0206V283.12ZM27.0206 283.12V284.12C31.1211 284.12 34.5009 283.028 37.0482 280.745L36.3806 280L35.7131 279.255C33.6203 281.132 30.7602 282.12 27.0206 282.12V283.12ZM36.3806 280L37.062 280.732C39.6184 278.352 40.8606 275.149 40.8606 271.24H39.8606H38.8606C38.8606 274.691 37.7828 277.328 35.6992 279.268L36.3806 280ZM39.8606 271.24H40.8606C40.8606 267.404 39.6135 264.275 37.0482 261.975L36.3806 262.72L35.7131 263.465C37.7878 265.325 38.8606 267.875 38.8606 271.24H39.8606ZM36.3806 262.72L37.0748 262C34.5995 259.613 31.2026 258.48 27.0206 258.48V259.48V260.48C30.8386 260.48 33.6817 261.507 35.6865 263.44L36.3806 262.72ZM27.0206 259.48V258.48H17.9006V259.48V260.48H27.0206V259.48ZM17.9006 259.48V258.48C16.7759 258.48 15.7512 258.775 15.0192 259.537C14.2946 260.292 14.0206 261.336 14.0206 262.48H15.0206H16.0206C16.0206 261.624 16.2266 261.168 16.462 260.922C16.6901 260.685 17.1054 260.48 17.9006 260.48V259.48ZM15.0206 262.48H14.0206V283.12H15.0206H16.0206V262.48H15.0206ZM15.0206 319.12H14.0206C14.0206 320.264 14.2946 321.308 15.0192 322.062C15.7512 322.825 16.7759 323.12 17.9006 323.12V322.12V321.12C17.1054 321.12 16.6901 320.915 16.462 320.677C16.2266 320.432 16.0206 319.976 16.0206 319.12H15.0206ZM17.9006 322.12V323.12H27.7406V322.12V321.12H17.9006V322.12ZM27.7406 322.12V323.12C32.3168 323.12 36.0288 321.91 38.7438 319.37L38.0606 318.64L37.3775 317.91C35.1325 320.01 31.9644 321.12 27.7406 321.12V322.12ZM38.0606 318.64L38.7446 319.37C41.5395 316.749 42.9006 313.227 42.9006 308.92H41.9006H40.9006C40.9006 312.773 39.7018 315.731 37.3767 317.91L38.0606 318.64ZM41.9006 308.92H42.9006C42.9006 304.612 41.5396 301.058 38.7564 298.362L38.0606 299.08L37.3648 299.798C39.7017 302.062 40.9006 305.068 40.9006 308.92H41.9006ZM38.0606 299.08L38.7789 298.384C36.0681 295.586 32.3437 294.24 27.7406 294.24V295.24V296.24C31.9376 296.24 35.0931 297.454 37.3424 299.776L38.0606 299.08ZM27.7406 295.24V294.24H15.0206V295.24V296.24H27.7406V295.24ZM15.0206 295.24H14.0206V319.12H15.0206H16.0206V295.24H15.0206ZM83.6137 283H82.6137V284H83.6137V283ZM83.6137 295.72V294.72H82.6137V295.72H83.6137ZM71.8537 334.6V333.6C71.0079 333.6 70.5572 333.389 70.3109 333.143C70.0645 332.897 69.8537 332.446 69.8537 331.6H68.8537H67.8537C67.8537 332.754 68.143 333.803 68.8966 334.557C69.6503 335.311 70.6996 335.6 71.8537 335.6V334.6ZM68.8537 331.6H69.8537V250H68.8537H67.8537V331.6H68.8537ZM68.8537 250H69.8537C69.8537 249.154 70.0645 248.703 70.3109 248.457C70.5572 248.211 71.0079 248 71.8537 248V247V246C70.6996 246 69.6503 246.289 68.8966 247.043C68.143 247.797 67.8537 248.846 67.8537 250H68.8537ZM71.8537 247V248H118.414V247V246H71.8537V247ZM118.414 247V248C119.26 248 119.71 248.211 119.957 248.457C120.203 248.703 120.414 249.154 120.414 250H121.414H122.414C122.414 248.846 122.125 247.797 121.371 247.043C120.617 246.289 119.568 246 118.414 246V247ZM121.414 250H120.414V257.2H121.414H122.414V250H121.414ZM121.414 257.2H120.414C120.414 258.046 120.203 258.497 119.957 258.743C119.71 258.989 119.26 259.2 118.414 259.2V260.2V261.2C119.568 261.2 120.617 260.911 121.371 260.157C122.125 259.403 122.414 258.354 122.414 257.2H121.414ZM118.414 260.2V259.2H86.6137V260.2V261.2H118.414V260.2ZM86.6137 260.2V259.2C85.4596 259.2 84.4103 259.489 83.6566 260.243C82.903 260.997 82.6137 262.046 82.6137 263.2H83.6137H84.6137C84.6137 262.354 84.8245 261.903 85.0709 261.657C85.3172 261.411 85.7679 261.2 86.6137 261.2V260.2ZM83.6137 263.2H82.6137V283H83.6137H84.6137V263.2H83.6137ZM83.6137 283V284H114.214V283V282H83.6137V283ZM114.214 283V284C115.07 284 115.526 284.206 115.771 284.441C116.009 284.669 116.214 285.085 116.214 285.88H117.214H118.214C118.214 284.755 117.919 283.73 117.156 282.999C116.401 282.274 115.358 282 114.214 282V283ZM117.214 285.88H116.214V292.72H117.214H118.214V285.88H117.214ZM117.214 292.72H116.214C116.214 293.566 116.003 294.017 115.757 294.263C115.51 294.509 115.06 294.72 114.214 294.72V295.72V296.72C115.368 296.72 116.417 296.431 117.171 295.677C117.925 294.923 118.214 293.874 118.214 292.72H117.214ZM114.214 295.72V294.72H83.6137V295.72V296.72H114.214V295.72ZM83.6137 295.72H82.6137V318.4H83.6137H84.6137V295.72H83.6137ZM83.6137 318.4H82.6137C82.6137 319.554 82.903 320.603 83.6566 321.357C84.4103 322.111 85.4596 322.4 86.6137 322.4V321.4V320.4C85.7679 320.4 85.3172 320.189 85.0709 319.943C84.8245 319.697 84.6137 319.246 84.6137 318.4H83.6137ZM86.6137 321.4V322.4H118.414V321.4V320.4H86.6137V321.4ZM118.414 321.4V322.4C119.26 322.4 119.71 322.611 119.957 322.857C120.203 323.103 120.414 323.554 120.414 324.4H121.414H122.414C122.414 323.246 122.125 322.197 121.371 321.443C120.617 320.689 119.568 320.4 118.414 320.4V321.4ZM121.414 324.4H120.414V331.6H121.414H122.414V324.4H121.414ZM121.414 331.6H120.414C120.414 332.446 120.203 332.897 119.957 333.143C119.71 333.389 119.26 333.6 118.414 333.6V334.6V335.6C119.568 335.6 120.617 335.311 121.371 334.557C122.125 333.803 122.414 332.754 122.414 331.6H121.414ZM118.414 334.6V333.6H71.8537V334.6V335.6H118.414V334.6ZM179.087 250.36L178.627 251.248L178.633 251.251L179.087 250.36ZM189.287 259.84L188.425 260.347L188.429 260.354L189.287 259.84ZM189.287 288.28L190.144 288.794L190.149 288.787L189.287 288.28ZM179.087 297.64L178.633 296.749L178.627 296.752L179.087 297.64ZM149.687 301V300H148.687V301H149.687ZM149.687 287.8H148.687V288.8H149.687V287.8ZM173.927 283.96L173.209 283.264V283.264L173.927 283.96ZM173.927 264.04L173.209 264.736V264.736L173.927 264.04ZM137.567 334.6V333.6C136.772 333.6 136.356 333.395 136.128 333.157C135.893 332.912 135.687 332.456 135.687 331.6H134.687H133.687C133.687 332.744 133.961 333.788 134.685 334.543C135.417 335.305 136.442 335.6 137.567 335.6V334.6ZM134.687 331.6H135.687V250H134.687H133.687V331.6H134.687ZM134.687 250H135.687C135.687 249.144 135.893 248.688 136.128 248.443C136.356 248.205 136.772 248 137.567 248V247V246C136.442 246 135.417 246.295 134.685 247.057C133.961 247.812 133.687 248.856 133.687 250H134.687ZM137.567 247V248H163.847V247V246H137.567V247ZM163.847 247V248C169.558 248 174.475 249.095 178.627 251.248L179.087 250.36L179.547 249.472C175.059 247.145 169.815 246 163.847 246V247ZM179.087 250.36L178.633 251.251C182.871 253.409 186.126 256.439 188.425 260.347L189.287 259.84L190.149 259.333C187.648 255.081 184.103 251.791 179.541 249.469L179.087 250.36ZM189.287 259.84L188.429 260.354C190.722 264.175 191.887 268.711 191.887 274H192.887H193.887C193.887 268.409 192.652 263.505 190.144 259.325L189.287 259.84ZM192.887 274H191.887C191.887 279.289 190.722 283.868 188.425 287.773L189.287 288.28L190.149 288.787C192.652 284.532 193.887 279.591 193.887 274H192.887ZM189.287 288.28L188.429 287.765C186.132 291.595 182.876 294.589 178.633 296.749L179.087 297.64L179.541 298.531C184.098 296.211 187.642 292.965 190.144 288.794L189.287 288.28ZM179.087 297.64L178.627 296.752C174.475 298.905 169.558 300 163.847 300V301V302C169.815 302 175.059 300.855 179.547 298.528L179.087 297.64ZM163.847 301V300H149.687V301V302H163.847V301ZM149.687 301H148.687V331.6H149.687H150.687V301H149.687ZM149.687 331.6H148.687C148.687 332.446 148.476 332.897 148.23 333.143C147.983 333.389 147.533 333.6 146.687 333.6V334.6V335.6C147.841 335.6 148.89 335.311 149.644 334.557C150.398 333.803 150.687 332.754 150.687 331.6H149.687ZM146.687 334.6V333.6H137.567V334.6V335.6H146.687V334.6ZM149.687 287.8V288.8H163.847V287.8V286.8H149.687V287.8ZM163.847 287.8V288.8C168.302 288.8 171.941 287.447 174.645 284.656L173.927 283.96L173.209 283.264C170.952 285.593 167.872 286.8 163.847 286.8V287.8ZM173.927 283.96L174.645 284.656C177.332 281.882 178.647 278.299 178.647 274H177.647H176.647C176.647 277.861 175.482 280.918 173.209 283.264L173.927 283.96ZM177.647 274H178.647C178.647 269.701 177.332 266.118 174.645 263.344L173.927 264.04L173.209 264.736C175.482 267.082 176.647 270.139 176.647 274H177.647ZM173.927 264.04L174.645 263.344C171.941 260.553 168.302 259.2 163.847 259.2V260.2V261.2C167.872 261.2 170.952 262.407 173.209 264.736L173.927 264.04ZM163.847 260.2V259.2H152.687V260.2V261.2H163.847V260.2ZM152.687 260.2V259.2C151.543 259.2 150.499 259.474 149.744 260.199C148.982 260.931 148.687 261.955 148.687 263.08H149.687H150.687C150.687 262.285 150.892 261.869 151.129 261.641C151.375 261.406 151.831 261.2 152.687 261.2V260.2ZM149.687 263.08H148.687V287.8H149.687H150.687V263.08H149.687ZM214.8 332.68L214.339 333.567L214.346 333.571L214.353 333.574L214.8 332.68ZM205.08 323.68L204.212 324.176L204.218 324.187L204.224 324.197L205.08 323.68ZM205.08 258.04L204.219 257.531L204.216 257.536L205.08 258.04ZM214.8 249.04L215.247 249.934L215.254 249.931L215.261 249.927L214.8 249.04ZM248.76 252.04L248.117 252.806L248.125 252.812L248.76 252.04ZM257.16 268.6L258.157 268.523L258.156 268.516L258.156 268.508L257.16 268.6ZM242.04 268.84L241.051 268.985L241.052 268.995L241.054 269.004L242.04 268.84ZM220.08 262.36L220.774 263.08L220.781 263.073L220.787 263.067L220.08 262.36ZM220.08 319.36L219.373 320.067L219.379 320.074L219.386 320.08L220.08 319.36ZM242.04 312.76L241.054 312.596L241.052 312.605L241.051 312.615L242.04 312.76ZM257.28 312.76L258.276 312.851L258.278 312.826L258.279 312.802L257.28 312.76ZM248.88 329.56L248.237 328.794V328.794L248.88 329.56ZM229.56 335.8V334.8C224.001 334.8 219.241 333.782 215.247 331.786L214.8 332.68L214.353 333.574C218.679 335.738 223.759 336.8 229.56 336.8V335.8ZM214.8 332.68L215.261 331.792C211.256 329.713 208.156 326.838 205.936 323.163L205.08 323.68L204.224 324.197C206.644 328.202 210.024 331.327 214.339 333.567L214.8 332.68ZM205.08 323.68L205.948 323.184C203.808 319.439 202.72 315.016 202.72 309.88H201.72H200.72C200.72 315.304 201.872 320.081 204.212 324.176L205.08 323.68ZM201.72 309.88H202.72V271.72H201.72H200.72V309.88H201.72ZM201.72 271.72H202.72C202.72 266.584 203.808 262.204 205.944 258.544L205.08 258.04L204.216 257.536C201.872 261.556 200.72 266.296 200.72 271.72H201.72ZM205.08 258.04L205.941 258.549C208.161 254.798 211.255 251.93 215.247 249.934L214.8 249.04L214.353 248.146C210.025 250.31 206.639 253.442 204.219 257.531L205.08 258.04ZM214.8 249.04L215.261 249.927C219.251 247.855 224.007 246.8 229.56 246.8V245.8V244.8C223.753 244.8 218.669 245.904 214.339 248.152L214.8 249.04ZM229.56 245.8V246.8C237.217 246.8 243.373 248.827 248.117 252.806L248.76 252.04L249.403 251.274C244.227 246.933 237.583 244.8 229.56 244.8V245.8ZM248.76 252.04L248.125 252.812C252.859 256.707 255.546 261.972 256.164 268.692L257.16 268.6L258.156 268.508C257.494 261.308 254.581 255.533 249.395 251.268L248.76 252.04ZM257.16 268.6L256.163 268.677C256.232 269.572 256.042 270.026 255.825 270.262C255.609 270.496 255.173 270.72 254.28 270.72V271.72V272.72C255.467 272.72 256.551 272.424 257.295 271.618C258.038 270.814 258.248 269.708 258.157 268.523L257.16 268.6ZM254.28 271.72V270.72H245.28V271.72V272.72H254.28V271.72ZM245.28 271.72V270.72C244.536 270.72 244.066 270.529 243.754 270.253C243.436 269.97 243.162 269.488 243.026 268.676L242.04 268.84L241.054 269.004C241.238 270.112 241.664 271.07 242.426 271.747C243.194 272.431 244.184 272.72 245.28 272.72V271.72ZM242.04 268.84L243.029 268.695C242.522 265.229 241.147 262.51 238.819 260.675C236.505 258.85 233.379 258 229.56 258V259V260C233.101 260 235.735 260.79 237.581 262.245C239.413 263.69 240.598 265.891 241.051 268.985L242.04 268.84ZM229.56 259V258C225.295 258 221.85 259.176 219.373 261.653L220.08 262.36L220.787 263.067C222.79 261.064 225.665 260 229.56 260V259ZM220.08 262.36L219.386 261.64C216.895 264.042 215.72 267.457 215.72 271.72H216.72H217.72C217.72 267.823 218.785 264.998 220.774 263.08L220.08 262.36ZM216.72 271.72H215.72V309.88H216.72H217.72V271.72H216.72ZM216.72 309.88H215.72C215.72 314.145 216.896 317.59 219.373 320.067L220.08 319.36L220.787 318.653C218.784 316.65 217.72 313.775 217.72 309.88H216.72ZM220.08 319.36L219.386 320.08C221.865 322.47 225.304 323.6 229.56 323.6V322.6V321.6C225.656 321.6 222.775 320.57 220.774 318.64L220.08 319.36ZM229.56 322.6V323.6C233.379 323.6 236.505 322.75 238.819 320.925C241.147 319.09 242.522 316.371 243.029 312.905L242.04 312.76L241.051 312.615C240.598 315.709 239.413 317.91 237.581 319.355C235.735 320.81 233.101 321.6 229.56 321.6V322.6ZM242.04 312.76L243.026 312.924C243.162 312.112 243.436 311.63 243.754 311.347C244.066 311.071 244.536 310.88 245.28 310.88V309.88V308.88C244.184 308.88 243.194 309.169 242.426 309.853C241.664 310.53 241.238 311.488 241.054 312.596L242.04 312.76ZM245.28 309.88V310.88H254.28V309.88V308.88H245.28V309.88ZM254.28 309.88V310.88C255.189 310.88 255.659 311.092 255.897 311.321C256.12 311.535 256.314 311.93 256.281 312.718L257.28 312.76L258.279 312.802C258.326 311.67 258.06 310.625 257.283 309.879C256.521 309.148 255.451 308.88 254.28 308.88V309.88ZM257.28 312.76L256.284 312.669C255.666 319.473 252.975 324.82 248.237 328.794L248.88 329.56L249.523 330.326C254.705 325.98 257.614 320.127 258.276 312.851L257.28 312.76ZM248.88 329.56L248.237 328.794C243.495 332.771 237.299 334.8 229.56 334.8V335.8V336.8C237.661 336.8 244.345 334.669 249.523 330.326L248.88 329.56ZM268.393 334.6H267.393V335.6H268.393V334.6ZM268.393 247V246H267.393V247H268.393ZM282.073 247H283.073V246H282.073V247ZM281.833 299.32L282.832 299.366V299.366L281.833 299.32ZM281.233 309.4L280.236 309.327V309.327L281.233 309.4ZM280.633 317.8L279.635 317.731L281.58 318.122L280.633 317.8ZM304.753 247V246H304.037L303.807 246.677L304.753 247ZM323.113 247H324.113V246H323.113V247ZM323.113 334.6V335.6H324.113V334.6H323.113ZM309.433 334.6H308.433V335.6H309.433V334.6ZM309.673 283.48L308.675 283.413L308.675 283.424L308.674 283.436L309.673 283.48ZM310.393 272.92L311.391 272.99L311.391 272.988L310.393 272.92ZM311.113 263.8L312.109 263.893L310.168 263.475L311.113 263.8ZM286.753 334.6V335.6H287.467L287.699 334.925L286.753 334.6ZM268.393 334.6H269.393V247H268.393H267.393V334.6H268.393ZM268.393 247V248H282.073V247V246H268.393V247ZM282.073 247H281.073V289.84H282.073H283.073V247H282.073ZM282.073 289.84H281.073C281.073 292.702 280.994 295.846 280.834 299.273L281.833 299.32L282.832 299.366C282.993 295.914 283.073 292.738 283.073 289.84H282.073ZM281.833 299.32L280.834 299.273C280.675 302.705 280.475 306.056 280.236 309.327L281.233 309.4L282.23 309.473C282.471 306.184 282.672 302.815 282.832 299.366L281.833 299.32ZM281.233 309.4L280.236 309.327C279.996 312.608 279.796 315.409 279.635 317.731L280.633 317.8L281.631 317.869C281.791 315.551 281.991 312.752 282.23 309.473L281.233 309.4ZM280.633 317.8L281.58 318.122L305.7 247.322L304.753 247L303.807 246.677L279.687 317.478L280.633 317.8ZM304.753 247V248H323.113V247V246H304.753V247ZM323.113 247H322.113V334.6H323.113H324.113V247H323.113ZM323.113 334.6V333.6H309.433V334.6V335.6H323.113V334.6ZM309.433 334.6H310.433V293.08H309.433H308.433V334.6H309.433ZM309.433 293.08H310.433C310.433 290.298 310.513 287.114 310.672 283.524L309.673 283.48L308.674 283.436C308.514 287.046 308.433 290.262 308.433 293.08H309.433ZM309.673 283.48L310.671 283.546C310.911 279.947 311.151 276.428 311.391 272.99L310.393 272.92L309.396 272.85C309.155 276.291 308.915 279.812 308.675 283.413L309.673 283.48ZM310.393 272.92L311.391 272.988C311.63 269.474 311.87 266.442 312.109 263.893L311.113 263.8L310.117 263.707C309.876 266.277 309.636 269.326 309.395 272.852L310.393 272.92ZM311.113 263.8L310.168 263.475L285.808 334.275L286.753 334.6L287.699 334.925L312.059 264.125L311.113 263.8ZM286.753 334.6V333.6H268.393V334.6V335.6H286.753V334.6ZM360.986 329.8L360.243 330.469L360.25 330.477L360.986 329.8ZM355.586 295.24H356.586V294.24H355.586V295.24ZM345.746 295.24V294.24H344.746V295.24H345.746ZM345.746 334.6V335.6H346.746V334.6H345.746ZM332.546 334.6H331.546V335.6H332.546V334.6ZM332.546 247V246H331.546V247H332.546ZM345.746 247H346.746V246H345.746V247ZM345.746 283.24H344.746V284.24H345.746V283.24ZM355.586 283.24V284.24H356.586V283.24H355.586ZM360.986 251.8L360.25 251.123L360.25 251.124L360.986 251.8ZM390.266 251.8L389.53 252.477L389.537 252.484L390.266 251.8ZM390.266 329.8L389.53 329.123V329.123L390.266 329.8ZM380.546 321.88L379.755 321.269L379.751 321.274L380.546 321.88ZM380.546 259.84L379.738 260.428L379.753 260.449L379.769 260.469L380.546 259.84ZM369.506 259.84L368.715 259.229L368.711 259.234L369.506 259.84ZM369.506 321.88L368.698 322.468L368.713 322.489L368.729 322.509L369.506 321.88ZM375.506 335.8V334.8C369.754 334.8 365.192 332.894 361.722 329.123L360.986 329.8L360.25 330.477C364.141 334.706 369.259 336.8 375.506 336.8V335.8ZM360.986 329.8L361.73 329.131C358.329 325.353 356.586 320.33 356.586 313.96H355.586H354.586C354.586 320.71 356.443 326.247 360.243 330.469L360.986 329.8ZM355.586 313.96H356.586V295.24H355.586H354.586V313.96H355.586ZM355.586 295.24V294.24H345.746V295.24V296.24H355.586V295.24ZM345.746 295.24H344.746V334.6H345.746H346.746V295.24H345.746ZM345.746 334.6V333.6H332.546V334.6V335.6H345.746V334.6ZM332.546 334.6H333.546V247H332.546H331.546V334.6H332.546ZM332.546 247V248H345.746V247V246H332.546V247ZM345.746 247H344.746V283.24H345.746H346.746V247H345.746ZM345.746 283.24V284.24H355.586V283.24V282.24H345.746V283.24ZM355.586 283.24H356.586V267.52H355.586H354.586V283.24H355.586ZM355.586 267.52H356.586C356.586 261.149 358.329 256.171 361.723 252.476L360.986 251.8L360.25 251.124C356.443 255.269 354.586 260.771 354.586 267.52H355.586ZM360.986 251.8L361.722 252.477C365.192 248.706 369.754 246.8 375.506 246.8V245.8V244.8C369.259 244.8 364.141 246.894 360.25 251.123L360.986 251.8ZM375.506 245.8V246.8C381.428 246.8 386.066 248.711 389.53 252.477L390.266 251.8L391.002 251.123C387.107 246.889 381.905 244.8 375.506 244.8V245.8ZM390.266 251.8L389.537 252.484C393.007 256.18 394.786 261.155 394.786 267.52H395.786H396.786C396.786 260.765 394.886 255.26 390.995 251.116L390.266 251.8ZM395.786 267.52H394.786V313.96H395.786H396.786V267.52H395.786ZM395.786 313.96H394.786C394.786 320.324 393.007 325.344 389.53 329.123L390.266 329.8L391.002 330.477C394.886 326.256 396.786 320.716 396.786 313.96H395.786ZM390.266 329.8L389.53 329.123C386.066 332.889 381.428 334.8 375.506 334.8V335.8V336.8C381.905 336.8 387.107 334.711 391.002 330.477L390.266 329.8ZM375.146 324.4V325.4C377.743 325.4 379.852 324.441 381.342 322.486L380.546 321.88L379.751 321.274C378.68 322.679 377.19 323.4 375.146 323.4V324.4ZM380.546 321.88L381.338 322.491C382.875 320.502 383.586 317.861 383.586 314.68H382.586H381.586C381.586 317.579 380.938 319.738 379.755 321.269L380.546 321.88ZM382.586 314.68H383.586V266.92H382.586H381.586V314.68H382.586ZM382.586 266.92H383.586C383.586 263.742 382.876 261.129 381.323 259.211L380.546 259.84L379.769 260.469C380.936 261.911 381.586 264.017 381.586 266.92H382.586ZM380.546 259.84L381.355 259.252C379.873 257.214 377.761 256.2 375.146 256.2V257.2V258.2C377.171 258.2 378.66 258.946 379.738 260.428L380.546 259.84ZM375.146 257.2V256.2C372.465 256.2 370.281 257.202 368.715 259.229L369.506 259.84L370.298 260.451C371.452 258.958 373.028 258.2 375.146 258.2V257.2ZM369.506 259.84L368.711 259.234C367.251 261.15 366.586 263.754 366.586 266.92H367.586H368.586C368.586 264.006 369.201 261.89 370.302 260.446L369.506 259.84ZM367.586 266.92H366.586V314.68H367.586H368.586V266.92H367.586ZM367.586 314.68H366.586C366.586 317.85 367.253 320.481 368.698 322.468L369.506 321.88L370.315 321.292C369.2 319.759 368.586 317.59 368.586 314.68H367.586ZM369.506 321.88L368.729 322.509C370.301 324.452 372.482 325.4 375.146 325.4V324.4V323.4C373.01 323.4 371.431 322.668 370.284 321.251L369.506 321.88Z" fill="black" mask="url(#path-1-outside-1_63_9372)"/>
</svg>
