<svg width="1165" height="584" viewBox="0 0 1165 584" fill="none" xmlns="http://www.w3.org/2000/svg">
<mask id="path-1-outside-1_63_1002" maskUnits="userSpaceOnUse" x="-0.840332" y="-0.5" width="1166" height="585" fill="black">
<rect fill="white" x="-0.840332" y="-0.5" width="1166" height="585"/>
<path d="M7.59912 239.5C2.93246 239.5 1.18245 237.25 2.34912 232.75L45.0991 62.25C45.9325 58.75 48.1825 57 51.8491 57H81.0991C84.7658 57 87.0158 58.75 87.8491 62.25L130.849 232.75C132.016 237.25 130.266 239.5 125.599 239.5H106.349C102.682 239.5 100.516 237.667 99.8491 234L90.8491 195.25H42.3491L33.5991 234C32.7658 237.667 30.5158 239.5 26.8491 239.5H7.59912ZM48.0991 169.75H85.0991L74.0991 120.75C73.2658 117.25 72.5158 114 71.8491 111C71.3491 108 70.8491 105.167 70.3491 102.5C69.6825 99.5 68.5158 97.6667 66.8491 97C65.1825 96.1667 64.0991 97 63.5991 99.5C63.0991 102.667 62.4325 106 61.5991 109.5C60.9325 113 60.0991 116.667 59.0991 120.5L48.0991 169.75ZM146.751 239.5C142.585 239.5 140.501 237.417 140.501 233.25V63.25C140.501 59.0833 142.585 57 146.751 57H165.751C169.751 57 171.751 59.0833 171.751 63.25V131.5H193.251L226.001 61.5C227.335 58.5 229.668 57 233.001 57H253.751C256.085 57 257.668 57.75 258.501 59.25C259.501 60.5833 259.501 62.25 258.501 64.25L220.751 144L260.501 232.25C261.501 234.25 261.501 236 260.501 237.5C259.668 238.833 258.085 239.5 255.751 239.5H234.251C230.751 239.5 228.335 237.917 227.001 234.75L193.001 158.75H171.751V233.25C171.751 237.417 169.751 239.5 165.751 239.5H146.751ZM316.904 239.5C312.737 239.5 310.654 237.417 310.654 233.25V85.25H269.154C264.987 85.25 262.904 83.1667 262.904 79V63.25C262.904 59.0833 264.987 57 269.154 57H383.654C387.82 57 389.904 59.0833 389.904 63.25V79C389.904 83.1667 387.82 85.25 383.654 85.25H342.154V233.25C342.154 237.417 340.07 239.5 335.904 239.5H316.904ZM399.306 239.5V57H427.806V146.25C427.806 152.25 427.639 158.833 427.306 166C426.973 173.167 426.556 180.167 426.056 187C425.556 193.833 425.139 199.667 424.806 204.5L475.056 57H513.306V239.5H484.806V153C484.806 147.167 484.973 140.5 485.306 133C485.806 125.5 486.306 118.167 486.806 111C487.306 103.667 487.806 97.3333 488.306 92L437.556 239.5H399.306ZM536.708 239.5C532.542 239.5 530.458 237.417 530.458 233.25V63.25C530.458 59.0833 532.542 57 536.708 57H586.459C603.959 57 617.875 61.25 628.209 69.75C638.709 78.25 643.959 89.6667 643.959 104C643.959 114 641.042 122.583 635.209 129.75C629.542 136.917 622.125 141.25 612.958 142.75V143.25C619.792 144.083 625.875 146.583 631.209 150.75C636.542 154.75 640.709 160 643.709 166.5C646.709 172.833 648.209 179.833 648.209 187.5C648.209 198 645.792 207.167 640.959 215C636.125 222.833 629.292 228.917 620.458 233.25C611.625 237.417 601.208 239.5 589.208 239.5H536.708ZM560.959 132.25H585.959C594.125 132.25 600.625 130.083 605.458 125.75C610.292 121.25 612.709 115.167 612.709 107.5C612.709 100 610.292 94.0833 605.458 89.75C600.792 85.25 594.292 83 585.959 83H566.958C562.958 83 560.959 85.0833 560.959 89.25V132.25ZM560.959 207.25C560.959 211.417 562.958 213.5 566.958 213.5H587.458C596.625 213.5 603.792 211.083 608.959 206.25C614.292 201.25 616.958 194.5 616.958 186C616.958 177.5 614.292 170.667 608.959 165.5C603.792 160.167 596.625 157.5 587.458 157.5H560.959V207.25ZM659.111 239.5V57H687.611V146.25C687.611 152.25 687.444 158.833 687.111 166C686.778 173.167 686.361 180.167 685.861 187C685.361 193.833 684.944 199.667 684.611 204.5L734.861 57H773.111V239.5H744.611V153C744.611 147.167 744.778 140.5 745.111 133C745.611 125.5 746.111 118.167 746.611 111C747.111 103.667 747.611 97.3333 748.111 92L697.361 239.5H659.111ZM796.263 239.5C792.263 239.5 790.263 237.417 790.263 233.25V63.25C790.263 59.0833 792.263 57 796.263 57H851.013C863.18 57 873.763 59.3333 882.763 64C891.93 68.6667 899.013 75.25 904.013 83.75C909.013 92.0833 911.513 101.917 911.513 113.25C911.513 124.583 909.013 134.5 904.013 143C899.013 151.333 891.93 157.833 882.763 162.5C873.763 167.167 863.18 169.5 851.013 169.5H821.513V233.25C821.513 237.417 819.43 239.5 815.263 239.5H796.263ZM821.513 142H851.013C859.847 142 866.847 139.333 872.013 134C877.18 128.667 879.763 121.75 879.763 113.25C879.763 104.75 877.18 97.8333 872.013 92.5C866.847 87.1667 859.847 84.5 851.013 84.5H827.763C823.597 84.5 821.513 86.5 821.513 90.5V142ZM944.166 239.5L962.916 192.75L909.666 57H943.666L971.166 137.5C972.832 142.167 974.249 147.083 975.416 152.25C976.749 157.25 977.582 161.333 977.916 164.5C978.249 161.333 978.916 157.25 979.916 152.25C981.082 147.083 982.332 142.167 983.666 137.5L1008.92 57H1042.17L977.166 239.5H944.166ZM1048.82 239.5V57H1077.32V146.25C1077.32 152.25 1077.15 158.833 1076.82 166C1076.48 173.167 1076.07 180.167 1075.57 187C1075.07 193.833 1074.65 199.667 1074.32 204.5L1124.57 57H1162.82V239.5H1134.32V153C1134.32 147.167 1134.48 140.5 1134.82 133C1135.32 125.5 1135.82 118.167 1136.32 111C1136.82 103.667 1137.32 97.3333 1137.82 92L1087.07 239.5H1048.82ZM1105.82 39C1094.15 39 1084.4 36.25 1076.57 30.75C1068.9 25.0833 1064.32 17.6667 1062.82 8.49999C1062.48 6.33333 1062.9 4.74999 1064.07 3.75C1065.23 2.58332 1066.82 1.99999 1068.82 1.99999H1080.82C1082.65 1.99999 1083.98 2.49999 1084.82 3.49998C1085.82 4.49999 1086.65 5.91666 1087.32 7.74999C1088.48 11.5833 1090.65 14.6667 1093.82 17C1097.15 19.1667 1101.15 20.25 1105.82 20.25C1110.48 20.25 1114.48 19.1667 1117.82 17C1121.15 14.6667 1123.32 11.5833 1124.32 7.74999C1124.98 5.91666 1125.73 4.49999 1126.57 3.49998C1127.57 2.49999 1128.98 1.99999 1130.82 1.99999H1143.07C1145.07 1.99999 1146.65 2.49999 1147.82 3.49998C1148.98 4.49999 1149.4 5.83333 1149.07 7.49999C1147.73 17 1143.15 24.6667 1135.32 30.5C1127.65 36.1667 1117.82 39 1105.82 39ZM286.904 409.5C282.737 409.5 280.654 407.417 280.654 403.25V233.25C280.654 229.083 282.737 227 286.904 227H305.904C309.904 227 311.904 229.083 311.904 233.25V301H360.904V233.25C360.904 229.083 362.904 227 366.904 227H385.904C390.07 227 392.154 229.083 392.154 233.25V403.25C392.154 407.417 390.07 409.5 385.904 409.5H366.904C362.904 409.5 360.904 407.417 360.904 403.25V329.25H311.904V403.25C311.904 407.417 309.904 409.5 305.904 409.5H286.904ZM466.306 412C448.806 412 434.889 407 424.556 397C414.389 387 409.306 373.167 409.306 355.5V281C409.306 263.333 414.389 249.5 424.556 239.5C434.889 229.5 448.806 224.5 466.306 224.5C483.806 224.5 497.639 229.5 507.806 239.5C518.139 249.5 523.306 263.25 523.306 280.75V355.5C523.306 373.167 518.139 387 507.806 397C497.639 407 483.806 412 466.306 412ZM466.306 384.5C474.806 384.5 481.223 382.25 485.556 377.75C489.889 373.083 492.056 366.5 492.056 358V278.5C492.056 270 489.889 263.5 485.556 259C481.223 254.333 474.806 252 466.306 252C457.806 252 451.389 254.333 447.056 259C442.723 263.5 440.556 270 440.556 278.5V358C440.556 366.5 442.723 373.083 447.056 377.75C451.389 382.25 457.806 384.5 466.306 384.5ZM546.708 409.5C542.542 409.5 540.458 407.417 540.458 403.25V233.25C540.458 229.083 542.542 227 546.708 227H596.459C613.959 227 627.875 231.25 638.209 239.75C648.709 248.25 653.959 259.667 653.959 274C653.959 284 651.042 292.583 645.209 299.75C639.542 306.917 632.125 311.25 622.958 312.75V313.25C629.792 314.083 635.875 316.583 641.209 320.75C646.542 324.75 650.709 330 653.709 336.5C656.709 342.833 658.209 349.833 658.209 357.5C658.209 368 655.792 377.167 650.959 385C646.125 392.833 639.292 398.917 630.458 403.25C621.625 407.417 611.208 409.5 599.208 409.5H546.708ZM570.959 302.25H595.959C604.125 302.25 610.625 300.083 615.458 295.75C620.292 291.25 622.709 285.167 622.709 277.5C622.709 270 620.292 264.083 615.458 259.75C610.792 255.25 604.292 253 595.959 253H576.958C572.958 253 570.959 255.083 570.959 259.25V302.25ZM570.959 377.25C570.959 381.417 572.958 383.5 576.958 383.5H597.458C606.625 383.5 613.792 381.083 618.959 376.25C624.292 371.25 626.958 364.5 626.958 356C626.958 347.5 624.292 340.667 618.959 335.5C613.792 330.167 606.625 327.5 597.458 327.5H570.959V377.25ZM694.361 409.5L713.111 362.75L659.861 227H693.861L721.361 307.5C723.028 312.167 724.444 317.083 725.611 322.25C726.944 327.25 727.778 331.333 728.111 334.5C728.444 331.333 729.111 327.25 730.111 322.25C731.278 317.083 732.528 312.167 733.861 307.5L759.111 227H792.361L727.361 409.5H694.361ZM882.263 412C869.763 412 859.68 407.833 852.013 399.5C844.513 391.167 840.763 380.167 840.763 366.5V327.5H820.263V409.5H792.763V227H820.263V302.5H840.763V269.75C840.763 256.083 844.513 245.167 852.013 237C859.68 228.667 869.763 224.5 882.263 224.5C895.097 224.5 905.347 228.667 913.013 237C920.68 245.167 924.513 256.083 924.513 269.75V366.5C924.513 380.167 920.68 391.167 913.013 399.5C905.347 407.833 895.097 412 882.263 412ZM881.513 388.25C886.347 388.25 890.097 386.5 892.763 383C895.597 379.333 897.013 374.333 897.013 368V268.5C897.013 262.167 895.597 257.25 892.763 253.75C890.097 250.083 886.347 248.25 881.513 248.25C876.513 248.25 872.597 250.083 869.763 253.75C867.097 257.25 865.763 262.167 865.763 268.5V368C865.763 374.333 867.097 379.333 869.763 383C872.597 386.5 876.513 388.25 881.513 388.25ZM211.953 579.5C207.786 579.5 205.703 577.417 205.703 573.25V403.25C205.703 399.083 207.786 397 211.953 397H261.703C279.203 397 293.119 401.25 303.453 409.75C313.953 418.25 319.203 429.667 319.203 444C319.203 454 316.286 462.583 310.453 469.75C304.786 476.917 297.369 481.25 288.203 482.75V483.25C295.036 484.083 301.119 486.583 306.453 490.75C311.786 494.75 315.953 500 318.953 506.5C321.953 512.833 323.453 519.833 323.453 527.5C323.453 538 321.036 547.167 316.203 555C311.369 562.833 304.536 568.917 295.703 573.25C286.869 577.417 276.453 579.5 264.453 579.5H211.953ZM236.203 472.25H261.203C269.369 472.25 275.869 470.083 280.703 465.75C285.536 461.25 287.953 455.167 287.953 447.5C287.953 440 285.536 434.083 280.703 429.75C276.036 425.25 269.536 423 261.203 423H242.203C238.203 423 236.203 425.083 236.203 429.25V472.25ZM236.203 547.25C236.203 551.417 238.203 553.5 242.203 553.5H262.703C271.869 553.5 279.036 551.083 284.203 546.25C289.536 541.25 292.203 534.5 292.203 526C292.203 517.5 289.536 510.667 284.203 505.5C279.036 500.167 271.869 497.5 262.703 497.5H236.203V547.25ZM344.605 579.5C340.438 579.5 338.355 577.417 338.355 573.25V403.25C338.355 399.083 340.438 397 344.605 397H441.605C445.772 397 447.855 399.083 447.855 403.25V418.25C447.855 422.417 445.772 424.5 441.605 424.5H375.355C371.188 424.5 369.105 426.583 369.105 430.75V472H432.855C437.022 472 439.105 474 439.105 478V492.25C439.105 496.417 437.022 498.5 432.855 498.5H369.105V545.75C369.105 549.917 371.188 552 375.355 552H441.605C445.772 552 447.855 554.083 447.855 558.25V573.25C447.855 577.417 445.772 579.5 441.605 579.5H344.605ZM471.507 579.5C467.507 579.5 465.507 577.417 465.507 573.25V403.25C465.507 399.083 467.507 397 471.507 397H526.257C538.424 397 549.007 399.333 558.007 404C567.174 408.667 574.257 415.25 579.257 423.75C584.257 432.083 586.757 441.917 586.757 453.25C586.757 464.583 584.257 474.5 579.257 483C574.257 491.333 567.174 497.833 558.007 502.5C549.007 507.167 538.424 509.5 526.257 509.5H496.757V573.25C496.757 577.417 494.674 579.5 490.507 579.5H471.507ZM496.757 482H526.257C535.091 482 542.091 479.333 547.257 474C552.424 468.667 555.007 461.75 555.007 453.25C555.007 444.75 552.424 437.833 547.257 432.5C542.091 427.167 535.091 424.5 526.257 424.5H503.007C498.841 424.5 496.757 426.5 496.757 430.5V482ZM653.16 582C641.326 582 631.076 579.833 622.41 575.5C613.743 571 606.993 564.75 602.16 556.75C597.493 548.583 595.16 539 595.16 528V448.5C595.16 437.5 597.493 428 602.16 420C606.993 411.833 613.743 405.583 622.41 401.25C631.076 396.75 641.326 394.5 653.16 394.5C669.493 394.5 682.826 398.833 693.16 407.5C703.493 416 709.326 427.5 710.66 442C710.993 446.333 708.993 448.5 704.66 448.5H685.91C682.076 448.5 679.826 446.5 679.16 442.5C677.16 428.833 668.493 422 653.16 422C644.66 422 638.076 424.333 633.41 429C628.743 433.5 626.41 440 626.41 448.5V528C626.41 536.5 628.743 543.083 633.41 547.75C638.076 552.25 644.66 554.5 653.16 554.5C668.493 554.5 677.16 547.667 679.16 534C679.826 530 682.076 528 685.91 528H704.66C708.993 528 711.076 530 710.91 534C709.576 548.667 703.743 560.333 693.41 569C683.076 577.667 669.66 582 653.16 582ZM724.062 579.5V397H752.562V486.25C752.562 492.25 752.395 498.833 752.062 506C751.729 513.167 751.312 520.167 750.812 527C750.312 533.833 749.895 539.667 749.562 544.5L799.812 397H838.062V579.5H809.562V493C809.562 487.167 809.729 480.5 810.062 473C810.562 465.5 811.062 458.167 811.562 451C812.062 443.667 812.562 437.333 813.062 432L762.312 579.5H724.062ZM937.214 582C924.714 582 914.631 577.833 906.964 569.5C899.464 561.167 895.714 550.167 895.714 536.5V497.5H875.214V579.5H847.714V397H875.214V472.5H895.714V439.75C895.714 426.083 899.464 415.167 906.964 407C914.631 398.667 924.714 394.5 937.214 394.5C950.048 394.5 960.298 398.667 967.964 407C975.631 415.167 979.464 426.083 979.464 439.75V536.5C979.464 550.167 975.631 561.167 967.964 569.5C960.298 577.833 950.048 582 937.214 582ZM936.464 558.25C941.298 558.25 945.048 556.5 947.714 553C950.548 549.333 951.964 544.333 951.964 538V438.5C951.964 432.167 950.548 427.25 947.714 423.75C945.048 420.083 941.298 418.25 936.464 418.25C931.464 418.25 927.548 420.083 924.714 423.75C922.048 427.25 920.714 432.167 920.714 438.5V538C920.714 544.333 922.048 549.333 924.714 553C927.548 556.5 931.464 558.25 936.464 558.25Z"/>
</mask>
<path d="M2.34912 232.75L4.28512 233.252L4.28712 233.244L4.28907 233.236L2.34912 232.75ZM45.0991 62.25L47.0391 62.7364L47.042 62.7248L47.0447 62.7132L45.0991 62.25ZM87.8491 62.25L85.9035 62.7132L85.9066 62.7262L85.9099 62.7391L87.8491 62.25ZM130.849 232.75L128.91 233.239L128.913 233.252L130.849 232.75ZM99.8491 234L101.817 233.642L101.808 233.595L101.797 233.548L99.8491 234ZM90.8491 195.25L92.7973 194.798L92.4378 193.25H90.8491V195.25ZM42.3491 195.25V193.25H40.7504L40.3982 194.809L42.3491 195.25ZM33.5991 234L35.5494 234.443L35.55 234.441L33.5991 234ZM48.0991 169.75L46.1472 169.314L45.6031 171.75H48.0991V169.75ZM85.0991 169.75V171.75H87.5979L87.0506 169.312L85.0991 169.75ZM74.0991 120.75L76.0506 120.312L76.0477 120.299L76.0447 120.287L74.0991 120.75ZM71.8491 111L69.8763 111.329L69.8851 111.382L69.8968 111.434L71.8491 111ZM70.3491 102.5L72.3149 102.131L72.3087 102.099L72.3015 102.066L70.3491 102.5ZM66.8491 97L65.9547 98.7888L66.0291 98.826L66.1064 98.8569L66.8491 97ZM63.5991 99.5L61.638 99.1078L61.63 99.1478L61.6236 99.1881L63.5991 99.5ZM61.5991 109.5L59.6535 109.037L59.643 109.081L59.6344 109.126L61.5991 109.5ZM59.0991 120.5L57.1639 119.995L57.1549 120.029L57.1472 120.064L59.0991 120.5ZM7.59912 239.5V237.5C5.49267 237.5 4.67329 236.981 4.36533 236.585C4.0597 236.192 3.75967 235.279 4.28512 233.252L2.34912 232.75L0.413132 232.248C-0.228096 234.721 -0.23645 237.183 1.20792 239.04C2.64996 240.894 5.03891 241.5 7.59912 241.5V239.5ZM2.34912 232.75L4.28907 233.236L47.0391 62.7364L45.0991 62.25L43.1592 61.7636L0.409172 232.264L2.34912 232.75ZM45.0991 62.25L47.0447 62.7132C47.3842 61.2875 47.9592 60.4203 48.6395 59.8912C49.3239 59.3589 50.3319 59 51.8491 59V57V55C49.6996 55 47.7494 55.5161 46.1837 56.7338C44.614 57.9547 43.6474 59.7125 43.1535 61.7867L45.0991 62.25ZM51.8491 57V59H81.0991V57V55H51.8491V57ZM81.0991 57V59C82.6163 59 83.6244 59.3589 84.3087 59.8912C84.989 60.4203 85.564 61.2875 85.9035 62.7132L87.8491 62.25L89.7947 61.7867C89.3009 59.7125 88.3342 57.9547 86.7645 56.7338C85.1989 55.5161 83.2486 55 81.0991 55V57ZM87.8491 62.25L85.9099 62.7391L128.91 233.239L130.849 232.75L132.788 232.261L89.7884 61.7609L87.8491 62.25ZM130.849 232.75L128.913 233.252C129.439 235.279 129.139 236.192 128.833 236.585C128.525 236.981 127.706 237.5 125.599 237.5V239.5V241.5C128.159 241.5 130.548 240.894 131.99 239.04C133.435 237.183 133.426 234.721 132.785 232.248L130.849 232.75ZM125.599 239.5V237.5H106.349V239.5V241.5H125.599V239.5ZM106.349 239.5V237.5C104.848 237.5 103.894 237.129 103.266 236.598C102.634 236.064 102.093 235.164 101.817 233.642L99.8491 234L97.8814 234.358C98.2714 236.503 99.1472 238.353 100.682 239.652C102.221 240.954 104.184 241.5 106.349 241.5V239.5ZM99.8491 234L101.797 233.548L92.7973 194.798L90.8491 195.25L88.901 195.702L97.901 234.452L99.8491 234ZM90.8491 195.25V193.25H42.3491V195.25V197.25H90.8491V195.25ZM42.3491 195.25L40.3982 194.809L31.6482 233.559L33.5991 234L35.55 234.441L44.3 195.691L42.3491 195.25ZM33.5991 234L31.6489 233.557C31.3017 235.084 30.7115 236.014 30.0233 236.575C29.3406 237.131 28.3461 237.5 26.8491 237.5V239.5V241.5C29.0189 241.5 30.9826 240.953 32.55 239.675C34.1118 238.403 35.0632 236.582 35.5494 234.443L33.5991 234ZM26.8491 239.5V237.5H7.59912V239.5V241.5H26.8491V239.5ZM48.0991 169.75V171.75H85.0991V169.75V167.75H48.0991V169.75ZM85.0991 169.75L87.0506 169.312L76.0506 120.312L74.0991 120.75L72.1477 121.188L83.1477 170.188L85.0991 169.75ZM74.0991 120.75L76.0447 120.287C75.2133 116.795 74.4657 113.555 73.8015 110.566L71.8491 111L69.8968 111.434C70.5659 114.445 71.3182 117.705 72.1535 121.213L74.0991 120.75ZM71.8491 111L73.8219 110.671C73.32 107.659 72.8176 104.813 72.3149 102.131L70.3491 102.5L68.3834 102.869C68.8806 105.521 69.3783 108.341 69.8763 111.329L71.8491 111ZM70.3491 102.5L72.3015 102.066C71.593 98.8781 70.2063 96.1888 67.5919 95.143L66.8491 97L66.1064 98.8569C66.8252 99.1445 67.7719 100.122 68.3968 102.934L70.3491 102.5ZM66.8491 97L67.7436 95.2111C66.5153 94.597 64.9371 94.361 63.5672 95.4147C62.4263 96.2924 61.9105 97.7452 61.638 99.1078L63.5991 99.5L65.5603 99.8922C65.6644 99.3719 65.7836 99.0197 65.89 98.7956C65.9977 98.5691 66.0576 98.5456 66.006 98.5852C65.925 98.6476 65.803 98.6875 65.7085 98.6875C65.6516 98.6875 65.722 98.6725 65.9547 98.7888L66.8491 97ZM63.5991 99.5L61.6236 99.1881C61.1325 102.298 60.4763 105.581 59.6535 109.037L61.5991 109.5L63.5447 109.963C64.3886 106.419 65.0657 103.035 65.5746 99.8119L63.5991 99.5ZM61.5991 109.5L59.6344 109.126C58.977 112.577 58.1538 116.2 57.1639 119.995L59.0991 120.5L61.0344 121.005C62.0444 117.133 62.8879 113.423 63.5638 109.874L61.5991 109.5ZM59.0991 120.5L57.1472 120.064L46.1472 169.314L48.0991 169.75L50.051 170.186L61.051 120.936L59.0991 120.5ZM171.751 131.5H169.751V133.5H171.751V131.5ZM193.251 131.5V133.5H194.524L195.063 132.348L193.251 131.5ZM226.001 61.5L227.813 62.3475L227.821 62.33L227.829 62.3123L226.001 61.5ZM258.501 59.25L256.753 60.2213L256.82 60.3407L256.901 60.45L258.501 59.25ZM258.501 64.25L256.713 63.3556L256.703 63.3748L256.694 63.3943L258.501 64.25ZM220.751 144L218.944 143.144L218.549 143.979L218.928 144.821L220.751 144ZM260.501 232.25L258.678 233.071L258.695 233.108L258.713 233.144L260.501 232.25ZM260.501 237.5L258.837 236.391L258.821 236.415L258.805 236.44L260.501 237.5ZM227.001 234.75L228.845 233.974L228.836 233.953L228.827 233.933L227.001 234.75ZM193.001 158.75L194.827 157.933L194.298 156.75H193.001V158.75ZM171.751 158.75V156.75H169.751V158.75H171.751ZM146.751 239.5V237.5C144.976 237.5 144.012 237.058 143.478 236.523C142.944 235.989 142.501 235.025 142.501 233.25H140.501H138.501C138.501 235.642 139.101 237.803 140.65 239.352C142.199 240.901 144.36 241.5 146.751 241.5V239.5ZM140.501 233.25H142.501V63.25H140.501H138.501V233.25H140.501ZM140.501 63.25H142.501C142.501 61.4749 142.944 60.511 143.478 59.9767C144.012 59.4424 144.976 59 146.751 59V57V55C144.36 55 142.199 55.5993 140.65 57.1483C139.101 58.6973 138.501 60.8584 138.501 63.25H140.501ZM146.751 57V59H165.751V57V55H146.751V57ZM165.751 57V59C167.422 59 168.313 59.4307 168.809 59.9476C169.319 60.4796 169.751 61.455 169.751 63.25H171.751H173.751C173.751 60.8783 173.183 58.7287 171.694 57.1774C170.19 55.6109 168.081 55 165.751 55V57ZM171.751 63.25H169.751V131.5H171.751H173.751V63.25H171.751ZM171.751 131.5V133.5H193.251V131.5V129.5H171.751V131.5ZM193.251 131.5L195.063 132.348L227.813 62.3475L226.001 61.5L224.19 60.6525L191.44 130.652L193.251 131.5ZM226.001 61.5L227.829 62.3123C228.367 61.1023 229.051 60.3101 229.833 59.8074C230.617 59.3033 231.64 59 233.001 59V57V55C231.029 55 229.219 55.4467 227.67 56.4426C226.119 57.4399 224.969 58.8977 224.174 60.6877L226.001 61.5ZM233.001 57V59H253.751V57V55H233.001V57ZM253.751 57V59C255.656 59 256.397 59.5795 256.753 60.2213L258.501 59.25L260.25 58.2787C258.94 55.9205 256.514 55 253.751 55V57ZM258.501 59.25L256.901 60.45C257.29 60.9685 257.509 61.763 256.713 63.3556L258.501 64.25L260.29 65.1444C261.494 62.737 261.713 60.1982 260.101 58.05L258.501 59.25ZM258.501 64.25L256.694 63.3943L218.944 143.144L220.751 144L222.559 144.856L260.309 65.1057L258.501 64.25ZM220.751 144L218.928 144.821L258.678 233.071L260.501 232.25L262.325 231.429L222.575 143.179L220.751 144ZM260.501 232.25L258.713 233.144C259.482 234.683 259.339 235.639 258.837 236.391L260.501 237.5L262.166 238.609C263.664 236.361 263.521 233.817 262.29 231.356L260.501 232.25ZM260.501 237.5L258.805 236.44C258.494 236.938 257.754 237.5 255.751 237.5V239.5V241.5C258.415 241.5 260.842 240.729 262.197 238.56L260.501 237.5ZM255.751 239.5V237.5H234.251V239.5V241.5H255.751V239.5ZM234.251 239.5V237.5C232.808 237.5 231.729 237.176 230.91 236.64C230.093 236.104 229.387 235.261 228.845 233.974L227.001 234.75L225.158 235.526C225.949 237.405 227.118 238.937 228.718 239.985C230.315 241.032 232.195 241.5 234.251 241.5V239.5ZM227.001 234.75L228.827 233.933L194.827 157.933L193.001 158.75L191.176 159.567L225.176 235.567L227.001 234.75ZM193.001 158.75V156.75H171.751V158.75V160.75H193.001V158.75ZM171.751 158.75H169.751V233.25H171.751H173.751V158.75H171.751ZM171.751 233.25H169.751C169.751 235.045 169.319 236.02 168.809 236.552C168.313 237.069 167.422 237.5 165.751 237.5V239.5V241.5C168.081 241.5 170.19 240.889 171.694 239.323C173.183 237.771 173.751 235.622 173.751 233.25H171.751ZM165.751 239.5V237.5H146.751V239.5V241.5H165.751V239.5ZM310.654 85.25H312.654V83.25H310.654V85.25ZM342.154 85.25V83.25H340.154V85.25H342.154ZM316.904 239.5V237.5C315.129 237.5 314.165 237.058 313.631 236.523C313.096 235.989 312.654 235.025 312.654 233.25H310.654H308.654C308.654 235.642 309.253 237.803 310.802 239.352C312.351 240.901 314.512 241.5 316.904 241.5V239.5ZM310.654 233.25H312.654V85.25H310.654H308.654V233.25H310.654ZM310.654 85.25V83.25H269.154V85.25V87.25H310.654V85.25ZM269.154 85.25V83.25C267.379 83.25 266.415 82.8076 265.881 82.2733C265.346 81.739 264.904 80.775 264.904 79H262.904H260.904C260.904 81.3916 261.503 83.5527 263.052 85.1017C264.601 86.6507 266.762 87.25 269.154 87.25V85.25ZM262.904 79H264.904V63.25H262.904H260.904V79H262.904ZM262.904 63.25H264.904C264.904 61.4749 265.346 60.511 265.881 59.9767C266.415 59.4424 267.379 59 269.154 59V57V55C266.762 55 264.601 55.5993 263.052 57.1483C261.503 58.6973 260.904 60.8584 260.904 63.25H262.904ZM269.154 57V59H383.654V57V55H269.154V57ZM383.654 57V59C385.429 59 386.393 59.4424 386.927 59.9767C387.461 60.511 387.904 61.4749 387.904 63.25H389.904H391.904C391.904 60.8584 391.305 58.6973 389.756 57.1483C388.206 55.5993 386.045 55 383.654 55V57ZM389.904 63.25H387.904V79H389.904H391.904V63.25H389.904ZM389.904 79H387.904C387.904 80.775 387.461 81.739 386.927 82.2733C386.393 82.8076 385.429 83.25 383.654 83.25V85.25V87.25C386.045 87.25 388.206 86.6507 389.756 85.1017C391.305 83.5527 391.904 81.3916 391.904 79H389.904ZM383.654 85.25V83.25H342.154V85.25V87.25H383.654V85.25ZM342.154 85.25H340.154V233.25H342.154H344.154V85.25H342.154ZM342.154 233.25H340.154C340.154 235.025 339.711 235.989 339.177 236.523C338.643 237.058 337.679 237.5 335.904 237.5V239.5V241.5C338.295 241.5 340.456 240.901 342.006 239.352C343.555 237.803 344.154 235.642 344.154 233.25H342.154ZM335.904 239.5V237.5H316.904V239.5V241.5H335.904V239.5ZM399.306 239.5H397.306V241.5H399.306V239.5ZM399.306 57V55H397.306V57H399.306ZM427.806 57H429.806V55H427.806V57ZM427.306 166L429.304 166.093V166.093L427.306 166ZM426.056 187L424.061 186.854V186.854L426.056 187ZM424.806 204.5L422.811 204.362L426.699 205.145L424.806 204.5ZM475.056 57V55H473.625L473.163 56.355L475.056 57ZM513.306 57H515.306V55H513.306V57ZM513.306 239.5V241.5H515.306V239.5H513.306ZM484.806 239.5H482.806V241.5H484.806V239.5ZM485.306 133L483.311 132.867L483.309 132.889L483.308 132.911L485.306 133ZM486.806 111L488.801 111.139L488.802 111.136L486.806 111ZM488.306 92L490.297 92.1867L486.415 91.3493L488.306 92ZM437.556 239.5V241.5H438.983L439.447 240.151L437.556 239.5ZM399.306 239.5H401.306V57H399.306H397.306V239.5H399.306ZM399.306 57V59H427.806V57V55H399.306V57ZM427.806 57H425.806V146.25H427.806H429.806V57H427.806ZM427.806 146.25H425.806C425.806 152.214 425.64 158.766 425.308 165.907L427.306 166L429.304 166.093C429.638 158.901 429.806 152.286 429.806 146.25H427.806ZM427.306 166L425.308 165.907C424.976 173.057 424.56 180.039 424.061 186.854L426.056 187L428.051 187.146C428.552 180.294 428.97 173.276 429.304 166.093L427.306 166ZM426.056 187L424.061 186.854C423.561 193.689 423.144 199.525 422.811 204.362L424.806 204.5L426.801 204.638C427.134 199.808 427.551 193.978 428.051 187.146L426.056 187ZM424.806 204.5L426.699 205.145L476.949 57.645L475.056 57L473.163 56.355L422.913 203.855L424.806 204.5ZM475.056 57V59H513.306V57V55H475.056V57ZM513.306 57H511.306V239.5H513.306H515.306V57H513.306ZM513.306 239.5V237.5H484.806V239.5V241.5H513.306V239.5ZM484.806 239.5H486.806V153H484.806H482.806V239.5H484.806ZM484.806 153H486.806C486.806 147.203 486.972 140.567 487.304 133.089L485.306 133L483.308 132.911C482.974 140.433 482.806 147.13 482.806 153H484.806ZM485.306 133L487.302 133.133C487.802 125.635 488.301 118.304 488.801 111.139L486.806 111L484.811 110.861C484.311 118.03 483.811 125.365 483.311 132.867L485.306 133ZM486.806 111L488.802 111.136C489.301 103.814 489.799 97.4983 490.297 92.1867L488.306 92L486.315 91.8133C485.813 97.1684 485.312 103.519 484.811 110.864L486.806 111ZM488.306 92L486.415 91.3493L435.665 238.849L437.556 239.5L439.447 240.151L490.197 92.6507L488.306 92ZM437.556 239.5V237.5H399.306V239.5V241.5H437.556V239.5ZM628.208 69.75L626.938 71.2946L626.944 71.2996L626.95 71.3045L628.208 69.75ZM635.208 129.75L633.657 128.487L633.648 128.498L633.64 128.51L635.208 129.75ZM612.958 142.75L612.635 140.776L610.958 141.051V142.75H612.958ZM612.958 143.25H610.958V145.021L612.716 145.235L612.958 143.25ZM631.208 150.75L629.977 152.326L629.993 152.338L630.008 152.35L631.208 150.75ZM643.708 166.5L641.893 167.338L641.897 167.347L641.901 167.356L643.708 166.5ZM640.958 215L642.661 216.05V216.05L640.958 215ZM620.458 233.25L621.312 235.059L621.326 235.052L621.339 235.046L620.458 233.25ZM560.958 132.25H558.958V134.25H560.958V132.25ZM605.458 125.75L606.794 127.239L606.808 127.227L606.821 127.214L605.458 125.75ZM605.458 89.75L604.07 91.1897L604.096 91.2149L604.123 91.2391L605.458 89.75ZM608.958 206.25L610.325 207.711L610.326 207.709L608.958 206.25ZM608.958 165.5L607.522 166.892L607.544 166.914L607.567 166.936L608.958 165.5ZM560.958 157.5V155.5H558.958V157.5H560.958ZM536.708 239.5V237.5C534.933 237.5 533.97 237.058 533.435 236.523C532.901 235.989 532.458 235.025 532.458 233.25H530.458H528.458C528.458 235.642 529.058 237.803 530.607 239.352C532.156 240.901 534.317 241.5 536.708 241.5V239.5ZM530.458 233.25H532.458V63.25H530.458H528.458V233.25H530.458ZM530.458 63.25H532.458C532.458 61.4749 532.901 60.511 533.435 59.9767C533.97 59.4424 534.933 59 536.708 59V57V55C534.317 55 532.156 55.5993 530.607 57.1483C529.058 58.6973 528.458 60.8584 528.458 63.25H530.458ZM536.708 57V59H586.458V57V55H536.708V57ZM586.458 57V59C603.639 59 617.06 63.1693 626.938 71.2946L628.208 69.75L629.479 68.2054C618.69 59.3307 604.278 55 586.458 55V57ZM628.208 69.75L626.95 71.3045C636.949 79.3989 641.958 90.2278 641.958 104H643.958H645.958C645.958 89.1055 640.468 77.1011 629.467 68.1955L628.208 69.75ZM643.958 104H641.958C641.958 113.581 639.176 121.708 633.657 128.487L635.208 129.75L636.76 131.013C642.908 123.459 645.958 114.419 645.958 104H643.958ZM635.208 129.75L633.64 128.51C628.288 135.278 621.319 139.355 612.635 140.776L612.958 142.75L613.281 144.724C622.931 143.145 630.796 138.556 636.777 130.99L635.208 129.75ZM612.958 142.75H610.958V143.25H612.958H614.958V142.75H612.958ZM612.958 143.25L612.716 145.235C619.195 146.025 624.935 148.387 629.977 152.326L631.208 150.75L632.44 149.174C626.815 144.78 620.388 142.141 613.201 141.265L612.958 143.25ZM631.208 150.75L630.008 152.35C635.057 156.136 639.021 161.116 641.893 167.338L643.708 166.5L645.524 165.662C642.396 158.884 638.027 153.364 632.409 149.15L631.208 150.75ZM643.708 166.5L641.901 167.356C644.763 173.398 646.208 180.101 646.208 187.5H648.208H650.208C650.208 179.565 648.654 172.269 645.516 165.644L643.708 166.5ZM648.208 187.5H646.208C646.208 197.682 643.869 206.475 639.256 213.95L640.958 215L642.661 216.05C647.715 207.859 650.208 198.318 650.208 187.5H648.208ZM640.958 215L639.256 213.95C634.635 221.44 628.097 227.275 619.578 231.454L620.458 233.25L621.339 235.046C630.487 230.558 637.615 224.227 642.661 216.05L640.958 215ZM620.458 233.25L619.605 231.441C611.093 235.457 600.979 237.5 589.208 237.5V239.5V241.5C601.438 241.5 612.158 239.377 621.312 235.059L620.458 233.25ZM589.208 239.5V237.5H536.708V239.5V241.5H589.208V239.5ZM560.958 132.25V134.25H585.958V132.25V130.25H560.958V132.25ZM585.958 132.25V134.25C594.486 134.25 601.506 131.98 606.794 127.239L605.458 125.75L604.123 124.261C599.745 128.187 593.764 130.25 585.958 130.25V132.25ZM605.458 125.75L606.821 127.214C612.127 122.274 614.708 115.624 614.708 107.5H612.708H610.708C610.708 114.709 608.456 120.226 604.096 124.286L605.458 125.75ZM612.708 107.5H614.708C614.708 99.529 612.117 93.034 606.794 88.2608L605.458 89.75L604.123 91.2391C608.466 95.1326 610.708 100.471 610.708 107.5H612.708ZM605.458 89.75L606.847 88.3103C601.71 83.3566 594.656 81 585.958 81V83V85C593.928 85 599.874 87.1434 604.07 91.1897L605.458 89.75ZM585.958 83V81H566.958V83V85H585.958V83ZM566.958 83V81C564.629 81 562.52 81.6109 561.016 83.1774C559.526 84.7287 558.958 86.8783 558.958 89.25H560.958H562.958C562.958 87.455 563.391 86.4796 563.901 85.9476C564.397 85.4307 565.288 85 566.958 85V83ZM560.958 89.25H558.958V132.25H560.958H562.958V89.25H560.958ZM560.958 207.25H558.958C558.958 209.622 559.526 211.771 561.016 213.323C562.52 214.889 564.629 215.5 566.958 215.5V213.5V211.5C565.288 211.5 564.397 211.069 563.901 210.552C563.391 210.02 562.958 209.045 562.958 207.25H560.958ZM566.958 213.5V215.5H587.458V213.5V211.5H566.958V213.5ZM587.458 213.5V215.5C596.978 215.5 604.688 212.984 610.325 207.711L608.958 206.25L607.592 204.789C602.896 209.183 596.273 211.5 587.458 211.5V213.5ZM608.958 206.25L610.326 207.709C616.13 202.269 618.958 194.955 618.958 186H616.958H614.958C614.958 194.045 612.454 200.231 607.591 204.791L608.958 206.25ZM616.958 186H618.958C618.958 177.044 616.13 169.663 610.35 164.064L608.958 165.5L607.567 166.936C612.454 171.671 614.958 177.956 614.958 186H616.958ZM608.958 165.5L610.395 164.108C604.767 158.299 597.031 155.5 587.458 155.5V157.5V159.5C596.219 159.5 602.817 162.035 607.522 166.892L608.958 165.5ZM587.458 157.5V155.5H560.958V157.5V159.5H587.458V157.5ZM560.958 157.5H558.958V207.25H560.958H562.958V157.5H560.958ZM659.111 239.5H657.111V241.5H659.111V239.5ZM659.111 57V55H657.111V57H659.111ZM687.611 57H689.611V55H687.611V57ZM687.111 166L689.109 166.093V166.093L687.111 166ZM685.861 187L683.866 186.854V186.854L685.861 187ZM684.611 204.5L682.616 204.362L686.504 205.145L684.611 204.5ZM734.861 57V55H733.429L732.968 56.355L734.861 57ZM773.111 57H775.111V55H773.111V57ZM773.111 239.5V241.5H775.111V239.5H773.111ZM744.611 239.5H742.611V241.5H744.611V239.5ZM745.111 133L743.115 132.867L743.114 132.889L743.113 132.911L745.111 133ZM746.611 111L748.606 111.139L748.606 111.136L746.611 111ZM748.111 92L750.102 92.1867L746.22 91.3493L748.111 92ZM697.361 239.5V241.5H698.788L699.252 240.151L697.361 239.5ZM659.111 239.5H661.111V57H659.111H657.111V239.5H659.111ZM659.111 57V59H687.611V57V55H659.111V57ZM687.611 57H685.611V146.25H687.611H689.611V57H687.611ZM687.611 146.25H685.611C685.611 152.214 685.445 158.766 685.113 165.907L687.111 166L689.109 166.093C689.443 158.901 689.611 152.286 689.611 146.25H687.611ZM687.111 166L685.113 165.907C684.78 173.057 684.365 180.039 683.866 186.854L685.861 187L687.856 187.146C688.357 180.294 688.775 173.276 689.109 166.093L687.111 166ZM685.861 187L683.866 186.854C683.366 193.689 682.949 199.525 682.616 204.362L684.611 204.5L686.606 204.638C686.939 199.808 687.356 193.978 687.856 187.146L685.861 187ZM684.611 204.5L686.504 205.145L736.754 57.645L734.861 57L732.968 56.355L682.718 203.855L684.611 204.5ZM734.861 57V59H773.111V57V55H734.861V57ZM773.111 57H771.111V239.5H773.111H775.111V57H773.111ZM773.111 239.5V237.5H744.611V239.5V241.5H773.111V239.5ZM744.611 239.5H746.611V153H744.611H742.611V239.5H744.611ZM744.611 153H746.611C746.611 147.203 746.776 140.567 747.109 133.089L745.111 133L743.113 132.911C742.779 140.433 742.611 147.13 742.611 153H744.611ZM745.111 133L747.106 133.133C747.606 125.635 748.106 118.304 748.606 111.139L746.611 111L744.616 110.861C744.116 118.03 743.615 125.365 743.115 132.867L745.111 133ZM746.611 111L748.606 111.136C749.105 103.814 749.604 97.4983 750.102 92.1867L748.111 92L746.12 91.8133C745.618 97.1684 745.116 103.519 744.615 110.864L746.611 111ZM748.111 92L746.22 91.3493L695.47 238.849L697.361 239.5L699.252 240.151L750.002 92.6507L748.111 92ZM697.361 239.5V237.5H659.111V239.5V241.5H697.361V239.5ZM882.763 64L881.843 65.7755L881.849 65.7789L881.856 65.7823L882.763 64ZM904.013 83.75L902.289 84.764L902.294 84.7715L902.298 84.779L904.013 83.75ZM904.013 143L905.728 144.029L905.733 144.022L905.737 144.014L904.013 143ZM882.763 162.5L881.856 160.718L881.849 160.721L881.843 160.724L882.763 162.5ZM821.513 169.5V167.5H819.513V169.5H821.513ZM821.513 142H819.513V144H821.513V142ZM872.013 134L870.577 132.608V132.608L872.013 134ZM872.013 92.5L870.577 93.8916V93.8916L872.013 92.5ZM796.263 239.5V237.5C794.593 237.5 793.702 237.069 793.206 236.552C792.695 236.02 792.263 235.045 792.263 233.25H790.263H788.263C788.263 235.622 788.831 237.771 790.32 239.323C791.824 240.889 793.934 241.5 796.263 241.5V239.5ZM790.263 233.25H792.263V63.25H790.263H788.263V233.25H790.263ZM790.263 63.25H792.263C792.263 61.455 792.695 60.4796 793.206 59.9476C793.702 59.4307 794.593 59 796.263 59V57V55C793.934 55 791.824 55.6109 790.32 57.1774C788.831 58.7287 788.263 60.8783 788.263 63.25H790.263ZM796.263 57V59H851.013V57V55H796.263V57ZM851.013 57V59C862.923 59 873.179 61.2831 881.843 65.7755L882.763 64L883.684 62.2245C874.348 57.3836 863.437 55 851.013 55V57ZM882.763 64L881.856 65.7823C890.698 70.2838 897.491 76.6073 902.289 84.764L904.013 83.75L905.737 82.7359C900.535 73.8927 893.162 67.0495 883.671 62.2177L882.763 64ZM904.013 83.75L902.298 84.779C907.083 92.753 909.513 102.218 909.513 113.25H911.513H913.513C913.513 101.615 910.944 91.4137 905.728 82.721L904.013 83.75ZM911.513 113.25H909.513C909.513 124.281 907.083 133.837 902.289 141.986L904.013 143L905.737 144.014C910.943 135.163 913.513 124.886 913.513 113.25H911.513ZM904.013 143L902.298 141.971C897.503 149.963 890.708 156.211 881.856 160.718L882.763 162.5L883.671 164.282C893.151 159.456 900.524 152.703 905.728 144.029L904.013 143ZM882.763 162.5L881.843 160.724C873.179 165.217 862.923 167.5 851.013 167.5V169.5V171.5C863.437 171.5 874.348 169.116 883.684 164.276L882.763 162.5ZM851.013 169.5V167.5H821.513V169.5V171.5H851.013V169.5ZM821.513 169.5H819.513V233.25H821.513H823.513V169.5H821.513ZM821.513 233.25H819.513C819.513 235.025 819.071 235.989 818.536 236.523C818.002 237.058 817.038 237.5 815.263 237.5V239.5V241.5C817.655 241.5 819.816 240.901 821.365 239.352C822.914 237.803 823.513 235.642 823.513 233.25H821.513ZM815.263 239.5V237.5H796.263V239.5V241.5H815.263V239.5ZM821.513 142V144H851.013V142V140H821.513V142ZM851.013 142V144C860.277 144 867.836 141.187 873.45 135.392L872.013 134L870.577 132.608C865.857 137.48 859.416 140 851.013 140V142ZM872.013 134L873.45 135.392C879.031 129.631 881.763 122.188 881.763 113.25H879.763H877.763C877.763 121.312 875.329 127.703 870.577 132.608L872.013 134ZM879.763 113.25H881.763C881.763 104.312 879.031 96.8694 873.45 91.1084L872.013 92.5L870.577 93.8916C875.329 98.7973 877.763 105.188 877.763 113.25H879.763ZM872.013 92.5L873.45 91.1084C867.836 85.3133 860.277 82.5 851.013 82.5V84.5V86.5C859.416 86.5 865.857 89.0201 870.577 93.8916L872.013 92.5ZM851.013 84.5V82.5H827.763V84.5V86.5H851.013V84.5ZM827.763 84.5V82.5C825.392 82.5 823.242 83.068 821.691 84.5572C820.124 86.0611 819.513 88.1705 819.513 90.5H821.513H823.513C823.513 88.8295 823.944 87.9389 824.461 87.4428C824.993 86.932 825.968 86.5 827.763 86.5V84.5ZM821.513 90.5H819.513V142H821.513H823.513V90.5H821.513ZM944.166 239.5L942.309 238.756L941.208 241.5H944.166V239.5ZM962.916 192.75L964.772 193.494L965.067 192.758L964.777 192.02L962.916 192.75ZM909.666 57V55H906.733L907.804 57.7303L909.666 57ZM943.666 57L945.558 56.3535L945.096 55H943.666V57ZM971.166 137.5L969.273 138.147L969.277 138.16L969.282 138.173L971.166 137.5ZM975.416 152.25L973.465 152.691L973.473 152.728L973.483 152.765L975.416 152.25ZM977.916 164.5L975.927 164.709H979.905L977.916 164.5ZM979.916 152.25L977.965 151.809L977.959 151.834L977.954 151.858L979.916 152.25ZM983.666 137.5L981.757 136.901L981.75 136.926L981.742 136.951L983.666 137.5ZM1008.92 57V55H1007.45L1007.01 56.4014L1008.92 57ZM1042.17 57L1044.05 57.671L1045 55H1042.17V57ZM977.166 239.5V241.5H978.576L979.05 240.171L977.166 239.5ZM944.166 239.5L946.022 240.244L964.772 193.494L962.916 192.75L961.059 192.006L942.309 238.756L944.166 239.5ZM962.916 192.75L964.777 192.02L911.527 56.2696L909.666 57L907.804 57.7303L961.054 193.48L962.916 192.75ZM909.666 57V59H943.666V57V55H909.666V57ZM943.666 57L941.773 57.6465L969.273 138.147L971.166 137.5L973.058 136.853L945.558 56.3535L943.666 57ZM971.166 137.5L969.282 138.173C970.92 142.758 972.315 147.597 973.465 152.691L975.416 152.25L977.366 151.809C976.183 146.569 974.745 141.575 973.049 136.827L971.166 137.5ZM975.416 152.25L973.483 152.765C974.804 157.719 975.609 161.69 975.927 164.709L977.916 164.5L979.905 164.291C979.556 160.977 978.694 156.781 977.348 151.735L975.416 152.25ZM977.916 164.5L979.905 164.709C980.229 161.629 980.883 157.613 981.877 152.642L979.916 152.25L977.954 151.858C976.948 156.887 976.269 161.037 975.927 164.291L977.916 164.5ZM979.916 152.25L981.866 152.691C983.026 147.557 984.266 142.677 985.589 138.049L983.666 137.5L981.742 136.951C980.398 141.656 979.139 146.61 977.965 151.809L979.916 152.25ZM983.666 137.5L985.574 138.099L1010.82 57.5986L1008.92 57L1007.01 56.4014L981.757 136.901L983.666 137.5ZM1008.92 57V59H1042.17V57V55H1008.92V57ZM1042.17 57L1040.28 56.329L975.281 238.829L977.166 239.5L979.05 240.171L1044.05 57.671L1042.17 57ZM977.166 239.5V237.5H944.166V239.5V241.5H977.166V239.5ZM1048.82 239.5H1046.82V241.5H1048.82V239.5ZM1048.82 57V55H1046.82V57H1048.82ZM1077.32 57H1079.32V55H1077.32V57ZM1076.82 166L1078.82 166.093V166.093L1076.82 166ZM1075.57 187L1073.57 186.854V186.854L1075.57 187ZM1074.32 204.5L1072.32 204.362L1076.21 205.145L1074.32 204.5ZM1124.57 57V55H1123.14L1122.67 56.355L1124.57 57ZM1162.82 57H1164.82V55H1162.82V57ZM1162.82 239.5V241.5H1164.82V239.5H1162.82ZM1134.32 239.5H1132.32V241.5H1134.32V239.5ZM1134.82 133L1132.82 132.867L1132.82 132.889L1132.82 132.911L1134.82 133ZM1136.32 111L1138.31 111.139L1138.31 111.136L1136.32 111ZM1137.82 92L1139.81 92.1867L1135.93 91.3493L1137.82 92ZM1087.07 239.5V241.5H1088.49L1088.96 240.151L1087.07 239.5ZM1076.57 30.75L1075.38 32.3583L1075.4 32.3728L1075.42 32.3868L1076.57 30.75ZM1062.82 8.5L1060.84 8.80411L1060.84 8.81355L1060.84 8.82297L1062.82 8.5ZM1064.07 3.75L1065.37 5.26851L1065.43 5.21852L1065.48 5.1642L1064.07 3.75ZM1084.82 3.49998L1083.28 4.78035L1083.34 4.85005L1083.4 4.9142L1084.82 3.49998ZM1087.32 7.74998L1089.23 7.16766L1089.22 7.11664L1089.2 7.0665L1087.32 7.74998ZM1093.82 17L1092.63 18.6101L1092.68 18.6449L1092.73 18.6769L1093.82 17ZM1117.82 17L1118.91 18.6769L1118.94 18.6582L1118.96 18.6385L1117.82 17ZM1124.32 7.74998L1122.44 7.0665L1122.41 7.15453L1122.38 7.24515L1124.32 7.74998ZM1126.57 3.49998L1125.15 2.08577L1125.09 2.14992L1125.03 2.21962L1126.57 3.49998ZM1147.82 3.49998L1149.12 1.98148V1.98148L1147.82 3.49998ZM1149.07 7.49998L1147.11 7.10776L1147.1 7.16461L1147.09 7.22202L1149.07 7.49998ZM1135.32 30.5L1136.51 32.1084L1136.51 32.1041L1135.32 30.5ZM1048.82 239.5H1050.82V57H1048.82H1046.82V239.5H1048.82ZM1048.82 57V59H1077.32V57V55H1048.82V57ZM1077.32 57H1075.32V146.25H1077.32H1079.32V57H1077.32ZM1077.32 146.25H1075.32C1075.32 152.214 1075.15 158.766 1074.82 165.907L1076.82 166L1078.82 166.093C1079.15 158.901 1079.32 152.286 1079.32 146.25H1077.32ZM1076.82 166L1074.82 165.907C1074.49 173.057 1074.07 180.039 1073.57 186.854L1075.57 187L1077.56 187.146C1078.06 180.294 1078.48 173.276 1078.82 166.093L1076.82 166ZM1075.57 187L1073.57 186.854C1073.07 193.689 1072.66 199.525 1072.32 204.362L1074.32 204.5L1076.31 204.638C1076.65 199.808 1077.06 193.978 1077.56 187.146L1075.57 187ZM1074.32 204.5L1076.21 205.145L1126.46 57.645L1124.57 57L1122.67 56.355L1072.42 203.855L1074.32 204.5ZM1124.57 57V59H1162.82V57V55H1124.57V57ZM1162.82 57H1160.82V239.5H1162.82H1164.82V57H1162.82ZM1162.82 239.5V237.5H1134.32V239.5V241.5H1162.82V239.5ZM1134.32 239.5H1136.32V153H1134.32H1132.32V239.5H1134.32ZM1134.32 153H1136.32C1136.32 147.203 1136.48 140.567 1136.82 133.089L1134.82 133L1132.82 132.911C1132.49 140.433 1132.32 147.13 1132.32 153H1134.32ZM1134.82 133L1136.81 133.133C1137.31 125.635 1137.81 118.304 1138.31 111.139L1136.32 111L1134.32 110.861C1133.82 118.03 1133.32 125.365 1132.82 132.867L1134.82 133ZM1136.32 111L1138.31 111.136C1138.81 103.814 1139.31 97.4983 1139.81 92.1867L1137.82 92L1135.83 91.8133C1135.32 97.1684 1134.82 103.519 1134.32 110.864L1136.32 111ZM1137.82 92L1135.93 91.3493L1085.18 238.849L1087.07 239.5L1088.96 240.151L1139.71 92.6507L1137.82 92ZM1087.07 239.5V237.5H1048.82V239.5V241.5H1087.07V239.5ZM1105.82 39V37C1094.47 37 1085.15 34.3292 1077.72 29.1132L1076.57 30.75L1075.42 32.3868C1083.66 38.1708 1093.83 41 1105.82 41V39ZM1076.57 30.75L1077.76 29.1416C1070.5 23.7757 1066.2 16.8144 1064.79 8.17702L1062.82 8.5L1060.84 8.82297C1062.43 18.5189 1067.31 26.391 1075.38 32.3583L1076.57 30.75ZM1062.82 8.5L1064.79 8.19588C1064.52 6.39352 1064.93 5.64229 1065.37 5.26851L1064.07 3.75L1062.77 2.23148C1060.87 3.8577 1060.45 6.27313 1060.84 8.80411L1062.82 8.5ZM1064.07 3.75L1065.48 5.1642C1066.2 4.44975 1067.23 3.99998 1068.82 3.99998V1.99998V-1.52588e-05C1066.41 -1.52588e-05 1064.27 0.716904 1062.65 2.33578L1064.07 3.75ZM1068.82 1.99998V3.99998H1080.82V1.99998V-1.52588e-05H1068.82V1.99998ZM1080.82 1.99998V3.99998C1082.31 3.99998 1082.96 4.40028 1083.28 4.78035L1084.82 3.49998L1086.35 2.21962C1085 0.599686 1082.99 -1.52588e-05 1080.82 -1.52588e-05V1.99998ZM1084.82 3.49998L1083.4 4.9142C1084.13 5.64471 1084.84 6.77681 1085.44 8.43347L1087.32 7.74998L1089.2 7.0665C1088.47 5.0565 1087.5 3.35527 1086.23 2.08577L1084.82 3.49998ZM1087.32 7.74998L1085.4 8.33231C1086.69 12.5693 1089.11 16.0163 1092.63 18.6101L1093.82 17L1095 15.3899C1092.19 13.317 1090.28 10.5974 1089.23 7.16766L1087.32 7.74998ZM1093.82 17L1092.73 18.6769C1096.44 21.0889 1100.83 22.25 1105.82 22.25V20.25V18.25C1101.47 18.25 1097.86 17.2444 1094.91 15.3231L1093.82 17ZM1105.82 20.25V22.25C1110.8 22.25 1115.2 21.0889 1118.91 18.6769L1117.82 17L1116.73 15.3231C1113.77 17.2444 1110.17 18.25 1105.82 18.25V20.25ZM1117.82 17L1118.96 18.6385C1122.68 16.0409 1125.13 12.5611 1126.25 8.25484L1124.32 7.74998L1122.38 7.24515C1121.51 10.6056 1119.63 13.2924 1116.67 15.3615L1117.82 17ZM1124.32 7.74998L1126.2 8.43347C1126.82 6.71994 1127.47 5.53749 1128.1 4.78035L1126.57 3.49998L1125.03 2.21962C1124 3.46249 1123.15 5.11337 1122.44 7.0665L1124.32 7.74998ZM1126.57 3.49998L1127.98 4.9142C1128.51 4.3912 1129.35 3.99998 1130.82 3.99998V1.99998V-1.52588e-05C1128.62 -1.52588e-05 1126.63 0.60878 1125.15 2.08577L1126.57 3.49998ZM1130.82 1.99998V3.99998H1143.07V1.99998V-1.52588e-05H1130.82V1.99998ZM1143.07 1.99998V3.99998C1144.74 3.99998 1145.81 4.41292 1146.52 5.01849L1147.82 3.49998L1149.12 1.98148C1147.49 0.587051 1145.4 -1.52588e-05 1143.07 -1.52588e-05V1.99998ZM1147.82 3.49998L1146.52 5.01849C1147.07 5.4899 1147.32 6.05878 1147.11 7.10776L1149.07 7.49998L1151.03 7.89223C1151.49 5.60786 1150.9 3.51007 1149.12 1.98148L1147.82 3.49998ZM1149.07 7.49998L1147.09 7.22202C1145.83 16.182 1141.54 23.3753 1134.12 28.8959L1135.32 30.5L1136.51 32.1041C1144.77 25.958 1149.64 17.8179 1151.05 7.77797L1149.07 7.49998ZM1135.32 30.5L1134.13 28.8916C1126.89 34.2446 1117.5 37 1105.82 37V39V41C1118.13 41 1128.42 38.0887 1136.51 32.1084L1135.32 30.5ZM311.904 301H309.904V303H311.904V301ZM360.904 301V303H362.904V301H360.904ZM360.904 329.25H362.904V327.25H360.904V329.25ZM311.904 329.25V327.25H309.904V329.25H311.904ZM286.904 409.5V407.5C285.129 407.5 284.165 407.058 283.631 406.523C283.096 405.989 282.654 405.025 282.654 403.25H280.654H278.654C278.654 405.642 279.253 407.803 280.802 409.352C282.351 410.901 284.512 411.5 286.904 411.5V409.5ZM280.654 403.25H282.654V233.25H280.654H278.654V403.25H280.654ZM280.654 233.25H282.654C282.654 231.475 283.096 230.511 283.631 229.977C284.165 229.442 285.129 229 286.904 229V227V225C284.512 225 282.351 225.599 280.802 227.148C279.253 228.697 278.654 230.858 278.654 233.25H280.654ZM286.904 227V229H305.904V227V225H286.904V227ZM305.904 227V229C307.574 229 308.465 229.431 308.961 229.948C309.472 230.48 309.904 231.455 309.904 233.25H311.904H313.904C313.904 230.878 313.336 228.729 311.847 227.177C310.343 225.611 308.233 225 305.904 225V227ZM311.904 233.25H309.904V301H311.904H313.904V233.25H311.904ZM311.904 301V303H360.904V301V299H311.904V301ZM360.904 301H362.904V233.25H360.904H358.904V301H360.904ZM360.904 233.25H362.904C362.904 231.455 363.336 230.48 363.847 229.948C364.343 229.431 365.233 229 366.904 229V227V225C364.574 225 362.465 225.611 360.961 227.177C359.472 228.729 358.904 230.878 358.904 233.25H360.904ZM366.904 227V229H385.904V227V225H366.904V227ZM385.904 227V229C387.679 229 388.643 229.442 389.177 229.977C389.711 230.511 390.154 231.475 390.154 233.25H392.154H394.154C394.154 230.858 393.555 228.697 392.006 227.148C390.456 225.599 388.295 225 385.904 225V227ZM392.154 233.25H390.154V403.25H392.154H394.154V233.25H392.154ZM392.154 403.25H390.154C390.154 405.025 389.711 405.989 389.177 406.523C388.643 407.058 387.679 407.5 385.904 407.5V409.5V411.5C388.295 411.5 390.456 410.901 392.006 409.352C393.555 407.803 394.154 405.642 394.154 403.25H392.154ZM385.904 409.5V407.5H366.904V409.5V411.5H385.904V409.5ZM366.904 409.5V407.5C365.233 407.5 364.343 407.069 363.847 406.552C363.336 406.02 362.904 405.045 362.904 403.25H360.904H358.904C358.904 405.622 359.472 407.771 360.961 409.323C362.465 410.889 364.574 411.5 366.904 411.5V409.5ZM360.904 403.25H362.904V329.25H360.904H358.904V403.25H360.904ZM360.904 329.25V327.25H311.904V329.25V331.25H360.904V329.25ZM311.904 329.25H309.904V403.25H311.904H313.904V329.25H311.904ZM311.904 403.25H309.904C309.904 405.045 309.472 406.02 308.961 406.552C308.465 407.069 307.574 407.5 305.904 407.5V409.5V411.5C308.233 411.5 310.343 410.889 311.847 409.323C313.336 407.771 313.904 405.622 313.904 403.25H311.904ZM305.904 409.5V407.5H286.904V409.5V411.5H305.904V409.5ZM424.556 397L423.154 398.426L423.159 398.432L423.165 398.437L424.556 397ZM424.556 239.5L423.165 238.063L423.159 238.068L423.154 238.074L424.556 239.5ZM507.806 239.5L506.404 240.926L506.409 240.932L506.415 240.937L507.806 239.5ZM507.806 397L506.415 395.563L506.409 395.568L506.404 395.574L507.806 397ZM485.556 377.75L486.997 379.137L487.009 379.124L487.022 379.111L485.556 377.75ZM485.556 259L484.091 260.361L484.103 260.374L484.116 260.387L485.556 259ZM447.056 259L448.497 260.387L448.509 260.374L448.522 260.361L447.056 259ZM447.056 377.75L445.591 379.111L445.603 379.124L445.616 379.137L447.056 377.75ZM466.306 412V410C449.206 410 435.83 405.127 425.947 395.563L424.556 397L423.165 398.437C433.949 408.873 448.406 414 466.306 414V412ZM424.556 397L425.959 395.574C416.261 386.036 411.306 372.767 411.306 355.5H409.306H407.306C407.306 373.567 412.518 387.964 423.154 398.426L424.556 397ZM409.306 355.5H411.306V281H409.306H407.306V355.5H409.306ZM409.306 281H411.306C411.306 263.733 416.261 250.464 425.959 240.926L424.556 239.5L423.154 238.074C412.518 248.536 407.306 262.933 407.306 281H409.306ZM424.556 239.5L425.947 240.937C435.83 231.373 449.206 226.5 466.306 226.5V224.5V222.5C448.406 222.5 433.949 227.627 423.165 238.063L424.556 239.5ZM466.306 224.5V226.5C483.408 226.5 496.692 231.374 506.404 240.926L507.806 239.5L509.209 238.074C498.587 227.626 484.205 222.5 466.306 222.5V224.5ZM507.806 239.5L506.415 240.937C516.277 250.481 521.306 263.666 521.306 280.75H523.306H525.306C525.306 262.834 520.002 248.519 509.197 238.063L507.806 239.5ZM523.306 280.75H521.306V355.5H523.306H525.306V280.75H523.306ZM523.306 355.5H521.306C521.306 372.757 516.274 386.023 506.415 395.563L507.806 397L509.197 398.437C520.005 387.977 525.306 373.576 525.306 355.5H523.306ZM507.806 397L506.404 395.574C496.692 405.126 483.408 410 466.306 410V412V414C484.205 414 498.587 408.874 509.209 398.426L507.806 397ZM466.306 384.5V386.5C475.147 386.5 482.166 384.154 486.997 379.137L485.556 377.75L484.115 376.363C480.28 380.346 474.465 382.5 466.306 382.5V384.5ZM485.556 377.75L487.022 379.111C491.8 373.965 494.056 366.832 494.056 358H492.056H490.056C490.056 366.168 487.979 372.202 484.091 376.389L485.556 377.75ZM492.056 358H494.056V278.5H492.056H490.056V358H492.056ZM492.056 278.5H494.056C494.056 269.673 491.802 262.603 486.997 257.613L485.556 259L484.116 260.387C487.977 264.397 490.056 270.327 490.056 278.5H492.056ZM485.556 259L487.022 257.639C482.195 252.441 475.168 250 466.306 250V252V254C474.445 254 480.25 256.225 484.091 260.361L485.556 259ZM466.306 252V250C457.445 250 450.417 252.441 445.591 257.639L447.056 259L448.522 260.361C452.362 256.225 458.168 254 466.306 254V252ZM447.056 259L445.616 257.613C440.81 262.603 438.556 269.673 438.556 278.5H440.556H442.556C442.556 270.327 444.636 264.397 448.497 260.387L447.056 259ZM440.556 278.5H438.556V358H440.556H442.556V278.5H440.556ZM440.556 358H438.556C438.556 366.832 440.812 373.965 445.591 379.111L447.056 377.75L448.522 376.389C444.634 372.202 442.556 366.168 442.556 358H440.556ZM447.056 377.75L445.616 379.137C450.446 384.154 457.465 386.5 466.306 386.5V384.5V382.5C458.147 382.5 452.333 380.346 448.497 376.363L447.056 377.75ZM638.208 239.75L636.938 241.295L636.944 241.3L636.95 241.304L638.208 239.75ZM645.208 299.75L643.657 298.487L643.648 298.498L643.64 298.51L645.208 299.75ZM622.958 312.75L622.635 310.776L620.958 311.051V312.75H622.958ZM622.958 313.25H620.958V315.021L622.716 315.235L622.958 313.25ZM641.208 320.75L639.977 322.326L639.993 322.338L640.008 322.35L641.208 320.75ZM653.708 336.5L651.893 337.338L651.897 337.347L651.901 337.356L653.708 336.5ZM650.958 385L652.661 386.05V386.05L650.958 385ZM630.458 403.25L631.312 405.059L631.326 405.052L631.339 405.046L630.458 403.25ZM570.958 302.25H568.958V304.25H570.958V302.25ZM615.458 295.75L616.794 297.239L616.808 297.227L616.821 297.214L615.458 295.75ZM615.458 259.75L614.07 261.19L614.096 261.215L614.123 261.239L615.458 259.75ZM618.958 376.25L620.325 377.711L620.326 377.709L618.958 376.25ZM618.958 335.5L617.522 336.892L617.544 336.914L617.567 336.936L618.958 335.5ZM570.958 327.5V325.5H568.958V327.5H570.958ZM546.708 409.5V407.5C544.933 407.5 543.97 407.058 543.435 406.523C542.901 405.989 542.458 405.025 542.458 403.25H540.458H538.458C538.458 405.642 539.058 407.803 540.607 409.352C542.156 410.901 544.317 411.5 546.708 411.5V409.5ZM540.458 403.25H542.458V233.25H540.458H538.458V403.25H540.458ZM540.458 233.25H542.458C542.458 231.475 542.901 230.511 543.435 229.977C543.97 229.442 544.933 229 546.708 229V227V225C544.317 225 542.156 225.599 540.607 227.148C539.058 228.697 538.458 230.858 538.458 233.25H540.458ZM546.708 227V229H596.458V227V225H546.708V227ZM596.458 227V229C613.639 229 627.06 233.169 636.938 241.295L638.208 239.75L639.479 238.205C628.69 229.331 614.278 225 596.458 225V227ZM638.208 239.75L636.95 241.304C646.949 249.399 651.958 260.228 651.958 274H653.958H655.958C655.958 259.105 650.468 247.101 639.467 238.196L638.208 239.75ZM653.958 274H651.958C651.958 283.581 649.176 291.708 643.657 298.487L645.208 299.75L646.76 301.013C652.908 293.459 655.958 284.419 655.958 274H653.958ZM645.208 299.75L643.64 298.51C638.288 305.278 631.319 309.355 622.635 310.776L622.958 312.75L623.281 314.724C632.931 313.145 640.796 308.556 646.777 300.99L645.208 299.75ZM622.958 312.75H620.958V313.25H622.958H624.958V312.75H622.958ZM622.958 313.25L622.716 315.235C629.195 316.025 634.935 318.387 639.977 322.326L641.208 320.75L642.44 319.174C636.815 314.78 630.388 312.141 623.201 311.265L622.958 313.25ZM641.208 320.75L640.008 322.35C645.057 326.136 649.021 331.116 651.893 337.338L653.708 336.5L655.524 335.662C652.396 328.884 648.027 323.364 642.409 319.15L641.208 320.75ZM653.708 336.5L651.901 337.356C654.763 343.398 656.208 350.101 656.208 357.5H658.208H660.208C660.208 349.565 658.654 342.269 655.516 335.644L653.708 336.5ZM658.208 357.5H656.208C656.208 367.682 653.869 376.475 649.256 383.95L650.958 385L652.661 386.05C657.715 377.859 660.208 368.318 660.208 357.5H658.208ZM650.958 385L649.256 383.95C644.635 391.44 638.097 397.275 629.578 401.454L630.458 403.25L631.339 405.046C640.487 400.558 647.615 394.227 652.661 386.05L650.958 385ZM630.458 403.25L629.605 401.441C621.093 405.457 610.979 407.5 599.208 407.5V409.5V411.5C611.438 411.5 622.158 409.377 631.312 405.059L630.458 403.25ZM599.208 409.5V407.5H546.708V409.5V411.5H599.208V409.5ZM570.958 302.25V304.25H595.958V302.25V300.25H570.958V302.25ZM595.958 302.25V304.25C604.486 304.25 611.506 301.98 616.794 297.239L615.458 295.75L614.123 294.261C609.745 298.187 603.764 300.25 595.958 300.25V302.25ZM615.458 295.75L616.821 297.214C622.127 292.274 624.708 285.624 624.708 277.5H622.708H620.708C620.708 284.709 618.456 290.226 614.096 294.286L615.458 295.75ZM622.708 277.5H624.708C624.708 269.529 622.117 263.034 616.794 258.261L615.458 259.75L614.123 261.239C618.466 265.133 620.708 270.471 620.708 277.5H622.708ZM615.458 259.75L616.847 258.31C611.71 253.357 604.656 251 595.958 251V253V255C603.928 255 609.874 257.143 614.07 261.19L615.458 259.75ZM595.958 253V251H576.958V253V255H595.958V253ZM576.958 253V251C574.629 251 572.52 251.611 571.016 253.177C569.526 254.729 568.958 256.878 568.958 259.25H570.958H572.958C572.958 257.455 573.391 256.48 573.901 255.948C574.397 255.431 575.288 255 576.958 255V253ZM570.958 259.25H568.958V302.25H570.958H572.958V259.25H570.958ZM570.958 377.25H568.958C568.958 379.622 569.526 381.771 571.016 383.323C572.52 384.889 574.629 385.5 576.958 385.5V383.5V381.5C575.288 381.5 574.397 381.069 573.901 380.552C573.391 380.02 572.958 379.045 572.958 377.25H570.958ZM576.958 383.5V385.5H597.458V383.5V381.5H576.958V383.5ZM597.458 383.5V385.5C606.978 385.5 614.688 382.984 620.325 377.711L618.958 376.25L617.592 374.789C612.896 379.183 606.273 381.5 597.458 381.5V383.5ZM618.958 376.25L620.326 377.709C626.13 372.269 628.958 364.955 628.958 356H626.958H624.958C624.958 364.045 622.454 370.231 617.591 374.791L618.958 376.25ZM626.958 356H628.958C628.958 347.044 626.13 339.663 620.35 334.064L618.958 335.5L617.567 336.936C622.454 341.671 624.958 347.956 624.958 356H626.958ZM618.958 335.5L620.395 334.108C614.767 328.299 607.031 325.5 597.458 325.5V327.5V329.5C606.219 329.5 612.817 332.035 617.522 336.892L618.958 335.5ZM597.458 327.5V325.5H570.958V327.5V329.5H597.458V327.5ZM570.958 327.5H568.958V377.25H570.958H572.958V327.5H570.958ZM694.361 409.5L692.505 408.755L691.404 411.5H694.361V409.5ZM713.111 362.75L714.967 363.495L715.262 362.758L714.973 362.02L713.111 362.75ZM659.861 227V225H656.928L657.999 227.73L659.861 227ZM693.861 227L695.753 226.353L695.291 225H693.861V227ZM721.361 307.5L719.468 308.147L719.473 308.16L719.477 308.173L721.361 307.5ZM725.611 322.25L723.66 322.691L723.668 322.728L723.678 322.765L725.611 322.25ZM728.111 334.5L726.122 334.709H730.1L728.111 334.5ZM730.111 322.25L728.16 321.809L728.155 321.834L728.15 321.858L730.111 322.25ZM733.861 307.5L731.953 306.901L731.945 306.926L731.938 306.951L733.861 307.5ZM759.111 227V225H757.642L757.203 226.401L759.111 227ZM792.361 227L794.245 227.671L795.196 225H792.361V227ZM727.361 409.5V411.5H728.772L729.245 410.171L727.361 409.5ZM694.361 409.5L696.217 410.245L714.967 363.495L713.111 362.75L711.255 362.005L692.505 408.755L694.361 409.5ZM713.111 362.75L714.973 362.02L661.723 226.27L659.861 227L657.999 227.73L711.249 363.48L713.111 362.75ZM659.861 227V229H693.861V227V225H659.861V227ZM693.861 227L691.968 227.647L719.468 308.147L721.361 307.5L723.253 306.853L695.753 226.353L693.861 227ZM721.361 307.5L719.477 308.173C721.115 312.758 722.51 317.597 723.66 322.691L725.611 322.25L727.562 321.809C726.378 316.569 724.94 311.575 723.244 306.827L721.361 307.5ZM725.611 322.25L723.678 322.765C724.999 327.719 725.804 331.69 726.122 334.709L728.111 334.5L730.1 334.291C729.751 330.977 728.889 326.781 727.543 321.735L725.611 322.25ZM728.111 334.5L730.1 334.709C730.424 331.629 731.078 327.613 732.072 322.642L730.111 322.25L728.15 321.858C727.144 326.887 726.464 331.037 726.122 334.291L728.111 334.5ZM730.111 322.25L732.062 322.691C733.221 317.557 734.462 312.677 735.784 308.049L733.861 307.5L731.938 306.951C730.593 311.656 729.334 316.61 728.16 321.809L730.111 322.25ZM733.861 307.5L735.769 308.099L761.019 227.599L759.111 227L757.203 226.401L731.953 306.901L733.861 307.5ZM759.111 227V229H792.361V227V225H759.111V227ZM792.361 227L790.477 226.329L725.477 408.829L727.361 409.5L729.245 410.171L794.245 227.671L792.361 227ZM727.361 409.5V407.5H694.361V409.5V411.5H727.361V409.5ZM852.013 399.5L850.527 400.838L850.534 400.846L850.541 400.854L852.013 399.5ZM840.763 327.5H842.763V325.5H840.763V327.5ZM820.263 327.5V325.5H818.263V327.5H820.263ZM820.263 409.5V411.5H822.263V409.5H820.263ZM792.763 409.5H790.763V411.5H792.763V409.5ZM792.763 227V225H790.763V227H792.763ZM820.263 227H822.263V225H820.263V227ZM820.263 302.5H818.263V304.5H820.263V302.5ZM840.763 302.5V304.5H842.763V302.5H840.763ZM852.013 237L850.541 235.646L850.54 235.647L852.013 237ZM913.013 237L911.541 238.354L911.548 238.362L911.555 238.369L913.013 237ZM913.013 399.5L911.541 398.146V398.146L913.013 399.5ZM892.763 383L891.181 381.777L891.172 381.788L892.763 383ZM892.763 253.75L891.146 254.926L891.176 254.968L891.209 255.008L892.763 253.75ZM869.763 253.75L868.181 252.527L868.172 252.538L869.763 253.75ZM869.763 383L868.146 384.176L868.176 384.218L868.209 384.258L869.763 383ZM882.263 412V410C870.258 410 860.731 406.022 853.485 398.146L852.013 399.5L850.541 400.854C858.628 409.644 869.268 414 882.263 414V412ZM852.013 399.5L853.5 398.162C846.399 390.272 842.763 379.786 842.763 366.5H840.763H838.763C838.763 380.547 842.627 392.061 850.527 400.838L852.013 399.5ZM840.763 366.5H842.763V327.5H840.763H838.763V366.5H840.763ZM840.763 327.5V325.5H820.263V327.5V329.5H840.763V327.5ZM820.263 327.5H818.263V409.5H820.263H822.263V327.5H820.263ZM820.263 409.5V407.5H792.763V409.5V411.5H820.263V409.5ZM792.763 409.5H794.763V227H792.763H790.763V409.5H792.763ZM792.763 227V229H820.263V227V225H792.763V227ZM820.263 227H818.263V302.5H820.263H822.263V227H820.263ZM820.263 302.5V304.5H840.763V302.5V300.5H820.263V302.5ZM840.763 302.5H842.763V269.75H840.763H838.763V302.5H840.763ZM840.763 269.75H842.763C842.763 256.462 846.4 246.069 853.486 238.353L852.013 237L850.54 235.647C842.627 244.264 838.763 255.704 838.763 269.75H840.763ZM852.013 237L853.485 238.354C860.731 230.478 870.258 226.5 882.263 226.5V224.5V222.5C869.268 222.5 858.628 226.856 850.541 235.646L852.013 237ZM882.263 224.5V226.5C894.62 226.5 904.306 230.489 911.541 238.354L913.013 237L914.485 235.646C906.387 226.844 895.574 222.5 882.263 222.5V224.5ZM913.013 237L911.555 238.369C918.8 246.087 922.513 256.474 922.513 269.75H924.513H926.513C926.513 255.693 922.559 244.247 914.471 235.631L913.013 237ZM924.513 269.75H922.513V366.5H924.513H926.513V269.75H924.513ZM924.513 366.5H922.513C922.513 379.775 918.801 390.255 911.541 398.146L913.013 399.5L914.485 400.854C922.559 392.078 926.513 380.559 926.513 366.5H924.513ZM913.013 399.5L911.541 398.146C904.306 406.011 894.62 410 882.263 410V412V414C895.574 414 906.387 409.656 914.485 400.854L913.013 399.5ZM881.513 388.25V390.25C886.9 390.25 891.268 388.262 894.354 384.212L892.763 383L891.172 381.788C888.925 384.738 885.793 386.25 881.513 386.25V388.25ZM892.763 383L894.346 384.223C897.534 380.097 899.013 374.616 899.013 368H897.013H895.013C895.013 374.051 893.659 378.569 891.181 381.777L892.763 383ZM897.013 368H899.013V268.5H897.013H895.013V368H897.013ZM897.013 268.5H899.013C899.013 261.892 897.536 256.468 894.318 252.492L892.763 253.75L891.209 255.008C893.656 258.032 895.013 262.442 895.013 268.5H897.013ZM892.763 253.75L894.381 252.574C891.309 248.351 886.937 246.25 881.513 246.25V248.25V250.25C885.756 250.25 888.884 251.816 891.146 254.926L892.763 253.75ZM881.513 248.25V246.25C875.95 246.25 871.426 248.327 868.181 252.527L869.763 253.75L871.346 254.973C873.767 251.839 877.076 250.25 881.513 250.25V248.25ZM869.763 253.75L868.172 252.538C865.146 256.51 863.763 261.915 863.763 268.5H865.763H867.763C867.763 262.418 869.047 257.99 871.354 254.962L869.763 253.75ZM865.763 268.5H863.763V368H865.763H867.763V268.5H865.763ZM865.763 368H863.763C863.763 374.593 865.149 380.056 868.146 384.176L869.763 383L871.381 381.824C869.044 378.611 867.763 374.074 867.763 368H865.763ZM869.763 383L868.209 384.258C871.467 388.283 875.985 390.25 881.513 390.25V388.25V386.25C877.041 386.25 873.726 384.717 871.318 381.742L869.763 383ZM303.453 409.75L302.182 411.295L302.188 411.3L302.194 411.305L303.453 409.75ZM310.453 469.75L308.902 468.487L308.893 468.498L308.884 468.51L310.453 469.75ZM288.203 482.75L287.88 480.776L286.203 481.051V482.75H288.203ZM288.203 483.25H286.203V485.021L287.961 485.235L288.203 483.25ZM306.453 490.75L305.221 492.326L305.237 492.338L305.253 492.35L306.453 490.75ZM318.953 506.5L317.137 507.338L317.141 507.347L317.145 507.356L318.953 506.5ZM316.203 555L317.905 556.05V556.05L316.203 555ZM295.703 573.25L296.556 575.059L296.57 575.052L296.583 575.046L295.703 573.25ZM236.203 472.25H234.203V474.25H236.203V472.25ZM280.703 465.75L282.038 467.239L282.052 467.227L282.065 467.214L280.703 465.75ZM280.703 429.75L279.314 431.19L279.341 431.215L279.368 431.239L280.703 429.75ZM284.203 546.25L285.569 547.711L285.571 547.709L284.203 546.25ZM284.203 505.5L282.766 506.892L282.788 506.914L282.811 506.936L284.203 505.5ZM236.203 497.5V495.5H234.203V497.5H236.203ZM211.953 579.5V577.5C210.178 577.5 209.214 577.058 208.679 576.523C208.145 575.989 207.703 575.025 207.703 573.25H205.703H203.703C203.703 575.642 204.302 577.803 205.851 579.352C207.4 580.901 209.561 581.5 211.953 581.5V579.5ZM205.703 573.25H207.703V403.25H205.703H203.703V573.25H205.703ZM205.703 403.25H207.703C207.703 401.475 208.145 400.511 208.679 399.977C209.214 399.442 210.178 399 211.953 399V397V395C209.561 395 207.4 395.599 205.851 397.148C204.302 398.697 203.703 400.858 203.703 403.25H205.703ZM211.953 397V399H261.703V397V395H211.953V397ZM261.703 397V399C278.883 399 292.304 403.169 302.182 411.295L303.453 409.75L304.723 408.205C293.934 399.331 279.522 395 261.703 395V397ZM303.453 409.75L302.194 411.305C312.193 419.399 317.203 430.228 317.203 444H319.203H321.203C321.203 429.105 315.712 417.101 304.711 408.195L303.453 409.75ZM319.203 444H317.203C317.203 453.581 314.42 461.708 308.902 468.487L310.453 469.75L312.004 471.013C318.152 463.459 321.203 454.419 321.203 444H319.203ZM310.453 469.75L308.884 468.51C303.532 475.278 296.563 479.355 287.88 480.776L288.203 482.75L288.526 484.724C298.175 483.145 306.04 478.556 312.021 470.99L310.453 469.75ZM288.203 482.75H286.203V483.25H288.203H290.203V482.75H288.203ZM288.203 483.25L287.961 485.235C294.44 486.025 300.18 488.387 305.221 492.326L306.453 490.75L307.684 489.174C302.059 484.78 295.632 482.141 288.445 481.265L288.203 483.25ZM306.453 490.75L305.253 492.35C310.301 496.136 314.265 501.116 317.137 507.338L318.953 506.5L320.769 505.662C317.64 498.884 313.271 493.364 307.653 489.15L306.453 490.75ZM318.953 506.5L317.145 507.356C320.007 513.398 321.453 520.101 321.453 527.5H323.453H325.453C325.453 519.565 323.898 512.269 320.76 505.644L318.953 506.5ZM323.453 527.5H321.453C321.453 537.682 319.113 546.475 314.501 553.95L316.203 555L317.905 556.05C322.959 547.859 325.453 538.318 325.453 527.5H323.453ZM316.203 555L314.501 553.95C309.879 561.44 303.341 567.275 294.822 571.454L295.703 573.25L296.583 575.046C305.731 570.558 312.86 564.227 317.905 556.05L316.203 555ZM295.703 573.25L294.849 571.441C286.337 575.457 276.224 577.5 264.453 577.5V579.5V581.5C276.682 581.5 287.402 579.377 296.556 575.059L295.703 573.25ZM264.453 579.5V577.5H211.953V579.5V581.5H264.453V579.5ZM236.203 472.25V474.25H261.203V472.25V470.25H236.203V472.25ZM261.203 472.25V474.25C269.73 474.25 276.75 471.98 282.038 467.239L280.703 465.75L279.368 464.261C274.989 468.187 269.008 470.25 261.203 470.25V472.25ZM280.703 465.75L282.065 467.214C287.372 462.274 289.953 455.624 289.953 447.5H287.953H285.953C285.953 454.709 283.7 460.226 279.34 464.286L280.703 465.75ZM287.953 447.5H289.953C289.953 439.529 287.362 433.034 282.038 428.261L280.703 429.75L279.368 431.239C283.71 435.133 285.953 440.471 285.953 447.5H287.953ZM280.703 429.75L282.091 428.31C276.954 423.357 269.9 421 261.203 421V423V425C269.172 425 275.118 427.143 279.314 431.19L280.703 429.75ZM261.203 423V421H242.203V423V425H261.203V423ZM242.203 423V421C239.873 421 237.764 421.611 236.26 423.177C234.771 424.729 234.203 426.878 234.203 429.25H236.203H238.203C238.203 427.455 238.635 426.48 239.145 425.948C239.642 425.431 240.532 425 242.203 425V423ZM236.203 429.25H234.203V472.25H236.203H238.203V429.25H236.203ZM236.203 547.25H234.203C234.203 549.622 234.771 551.771 236.26 553.323C237.764 554.889 239.873 555.5 242.203 555.5V553.5V551.5C240.532 551.5 239.642 551.069 239.145 550.552C238.635 550.02 238.203 549.045 238.203 547.25H236.203ZM242.203 553.5V555.5H262.703V553.5V551.5H242.203V553.5ZM262.703 553.5V555.5C272.222 555.5 279.932 552.984 285.569 547.711L284.203 546.25L282.836 544.789C278.14 549.183 271.517 551.5 262.703 551.5V553.5ZM284.203 546.25L285.571 547.709C291.374 542.269 294.203 534.955 294.203 526H292.203H290.203C290.203 534.045 287.698 540.231 282.835 544.791L284.203 546.25ZM292.203 526H294.203C294.203 517.044 291.374 509.663 285.594 504.064L284.203 505.5L282.811 506.936C287.698 511.671 290.203 517.956 290.203 526H292.203ZM284.203 505.5L285.639 504.108C280.011 498.299 272.275 495.5 262.703 495.5V497.5V499.5C271.463 499.5 278.061 502.035 282.766 506.892L284.203 505.5ZM262.703 497.5V495.5H236.203V497.5V499.5H262.703V497.5ZM236.203 497.5H234.203V547.25H236.203H238.203V497.5H236.203ZM369.105 472H367.105V474H369.105V472ZM369.105 498.5V496.5H367.105V498.5H369.105ZM344.605 579.5V577.5C342.83 577.5 341.866 577.058 341.332 576.523C340.797 575.989 340.355 575.025 340.355 573.25H338.355H336.355C336.355 575.642 336.954 577.803 338.503 579.352C340.052 580.901 342.213 581.5 344.605 581.5V579.5ZM338.355 573.25H340.355V403.25H338.355H336.355V573.25H338.355ZM338.355 403.25H340.355C340.355 401.475 340.797 400.511 341.332 399.977C341.866 399.442 342.83 399 344.605 399V397V395C342.213 395 340.052 395.599 338.503 397.148C336.954 398.697 336.355 400.858 336.355 403.25H338.355ZM344.605 397V399H441.605V397V395H344.605V397ZM441.605 397V399C443.38 399 444.344 399.442 444.878 399.977C445.413 400.511 445.855 401.475 445.855 403.25H447.855H449.855C449.855 400.858 449.256 398.697 447.707 397.148C446.158 395.599 443.997 395 441.605 395V397ZM447.855 403.25H445.855V418.25H447.855H449.855V403.25H447.855ZM447.855 418.25H445.855C445.855 420.025 445.413 420.989 444.878 421.523C444.344 422.058 443.38 422.5 441.605 422.5V424.5V426.5C443.997 426.5 446.158 425.901 447.707 424.352C449.256 422.803 449.855 420.642 449.855 418.25H447.855ZM441.605 424.5V422.5H375.355V424.5V426.5H441.605V424.5ZM375.355 424.5V422.5C372.963 422.5 370.802 423.099 369.253 424.648C367.704 426.197 367.105 428.358 367.105 430.75H369.105H371.105C371.105 428.975 371.547 428.011 372.082 427.477C372.616 426.942 373.58 426.5 375.355 426.5V424.5ZM369.105 430.75H367.105V472H369.105H371.105V430.75H369.105ZM369.105 472V474H432.855V472V470H369.105V472ZM432.855 472V474C434.65 474 435.625 474.432 436.157 474.943C436.674 475.439 437.105 476.33 437.105 478H439.105H441.105C441.105 475.67 440.494 473.561 438.928 472.057C437.376 470.568 435.227 470 432.855 470V472ZM439.105 478H437.105V492.25H439.105H441.105V478H439.105ZM439.105 492.25H437.105C437.105 494.025 436.663 494.989 436.128 495.523C435.594 496.058 434.63 496.5 432.855 496.5V498.5V500.5C435.247 500.5 437.408 499.901 438.957 498.352C440.506 496.803 441.105 494.642 441.105 492.25H439.105ZM432.855 498.5V496.5H369.105V498.5V500.5H432.855V498.5ZM369.105 498.5H367.105V545.75H369.105H371.105V498.5H369.105ZM369.105 545.75H367.105C367.105 548.142 367.704 550.303 369.253 551.852C370.802 553.401 372.963 554 375.355 554V552V550C373.58 550 372.616 549.558 372.082 549.023C371.547 548.489 371.105 547.525 371.105 545.75H369.105ZM375.355 552V554H441.605V552V550H375.355V552ZM441.605 552V554C443.38 554 444.344 554.442 444.878 554.977C445.413 555.511 445.855 556.475 445.855 558.25H447.855H449.855C449.855 555.858 449.256 553.697 447.707 552.148C446.158 550.599 443.997 550 441.605 550V552ZM447.855 558.25H445.855V573.25H447.855H449.855V558.25H447.855ZM447.855 573.25H445.855C445.855 575.025 445.413 575.989 444.878 576.523C444.344 577.058 443.38 577.5 441.605 577.5V579.5V581.5C443.997 581.5 446.158 580.901 447.707 579.352C449.256 577.803 449.855 575.642 449.855 573.25H447.855ZM441.605 579.5V577.5H344.605V579.5V581.5H441.605V579.5ZM558.007 404L557.087 405.776L557.093 405.779L557.1 405.782L558.007 404ZM579.257 423.75L577.533 424.764L577.538 424.772L577.542 424.779L579.257 423.75ZM579.257 483L580.972 484.029L580.977 484.022L580.981 484.014L579.257 483ZM558.007 502.5L557.1 500.718L557.093 500.721L557.087 500.724L558.007 502.5ZM496.757 509.5V507.5H494.757V509.5H496.757ZM496.757 482H494.757V484H496.757V482ZM547.257 474L545.821 472.608V472.608L547.257 474ZM547.257 432.5L545.821 433.892V433.892L547.257 432.5ZM471.507 579.5V577.5C469.837 577.5 468.946 577.069 468.45 576.552C467.939 576.02 467.507 575.045 467.507 573.25H465.507H463.507C463.507 575.622 464.075 577.771 465.565 579.323C467.068 580.889 469.178 581.5 471.507 581.5V579.5ZM465.507 573.25H467.507V403.25H465.507H463.507V573.25H465.507ZM465.507 403.25H467.507C467.507 401.455 467.939 400.48 468.45 399.948C468.946 399.431 469.837 399 471.507 399V397V395C469.178 395 467.068 395.611 465.565 397.177C464.075 398.729 463.507 400.878 463.507 403.25H465.507ZM471.507 397V399H526.257V397V395H471.507V397ZM526.257 397V399C538.167 399 548.423 401.283 557.087 405.776L558.007 404L558.928 402.224C549.592 397.384 538.681 395 526.257 395V397ZM558.007 404L557.1 405.782C565.942 410.284 572.735 416.607 577.533 424.764L579.257 423.75L580.981 422.736C575.779 413.893 568.406 407.049 558.915 402.218L558.007 404ZM579.257 423.75L577.542 424.779C582.327 432.753 584.757 442.218 584.757 453.25H586.757H588.757C588.757 441.615 586.188 431.414 580.972 422.721L579.257 423.75ZM586.757 453.25H584.757C584.757 464.281 582.327 473.837 577.533 481.986L579.257 483L580.981 484.014C586.188 475.163 588.757 464.886 588.757 453.25H586.757ZM579.257 483L577.542 481.971C572.747 489.963 565.953 496.211 557.1 500.718L558.007 502.5L558.915 504.282C568.396 499.456 575.768 492.703 580.972 484.029L579.257 483ZM558.007 502.5L557.087 500.724C548.423 505.217 538.167 507.5 526.257 507.5V509.5V511.5C538.681 511.5 549.592 509.116 558.928 504.276L558.007 502.5ZM526.257 509.5V507.5H496.757V509.5V511.5H526.257V509.5ZM496.757 509.5H494.757V573.25H496.757H498.757V509.5H496.757ZM496.757 573.25H494.757C494.757 575.025 494.315 575.989 493.781 576.523C493.246 577.058 492.282 577.5 490.507 577.5V579.5V581.5C492.899 581.5 495.06 580.901 496.609 579.352C498.158 577.803 498.757 575.642 498.757 573.25H496.757ZM490.507 579.5V577.5H471.507V579.5V581.5H490.507V579.5ZM496.757 482V484H526.257V482V480H496.757V482ZM526.257 482V484C535.521 484 543.08 481.187 548.694 475.392L547.257 474L545.821 472.608C541.102 477.48 534.66 480 526.257 480V482ZM547.257 474L548.694 475.392C554.275 469.631 557.007 462.188 557.007 453.25H555.007H553.007C553.007 461.312 550.573 467.703 545.821 472.608L547.257 474ZM555.007 453.25H557.007C557.007 444.312 554.275 436.869 548.694 431.108L547.257 432.5L545.821 433.892C550.573 438.797 553.007 445.188 553.007 453.25H555.007ZM547.257 432.5L548.694 431.108C543.08 425.313 535.521 422.5 526.257 422.5V424.5V426.5C534.66 426.5 541.102 429.02 545.821 433.892L547.257 432.5ZM526.257 424.5V422.5H503.007V424.5V426.5H526.257V424.5ZM503.007 424.5V422.5C500.636 422.5 498.486 423.068 496.935 424.557C495.368 426.061 494.757 428.17 494.757 430.5H496.757H498.757C498.757 428.83 499.188 427.939 499.705 427.443C500.237 426.932 501.212 426.5 503.007 426.5V424.5ZM496.757 430.5H494.757V482H496.757H498.757V430.5H496.757ZM622.41 575.5L621.488 577.275L621.502 577.282L621.515 577.289L622.41 575.5ZM602.16 556.75L600.423 557.742L600.435 557.763L600.448 557.784L602.16 556.75ZM602.16 420L600.438 418.981L600.432 418.992L602.16 420ZM622.41 401.25L623.304 403.039L623.318 403.032L623.331 403.025L622.41 401.25ZM693.16 407.5L691.874 409.032L691.882 409.039L691.889 409.045L693.16 407.5ZM710.66 442L712.654 441.847L712.653 441.832L712.651 441.817L710.66 442ZM679.16 442.5L677.181 442.79L677.184 442.809L677.187 442.829L679.16 442.5ZM633.41 429L634.798 430.44L634.811 430.427L634.824 430.414L633.41 429ZM633.41 547.75L631.995 549.164L632.008 549.177L632.021 549.19L633.41 547.75ZM679.16 534L677.187 533.671L677.184 533.691L677.181 533.71L679.16 534ZM710.91 534L712.901 534.181L712.906 534.132L712.908 534.083L710.91 534ZM693.41 569L692.124 567.468V567.468L693.41 569ZM653.16 582V580C641.569 580 631.638 577.878 623.304 573.711L622.41 575.5L621.515 577.289C630.514 581.788 641.083 584 653.16 584V582ZM622.41 575.5L623.331 573.725C614.976 569.387 608.506 563.386 603.872 555.716L602.16 556.75L600.448 557.784C605.48 566.114 612.51 572.613 621.488 577.275L622.41 575.5ZM602.16 556.75L603.896 555.758C599.429 547.941 597.16 538.711 597.16 528H595.16H593.16C593.16 539.289 595.557 549.226 600.423 557.742L602.16 556.75ZM595.16 528H597.16V448.5H595.16H593.16V528H595.16ZM595.16 448.5H597.16C597.16 437.787 599.43 428.649 603.887 421.008L602.16 420L600.432 418.992C595.556 427.351 593.16 437.213 593.16 448.5H595.16ZM602.16 420L603.881 421.019C608.514 413.19 614.974 407.204 623.304 403.039L622.41 401.25L621.515 399.461C612.512 403.963 605.472 410.477 600.439 418.981L602.16 420ZM622.41 401.25L623.331 403.025C631.659 398.701 641.58 396.5 653.16 396.5V394.5V392.5C641.073 392.5 630.494 394.799 621.488 399.475L622.41 401.25ZM653.16 394.5V396.5C669.126 396.5 681.973 400.728 691.874 409.032L693.16 407.5L694.445 405.968C683.68 396.939 669.86 392.5 653.16 392.5V394.5ZM693.16 407.5L691.889 409.045C701.771 417.174 707.379 428.163 708.668 442.183L710.66 442L712.651 441.817C711.274 426.837 705.215 414.826 694.43 405.955L693.16 407.5ZM710.66 442L708.666 442.153C708.81 444.03 708.414 445.005 707.94 445.518C707.467 446.031 706.533 446.5 704.66 446.5V448.5V450.5C707.12 450.5 709.352 449.886 710.879 448.232C712.405 446.579 712.843 444.303 712.654 441.847L710.66 442ZM704.66 448.5V446.5H685.91V448.5V450.5H704.66V448.5ZM685.91 448.5V446.5C684.345 446.5 683.343 446.098 682.676 445.505C681.995 444.9 681.417 443.877 681.132 442.171L679.16 442.5L677.187 442.829C677.569 445.123 678.45 447.1 680.018 448.495C681.601 449.902 683.641 450.5 685.91 450.5V448.5ZM679.16 442.5L681.139 442.21C680.084 435.004 677.227 429.362 672.398 425.554C667.597 421.769 661.103 420 653.16 420V422V424C660.549 424 666.056 425.648 669.921 428.696C673.759 431.721 676.235 436.329 677.181 442.79L679.16 442.5ZM653.16 422V420C644.289 420 637.137 422.444 631.995 427.586L633.41 429L634.824 430.414C639.016 426.222 645.03 424 653.16 424V422ZM633.41 429L632.021 427.56C626.853 432.544 624.41 439.634 624.41 448.5H626.41H628.41C628.41 440.366 630.633 434.456 634.798 430.44L633.41 429ZM626.41 448.5H624.41V528H626.41H628.41V448.5H626.41ZM626.41 528H624.41C624.41 536.871 626.854 544.023 631.995 549.164L633.41 547.75L634.824 546.336C630.632 542.144 628.41 536.129 628.41 528H626.41ZM633.41 547.75L632.021 549.19C637.166 554.15 644.308 556.5 653.16 556.5V554.5V552.5C645.011 552.5 638.987 550.35 634.798 546.31L633.41 547.75ZM653.16 554.5V556.5C661.103 556.5 667.597 554.731 672.398 550.946C677.227 547.138 680.084 541.496 681.139 534.29L679.16 534L677.181 533.71C676.235 540.171 673.759 544.779 669.921 547.804C666.056 550.852 660.549 552.5 653.16 552.5V554.5ZM679.16 534L681.132 534.329C681.417 532.623 681.995 531.6 682.676 530.995C683.343 530.402 684.345 530 685.91 530V528V526C683.641 526 681.601 526.598 680.018 528.005C678.45 529.4 677.569 531.377 677.187 533.671L679.16 534ZM685.91 528V530H704.66V528V526H685.91V528ZM704.66 528V530C706.564 530 707.568 530.444 708.087 530.943C708.574 531.41 708.98 532.26 708.911 533.917L710.91 534L712.908 534.083C713.006 531.74 712.454 529.59 710.857 528.057C709.293 526.556 707.089 526 704.66 526V528ZM710.91 534L708.918 533.819C707.628 548.013 702.014 559.173 692.124 567.468L693.41 569L694.695 570.532C705.472 561.493 711.525 549.321 712.901 534.181L710.91 534ZM693.41 569L692.124 567.468C682.227 575.769 669.299 580 653.16 580V582V584C670.021 584 683.926 579.564 694.695 570.532L693.41 569ZM724.062 579.5H722.062V581.5H724.062V579.5ZM724.062 397V395H722.062V397H724.062ZM752.562 397H754.562V395H752.562V397ZM752.062 506L754.06 506.093V506.093L752.062 506ZM750.812 527L748.817 526.854V526.854L750.812 527ZM749.562 544.5L747.567 544.362L751.455 545.145L749.562 544.5ZM799.812 397V395H798.38L797.919 396.355L799.812 397ZM838.062 397H840.062V395H838.062V397ZM838.062 579.5V581.5H840.062V579.5H838.062ZM809.562 579.5H807.562V581.5H809.562V579.5ZM810.062 473L808.066 472.867L808.065 472.889L808.064 472.911L810.062 473ZM811.562 451L813.557 451.139L813.557 451.136L811.562 451ZM813.062 432L815.053 432.187L811.171 431.349L813.062 432ZM762.312 579.5V581.5H763.739L764.203 580.151L762.312 579.5ZM724.062 579.5H726.062V397H724.062H722.062V579.5H724.062ZM724.062 397V399H752.562V397V395H724.062V397ZM752.562 397H750.562V486.25H752.562H754.562V397H752.562ZM752.562 486.25H750.562C750.562 492.214 750.396 498.766 750.064 505.907L752.062 506L754.06 506.093C754.394 498.901 754.562 492.286 754.562 486.25H752.562ZM752.062 506L750.064 505.907C749.732 513.057 749.316 520.039 748.817 526.854L750.812 527L752.807 527.146C753.308 520.294 753.726 513.276 754.06 506.093L752.062 506ZM750.812 527L748.817 526.854C748.317 533.689 747.9 539.525 747.567 544.362L749.562 544.5L751.557 544.638C751.89 539.808 752.307 533.978 752.807 527.146L750.812 527ZM749.562 544.5L751.455 545.145L801.705 397.645L799.812 397L797.919 396.355L747.669 543.855L749.562 544.5ZM799.812 397V399H838.062V397V395H799.812V397ZM838.062 397H836.062V579.5H838.062H840.062V397H838.062ZM838.062 579.5V577.5H809.562V579.5V581.5H838.062V579.5ZM809.562 579.5H811.562V493H809.562H807.562V579.5H809.562ZM809.562 493H811.562C811.562 487.203 811.728 480.567 812.06 473.089L810.062 473L808.064 472.911C807.73 480.433 807.562 487.13 807.562 493H809.562ZM810.062 473L812.058 473.133C812.557 465.635 813.057 458.304 813.557 451.139L811.562 451L809.567 450.861C809.067 458.03 808.567 465.365 808.066 472.867L810.062 473ZM811.562 451L813.557 451.136C814.057 443.814 814.555 437.498 815.053 432.187L813.062 432L811.071 431.813C810.569 437.168 810.067 443.519 809.567 450.864L811.562 451ZM813.062 432L811.171 431.349L760.421 578.849L762.312 579.5L764.203 580.151L814.953 432.651L813.062 432ZM762.312 579.5V577.5H724.062V579.5V581.5H762.312V579.5ZM906.964 569.5L905.478 570.838L905.485 570.846L905.492 570.854L906.964 569.5ZM895.714 497.5H897.714V495.5H895.714V497.5ZM875.214 497.5V495.5H873.214V497.5H875.214ZM875.214 579.5V581.5H877.214V579.5H875.214ZM847.714 579.5H845.714V581.5H847.714V579.5ZM847.714 397V395H845.714V397H847.714ZM875.214 397H877.214V395H875.214V397ZM875.214 472.5H873.214V474.5H875.214V472.5ZM895.714 472.5V474.5H897.714V472.5H895.714ZM906.964 407L905.492 405.646L905.491 405.647L906.964 407ZM967.964 407L966.492 408.354L966.499 408.362L966.506 408.369L967.964 407ZM967.964 569.5L966.492 568.146V568.146L967.964 569.5ZM947.714 553L946.132 551.777L946.124 551.788L947.714 553ZM947.714 423.75L946.097 424.926L946.127 424.968L946.16 425.008L947.714 423.75ZM924.714 423.75L923.132 422.527L923.123 422.538L924.714 423.75ZM924.714 553L923.097 554.176L923.127 554.218L923.16 554.258L924.714 553ZM937.214 582V580C925.209 580 915.682 576.022 908.436 568.146L906.964 569.5L905.492 570.854C913.58 579.644 924.22 584 937.214 584V582ZM906.964 569.5L908.451 568.162C901.35 560.272 897.714 549.786 897.714 536.5H895.714H893.714C893.714 550.547 897.578 562.061 905.478 570.838L906.964 569.5ZM895.714 536.5H897.714V497.5H895.714H893.714V536.5H895.714ZM895.714 497.5V495.5H875.214V497.5V499.5H895.714V497.5ZM875.214 497.5H873.214V579.5H875.214H877.214V497.5H875.214ZM875.214 579.5V577.5H847.714V579.5V581.5H875.214V579.5ZM847.714 579.5H849.714V397H847.714H845.714V579.5H847.714ZM847.714 397V399H875.214V397V395H847.714V397ZM875.214 397H873.214V472.5H875.214H877.214V397H875.214ZM875.214 472.5V474.5H895.714V472.5V470.5H875.214V472.5ZM895.714 472.5H897.714V439.75H895.714H893.714V472.5H895.714ZM895.714 439.75H897.714C897.714 426.462 901.351 416.069 908.437 408.353L906.964 407L905.491 405.647C897.578 414.264 893.714 425.704 893.714 439.75H895.714ZM906.964 407L908.436 408.354C915.682 400.478 925.209 396.5 937.214 396.5V394.5V392.5C924.22 392.5 913.58 396.856 905.492 405.646L906.964 407ZM937.214 394.5V396.5C949.571 396.5 959.257 400.489 966.492 408.354L967.964 407L969.436 405.646C961.339 396.844 950.525 392.5 937.214 392.5V394.5ZM967.964 407L966.506 408.369C973.752 416.087 977.464 426.474 977.464 439.75H979.464H981.464C981.464 425.693 977.51 414.247 969.422 405.631L967.964 407ZM979.464 439.75H977.464V536.5H979.464H981.464V439.75H979.464ZM979.464 536.5H977.464C977.464 549.775 973.752 560.255 966.492 568.146L967.964 569.5L969.436 570.854C977.51 562.078 981.464 550.559 981.464 536.5H979.464ZM967.964 569.5L966.492 568.146C959.257 576.011 949.571 580 937.214 580V582V584C950.525 584 961.339 579.656 969.436 570.854L967.964 569.5ZM936.464 558.25V560.25C941.851 560.25 946.219 558.262 949.305 554.212L947.714 553L946.124 551.788C943.876 554.738 940.744 556.25 936.464 556.25V558.25ZM947.714 553L949.297 554.223C952.485 550.097 953.964 544.616 953.964 538H951.964H949.964C949.964 544.051 948.611 548.569 946.132 551.777L947.714 553ZM951.964 538H953.964V438.5H951.964H949.964V538H951.964ZM951.964 438.5H953.964C953.964 431.892 952.488 426.468 949.269 422.492L947.714 423.75L946.16 425.008C948.608 428.032 949.964 432.442 949.964 438.5H951.964ZM947.714 423.75L949.332 422.574C946.261 418.351 941.888 416.25 936.464 416.25V418.25V420.25C940.707 420.25 943.835 421.816 946.097 424.926L947.714 423.75ZM936.464 418.25V416.25C930.901 416.25 926.377 418.327 923.132 422.527L924.714 423.75L926.297 424.973C928.718 421.839 932.027 420.25 936.464 420.25V418.25ZM924.714 423.75L923.123 422.538C920.097 426.51 918.714 431.915 918.714 438.5H920.714H922.714C922.714 432.418 923.998 427.99 926.305 424.962L924.714 423.75ZM920.714 438.5H918.714V538H920.714H922.714V438.5H920.714ZM920.714 538H918.714C918.714 544.593 920.1 550.056 923.097 554.176L924.714 553L926.332 551.824C923.995 548.611 922.714 544.074 922.714 538H920.714ZM924.714 553L923.16 554.258C926.418 558.283 930.936 560.25 936.464 560.25V558.25V556.25C931.992 556.25 928.677 554.717 926.269 551.742L924.714 553Z" fill="black" mask="url(#path-1-outside-1_63_1002)"/>
</svg>
