<svg width="608" height="305" viewBox="0 0 608 305" fill="none" xmlns="http://www.w3.org/2000/svg">
<mask id="path-1-outside-1_129_7290" maskUnits="userSpaceOnUse" x="-0.736328" y="-0.5" width="609" height="306" fill="black">
<rect fill="white" x="-0.736328" y="-0.5" width="609" height="306"/>
<path d="M4.91219 125.5C2.48553 125.5 1.57553 124.33 2.18219 121.99L24.4122 33.33C24.8455 31.51 26.0155 30.6 27.9222 30.6H43.1322C45.0389 30.6 46.2089 31.51 46.6422 33.33L69.0022 121.99C69.6089 124.33 68.6989 125.5 66.2722 125.5H56.2622C54.3555 125.5 53.2289 124.547 52.8822 122.64L48.2022 102.49H22.9822L18.4322 122.64C17.9989 124.547 16.8289 125.5 14.9222 125.5H4.91219ZM25.9722 89.23H45.2122L39.4922 63.75C39.0589 61.93 38.6689 60.24 38.3222 58.68C38.0622 57.12 37.8022 55.6467 37.5422 54.26C37.1955 52.7 36.5889 51.7467 35.7222 51.4C34.8555 50.9667 34.2922 51.4 34.0322 52.7C33.7722 54.3467 33.4255 56.08 32.9922 57.9C32.6455 59.72 32.2122 61.6267 31.6922 63.62L25.9722 89.23ZM77.2714 125.5C75.1047 125.5 74.0214 124.417 74.0214 122.25V33.85C74.0214 31.6833 75.1047 30.6 77.2714 30.6H87.1514C89.2314 30.6 90.2714 31.6833 90.2714 33.85V69.34H101.451L118.481 32.94C119.175 31.38 120.388 30.6 122.121 30.6H132.911C134.125 30.6 134.948 30.99 135.381 31.77C135.901 32.4633 135.901 33.33 135.381 34.37L115.751 75.84L136.421 121.73C136.941 122.77 136.941 123.68 136.421 124.46C135.988 125.153 135.165 125.5 133.951 125.5H122.771C120.951 125.5 119.695 124.677 119.001 123.03L101.321 83.51H90.2714V122.25C90.2714 124.417 89.2314 125.5 87.1514 125.5H77.2714ZM165.751 125.5C163.584 125.5 162.501 124.417 162.501 122.25V45.29H140.921C138.754 45.29 137.671 44.2067 137.671 42.04V33.85C137.671 31.6833 138.754 30.6 140.921 30.6H200.461C202.627 30.6 203.711 31.6833 203.711 33.85V42.04C203.711 44.2067 202.627 45.29 200.461 45.29H178.881V122.25C178.881 124.417 177.797 125.5 175.631 125.5H165.751ZM208.6 125.5V30.6H223.42V77.01C223.42 80.13 223.333 83.5533 223.16 87.28C222.987 91.0067 222.77 94.6467 222.51 98.2C222.25 101.753 222.033 104.787 221.86 107.3L247.99 30.6H267.88V125.5H253.06V80.52C253.06 77.4867 253.147 74.02 253.32 70.12C253.58 66.22 253.84 62.4067 254.1 58.68C254.36 54.8667 254.62 51.5733 254.88 48.8L228.49 125.5H208.6ZM280.049 125.5C277.882 125.5 276.799 124.417 276.799 122.25V33.85C276.799 31.6833 277.882 30.6 280.049 30.6H305.919C315.019 30.6 322.256 32.81 327.629 37.23C333.089 41.65 335.819 47.5867 335.819 55.04C335.819 60.24 334.302 64.7033 331.269 68.43C328.322 72.1567 324.466 74.41 319.699 75.19V75.45C323.252 75.8833 326.416 77.1833 329.189 79.35C331.962 81.43 334.129 84.16 335.689 87.54C337.249 90.8333 338.029 94.4733 338.029 98.46C338.029 103.92 336.772 108.687 334.259 112.76C331.746 116.833 328.192 119.997 323.599 122.25C319.006 124.417 313.589 125.5 307.349 125.5H280.049ZM292.659 69.73H305.659C309.906 69.73 313.286 68.6033 315.799 66.35C318.312 64.01 319.569 60.8467 319.569 56.86C319.569 52.96 318.312 49.8833 315.799 47.63C313.372 45.29 309.992 44.12 305.659 44.12H295.779C293.699 44.12 292.659 45.2033 292.659 47.37V69.73ZM292.659 108.73C292.659 110.897 293.699 111.98 295.779 111.98H306.439C311.206 111.98 314.932 110.723 317.619 108.21C320.392 105.61 321.779 102.1 321.779 97.68C321.779 93.26 320.392 89.7067 317.619 87.02C314.932 84.2467 311.206 82.86 306.439 82.86H292.659V108.73ZM343.698 125.5V30.6H358.518V77.01C358.518 80.13 358.432 83.5533 358.258 87.28C358.085 91.0067 357.868 94.6467 357.608 98.2C357.348 101.753 357.132 104.787 356.958 107.3L383.088 30.6H402.978V125.5H388.158V80.52C388.158 77.4867 388.245 74.02 388.418 70.12C388.678 66.22 388.938 62.4067 389.198 58.68C389.458 54.8667 389.718 51.5733 389.978 48.8L363.588 125.5H343.698ZM415.018 125.5C412.938 125.5 411.898 124.417 411.898 122.25V33.85C411.898 31.6833 412.938 30.6 415.018 30.6H443.488C449.814 30.6 455.318 31.8133 459.998 34.24C464.764 36.6667 468.448 40.09 471.048 44.51C473.648 48.8433 474.948 53.9567 474.948 59.85C474.948 65.7433 473.648 70.9 471.048 75.32C468.448 79.6533 464.764 83.0333 459.998 85.46C455.318 87.8867 449.814 89.1 443.488 89.1H428.148V122.25C428.148 124.417 427.064 125.5 424.898 125.5H415.018ZM428.148 74.8H443.488C448.081 74.8 451.721 73.4133 454.408 70.64C457.094 67.8667 458.438 64.27 458.438 59.85C458.438 55.43 457.094 51.8333 454.408 49.06C451.721 46.2867 448.081 44.9 443.488 44.9H431.398C429.231 44.9 428.148 45.94 428.148 48.02V74.8ZM491.927 125.5L501.677 101.19L473.987 30.6H491.667L505.967 72.46C506.833 74.8867 507.57 77.4433 508.177 80.13C508.87 82.73 509.303 84.8533 509.477 86.5C509.65 84.8533 509.997 82.73 510.517 80.13C511.123 77.4433 511.773 74.8867 512.467 72.46L525.597 30.6H542.887L509.087 125.5H491.927ZM546.346 125.5V30.6H561.166V77.01C561.166 80.13 561.079 83.5533 560.906 87.28C560.733 91.0067 560.516 94.6467 560.256 98.2C559.996 101.753 559.779 104.787 559.606 107.3L585.736 30.6H605.626V125.5H590.806V80.52C590.806 77.4867 590.893 74.02 591.066 70.12C591.326 66.22 591.586 62.4067 591.846 58.68C592.106 54.8667 592.366 51.5733 592.626 48.8L566.236 125.5H546.346ZM575.986 21.24C569.919 21.24 564.849 19.81 560.776 16.95C556.789 14.0033 554.406 10.1467 553.626 5.38C553.453 4.25333 553.669 3.43 554.276 2.91C554.883 2.30333 555.706 1.99999 556.746 1.99999H562.986C563.939 1.99999 564.633 2.25999 565.066 2.77999C565.586 3.3 566.019 4.03666 566.366 4.98999C566.973 6.98333 568.099 8.58666 569.746 9.79999C571.479 10.9267 573.559 11.49 575.986 11.49C578.413 11.49 580.493 10.9267 582.226 9.79999C583.959 8.58666 585.086 6.98333 585.606 4.98999C585.953 4.03666 586.343 3.3 586.776 2.77999C587.296 2.25999 588.033 1.99999 588.986 1.99999H595.356C596.396 1.99999 597.219 2.25999 597.826 2.77999C598.433 3.3 598.649 3.99333 598.476 4.86C597.783 9.79999 595.399 13.7867 591.326 16.82C587.339 19.7667 582.226 21.24 575.986 21.24ZM150.151 213.5C147.984 213.5 146.901 212.417 146.901 210.25V121.85C146.901 119.683 147.984 118.6 150.151 118.6H160.031C162.111 118.6 163.151 119.683 163.151 121.85V157.08H188.631V121.85C188.631 119.683 189.671 118.6 191.751 118.6H201.631C203.797 118.6 204.881 119.683 204.881 121.85V210.25C204.881 212.417 203.797 213.5 201.631 213.5H191.751C189.671 213.5 188.631 212.417 188.631 210.25V171.77H163.151V210.25C163.151 212.417 162.111 213.5 160.031 213.5H150.151ZM243.44 214.8C234.34 214.8 227.103 212.2 221.73 207C216.443 201.8 213.8 194.607 213.8 185.42V146.68C213.8 137.493 216.443 130.3 221.73 125.1C227.103 119.9 234.34 117.3 243.44 117.3C252.54 117.3 259.733 119.9 265.02 125.1C270.393 130.3 273.08 137.45 273.08 146.55V185.42C273.08 194.607 270.393 201.8 265.02 207C259.733 212.2 252.54 214.8 243.44 214.8ZM243.44 200.5C247.86 200.5 251.197 199.33 253.45 196.99C255.703 194.563 256.83 191.14 256.83 186.72V145.38C256.83 140.96 255.703 137.58 253.45 135.24C251.197 132.813 247.86 131.6 243.44 131.6C239.02 131.6 235.683 132.813 233.43 135.24C231.177 137.58 230.05 140.96 230.05 145.38V186.72C230.05 191.14 231.177 194.563 233.43 196.99C235.683 199.33 239.02 200.5 243.44 200.5ZM285.249 213.5C283.082 213.5 281.999 212.417 281.999 210.25V121.85C281.999 119.683 283.082 118.6 285.249 118.6H311.119C320.219 118.6 327.456 120.81 332.829 125.23C338.289 129.65 341.019 135.587 341.019 143.04C341.019 148.24 339.502 152.703 336.469 156.43C333.522 160.157 329.666 162.41 324.899 163.19V163.45C328.452 163.883 331.616 165.183 334.389 167.35C337.162 169.43 339.329 172.16 340.889 175.54C342.449 178.833 343.229 182.473 343.229 186.46C343.229 191.92 341.972 196.687 339.459 200.76C336.946 204.833 333.392 207.997 328.799 210.25C324.206 212.417 318.789 213.5 312.549 213.5H285.249ZM297.859 157.73H310.859C315.106 157.73 318.486 156.603 320.999 154.35C323.512 152.01 324.769 148.847 324.769 144.86C324.769 140.96 323.512 137.883 320.999 135.63C318.572 133.29 315.192 132.12 310.859 132.12H300.979C298.899 132.12 297.859 133.203 297.859 135.37V157.73ZM297.859 196.73C297.859 198.897 298.899 199.98 300.979 199.98H311.639C316.406 199.98 320.132 198.723 322.819 196.21C325.592 193.61 326.979 190.1 326.979 185.68C326.979 181.26 325.592 177.707 322.819 175.02C320.132 172.247 316.406 170.86 311.639 170.86H297.859V196.73ZM362.028 213.5L371.778 189.19L344.088 118.6H361.768L376.068 160.46C376.935 162.887 377.672 165.443 378.278 168.13C378.972 170.73 379.405 172.853 379.578 174.5C379.752 172.853 380.098 170.73 380.618 168.13C381.225 165.443 381.875 162.887 382.568 160.46L395.698 118.6H412.988L379.188 213.5H362.028ZM459.737 214.8C453.237 214.8 447.994 212.633 444.007 208.3C440.107 203.967 438.157 198.247 438.157 191.14V170.86H427.497V213.5H413.197V118.6H427.497V157.86H438.157V140.83C438.157 133.723 440.107 128.047 444.007 123.8C447.994 119.467 453.237 117.3 459.737 117.3C466.411 117.3 471.741 119.467 475.727 123.8C479.714 128.047 481.707 133.723 481.707 140.83V191.14C481.707 198.247 479.714 203.967 475.727 208.3C471.741 212.633 466.411 214.8 459.737 214.8ZM459.347 202.45C461.861 202.45 463.811 201.54 465.197 199.72C466.671 197.813 467.407 195.213 467.407 191.92V140.18C467.407 136.887 466.671 134.33 465.197 132.51C463.811 130.603 461.861 129.65 459.347 129.65C456.747 129.65 454.711 130.603 453.237 132.51C451.851 134.33 451.157 136.887 451.157 140.18V191.92C451.157 195.213 451.851 197.813 453.237 199.72C454.711 201.54 456.747 202.45 459.347 202.45ZM111.176 301.5C109.009 301.5 107.926 300.417 107.926 298.25V209.85C107.926 207.683 109.009 206.6 111.176 206.6H137.046C146.146 206.6 153.383 208.81 158.756 213.23C164.216 217.65 166.946 223.587 166.946 231.04C166.946 236.24 165.429 240.703 162.396 244.43C159.449 248.157 155.593 250.41 150.826 251.19V251.45C154.379 251.883 157.543 253.183 160.316 255.35C163.089 257.43 165.256 260.16 166.816 263.54C168.376 266.833 169.156 270.473 169.156 274.46C169.156 279.92 167.899 284.687 165.386 288.76C162.873 292.833 159.319 295.997 154.726 298.25C150.133 300.417 144.716 301.5 138.476 301.5H111.176ZM123.786 245.73H136.786C141.033 245.73 144.413 244.603 146.926 242.35C149.439 240.01 150.696 236.847 150.696 232.86C150.696 228.96 149.439 225.883 146.926 223.63C144.499 221.29 141.119 220.12 136.786 220.12H126.906C124.826 220.12 123.786 221.203 123.786 223.37V245.73ZM123.786 284.73C123.786 286.897 124.826 287.98 126.906 287.98H137.566C142.333 287.98 146.059 286.723 148.746 284.21C151.519 281.61 152.906 278.1 152.906 273.68C152.906 269.26 151.519 265.707 148.746 263.02C146.059 260.247 142.333 258.86 137.566 258.86H123.786V284.73ZM180.155 301.5C177.989 301.5 176.905 300.417 176.905 298.25V209.85C176.905 207.683 177.989 206.6 180.155 206.6H230.595C232.762 206.6 233.845 207.683 233.845 209.85V217.65C233.845 219.817 232.762 220.9 230.595 220.9H196.145C193.979 220.9 192.895 221.983 192.895 224.15V245.6H226.045C228.212 245.6 229.295 246.64 229.295 248.72V256.13C229.295 258.297 228.212 259.38 226.045 259.38H192.895V283.95C192.895 286.117 193.979 287.2 196.145 287.2H230.595C232.762 287.2 233.845 288.283 233.845 290.45V298.25C233.845 300.417 232.762 301.5 230.595 301.5H180.155ZM246.144 301.5C244.064 301.5 243.024 300.417 243.024 298.25V209.85C243.024 207.683 244.064 206.6 246.144 206.6H274.614C280.941 206.6 286.444 207.813 291.124 210.24C295.891 212.667 299.574 216.09 302.174 220.51C304.774 224.843 306.074 229.957 306.074 235.85C306.074 241.743 304.774 246.9 302.174 251.32C299.574 255.653 295.891 259.033 291.124 261.46C286.444 263.887 280.941 265.1 274.614 265.1H259.274V298.25C259.274 300.417 258.191 301.5 256.024 301.5H246.144ZM259.274 250.8H274.614C279.208 250.8 282.848 249.413 285.534 246.64C288.221 243.867 289.564 240.27 289.564 235.85C289.564 231.43 288.221 227.833 285.534 225.06C282.848 222.287 279.208 220.9 274.614 220.9H262.524C260.358 220.9 259.274 221.94 259.274 224.02V250.8ZM340.604 302.8C334.45 302.8 329.12 301.673 324.614 299.42C320.107 297.08 316.597 293.83 314.084 289.67C311.657 285.423 310.444 280.44 310.444 274.72V233.38C310.444 227.66 311.657 222.72 314.084 218.56C316.597 214.313 320.107 211.063 324.614 208.81C329.12 206.47 334.45 205.3 340.604 205.3C349.097 205.3 356.03 207.553 361.404 212.06C366.777 216.48 369.81 222.46 370.504 230C370.677 232.253 369.637 233.38 367.384 233.38H357.634C355.64 233.38 354.47 232.34 354.124 230.26C353.084 223.153 348.577 219.6 340.604 219.6C336.184 219.6 332.76 220.813 330.334 223.24C327.907 225.58 326.694 228.96 326.694 233.38V274.72C326.694 279.14 327.907 282.563 330.334 284.99C332.76 287.33 336.184 288.5 340.604 288.5C348.577 288.5 353.084 284.947 354.124 277.84C354.47 275.76 355.64 274.72 357.634 274.72H367.384C369.637 274.72 370.72 275.76 370.634 277.84C369.94 285.467 366.907 291.533 361.534 296.04C356.16 300.547 349.184 302.8 340.604 302.8ZM377.473 301.5V206.6H392.293V253.01C392.293 256.13 392.206 259.553 392.033 263.28C391.86 267.007 391.643 270.647 391.383 274.2C391.123 277.753 390.906 280.787 390.733 283.3L416.863 206.6H436.753V301.5H421.933V256.52C421.933 253.487 422.02 250.02 422.193 246.12C422.453 242.22 422.713 238.407 422.973 234.68C423.233 230.867 423.493 227.573 423.753 224.8L397.363 301.5H377.473ZM488.312 302.8C481.812 302.8 476.569 300.633 472.582 296.3C468.682 291.967 466.732 286.247 466.732 279.14V258.86H456.072V301.5H441.772V206.6H456.072V245.86H466.732V228.83C466.732 221.723 468.682 216.047 472.582 211.8C476.569 207.467 481.812 205.3 488.312 205.3C494.985 205.3 500.315 207.467 504.302 211.8C508.289 216.047 510.282 221.723 510.282 228.83V279.14C510.282 286.247 508.289 291.967 504.302 296.3C500.315 300.633 494.985 302.8 488.312 302.8ZM487.922 290.45C490.435 290.45 492.385 289.54 493.772 287.72C495.245 285.813 495.982 283.213 495.982 279.92V228.18C495.982 224.887 495.245 222.33 493.772 220.51C492.385 218.603 490.435 217.65 487.922 217.65C485.322 217.65 483.285 218.603 481.812 220.51C480.425 222.33 479.732 224.887 479.732 228.18V279.92C479.732 283.213 480.425 285.813 481.812 287.72C483.285 289.54 485.322 290.45 487.922 290.45Z"/>
</mask>
<path d="M2.18219 121.99L4.11819 122.492L4.1202 122.484L4.12214 122.476L2.18219 121.99ZM24.4122 33.33L26.3521 33.8164L26.355 33.8048L26.3578 33.7932L24.4122 33.33ZM46.6422 33.33L44.6966 33.7932L44.6997 33.8062L44.7029 33.8191L46.6422 33.33ZM69.0022 121.99L67.0629 122.479L67.0662 122.492L69.0022 121.99ZM52.8822 122.64L54.8499 122.282L54.8413 122.235L54.8303 122.188L52.8822 122.64ZM48.2022 102.49L50.1503 102.038L49.7909 100.49H48.2022V102.49ZM22.9822 102.49V100.49H21.3835L21.0313 102.049L22.9822 102.49ZM18.4322 122.64L20.3825 123.083L20.3831 123.081L18.4322 122.64ZM25.9722 89.23L24.0203 88.794L23.4762 91.23H25.9722V89.23ZM45.2122 89.23V91.23H47.711L47.1636 88.7919L45.2122 89.23ZM39.4922 63.75L41.4436 63.3119L41.4408 63.2993L41.4378 63.2868L39.4922 63.75ZM38.3222 58.68L36.3494 59.0088L36.3582 59.0616L36.3698 59.1139L38.3222 58.68ZM37.5422 54.26L39.5079 53.8914L39.5018 53.8587L39.4946 53.8261L37.5422 54.26ZM35.7222 51.4L34.8278 53.1889L34.9022 53.2261L34.9794 53.2569L35.7222 51.4ZM34.0322 52.7L32.071 52.3078L32.063 52.3478L32.0567 52.3881L34.0322 52.7ZM32.9922 57.9L31.0466 57.4368L31.036 57.481L31.0275 57.5258L32.9922 57.9ZM31.6922 63.62L29.757 63.1152L29.748 63.1494L29.7403 63.184L31.6922 63.62ZM4.91219 125.5V123.5C4.45293 123.5 4.1799 123.443 4.03836 123.393C3.9131 123.349 3.93776 123.33 3.9884 123.395C4.03938 123.46 4.01519 123.481 4.00414 123.353C3.99156 123.208 4.00381 122.933 4.11819 122.492L2.18219 121.99L0.2462 121.488C-0.115026 122.881 -0.193382 124.533 0.830989 125.85C1.85303 127.164 3.47198 127.5 4.91219 127.5V125.5ZM2.18219 121.99L4.12214 122.476L26.3521 33.8164L24.4122 33.33L22.4722 32.8436L0.242244 121.504L2.18219 121.99ZM24.4122 33.33L26.3578 33.7932C26.4973 33.2075 26.7023 32.9703 26.8426 32.8612C26.9869 32.7489 27.285 32.6 27.9222 32.6V30.6V28.6C26.6527 28.6 25.4124 28.9061 24.3868 29.7038C23.3571 30.5047 22.7604 31.6325 22.4666 32.8668L24.4122 33.33ZM27.9222 30.6V32.6H43.1322V30.6V28.6H27.9222V30.6ZM43.1322 30.6V32.6C43.7694 32.6 44.0674 32.7489 44.2118 32.8612C44.3521 32.9703 44.5571 33.2075 44.6966 33.7932L46.6422 33.33L48.5878 32.8668C48.2939 31.6325 47.6973 30.5047 46.6676 29.7038C45.6419 28.9061 44.4017 28.6 43.1322 28.6V30.6ZM46.6422 33.33L44.7029 33.8191L67.0629 122.479L69.0022 121.99L70.9415 121.501L48.5815 32.8409L46.6422 33.33ZM69.0022 121.99L67.0662 122.492C67.1806 122.933 67.1928 123.208 67.1803 123.353C67.1692 123.481 67.145 123.46 67.196 123.395C67.2466 123.33 67.2713 123.349 67.146 123.393C67.0045 123.443 66.7315 123.5 66.2722 123.5V125.5V127.5C67.7124 127.5 69.3314 127.164 70.3534 125.85C71.3778 124.533 71.2994 122.881 70.9382 121.488L69.0022 121.99ZM66.2722 125.5V123.5H56.2622V125.5V127.5H66.2722V125.5ZM56.2622 125.5V123.5C55.6411 123.5 55.3867 123.349 55.2791 123.258C55.1675 123.164 54.9665 122.924 54.8499 122.282L52.8822 122.64L50.9145 122.998C51.1445 124.263 51.6802 125.453 52.6953 126.312C53.7144 127.174 54.9766 127.5 56.2622 127.5V125.5ZM52.8822 122.64L54.8303 122.188L50.1503 102.038L48.2022 102.49L46.2541 102.942L50.9341 123.092L52.8822 122.64ZM48.2022 102.49V100.49H22.9822V102.49V104.49H48.2022V102.49ZM22.9822 102.49L21.0313 102.049L16.4813 122.199L18.4322 122.64L20.3831 123.081L24.9331 102.931L22.9822 102.49ZM18.4322 122.64L16.4819 122.197C16.3347 122.844 16.1145 123.114 15.9663 123.235C15.8237 123.351 15.5391 123.5 14.9222 123.5V125.5V127.5C16.2119 127.5 17.4657 127.173 18.493 126.335C19.5149 125.503 20.0963 124.342 20.3825 123.083L18.4322 122.64ZM14.9222 125.5V123.5H4.91219V125.5V127.5H14.9222V125.5ZM25.9722 89.23V91.23H45.2122V89.23V87.23H25.9722V89.23ZM45.2122 89.23L47.1636 88.7919L41.4436 63.3119L39.4922 63.75L37.5408 64.1881L43.2608 89.6681L45.2122 89.23ZM39.4922 63.75L41.4378 63.2868C41.0064 61.4749 40.6187 59.7948 40.2746 58.2461L38.3222 58.68L36.3698 59.1139C36.719 60.6852 37.1113 62.3851 37.5466 64.2132L39.4922 63.75ZM38.3222 58.68L40.295 58.3512C40.033 56.7795 39.7707 55.2928 39.5079 53.8914L37.5422 54.26L35.5765 54.6286C35.8337 56.0005 36.0914 57.4605 36.3494 59.0088L38.3222 58.68ZM37.5422 54.26L39.4946 53.8261C39.1061 52.0781 38.2794 50.2688 36.465 49.543L35.7222 51.4L34.9794 53.2569C34.9476 53.2442 35.0132 53.2497 35.1399 53.4487C35.2782 53.6662 35.4477 54.0544 35.5898 54.6939L37.5422 54.26ZM35.7222 51.4L36.6166 49.6111C35.7884 49.197 34.5401 48.961 33.4303 49.8148C32.5494 50.4924 32.2236 51.5452 32.071 52.3078L34.0322 52.7L35.9934 53.0922C36.0374 52.8719 36.0792 52.7697 36.0906 52.7456C36.1032 52.7191 36.0506 52.8456 35.8691 52.9852C35.6581 53.1476 35.3885 53.2375 35.1291 53.2375C34.9072 53.2375 34.795 53.1725 34.8278 53.1889L35.7222 51.4ZM34.0322 52.7L32.0567 52.3881C31.8056 53.9782 31.4694 55.6609 31.0466 57.4368L32.9922 57.9L34.9378 58.3632C35.3816 56.4991 35.7388 54.7151 36.0077 53.0119L34.0322 52.7ZM32.9922 57.9L31.0275 57.5258C30.6901 59.2974 30.2669 61.1603 29.757 63.1152L31.6922 63.62L33.6274 64.1248C34.1575 62.093 34.601 60.1426 34.9569 58.2742L32.9922 57.9ZM31.6922 63.62L29.7403 63.184L24.0203 88.794L25.9722 89.23L27.9241 89.666L33.6441 64.056L31.6922 63.62ZM90.2714 69.34H88.2714V71.34H90.2714V69.34ZM101.451 69.34V71.34H102.724L103.263 70.1875L101.451 69.34ZM118.481 32.94L120.293 33.7875L120.301 33.77L120.309 33.7523L118.481 32.94ZM135.381 31.77L133.633 32.7413L133.699 32.8607L133.781 32.97L135.381 31.77ZM135.381 34.37L133.593 33.4756L133.583 33.4948L133.574 33.5143L135.381 34.37ZM115.751 75.84L113.944 74.9843L113.549 75.8192L113.928 76.6614L115.751 75.84ZM136.421 121.73L134.598 122.551L134.614 122.588L134.633 122.624L136.421 121.73ZM136.421 124.46L134.757 123.351L134.741 123.375L134.725 123.4L136.421 124.46ZM119.001 123.03L120.845 122.254L120.836 122.233L120.827 122.213L119.001 123.03ZM101.321 83.51L103.147 82.6933L102.618 81.51H101.321V83.51ZM90.2714 83.51V81.51H88.2714V83.51H90.2714ZM77.2714 125.5V123.5C76.4964 123.5 76.2824 123.308 76.2481 123.273C76.2138 123.239 76.0214 123.025 76.0214 122.25H74.0214H72.0214C72.0214 123.642 72.3707 125.053 73.4197 126.102C74.4687 127.151 75.8798 127.5 77.2714 127.5V125.5ZM74.0214 122.25H76.0214V33.85H74.0214H72.0214V122.25H74.0214ZM74.0214 33.85H76.0214C76.0214 33.075 76.2138 32.861 76.2481 32.8267C76.2824 32.7924 76.4964 32.6 77.2714 32.6V30.6V28.6C75.8798 28.6 74.4687 28.9493 73.4197 29.9983C72.3707 31.0473 72.0214 32.4584 72.0214 33.85H74.0214ZM77.2714 30.6V32.6H87.1514V30.6V28.6H77.2714V30.6ZM87.1514 30.6V32.6C87.8619 32.6 88.0325 32.7807 88.0486 32.7976C88.0794 32.8296 88.2714 33.055 88.2714 33.85H90.2714H92.2714C92.2714 32.4783 91.9434 31.0787 90.9342 30.0274C89.9103 28.9609 88.521 28.6 87.1514 28.6V30.6ZM90.2714 33.85H88.2714V69.34H90.2714H92.2714V33.85H90.2714ZM90.2714 69.34V71.34H101.451V69.34V67.34H90.2714V69.34ZM101.451 69.34L103.263 70.1875L120.293 33.7875L118.481 32.94L116.67 32.0925L99.6399 68.4925L101.451 69.34ZM118.481 32.94L120.309 33.7523C120.527 33.2623 120.771 33.0101 120.993 32.8674C121.217 32.7233 121.56 32.6 122.121 32.6V30.6V28.6C120.949 28.6 119.819 28.8667 118.83 29.5026C117.839 30.1399 117.129 31.0577 116.654 32.1277L118.481 32.94ZM122.121 30.6V32.6H132.911V30.6V28.6H122.121V30.6ZM132.911 30.6V32.6C133.316 32.6 133.512 32.6665 133.583 32.7C133.6 32.7079 133.609 32.7141 133.614 32.7173C133.617 32.719 133.618 32.7202 133.619 32.7208C133.62 32.7215 133.62 32.7218 133.62 32.7219C133.621 32.722 133.621 32.722 133.621 32.7221C133.621 32.7222 133.621 32.7227 133.622 32.7237C133.623 32.7254 133.627 32.7307 133.633 32.7413L135.381 31.77L137.13 30.7987C136.22 29.1605 134.554 28.6 132.911 28.6V30.6ZM135.381 31.77L133.781 32.97C133.789 32.9807 133.783 32.9747 133.777 32.9549C133.77 32.9352 133.771 32.9266 133.771 32.94C133.771 32.9754 133.759 33.1428 133.593 33.4756L135.381 34.37L137.17 35.2644C137.894 33.817 138.113 32.0782 136.981 30.57L135.381 31.77ZM135.381 34.37L133.574 33.5143L113.944 74.9843L115.751 75.84L117.559 76.6957L137.189 35.2257L135.381 34.37ZM115.751 75.84L113.928 76.6614L134.598 122.551L136.421 121.73L138.245 120.909L117.575 75.0186L115.751 75.84ZM136.421 121.73L134.633 122.624C134.791 122.942 134.811 123.122 134.811 123.192C134.811 123.24 134.805 123.279 134.757 123.351L136.421 124.46L138.086 125.569C139.104 124.041 138.961 122.337 138.21 120.836L136.421 121.73ZM136.421 124.46L134.725 123.4C134.748 123.364 134.771 123.368 134.703 123.397C134.608 123.437 134.381 123.5 133.951 123.5V125.5V127.5C135.495 127.5 137.162 127.049 138.117 125.52L136.421 124.46ZM133.951 125.5V123.5H122.771V125.5V127.5H133.951V125.5ZM122.771 125.5V123.5C122.168 123.5 121.799 123.366 121.56 123.21C121.323 123.054 121.067 122.781 120.845 122.254L119.001 123.03L117.158 123.806C117.629 124.925 118.348 125.887 119.368 126.555C120.385 127.222 121.555 127.5 122.771 127.5V125.5ZM119.001 123.03L120.827 122.213L103.147 82.6933L101.321 83.51L99.4958 84.3267L117.176 123.847L119.001 123.03ZM101.321 83.51V81.51H90.2714V83.51V85.51H101.321V83.51ZM90.2714 83.51H88.2714V122.25H90.2714H92.2714V83.51H90.2714ZM90.2714 122.25H88.2714C88.2714 123.045 88.0794 123.27 88.0486 123.302C88.0325 123.319 87.8619 123.5 87.1514 123.5V125.5V127.5C88.521 127.5 89.9103 127.139 90.9342 126.073C91.9434 125.021 92.2714 123.622 92.2714 122.25H90.2714ZM87.1514 125.5V123.5H77.2714V125.5V127.5H87.1514V125.5ZM162.501 45.29H164.501V43.29H162.501V45.29ZM178.881 45.29V43.29H176.881V45.29H178.881ZM165.751 125.5V123.5C164.976 123.5 164.762 123.308 164.727 123.273C164.693 123.239 164.501 123.025 164.501 122.25H162.501H160.501C160.501 123.642 160.85 125.053 161.899 126.102C162.948 127.151 164.359 127.5 165.751 127.5V125.5ZM162.501 122.25H164.501V45.29H162.501H160.501V122.25H162.501ZM162.501 45.29V43.29H140.921V45.29V47.29H162.501V45.29ZM140.921 45.29V43.29C140.146 43.29 139.932 43.0976 139.897 43.0633C139.863 43.029 139.671 42.815 139.671 42.04H137.671H135.671C135.671 43.4316 136.02 44.8427 137.069 45.8917C138.118 46.9407 139.529 47.29 140.921 47.29V45.29ZM137.671 42.04H139.671V33.85H137.671H135.671V42.04H137.671ZM137.671 33.85H139.671C139.671 33.075 139.863 32.861 139.897 32.8267C139.932 32.7924 140.146 32.6 140.921 32.6V30.6V28.6C139.529 28.6 138.118 28.9493 137.069 29.9983C136.02 31.0473 135.671 32.4584 135.671 33.85H137.671ZM140.921 30.6V32.6H200.461V30.6V28.6H140.921V30.6ZM200.461 30.6V32.6C201.236 32.6 201.45 32.7924 201.484 32.8267C201.518 32.861 201.711 33.075 201.711 33.85H203.711H205.711C205.711 32.4584 205.361 31.0473 204.312 29.9983C203.263 28.9493 201.852 28.6 200.461 28.6V30.6ZM203.711 33.85H201.711V42.04H203.711H205.711V33.85H203.711ZM203.711 42.04H201.711C201.711 42.815 201.518 43.029 201.484 43.0633C201.45 43.0976 201.236 43.29 200.461 43.29V45.29V47.29C201.852 47.29 203.263 46.9407 204.312 45.8917C205.361 44.8427 205.711 43.4316 205.711 42.04H203.711ZM200.461 45.29V43.29H178.881V45.29V47.29H200.461V45.29ZM178.881 45.29H176.881V122.25H178.881H180.881V45.29H178.881ZM178.881 122.25H176.881C176.881 123.025 176.688 123.239 176.654 123.273C176.62 123.308 176.406 123.5 175.631 123.5V125.5V127.5C177.022 127.5 178.433 127.151 179.482 126.102C180.531 125.053 180.881 123.642 180.881 122.25H178.881ZM175.631 125.5V123.5H165.751V125.5V127.5H175.631V125.5ZM208.6 125.5H206.6V127.5H208.6V125.5ZM208.6 30.6V28.6H206.6V30.6H208.6ZM223.42 30.6H225.42V28.6H223.42V30.6ZM223.16 87.28L225.158 87.3729V87.3729L223.16 87.28ZM222.51 98.2L220.515 98.054V98.054L222.51 98.2ZM221.86 107.3L219.865 107.162L223.753 107.945L221.86 107.3ZM247.99 30.6V28.6H246.558L246.097 29.955L247.99 30.6ZM267.88 30.6H269.88V28.6H267.88V30.6ZM267.88 125.5V127.5H269.88V125.5H267.88ZM253.06 125.5H251.06V127.5H253.06V125.5ZM253.32 70.12L251.324 69.987L251.323 70.0091L251.322 70.0312L253.32 70.12ZM254.1 58.68L256.095 58.8192L256.095 58.816L254.1 58.68ZM254.88 48.8L256.871 48.9867L252.989 48.1493L254.88 48.8ZM228.49 125.5V127.5H229.917L230.381 126.151L228.49 125.5ZM208.6 125.5H210.6V30.6H208.6H206.6V125.5H208.6ZM208.6 30.6V32.6H223.42V30.6V28.6H208.6V30.6ZM223.42 30.6H221.42V77.01H223.42H225.42V30.6H223.42ZM223.42 77.01H221.42C221.42 80.0937 221.334 83.4856 221.162 87.1871L223.16 87.28L225.158 87.3729C225.332 83.6211 225.42 80.1663 225.42 77.01H223.42ZM223.16 87.28L221.162 87.1871C220.989 90.8969 220.774 94.5192 220.515 98.054L222.51 98.2L224.505 98.346C224.766 94.7742 224.984 91.1165 225.158 87.3729L223.16 87.28ZM222.51 98.2L220.515 98.054C220.255 101.609 220.038 104.645 219.865 107.162L221.86 107.3L223.855 107.438C224.028 104.928 224.245 101.898 224.505 98.3459L222.51 98.2ZM221.86 107.3L223.753 107.945L249.883 31.245L247.99 30.6L246.097 29.955L219.967 106.655L221.86 107.3ZM247.99 30.6V32.6H267.88V30.6V28.6H247.99V30.6ZM267.88 30.6H265.88V125.5H267.88H269.88V30.6H267.88ZM267.88 125.5V123.5H253.06V125.5V127.5H267.88V125.5ZM253.06 125.5H255.06V80.52H253.06H251.06V125.5H253.06ZM253.06 80.52H255.06C255.06 77.5232 255.146 74.0871 255.318 70.2088L253.32 70.12L251.322 70.0312C251.148 73.9529 251.06 77.4501 251.06 80.52H253.06ZM253.32 70.12L255.315 70.253C255.575 66.355 255.835 62.5437 256.095 58.8192L254.1 58.68L252.105 58.5408C251.845 62.2696 251.584 66.085 251.324 69.987L253.32 70.12ZM254.1 58.68L256.095 58.816C256.354 55.0139 256.613 51.7383 256.871 48.9867L254.88 48.8L252.889 48.6133C252.627 51.4084 252.365 54.7194 252.104 58.544L254.1 58.68ZM254.88 48.8L252.989 48.1493L226.599 124.849L228.49 125.5L230.381 126.151L256.771 49.4507L254.88 48.8ZM228.49 125.5V123.5H208.6V125.5V127.5H228.49V125.5ZM327.629 37.23L326.359 38.7746L326.365 38.7796L326.371 38.7845L327.629 37.23ZM331.269 68.43L329.718 67.1675L329.709 67.1784L329.7 67.1895L331.269 68.43ZM319.699 75.19L319.376 73.2162L317.699 73.4907V75.19H319.699ZM319.699 75.45H317.699V77.2209L319.457 77.4353L319.699 75.45ZM329.189 79.35L327.958 80.926L327.973 80.9382L327.989 80.95L329.189 79.35ZM335.689 87.54L333.873 88.3781L333.877 88.3872L333.882 88.3962L335.689 87.54ZM334.259 112.76L335.961 113.81V113.81L334.259 112.76ZM323.599 122.25L324.452 124.059L324.466 124.052L324.48 124.046L323.599 122.25ZM292.659 69.73H290.659V71.73H292.659V69.73ZM315.799 66.35L317.134 67.8391L317.148 67.8266L317.162 67.8138L315.799 66.35ZM315.799 47.63L314.411 49.0697L314.437 49.0949L314.464 49.1191L315.799 47.63ZM317.619 108.21L318.985 109.671L318.987 109.669L317.619 108.21ZM317.619 87.02L316.183 88.4116L316.205 88.4344L316.227 88.4565L317.619 87.02ZM292.659 82.86V80.86H290.659V82.86H292.659ZM280.049 125.5V123.5C279.274 123.5 279.06 123.308 279.026 123.273C278.991 123.239 278.799 123.025 278.799 122.25H276.799H274.799C274.799 123.642 275.148 125.053 276.197 126.102C277.246 127.151 278.657 127.5 280.049 127.5V125.5ZM276.799 122.25H278.799V33.85H276.799H274.799V122.25H276.799ZM276.799 33.85H278.799C278.799 33.075 278.991 32.861 279.026 32.8267C279.06 32.7924 279.274 32.6 280.049 32.6V30.6V28.6C278.657 28.6 277.246 28.9493 276.197 29.9983C275.148 31.0473 274.799 32.4584 274.799 33.85H276.799ZM280.049 30.6V32.6H305.919V30.6V28.6H280.049V30.6ZM305.919 30.6V32.6C314.7 32.6 321.441 34.7292 326.359 38.7746L327.629 37.23L328.9 35.6854C323.071 30.8907 315.338 28.6 305.919 28.6V30.6ZM327.629 37.23L326.371 38.7845C331.33 42.7989 333.819 48.1478 333.819 55.04H335.819H337.819C337.819 47.0255 334.848 40.5011 328.887 35.6755L327.629 37.23ZM335.819 55.04H333.819C333.819 59.8205 332.436 63.8277 329.718 67.1675L331.269 68.43L332.82 69.6925C336.168 65.579 337.819 60.6594 337.819 55.04H335.819ZM331.269 68.43L329.7 67.1895C327.069 70.5178 323.66 72.5153 319.376 73.2162L319.699 75.19L320.022 77.1637C325.272 76.3047 329.576 73.7955 332.838 69.6705L331.269 68.43ZM319.699 75.19H317.699V75.45H319.699H321.699V75.19H319.699ZM319.699 75.45L319.457 77.4353C322.656 77.8254 325.476 78.9871 327.958 80.926L329.189 79.35L330.42 77.7739C327.355 75.3795 323.849 73.9412 319.941 73.4647L319.699 75.45ZM329.189 79.35L327.989 80.95C330.478 82.8164 332.442 85.2763 333.873 88.3781L335.689 87.54L337.505 86.7019C335.817 83.0436 333.447 80.0435 330.389 77.75L329.189 79.35ZM335.689 87.54L333.882 88.3962C335.303 91.3975 336.029 94.7412 336.029 98.46H338.029H340.029C340.029 94.2054 339.195 90.2691 337.497 86.6838L335.689 87.54ZM338.029 98.46H336.029C336.029 103.602 334.849 107.995 332.557 111.71L334.259 112.76L335.961 113.81C338.695 109.379 340.029 104.238 340.029 98.46H338.029ZM334.259 112.76L332.557 111.71C330.255 115.44 326.997 118.355 322.718 120.454L323.599 122.25L324.48 124.046C329.387 121.638 333.236 118.227 335.961 113.81L334.259 112.76ZM323.599 122.25L322.746 120.441C318.473 122.457 313.36 123.5 307.349 123.5V125.5V127.5C313.818 127.5 319.538 126.377 324.452 124.059L323.599 122.25ZM307.349 125.5V123.5H280.049V125.5V127.5H307.349V125.5ZM292.659 69.73V71.73H305.659V69.73V67.73H292.659V69.73ZM305.659 69.73V71.73C310.267 71.73 314.166 70.4999 317.134 67.8391L315.799 66.35L314.464 64.8609C312.405 66.7067 309.545 67.73 305.659 67.73V69.73ZM315.799 66.35L317.162 67.8138C320.148 65.0336 321.569 61.3041 321.569 56.86H319.569H317.569C317.569 60.3892 316.477 62.9864 314.436 64.8862L315.799 66.35ZM319.569 56.86H321.569C321.569 52.489 320.138 48.834 317.134 46.1409L315.799 47.63L314.464 49.1191C316.487 50.9326 317.569 53.431 317.569 56.86H319.569ZM315.799 47.63L317.187 46.1903C314.29 43.3966 310.356 42.12 305.659 42.12V44.12V46.12C309.628 46.12 312.455 47.1834 314.411 49.0697L315.799 47.63ZM305.659 44.12V42.12H295.779V44.12V46.12H305.659V44.12ZM295.779 44.12V42.12C294.41 42.12 293.02 42.4809 291.996 43.5474C290.987 44.5987 290.659 45.9983 290.659 47.37H292.659H294.659C294.659 46.575 294.851 46.3496 294.882 46.3176C294.898 46.3007 295.069 46.12 295.779 46.12V44.12ZM292.659 47.37H290.659V69.73H292.659H294.659V47.37H292.659ZM292.659 108.73H290.659C290.659 110.102 290.987 111.501 291.996 112.553C293.02 113.619 294.41 113.98 295.779 113.98V111.98V109.98C295.069 109.98 294.898 109.799 294.882 109.782C294.851 109.75 294.659 109.525 294.659 108.73H292.659ZM295.779 111.98V113.98H306.439V111.98V109.98H295.779V111.98ZM306.439 111.98V113.98C311.558 113.98 315.829 112.624 318.985 109.671L317.619 108.21L316.253 106.749C314.036 108.823 310.853 109.98 306.439 109.98V111.98ZM317.619 108.21L318.987 109.669C322.23 106.629 323.779 102.555 323.779 97.68H321.779H319.779C319.779 101.645 318.555 104.591 316.251 106.751L317.619 108.21ZM321.779 97.68H323.779C323.779 92.8041 322.23 88.7025 319.011 85.5835L317.619 87.02L316.227 88.4565C318.555 90.7108 319.779 93.7159 319.779 97.68H321.779ZM317.619 87.02L319.056 85.6284C315.907 82.3787 311.612 80.86 306.439 80.86V82.86V84.86C310.8 84.86 313.957 86.1147 316.183 88.4116L317.619 87.02ZM306.439 82.86V80.86H292.659V82.86V84.86H306.439V82.86ZM292.659 82.86H290.659V108.73H292.659H294.659V82.86H292.659ZM343.698 125.5H341.698V127.5H343.698V125.5ZM343.698 30.6V28.6H341.698V30.6H343.698ZM358.518 30.6H360.518V28.6H358.518V30.6ZM358.258 87.28L360.256 87.3729V87.3729L358.258 87.28ZM357.608 98.2L355.614 98.054V98.054L357.608 98.2ZM356.958 107.3L354.963 107.162L358.851 107.945L356.958 107.3ZM383.088 30.6V28.6H381.657L381.195 29.955L383.088 30.6ZM402.978 30.6H404.978V28.6H402.978V30.6ZM402.978 125.5V127.5H404.978V125.5H402.978ZM388.158 125.5H386.158V127.5H388.158V125.5ZM388.418 70.12L386.423 69.987L386.421 70.0091L386.42 70.0312L388.418 70.12ZM389.198 58.68L391.193 58.8192L391.194 58.816L389.198 58.68ZM389.978 48.8L391.97 48.9867L388.087 48.1493L389.978 48.8ZM363.588 125.5V127.5H365.015L365.479 126.151L363.588 125.5ZM343.698 125.5H345.698V30.6H343.698H341.698V125.5H343.698ZM343.698 30.6V32.6H358.518V30.6V28.6H343.698V30.6ZM358.518 30.6H356.518V77.01H358.518H360.518V30.6H358.518ZM358.518 77.01H356.518C356.518 80.0937 356.433 83.4856 356.26 87.1871L358.258 87.28L360.256 87.3729C360.431 83.6211 360.518 80.1663 360.518 77.01H358.518ZM358.258 87.28L356.26 87.1871C356.088 90.8969 355.872 94.5192 355.614 98.054L357.608 98.2L359.603 98.346C359.864 94.7742 360.082 91.1165 360.256 87.3729L358.258 87.28ZM357.608 98.2L355.614 98.054C355.353 101.609 355.137 104.645 354.963 107.162L356.958 107.3L358.954 107.438C359.127 104.928 359.343 101.898 359.603 98.3459L357.608 98.2ZM356.958 107.3L358.851 107.945L384.981 31.245L383.088 30.6L381.195 29.955L355.065 106.655L356.958 107.3ZM383.088 30.6V32.6H402.978V30.6V28.6H383.088V30.6ZM402.978 30.6H400.978V125.5H402.978H404.978V30.6H402.978ZM402.978 125.5V123.5H388.158V125.5V127.5H402.978V125.5ZM388.158 125.5H390.158V80.52H388.158H386.158V125.5H388.158ZM388.158 80.52H390.158C390.158 77.5232 390.244 74.0871 390.416 70.2088L388.418 70.12L386.42 70.0312C386.246 73.9529 386.158 77.4501 386.158 80.52H388.158ZM388.418 70.12L390.414 70.253C390.674 66.355 390.934 62.5437 391.193 58.8192L389.198 58.68L387.203 58.5408C386.943 62.2696 386.683 66.085 386.423 69.987L388.418 70.12ZM389.198 58.68L391.194 58.816C391.453 55.0139 391.712 51.7383 391.97 48.9867L389.978 48.8L387.987 48.6133C387.725 51.4084 387.464 54.7194 387.203 58.544L389.198 58.68ZM389.978 48.8L388.087 48.1493L361.697 124.849L363.588 125.5L365.479 126.151L391.869 49.4507L389.978 48.8ZM363.588 125.5V123.5H343.698V125.5V127.5H363.588V125.5ZM459.998 34.24L459.077 36.0155L459.083 36.0189L459.09 36.0223L459.998 34.24ZM471.048 44.51L469.324 45.524L469.328 45.5315L469.333 45.539L471.048 44.51ZM471.048 75.32L472.763 76.349L472.767 76.3415L472.771 76.334L471.048 75.32ZM459.998 85.46L459.09 83.6777L459.083 83.6811L459.077 83.6845L459.998 85.46ZM428.148 89.1V87.1H426.148V89.1H428.148ZM428.148 74.8H426.148V76.8H428.148V74.8ZM454.408 70.64L452.971 69.2484V69.2484L454.408 70.64ZM454.408 49.06L452.971 50.4516V50.4516L454.408 49.06ZM415.018 125.5V123.5C414.307 123.5 414.136 123.319 414.12 123.302C414.09 123.27 413.898 123.045 413.898 122.25H411.898H409.898C409.898 123.622 410.225 125.021 411.235 126.073C412.259 127.139 413.648 127.5 415.018 127.5V125.5ZM411.898 122.25H413.898V33.85H411.898H409.898V122.25H411.898ZM411.898 33.85H413.898C413.898 33.055 414.09 32.8296 414.12 32.7976C414.136 32.7807 414.307 32.6 415.018 32.6V30.6V28.6C413.648 28.6 412.259 28.9609 411.235 30.0274C410.226 31.0787 409.898 32.4783 409.898 33.85H411.898ZM415.018 30.6V32.6H443.488V30.6V28.6H415.018V30.6ZM443.488 30.6V32.6C449.557 32.6 454.733 33.7631 459.077 36.0155L459.998 34.24L460.918 32.4645C455.902 29.8636 450.071 28.6 443.488 28.6V30.6ZM459.998 34.24L459.09 36.0223C463.532 38.2838 466.926 41.4473 469.324 45.524L471.048 44.51L472.771 43.496C469.969 38.7327 465.996 35.0495 460.905 32.4577L459.998 34.24ZM471.048 44.51L469.333 45.539C471.717 49.513 472.948 54.2581 472.948 59.85H474.948H476.948C476.948 53.6552 475.578 48.1736 472.763 43.481L471.048 44.51ZM474.948 59.85H472.948C472.948 65.4408 471.717 70.2368 469.324 74.306L471.048 75.32L472.771 76.334C475.578 71.5632 476.948 66.0459 476.948 59.85H474.948ZM471.048 75.32L469.333 74.291C466.937 78.2833 463.543 81.4109 459.09 83.6777L459.998 85.46L460.905 87.2423C465.986 84.6557 469.958 81.0234 472.763 76.349L471.048 75.32ZM459.998 85.46L459.077 83.6845C454.733 85.9369 449.557 87.1 443.488 87.1V89.1V91.1C450.071 91.1 455.902 89.8364 460.918 87.2355L459.998 85.46ZM443.488 89.1V87.1H428.148V89.1V91.1H443.488V89.1ZM428.148 89.1H426.148V122.25H428.148H430.148V89.1H428.148ZM428.148 122.25H426.148C426.148 123.025 425.955 123.239 425.921 123.273C425.887 123.308 425.673 123.5 424.898 123.5V125.5V127.5C426.289 127.5 427.7 127.151 428.749 126.102C429.798 125.053 430.148 123.642 430.148 122.25H428.148ZM424.898 125.5V123.5H415.018V125.5V127.5H424.898V125.5ZM428.148 74.8V76.8H443.488V74.8V72.8H428.148V74.8ZM443.488 74.8V76.8C448.512 76.8 452.71 75.2667 455.844 72.0316L454.408 70.64L452.971 69.2484C450.732 71.5599 447.65 72.8 443.488 72.8V74.8ZM454.408 70.64L455.844 72.0316C458.945 68.8306 460.438 64.7082 460.438 59.85H458.438H456.438C456.438 63.8318 455.243 66.9027 452.971 69.2484L454.408 70.64ZM458.438 59.85H460.438C460.438 54.9918 458.945 50.8694 455.844 47.6684L454.408 49.06L452.971 50.4516C455.243 52.7973 456.438 55.8682 456.438 59.85H458.438ZM454.408 49.06L455.844 47.6684C452.71 44.4333 448.512 42.9 443.488 42.9V44.9V46.9C447.65 46.9 450.732 48.1401 452.971 50.4516L454.408 49.06ZM443.488 44.9V42.9H431.398V44.9V46.9H443.488V44.9ZM431.398 44.9V42.9C430.026 42.9 428.626 43.228 427.575 44.2372C426.508 45.2611 426.148 46.6505 426.148 48.02H428.148H430.148C430.148 47.3095 430.328 47.1389 430.345 47.1228C430.377 47.092 430.603 46.9 431.398 46.9V44.9ZM428.148 48.02H426.148V74.8H428.148H430.148V48.02H428.148ZM491.927 125.5L490.07 124.756L488.97 127.5H491.927V125.5ZM501.677 101.19L503.533 101.934L503.828 101.198L503.539 100.46L501.677 101.19ZM473.987 30.6V28.6H471.054L472.125 31.3303L473.987 30.6ZM491.667 30.6L493.559 29.9535L493.097 28.6H491.667V30.6ZM505.967 72.46L504.074 73.1065L504.079 73.1196L504.083 73.1327L505.967 72.46ZM508.177 80.13L506.226 80.5705L506.234 80.6081L506.244 80.6453L508.177 80.13ZM509.477 86.5L507.488 86.7094L511.466 86.7094L509.477 86.5ZM510.517 80.13L508.566 79.6895L508.56 79.7136L508.556 79.7378L510.517 80.13ZM512.467 72.46L510.558 71.8614L510.551 71.8859L510.544 71.9106L512.467 72.46ZM525.597 30.6V28.6H524.128L523.688 30.0014L525.597 30.6ZM542.887 30.6L544.771 31.271L545.722 28.6H542.887V30.6ZM509.087 125.5V127.5H510.497L510.971 126.171L509.087 125.5ZM491.927 125.5L493.783 126.244L503.533 101.934L501.677 101.19L499.82 100.446L490.07 124.756L491.927 125.5ZM501.677 101.19L503.539 100.46L475.849 29.8696L473.987 30.6L472.125 31.3303L499.815 101.92L501.677 101.19ZM473.987 30.6V32.6H491.667V30.6V28.6H473.987V30.6ZM491.667 30.6L489.774 31.2465L504.074 73.1065L505.967 72.46L507.859 71.8135L493.559 29.9535L491.667 30.6ZM505.967 72.46L504.083 73.1327C504.921 75.4784 505.636 77.9572 506.226 80.5705L508.177 80.13L510.128 79.6895C509.504 76.9295 508.746 74.2949 507.85 71.7873L505.967 72.46ZM508.177 80.13L506.244 80.6453C506.925 83.1987 507.33 85.2095 507.488 86.7094L509.477 86.5L511.466 86.2906C511.277 84.4971 510.815 82.2613 510.109 79.6147L508.177 80.13ZM509.477 86.5L511.466 86.7094C511.63 85.1492 511.964 83.093 512.478 80.5222L510.517 80.13L508.556 79.7378C508.03 82.367 507.67 84.5575 507.488 86.2906L509.477 86.5ZM510.517 80.13L512.468 80.5705C513.067 77.9171 513.708 75.397 514.39 73.0094L512.467 72.46L510.544 71.9106C509.839 74.3763 509.18 76.9695 508.566 79.6895L510.517 80.13ZM512.467 72.46L514.375 73.0586L527.505 31.1986L525.597 30.6L523.688 30.0014L510.558 71.8614L512.467 72.46ZM525.597 30.6V32.6H542.887V30.6V28.6H525.597V30.6ZM542.887 30.6L541.003 29.929L507.203 124.829L509.087 125.5L510.971 126.171L544.771 31.271L542.887 30.6ZM509.087 125.5V123.5H491.927V125.5V127.5H509.087V125.5ZM546.346 125.5H544.346V127.5H546.346V125.5ZM546.346 30.6V28.6H544.346V30.6H546.346ZM561.166 30.6H563.166V28.6H561.166V30.6ZM560.906 87.28L562.904 87.3729V87.3729L560.906 87.28ZM560.256 98.2L558.261 98.054V98.054L560.256 98.2ZM559.606 107.3L557.611 107.162L561.499 107.945L559.606 107.3ZM585.736 30.6V28.6H584.304L583.843 29.955L585.736 30.6ZM605.626 30.6H607.626V28.6H605.626V30.6ZM605.626 125.5V127.5H607.626V125.5H605.626ZM590.806 125.5H588.806V127.5H590.806V125.5ZM591.066 70.12L589.07 69.987L589.069 70.0091L589.068 70.0312L591.066 70.12ZM591.846 58.68L593.841 58.8192L593.841 58.816L591.846 58.68ZM592.626 48.8L594.617 48.9867L590.735 48.1493L592.626 48.8ZM566.236 125.5V127.5H567.663L568.127 126.151L566.236 125.5ZM560.776 16.95L559.587 18.5583L559.607 18.5728L559.627 18.5868L560.776 16.95ZM553.626 5.38L551.649 5.68411L551.651 5.69355L551.652 5.70297L553.626 5.38ZM554.276 2.91L555.578 4.42851L555.636 4.37852L555.69 4.32421L554.276 2.91ZM565.066 2.77999L563.53 4.06036L563.588 4.13005L563.652 4.1942L565.066 2.77999ZM566.366 4.98999L568.279 4.40767L568.264 4.35664L568.246 4.30651L566.366 4.98999ZM569.746 9.8L568.56 11.4101L568.607 11.4449L568.656 11.4769L569.746 9.8ZM582.226 9.8L583.316 11.4769L583.345 11.4582L583.373 11.4385L582.226 9.8ZM585.606 4.98999L583.726 4.3065L583.694 4.39452L583.671 4.48515L585.606 4.98999ZM586.776 2.77999L585.362 1.36578L585.298 1.42993L585.24 1.49963L586.776 2.77999ZM597.826 2.77999L599.128 1.26148V1.26147L597.826 2.77999ZM598.476 4.85999L596.515 4.46777L596.503 4.52461L596.495 4.58202L598.476 4.85999ZM591.326 16.82L592.515 18.4284L592.521 18.4241L591.326 16.82ZM546.346 125.5H548.346V30.6H546.346H544.346V125.5H546.346ZM546.346 30.6V32.6H561.166V30.6V28.6H546.346V30.6ZM561.166 30.6H559.166V77.01H561.166H563.166V30.6H561.166ZM561.166 77.01H559.166C559.166 80.0937 559.08 83.4856 558.908 87.1871L560.906 87.28L562.904 87.3729C563.078 83.6211 563.166 80.1663 563.166 77.01H561.166ZM560.906 87.28L558.908 87.1871C558.736 90.8969 558.52 94.5192 558.261 98.054L560.256 98.2L562.251 98.346C562.512 94.7742 562.73 91.1165 562.904 87.3729L560.906 87.28ZM560.256 98.2L558.261 98.054C558.001 101.609 557.784 104.645 557.611 107.162L559.606 107.3L561.601 107.438C561.774 104.928 561.991 101.898 562.251 98.3459L560.256 98.2ZM559.606 107.3L561.499 107.945L587.629 31.245L585.736 30.6L583.843 29.955L557.713 106.655L559.606 107.3ZM585.736 30.6V32.6H605.626V30.6V28.6H585.736V30.6ZM605.626 30.6H603.626V125.5H605.626H607.626V30.6H605.626ZM605.626 125.5V123.5H590.806V125.5V127.5H605.626V125.5ZM590.806 125.5H592.806V80.52H590.806H588.806V125.5H590.806ZM590.806 80.52H592.806C592.806 77.5232 592.892 74.0871 593.064 70.2088L591.066 70.12L589.068 70.0312C588.894 73.9529 588.806 77.4501 588.806 80.52H590.806ZM591.066 70.12L593.062 70.253C593.321 66.355 593.581 62.5437 593.841 58.8192L591.846 58.68L589.851 58.5408C589.591 62.2696 589.331 66.085 589.07 69.987L591.066 70.12ZM591.846 58.68L593.841 58.816C594.101 55.0139 594.359 51.7383 594.617 48.9867L592.626 48.8L590.635 48.6133C590.373 51.4084 590.111 54.7194 589.851 58.544L591.846 58.68ZM592.626 48.8L590.735 48.1493L564.345 124.849L566.236 125.5L568.127 126.151L594.517 49.4507L592.626 48.8ZM566.236 125.5V123.5H546.346V125.5V127.5H566.236V125.5ZM575.986 21.24V19.24C570.239 19.24 565.594 17.8892 561.925 15.3132L560.776 16.95L559.627 18.5868C564.104 21.7308 569.599 23.24 575.986 23.24V21.24ZM560.776 16.95L561.965 15.3416C558.385 12.6957 556.293 9.29438 555.6 5.05702L553.626 5.38L551.652 5.70297C552.519 10.9989 555.194 15.311 559.587 18.5583L560.776 16.95ZM553.626 5.38L555.603 5.07588C555.544 4.69669 555.573 4.49933 555.593 4.42648C555.601 4.3944 555.606 4.39046 555.599 4.40199C555.592 4.41452 555.582 4.4247 555.578 4.42851L554.276 2.91L552.974 1.39148C551.637 2.5377 551.42 4.19313 551.649 5.68411L553.626 5.38ZM554.276 2.91L555.69 4.32421C555.845 4.16975 556.116 3.99999 556.746 3.99999V1.99999V-7.62939e-06C555.296 -7.62939e-06 553.921 0.436905 552.862 1.49579L554.276 2.91ZM556.746 1.99999V3.99999H562.986V1.99999V-7.62939e-06H556.746V1.99999ZM562.986 1.99999V3.99999C563.288 3.99999 563.451 4.04218 563.519 4.06765C563.572 4.08764 563.555 4.09136 563.53 4.06036L565.066 2.77999L566.602 1.49962C565.652 0.359695 564.28 -7.62939e-06 562.986 -7.62939e-06V1.99999ZM565.066 2.77999L563.652 4.1942C563.902 4.44472 564.204 4.89681 564.486 5.67348L566.366 4.98999L568.246 4.30651C567.835 3.17651 567.27 2.15527 566.48 1.36578L565.066 2.77999ZM566.366 4.98999L564.453 5.57232C565.182 7.96928 566.559 9.93627 568.56 11.4101L569.746 9.8L570.932 8.18988C569.639 7.23705 568.763 5.99738 568.279 4.40767L566.366 4.98999ZM569.746 9.8L568.656 11.4769C570.767 12.8489 573.241 13.49 575.986 13.49V11.49V9.49C573.878 9.49 572.192 9.00442 570.836 8.12311L569.746 9.8ZM575.986 11.49V13.49C578.731 13.49 581.205 12.8489 583.316 11.4769L582.226 9.8L581.136 8.12311C579.78 9.00442 578.094 9.49 575.986 9.49V11.49ZM582.226 9.8L583.373 11.4385C585.484 9.96087 586.898 7.96106 587.541 5.49483L585.606 4.98999L583.671 4.48515C583.274 6.0056 582.435 7.21245 581.079 8.16153L582.226 9.8ZM585.606 4.98999L587.486 5.67348C587.789 4.83995 588.081 4.33749 588.312 4.06036L586.776 2.77999L585.24 1.49963C584.604 2.2625 584.117 3.23338 583.726 4.3065L585.606 4.98999ZM586.776 2.77999L588.19 4.19421C588.233 4.15121 588.399 3.99999 588.986 3.99999V1.99999V-7.62939e-06C587.666 -7.62939e-06 586.359 0.368782 585.362 1.36578L586.776 2.77999ZM588.986 1.99999V3.99999H595.356V1.99999V-7.62939e-06H588.986V1.99999ZM595.356 1.99999V3.99999C596.065 3.99999 596.378 4.17293 596.524 4.29851L597.826 2.77999L599.128 1.26147C598.061 0.347054 596.727 -7.62939e-06 595.356 -7.62939e-06V1.99999ZM597.826 2.77999L596.524 4.2985C596.553 4.32322 596.558 4.33329 596.553 4.32549C596.547 4.31659 596.539 4.30194 596.534 4.28654C596.523 4.25081 596.55 4.2925 596.515 4.46777L598.476 4.85999L600.437 5.25223C600.734 3.76788 600.351 2.31008 599.128 1.26148L597.826 2.77999ZM598.476 4.85999L596.495 4.58202C595.878 8.98203 593.785 12.4953 590.131 15.2159L591.326 16.82L592.521 18.4241C597.014 15.078 599.687 10.618 600.457 5.13797L598.476 4.85999ZM591.326 16.82L590.137 15.2116C586.575 17.8446 581.91 19.24 575.986 19.24V21.24V23.24C582.542 23.24 588.104 21.6887 592.515 18.4284L591.326 16.82ZM163.151 157.08H161.151V159.08H163.151V157.08ZM188.631 157.08V159.08H190.631V157.08H188.631ZM188.631 171.77H190.631V169.77H188.631V171.77ZM163.151 171.77V169.77H161.151V171.77H163.151ZM150.151 213.5V211.5C149.376 211.5 149.162 211.308 149.127 211.273C149.093 211.239 148.901 211.025 148.901 210.25H146.901H144.901C144.901 211.642 145.25 213.053 146.299 214.102C147.348 215.151 148.759 215.5 150.151 215.5V213.5ZM146.901 210.25H148.901V121.85H146.901H144.901V210.25H146.901ZM146.901 121.85H148.901C148.901 121.075 149.093 120.861 149.127 120.827C149.162 120.792 149.376 120.6 150.151 120.6V118.6V116.6C148.759 116.6 147.348 116.949 146.299 117.998C145.25 119.047 144.901 120.458 144.901 121.85H146.901ZM150.151 118.6V120.6H160.031V118.6V116.6H150.151V118.6ZM160.031 118.6V120.6C160.741 120.6 160.912 120.781 160.928 120.798C160.959 120.83 161.151 121.055 161.151 121.85H163.151H165.151C165.151 120.478 164.823 119.079 163.813 118.027C162.79 116.961 161.4 116.6 160.031 116.6V118.6ZM163.151 121.85H161.151V157.08H163.151H165.151V121.85H163.151ZM163.151 157.08V159.08H188.631V157.08V155.08H163.151V157.08ZM188.631 157.08H190.631V121.85H188.631H186.631V157.08H188.631ZM188.631 121.85H190.631C190.631 121.055 190.823 120.83 190.853 120.798C190.87 120.781 191.04 120.6 191.751 120.6V118.6V116.6C190.381 116.6 188.992 116.961 187.968 118.027C186.959 119.079 186.631 120.478 186.631 121.85H188.631ZM191.751 118.6V120.6H201.631V118.6V116.6H191.751V118.6ZM201.631 118.6V120.6C202.406 120.6 202.62 120.792 202.654 120.827C202.688 120.861 202.881 121.075 202.881 121.85H204.881H206.881C206.881 120.458 206.531 119.047 205.482 117.998C204.433 116.949 203.022 116.6 201.631 116.6V118.6ZM204.881 121.85H202.881V210.25H204.881H206.881V121.85H204.881ZM204.881 210.25H202.881C202.881 211.025 202.688 211.239 202.654 211.273C202.62 211.308 202.406 211.5 201.631 211.5V213.5V215.5C203.022 215.5 204.433 215.151 205.482 214.102C206.531 213.053 206.881 211.642 206.881 210.25H204.881ZM201.631 213.5V211.5H191.751V213.5V215.5H201.631V213.5ZM191.751 213.5V211.5C191.04 211.5 190.87 211.319 190.853 211.302C190.823 211.27 190.631 211.045 190.631 210.25H188.631H186.631C186.631 211.622 186.959 213.021 187.968 214.073C188.992 215.139 190.381 215.5 191.751 215.5V213.5ZM188.631 210.25H190.631V171.77H188.631H186.631V210.25H188.631ZM188.631 171.77V169.77H163.151V171.77V173.77H188.631V171.77ZM163.151 171.77H161.151V210.25H163.151H165.151V171.77H163.151ZM163.151 210.25H161.151C161.151 211.045 160.959 211.27 160.928 211.302C160.912 211.319 160.741 211.5 160.031 211.5V213.5V215.5C161.4 215.5 162.79 215.139 163.813 214.073C164.823 213.021 165.151 211.622 165.151 210.25H163.151ZM160.031 213.5V211.5H150.151V213.5V215.5H160.031V213.5ZM221.73 207L220.327 208.426L220.333 208.432L220.339 208.437L221.73 207ZM221.73 125.1L220.339 123.663L220.333 123.668L220.327 123.674L221.73 125.1ZM265.02 125.1L263.617 126.526L263.623 126.532L263.629 126.537L265.02 125.1ZM265.02 207L263.629 205.563L263.623 205.568L263.617 205.574L265.02 207ZM253.45 196.99L254.891 198.377L254.903 198.364L254.915 198.351L253.45 196.99ZM253.45 135.24L251.984 136.601L251.997 136.614L252.009 136.627L253.45 135.24ZM233.43 135.24L234.87 136.627L234.883 136.614L234.895 136.601L233.43 135.24ZM233.43 196.99L231.964 198.351L231.977 198.364L231.989 198.377L233.43 196.99ZM243.44 214.8V212.8C234.74 212.8 228.043 210.327 223.121 205.563L221.73 207L220.339 208.437C226.163 214.073 233.94 216.8 243.44 216.8V214.8ZM221.73 207L223.132 205.574C218.315 200.836 215.8 194.207 215.8 185.42H213.8H211.8C211.8 195.007 214.571 202.764 220.327 208.426L221.73 207ZM213.8 185.42H215.8V146.68H213.8H211.8V185.42H213.8ZM213.8 146.68H215.8C215.8 137.893 218.315 131.264 223.132 126.526L221.73 125.1L220.327 123.674C214.571 129.336 211.8 137.093 211.8 146.68H213.8ZM221.73 125.1L223.121 126.537C228.043 121.773 234.74 119.3 243.44 119.3V117.3V115.3C233.94 115.3 226.163 118.027 220.339 123.663L221.73 125.1ZM243.44 117.3V119.3C252.141 119.3 258.786 121.774 263.617 126.526L265.02 125.1L266.422 123.674C260.68 118.026 252.938 115.3 243.44 115.3V117.3ZM265.02 125.1L263.629 126.537C268.531 131.281 271.08 137.866 271.08 146.55H273.08H275.08C275.08 137.034 272.255 129.319 266.411 123.663L265.02 125.1ZM273.08 146.55H271.08V185.42H273.08H275.08V146.55H273.08ZM273.08 185.42H271.08C271.08 194.197 268.527 200.823 263.629 205.563L265.02 207L266.411 208.437C272.259 202.777 275.08 195.016 275.08 185.42H273.08ZM265.02 207L263.617 205.574C258.786 210.326 252.141 212.8 243.44 212.8V214.8V216.8C252.938 216.8 260.68 214.074 266.422 208.426L265.02 207ZM243.44 200.5V202.5C248.201 202.5 252.14 201.234 254.891 198.377L253.45 196.99L252.009 195.603C250.253 197.426 247.519 198.5 243.44 198.5V200.5ZM253.45 196.99L254.915 198.351C257.614 195.445 258.83 191.472 258.83 186.72H256.83H254.83C254.83 190.808 253.792 193.682 251.984 195.629L253.45 196.99ZM256.83 186.72H258.83V145.38H256.83H254.83V186.72H256.83ZM256.83 145.38H258.83C258.83 140.633 257.616 136.683 254.891 133.853L253.45 135.24L252.009 136.627C253.79 138.477 254.83 141.287 254.83 145.38H256.83ZM253.45 135.24L254.915 133.879C252.169 130.921 248.221 129.6 243.44 129.6V131.6V133.6C247.498 133.6 250.224 134.705 251.984 136.601L253.45 135.24ZM243.44 131.6V129.6C238.658 129.6 234.711 130.921 231.964 133.879L233.43 135.24L234.895 136.601C236.656 134.705 239.381 133.6 243.44 133.6V131.6ZM233.43 135.24L231.989 133.853C229.264 136.683 228.05 140.633 228.05 145.38H230.05H232.05C232.05 141.287 233.089 138.477 234.87 136.627L233.43 135.24ZM230.05 145.38H228.05V186.72H230.05H232.05V145.38H230.05ZM230.05 186.72H228.05C228.05 191.472 229.266 195.445 231.964 198.351L233.43 196.99L234.895 195.629C233.087 193.682 232.05 190.808 232.05 186.72H230.05ZM233.43 196.99L231.989 198.377C234.74 201.234 238.679 202.5 243.44 202.5V200.5V198.5C239.361 198.5 236.626 197.426 234.87 195.603L233.43 196.99ZM332.829 125.23L331.559 126.775L331.565 126.78L331.571 126.784L332.829 125.23ZM336.469 156.43L334.918 155.167L334.909 155.178L334.9 155.19L336.469 156.43ZM324.899 163.19L324.576 161.216L322.899 161.491V163.19H324.899ZM324.899 163.45H322.899V165.221L324.657 165.435L324.899 163.45ZM334.389 167.35L333.158 168.926L333.173 168.938L333.189 168.95L334.389 167.35ZM340.889 175.54L339.073 176.378L339.077 176.387L339.082 176.396L340.889 175.54ZM339.459 200.76L341.161 201.81V201.81L339.459 200.76ZM328.799 210.25L329.652 212.059L329.666 212.052L329.68 212.046L328.799 210.25ZM297.859 157.73H295.859V159.73H297.859V157.73ZM320.999 154.35L322.334 155.839L322.348 155.827L322.362 155.814L320.999 154.35ZM320.999 135.63L319.611 137.07L319.637 137.095L319.664 137.119L320.999 135.63ZM322.819 196.21L324.185 197.671L324.187 197.669L322.819 196.21ZM322.819 175.02L321.383 176.412L321.405 176.434L321.427 176.456L322.819 175.02ZM297.859 170.86V168.86H295.859V170.86H297.859ZM285.249 213.5V211.5C284.474 211.5 284.26 211.308 284.226 211.273C284.191 211.239 283.999 211.025 283.999 210.25H281.999H279.999C279.999 211.642 280.348 213.053 281.397 214.102C282.446 215.151 283.857 215.5 285.249 215.5V213.5ZM281.999 210.25H283.999V121.85H281.999H279.999V210.25H281.999ZM281.999 121.85H283.999C283.999 121.075 284.191 120.861 284.226 120.827C284.26 120.792 284.474 120.6 285.249 120.6V118.6V116.6C283.857 116.6 282.446 116.949 281.397 117.998C280.348 119.047 279.999 120.458 279.999 121.85H281.999ZM285.249 118.6V120.6H311.119V118.6V116.6H285.249V118.6ZM311.119 118.6V120.6C319.9 120.6 326.641 122.729 331.559 126.775L332.829 125.23L334.1 123.685C328.271 118.891 320.538 116.6 311.119 116.6V118.6ZM332.829 125.23L331.571 126.784C336.53 130.799 339.019 136.148 339.019 143.04H341.019H343.019C343.019 135.025 340.048 128.501 334.087 123.676L332.829 125.23ZM341.019 143.04H339.019C339.019 147.821 337.636 151.828 334.918 155.167L336.469 156.43L338.02 157.693C341.368 153.579 343.019 148.659 343.019 143.04H341.019ZM336.469 156.43L334.9 155.19C332.269 158.518 328.86 160.515 324.576 161.216L324.899 163.19L325.222 165.164C330.472 164.305 334.776 161.796 338.038 157.67L336.469 156.43ZM324.899 163.19H322.899V163.45H324.899H326.899V163.19H324.899ZM324.899 163.45L324.657 165.435C327.856 165.825 330.676 166.987 333.158 168.926L334.389 167.35L335.62 165.774C332.555 163.38 329.049 161.941 325.141 161.465L324.899 163.45ZM334.389 167.35L333.189 168.95C335.678 170.816 337.642 173.276 339.073 176.378L340.889 175.54L342.705 174.702C341.017 171.044 338.647 168.044 335.589 165.75L334.389 167.35ZM340.889 175.54L339.082 176.396C340.503 179.398 341.229 182.741 341.229 186.46H343.229H345.229C345.229 182.205 344.395 178.269 342.697 174.684L340.889 175.54ZM343.229 186.46H341.229C341.229 191.602 340.049 195.995 337.757 199.71L339.459 200.76L341.161 201.81C343.896 197.379 345.229 192.238 345.229 186.46H343.229ZM339.459 200.76L337.757 199.71C335.455 203.44 332.197 206.355 327.918 208.454L328.799 210.25L329.68 212.046C334.587 209.638 338.436 206.227 341.161 201.81L339.459 200.76ZM328.799 210.25L327.946 208.441C323.673 210.457 318.56 211.5 312.549 211.5V213.5V215.5C319.018 215.5 324.738 214.377 329.652 212.059L328.799 210.25ZM312.549 213.5V211.5H285.249V213.5V215.5H312.549V213.5ZM297.859 157.73V159.73H310.859V157.73V155.73H297.859V157.73ZM310.859 157.73V159.73C315.467 159.73 319.366 158.5 322.334 155.839L320.999 154.35L319.664 152.861C317.605 154.707 314.745 155.73 310.859 155.73V157.73ZM320.999 154.35L322.362 155.814C325.348 153.034 326.769 149.304 326.769 144.86H324.769H322.769C322.769 148.389 321.677 150.986 319.636 152.886L320.999 154.35ZM324.769 144.86H326.769C326.769 140.489 325.338 136.834 322.334 134.141L320.999 135.63L319.664 137.119C321.687 138.933 322.769 141.431 322.769 144.86H324.769ZM320.999 135.63L322.387 134.19C319.49 131.397 315.556 130.12 310.859 130.12V132.12V134.12C314.828 134.12 317.655 135.183 319.611 137.07L320.999 135.63ZM310.859 132.12V130.12H300.979V132.12V134.12H310.859V132.12ZM300.979 132.12V130.12C299.61 130.12 298.22 130.481 297.196 131.547C296.187 132.599 295.859 133.998 295.859 135.37H297.859H299.859C299.859 134.575 300.051 134.35 300.082 134.318C300.098 134.301 300.269 134.12 300.979 134.12V132.12ZM297.859 135.37H295.859V157.73H297.859H299.859V135.37H297.859ZM297.859 196.73H295.859C295.859 198.102 296.187 199.501 297.196 200.553C298.22 201.619 299.61 201.98 300.979 201.98V199.98V197.98C300.269 197.98 300.098 197.799 300.082 197.782C300.051 197.75 299.859 197.525 299.859 196.73H297.859ZM300.979 199.98V201.98H311.639V199.98V197.98H300.979V199.98ZM311.639 199.98V201.98C316.758 201.98 321.029 200.624 324.185 197.671L322.819 196.21L321.453 194.749C319.236 196.823 316.053 197.98 311.639 197.98V199.98ZM322.819 196.21L324.187 197.669C327.43 194.629 328.979 190.555 328.979 185.68H326.979H324.979C324.979 189.645 323.755 192.591 321.451 194.751L322.819 196.21ZM326.979 185.68H328.979C328.979 180.804 327.43 176.703 324.211 173.584L322.819 175.02L321.427 176.456C323.755 178.711 324.979 181.716 324.979 185.68H326.979ZM322.819 175.02L324.256 173.628C321.107 170.379 316.812 168.86 311.639 168.86V170.86V172.86C316 172.86 319.157 174.115 321.383 176.412L322.819 175.02ZM311.639 170.86V168.86H297.859V170.86V172.86H311.639V170.86ZM297.859 170.86H295.859V196.73H297.859H299.859V170.86H297.859ZM362.028 213.5L360.172 212.756L359.071 215.5H362.028V213.5ZM371.778 189.19L373.635 189.934L373.93 189.198L373.64 188.46L371.778 189.19ZM344.088 118.6V116.6H341.155L342.226 119.33L344.088 118.6ZM361.768 118.6L363.661 117.953L363.199 116.6H361.768V118.6ZM376.068 160.46L374.176 161.107L374.18 161.12L374.185 161.133L376.068 160.46ZM378.278 168.13L376.327 168.571L376.336 168.608L376.346 168.645L378.278 168.13ZM379.578 174.5L377.589 174.709H381.567L379.578 174.5ZM380.618 168.13L378.667 167.689L378.662 167.714L378.657 167.738L380.618 168.13ZM382.568 160.46L380.66 159.861L380.652 159.886L380.645 159.911L382.568 160.46ZM395.698 118.6V116.6H394.23L393.79 118.001L395.698 118.6ZM412.988 118.6L414.872 119.271L415.824 116.6H412.988V118.6ZM379.188 213.5V215.5H380.599L381.072 214.171L379.188 213.5ZM362.028 213.5L363.885 214.244L373.635 189.934L371.778 189.19L369.922 188.446L360.172 212.756L362.028 213.5ZM371.778 189.19L373.64 188.46L345.95 117.87L344.088 118.6L342.226 119.33L369.916 189.92L371.778 189.19ZM344.088 118.6V120.6H361.768V118.6V116.6H344.088V118.6ZM361.768 118.6L359.876 119.247L374.176 161.107L376.068 160.46L377.961 159.813L363.661 117.953L361.768 118.6ZM376.068 160.46L374.185 161.133C375.023 163.478 375.737 165.957 376.327 168.571L378.278 168.13L380.229 167.689C379.606 164.929 378.847 162.295 377.952 159.787L376.068 160.46ZM378.278 168.13L376.346 168.645C377.027 171.199 377.431 173.21 377.589 174.709L379.578 174.5L381.567 174.291C381.378 172.497 380.917 170.261 380.211 167.615L378.278 168.13ZM379.578 174.5L381.567 174.709C381.732 173.149 382.065 171.093 382.579 168.522L380.618 168.13L378.657 167.738C378.131 170.367 377.772 172.557 377.589 174.291L379.578 174.5ZM380.618 168.13L382.569 168.571C383.168 165.917 383.809 163.397 384.491 161.009L382.568 160.46L380.645 159.911C379.941 162.376 379.282 164.97 378.667 167.689L380.618 168.13ZM382.568 160.46L384.477 161.059L397.607 119.199L395.698 118.6L393.79 118.001L380.66 159.861L382.568 160.46ZM395.698 118.6V120.6H412.988V118.6V116.6H395.698V118.6ZM412.988 118.6L411.104 117.929L377.304 212.829L379.188 213.5L381.072 214.171L414.872 119.271L412.988 118.6ZM379.188 213.5V211.5H362.028V213.5V215.5H379.188V213.5ZM444.008 208.3L442.521 209.638L442.528 209.646L442.536 209.654L444.008 208.3ZM438.158 170.86H440.158V168.86H438.158V170.86ZM427.497 170.86V168.86H425.497V170.86H427.497ZM427.497 213.5V215.5H429.497V213.5H427.497ZM413.197 213.5H411.197V215.5H413.197V213.5ZM413.197 118.6V116.6H411.197V118.6H413.197ZM427.497 118.6H429.497V116.6H427.497V118.6ZM427.497 157.86H425.497V159.86H427.497V157.86ZM438.158 157.86V159.86H440.158V157.86H438.158ZM444.008 123.8L442.536 122.446L442.534 122.447L444.008 123.8ZM475.727 123.8L474.256 125.154L474.262 125.162L474.269 125.169L475.727 123.8ZM475.727 208.3L474.256 206.946V206.946L475.727 208.3ZM465.198 199.72L463.615 198.497L463.607 198.508L465.198 199.72ZM465.198 132.51L463.58 133.686L463.61 133.728L463.643 133.768L465.198 132.51ZM453.237 132.51L451.655 131.287L451.647 131.298L453.237 132.51ZM453.237 199.72L451.62 200.896L451.65 200.938L451.683 200.978L453.237 199.72ZM459.737 214.8V212.8C453.732 212.8 449.046 210.822 445.479 206.946L444.008 208.3L442.536 209.654C446.943 214.444 452.743 216.8 459.737 216.8V214.8ZM444.008 208.3L445.494 206.962C441.993 203.072 440.158 197.866 440.158 191.14H438.158H436.158C436.158 198.627 438.222 204.861 442.521 209.638L444.008 208.3ZM438.158 191.14H440.158V170.86H438.158H436.158V191.14H438.158ZM438.158 170.86V168.86H427.497V170.86V172.86H438.158V170.86ZM427.497 170.86H425.497V213.5H427.497H429.497V170.86H427.497ZM427.497 213.5V211.5H413.197V213.5V215.5H427.497V213.5ZM413.197 213.5H415.198V118.6H413.197H411.197V213.5H413.197ZM413.197 118.6V120.6H427.497V118.6V116.6H413.197V118.6ZM427.497 118.6H425.497V157.86H427.497H429.497V118.6H427.497ZM427.497 157.86V159.86H438.158V157.86V155.86H427.497V157.86ZM438.158 157.86H440.158V140.83H438.158H436.158V157.86H438.158ZM438.158 140.83H440.158C440.158 134.102 441.994 128.949 445.481 125.153L444.008 123.8L442.534 122.447C438.221 127.144 436.158 133.344 436.158 140.83H438.158ZM444.008 123.8L445.479 125.154C449.046 121.278 453.732 119.3 459.737 119.3V117.3V115.3C452.743 115.3 446.943 117.656 442.536 122.446L444.008 123.8ZM459.737 117.3V119.3C465.934 119.3 470.7 121.289 474.256 125.154L475.727 123.8L477.199 122.446C472.782 117.644 466.888 115.3 459.737 115.3V117.3ZM475.727 123.8L474.269 125.169C477.835 128.967 479.707 134.114 479.707 140.83H481.707H483.707C483.707 133.333 481.594 127.127 477.186 122.431L475.727 123.8ZM481.707 140.83H479.707V191.14H481.707H483.707V140.83H481.707ZM481.707 191.14H479.707C479.707 197.855 477.835 203.055 474.256 206.946L475.727 208.3L477.199 209.654C481.593 204.878 483.707 198.639 483.707 191.14H481.707ZM475.727 208.3L474.256 206.946C470.7 210.811 465.934 212.8 459.737 212.8V214.8V216.8C466.888 216.8 472.782 214.456 477.199 209.654L475.727 208.3ZM459.348 202.45V204.45C462.414 204.45 464.982 203.302 466.788 200.932L465.198 199.72L463.607 198.508C462.639 199.778 461.307 200.45 459.348 200.45V202.45ZM465.198 199.72L466.78 200.943C468.608 198.577 469.408 195.496 469.408 191.92H467.408H465.408C465.408 194.931 464.734 197.049 463.615 198.497L465.198 199.72ZM467.408 191.92H469.408V140.18H467.408H465.408V191.92H467.408ZM467.408 140.18H469.408C469.408 136.612 468.611 133.548 466.752 131.252L465.198 132.51L463.643 133.768C464.731 135.112 465.408 137.162 465.408 140.18H467.408ZM465.198 132.51L466.815 131.334C465.024 128.871 462.451 127.65 459.348 127.65V129.65V131.65C461.27 131.65 462.598 132.336 463.58 133.686L465.198 132.51ZM459.348 129.65V127.65C456.185 127.65 453.54 128.847 451.655 131.287L453.237 132.51L454.82 133.733C455.881 132.359 457.31 131.65 459.348 131.65V129.65ZM453.237 132.51L451.647 131.298C449.9 133.59 449.158 136.635 449.158 140.18H451.158H453.158C453.158 137.138 453.801 135.07 454.828 133.722L453.237 132.51ZM451.158 140.18H449.158V191.92H451.158H453.158V140.18H451.158ZM451.158 191.92H449.158C449.158 195.473 449.903 198.536 451.62 200.896L453.237 199.72L454.855 198.544C453.798 197.091 453.158 194.954 453.158 191.92H451.158ZM453.237 199.72L451.683 200.978C453.581 203.323 456.22 204.45 459.348 204.45V202.45V200.45C457.275 200.45 455.84 199.757 454.792 198.462L453.237 199.72ZM158.756 213.23L157.485 214.775L157.492 214.78L157.498 214.784L158.756 213.23ZM162.396 244.43L160.845 243.167L160.836 243.178L160.827 243.19L162.396 244.43ZM150.826 251.19L150.503 249.216L148.826 249.491V251.19H150.826ZM150.826 251.45H148.826V253.221L150.584 253.435L150.826 251.45ZM160.316 255.35L159.085 256.926L159.1 256.938L159.116 256.95L160.316 255.35ZM166.816 263.54L165 264.378L165.004 264.387L165.009 264.396L166.816 263.54ZM165.386 288.76L167.088 289.81V289.81L165.386 288.76ZM154.726 298.25L155.579 300.059L155.593 300.052L155.607 300.046L154.726 298.25ZM123.786 245.73H121.786V247.73H123.786V245.73ZM146.926 242.35L148.261 243.839L148.275 243.827L148.289 243.814L146.926 242.35ZM146.926 223.63L145.538 225.07L145.564 225.095L145.591 225.119L146.926 223.63ZM148.746 284.21L150.112 285.671L150.114 285.669L148.746 284.21ZM148.746 263.02L147.31 264.412L147.332 264.434L147.354 264.456L148.746 263.02ZM123.786 258.86V256.86H121.786V258.86H123.786ZM111.176 301.5V299.5C110.401 299.5 110.187 299.308 110.153 299.273C110.118 299.239 109.926 299.025 109.926 298.25H107.926H105.926C105.926 299.642 106.275 301.053 107.324 302.102C108.373 303.151 109.784 303.5 111.176 303.5V301.5ZM107.926 298.25H109.926V209.85H107.926H105.926V298.25H107.926ZM107.926 209.85H109.926C109.926 209.075 110.118 208.861 110.153 208.827C110.187 208.792 110.401 208.6 111.176 208.6V206.6V204.6C109.784 204.6 108.373 204.949 107.324 205.998C106.275 207.047 105.926 208.458 105.926 209.85H107.926ZM111.176 206.6V208.6H137.046V206.6V204.6H111.176V206.6ZM137.046 206.6V208.6C145.827 208.6 152.568 210.729 157.485 214.775L158.756 213.23L160.027 211.685C154.198 206.891 146.465 204.6 137.046 204.6V206.6ZM158.756 213.23L157.498 214.784C162.457 218.799 164.946 224.148 164.946 231.04H166.946H168.946C168.946 223.025 165.975 216.501 160.014 211.676L158.756 213.23ZM166.946 231.04H164.946C164.946 235.821 163.563 239.828 160.845 243.167L162.396 244.43L163.947 245.693C167.295 241.579 168.946 236.659 168.946 231.04H166.946ZM162.396 244.43L160.827 243.19C158.196 246.518 154.787 248.515 150.503 249.216L150.826 251.19L151.149 253.164C156.399 252.305 160.703 249.796 163.965 245.67L162.396 244.43ZM150.826 251.19H148.826V251.45H150.826H152.826V251.19H150.826ZM150.826 251.45L150.584 253.435C153.783 253.825 156.603 254.987 159.085 256.926L160.316 255.35L161.547 253.774C158.482 251.38 154.976 249.941 151.068 249.465L150.826 251.45ZM160.316 255.35L159.116 256.95C161.605 258.816 163.569 261.276 165 264.378L166.816 263.54L168.632 262.702C166.944 259.044 164.574 256.044 161.516 253.75L160.316 255.35ZM166.816 263.54L165.009 264.396C166.43 267.398 167.156 270.741 167.156 274.46H169.156H171.156C171.156 270.205 170.322 266.269 168.624 262.684L166.816 263.54ZM169.156 274.46H167.156C167.156 279.602 165.976 283.995 163.684 287.71L165.386 288.76L167.088 289.81C169.822 285.379 171.156 280.238 171.156 274.46H169.156ZM165.386 288.76L163.684 287.71C161.382 291.44 158.124 294.355 153.845 296.454L154.726 298.25L155.607 300.046C160.514 297.638 164.363 294.227 167.088 289.81L165.386 288.76ZM154.726 298.25L153.873 296.441C149.6 298.457 144.487 299.5 138.476 299.5V301.5V303.5C144.945 303.5 150.665 302.377 155.579 300.059L154.726 298.25ZM138.476 301.5V299.5H111.176V301.5V303.5H138.476V301.5ZM123.786 245.73V247.73H136.786V245.73V243.73H123.786V245.73ZM136.786 245.73V247.73C141.394 247.73 145.293 246.5 148.261 243.839L146.926 242.35L145.591 240.861C143.532 242.707 140.672 243.73 136.786 243.73V245.73ZM146.926 242.35L148.289 243.814C151.275 241.034 152.696 237.304 152.696 232.86H150.696H148.696C148.696 236.389 147.604 238.986 145.563 240.886L146.926 242.35ZM150.696 232.86H152.696C152.696 228.489 151.265 224.834 148.261 222.141L146.926 223.63L145.591 225.119C147.614 226.933 148.696 229.431 148.696 232.86H150.696ZM146.926 223.63L148.314 222.19C145.417 219.397 141.483 218.12 136.786 218.12V220.12V222.12C140.755 222.12 143.582 223.183 145.538 225.07L146.926 223.63ZM136.786 220.12V218.12H126.906V220.12V222.12H136.786V220.12ZM126.906 220.12V218.12C125.536 218.12 124.147 218.481 123.123 219.547C122.114 220.599 121.786 221.998 121.786 223.37H123.786H125.786C125.786 222.575 125.978 222.35 126.009 222.318C126.025 222.301 126.196 222.12 126.906 222.12V220.12ZM123.786 223.37H121.786V245.73H123.786H125.786V223.37H123.786ZM123.786 284.73H121.786C121.786 286.102 122.114 287.501 123.123 288.553C124.147 289.619 125.536 289.98 126.906 289.98V287.98V285.98C126.196 285.98 126.025 285.799 126.009 285.782C125.978 285.75 125.786 285.525 125.786 284.73H123.786ZM126.906 287.98V289.98H137.566V287.98V285.98H126.906V287.98ZM137.566 287.98V289.98C142.685 289.98 146.956 288.624 150.112 285.671L148.746 284.21L147.38 282.749C145.163 284.823 141.98 285.98 137.566 285.98V287.98ZM148.746 284.21L150.114 285.669C153.357 282.629 154.906 278.555 154.906 273.68H152.906H150.906C150.906 277.645 149.682 280.591 147.378 282.751L148.746 284.21ZM152.906 273.68H154.906C154.906 268.804 153.357 264.703 150.138 261.584L148.746 263.02L147.354 264.456C149.681 266.711 150.906 269.716 150.906 273.68H152.906ZM148.746 263.02L150.182 261.628C147.034 258.379 142.739 256.86 137.566 256.86V258.86V260.86C141.927 260.86 145.084 262.115 147.31 264.412L148.746 263.02ZM137.566 258.86V256.86H123.786V258.86V260.86H137.566V258.86ZM123.786 258.86H121.786V284.73H123.786H125.786V258.86H123.786ZM192.895 245.6H190.895V247.6H192.895V245.6ZM192.895 259.38V257.38H190.895V259.38H192.895ZM180.155 301.5V299.5C179.38 299.5 179.166 299.308 179.132 299.273C179.098 299.239 178.905 299.025 178.905 298.25H176.905H174.905C174.905 299.642 175.255 301.053 176.304 302.102C177.353 303.151 178.764 303.5 180.155 303.5V301.5ZM176.905 298.25H178.905V209.85H176.905H174.905V298.25H176.905ZM176.905 209.85H178.905C178.905 209.075 179.098 208.861 179.132 208.827C179.166 208.792 179.38 208.6 180.155 208.6V206.6V204.6C178.764 204.6 177.353 204.949 176.304 205.998C175.255 207.047 174.905 208.458 174.905 209.85H176.905ZM180.155 206.6V208.6H230.595V206.6V204.6H180.155V206.6ZM230.595 206.6V208.6C231.37 208.6 231.584 208.792 231.619 208.827C231.653 208.861 231.845 209.075 231.845 209.85H233.845H235.845C235.845 208.458 235.496 207.047 234.447 205.998C233.398 204.949 231.987 204.6 230.595 204.6V206.6ZM233.845 209.85H231.845V217.65H233.845H235.845V209.85H233.845ZM233.845 217.65H231.845C231.845 218.425 231.653 218.639 231.619 218.673C231.584 218.708 231.37 218.9 230.595 218.9V220.9V222.9C231.987 222.9 233.398 222.551 234.447 221.502C235.496 220.453 235.845 219.042 235.845 217.65H233.845ZM230.595 220.9V218.9H196.145V220.9V222.9H230.595V220.9ZM196.145 220.9V218.9C194.754 218.9 193.343 219.249 192.294 220.298C191.245 221.347 190.895 222.758 190.895 224.15H192.895H194.895C194.895 223.375 195.088 223.161 195.122 223.127C195.156 223.092 195.37 222.9 196.145 222.9V220.9ZM192.895 224.15H190.895V245.6H192.895H194.895V224.15H192.895ZM192.895 245.6V247.6H226.045V245.6V243.6H192.895V245.6ZM226.045 245.6V247.6C226.84 247.6 227.066 247.792 227.098 247.823C227.115 247.839 227.295 248.01 227.295 248.72H229.295H231.295C231.295 247.35 230.934 245.961 229.868 244.937C228.817 243.928 227.417 243.6 226.045 243.6V245.6ZM229.295 248.72H227.295V256.13H229.295H231.295V248.72H229.295ZM229.295 256.13H227.295C227.295 256.905 227.103 257.119 227.069 257.153C227.034 257.188 226.82 257.38 226.045 257.38V259.38V261.38C227.437 261.38 228.848 261.031 229.897 259.982C230.946 258.933 231.295 257.522 231.295 256.13H229.295ZM226.045 259.38V257.38H192.895V259.38V261.38H226.045V259.38ZM192.895 259.38H190.895V283.95H192.895H194.895V259.38H192.895ZM192.895 283.95H190.895C190.895 285.342 191.245 286.753 192.294 287.802C193.343 288.851 194.754 289.2 196.145 289.2V287.2V285.2C195.37 285.2 195.156 285.008 195.122 284.973C195.088 284.939 194.895 284.725 194.895 283.95H192.895ZM196.145 287.2V289.2H230.595V287.2V285.2H196.145V287.2ZM230.595 287.2V289.2C231.37 289.2 231.584 289.392 231.619 289.427C231.653 289.461 231.845 289.675 231.845 290.45H233.845H235.845C235.845 289.058 235.496 287.647 234.447 286.598C233.398 285.549 231.987 285.2 230.595 285.2V287.2ZM233.845 290.45H231.845V298.25H233.845H235.845V290.45H233.845ZM233.845 298.25H231.845C231.845 299.025 231.653 299.239 231.619 299.273C231.584 299.308 231.37 299.5 230.595 299.5V301.5V303.5C231.987 303.5 233.398 303.151 234.447 302.102C235.496 301.053 235.845 299.642 235.845 298.25H233.845ZM230.595 301.5V299.5H180.155V301.5V303.5H230.595V301.5ZM291.124 210.24L290.204 212.016L290.21 212.019L290.217 212.022L291.124 210.24ZM302.174 220.51L300.451 221.524L300.455 221.532L300.459 221.539L302.174 220.51ZM302.174 251.32L303.889 252.349L303.894 252.342L303.898 252.334L302.174 251.32ZM291.124 261.46L290.217 259.678L290.21 259.681L290.204 259.684L291.124 261.46ZM259.274 265.1V263.1H257.274V265.1H259.274ZM259.274 250.8H257.274V252.8H259.274V250.8ZM285.534 246.64L284.098 245.248V245.248L285.534 246.64ZM285.534 225.06L284.098 226.452V226.452L285.534 225.06ZM246.144 301.5V299.5C245.434 299.5 245.263 299.319 245.247 299.302C245.216 299.27 245.024 299.045 245.024 298.25H243.024H241.024C241.024 299.622 241.352 301.021 242.362 302.073C243.386 303.139 244.775 303.5 246.144 303.5V301.5ZM243.024 298.25H245.024V209.85H243.024H241.024V298.25H243.024ZM243.024 209.85H245.024C245.024 209.055 245.216 208.83 245.247 208.798C245.263 208.781 245.434 208.6 246.144 208.6V206.6V204.6C244.775 204.6 243.386 204.961 242.362 206.027C241.352 207.079 241.024 208.478 241.024 209.85H243.024ZM246.144 206.6V208.6H274.614V206.6V204.6H246.144V206.6ZM274.614 206.6V208.6C280.684 208.6 285.86 209.763 290.204 212.016L291.124 210.24L292.045 208.464C287.029 205.864 281.198 204.6 274.614 204.6V206.6ZM291.124 210.24L290.217 212.022C294.659 214.284 298.053 217.447 300.451 221.524L302.174 220.51L303.898 219.496C301.096 214.733 297.123 211.05 292.032 208.458L291.124 210.24ZM302.174 220.51L300.459 221.539C302.844 225.513 304.074 230.258 304.074 235.85H306.074H308.074C308.074 229.655 306.705 224.174 303.889 219.481L302.174 220.51ZM306.074 235.85H304.074C304.074 241.441 302.844 246.237 300.451 250.306L302.174 251.32L303.898 252.334C306.705 247.563 308.074 242.046 308.074 235.85H306.074ZM302.174 251.32L300.459 250.291C298.064 254.283 294.67 257.411 290.217 259.678L291.124 261.46L292.032 263.242C297.113 260.656 301.085 257.023 303.889 252.349L302.174 251.32ZM291.124 261.46L290.204 259.684C285.86 261.937 280.684 263.1 274.614 263.1V265.1V267.1C281.198 267.1 287.029 265.836 292.045 263.236L291.124 261.46ZM274.614 265.1V263.1H259.274V265.1V267.1H274.614V265.1ZM259.274 265.1H257.274V298.25H259.274H261.274V265.1H259.274ZM259.274 298.25H257.274C257.274 299.025 257.082 299.239 257.048 299.273C257.013 299.308 256.799 299.5 256.024 299.5V301.5V303.5C257.416 303.5 258.827 303.151 259.876 302.102C260.925 301.053 261.274 299.642 261.274 298.25H259.274ZM256.024 301.5V299.5H246.144V301.5V303.5H256.024V301.5ZM259.274 250.8V252.8H274.614V250.8V248.8H259.274V250.8ZM274.614 250.8V252.8C279.638 252.8 283.837 251.267 286.971 248.032L285.534 246.64L284.098 245.248C281.859 247.56 278.777 248.8 274.614 248.8V250.8ZM285.534 246.64L286.971 248.032C290.072 244.831 291.564 240.708 291.564 235.85H289.564H287.564C287.564 239.832 286.37 242.903 284.098 245.248L285.534 246.64ZM289.564 235.85H291.564C291.564 230.992 290.072 226.869 286.971 223.668L285.534 225.06L284.098 226.452C286.37 228.797 287.564 231.868 287.564 235.85H289.564ZM285.534 225.06L286.971 223.668C283.837 220.433 279.638 218.9 274.614 218.9V220.9V222.9C278.777 222.9 281.859 224.14 284.098 226.452L285.534 225.06ZM274.614 220.9V218.9H262.524V220.9V222.9H274.614V220.9ZM262.524 220.9V218.9C261.153 218.9 259.753 219.228 258.702 220.237C257.635 221.261 257.274 222.65 257.274 224.02H259.274H261.274C261.274 223.31 261.455 223.139 261.472 223.123C261.504 223.092 261.729 222.9 262.524 222.9V220.9ZM259.274 224.02H257.274V250.8H259.274H261.274V224.02H259.274ZM324.614 299.42L323.692 301.195L323.706 301.202L323.719 301.209L324.614 299.42ZM314.084 289.67L312.347 290.662L312.359 290.683L312.372 290.704L314.084 289.67ZM314.084 218.56L312.362 217.541L312.356 217.552L314.084 218.56ZM324.614 208.81L325.508 210.599L325.522 210.592L325.535 210.585L324.614 208.81ZM361.404 212.06L360.118 213.592L360.126 213.599L360.133 213.605L361.404 212.06ZM370.504 230L372.498 229.847L372.497 229.832L372.495 229.817L370.504 230ZM354.124 230.26L352.145 230.55L352.148 230.569L352.151 230.589L354.124 230.26ZM330.334 223.24L331.722 224.68L331.735 224.667L331.748 224.654L330.334 223.24ZM330.334 284.99L328.919 286.404L328.932 286.417L328.945 286.43L330.334 284.99ZM354.124 277.84L352.151 277.511L352.148 277.531L352.145 277.55L354.124 277.84ZM370.634 277.84L372.625 278.021L372.63 277.972L372.632 277.923L370.634 277.84ZM361.534 296.04L360.248 294.508V294.508L361.534 296.04ZM340.604 302.8V300.8C334.693 300.8 329.682 299.718 325.508 297.631L324.614 299.42L323.719 301.209C328.558 303.628 334.207 304.8 340.604 304.8V302.8ZM324.614 299.42L325.535 297.645C321.34 295.467 318.11 292.466 315.796 288.636L314.084 289.67L312.372 290.704C315.084 295.194 318.874 298.693 323.692 301.195L324.614 299.42ZM314.084 289.67L315.82 288.678C313.593 284.781 312.444 280.151 312.444 274.72H310.444H308.444C308.444 280.729 309.721 286.066 312.347 290.662L314.084 289.67ZM310.444 274.72H312.444V233.38H310.444H308.444V274.72H310.444ZM310.444 233.38H312.444C312.444 227.947 313.594 223.369 315.811 219.568L314.084 218.56L312.356 217.552C309.72 222.071 308.444 227.373 308.444 233.38H310.444ZM314.084 218.56L315.805 219.579C318.118 215.67 321.338 212.684 325.508 210.599L324.614 208.81L323.719 207.021C318.876 209.443 315.076 212.957 312.363 217.541L314.084 218.56ZM324.614 208.81L325.535 210.585C329.703 208.421 334.704 207.3 340.604 207.3V205.3V203.3C334.197 203.3 328.538 204.519 323.692 207.035L324.614 208.81ZM340.604 205.3V207.3C348.73 207.3 355.177 209.448 360.118 213.592L361.404 212.06L362.689 210.528C356.884 205.659 349.464 203.3 340.604 203.3V205.3ZM361.404 212.06L360.133 213.605C365.055 217.654 367.863 223.123 368.512 230.183L370.504 230L372.495 229.817C371.758 221.797 368.499 215.306 362.674 210.515L361.404 212.06ZM370.504 230L368.51 230.153C368.541 230.559 368.509 230.824 368.469 230.982C368.431 231.128 368.39 231.172 368.384 231.178C368.378 231.185 368.339 231.228 368.199 231.276C368.047 231.328 367.788 231.38 367.384 231.38V233.38V235.38C368.804 235.38 370.276 235.026 371.323 233.892C372.369 232.759 372.607 231.263 372.498 229.847L370.504 230ZM367.384 233.38V231.38H357.634V233.38V235.38H367.384V233.38ZM357.634 233.38V231.38C356.989 231.38 356.717 231.218 356.59 231.105C356.449 230.98 356.221 230.677 356.096 229.931L354.124 230.26L352.151 230.589C352.373 231.923 352.904 233.18 353.932 234.095C354.975 235.022 356.285 235.38 357.634 235.38V233.38ZM354.124 230.26L356.103 229.97C355.528 226.044 353.951 222.862 351.202 220.694C348.481 218.549 344.867 217.6 340.604 217.6V219.6V221.6C344.313 221.6 346.94 222.428 348.725 223.836C350.483 225.221 351.679 227.369 352.145 230.55L354.124 230.26ZM340.604 219.6V217.6C335.813 217.6 331.821 218.924 328.919 221.826L330.334 223.24L331.748 224.654C333.7 222.702 336.554 221.6 340.604 221.6V219.6ZM330.334 223.24L328.945 221.8C326.017 224.624 324.694 228.594 324.694 233.38H326.694H328.694C328.694 229.326 329.797 226.536 331.722 224.68L330.334 223.24ZM326.694 233.38H324.694V274.72H326.694H328.694V233.38H326.694ZM326.694 274.72H324.694C324.694 279.511 326.018 283.503 328.919 286.404L330.334 284.99L331.748 283.576C329.796 281.624 328.694 278.769 328.694 274.72H326.694ZM330.334 284.99L328.945 286.43C331.85 289.23 335.832 290.5 340.604 290.5V288.5V286.5C336.535 286.5 333.671 285.43 331.722 283.55L330.334 284.99ZM340.604 288.5V290.5C344.867 290.5 348.481 289.551 351.202 287.406C353.951 285.238 355.528 282.056 356.103 278.13L354.124 277.84L352.145 277.55C351.679 280.731 350.483 282.879 348.725 284.264C346.94 285.672 344.313 286.5 340.604 286.5V288.5ZM354.124 277.84L356.096 278.169C356.221 277.423 356.449 277.12 356.59 276.995C356.717 276.882 356.989 276.72 357.634 276.72V274.72V272.72C356.285 272.72 354.975 273.078 353.932 274.005C352.904 274.92 352.373 276.177 352.151 277.511L354.124 277.84ZM357.634 274.72V276.72H367.384V274.72V272.72H357.634V274.72ZM367.384 274.72V276.72C368.248 276.72 368.482 276.924 368.501 276.943C368.511 276.952 368.541 276.981 368.574 277.084C368.611 277.199 368.65 277.41 368.635 277.757L370.634 277.84L372.632 277.923C372.69 276.54 372.368 275.11 371.271 274.057C370.207 273.036 368.773 272.72 367.384 272.72V274.72ZM370.634 277.84L368.642 277.659C367.992 284.813 365.178 290.373 360.248 294.508L361.534 296.04L362.819 297.572C368.636 292.693 371.889 286.121 372.625 278.021L370.634 277.84ZM361.534 296.04L360.248 294.508C355.311 298.649 348.823 300.8 340.604 300.8V302.8V304.8C349.545 304.8 357.01 302.444 362.819 297.572L361.534 296.04ZM377.473 301.5H375.473V303.5H377.473V301.5ZM377.473 206.6V204.6H375.473V206.6H377.473ZM392.293 206.6H394.293V204.6H392.293V206.6ZM392.033 263.28L394.031 263.373V263.373L392.033 263.28ZM391.383 274.2L389.388 274.054V274.054L391.383 274.2ZM390.733 283.3L388.738 283.162L392.626 283.945L390.733 283.3ZM416.863 206.6V204.6H415.431L414.97 205.955L416.863 206.6ZM436.753 206.6H438.753V204.6H436.753V206.6ZM436.753 301.5V303.5H438.753V301.5H436.753ZM421.933 301.5H419.933V303.5H421.933V301.5ZM422.193 246.12L420.197 245.987L420.196 246.009L420.195 246.031L422.193 246.12ZM422.973 234.68L424.968 234.819L424.968 234.816L422.973 234.68ZM423.753 224.8L425.744 224.987L421.862 224.149L423.753 224.8ZM397.363 301.5V303.5H398.79L399.254 302.151L397.363 301.5ZM377.473 301.5H379.473V206.6H377.473H375.473V301.5H377.473ZM377.473 206.6V208.6H392.293V206.6V204.6H377.473V206.6ZM392.293 206.6H390.293V253.01H392.293H394.293V206.6H392.293ZM392.293 253.01H390.293C390.293 256.094 390.207 259.486 390.035 263.187L392.033 263.28L394.031 263.373C394.205 259.621 394.293 256.166 394.293 253.01H392.293ZM392.033 263.28L390.035 263.187C389.862 266.897 389.647 270.519 389.388 274.054L391.383 274.2L393.378 274.346C393.639 270.774 393.857 267.116 394.031 263.373L392.033 263.28ZM391.383 274.2L389.388 274.054C389.128 277.609 388.911 280.645 388.738 283.162L390.733 283.3L392.728 283.438C392.901 280.928 393.118 277.898 393.378 274.346L391.383 274.2ZM390.733 283.3L392.626 283.945L418.756 207.245L416.863 206.6L414.97 205.955L388.84 282.655L390.733 283.3ZM416.863 206.6V208.6H436.753V206.6V204.6H416.863V206.6ZM436.753 206.6H434.753V301.5H436.753H438.753V206.6H436.753ZM436.753 301.5V299.5H421.933V301.5V303.5H436.753V301.5ZM421.933 301.5H423.933V256.52H421.933H419.933V301.5H421.933ZM421.933 256.52H423.933C423.933 253.523 424.019 250.087 424.191 246.209L422.193 246.12L420.195 246.031C420.021 249.953 419.933 253.45 419.933 256.52H421.933ZM422.193 246.12L424.188 246.253C424.448 242.355 424.708 238.544 424.968 234.819L422.973 234.68L420.978 234.541C420.718 238.27 420.457 242.085 420.197 245.987L422.193 246.12ZM422.973 234.68L424.968 234.816C425.227 231.014 425.486 227.738 425.744 224.987L423.753 224.8L421.762 224.613C421.5 227.408 421.238 230.719 420.978 234.544L422.973 234.68ZM423.753 224.8L421.862 224.149L395.472 300.849L397.363 301.5L399.254 302.151L425.644 225.451L423.753 224.8ZM397.363 301.5V299.5H377.473V301.5V303.5H397.363V301.5ZM472.582 296.3L471.096 297.638L471.103 297.646L471.11 297.654L472.582 296.3ZM466.732 258.86H468.732V256.86H466.732V258.86ZM456.072 258.86V256.86H454.072V258.86H456.072ZM456.072 301.5V303.5H458.072V301.5H456.072ZM441.772 301.5H439.772V303.5H441.772V301.5ZM441.772 206.6V204.6H439.772V206.6H441.772ZM456.072 206.6H458.072V204.6H456.072V206.6ZM456.072 245.86H454.072V247.86H456.072V245.86ZM466.732 245.86V247.86H468.732V245.86H466.732ZM472.582 211.8L471.11 210.446L471.109 210.447L472.582 211.8ZM504.302 211.8L502.83 213.154L502.837 213.162L502.844 213.169L504.302 211.8ZM504.302 296.3L502.83 294.946V294.946L504.302 296.3ZM493.772 287.72L492.19 286.497L492.181 286.508L493.772 287.72ZM493.772 220.51L492.155 221.686L492.185 221.728L492.218 221.768L493.772 220.51ZM481.812 220.51L480.229 219.287L480.221 219.298L481.812 220.51ZM481.812 287.72L480.195 288.896L480.225 288.938L480.258 288.978L481.812 287.72ZM488.312 302.8V300.8C482.307 300.8 477.62 298.822 474.054 294.946L472.582 296.3L471.11 297.654C475.517 302.444 481.317 304.8 488.312 304.8V302.8ZM472.582 296.3L474.069 294.962C470.568 291.072 468.732 285.866 468.732 279.14H466.732H464.732C464.732 286.627 466.796 292.861 471.096 297.638L472.582 296.3ZM466.732 279.14H468.732V258.86H466.732H464.732V279.14H466.732ZM466.732 258.86V256.86H456.072V258.86V260.86H466.732V258.86ZM456.072 258.86H454.072V301.5H456.072H458.072V258.86H456.072ZM456.072 301.5V299.5H441.772V301.5V303.5H456.072V301.5ZM441.772 301.5H443.772V206.6H441.772H439.772V301.5H441.772ZM441.772 206.6V208.6H456.072V206.6V204.6H441.772V206.6ZM456.072 206.6H454.072V245.86H456.072H458.072V206.6H456.072ZM456.072 245.86V247.86H466.732V245.86V243.86H456.072V245.86ZM466.732 245.86H468.732V228.83H466.732H464.732V245.86H466.732ZM466.732 228.83H468.732C468.732 222.102 470.568 216.949 474.055 213.153L472.582 211.8L471.109 210.447C466.796 215.144 464.732 221.344 464.732 228.83H466.732ZM472.582 211.8L474.054 213.154C477.62 209.278 482.307 207.3 488.312 207.3V205.3V203.3C481.317 203.3 475.517 205.656 471.11 210.446L472.582 211.8ZM488.312 205.3V207.3C494.508 207.3 499.275 209.289 502.83 213.154L504.302 211.8L505.774 210.446C501.356 205.644 495.462 203.3 488.312 203.3V205.3ZM504.302 211.8L502.844 213.169C506.409 216.967 508.282 222.114 508.282 228.83H510.282H512.282C512.282 221.333 510.168 215.127 505.76 210.431L504.302 211.8ZM510.282 228.83H508.282V279.14H510.282H512.282V228.83H510.282ZM510.282 279.14H508.282C508.282 285.855 506.41 291.055 502.83 294.946L504.302 296.3L505.774 297.654C510.168 292.878 512.282 286.639 512.282 279.14H510.282ZM504.302 296.3L502.83 294.946C499.275 298.811 494.508 300.8 488.312 300.8V302.8V304.8C495.462 304.8 501.356 302.456 505.774 297.654L504.302 296.3ZM487.922 290.45V292.45C490.989 292.45 493.557 291.302 495.363 288.932L493.772 287.72L492.181 286.508C491.214 287.778 489.882 288.45 487.922 288.45V290.45ZM493.772 287.72L495.355 288.943C497.183 286.577 497.982 283.496 497.982 279.92H495.982H493.982C493.982 282.931 493.308 285.049 492.19 286.497L493.772 287.72ZM495.982 279.92H497.982V228.18H495.982H493.982V279.92H495.982ZM495.982 228.18H497.982C497.982 224.612 497.185 221.548 495.327 219.252L493.772 220.51L492.218 221.768C493.305 223.112 493.982 225.162 493.982 228.18H495.982ZM493.772 220.51L495.39 219.334C493.598 216.871 491.026 215.65 487.922 215.65V217.65V219.65C489.845 219.65 491.173 220.336 492.155 221.686L493.772 220.51ZM487.922 217.65V215.65C484.759 215.65 482.115 216.847 480.23 219.287L481.812 220.51L483.395 221.733C484.456 220.359 485.885 219.65 487.922 219.65V217.65ZM481.812 220.51L480.221 219.298C478.475 221.59 477.732 224.635 477.732 228.18H479.732H481.732C481.732 225.138 482.376 223.07 483.403 221.722L481.812 220.51ZM479.732 228.18H477.732V279.92H479.732H481.732V228.18H479.732ZM479.732 279.92H477.732C477.732 283.473 478.478 286.536 480.195 288.896L481.812 287.72L483.43 286.544C482.373 285.091 481.732 282.954 481.732 279.92H479.732ZM481.812 287.72L480.258 288.978C482.156 291.323 484.794 292.45 487.922 292.45V290.45V288.45C485.85 288.45 484.415 287.757 483.367 286.462L481.812 287.72Z" fill="black" mask="url(#path-1-outside-1_129_7290)"/>
</svg>
