<svg width="312" height="43" viewBox="0 0 312 43" fill="none" xmlns="http://www.w3.org/2000/svg">
<path d="M24.9095 42.6533C19.7911 42.6533 15.3646 41.7896 11.6301 40.0622C7.91453 38.3159 5.04255 35.8482 3.01416 32.6591C1.00472 29.4701 0 25.6926 0 21.3267V21.2982C0 16.9323 1.00472 13.1643 3.01416 9.9942C5.04255 6.80517 7.91453 4.34696 11.6301 2.61956C15.3646 0.873188 19.7911 0 24.9095 0C29.2316 0 33.0799 0.673873 36.4542 2.02162C39.8475 3.35038 42.5963 5.22964 44.7005 7.65938C46.8237 10.0891 48.1317 12.9555 48.6246 16.2584L48.6531 16.6001H39.3262L39.2409 16.2584C38.6912 14.3981 37.7718 12.8226 36.4827 11.5318C35.2126 10.222 33.6107 9.22542 31.6771 8.54206C29.7435 7.85869 27.5066 7.51701 24.9663 7.51701C21.7816 7.51701 19.0423 8.08648 16.7485 9.22542C14.4547 10.3454 12.6822 11.9399 11.4311 14.009C10.1988 16.0591 9.58275 18.4888 9.58275 21.2982V21.3267C9.58275 24.1361 10.1988 26.5753 11.4311 28.6444C12.6822 30.7134 14.4547 32.3174 16.7485 33.4564C19.0612 34.5953 21.8005 35.1648 24.9663 35.1648C27.4686 35.1648 29.6866 34.8231 31.6202 34.1397C33.5538 33.4374 35.1652 32.4218 36.4542 31.0931C37.7623 29.7453 38.7006 28.1129 39.2694 26.1956L39.3547 25.9678H48.6815L48.6246 26.2811C48.1128 29.603 46.8048 32.4978 44.7005 34.9655C42.5963 37.4142 39.8475 39.3124 36.4542 40.6602C33.061 41.9889 29.2127 42.6533 24.9095 42.6533Z" fill="white"/>
<path d="M54.6816 41.8705V0.783203H63.8094V29.2852H67.7904L59.3451 33.6701L90.9084 0.783203H99.1831V41.8705H90.0554V13.2546H85.9891L94.4913 8.84121L62.9564 41.8705H54.6816Z" fill="white"/>
<path d="M105.184 41.8705V0.783203H114.567V17.2978H141.382V0.783203H150.766V41.8705H141.382V24.6725H114.567V41.8705H105.184Z" fill="white"/>
<path d="M156.766 41.8705L176.215 0.783203H184.803V8.55648H181.817L166.69 41.8705H156.766ZM166.32 31.8763L169.192 25.3559H194.443L197.315 31.8763H166.32ZM197.144 41.8705L181.988 8.55648V0.783203H187.618L207.068 41.8705H197.144Z" fill="white"/>
<path d="M256.942 41.8705H247.957V8.15785H222.052V41.8705H213.066V0.783203H256.942V41.8705Z" fill="white"/>
<path d="M287.853 42.6533C282.734 42.6533 278.308 41.7896 274.573 40.0622C270.858 38.3159 267.986 35.8482 265.958 32.6591C263.948 29.4701 262.943 25.6926 262.943 21.3267V21.2982C262.943 16.9323 263.948 13.1643 265.958 9.9942C267.986 6.80517 270.858 4.34696 274.573 2.61956C278.308 0.873188 282.734 0 287.853 0C292.175 0 296.023 0.673873 299.398 2.02162C302.791 3.35038 305.54 5.22964 307.644 7.65938C309.767 10.0891 311.075 12.9555 311.568 16.2584L311.596 16.6001H302.27L302.184 16.2584C301.635 14.3981 300.715 12.8226 299.426 11.5318C298.156 10.222 296.554 9.22542 294.62 8.54206C292.687 7.85869 290.45 7.51701 287.91 7.51701C284.725 7.51701 281.986 8.08648 279.692 9.22542C277.398 10.3454 275.626 11.9399 274.374 14.009C273.142 16.0591 272.526 18.4888 272.526 21.2982V21.3267C272.526 24.1361 273.142 26.5753 274.374 28.6444C275.626 30.7134 277.398 32.3174 279.692 33.4564C282.005 34.5953 284.744 35.1648 287.91 35.1648C290.412 35.1648 292.63 34.8231 294.564 34.1397C296.497 33.4374 298.109 32.4218 299.398 31.0931C300.706 29.7453 301.644 28.1129 302.213 26.1956L302.298 25.9678H311.625L311.568 26.2811C311.056 29.603 309.748 32.4978 307.644 34.9655C305.54 37.4142 302.791 39.3124 299.398 40.6602C296.004 41.9889 292.156 42.6533 287.853 42.6533Z" fill="white"/>
</svg>
