<svg width="205" height="32" viewBox="0 0 205 32" fill="none" xmlns="http://www.w3.org/2000/svg">
<g clip-path="url(#clip0_350_2889)">
<path d="M15.7909 11.0759C15.8216 11.415 16.0678 11.6617 16.3755 11.7542L23.3606 13.3884C23.4221 13.3884 23.4837 13.4192 23.5452 13.4192C23.8529 13.4192 24.1298 13.2342 24.2529 12.9259L27.0223 6.29671C27.1454 5.98838 27.0839 5.64921 26.8377 5.43338C26.5915 5.21755 26.2531 5.15588 25.9453 5.31005L24.5606 6.01921L23.0221 2.99755C22.3451 1.67171 20.9912 0.900879 19.5449 0.900879H13.0215C12.3445 0.900879 11.6983 1.11671 11.0829 1.48671C10.5598 1.79505 10.1597 2.19588 9.82125 2.68921L6.0364 8.39338C5.91331 8.57838 5.88254 8.79421 5.91331 8.97921C5.94409 9.19505 6.06717 9.34921 6.2518 9.47255L11.4829 12.8334C11.8521 13.0492 12.3137 12.9567 12.5599 12.6175L16.2524 6.94421L17.6064 9.56505L16.2217 10.2742C15.9139 10.4284 15.7601 10.7367 15.7909 11.0759ZM11.6675 11.1067L7.79036 8.60921L11.1136 3.52171C11.2983 3.21338 11.5444 2.99755 11.8521 2.81255C12.2214 2.59671 12.6214 2.47338 13.0215 2.47338H13.0522C13.6061 2.47338 14.16 2.81255 14.4062 3.30588L15.4524 5.34088L11.6675 11.1067ZM17.0525 5.03255L15.7909 2.56588C15.7601 2.53505 15.7601 2.47338 15.7293 2.44255H19.5449C20.4373 2.44255 21.2374 2.90505 21.6374 3.70671L23.5144 7.43755C23.6067 7.62255 23.7606 7.77671 23.976 7.83838C24.1606 7.90005 24.376 7.90005 24.5606 7.77671L24.7453 7.68421L23.0529 11.7234L18.8064 10.7367L18.9911 10.6442C19.1757 10.5517 19.3295 10.3975 19.3911 10.1817C19.4526 9.99671 19.4526 9.78088 19.3295 9.59588L17.0525 5.03255ZM28.4994 11.8775C28.284 11.8159 28.0686 11.8467 27.9147 11.97L22.5605 15.0534C22.1913 15.2692 22.0682 15.7317 22.2836 16.1325L25.6376 22.0217H22.6836V20.4492C22.6836 20.11 22.4682 19.8325 22.1605 19.7092C21.8528 19.5859 21.5143 19.6784 21.2989 19.925L16.6832 25.4134C16.4371 25.6909 16.4371 26.1225 16.6832 26.4309L21.2989 31.8884C21.4528 32.0734 21.6682 32.1659 21.8836 32.1659C21.9759 32.1659 22.0682 32.135 22.1605 32.1042C22.4682 31.9809 22.6836 31.7034 22.6836 31.3642V29.7917H26.0684C27.5454 29.7917 28.8686 28.9592 29.5148 27.6334L32.4688 21.8675C32.4688 21.8367 32.4996 21.8367 32.4996 21.8059V21.775C32.8073 21.1584 32.9304 20.48 32.8689 19.7709C32.8381 19.185 32.6535 18.5992 32.3765 18.1059L28.9917 12.155C28.8686 12.0625 28.7148 11.9084 28.4994 11.8775ZM28.1301 26.9859C27.7301 27.7875 26.93 28.2809 26.0684 28.2809H21.9143C21.6989 28.2809 21.5143 28.3734 21.3604 28.4967C21.2066 28.6509 21.145 28.8359 21.145 29.0517V29.2675L18.3141 25.9375L21.145 22.6075V22.8234C21.145 23.255 21.4835 23.5942 21.9143 23.5942H29.8533L28.1301 26.9859ZM31.3303 19.9559C31.3611 20.3875 31.2995 20.7884 31.1149 21.1584V21.1892C30.8687 21.6825 30.3149 22.0217 29.761 22.0217H27.4531L24.0375 16.04L28.0378 13.6967L31.0534 18.9692C31.2072 19.2775 31.2995 19.6167 31.3303 19.9559ZM0.774528 22.5767L4.28244 27.9725C4.31321 28.0034 4.31321 28.0342 4.34398 28.065C4.71324 28.62 5.23635 29.0825 5.88254 29.3909C6.40565 29.6375 6.9903 29.7609 7.57496 29.7917L14.9293 29.8534C15.1447 29.8534 15.3293 29.7609 15.4831 29.6375C15.637 29.4834 15.6985 29.2984 15.6985 29.0825V22.7925C15.6985 22.5767 15.6062 22.3917 15.4831 22.2375C15.3293 22.0834 15.1447 22.0217 14.9293 22.0217H7.60573L9.08275 19.4625L10.4367 20.2334C10.7136 20.3875 11.0829 20.3567 11.329 20.1409C11.5752 19.925 11.6675 19.5859 11.5444 19.2775L9.08275 12.525C8.95966 12.155 8.59041 11.97 8.22115 12.0317L1.17455 13.3575C0.866841 13.4192 0.589901 13.6659 0.55913 14.005C0.497587 14.3134 0.651443 14.6525 0.928384 14.8067L2.28232 15.5775L0.589901 18.5067C-0.117836 19.8017 -0.0562938 21.3434 0.774528 22.5767ZM14.16 23.5634V28.25L7.57496 28.2192C7.2057 28.2192 6.89799 28.1575 6.55951 28.0034C6.15948 27.8184 5.85177 27.5409 5.63637 27.2325L5.6056 27.1709C5.29789 26.7084 5.29789 26.0917 5.57483 25.5984L6.71336 23.5942L14.16 23.5634ZM1.9746 19.2775L4.03627 15.67C4.12859 15.485 4.15936 15.2692 4.09781 15.0842C4.03627 14.8684 3.91319 14.7142 3.72856 14.6217L3.5747 14.4984L7.88267 13.6967L9.39046 17.8284L9.20583 17.7359C9.0212 17.6434 8.8058 17.6125 8.62118 17.6742C8.43655 17.7359 8.25192 17.8592 8.15961 18.0442L5.63637 22.4534L4.28244 24.8584C4.25167 24.8892 4.25167 24.9509 4.2209 24.9817L2.12846 21.775C1.57458 20.9734 1.54381 20.0484 1.9746 19.2775Z" fill="black"/>
</g>
<path d="M60 0C64.4063 0 68.4061 1.79687 71.3046 4.69521C74.2027 7.59355 76 11.5938 76 15.9999C76 20.4062 74.2029 24.406 71.3046 27.3046C68.4061 30.2027 64.4063 32 60 32C55.5937 32 51.5939 30.2029 48.6954 27.3046C45.7971 24.406 44 20.4062 44 15.9999C44 11.5938 45.7971 7.59377 48.6954 4.69521C51.5939 1.79687 55.5937 0 60 0Z" fill="black"/>
<path d="M71.3045 4.69523C68.4063 1.79677 64.4062 0 59.9999 0C55.5938 0 51.5937 1.79699 48.6952 4.69523C45.7968 7.59368 44 11.5938 44 15.9999C44 20.4062 45.797 24.4061 48.6952 27.3046C51.5937 30.2032 55.5938 32 59.9999 32C64.4062 32 68.4061 30.2032 71.3045 27.3046C74.2032 24.4063 76 20.4062 76 15.9999C76.0002 11.5938 74.2034 7.59368 71.3045 4.69523Z" fill="black"/>
<path fill-rule="evenodd" clip-rule="evenodd" d="M58.3148 14.1863C55.5626 14.1863 49.3456 17.679 48.3359 21.8817C49.3456 24.818 55.7012 29.8653 58.4533 29.8653V26.929C64.7691 26.929 72.6098 20.6149 72.6098 12.8429C72.6098 5.40162 65.3321 0.986906 59.3782 0.000886668C59.4164 0.000665091 59.4546 0 59.4927 0C64.0387 0 68.1654 1.79699 71.1557 4.69523C74.1463 7.59368 76 11.5938 76 15.9999C76 20.4062 74.1463 24.4061 71.1557 27.3045C68.1656 30.2032 64.0387 32 59.4927 32C54.947 32 50.8201 30.2032 47.8297 27.3045C47.2379 26.7309 46.6916 26.1148 46.1955 25.4615C44.9684 23.6357 44.1442 21.4051 44 18.7346C44 10.9621 51.999 4.64825 58.315 4.64825V1.84641C61.0671 1.84641 67.2642 6.75922 68.2737 9.69557C67.2642 13.8984 61.0671 17.2567 58.315 17.2567L58.3148 14.1863Z" fill="white"/>
<g clip-path="url(#clip1_350_2889)">
<path d="M103 0.111084H102.962C94.2002 0.134001 87.1113 7.23817 87.1113 16C87.1113 24.7618 94.2002 31.8659 102.962 31.8889H103C111.777 31.8889 118.889 24.7771 118.889 16C118.889 7.22289 111.777 0.111084 103 0.111084ZM103.634 9.6215C105.322 9.57567 106.957 9.35414 108.538 8.97219C109.012 10.8437 109.31 13.0055 109.356 15.3736H103.634V9.6215ZM103.634 8.34581V1.48608C105.345 1.9597 107.087 4.24372 108.187 7.74997C106.72 8.10136 105.2 8.29997 103.634 8.34581ZM102.366 1.47081V8.35344C100.785 8.30761 99.2495 8.10136 97.7752 7.74233C98.8905 4.21317 100.64 1.91386 102.366 1.47081ZM102.366 9.6215V15.3659H96.6065C96.6523 12.9979 96.9502 10.8361 97.4238 8.96456C99.0127 9.3465 100.67 9.57567 102.366 9.6215ZM95.3231 15.3659H88.4023C88.5398 12.0965 89.762 9.10206 91.7099 6.734C93.1231 7.51317 94.628 8.15483 96.2016 8.62844C95.6822 10.6528 95.3766 12.9368 95.3231 15.3659ZM95.3231 16.634C95.369 19.0555 95.6745 21.3472 96.194 23.3715C94.6204 23.8528 93.1231 24.4868 91.7023 25.2659C89.7544 22.8979 88.5398 19.9034 88.3947 16.634H95.3231ZM96.6065 16.634H102.366V22.3708C100.67 22.4166 99.0127 22.6458 97.4238 23.0354C96.9502 21.1639 96.6523 19.0021 96.6065 16.634ZM102.366 23.6465V30.5368C100.64 30.0861 98.8905 27.7944 97.7752 24.2653C99.2495 23.8986 100.785 23.6923 102.366 23.6465ZM103.634 30.5139V23.6389C105.2 23.6847 106.72 23.8909 108.195 24.2423C107.087 27.7562 105.353 30.0403 103.634 30.5139ZM103.634 22.3708V16.634H109.356C109.31 18.9944 109.012 21.1562 108.538 23.0278C106.957 22.6458 105.322 22.4166 103.634 22.3708ZM110.631 16.634H117.598C117.461 19.9034 116.238 22.8902 114.29 25.2659C112.862 24.4791 111.35 23.8375 109.761 23.3562C110.28 21.3319 110.586 19.0555 110.631 16.634ZM110.631 15.3659C110.586 12.9444 110.28 10.6604 109.768 8.63608C111.357 8.15483 112.87 7.51317 114.29 6.734C116.238 9.10206 117.461 12.0965 117.598 15.3736H110.631V15.3659ZM113.42 5.75622C112.152 6.42845 110.822 6.98608 109.425 7.40622C108.684 5.01525 107.637 3.06733 106.407 1.784C109.111 2.43331 111.525 3.83886 113.42 5.75622ZM99.5474 1.79928C98.3176 3.07497 97.2787 5.02289 96.5454 7.39858C95.1627 6.97844 93.8412 6.42845 92.5884 5.75622C94.4599 3.8465 96.8586 2.44858 99.5474 1.79928ZM92.5808 26.2361C93.8335 25.5639 95.1627 25.0139 96.5377 24.5937C97.2787 26.9771 98.3176 28.9173 99.5474 30.2007C96.8586 29.5514 94.4599 28.1534 92.5808 26.2361ZM106.407 30.2159C107.645 28.9326 108.684 26.9847 109.432 24.5861C110.83 25.0062 112.159 25.5639 113.427 26.2361C111.533 28.1611 109.111 29.5666 106.407 30.2159Z" fill="black"/>
</g>
<g clip-path="url(#clip2_350_2889)">
<g clip-path="url(#clip3_350_2889)">
<path d="M153.453 27.0859C144.596 28.0491 136.396 22.8092 136.396 16.0014C136.396 9.19367 144.596 3.95377 153.453 4.91698V0.0834099C141.042 -0.859239 130 6.56284 130 16.0014C130 25.44 141.041 32.847 153.455 31.9206L153.453 27.0859Z" fill="black"/>
</g>
<path d="M156.613 13.5961H173.665V18.3938H156.613V13.5961Z" fill="black"/>
<g clip-path="url(#clip4_350_2889)">
<path d="M177.999 4.91309C169.144 3.95019 160.947 9.18842 160.947 15.994C160.947 22.7996 169.144 28.0378 177.999 27.0749V31.907C165.591 32.8493 154.553 25.4296 154.553 15.994C154.553 6.55842 165.59 -0.846184 178 0.0798454L177.999 4.91309Z" fill="black"/>
</g>
</g>
<path d="M195.483 0H196.905L199.578 7.12842L202.244 0H203.666L200.136 9.24219H199.006L195.483 0ZM194.836 0H196.188L196.423 6.16992V9.24219H194.836V0ZM202.961 0H204.319V9.24219H202.726V6.16992L202.961 0Z" fill="black"/>
<path d="M190.456 0V9.24219H188.875V0H190.456ZM193.357 0V1.26953H186V0H193.357Z" fill="black"/>
<defs>
<clipPath id="clip0_350_2889">
<rect width="33" height="32" fill="white"/>
</clipPath>
<clipPath id="clip1_350_2889">
<rect width="32" height="32" fill="white" transform="translate(87)"/>
</clipPath>
<clipPath id="clip2_350_2889">
<rect width="48" height="32" fill="white" transform="translate(130)"/>
</clipPath>
<clipPath id="clip3_350_2889">
<rect width="23.455" height="31.9969" fill="white" transform="translate(130 0.0020752)"/>
</clipPath>
<clipPath id="clip4_350_2889">
<rect width="23.4475" height="31.9867" fill="white" transform="matrix(1 0 0 -1 154.553 31.9883)"/>
</clipPath>
</defs>
</svg>
