<svg width="1603" height="381" viewBox="0 0 1603 381" fill="none" xmlns="http://www.w3.org/2000/svg">
<g clip-path="url(#clip0_447_1909)">
<rect width="1603" height="381" fill="white"/>
<rect x="53.1582" y="-11" width="21.1579" height="21.1579" fill="black"/>
<rect x="74.3164" y="-11" width="21.1579" height="21.1579" fill="black"/>
<rect x="95.4727" y="-11" width="21.1579" height="21.1579" fill="black"/>
<rect x="307.053" y="-11" width="21.1579" height="21.1579" fill="black"/>
<rect x="328.211" y="-11" width="21.1579" height="21.1579" fill="black"/>
<rect x="53.1582" y="10.158" width="21.1579" height="21.1579" fill="black"/>
<rect x="74.3164" y="10.158" width="21.1579" height="21.1579" fill="black"/>
<rect x="95.4727" y="10.158" width="21.1579" height="21.1579" fill="black"/>
<rect x="285.895" y="10.1582" width="21.1579" height="21.1579" fill="black"/>
<rect x="307.053" y="10.158" width="21.1579" height="21.1579" fill="black"/>
<rect x="328.211" y="10.158" width="21.1579" height="21.1579" fill="black"/>
<rect x="53.1582" y="31.3157" width="21.1579" height="21.1579" fill="black"/>
<rect x="74.3164" y="31.3157" width="21.1579" height="21.1579" fill="black"/>
<rect x="95.4727" y="31.3157" width="21.1579" height="21.1579" fill="black"/>
<rect x="285.895" y="31.3157" width="21.1579" height="21.1579" fill="black"/>
<rect x="307.053" y="31.3157" width="21.1579" height="21.1579" fill="black"/>
<rect x="328.211" y="31.3157" width="21.1579" height="21.1579" fill="black"/>
<rect x="53.1582" y="52.4739" width="21.1579" height="21.1579" fill="black"/>
<rect x="74.3164" y="52.4739" width="21.1579" height="21.1579" fill="black"/>
<rect x="285.895" y="52.4739" width="21.1579" height="21.1579" fill="black"/>
<rect x="307.053" y="52.4739" width="21.1579" height="21.1579" fill="black"/>
<rect x="328.211" y="52.4739" width="21.1579" height="21.1579" fill="black"/>
<rect x="53.1582" y="73.6313" width="21.1579" height="21.1579" fill="black"/>
<rect x="74.3164" y="73.6313" width="21.1579" height="21.1579" fill="black"/>
<rect x="285.895" y="73.6313" width="21.1579" height="21.1579" fill="black"/>
<rect x="307.053" y="73.6313" width="21.1579" height="21.1579" fill="black"/>
<rect x="53.1582" y="94.7896" width="21.1579" height="21.1579" fill="black"/>
<rect x="74.3164" y="94.7896" width="21.1579" height="21.1579" fill="black"/>
<rect x="285.895" y="94.7896" width="21.1579" height="21.1579" fill="black"/>
<rect x="307.053" y="94.7896" width="21.1579" height="21.1579" fill="black"/>
<rect x="32" y="115.947" width="21.1579" height="21.1579" fill="black"/>
<rect x="53.1582" y="115.947" width="21.1579" height="21.1579" fill="black"/>
<rect x="74.3164" y="115.947" width="21.1579" height="21.1579" fill="black"/>
<rect x="285.895" y="115.947" width="21.1579" height="21.1579" fill="black"/>
<rect x="307.053" y="115.947" width="21.1579" height="21.1579" fill="black"/>
<rect x="32" y="137.105" width="21.1579" height="21.1579" fill="black"/>
<rect x="53.1582" y="137.105" width="21.1579" height="21.1579" fill="black"/>
<rect x="74.3164" y="137.105" width="21.1579" height="21.1579" fill="black"/>
<rect x="264.736" y="137.105" width="21.1579" height="21.1579" fill="black"/>
<rect x="285.895" y="137.105" width="21.1579" height="21.1579" fill="black"/>
<rect x="307.053" y="137.105" width="21.1579" height="21.1579" fill="black"/>
<rect x="32" y="158.263" width="21.1579" height="21.1579" fill="black"/>
<rect x="53.1582" y="158.263" width="21.1579" height="21.1579" fill="black"/>
<rect x="74.3164" y="158.263" width="21.1579" height="21.1579" fill="black"/>
<rect x="264.736" y="158.263" width="21.1579" height="21.1579" fill="black"/>
<rect x="285.895" y="158.263" width="21.1579" height="21.1579" fill="black"/>
<rect x="307.053" y="158.263" width="21.1579" height="21.1579" fill="black"/>
<rect x="53.1582" y="179.421" width="21.1579" height="21.1579" fill="black"/>
<rect x="74.3164" y="179.421" width="21.1579" height="21.1579" fill="black"/>
<rect x="95.4727" y="179.421" width="21.1579" height="21.1579" fill="black"/>
<rect x="264.736" y="179.421" width="21.1579" height="21.1579" fill="black"/>
<rect x="285.895" y="179.421" width="21.1579" height="21.1579" fill="black"/>
<rect x="307.053" y="179.421" width="21.1579" height="21.1579" fill="black"/>
<rect x="53.1582" y="200.579" width="21.1579" height="21.1579" fill="black"/>
<rect x="74.3164" y="200.579" width="21.1579" height="21.1579" fill="black"/>
<rect x="95.4727" y="200.579" width="21.1579" height="21.1579" fill="black"/>
<rect x="116.633" y="200.579" width="21.1579" height="21.1579" fill="black"/>
<rect x="137.789" y="200.579" width="21.1579" height="21.1579" fill="black"/>
<rect x="158.947" y="200.579" width="21.1579" height="21.1579" fill="black"/>
<rect x="180.105" y="200.579" width="21.1579" height="21.1579" fill="black"/>
<rect x="201.262" y="200.579" width="21.1579" height="21.1579" fill="black"/>
<rect x="222.422" y="200.579" width="21.1579" height="21.1579" fill="black"/>
<rect x="243.58" y="200.579" width="21.1579" height="21.1579" fill="black"/>
<rect x="264.736" y="200.579" width="21.1579" height="21.1579" fill="black"/>
<rect x="285.895" y="200.579" width="21.1579" height="21.1579" fill="black"/>
<rect x="95.4727" y="221.737" width="21.1579" height="21.1579" fill="black"/>
<rect x="116.633" y="221.737" width="21.1579" height="21.1579" fill="black"/>
<rect x="137.789" y="221.737" width="21.1579" height="21.1579" fill="black"/>
<rect x="158.947" y="221.737" width="21.1579" height="21.1579" fill="black"/>
<rect x="180.105" y="221.737" width="21.1579" height="21.1579" fill="black"/>
<rect x="201.262" y="221.737" width="21.1579" height="21.1579" fill="black"/>
<rect x="222.422" y="221.737" width="21.1579" height="21.1579" fill="black"/>
<rect x="243.58" y="221.737" width="21.1579" height="21.1579" fill="black"/>
<rect x="264.736" y="221.737" width="21.1579" height="21.1579" fill="black"/>
<rect x="285.895" y="221.737" width="21.1579" height="21.1579" fill="black"/>
<rect x="243.58" y="242.895" width="21.1579" height="21.1579" fill="black"/>
<rect x="264.736" y="242.895" width="21.1579" height="21.1579" fill="black"/>
<rect x="285.895" y="242.895" width="21.1579" height="21.1579" fill="black"/>
<rect x="243.58" y="264.053" width="21.1579" height="21.1579" fill="black"/>
<rect x="264.736" y="264.053" width="21.1579" height="21.1579" fill="black"/>
<rect x="285.895" y="264.053" width="21.1579" height="21.1579" fill="black"/>
<rect x="243.58" y="285.21" width="21.1579" height="21.1579" fill="black"/>
<rect x="264.736" y="285.21" width="21.1579" height="21.1579" fill="black"/>
<rect x="285.895" y="285.21" width="21.1579" height="21.1579" fill="black"/>
<rect x="243.58" y="306.369" width="21.1579" height="21.1579" fill="black"/>
<rect x="264.736" y="306.369" width="21.1579" height="21.1579" fill="black"/>
<rect x="285.895" y="306.369" width="21.1579" height="21.1579" fill="black"/>
<rect x="243.58" y="327.526" width="21.1579" height="21.1579" fill="black"/>
<rect x="264.736" y="327.526" width="21.1579" height="21.1579" fill="black"/>
<rect x="243.58" y="348.684" width="21.1579" height="21.1579" fill="black"/>
<rect x="264.736" y="348.684" width="21.1579" height="21.1579" fill="black"/>
<rect x="222.422" y="369.842" width="21.1579" height="21.1579" fill="black"/>
<rect x="243.58" y="369.842" width="21.1579" height="21.1579" fill="black"/>
<rect x="264.736" y="369.842" width="21.1579" height="21.1579" fill="black"/>
<rect x="412.844" y="-11" width="21.1579" height="21.1579" fill="black"/>
<rect x="434" y="-11" width="21.1579" height="21.1579" fill="black"/>
<rect x="645.58" y="-11" width="21.1579" height="21.1579" fill="black"/>
<rect x="666.738" y="-11" width="21.1579" height="21.1579" fill="black"/>
<rect x="687.896" y="-11" width="21.1579" height="21.1579" fill="black"/>
<rect x="412.844" y="10.158" width="21.1579" height="21.1579" fill="black"/>
<rect x="434" y="10.158" width="21.1579" height="21.1579" fill="black"/>
<rect x="624.422" y="10.158" width="21.1579" height="21.1579" fill="black"/>
<rect x="645.58" y="10.158" width="21.1579" height="21.1579" fill="black"/>
<rect x="666.738" y="10.158" width="21.1579" height="21.1579" fill="black"/>
<rect x="687.896" y="10.158" width="21.1579" height="21.1579" fill="black"/>
<rect x="391.686" y="31.3157" width="21.1579" height="21.1579" fill="black"/>
<rect x="412.844" y="31.3157" width="21.1579" height="21.1579" fill="black"/>
<rect x="434" y="31.3157" width="21.1579" height="21.1579" fill="black"/>
<rect x="603.264" y="31.3157" width="21.1579" height="21.1579" fill="black"/>
<rect x="624.422" y="31.3157" width="21.1579" height="21.1579" fill="black"/>
<rect x="645.58" y="31.3157" width="21.1579" height="21.1579" fill="black"/>
<rect x="666.738" y="31.3157" width="21.1579" height="21.1579" fill="black"/>
<rect x="391.686" y="52.4739" width="21.1579" height="21.1579" fill="black"/>
<rect x="412.844" y="52.4739" width="21.1579" height="21.1579" fill="black"/>
<rect x="434" y="52.4739" width="21.1579" height="21.1579" fill="black"/>
<rect x="603.264" y="52.4739" width="21.1579" height="21.1579" fill="black"/>
<rect x="624.422" y="52.4739" width="21.1579" height="21.1579" fill="black"/>
<rect x="645.58" y="52.4739" width="21.1579" height="21.1579" fill="black"/>
<rect x="666.738" y="52.4739" width="21.1579" height="21.1579" fill="black"/>
<rect x="391.686" y="73.6313" width="21.1579" height="21.1579" fill="black"/>
<rect x="412.844" y="73.6313" width="21.1579" height="21.1579" fill="black"/>
<rect x="434" y="73.6313" width="21.1579" height="21.1579" fill="black"/>
<rect x="582.105" y="73.6313" width="21.1579" height="21.1579" fill="black"/>
<rect x="603.264" y="73.6313" width="21.1579" height="21.1579" fill="black"/>
<rect x="624.422" y="73.6313" width="21.1579" height="21.1579" fill="black"/>
<rect x="645.58" y="73.6313" width="21.1579" height="21.1579" fill="black"/>
<rect x="666.738" y="73.6313" width="21.1579" height="21.1579" fill="black"/>
<rect x="391.686" y="94.7896" width="21.1579" height="21.1579" fill="black"/>
<rect x="412.844" y="94.7896" width="21.1579" height="21.1579" fill="black"/>
<rect x="560.947" y="94.7896" width="21.1579" height="21.1579" fill="black"/>
<rect x="582.105" y="94.7896" width="21.1579" height="21.1579" fill="black"/>
<rect x="603.264" y="94.7896" width="21.1579" height="21.1579" fill="black"/>
<rect x="624.422" y="94.7896" width="21.1579" height="21.1579" fill="black"/>
<rect x="645.58" y="94.7896" width="21.1579" height="21.1579" fill="black"/>
<rect x="666.738" y="94.7896" width="21.1579" height="21.1579" fill="black"/>
<rect x="391.686" y="115.947" width="21.1579" height="21.1579" fill="black"/>
<rect x="412.844" y="115.947" width="21.1579" height="21.1579" fill="black"/>
<rect x="539.791" y="115.947" width="21.1579" height="21.1579" fill="black"/>
<rect x="560.947" y="115.947" width="21.1579" height="21.1579" fill="black"/>
<rect x="582.105" y="115.947" width="21.1579" height="21.1579" fill="black"/>
<rect x="624.422" y="115.947" width="21.1579" height="21.1579" fill="black"/>
<rect x="645.58" y="115.947" width="21.1579" height="21.1579" fill="black"/>
<rect x="666.738" y="115.947" width="21.1579" height="21.1579" fill="black"/>
<rect x="370.527" y="137.105" width="21.1579" height="21.1579" fill="black"/>
<rect x="391.686" y="137.105" width="21.1579" height="21.1579" fill="black"/>
<rect x="412.844" y="137.105" width="21.1579" height="21.1579" fill="black"/>
<rect x="518.633" y="137.105" width="21.1579" height="21.1579" fill="black"/>
<rect x="539.791" y="137.105" width="21.1579" height="21.1579" fill="black"/>
<rect x="560.947" y="137.105" width="21.1579" height="21.1579" fill="black"/>
<rect x="624.422" y="137.105" width="21.1579" height="21.1579" fill="black"/>
<rect x="645.58" y="137.105" width="21.1579" height="21.1579" fill="black"/>
<rect x="370.527" y="158.263" width="21.1579" height="21.1579" fill="black"/>
<rect x="391.686" y="158.263" width="21.1579" height="21.1579" fill="black"/>
<rect x="412.844" y="158.263" width="21.1579" height="21.1579" fill="black"/>
<rect x="518.633" y="158.263" width="21.1579" height="21.1579" fill="black"/>
<rect x="539.791" y="158.263" width="21.1579" height="21.1579" fill="black"/>
<rect x="560.947" y="158.263" width="21.1579" height="21.1579" fill="black"/>
<rect x="624.422" y="158.263" width="21.1579" height="21.1579" fill="black"/>
<rect x="645.58" y="158.263" width="21.1579" height="21.1579" fill="black"/>
<rect x="370.527" y="179.421" width="21.1579" height="21.1579" fill="black"/>
<rect x="391.686" y="179.421" width="21.1579" height="21.1579" fill="black"/>
<rect x="412.844" y="179.421" width="21.1579" height="21.1579" fill="black"/>
<rect x="497.475" y="179.421" width="21.1579" height="21.1579" fill="black"/>
<rect x="518.633" y="179.421" width="21.1579" height="21.1579" fill="black"/>
<rect x="539.791" y="179.421" width="21.1579" height="21.1579" fill="black"/>
<rect x="624.422" y="179.421" width="21.1579" height="21.1579" fill="black"/>
<rect x="645.58" y="179.421" width="21.1579" height="21.1579" fill="black"/>
<rect x="370.527" y="200.579" width="21.1579" height="21.1579" fill="black"/>
<rect x="391.686" y="200.579" width="21.1579" height="21.1579" fill="black"/>
<rect x="476.316" y="200.579" width="21.1579" height="21.1579" fill="black"/>
<rect x="497.475" y="200.579" width="21.1579" height="21.1579" fill="black"/>
<rect x="518.633" y="200.579" width="21.1579" height="21.1579" fill="black"/>
<rect x="603.264" y="200.579" width="21.1579" height="21.1579" fill="black"/>
<rect x="624.422" y="200.579" width="21.1579" height="21.1579" fill="black"/>
<rect x="645.58" y="200.579" width="21.1579" height="21.1579" fill="black"/>
<rect x="370.527" y="221.737" width="21.1579" height="21.1579" fill="black"/>
<rect x="391.686" y="221.737" width="21.1579" height="21.1579" fill="black"/>
<rect x="455.158" y="221.737" width="21.1579" height="21.1579" fill="black"/>
<rect x="476.316" y="221.737" width="21.1579" height="21.1579" fill="black"/>
<rect x="497.475" y="221.737" width="21.1579" height="21.1579" fill="black"/>
<rect x="603.264" y="221.737" width="21.1579" height="21.1579" fill="black"/>
<rect x="624.422" y="221.737" width="21.1579" height="21.1579" fill="black"/>
<rect x="645.58" y="221.737" width="21.1579" height="21.1579" fill="black"/>
<rect x="370.527" y="242.895" width="21.1579" height="21.1579" fill="black"/>
<rect x="391.686" y="242.895" width="21.1579" height="21.1579" fill="black"/>
<rect x="434" y="242.895" width="21.1579" height="21.1579" fill="black"/>
<rect x="455.158" y="242.895" width="21.1579" height="21.1579" fill="black"/>
<rect x="476.316" y="242.895" width="21.1579" height="21.1579" fill="black"/>
<rect x="497.475" y="242.895" width="21.1579" height="21.1579" fill="black"/>
<rect x="603.264" y="242.895" width="21.1579" height="21.1579" fill="black"/>
<rect x="624.422" y="242.895" width="21.1579" height="21.1579" fill="black"/>
<rect x="645.58" y="242.895" width="21.1579" height="21.1579" fill="black"/>
<rect x="349.369" y="264.052" width="21.1579" height="21.1579" fill="black"/>
<rect x="370.527" y="264.052" width="21.1579" height="21.1579" fill="black"/>
<rect x="391.686" y="264.052" width="21.1579" height="21.1579" fill="black"/>
<rect x="434" y="264.052" width="21.1579" height="21.1579" fill="black"/>
<rect x="455.158" y="264.052" width="21.1579" height="21.1579" fill="black"/>
<rect x="476.316" y="264.052" width="21.1579" height="21.1579" fill="black"/>
<rect x="603.264" y="264.052" width="21.1579" height="21.1579" fill="black"/>
<rect x="624.422" y="264.052" width="21.1579" height="21.1579" fill="black"/>
<rect x="349.369" y="285.21" width="21.1579" height="21.1579" fill="black"/>
<rect x="370.527" y="285.21" width="21.1579" height="21.1579" fill="black"/>
<rect x="391.686" y="285.21" width="21.1579" height="21.1579" fill="black"/>
<rect x="412.844" y="285.21" width="21.1579" height="21.1579" fill="black"/>
<rect x="434" y="285.21" width="21.1579" height="21.1579" fill="black"/>
<rect x="455.158" y="285.21" width="21.1579" height="21.1579" fill="black"/>
<rect x="603.264" y="285.21" width="21.1579" height="21.1579" fill="black"/>
<rect x="624.422" y="285.21" width="21.1579" height="21.1579" fill="black"/>
<rect x="349.369" y="306.369" width="21.1579" height="21.1579" fill="black"/>
<rect x="370.527" y="306.369" width="21.1579" height="21.1579" fill="black"/>
<rect x="391.686" y="306.369" width="21.1579" height="21.1579" fill="black"/>
<rect x="412.844" y="306.369" width="21.1579" height="21.1579" fill="black"/>
<rect x="434" y="306.369" width="21.1579" height="21.1579" fill="black"/>
<rect x="603.264" y="306.369" width="21.1579" height="21.1579" fill="black"/>
<rect x="624.422" y="306.369" width="21.1579" height="21.1579" fill="black"/>
<rect x="349.369" y="327.526" width="21.1579" height="21.1579" fill="black"/>
<rect x="370.527" y="327.526" width="21.1579" height="21.1579" fill="black"/>
<rect x="391.686" y="327.526" width="21.1579" height="21.1579" fill="black"/>
<rect x="412.844" y="327.526" width="21.1579" height="21.1579" fill="black"/>
<rect x="582.105" y="327.526" width="21.1579" height="21.1579" fill="black"/>
<rect x="603.264" y="327.526" width="21.1579" height="21.1579" fill="black"/>
<rect x="624.422" y="327.526" width="21.1579" height="21.1579" fill="black"/>
<rect x="349.369" y="348.684" width="21.1579" height="21.1579" fill="black"/>
<rect x="370.527" y="348.684" width="21.1579" height="21.1579" fill="black"/>
<rect x="391.686" y="348.684" width="21.1579" height="21.1579" fill="black"/>
<rect x="412.844" y="348.684" width="21.1579" height="21.1579" fill="black"/>
<rect x="582.105" y="348.684" width="21.1579" height="21.1579" fill="black"/>
<rect x="603.264" y="348.684" width="21.1579" height="21.1579" fill="black"/>
<rect x="624.422" y="348.684" width="21.1579" height="21.1579" fill="black"/>
<rect x="349.369" y="369.842" width="21.1579" height="21.1579" fill="black"/>
<rect x="370.527" y="369.842" width="21.1579" height="21.1579" fill="black"/>
<rect x="391.686" y="369.842" width="21.1579" height="21.1579" fill="black"/>
<rect x="582.105" y="369.842" width="21.1579" height="21.1579" fill="black"/>
<rect x="603.264" y="369.842" width="21.1579" height="21.1579" fill="black"/>
<rect x="624.422" y="369.842" width="21.1579" height="21.1579" fill="black"/>
<rect x="772.527" y="-11" width="21.1579" height="21.1579" fill="black"/>
<rect x="793.686" y="-11" width="21.1579" height="21.1579" fill="black"/>
<rect x="814.844" y="-11" width="21.1579" height="21.1579" fill="black"/>
<rect x="836" y="-11" width="21.1579" height="21.1579" fill="black"/>
<rect x="857.158" y="-11" width="21.1579" height="21.1579" fill="black"/>
<rect x="878.316" y="-11" width="21.1579" height="21.1579" fill="black"/>
<rect x="899.475" y="-11" width="21.1579" height="21.1579" fill="black"/>
<rect x="920.633" y="-11" width="21.1579" height="21.1579" fill="black"/>
<rect x="941.789" y="-11" width="21.1579" height="21.1579" fill="black"/>
<rect x="962.947" y="-11" width="21.1579" height="21.1579" fill="black"/>
<rect x="984.105" y="-11" width="21.1579" height="21.1579" fill="black"/>
<rect x="1005.26" y="-11" width="21.1579" height="21.1579" fill="black"/>
<rect x="1026.42" y="-11" width="21.1579" height="21.1579" fill="black"/>
<rect x="1047.58" y="-11" width="21.1579" height="21.1579" fill="black"/>
<rect x="772.527" y="10.1582" width="21.1579" height="21.1579" fill="black"/>
<rect x="793.686" y="10.158" width="21.1579" height="21.1579" fill="black"/>
<rect x="814.844" y="10.158" width="21.1579" height="21.1579" fill="black"/>
<rect x="836" y="10.158" width="21.1579" height="21.1579" fill="black"/>
<rect x="857.158" y="10.158" width="21.1579" height="21.1579" fill="black"/>
<rect x="878.316" y="10.158" width="21.1579" height="21.1579" fill="black"/>
<rect x="899.475" y="10.158" width="21.1579" height="21.1579" fill="black"/>
<rect x="920.633" y="10.158" width="21.1579" height="21.1579" fill="black"/>
<rect x="941.789" y="10.158" width="21.1579" height="21.1579" fill="black"/>
<rect x="962.947" y="10.158" width="21.1579" height="21.1579" fill="black"/>
<rect x="984.105" y="10.158" width="21.1579" height="21.1579" fill="black"/>
<rect x="1005.26" y="10.158" width="21.1579" height="21.1579" fill="black"/>
<rect x="1026.42" y="10.158" width="21.1579" height="21.1579" fill="black"/>
<rect x="1047.58" y="10.158" width="21.1579" height="21.1579" fill="black"/>
<rect x="751.369" y="31.3157" width="21.1579" height="21.1579" fill="black"/>
<rect x="772.527" y="31.3157" width="21.1579" height="21.1579" fill="black"/>
<rect x="793.686" y="31.3157" width="21.1579" height="21.1579" fill="black"/>
<rect x="814.844" y="31.3157" width="21.1579" height="21.1579" fill="black"/>
<rect x="836" y="31.3157" width="21.1579" height="21.1579" fill="black"/>
<rect x="857.158" y="31.3157" width="21.1579" height="21.1579" fill="black"/>
<rect x="878.316" y="31.3157" width="21.1579" height="21.1579" fill="black"/>
<rect x="899.475" y="31.3157" width="21.1579" height="21.1579" fill="black"/>
<rect x="920.633" y="31.3157" width="21.1579" height="21.1579" fill="black"/>
<rect x="941.789" y="31.3157" width="21.1579" height="21.1579" fill="black"/>
<rect x="962.947" y="31.3157" width="21.1579" height="21.1579" fill="black"/>
<rect x="984.105" y="31.3157" width="21.1579" height="21.1579" fill="black"/>
<rect x="1005.26" y="31.3157" width="21.1579" height="21.1579" fill="black"/>
<rect x="1026.42" y="31.3157" width="21.1579" height="21.1579" fill="black"/>
<rect x="751.369" y="52.4739" width="21.1579" height="21.1579" fill="black"/>
<rect x="772.527" y="52.4739" width="21.1579" height="21.1579" fill="black"/>
<rect x="793.686" y="52.4739" width="21.1579" height="21.1579" fill="black"/>
<rect x="1005.26" y="52.4739" width="21.1579" height="21.1579" fill="black"/>
<rect x="1026.42" y="52.4739" width="21.1579" height="21.1579" fill="black"/>
<rect x="751.369" y="73.6313" width="21.1579" height="21.1579" fill="black"/>
<rect x="772.527" y="73.6313" width="21.1579" height="21.1579" fill="black"/>
<rect x="793.686" y="73.6313" width="21.1579" height="21.1579" fill="black"/>
<rect x="984.105" y="73.6313" width="21.1579" height="21.1579" fill="black"/>
<rect x="1005.26" y="73.6313" width="21.1579" height="21.1579" fill="black"/>
<rect x="1026.42" y="73.6313" width="21.1579" height="21.1579" fill="black"/>
<rect x="751.369" y="94.7896" width="21.1579" height="21.1579" fill="black"/>
<rect x="772.527" y="94.7896" width="21.1579" height="21.1579" fill="black"/>
<rect x="984.105" y="94.7896" width="21.1579" height="21.1579" fill="black"/>
<rect x="1005.26" y="94.7896" width="21.1579" height="21.1579" fill="black"/>
<rect x="1026.42" y="94.7896" width="21.1579" height="21.1579" fill="black"/>
<rect x="751.369" y="115.947" width="21.1579" height="21.1579" fill="black"/>
<rect x="772.527" y="115.947" width="21.1579" height="21.1579" fill="black"/>
<rect x="984.105" y="115.947" width="21.1579" height="21.1579" fill="black"/>
<rect x="1005.26" y="115.947" width="21.1579" height="21.1579" fill="black"/>
<rect x="1026.42" y="115.947" width="21.1579" height="21.1579" fill="black"/>
<rect x="730.211" y="137.105" width="21.1579" height="21.1579" fill="black"/>
<rect x="751.369" y="137.105" width="21.1579" height="21.1579" fill="black"/>
<rect x="772.527" y="137.105" width="21.1579" height="21.1579" fill="black"/>
<rect x="984.105" y="137.105" width="21.1579" height="21.1579" fill="black"/>
<rect x="1005.26" y="137.105" width="21.1579" height="21.1579" fill="black"/>
<rect x="1026.42" y="137.105" width="21.1579" height="21.1579" fill="black"/>
<rect x="730.211" y="158.263" width="21.1579" height="21.1579" fill="black"/>
<rect x="751.369" y="158.263" width="21.1579" height="21.1579" fill="black"/>
<rect x="772.527" y="158.263" width="21.1579" height="21.1579" fill="black"/>
<rect x="984.105" y="158.263" width="21.1579" height="21.1579" fill="black"/>
<rect x="1005.26" y="158.263" width="21.1579" height="21.1579" fill="black"/>
<rect x="730.211" y="179.421" width="21.1579" height="21.1579" fill="black"/>
<rect x="751.369" y="179.421" width="21.1579" height="21.1579" fill="black"/>
<rect x="772.527" y="179.421" width="21.1579" height="21.1579" fill="black"/>
<rect x="984.105" y="179.421" width="21.1579" height="21.1579" fill="black"/>
<rect x="1005.26" y="179.421" width="21.1579" height="21.1579" fill="black"/>
<rect x="730.211" y="200.579" width="21.1579" height="21.1579" fill="black"/>
<rect x="751.369" y="200.579" width="21.1579" height="21.1579" fill="black"/>
<rect x="772.527" y="200.579" width="21.1579" height="21.1579" fill="black"/>
<rect x="962.947" y="200.579" width="21.1579" height="21.1579" fill="black"/>
<rect x="984.105" y="200.579" width="21.1579" height="21.1579" fill="black"/>
<rect x="1005.26" y="200.579" width="21.1579" height="21.1579" fill="black"/>
<rect x="730.211" y="221.737" width="21.1579" height="21.1579" fill="black"/>
<rect x="751.369" y="221.737" width="21.1579" height="21.1579" fill="black"/>
<rect x="962.947" y="221.737" width="21.1579" height="21.1579" fill="black"/>
<rect x="984.105" y="221.737" width="21.1579" height="21.1579" fill="black"/>
<rect x="1005.26" y="221.737" width="21.1579" height="21.1579" fill="black"/>
<rect x="730.211" y="242.895" width="21.1579" height="21.1579" fill="black"/>
<rect x="751.369" y="242.895" width="21.1579" height="21.1579" fill="black"/>
<rect x="962.947" y="242.895" width="21.1579" height="21.1579" fill="black"/>
<rect x="984.105" y="242.895" width="21.1579" height="21.1579" fill="black"/>
<rect x="1005.26" y="242.895" width="21.1579" height="21.1579" fill="black"/>
<rect x="709.053" y="264.052" width="21.1579" height="21.1579" fill="black"/>
<rect x="730.211" y="264.052" width="21.1579" height="21.1579" fill="black"/>
<rect x="751.369" y="264.053" width="21.1579" height="21.1579" fill="black"/>
<rect x="962.947" y="264.052" width="21.1579" height="21.1579" fill="black"/>
<rect x="984.105" y="264.052" width="21.1579" height="21.1579" fill="black"/>
<rect x="709.053" y="285.21" width="21.1579" height="21.1579" fill="black"/>
<rect x="730.211" y="285.21" width="21.1579" height="21.1579" fill="black"/>
<rect x="751.369" y="285.21" width="21.1579" height="21.1579" fill="black"/>
<rect x="962.947" y="285.21" width="21.1579" height="21.1579" fill="black"/>
<rect x="984.105" y="285.21" width="21.1579" height="21.1579" fill="black"/>
<rect x="709.053" y="306.369" width="21.1579" height="21.1579" fill="black"/>
<rect x="730.211" y="306.369" width="21.1579" height="21.1579" fill="black"/>
<rect x="751.369" y="306.369" width="21.1579" height="21.1579" fill="black"/>
<rect x="962.947" y="306.369" width="21.1579" height="21.1579" fill="black"/>
<rect x="984.105" y="306.369" width="21.1579" height="21.1579" fill="black"/>
<rect x="709.053" y="327.526" width="21.1579" height="21.1579" fill="black"/>
<rect x="730.211" y="327.526" width="21.1579" height="21.1579" fill="black"/>
<rect x="941.789" y="327.526" width="21.1579" height="21.1579" fill="black"/>
<rect x="962.947" y="327.526" width="21.1579" height="21.1579" fill="black"/>
<rect x="984.105" y="327.526" width="21.1579" height="21.1579" fill="black"/>
<rect x="709.053" y="348.684" width="21.1579" height="21.1579" fill="black"/>
<rect x="730.211" y="348.684" width="21.1579" height="21.1579" fill="black"/>
<rect x="941.789" y="348.684" width="21.1579" height="21.1579" fill="black"/>
<rect x="962.947" y="348.684" width="21.1579" height="21.1579" fill="black"/>
<rect x="984.105" y="348.684" width="21.1579" height="21.1579" fill="black"/>
<rect x="709.053" y="369.842" width="21.1579" height="21.1579" fill="black"/>
<rect x="730.211" y="369.842" width="21.1579" height="21.1579" fill="black"/>
<rect x="941.789" y="369.842" width="21.1579" height="21.1579" fill="black"/>
<rect x="962.947" y="369.842" width="21.1579" height="21.1579" fill="black"/>
<rect x="984.105" y="369.842" width="21.1579" height="21.1579" fill="black"/>
<circle cx="1195" cy="156" r="46.5" fill="white" stroke="black" stroke-width="5"/>
<path fill-rule="evenodd" clip-rule="evenodd" d="M1195 127L1190.84 131.04L1212.9 153.1H1166V158.9H1212.9L1190.9 180.899L1195 185L1224 156L1195 127Z" fill="black"/>
<rect x="1065.5" y="104.5" width="103" height="103" rx="51.5" stroke="white" stroke-width="5"/>
<circle cx="1117" cy="156" r="46.5" fill="white" stroke="black" stroke-width="5"/>
<path fill-rule="evenodd" clip-rule="evenodd" d="M1117 127L1112.84 131.04L1134.9 153.1H1088V158.9H1134.9L1112.9 180.899L1117 185L1146 156L1117 127Z" fill="black"/>
<path d="M1132.51 295.434V309.145H1087.98V295.434H1132.51ZM1093.2 260.688V346H1075.62V260.688H1093.2ZM1145.05 260.688V346H1127.53V260.688H1145.05ZM1199.61 341.664L1198.91 346H1150.63L1151.27 341.664H1199.61ZM1167.5 260.688L1152.74 346H1148.05L1162.76 260.688H1167.5ZM1201.08 299.887L1200.43 304.281H1157.89L1158.6 299.887H1201.08ZM1213.56 260.688L1212.85 265.023H1164.69L1165.33 260.688H1213.56ZM1224.41 318.344L1258.68 260.688H1276.26V346H1258.68V288.344L1224.41 346H1206.83V260.688H1224.41V318.344ZM1250.07 238.305H1262.08C1262.08 241.664 1261.24 244.652 1259.56 247.27C1257.92 249.848 1255.58 251.879 1252.53 253.363C1249.48 254.809 1245.89 255.531 1241.75 255.531C1235.46 255.531 1230.48 253.93 1226.81 250.727C1223.18 247.523 1221.36 243.383 1221.36 238.305H1233.31C1233.31 240.336 1233.94 242.152 1235.19 243.754C1236.48 245.355 1238.66 246.156 1241.75 246.156C1244.8 246.156 1246.94 245.355 1248.19 243.754C1249.44 242.152 1250.07 240.336 1250.07 238.305ZM1315.12 315.59H1293.38V301.879H1315.12C1318.48 301.879 1321.21 301.332 1323.32 300.238C1325.43 299.105 1326.97 297.543 1327.95 295.551C1328.93 293.559 1329.41 291.312 1329.41 288.812C1329.41 286.273 1328.93 283.91 1327.95 281.723C1326.97 279.535 1325.43 277.777 1323.32 276.449C1321.21 275.121 1318.48 274.457 1315.12 274.457H1299.47V346H1281.9V260.688H1315.12C1321.8 260.688 1327.52 261.898 1332.29 264.32C1337.09 266.703 1340.76 270.004 1343.3 274.223C1345.84 278.441 1347.11 283.266 1347.11 288.695C1347.11 294.203 1345.84 298.969 1343.3 302.992C1340.76 307.016 1337.09 310.121 1332.29 312.309C1327.52 314.496 1321.8 315.59 1315.12 315.59ZM1419.72 301.352V305.395C1419.72 311.879 1418.84 317.699 1417.08 322.855C1415.32 328.012 1412.84 332.406 1409.64 336.039C1406.44 339.633 1402.61 342.387 1398.15 344.301C1393.74 346.215 1388.84 347.172 1383.45 347.172C1378.1 347.172 1373.19 346.215 1368.74 344.301C1364.33 342.387 1360.5 339.633 1357.26 336.039C1354.01 332.406 1351.49 328.012 1349.7 322.855C1347.94 317.699 1347.06 311.879 1347.06 305.395V301.352C1347.06 294.828 1347.94 289.008 1349.7 283.891C1351.46 278.734 1353.94 274.34 1357.14 270.707C1360.38 267.074 1364.21 264.301 1368.62 262.387C1373.08 260.473 1377.98 259.516 1383.33 259.516C1388.72 259.516 1393.62 260.473 1398.04 262.387C1402.49 264.301 1406.32 267.074 1409.52 270.707C1412.76 274.34 1415.26 278.734 1417.02 283.891C1418.82 289.008 1419.72 294.828 1419.72 301.352ZM1401.96 305.395V301.234C1401.96 296.703 1401.55 292.719 1400.73 289.281C1399.91 285.844 1398.7 282.953 1397.1 280.609C1395.5 278.266 1393.55 276.508 1391.24 275.336C1388.94 274.125 1386.3 273.52 1383.33 273.52C1380.36 273.52 1377.73 274.125 1375.42 275.336C1373.15 276.508 1371.22 278.266 1369.62 280.609C1368.06 282.953 1366.87 285.844 1366.05 289.281C1365.23 292.719 1364.81 296.703 1364.81 301.234V305.395C1364.81 309.887 1365.23 313.871 1366.05 317.348C1366.87 320.785 1368.08 323.695 1369.68 326.078C1371.28 328.422 1373.23 330.199 1375.54 331.41C1377.84 332.621 1380.48 333.227 1383.45 333.227C1386.42 333.227 1389.05 332.621 1391.36 331.41C1393.66 330.199 1395.6 328.422 1397.16 326.078C1398.72 323.695 1399.91 320.785 1400.73 317.348C1401.55 313.871 1401.96 309.887 1401.96 305.395Z" fill="black"/>
<path d="M1505.22 332.816V346H1446.86V334.75L1474.46 305.16C1477.23 302.074 1479.42 299.359 1481.02 297.016C1482.62 294.633 1483.77 292.504 1484.48 290.629C1485.22 288.715 1485.59 286.898 1485.59 285.18C1485.59 282.602 1485.16 280.395 1484.3 278.559C1483.44 276.684 1482.17 275.238 1480.49 274.223C1478.85 273.207 1476.82 272.699 1474.4 272.699C1471.82 272.699 1469.59 273.324 1467.72 274.574C1465.88 275.824 1464.48 277.562 1463.5 279.789C1462.56 282.016 1462.09 284.535 1462.09 287.348H1445.16C1445.16 282.27 1446.37 277.621 1448.79 273.402C1451.21 269.145 1454.63 265.766 1459.05 263.266C1463.46 260.727 1468.7 259.457 1474.75 259.457C1480.73 259.457 1485.77 260.434 1489.87 262.387C1494.01 264.301 1497.13 267.074 1499.24 270.707C1501.39 274.301 1502.46 278.598 1502.46 283.598C1502.46 286.41 1502.02 289.164 1501.12 291.859C1500.22 294.516 1498.93 297.172 1497.25 299.828C1495.61 302.445 1493.62 305.102 1491.27 307.797C1488.93 310.492 1486.33 313.285 1483.48 316.176L1468.66 332.816H1505.22ZM1523.24 307.152L1509.77 303.93L1514.63 260.688H1562.56V274.34H1528.52L1526.41 293.266C1527.54 292.602 1529.26 291.898 1531.56 291.156C1533.87 290.375 1536.45 289.984 1539.3 289.984C1543.44 289.984 1547.11 290.629 1550.31 291.918C1553.52 293.207 1556.23 295.082 1558.46 297.543C1560.72 300.004 1562.44 303.012 1563.62 306.566C1564.79 310.121 1565.37 314.145 1565.37 318.637C1565.37 322.426 1564.79 326.039 1563.62 329.477C1562.44 332.875 1560.67 335.922 1558.28 338.617C1555.9 341.273 1552.91 343.363 1549.32 344.887C1545.72 346.41 1541.47 347.172 1536.55 347.172C1532.87 347.172 1529.32 346.625 1525.88 345.531C1522.48 344.438 1519.42 342.816 1516.68 340.668C1513.99 338.52 1511.82 335.922 1510.18 332.875C1508.58 329.789 1507.74 326.273 1507.66 322.328H1524.42C1524.65 324.75 1525.28 326.84 1526.29 328.598C1527.35 330.316 1528.73 331.645 1530.45 332.582C1532.17 333.52 1534.18 333.988 1536.49 333.988C1538.64 333.988 1540.47 333.578 1541.99 332.758C1543.52 331.938 1544.75 330.805 1545.69 329.359C1546.62 327.875 1547.31 326.156 1547.74 324.203C1548.21 322.211 1548.44 320.062 1548.44 317.758C1548.44 315.453 1548.17 313.363 1547.62 311.488C1547.07 309.613 1546.23 307.992 1545.1 306.625C1543.97 305.258 1542.52 304.203 1540.76 303.461C1539.05 302.719 1537.03 302.348 1534.73 302.348C1531.6 302.348 1529.18 302.836 1527.46 303.812C1525.78 304.789 1524.38 305.902 1523.24 307.152Z" fill="black"/>
</g>
<defs>
<clipPath id="clip0_447_1909">
<rect width="1603" height="381" fill="white"/>
</clipPath>
</defs>
</svg>
