<svg width="120" height="49" viewBox="0 0 120 49" fill="none" xmlns="http://www.w3.org/2000/svg">
<path d="M5.91276 13.2154H3.51496V23.4061H0V0.218262H3.51496V9.50974H5.91276V0.218262H9.42772V23.4333H5.91276V13.2154Z" fill="white"/>
<path d="M15.4766 23.6784H14.7954C11.9889 23.6784 10.4902 22.1525 10.4902 19.2915V14.6322H13.9779V18.6921C13.9779 19.7547 14.3322 20.3269 15.1223 20.3269C15.967 20.3269 16.2668 19.7547 16.2668 18.3379V17.8202C16.2668 16.158 16.1033 15.5858 14.8226 13.9237L12.6156 11.0082C11.1169 9.07362 10.681 7.575 10.681 5.25894V4.52325C10.681 1.44425 12.2341 0.00012207 15.0134 0.00012207H15.6673C18.5556 0.00012207 19.7 1.28077 19.7 4.03279V7.84747H16.294V4.496C16.294 3.70582 16.1305 3.13361 15.2858 3.13361C14.4412 3.13361 14.2504 3.65132 14.2504 4.76848V5.20444C14.2504 6.51233 14.4957 7.22078 15.6946 8.7739L17.9289 11.6622C19.5092 13.733 20.0269 14.9046 20.0269 17.5204V18.2561C20.0269 21.6621 18.5556 23.6784 15.4766 23.6784Z" fill="white"/>
<path d="M29.044 0.218262V3.59698H24.5482V9.67323H28.0631V13.1882H24.5482V19.8911H29.2348V23.4061H21.0332V0.218262H29.044Z" fill="white"/>
<path d="M38.7477 19.0461H36.1865L35.7232 23.4058H32.5625L35.3963 0.190674H39.5652L42.5897 23.4058H39.1837L38.7477 19.0461ZM38.3663 15.5857L37.4398 7.00261L36.5407 15.5857H38.3663Z" fill="white"/>
<path d="M46.7025 23.4333H43.1875V0.218262H48.9095C51.2528 0.218262 52.4245 1.22643 52.4245 3.81496V7.92937C52.4245 9.86397 51.5253 10.5997 50.8986 10.8994C51.6888 11.2536 52.4245 11.8803 52.4245 13.4334V21.5805C52.4245 22.5069 52.6152 22.9429 52.7787 23.2971V23.4606H49.291C49.1275 23.2154 48.9368 22.8066 48.9368 21.5532V14.5233C48.9368 13.4879 48.746 13.052 47.6289 13.052H46.7297L46.7025 23.4333ZM46.7025 9.75497H47.6289C48.6098 9.75497 48.9095 9.12828 48.9095 8.09286V4.85038C48.9095 3.84221 48.6915 3.35175 47.6289 3.35175H46.7025V9.75497Z" fill="white"/>
<path d="M59.5358 3.56973V23.4061H56.0481V3.56973H53.0781V0.218262H62.5058V3.59698L59.5358 3.56973Z" fill="white"/>
<path d="M71.9333 19.0461H69.372L68.9088 23.4058H65.748L68.5818 0.190674H72.7507L75.7752 23.4058H72.3692L71.9333 19.0461ZM71.5518 15.5857L70.6254 7.00261L69.7262 15.5857H71.5518Z" fill="white"/>
<path d="M79.5337 0.218262L82.5582 12.6705V0.218262H85.7734V23.4333H82.9124L79.5337 10.0819V23.4333H76.3457V0.218262H79.5337Z" fill="white"/>
<path d="M87.0859 0.218262H92.5082C95.5327 0.218262 96.4592 1.93487 96.4592 4.68689V18.8285C96.4592 21.6622 95.3965 23.4333 92.5082 23.4333H87.1132V0.218262H87.0859ZM90.6281 20.0546H91.4728C92.5355 20.0546 92.8352 19.4824 92.8352 18.2563V5.17735C92.8352 3.84221 92.481 3.379 91.6091 3.379H90.6009V20.0546H90.6281Z" fill="white"/>
<path d="M0 24.6312H5.39505C8.41955 24.6312 9.34597 26.3478 9.34597 29.0999V43.2414C9.34597 46.0752 8.28331 47.8463 5.39505 47.8463H0V24.6312ZM3.51496 44.4948H4.35964C5.4223 44.4948 5.72202 43.9226 5.72202 42.6965V29.6176C5.72202 28.2824 5.3678 27.8192 4.49588 27.8192H3.48771V44.4948H3.51496Z" fill="white"/>
<path d="M18.6377 24.6312V28.0099H14.1418V34.0862H17.6568V37.6012H14.1418V44.3041H18.8284V47.8191H10.5996V24.6312H18.6377Z" fill="white"/>
<path d="M24.4414 48.0922H23.7602C20.9537 48.0922 19.4551 46.5663 19.4551 43.7053V39.0459H22.9428V43.1058C22.9428 44.1685 23.297 44.7407 24.0872 44.7407C24.9319 44.7407 25.2316 44.1685 25.2316 42.7516V42.2339C25.2316 40.5718 25.0681 39.9996 23.7875 38.3375L21.5532 35.4765C20.0545 33.5419 19.6186 32.0433 19.6186 29.7272V28.9915C19.6186 25.9125 21.1717 24.4684 23.951 24.4684H24.6049C27.5204 24.4684 28.6376 25.749 28.6376 28.501V32.3157H25.2316V28.9643C25.2316 28.1741 25.0681 27.6019 24.2234 27.6019C23.3788 27.6019 23.188 28.1196 23.188 29.2367V29.6727C23.188 30.9806 23.4332 31.689 24.6321 33.2422L26.8665 36.1304C28.4468 38.2012 28.9645 39.3729 28.9645 41.9887V42.7244C28.9918 46.0758 27.5204 48.0922 24.4414 48.0922Z" fill="white"/>
<path d="M33.515 47.8463H30V24.6312H33.515V47.8463Z" fill="white"/>
<path d="M38.0936 48.1748C36.0227 48.1748 34.7148 46.322 34.7148 43.9242V29.4011C34.7148 26.8126 35.723 24.4148 39.0472 24.4148H39.7284C43.5159 24.4148 43.9518 26.8671 43.9518 29.6191V31.9897H40.5186V29.3739C40.5186 28.3385 40.2734 27.7935 39.4015 27.7935C38.6658 27.7935 38.3115 28.3657 38.3115 29.3739V42.9433C38.3115 44.0332 38.7475 44.6054 39.456 44.6054C40.3551 44.6054 40.7638 43.9787 40.7638 43.1067V37.303H39.1835V33.7335H44.1153V47.8479H42.1262C42.099 47.7116 41.8265 46.5672 41.5268 45.559C41.2815 46.3492 40.0827 48.1476 38.3115 48.1476H38.0936V48.1748Z" fill="white"/>
<path d="M48.5298 24.6312L51.5543 37.0834V24.6312H54.7695V47.8463H51.9085L48.5298 34.4949V47.8463H45.3418V24.6312H48.5298Z" fill="white"/>
<path d="M63.9805 48.0922H63.2993C60.4928 48.0922 58.9941 46.5663 58.9941 43.7053V39.0459H62.4819V43.1058C62.4819 44.1685 62.8361 44.7407 63.6263 44.7407C64.4709 44.7407 64.7707 44.1685 64.7707 42.7516V42.2339C64.7707 40.5718 64.6072 39.9996 63.3265 38.3375L61.0922 35.4765C59.5936 33.5419 59.1576 32.0433 59.1576 29.7272V28.9915C59.1576 25.9125 60.7107 24.4684 63.49 24.4684H64.144C67.0322 24.4684 68.1766 25.749 68.1766 28.501V32.3157H64.7707V28.9643C64.7707 28.1741 64.6072 27.6019 63.7625 27.6019C62.9178 27.6019 62.7271 28.1196 62.7271 29.2367V29.6727C62.7271 30.9806 62.9723 31.689 64.1712 33.2422L66.4055 36.1304C67.9859 38.2012 68.5036 39.3729 68.5036 41.9887V42.7244C68.5308 46.0758 67.0595 48.0922 63.9805 48.0922Z" fill="white"/>
<path d="M75.2879 43.1337V37.7386H78.7483V43.1064C78.7483 45.6132 77.9309 48.12 74.5249 48.12H73.7347C70.1653 48.12 69.4023 45.5587 69.4023 43.2154V29.0466C69.4023 26.676 70.4378 24.3872 73.6257 24.3872C77.4949 24.3872 78.7483 26.9485 78.7483 29.2101V33.3517H75.2879V29.2646C75.2879 28.2564 74.9881 27.7387 74.089 27.7387C73.217 27.7387 72.999 28.2291 72.999 29.2646V43.0519C72.999 44.0873 73.3533 44.6323 74.1162 44.6323C74.9881 44.714 75.2879 44.0873 75.2879 43.1337Z" fill="white"/>
<path d="M85.8034 37.6556H83.4056V47.8463H79.8906V24.6312H83.4056V33.9227H85.8034V24.6312H89.3183V47.8463H85.8034V37.6556Z" fill="white"/>
<path d="M100.195 42.6708C100.195 45.9133 99.1046 48.1203 95.6987 48.1203H95.0992C91.7205 48.1203 90.5488 45.9133 90.5488 42.6708V29.7554C90.5488 26.5401 91.775 24.4148 95.072 24.4148H95.6714C99.1046 24.4148 100.195 26.5401 100.195 29.7281V42.6708ZM96.5978 29.5646C96.5978 28.3385 96.1891 27.7935 95.3717 27.7935C94.4725 27.7935 94.1183 28.393 94.1183 29.5646V42.916C94.1183 43.9242 94.3908 44.6871 95.3989 44.6871C96.3254 44.6871 96.5978 43.8969 96.5978 42.916V29.5646Z" fill="white"/>
<path d="M110.95 42.6708C110.95 45.9133 109.86 48.1203 106.455 48.1203H105.855C102.476 48.1203 101.305 45.9133 101.305 42.6708V29.7554C101.305 26.5401 102.531 24.4148 105.828 24.4148H106.427C109.86 24.4148 110.95 26.5401 110.95 29.7281V42.6708ZM107.354 29.5646C107.354 28.3385 106.945 27.7935 106.128 27.7935C105.228 27.7935 104.874 28.393 104.874 29.5646V42.916C104.874 43.9242 105.147 44.6871 106.155 44.6871C107.081 44.6871 107.354 43.8969 107.354 42.916V29.5646Z" fill="white"/>
<path d="M115.695 24.6312V44.2496H120V47.8463H112.18V24.6312H115.695Z" fill="white"/>
</svg>
