<svg width="156" height="194" viewBox="0 0 156 194" fill="none" xmlns="http://www.w3.org/2000/svg">
<rect x="0.5" y="0.5" width="155" height="193" rx="15.5" stroke="white"/>
<path d="M24.5 171.648C24.5 172.372 24.4167 173.016 24.25 173.578C24.0833 174.135 23.8438 174.604 23.5312 174.984C23.2188 175.37 22.8359 175.661 22.3828 175.859C21.9297 176.057 21.4115 176.156 20.8281 176.156C20.25 176.156 19.7318 176.06 19.2734 175.867C18.8151 175.669 18.4271 175.375 18.1094 174.984C17.7917 174.604 17.5495 174.135 17.3828 173.578C17.2161 173.016 17.1328 172.372 17.1328 171.648V168.984C17.1328 168.26 17.2161 167.62 17.3828 167.062C17.5495 166.5 17.7917 166.026 18.1094 165.641C18.4219 165.255 18.8047 164.964 19.2578 164.766C19.7161 164.562 20.2344 164.461 20.8125 164.461C21.3958 164.461 21.9141 164.562 22.3672 164.766C22.8255 164.964 23.2135 165.255 23.5312 165.641C23.8438 166.026 24.0833 166.5 24.25 167.062C24.4167 167.62 24.5 168.26 24.5 168.984V171.648ZM18.5859 171.359L23.0156 167.961C22.974 167.586 22.8984 167.255 22.7891 166.969C22.6849 166.677 22.5417 166.435 22.3594 166.242C22.1823 166.044 21.9635 165.896 21.7031 165.797C21.4479 165.698 21.151 165.648 20.8125 165.648C20.4688 165.648 20.1641 165.703 19.8984 165.812C19.638 165.917 19.4167 166.07 19.2344 166.273C19.0156 166.529 18.8516 166.859 18.7422 167.266C18.638 167.667 18.5859 168.133 18.5859 168.664V170.57C18.5859 170.701 18.5859 170.831 18.5859 170.961C18.5859 171.091 18.5859 171.224 18.5859 171.359ZM23.0469 171.953V170.344C23.0469 170.266 23.0469 170.117 23.0469 169.898C23.0469 169.674 23.0469 169.49 23.0469 169.344L18.625 172.727C18.6719 173.107 18.7552 173.443 18.875 173.734C18.9948 174.021 19.151 174.258 19.3438 174.445C19.5208 174.622 19.7344 174.758 19.9844 174.852C20.2344 174.94 20.5156 174.984 20.8281 174.984C21.1562 174.984 21.4479 174.935 21.7031 174.836C21.9583 174.737 22.1745 174.594 22.3516 174.406C22.5911 174.151 22.7656 173.818 22.875 173.406C22.9896 172.995 23.0469 172.51 23.0469 171.953ZM31.6562 176H30.2109V166.469L27.2344 167.602V166.281L31.5391 164.625H31.6562V176Z" fill="white"/>
<rect x="61.5544" y="30.2884" width="63" height="123" rx="31.5" transform="rotate(13 61.5544 30.2884)" stroke="white"/>
<path d="M78 79L79.3463 96.0349L95 97.5L79.3463 98.9651L78 116L76.6537 98.9651L61 97.5L76.6537 96.0349L78 79Z" fill="white"/>
</svg>
