<svg width="170" height="488" viewBox="0 0 170 488" fill="none" xmlns="http://www.w3.org/2000/svg">
<path d="M52 484.391H12.543V473.699L42.1289 458.441V458.277L12.543 443.02L12.543 432.328H52V440.613H24.3281V444.113L16.7813 437.223L52 455.215V461.531L16.7812 479.496L24.3281 472.633V476.105H52V484.391ZM52 417.151L52 426.175H12.543L12.543 392.323H19.625V417.151H52ZM52 388.084H12.543V379.06H28.4023V353.275H12.543V344.252H52V353.275H35.4844V379.06H52V388.084ZM52.7656 315.075C52.7656 319.997 51.9362 324.29 50.2773 327.954C48.6003 331.6 46.2305 334.425 43.168 336.43C40.0872 338.436 36.4596 339.438 32.2852 339.438H32.2305C28.056 339.438 24.4375 338.436 21.375 336.43C18.3125 334.407 15.9518 331.572 14.293 327.926C12.6159 324.281 11.7773 319.997 11.7773 315.075C11.7773 310.135 12.6159 305.842 14.293 302.196C15.9518 298.532 18.3125 295.697 21.375 293.692C24.4375 291.687 28.056 290.684 32.2305 290.684H32.2852C36.4596 290.684 40.0781 291.687 43.1406 293.692C46.2031 295.697 48.5729 298.523 50.25 302.169C51.9271 305.814 52.7656 310.117 52.7656 315.075ZM45.5469 315.075C45.5469 311.976 45.0091 309.296 43.9336 307.036C42.8398 304.757 41.2995 302.998 39.3125 301.758C37.3255 300.501 34.9831 299.872 32.2852 299.872H32.2305C29.5326 299.872 27.1901 300.501 25.2031 301.758C23.2161 302.998 21.6849 304.757 20.6094 307.036C19.5339 309.314 18.9961 311.994 18.9961 315.075C18.9961 318.137 19.5339 320.808 20.6094 323.087C21.6849 325.365 23.2161 327.124 25.2031 328.364C27.1719 329.603 29.5143 330.223 32.2305 330.223H32.2852C34.9831 330.223 37.3255 329.603 39.3125 328.364C41.2995 327.124 42.8398 325.365 43.9336 323.087C45.0091 320.808 45.5469 318.137 45.5469 315.075ZM52 281.332H45.5469V261.289C45.5469 258.973 45.0911 257.196 44.1797 255.957C43.2682 254.699 41.9375 254.07 40.1875 254.07H40.1602C38.9753 254.07 37.9909 254.371 37.207 254.972C36.4049 255.556 35.8125 256.421 35.4297 257.57C35.0286 258.7 34.8281 260.095 34.8281 261.753V281.332H29.0313L29.0313 262.984C29.0313 260.687 28.5846 258.91 27.6914 257.652C26.7982 256.394 25.5404 255.765 23.918 255.765H23.8633C22.2773 255.765 21.0742 256.312 20.2539 257.406C19.4154 258.481 18.9961 259.976 18.9961 261.89L18.9961 281.332H12.543L12.543 259.457C12.543 256.868 12.944 254.635 13.7461 252.757C14.5299 250.862 15.6602 249.403 17.1367 248.382C18.5951 247.343 20.3268 246.824 22.332 246.824H22.3867C23.8815 246.824 25.2396 247.152 26.4609 247.808C27.6641 248.446 28.6758 249.358 29.4961 250.542C30.3164 251.727 30.8724 253.113 31.1641 254.699H31.3008C31.5195 252.694 32.0573 250.962 32.9141 249.503C33.7526 248.027 34.8555 246.897 36.2227 246.113C37.5898 245.311 39.1484 244.91 40.8984 244.91H40.9531C43.2682 244.91 45.2552 245.484 46.9141 246.632C48.5547 247.781 49.8125 249.431 50.6875 251.582C51.5625 253.714 52 256.276 52 259.265V281.332ZM52 285.871H12.543L12.543 276.929H52V285.871ZM52 240.67H12.543L12.543 204.987H19.3516V231.647H28.8125V206.791H35.1289V231.647H45.1914V204.987H52V240.67ZM52 199.572H12.543V190.548H28.4023V164.763H12.543V155.74H52V164.763H35.4844L35.4844 190.548H52V199.572ZM52 149.613H12.543V140.59H28.4023L28.4023 114.805H12.543V105.781H52V114.805H35.4844V140.59H52V149.613ZM52 102.308L12.543 83.6045V75.3467H20.0078V78.2178L52 92.7647V102.308ZM42.4023 93.1201L36.1406 90.3584V66.0772L42.4023 63.3155V93.1201ZM52 63.4795L20.0078 78.0537H12.543V72.6397L52 53.9366V63.4795ZM52 10.7597V19.7284H38.1367V30.3651L52 42.287V52.5683L37.2344 39.8808C36.7057 43.2896 35.3932 45.9784 33.2969 47.9472C31.1823 49.9159 28.5208 50.9003 25.3125 50.9003H25.2578C22.6146 50.9003 20.3451 50.2896 18.4492 49.0683C16.5534 47.8287 15.0951 46.0513 14.0742 43.7362C13.0534 41.4211 12.543 38.6412 12.543 35.3964L12.543 10.7597H52ZM31.7656 19.7284H19.2422V34.3847C19.2422 36.7362 19.7891 38.5592 20.8828 39.8534C21.9766 41.1477 23.5169 41.7948 25.5039 41.7948H25.5586C27.5273 41.7948 29.0586 41.1477 30.1523 39.8534C31.2279 38.5592 31.7656 36.7362 31.7656 34.3847V19.7284Z" fill="white"/>
<path d="M105 487.043L65.543 468.34V460.082H73.0078V462.953L105 477.5V487.043ZM95.4023 477.855L89.1406 475.094V450.812L95.4023 448.051V477.855ZM105 448.215L73.0078 462.789H65.543V457.375L105 438.672V448.215ZM105 426.12V435.143H65.543V426.12H81.5938V422.702L65.543 405.421V394.347L85.3398 416.03L83.5625 415.948L105 393.061V404.901L88.375 422.702V426.12H105ZM105 377.994H72.625V393.99H65.543V353.002H72.625V368.998H105V377.994ZM105 348.899H65.543L65.543 340.122H92.9141V336.294L97.125 344.415L65.543 314.063V306.106H105V314.883H77.5195V318.794L73.2813 310.618L105 340.942V348.899ZM105 295.386H98.5469V275.343C98.5469 273.028 98.0911 271.251 97.1797 270.011C96.2682 268.753 94.9375 268.125 93.1875 268.125H93.1602C91.9753 268.125 90.9909 268.425 90.207 269.027C89.4049 269.61 88.8125 270.476 88.4297 271.625C88.0286 272.755 87.8281 274.149 87.8281 275.808V295.386H82.0313V277.039C82.0313 274.742 81.5846 272.964 80.6914 271.707C79.7982 270.449 78.5404 269.82 76.918 269.82H76.8633C75.2773 269.82 74.0742 270.367 73.2539 271.46C72.4154 272.536 71.9961 274.031 71.9961 275.945V295.386H65.543V273.511C65.543 270.923 65.944 268.69 66.7461 266.812C67.5299 264.916 68.6602 263.458 70.1367 262.437C71.5951 261.398 73.3268 260.878 75.332 260.878H75.3867C76.8815 260.878 78.2396 261.207 79.4609 261.863C80.6641 262.501 81.6758 263.412 82.4961 264.597C83.3164 265.782 83.8724 267.167 84.1641 268.753H84.3008C84.5195 266.748 85.0573 265.016 85.9141 263.558C86.7526 262.082 87.8555 260.951 89.2227 260.167C90.5898 259.365 92.1484 258.964 93.8984 258.964H93.9531C96.2682 258.964 98.2552 259.539 99.9141 260.687C101.555 261.835 102.813 263.485 103.688 265.636C104.563 267.769 105 270.33 105 273.32V295.386ZM105 299.925H65.543V290.984H105L105 299.925ZM105 258.034L65.543 239.33V231.073H73.0078V233.944L105 248.491V258.034ZM95.4023 248.846L89.1406 246.084V221.803L95.4023 219.041V248.846ZM105 219.205L73.0078 233.78H65.543V228.366L105 209.663V219.205ZM65.543 206.161V197.521H97.918V172.611H65.543V163.97H105L105 206.161H65.543ZM112.793 165.2H105L105 172.583H97.8633L97.8633 156.997H112.793V165.2ZM105 153.223H65.543V144.445H92.9141V140.617L97.125 148.738L65.543 118.387V110.43H105V119.207H77.5195V123.117L73.2813 114.942L105 145.266V153.223ZM105 64.5459V73.5147H91.1367V84.1514L105 96.0733V106.355L90.2344 93.667C89.7057 97.0759 88.3932 99.7647 86.2969 101.733C84.1823 103.702 81.5208 104.687 78.3125 104.687H78.2578C75.6146 104.687 73.3451 104.076 71.4492 102.855C69.5534 101.615 68.0951 99.8376 67.0742 97.5225C66.0534 95.2074 65.543 92.4274 65.543 89.1826V64.5459H105ZM84.7656 73.5147H72.2422V88.1709C72.2422 90.5225 72.7891 92.3454 73.8828 93.6397C74.9766 94.9339 76.5169 95.5811 78.5039 95.5811H78.5586C80.5273 95.5811 82.0586 94.9339 83.1523 93.6397C84.2279 92.3454 84.7656 90.5225 84.7656 88.1709V73.5147Z" fill="white"/>
<path d="M158 484.391H118.543V475.367H134.402V449.582H118.543V440.559H158V449.582H141.484V475.367H158V484.391ZM158 437.085L118.543 418.382V410.124H126.008V412.995L158 427.542V437.085ZM148.402 427.897L142.141 425.136V400.854L148.402 398.093V427.897ZM158 398.257L126.008 412.831H118.543V407.417L158 388.714V398.257ZM158 380.701H151.547V360.658C151.547 358.343 151.091 356.566 150.18 355.326C149.268 354.068 147.938 353.439 146.188 353.439H146.16C144.975 353.439 143.991 353.74 143.207 354.342C142.405 354.925 141.812 355.791 141.43 356.939C141.029 358.069 140.828 359.464 140.828 361.123V380.701H135.031V362.353C135.031 360.056 134.585 358.279 133.691 357.021C132.798 355.763 131.54 355.135 129.918 355.135H129.863C128.277 355.135 127.074 355.681 126.254 356.775C125.415 357.851 124.996 359.345 124.996 361.26V380.701H118.543V358.826C118.543 356.237 118.944 354.004 119.746 352.127C120.53 350.231 121.66 348.773 123.137 347.752C124.595 346.713 126.327 346.193 128.332 346.193H128.387C129.882 346.193 131.24 346.521 132.461 347.177C133.664 347.816 134.676 348.727 135.496 349.912C136.316 351.097 136.872 352.482 137.164 354.068H137.301C137.52 352.063 138.057 350.331 138.914 348.873C139.753 347.396 140.855 346.266 142.223 345.482C143.59 344.68 145.148 344.279 146.898 344.279H146.953C149.268 344.279 151.255 344.853 152.914 346.002C154.555 347.15 155.812 348.8 156.688 350.951C157.562 353.084 158 355.645 158 358.635V380.701ZM158 385.24H118.543V376.299H158V385.24ZM158 335.473H151.164V317.837C151.164 315.339 150.599 313.416 149.469 312.067C148.32 310.7 146.689 310.016 144.574 310.016H144.52C142.387 310.016 140.755 310.691 139.625 312.04C138.495 313.389 137.93 315.33 137.93 317.864V335.473H131.203V316.442C131.203 313.27 131.777 310.518 132.926 308.184C134.056 305.851 135.624 304.046 137.629 302.77C139.634 301.494 141.967 300.856 144.629 300.856H144.684C147.345 300.856 149.678 301.485 151.684 302.743C153.671 304.001 155.22 305.787 156.332 308.102C157.444 310.417 158 313.152 158 316.305V335.473ZM158 339.985H118.543V330.989H158V339.985ZM158 296.208H118.543V287.184H158V296.208ZM158 271.98V281.003H118.543V271.98H134.594V268.562L118.543 251.281V240.207L138.34 261.89L136.562 261.808L158 238.921V250.761L141.375 268.562V271.98H158ZM158.766 214.776C158.766 219.698 157.936 223.991 156.277 227.655C154.6 231.301 152.23 234.126 149.168 236.131C146.087 238.136 142.46 239.139 138.285 239.139H138.23C134.056 239.139 130.438 238.136 127.375 236.131C124.313 234.108 121.952 231.273 120.293 227.627C118.616 223.982 117.777 219.698 117.777 214.776C117.777 209.836 118.616 205.543 120.293 201.897C121.952 198.233 124.313 195.398 127.375 193.393C130.438 191.388 134.056 190.385 138.23 190.385H138.285C142.46 190.385 146.078 191.388 149.141 193.393C152.203 195.398 154.573 198.224 156.25 201.87C157.927 205.515 158.766 209.817 158.766 214.776ZM151.547 214.776C151.547 211.677 151.009 208.997 149.934 206.737C148.84 204.458 147.299 202.699 145.312 201.459C143.326 200.202 140.983 199.573 138.285 199.573H138.23C135.533 199.573 133.19 200.202 131.203 201.459C129.216 202.699 127.685 204.458 126.609 206.737C125.534 209.015 124.996 211.695 124.996 214.776C124.996 217.838 125.534 220.509 126.609 222.788C127.685 225.066 129.216 226.825 131.203 228.065C133.172 229.304 135.514 229.924 138.23 229.924H138.285C140.983 229.924 143.326 229.304 145.312 228.065C147.299 226.825 148.84 225.066 149.934 222.788C151.009 220.509 151.547 217.838 151.547 214.776ZM158 181.033H151.547L151.547 160.99C151.547 158.674 151.091 156.897 150.18 155.658C149.268 154.4 147.938 153.771 146.188 153.771H146.16C144.975 153.771 143.991 154.072 143.207 154.673C142.405 155.256 141.813 156.122 141.43 157.271C141.029 158.401 140.828 159.796 140.828 161.454L140.828 181.033H135.031V162.685C135.031 160.388 134.585 158.611 133.691 157.353C132.798 156.095 131.54 155.466 129.918 155.466H129.863C128.277 155.466 127.074 156.013 126.254 157.107C125.415 158.182 124.996 159.677 124.996 161.591V181.033H118.543V159.158C118.543 156.569 118.944 154.336 119.746 152.458C120.53 150.562 121.66 149.104 123.137 148.083C124.595 147.044 126.327 146.525 128.332 146.525H128.387C129.882 146.525 131.24 146.853 132.461 147.509C133.664 148.147 134.676 149.059 135.496 150.243C136.316 151.428 136.872 152.814 137.164 154.4H137.301C137.52 152.394 138.057 150.663 138.914 149.204C139.753 147.728 140.855 146.598 142.223 145.814C143.59 145.012 145.148 144.611 146.898 144.611H146.953C149.268 144.611 151.255 145.185 152.914 146.333C154.555 147.482 155.813 149.131 156.688 151.283C157.563 153.415 158 155.977 158 158.966L158 181.033ZM158 185.572H118.543V176.63H158V185.572Z" fill="white"/>
</svg>
