<svg width="64" height="64" viewBox="0 0 64 64" fill="none" xmlns="http://www.w3.org/2000/svg">
<rect width="64" height="64" fill="white"/>
<path d="M46.6797 17.9552C44.6735 15.9529 41.9549 14.8284 39.1205 14.8284C36.2861 14.8284 33.5675 15.9529 31.5613 17.9552L17.7805 31.736C15.7617 33.7385 14.621 36.4609 14.6095 39.3044C14.5979 42.1479 15.7164 44.8795 17.7189 46.8984C19.7214 48.9172 22.4438 50.0578 25.2873 50.0694C28.1308 50.0809 30.8625 48.9625 32.8813 46.96L46.6445 33.1792C47.6386 32.1854 48.4271 31.0056 48.9652 29.7071C49.5032 28.4086 49.7801 27.0167 49.7801 25.6112C49.7801 24.2056 49.5032 22.8138 48.9652 21.5152C48.4271 20.2167 47.6386 19.0369 46.6445 18.0432L46.6797 17.9552Z" fill="#0F0F0F"/>
</svg>
